M48
;Layer_Color=9474304
;FILE_FORMAT=2:4
INCH,TZ
;TYPE=PLATED
T1F00S00C0.0197
T2F00S00C0.0315
T3F00S00C0.0394
T4F00S00C0.0472
T5F00S00C0.1181
T6F00S00C0.1260
%
T01
X12205Y-6890
X18504
Y-3740
X25197Y-5709
X28937Y-2756
Y-197
X18110Y4134
T02
X7874Y-1969
Y1969
T03
X7874Y-6496
Y-4528
X28445Y-4724
Y-3937
X27756Y1969
X25787
X16535Y984
Y-984
X12205
Y984
X7874Y4528
Y6496
T04
X23654Y-2000
Y-1000
Y0
Y1000
Y2000
X19654
Y1000
Y0
Y-1000
Y-2000
T05
X4921Y-2165
Y2165
T06
X1024Y-6850
X28504Y-6850
X28504Y6850
X1024
M30
