M48
;Layer_Color=9474304
;FILE_FORMAT=2:4
INCH,TZ
;TYPE=PLATED
T1F00S00C0.0118
T2F00S00C0.0276
T3F00S00C0.0295
T4F00S00C0.0394
T5F00S00C0.1260
%
T01
X-12008Y-14468
X-11417
X-11713Y-13878
X-12303
X-12008Y-13287
X-10532Y-14468
X13583Y-9941
X14272Y-9350
Y-8169
X14468Y-7382
X14862
X15453Y-7677
X16437
X15945Y-8661
X15453Y-9646
X16437
X15945Y-10630
X14961
X13681Y-7677
X13976Y-6693
Y-5709
Y-4724
Y-3740
Y-2756
Y-1772
Y-787
Y197
Y1181
Y2165
X16437
Y197
Y-1772
Y-3740
X15945Y-4724
X16437Y-5709
X15453
X15945Y-6693
X15453Y-2756
Y-787
Y1181
X13386Y1673
Y689
Y-295
Y-1280
Y-2264
Y-3248
Y-4232
Y-5217
Y-6201
X12500Y-5709
X11516
X10532
X10728Y-5315
Y-4921
X11516Y-4724
Y-2756
X11909Y-1969
X12500Y-1772
Y-3740
X9350Y-3740
Y-4134
Y-4528
Y-4921
Y-5315
X9449Y-6201
X9154Y-6594
X8957Y-7185
Y-7579
X9350Y-7480
X10236Y-7579
X10630
X11614
Y-7185
X12598Y-7579
X12992
X12776Y-8543
X13209
Y-8976
X12776
X12303Y-8760
X11713Y-9350
X11614Y-9941
X12402
X12795
X13189
X11220Y-10532
X10728Y-10236
X10236Y-9941
X9941Y-10236
X9449
X9055Y-10630
X8071
X7087
X6988Y-10138
X6693Y-10827
X6299
X5906Y-10532
X5118Y-10630
Y-10138
X5020Y-9646
X4626Y-9252
X4134Y-9547
X4331Y-10138
Y-10630
X4134Y-11220
X5315
X3346Y-10630
X2362
X1378
X394
X0Y-10433
X-591Y-10630
Y-9744
X-1083Y-9646
X-1181Y-9252
X-1575Y-8957
Y-8366
Y-7480
Y-6890
X-1181Y-6594
X-591Y-6102
X0Y-5413
X492Y-4626
Y-4134
Y-3642
X394Y-3051
X0Y-3248
X-394
X-787Y-3051
X-1181
X-1575
X-1870Y-2854
Y-2461
Y-2067
Y-1673
X-1575Y-1476
X-1181
X-787
X-394Y-1280
X0
X738Y-1673
X689Y98
X295
X-98
X1772Y0
X3248Y492
X3543Y787
X3839Y1181
X3839Y2067
X4232
X3346Y1772
X3150Y1476
X3740Y0
X4134Y0
X4626Y-295
X4626Y-689
X4035Y-1673
Y-2264
X3740Y-2657
X3248Y-3248
Y-3642
Y-4134
Y-4626
X2854Y-5020
X2362
X1870
X1378
X886
X1181Y-6594
Y-7776
X1575Y-7480
X1969Y-7185
X2362Y-6693
X2756Y-6890
Y-7283
Y-7677
X3051Y-7972
X3543
X4035
X4380
X4134Y-8366
X5413Y-8268
X5866Y-8406
X6299
X6732
Y-7972
X6299
X5866
Y-7539
X6299
X6732
X6988Y-5807
Y-5413
X6201
Y-5807
X5512Y-5020
X5610Y-4528
X4823
Y-3937
Y-2756
X5217Y-2461
X5709Y-2067
X6988Y-2756
X7382Y-2461
X7874Y-1772
X9350Y-1969
Y-1378
X8760Y-984
X6594Y-787
X6398Y0
Y591
X6004Y-295
X5610Y1329
X6988Y1476
X7579Y197
X7776Y-3937
Y-4528
X6988
X8440Y-5020
X9350Y-3346
X9843Y-6791
X9744Y-8169
X8858Y-8465
X8465
Y-7874
X8563Y-9646
X7579
X9744Y-9350
X10807Y-8976
X11240
Y-8543
X10807
X4331Y-6890
X3839Y-5906
X3248
X4823Y-5413
X2854Y-2264
Y-1673
X-1476Y-3839
Y-4429
X-1870Y-4724
Y-3543
X-2067Y-5709
Y-7677
X-1181Y-7776
X-2067Y-9646
X-1575Y-10630
X886Y-9646
X1181Y-9252
X1575Y-8957
X1969Y-8661
X2362
X1870Y-9646
X3051Y-9547
X11516Y-787
Y1181
X11220Y1772
Y2165
X10827Y1772
X12500Y2165
Y197
X-2461Y-197
X-2756Y98
X-3740
X-3248Y-787
X-2461Y-1378
Y-1969
X-3051Y-2461
X-4232Y-3543
Y-4724
X-3642Y-4823
X-2461Y-5020
X-2559Y-6693
X-3150
X-2854Y-6988
X-3543Y-8071
Y-8465
X-3150Y-8858
X-2559Y-8661
X-3839Y-9252
Y-9744
X-4685Y-9370
X-5020
X-5354
Y-8976
X-5020
X-4685
X-5020Y-9843
X-5797Y-9833
X-6496Y-9744
Y-7972
X-6988Y-7283
X-7579Y-7677
X-8760
X-9350Y-7382
X-9941Y-7677
Y-8268
X-10827
Y-7677
X-11516Y-8071
X-11220Y-9252
X-10728Y-9843
Y-10335
Y-10925
X-10138
Y-10335
X-10138Y-9843
X-9350Y-10925
X-11319
X-12106Y-10827
X-12303Y-11516
X-11713
X-12008Y-12106
X-11713Y-12697
X-11122
X-10532
X-12303
X-13091Y-10827
X-12756Y-9449
X-12441
Y-9055
X-12756
X-13976Y-9646
X-14468Y-9843
X-15059
X-15748Y-9252
X-15846Y-7972
X-16339Y-8268
X-17323Y-7283
Y-5315
X-15453
X-14764Y-5217
X-14075Y-5315
X-13681Y-4921
X-14272Y-4331
X-15354Y-4035
X-15748Y-3740
Y-3150
X-15354Y-2559
Y-1969
Y-1378
X-14764Y-886
Y295
X-15157
X-15453Y-295
X-16339Y-394
X-17323Y591
Y-1378
Y-3346
X-16339Y-2362
Y-4331
Y-6299
X-15354Y-7283
X-13976Y-7382
X-13583
X-13189
X-13681Y-8071
X-14370Y-8268
Y-6299
X-11516Y-5413
X-10728Y-5217
X-10138
X-9744Y-4921
Y-4331
X-9843Y-3740
Y-3150
X-8957Y-2559
Y-1969
X-7776
Y-2559
X-6890Y-2264
X-7283Y-4429
X-7579Y-4921
X-6988
X-7283Y-5413
X-8071Y-5315
X-8661
X-8957Y-4921
X-8760Y-3740
X-11319Y-4331
X-11909Y-3150
Y-2756
Y-2362
X-13287Y-2559
X-13091Y-3150
X-12894Y-3543
X-12894Y-886
Y-492
X-12303
X-12598Y-197
X-11713Y-295
Y-689
X-11319Y-591
X-12106Y-886
X-13484Y-689
Y-295
X-13878Y-591
X-10433Y-886
X-10039
X-10138Y-1378
X-9744Y-295
X-9154Y-295
X-8957Y394
X-8661Y787
X-8071
X-7776Y394
X-7283Y787
X-7480Y1575
X-6594Y394
X-6201
X-5807
Y0
X-5413
Y-394
X-5020
X-3937Y2264
X-9449Y787
X-10433Y295
X-8366Y-787
X-5807Y-7283
X-4823
X-5118Y-8071
X-2559Y-10630
X-15846Y-10925
Y-12303
X-16339Y1575
X-18307
X-19291Y591
Y-1378
Y-3346
Y-5315
X-18307Y-4331
Y-2362
Y-394
Y-6299
X-19291Y-7283
X-18307Y-8268
X-19291Y2559
Y4232
X-18307Y3543
X-17323Y4232
Y2559
X-16339Y3543
X-14764Y2756
X-12598
X-10433
X-9449Y3543
X-8465Y4232
Y2559
X-7480Y3543
X-6398Y2854
Y4823
Y6791
Y8760
X-5512Y8169
X-4429Y8760
Y10728
X-6398
Y12697
Y14665
X-5217
X-5413Y13681
Y11713
X-4429Y12697
X-3445Y13681
X-3248Y14665
X-2461Y8760
X-2756Y8169
X-3445Y5807
X-3346Y4429
X-2756
X-4429Y4823
X-5217Y3839
X-5413Y5807
X-9350Y5709
X-11516Y8858
X-13681
X-15846Y5709
X-3740Y2559
X-2362
X-295Y2756
Y3150
X98Y2756
X591Y3150
X886Y3445
X1476Y4035
X2559
X2953
Y4528
X3346
X3740
X2559Y3642
X591Y4429
X984Y6594
Y6988
Y7382
X1378Y6594
Y6201
X1772
X-98Y6791
X-689
X-886Y8858
X-591Y9154
X-886Y9449
X1083Y9154
X787Y8858
X1969
X1378Y9941
X1772Y10630
X2165
X2559Y9941
X4626Y10039
X6594
X8563
X9350Y9646
Y9252
Y8858
Y8465
Y8071
Y7677
Y7283
Y6890
X8957
X8268Y7382
X8071Y8268
X6594Y8071
X5610Y9055
X4626Y8071
X4035Y8366
X3642Y11024
X4626Y12008
Y14665
X6594
X8563
X10532
X12500
X13091Y14370
X12303Y12205
X10532Y12008
X9547Y11024
X10728Y10039
X11516Y9055
X12500Y8071
Y10039
X11516Y6890
X11122
X10728
Y4921
X11122
X11516
Y5512
X12500
Y4921
Y4134
X13386Y4626
Y3642
Y2657
X11516Y3150
X10728Y4134
Y4528
X8858Y4921
X9350Y5512
X7677
Y4921
X6988Y5217
Y4626
X6594Y5512
X6004
X9055Y3642
X9350Y3346
X8760Y3051
X13287Y5512
X2657Y14665
X689
X-1280
X-1476Y13681
X-1083Y12697
X-394Y12500
X14468Y12992
X16437
X16535Y14370
X16437Y10039
Y8071
Y6102
Y4134
X15453Y3150
X13976
Y4134
X13780Y5020
X15453Y5118
Y7087
Y9055
X14468Y8071
X13484Y7087
Y9055
X14468Y10039
X15453Y11024
X13484
X19390Y12008
T02
X969Y11968
X1469
X1969
X2468
X2968
Y12469
X2468
X1969
X1469
X969
T03
X18110Y13533
Y14616
T04
X-12598Y-14331
X-9350Y-13091
Y-12303
X-12598Y-12362
X-12992Y12461
X-12205
X-10039
X-9252
X-15157
X-15945
T05
X-18661Y-13898
X18661Y-13898
X-18661Y13898
M30
