M48
;Layer_Color=9474304
;FILE_FORMAT=2:4
INCH,TZ
;TYPE=PLATED
T1F00S00C0.0197
T2F00S00C0.0315
T3F00S00C0.0394
T4F00S00C0.0472
T5F00S00C0.1181
T6F00S00C0.1260
%
T01
X18504Y-6890
Y-2362
X27953Y-1378
X17913Y1969
T02
X7874Y-1969
Y1969
T03
X8071Y-4724
X10039
X24114Y-4331
Y-5118
X26772Y2165
Y4134
X16535Y984
Y-984
X12205
Y984
X10039Y4724
X8071
T04
X23654Y-2000
Y-1000
Y0
Y1000
Y2000
X19654
Y1000
Y0
Y-1000
Y-2000
T05
X4921Y-2165
Y2165
T06
X1024Y-6850
X28504Y-6850
X28504Y6850
X1024
M30
