G04 Layer_Physical_Order=3*
G04 Layer_Color=16440176*
%FSLAX25Y25*%
%MOIN*%
G70*
G01*
G75*
%ADD65C,0.02362*%
%ADD66C,0.02953*%
%ADD67C,0.04921*%
G36*
X-47244Y18701D02*
X-47244Y-29035D01*
X-44783Y-31496D01*
X-32972Y-31496D01*
X-31004Y-33465D01*
X-31004Y-50689D01*
X-28543Y-53150D01*
X-11811Y-53150D01*
X-1792D01*
X-1509Y-53650D01*
X-1606Y-54134D01*
X-1483Y-54748D01*
X-1135Y-55269D01*
X-614Y-55617D01*
X0Y-55739D01*
X614Y-55617D01*
X1135Y-55269D01*
X1483Y-54748D01*
X1606Y-54134D01*
X1509Y-53650D01*
X1792Y-53150D01*
X30020D01*
X35433Y-47736D01*
Y-43307D01*
Y-38386D01*
X37402Y-36417D01*
X62500D01*
Y-46260D01*
X62500Y-49705D01*
X56927D01*
X56880Y-49467D01*
X56466Y-48849D01*
X55848Y-48435D01*
X55118Y-48290D01*
X54388Y-48435D01*
X53770Y-48849D01*
X53356Y-49467D01*
X53309Y-49705D01*
X46260D01*
X41339Y-54626D01*
Y-63484D01*
X1969D01*
X-492Y-65945D01*
X-492Y-102823D01*
X-614Y-102847D01*
X-1135Y-103195D01*
X-1483Y-103716D01*
X-1606Y-104331D01*
X-1483Y-104945D01*
X-1135Y-105466D01*
X-614Y-105814D01*
X-492Y-105839D01*
Y-107283D01*
X-2461Y-109252D01*
X-29528D01*
X-31496Y-107283D01*
X-31496Y-90188D01*
X-31496Y-90188D01*
X-30882Y-90066D01*
X-30361Y-89718D01*
X-30013Y-89197D01*
X-29890Y-88583D01*
X-30013Y-87968D01*
X-30361Y-87447D01*
X-30882Y-87099D01*
X-31496Y-86977D01*
X-32111Y-87099D01*
X-32336Y-87250D01*
X-33957Y-85630D01*
X-33926Y-85142D01*
X-33827Y-84646D01*
X-33950Y-84031D01*
X-34298Y-83510D01*
X-34819Y-83162D01*
X-35433Y-83040D01*
X-36048Y-83162D01*
X-36568Y-83510D01*
X-36902Y-84009D01*
X-36939Y-84016D01*
X-37402Y-83853D01*
Y-81502D01*
X-36939Y-81339D01*
X-36902Y-81345D01*
X-36568Y-81844D01*
X-36048Y-82192D01*
X-35433Y-82314D01*
X-34819Y-82192D01*
X-34298Y-81844D01*
X-33950Y-81323D01*
X-33827Y-80709D01*
X-33950Y-80094D01*
X-34298Y-79573D01*
X-34819Y-79225D01*
X-35433Y-79103D01*
X-36048Y-79225D01*
X-36568Y-79573D01*
X-36902Y-80072D01*
X-36939Y-80079D01*
X-37402Y-79916D01*
Y-78248D01*
X-39862Y-75787D01*
X-68405D01*
X-71850Y-79232D01*
X-86614D01*
X-89075Y-81693D01*
Y-85630D01*
X-96949D01*
X-98917Y-87598D01*
Y-92028D01*
X-110697D01*
X-110721Y-91905D01*
X-110728Y-91895D01*
Y-78740D01*
Y-58563D01*
X-69390D01*
X-66929Y-56102D01*
X-66929Y-39862D01*
X-69390Y-37402D01*
X-81693D01*
X-83661Y-35433D01*
X-83661Y-25098D01*
X-81693Y-23130D01*
X-70405Y-23130D01*
X-70381Y-23252D01*
X-70033Y-23773D01*
X-69512Y-24121D01*
X-68898Y-24243D01*
X-68283Y-24121D01*
X-67762Y-23773D01*
X-67414Y-23252D01*
X-67292Y-22638D01*
X-67414Y-22023D01*
X-67762Y-21502D01*
X-67762Y-21502D01*
X-66929Y-20669D01*
X-66929Y-10335D01*
X-69390Y-7874D01*
X-81693Y-7874D01*
X-82146Y-7421D01*
X-82178Y-7260D01*
X-82526Y-6739D01*
X-83047Y-6391D01*
X-83209Y-6358D01*
X-83661Y-5906D01*
X-83661Y12303D01*
X-83661Y18701D01*
X-81693Y20669D01*
X-49213Y20670D01*
X-47244Y18701D01*
D02*
G37*
G36*
X91712Y-36417D02*
X91995Y-36917D01*
X91898Y-37402D01*
X92020Y-38016D01*
X92369Y-38537D01*
X92889Y-38885D01*
X93504Y-39007D01*
X94118Y-38885D01*
X94639Y-38537D01*
X94987Y-38016D01*
X95110Y-37402D01*
X95013Y-36917D01*
X95296Y-36417D01*
X117618D01*
X119587Y-38386D01*
X119587Y-56241D01*
X119233Y-56595D01*
X116665D01*
X116641Y-56472D01*
X116293Y-55951D01*
X115772Y-55603D01*
X115157Y-55481D01*
X114543Y-55603D01*
X114022Y-55951D01*
X113674Y-56472D01*
X113650Y-56595D01*
X106823D01*
X106798Y-56472D01*
X106450Y-55951D01*
X105929Y-55603D01*
X105315Y-55481D01*
X104701Y-55603D01*
X104180Y-55951D01*
X103832Y-56472D01*
X103807Y-56595D01*
X93504Y-56595D01*
X77264D01*
X73819Y-53150D01*
X70374Y-49705D01*
X63484Y-49705D01*
X63484Y-36771D01*
X63838Y-36417D01*
X91712Y-36417D01*
D02*
G37*
G36*
X76772Y-57579D02*
X103807D01*
X103832Y-57701D01*
X104180Y-58222D01*
X104701Y-58570D01*
X105315Y-58692D01*
X105929Y-58570D01*
X106450Y-58222D01*
X106798Y-57701D01*
X106823Y-57579D01*
X113650D01*
X113674Y-57701D01*
X114022Y-58222D01*
X114543Y-58570D01*
X115157Y-58692D01*
X115772Y-58570D01*
X116293Y-58222D01*
X116641Y-57701D01*
X116665Y-57579D01*
X119233D01*
X119587Y-57932D01*
X119587Y-107283D01*
X117618Y-109252D01*
X69076D01*
X68739Y-108752D01*
X68836Y-108268D01*
X68691Y-107538D01*
X68277Y-106920D01*
X67659Y-106506D01*
X66929Y-106361D01*
X66445Y-106457D01*
X65945Y-106121D01*
Y-95472D01*
X63976Y-93504D01*
X60039D01*
X52165Y-85630D01*
X49705Y-85630D01*
X41831Y-93504D01*
X37402Y-93504D01*
X35433Y-95473D01*
Y-105506D01*
X34970Y-105669D01*
X34933Y-105662D01*
X34600Y-105164D01*
X34079Y-104816D01*
X33465Y-104694D01*
X32850Y-104816D01*
X32329Y-105164D01*
X31981Y-105685D01*
X31859Y-106299D01*
X31981Y-106914D01*
X32329Y-107435D01*
X32850Y-107783D01*
X33465Y-107905D01*
X34079Y-107783D01*
X34524Y-107485D01*
X34843Y-107873D01*
X33465Y-109252D01*
X2461Y-109252D01*
X492Y-107283D01*
Y-105839D01*
X614Y-105814D01*
X1135Y-105466D01*
X1483Y-104945D01*
X1606Y-104331D01*
X1483Y-103716D01*
X1135Y-103195D01*
X614Y-102847D01*
X492Y-102823D01*
Y-79724D01*
X15256Y-79724D01*
X19193D01*
X21161Y-81693D01*
Y-85138D01*
X22119Y-86096D01*
X22016Y-86614D01*
X22139Y-87229D01*
X22487Y-87749D01*
X23008Y-88098D01*
X23622Y-88220D01*
X24237Y-88098D01*
X24757Y-87749D01*
X24858Y-87598D01*
X41831D01*
X44291Y-85138D01*
Y-81232D01*
X44414Y-81208D01*
X44935Y-80860D01*
X45283Y-80339D01*
X45405Y-79724D01*
X45283Y-79110D01*
X44935Y-78589D01*
X44414Y-78241D01*
X44291Y-78217D01*
Y-70134D01*
X44442Y-70033D01*
X44791Y-69512D01*
X44913Y-68898D01*
X44791Y-68283D01*
X44442Y-67762D01*
X44291Y-67661D01*
Y-65945D01*
X42323Y-63976D01*
X42323Y-55118D01*
X45768Y-51673D01*
X46752Y-50689D01*
X53309D01*
X53356Y-50927D01*
X53770Y-51545D01*
X54388Y-51958D01*
X55118Y-52104D01*
X55848Y-51958D01*
X56466Y-51545D01*
X56880Y-50927D01*
X56927Y-50689D01*
X69882D01*
X76772Y-57579D01*
D02*
G37*
G36*
X-78830Y46260D02*
X-78769Y46192D01*
X-78727Y45765D01*
X-78656Y45048D01*
X-78322Y43947D01*
X-77780Y42933D01*
X-77051Y42044D01*
X-76162Y41314D01*
X-75147Y40772D01*
X-74047Y40438D01*
X-73330Y40368D01*
X-73318Y40367D01*
X-73318Y40367D01*
X-72903Y40326D01*
X-72834Y40332D01*
Y40332D01*
X-71713Y40442D01*
X-70567Y40790D01*
X-69511Y41354D01*
X-68585Y42114D01*
X-68369Y42378D01*
X-67898Y42209D01*
X-67913Y21654D01*
X-82185Y21654D01*
X-84646Y19193D01*
Y9194D01*
X-85146Y9042D01*
X-85266Y9222D01*
X-85884Y9636D01*
X-86614Y9781D01*
X-87344Y9636D01*
X-87962Y9222D01*
X-88376Y8604D01*
X-88521Y7874D01*
X-88376Y7144D01*
X-87962Y6526D01*
X-87344Y6112D01*
X-86614Y5967D01*
X-85884Y6112D01*
X-85266Y6526D01*
X-85146Y6706D01*
X-84646Y6554D01*
Y-6398D01*
X-84671Y-6655D01*
X-84797Y-6739D01*
X-85145Y-7260D01*
X-85267Y-7874D01*
X-85145Y-8489D01*
X-84797Y-9009D01*
X-84276Y-9358D01*
X-83661Y-9480D01*
X-83047Y-9358D01*
X-82526Y-9009D01*
X-82442Y-8884D01*
X-82185Y-8858D01*
X-69882D01*
X-67913Y-10827D01*
X-67913Y-20177D01*
X-68790Y-21054D01*
X-68898Y-21032D01*
X-69512Y-21154D01*
X-70033Y-21502D01*
X-70381Y-22023D01*
X-70405Y-22146D01*
X-75295Y-22146D01*
X-82185D01*
X-84646Y-24606D01*
X-84646Y-28190D01*
X-84999Y-28543D01*
X-92028D01*
X-94488Y-31004D01*
Y-37894D01*
X-96457Y-39862D01*
X-116142Y-39862D01*
X-118110Y-37894D01*
X-135827D01*
X-137795Y-39862D01*
X-149114D01*
X-151575Y-42323D01*
Y-57579D01*
X-196850D01*
Y45906D01*
X-196497Y46260D01*
X-78830Y46260D01*
D02*
G37*
G36*
X41339Y-64469D02*
X43307Y-66437D01*
X43307Y-67292D01*
X42693Y-67414D01*
X42172Y-67762D01*
X41824Y-68283D01*
X41701Y-68898D01*
X41824Y-69512D01*
X42172Y-70033D01*
X42693Y-70381D01*
X43307Y-70503D01*
X43307Y-78217D01*
X43185Y-78241D01*
X42664Y-78589D01*
X42340Y-79073D01*
X42077Y-79102D01*
X41813Y-79073D01*
X41490Y-78589D01*
X40969Y-78241D01*
X40354Y-78119D01*
X39740Y-78241D01*
X39219Y-78589D01*
X38871Y-79110D01*
X38749Y-79724D01*
X38871Y-80339D01*
X39219Y-80860D01*
X39740Y-81208D01*
X40354Y-81330D01*
X40969Y-81208D01*
X41490Y-80860D01*
X41813Y-80375D01*
X42077Y-80347D01*
X42340Y-80375D01*
X42664Y-80860D01*
X43185Y-81208D01*
X43307Y-81232D01*
X43307Y-84646D01*
X41339Y-86614D01*
X25228D01*
X25228Y-86614D01*
X25106Y-86000D01*
X24757Y-85479D01*
X24237Y-85131D01*
X23622Y-85009D01*
X23008Y-85131D01*
X22782Y-85282D01*
X22146Y-84646D01*
X22146Y-81201D01*
X19685Y-78740D01*
X13958D01*
X13621Y-78240D01*
X13718Y-77756D01*
X13573Y-77026D01*
X13159Y-76408D01*
X12541Y-75994D01*
X11811Y-75849D01*
X11081Y-75994D01*
X10463Y-76408D01*
X10049Y-77026D01*
X9904Y-77756D01*
X10001Y-78240D01*
X9664Y-78740D01*
X492D01*
X492Y-76772D01*
X492Y-71850D01*
Y-66437D01*
X2461Y-64468D01*
X6890D01*
X41339Y-64469D01*
D02*
G37*
G36*
X196850Y115748D02*
X196850Y115748D01*
X196850D01*
X196876Y115720D01*
X196765Y114590D01*
X196427Y113477D01*
X195879Y112451D01*
X195141Y111552D01*
X194242Y110814D01*
X193216Y110266D01*
X192103Y109928D01*
X190945Y109814D01*
X173228Y109843D01*
X173228Y109871D01*
X173228Y109871D01*
X172737Y109823D01*
X172071Y109757D01*
X170957Y109419D01*
X169931Y108871D01*
X169032Y108133D01*
X168294Y107234D01*
X167746Y106208D01*
X167408Y105095D01*
X167294Y103937D01*
X167323Y-103937D01*
X167295Y-103937D01*
X167407Y-105078D01*
X167740Y-106176D01*
X168281Y-107187D01*
X169008Y-108074D01*
X169850Y-108765D01*
X169840Y-109021D01*
X169779Y-109265D01*
X122539Y-109252D01*
X120571Y-107283D01*
Y-67913D01*
X120571Y-37894D01*
X118110Y-35433D01*
X94297D01*
X94134Y-34970D01*
X94141Y-34933D01*
X94639Y-34600D01*
X94987Y-34079D01*
X95110Y-33465D01*
X94987Y-32850D01*
X94639Y-32329D01*
X94118Y-31981D01*
X93504Y-31859D01*
X92889Y-31981D01*
X92369Y-32329D01*
X92020Y-32850D01*
X91898Y-33465D01*
X92020Y-34079D01*
X92369Y-34600D01*
X92867Y-34933D01*
X92874Y-34970D01*
X92711Y-35433D01*
X36909D01*
X34449Y-37894D01*
Y-40546D01*
X33986Y-40709D01*
X33949Y-40702D01*
X33616Y-40203D01*
X33095Y-39855D01*
X32480Y-39733D01*
X31866Y-39855D01*
X31345Y-40203D01*
X30997Y-40724D01*
X30875Y-41339D01*
X30997Y-41953D01*
X31345Y-42474D01*
X31866Y-42822D01*
X32480Y-42944D01*
X33095Y-42822D01*
X33616Y-42474D01*
X33949Y-41975D01*
X33986Y-41968D01*
X34449Y-42131D01*
X34449Y-45467D01*
X33986Y-45630D01*
X33949Y-45623D01*
X33616Y-45125D01*
X33095Y-44776D01*
X32480Y-44654D01*
X31866Y-44776D01*
X31345Y-45125D01*
X30997Y-45645D01*
X30875Y-46260D01*
X30997Y-46874D01*
X31345Y-47395D01*
X31866Y-47743D01*
X32480Y-47866D01*
X33095Y-47743D01*
X33540Y-47446D01*
X33859Y-47834D01*
X30118Y-51575D01*
X29729Y-51257D01*
X30027Y-50811D01*
X30149Y-50197D01*
X30027Y-49582D01*
X29679Y-49062D01*
X29158Y-48713D01*
X28543Y-48591D01*
X27929Y-48713D01*
X27408Y-49062D01*
X27060Y-49582D01*
X26938Y-50197D01*
X27060Y-50811D01*
X27408Y-51332D01*
X27907Y-51665D01*
X27913Y-51703D01*
X27750Y-52165D01*
X24415D01*
X24252Y-51703D01*
X24259Y-51665D01*
X24757Y-51332D01*
X25106Y-50811D01*
X25228Y-50197D01*
X25106Y-49582D01*
X24757Y-49062D01*
X24237Y-48713D01*
X23622Y-48591D01*
X23008Y-48713D01*
X22487Y-49062D01*
X22139Y-49582D01*
X22016Y-50197D01*
X22139Y-50811D01*
X22487Y-51332D01*
X22985Y-51665D01*
X22992Y-51703D01*
X22829Y-52165D01*
X19494D01*
X19331Y-51703D01*
X19338Y-51665D01*
X19836Y-51332D01*
X20184Y-50811D01*
X20306Y-50197D01*
X20184Y-49582D01*
X19836Y-49062D01*
X19315Y-48713D01*
X18701Y-48591D01*
X18086Y-48713D01*
X17565Y-49062D01*
X17217Y-49582D01*
X17095Y-50197D01*
X17217Y-50811D01*
X17565Y-51332D01*
X18064Y-51665D01*
X18071Y-51703D01*
X17908Y-52165D01*
X14572D01*
X14409Y-51703D01*
X14416Y-51665D01*
X14915Y-51332D01*
X15263Y-50811D01*
X15385Y-50197D01*
X15263Y-49582D01*
X14915Y-49062D01*
X14394Y-48713D01*
X13780Y-48591D01*
X13165Y-48713D01*
X12644Y-49062D01*
X12296Y-49582D01*
X12174Y-50197D01*
X12296Y-50811D01*
X12644Y-51332D01*
X13143Y-51665D01*
X13150Y-51703D01*
X12987Y-52165D01*
X9651D01*
X9488Y-51703D01*
X9495Y-51665D01*
X9994Y-51332D01*
X10342Y-50811D01*
X10464Y-50197D01*
X10342Y-49582D01*
X9994Y-49062D01*
X9473Y-48713D01*
X8858Y-48591D01*
X8244Y-48713D01*
X7723Y-49062D01*
X7375Y-49582D01*
X7253Y-50197D01*
X7375Y-50811D01*
X7723Y-51332D01*
X8222Y-51665D01*
X8228Y-51703D01*
X8065Y-52165D01*
X6398D01*
X-28051Y-52165D01*
X-30020Y-50197D01*
X-30020Y-42323D01*
Y-32972D01*
X-32480Y-30512D01*
X-44291D01*
X-46260Y-28543D01*
X-46260Y19193D01*
X-48720Y21654D01*
X-66929Y21654D01*
X-66929Y148859D01*
X-66576Y149213D01*
X196850D01*
Y115748D01*
D02*
G37*
G36*
X-84646Y-35433D02*
X-84646Y-35925D01*
X-82185Y-38386D01*
X-78740D01*
X-69882Y-38386D01*
X-67913Y-40354D01*
X-67913Y-48419D01*
X-68376Y-48583D01*
X-68413Y-48576D01*
X-68747Y-48077D01*
X-69267Y-47729D01*
X-69882Y-47607D01*
X-70496Y-47729D01*
X-71017Y-48077D01*
X-71365Y-48598D01*
X-71487Y-49213D01*
X-71365Y-49827D01*
X-71017Y-50348D01*
X-70496Y-50696D01*
X-69882Y-50818D01*
X-69267Y-50696D01*
X-68747Y-50348D01*
X-68413Y-49849D01*
X-68376Y-49843D01*
X-67913Y-50006D01*
X-67913Y-55610D01*
X-69882Y-57579D01*
X-150591Y-57579D01*
Y-42815D01*
X-148622Y-40846D01*
X-137303D01*
X-135335Y-38878D01*
X-118602D01*
X-116634Y-40846D01*
X-95964D01*
X-93504Y-38386D01*
X-93504Y-31496D01*
X-91535Y-29528D01*
X-84646D01*
Y-35433D01*
D02*
G37*
%LPC*%
G36*
X-98425Y-35495D02*
X-99155Y-35640D01*
X-99774Y-36053D01*
X-100187Y-36672D01*
X-100332Y-37402D01*
X-100187Y-38131D01*
X-99774Y-38750D01*
X-99155Y-39163D01*
X-98425Y-39308D01*
X-97695Y-39163D01*
X-97077Y-38750D01*
X-96664Y-38131D01*
X-96518Y-37402D01*
X-96664Y-36672D01*
X-97077Y-36053D01*
X-97695Y-35640D01*
X-98425Y-35495D01*
D02*
G37*
G36*
X-157480D02*
X-158210Y-35640D01*
X-158829Y-36053D01*
X-159242Y-36672D01*
X-159387Y-37402D01*
X-159242Y-38131D01*
X-158829Y-38750D01*
X-158210Y-39163D01*
X-157480Y-39308D01*
X-156751Y-39163D01*
X-156132Y-38750D01*
X-155719Y-38131D01*
X-155574Y-37402D01*
X-155719Y-36672D01*
X-156132Y-36053D01*
X-156751Y-35640D01*
X-157480Y-35495D01*
D02*
G37*
G36*
X-153543Y-38448D02*
X-154273Y-38593D01*
X-154892Y-39006D01*
X-155305Y-39625D01*
X-155450Y-40354D01*
X-155305Y-41084D01*
X-154892Y-41703D01*
X-154273Y-42116D01*
X-153543Y-42261D01*
X-152814Y-42116D01*
X-152195Y-41703D01*
X-151782Y-41084D01*
X-151637Y-40354D01*
X-151782Y-39625D01*
X-152195Y-39006D01*
X-152814Y-38593D01*
X-153543Y-38448D01*
D02*
G37*
G36*
X93504Y-39733D02*
X92889Y-39855D01*
X92369Y-40203D01*
X92020Y-40724D01*
X91898Y-41339D01*
X92020Y-41953D01*
X92369Y-42474D01*
X92889Y-42822D01*
X93504Y-42944D01*
X94118Y-42822D01*
X94639Y-42474D01*
X94987Y-41953D01*
X95110Y-41339D01*
X94987Y-40724D01*
X94639Y-40203D01*
X94118Y-39855D01*
X93504Y-39733D01*
D02*
G37*
G36*
X-163386Y-41701D02*
X-164000Y-41824D01*
X-164521Y-42172D01*
X-164869Y-42693D01*
X-164991Y-43307D01*
X-164869Y-43922D01*
X-164521Y-44442D01*
X-164000Y-44791D01*
X-163386Y-44913D01*
X-162771Y-44791D01*
X-162250Y-44442D01*
X-161902Y-43922D01*
X-161780Y-43307D01*
X-161902Y-42693D01*
X-162250Y-42172D01*
X-162771Y-41824D01*
X-163386Y-41701D01*
D02*
G37*
G36*
X-183071D02*
X-183685Y-41824D01*
X-184206Y-42172D01*
X-184554Y-42693D01*
X-184677Y-43307D01*
X-184554Y-43922D01*
X-184206Y-44442D01*
X-183685Y-44791D01*
X-183071Y-44913D01*
X-182456Y-44791D01*
X-181936Y-44442D01*
X-181587Y-43922D01*
X-181465Y-43307D01*
X-181587Y-42693D01*
X-181936Y-42172D01*
X-182456Y-41824D01*
X-183071Y-41701D01*
D02*
G37*
G36*
X-142717D02*
X-143331Y-41824D01*
X-143852Y-42172D01*
X-144200Y-42693D01*
X-144322Y-43307D01*
X-144200Y-43922D01*
X-143852Y-44442D01*
X-143331Y-44791D01*
X-142717Y-44913D01*
X-142102Y-44791D01*
X-141581Y-44442D01*
X-141233Y-43922D01*
X-141111Y-43307D01*
X-141233Y-42693D01*
X-141581Y-42172D01*
X-142102Y-41824D01*
X-142717Y-41701D01*
D02*
G37*
G36*
X4921Y-39733D02*
X4307Y-39855D01*
X3786Y-40203D01*
X3438Y-40724D01*
X3316Y-41339D01*
X3438Y-41953D01*
X3786Y-42474D01*
X4307Y-42822D01*
X4921Y-42944D01*
X5536Y-42822D01*
X6057Y-42474D01*
X6405Y-41953D01*
X6527Y-41339D01*
X6405Y-40724D01*
X6057Y-40203D01*
X5536Y-39855D01*
X4921Y-39733D01*
D02*
G37*
G36*
X133858Y-40717D02*
X133244Y-40839D01*
X132723Y-41188D01*
X132375Y-41708D01*
X132253Y-42323D01*
X132375Y-42937D01*
X132723Y-43458D01*
X133244Y-43806D01*
X133858Y-43929D01*
X134473Y-43806D01*
X134994Y-43458D01*
X135342Y-42937D01*
X135464Y-42323D01*
X135342Y-41708D01*
X134994Y-41188D01*
X134473Y-40839D01*
X133858Y-40717D01*
D02*
G37*
G36*
X-87598Y-35796D02*
X-88213Y-35918D01*
X-88734Y-36266D01*
X-89082Y-36787D01*
X-89204Y-37402D01*
X-89082Y-38016D01*
X-88734Y-38537D01*
X-88213Y-38885D01*
X-87598Y-39007D01*
X-86984Y-38885D01*
X-86463Y-38537D01*
X-86115Y-38016D01*
X-85993Y-37402D01*
X-86115Y-36787D01*
X-86463Y-36266D01*
X-86984Y-35918D01*
X-87598Y-35796D01*
D02*
G37*
G36*
X-3937Y-30875D02*
X-4552Y-30997D01*
X-5072Y-31345D01*
X-5420Y-31866D01*
X-5543Y-32480D01*
X-5420Y-33095D01*
X-5072Y-33616D01*
X-4552Y-33964D01*
X-3937Y-34086D01*
X-3322Y-33964D01*
X-2802Y-33616D01*
X-2454Y-33095D01*
X-2331Y-32480D01*
X-2454Y-31866D01*
X-2802Y-31345D01*
X-3322Y-30997D01*
X-3937Y-30875D01*
D02*
G37*
G36*
X-173228Y-31859D02*
X-173843Y-31981D01*
X-174364Y-32329D01*
X-174712Y-32850D01*
X-174834Y-33465D01*
X-174712Y-34079D01*
X-174364Y-34600D01*
X-173843Y-34948D01*
X-173228Y-35070D01*
X-172614Y-34948D01*
X-172093Y-34600D01*
X-171745Y-34079D01*
X-171623Y-33465D01*
X-171745Y-32850D01*
X-172093Y-32329D01*
X-172614Y-31981D01*
X-173228Y-31859D01*
D02*
G37*
G36*
X-192913D02*
X-193528Y-31981D01*
X-194049Y-32329D01*
X-194397Y-32850D01*
X-194519Y-33465D01*
X-194397Y-34079D01*
X-194049Y-34600D01*
X-193528Y-34948D01*
X-192913Y-35070D01*
X-192299Y-34948D01*
X-191778Y-34600D01*
X-191430Y-34079D01*
X-191308Y-33465D01*
X-191430Y-32850D01*
X-191778Y-32329D01*
X-192299Y-31981D01*
X-192913Y-31859D01*
D02*
G37*
G36*
X133858Y-30875D02*
X133244Y-30997D01*
X132723Y-31345D01*
X132375Y-31866D01*
X132253Y-32480D01*
X132375Y-33095D01*
X132723Y-33616D01*
X133244Y-33964D01*
X133858Y-34086D01*
X134473Y-33964D01*
X134994Y-33616D01*
X135342Y-33095D01*
X135464Y-32480D01*
X135342Y-31866D01*
X134994Y-31345D01*
X134473Y-30997D01*
X133858Y-30875D01*
D02*
G37*
G36*
X32480D02*
X31866Y-30997D01*
X31345Y-31345D01*
X30997Y-31866D01*
X30875Y-32480D01*
X30997Y-33095D01*
X31345Y-33616D01*
X31866Y-33964D01*
X32480Y-34086D01*
X33095Y-33964D01*
X33616Y-33616D01*
X33964Y-33095D01*
X34086Y-32480D01*
X33964Y-31866D01*
X33616Y-31345D01*
X33095Y-30997D01*
X32480Y-30875D01*
D02*
G37*
G36*
X0D02*
X-614Y-30997D01*
X-1135Y-31345D01*
X-1483Y-31866D01*
X-1606Y-32480D01*
X-1483Y-33095D01*
X-1135Y-33616D01*
X-614Y-33964D01*
X0Y-34086D01*
X614Y-33964D01*
X1135Y-33616D01*
X1483Y-33095D01*
X1606Y-32480D01*
X1483Y-31866D01*
X1135Y-31345D01*
X614Y-30997D01*
X0Y-30875D01*
D02*
G37*
G36*
X164370Y-35796D02*
X163756Y-35918D01*
X163235Y-36266D01*
X162887Y-36787D01*
X162764Y-37402D01*
X162887Y-38016D01*
X163235Y-38537D01*
X163756Y-38885D01*
X164370Y-39007D01*
X164985Y-38885D01*
X165505Y-38537D01*
X165854Y-38016D01*
X165976Y-37402D01*
X165854Y-36787D01*
X165505Y-36266D01*
X164985Y-35918D01*
X164370Y-35796D01*
D02*
G37*
G36*
X139764D02*
X139149Y-35918D01*
X138628Y-36266D01*
X138280Y-36787D01*
X138158Y-37402D01*
X138280Y-38016D01*
X138628Y-38537D01*
X139149Y-38885D01*
X139764Y-39007D01*
X140378Y-38885D01*
X140899Y-38537D01*
X141247Y-38016D01*
X141369Y-37402D01*
X141247Y-36787D01*
X140899Y-36266D01*
X140378Y-35918D01*
X139764Y-35796D01*
D02*
G37*
G36*
X125000D02*
X124385Y-35918D01*
X123865Y-36266D01*
X123517Y-36787D01*
X123394Y-37402D01*
X123517Y-38016D01*
X123865Y-38537D01*
X124385Y-38885D01*
X125000Y-39007D01*
X125615Y-38885D01*
X126135Y-38537D01*
X126483Y-38016D01*
X126606Y-37402D01*
X126483Y-36787D01*
X126135Y-36266D01*
X125615Y-35918D01*
X125000Y-35796D01*
D02*
G37*
G36*
X-128937Y-33827D02*
X-129551Y-33950D01*
X-130072Y-34298D01*
X-130420Y-34819D01*
X-130543Y-35433D01*
X-130420Y-36048D01*
X-130072Y-36568D01*
X-129551Y-36917D01*
X-128937Y-37039D01*
X-128323Y-36917D01*
X-127802Y-36568D01*
X-127454Y-36048D01*
X-127331Y-35433D01*
X-127454Y-34819D01*
X-127802Y-34298D01*
X-128323Y-33950D01*
X-128937Y-33827D01*
D02*
G37*
G36*
X32480Y-34812D02*
X31866Y-34934D01*
X31345Y-35282D01*
X30997Y-35803D01*
X30875Y-36417D01*
X30997Y-37032D01*
X31345Y-37553D01*
X31866Y-37901D01*
X32480Y-38023D01*
X33095Y-37901D01*
X33616Y-37553D01*
X33964Y-37032D01*
X34086Y-36417D01*
X33964Y-35803D01*
X33616Y-35282D01*
X33095Y-34934D01*
X32480Y-34812D01*
D02*
G37*
G36*
X4921D02*
X4307Y-34934D01*
X3786Y-35282D01*
X3438Y-35803D01*
X3316Y-36417D01*
X3438Y-37032D01*
X3786Y-37553D01*
X4307Y-37901D01*
X4921Y-38023D01*
X5536Y-37901D01*
X6057Y-37553D01*
X6405Y-37032D01*
X6527Y-36417D01*
X6405Y-35803D01*
X6057Y-35282D01*
X5536Y-34934D01*
X4921Y-34812D01*
D02*
G37*
G36*
X-136811Y-47607D02*
X-137425Y-47729D01*
X-137946Y-48077D01*
X-138294Y-48598D01*
X-138417Y-49213D01*
X-138294Y-49827D01*
X-137946Y-50348D01*
X-137425Y-50696D01*
X-136811Y-50818D01*
X-136197Y-50696D01*
X-135676Y-50348D01*
X-135328Y-49827D01*
X-135205Y-49213D01*
X-135328Y-48598D01*
X-135676Y-48077D01*
X-136197Y-47729D01*
X-136811Y-47607D01*
D02*
G37*
G36*
X-89567Y-47306D02*
X-90297Y-47451D01*
X-90915Y-47864D01*
X-91329Y-48483D01*
X-91474Y-49213D01*
X-91329Y-49942D01*
X-90915Y-50561D01*
X-90297Y-50974D01*
X-89567Y-51119D01*
X-88837Y-50974D01*
X-88219Y-50561D01*
X-87805Y-49942D01*
X-87660Y-49213D01*
X-87805Y-48483D01*
X-88219Y-47864D01*
X-88837Y-47451D01*
X-89567Y-47306D01*
D02*
G37*
G36*
X133858Y-50560D02*
X133244Y-50682D01*
X132723Y-51030D01*
X132375Y-51551D01*
X132253Y-52165D01*
X132375Y-52780D01*
X132723Y-53301D01*
X133244Y-53649D01*
X133858Y-53771D01*
X134473Y-53649D01*
X134994Y-53301D01*
X135342Y-52780D01*
X135464Y-52165D01*
X135342Y-51551D01*
X134994Y-51030D01*
X134473Y-50682D01*
X133858Y-50560D01*
D02*
G37*
G36*
X-18701Y-45337D02*
X-19431Y-45483D01*
X-20049Y-45896D01*
X-20462Y-46514D01*
X-20607Y-47244D01*
X-20462Y-47974D01*
X-20049Y-48592D01*
X-19431Y-49006D01*
X-18701Y-49151D01*
X-17971Y-49006D01*
X-17353Y-48592D01*
X-16939Y-47974D01*
X-16794Y-47244D01*
X-16939Y-46514D01*
X-17353Y-45896D01*
X-17971Y-45483D01*
X-18701Y-45337D01*
D02*
G37*
G36*
X-42323D02*
X-43053Y-45483D01*
X-43671Y-45896D01*
X-44084Y-46514D01*
X-44230Y-47244D01*
X-44084Y-47974D01*
X-43671Y-48592D01*
X-43053Y-49006D01*
X-42323Y-49151D01*
X-41593Y-49006D01*
X-40975Y-48592D01*
X-40561Y-47974D01*
X-40416Y-47244D01*
X-40561Y-46514D01*
X-40975Y-45896D01*
X-41593Y-45483D01*
X-42323Y-45337D01*
D02*
G37*
G36*
X-75787Y-47607D02*
X-76402Y-47729D01*
X-76923Y-48077D01*
X-77271Y-48598D01*
X-77393Y-49213D01*
X-77271Y-49827D01*
X-76923Y-50348D01*
X-76402Y-50696D01*
X-75787Y-50818D01*
X-75173Y-50696D01*
X-74652Y-50348D01*
X-74304Y-49827D01*
X-74182Y-49213D01*
X-74304Y-48598D01*
X-74652Y-48077D01*
X-75173Y-47729D01*
X-75787Y-47607D01*
D02*
G37*
G36*
X-140748Y-51544D02*
X-141363Y-51666D01*
X-141883Y-52014D01*
X-142232Y-52535D01*
X-142354Y-53150D01*
X-142232Y-53764D01*
X-141883Y-54285D01*
X-141363Y-54633D01*
X-140748Y-54755D01*
X-140134Y-54633D01*
X-139613Y-54285D01*
X-139265Y-53764D01*
X-139142Y-53150D01*
X-139265Y-52535D01*
X-139613Y-52014D01*
X-140134Y-51666D01*
X-140748Y-51544D01*
D02*
G37*
G36*
X107283Y-51243D02*
X106554Y-51388D01*
X105935Y-51801D01*
X105522Y-52420D01*
X105377Y-53150D01*
X105522Y-53879D01*
X105935Y-54498D01*
X106554Y-54911D01*
X107283Y-55056D01*
X108013Y-54911D01*
X108632Y-54498D01*
X109045Y-53879D01*
X109190Y-53150D01*
X109045Y-52420D01*
X108632Y-51801D01*
X108013Y-51388D01*
X107283Y-51243D01*
D02*
G37*
G36*
X93504D02*
X92774Y-51388D01*
X92156Y-51801D01*
X91742Y-52420D01*
X91597Y-53150D01*
X91742Y-53879D01*
X92156Y-54498D01*
X92774Y-54911D01*
X93504Y-55056D01*
X94234Y-54911D01*
X94852Y-54498D01*
X95266Y-53879D01*
X95411Y-53150D01*
X95266Y-52420D01*
X94852Y-51801D01*
X94234Y-51388D01*
X93504Y-51243D01*
D02*
G37*
G36*
X-86614D02*
X-87344Y-51388D01*
X-87962Y-51801D01*
X-88376Y-52420D01*
X-88521Y-53150D01*
X-88376Y-53879D01*
X-87962Y-54498D01*
X-87344Y-54911D01*
X-86614Y-55056D01*
X-85884Y-54911D01*
X-85266Y-54498D01*
X-84853Y-53879D01*
X-84707Y-53150D01*
X-84853Y-52420D01*
X-85266Y-51801D01*
X-85884Y-51388D01*
X-86614Y-51243D01*
D02*
G37*
G36*
X-154528Y-51544D02*
X-155142Y-51666D01*
X-155663Y-52014D01*
X-156011Y-52535D01*
X-156133Y-53150D01*
X-156011Y-53764D01*
X-155663Y-54285D01*
X-155142Y-54633D01*
X-154528Y-54755D01*
X-153913Y-54633D01*
X-153392Y-54285D01*
X-153044Y-53764D01*
X-152922Y-53150D01*
X-153044Y-52535D01*
X-153392Y-52014D01*
X-153913Y-51666D01*
X-154528Y-51544D01*
D02*
G37*
G36*
X-173228D02*
X-173843Y-51666D01*
X-174364Y-52014D01*
X-174712Y-52535D01*
X-174834Y-53150D01*
X-174712Y-53764D01*
X-174364Y-54285D01*
X-173843Y-54633D01*
X-173228Y-54755D01*
X-172614Y-54633D01*
X-172093Y-54285D01*
X-171745Y-53764D01*
X-171623Y-53150D01*
X-171745Y-52535D01*
X-172093Y-52014D01*
X-172614Y-51666D01*
X-173228Y-51544D01*
D02*
G37*
G36*
X-192913D02*
X-193528Y-51666D01*
X-194049Y-52014D01*
X-194397Y-52535D01*
X-194519Y-53150D01*
X-194397Y-53764D01*
X-194049Y-54285D01*
X-193528Y-54633D01*
X-192913Y-54755D01*
X-192299Y-54633D01*
X-191778Y-54285D01*
X-191430Y-53764D01*
X-191308Y-53150D01*
X-191430Y-52535D01*
X-191778Y-52014D01*
X-192299Y-51666D01*
X-192913Y-51544D01*
D02*
G37*
G36*
X-14764Y-42385D02*
X-15494Y-42530D01*
X-16112Y-42943D01*
X-16525Y-43562D01*
X-16670Y-44291D01*
X-16525Y-45021D01*
X-16112Y-45640D01*
X-15494Y-46053D01*
X-14764Y-46198D01*
X-14034Y-46053D01*
X-13416Y-45640D01*
X-13002Y-45021D01*
X-12857Y-44291D01*
X-13002Y-43562D01*
X-13416Y-42943D01*
X-14034Y-42530D01*
X-14764Y-42385D01*
D02*
G37*
G36*
X93504Y-43670D02*
X92889Y-43792D01*
X92369Y-44140D01*
X92020Y-44661D01*
X91898Y-45276D01*
X92020Y-45890D01*
X92369Y-46411D01*
X92889Y-46759D01*
X93504Y-46881D01*
X94118Y-46759D01*
X94639Y-46411D01*
X94987Y-45890D01*
X95110Y-45276D01*
X94987Y-44661D01*
X94639Y-44140D01*
X94118Y-43792D01*
X93504Y-43670D01*
D02*
G37*
G36*
X77756Y-43369D02*
X77026Y-43514D01*
X76408Y-43927D01*
X75994Y-44546D01*
X75849Y-45276D01*
X75994Y-46005D01*
X76408Y-46624D01*
X77026Y-47037D01*
X77756Y-47182D01*
X78486Y-47037D01*
X79104Y-46624D01*
X79518Y-46005D01*
X79663Y-45276D01*
X79518Y-44546D01*
X79104Y-43927D01*
X78486Y-43514D01*
X77756Y-43369D01*
D02*
G37*
G36*
X-97441Y-41400D02*
X-98171Y-41546D01*
X-98789Y-41959D01*
X-99203Y-42577D01*
X-99348Y-43307D01*
X-99203Y-44037D01*
X-98789Y-44655D01*
X-98171Y-45069D01*
X-97441Y-45214D01*
X-96711Y-45069D01*
X-96093Y-44655D01*
X-95679Y-44037D01*
X-95534Y-43307D01*
X-95679Y-42577D01*
X-96093Y-41959D01*
X-96711Y-41546D01*
X-97441Y-41400D01*
D02*
G37*
G36*
X-113189Y-41400D02*
X-113919Y-41546D01*
X-114537Y-41959D01*
X-114951Y-42577D01*
X-115096Y-43307D01*
X-114951Y-44037D01*
X-114537Y-44655D01*
X-113919Y-45069D01*
X-113189Y-45214D01*
X-112459Y-45069D01*
X-111841Y-44655D01*
X-111427Y-44037D01*
X-111282Y-43307D01*
X-111427Y-42577D01*
X-111841Y-41959D01*
X-112459Y-41546D01*
X-113189Y-41400D01*
D02*
G37*
G36*
X-72835Y-42686D02*
X-73449Y-42808D01*
X-73970Y-43156D01*
X-74318Y-43677D01*
X-74440Y-44291D01*
X-74318Y-44906D01*
X-73970Y-45427D01*
X-73449Y-45775D01*
X-72835Y-45897D01*
X-72220Y-45775D01*
X-71699Y-45427D01*
X-71351Y-44906D01*
X-71229Y-44291D01*
X-71351Y-43677D01*
X-71699Y-43156D01*
X-72220Y-42808D01*
X-72835Y-42686D01*
D02*
G37*
G36*
X69882Y-43369D02*
X69152Y-43514D01*
X68534Y-43927D01*
X68120Y-44546D01*
X67975Y-45276D01*
X68120Y-46005D01*
X68534Y-46624D01*
X69152Y-47037D01*
X69882Y-47182D01*
X70612Y-47037D01*
X71230Y-46624D01*
X71644Y-46005D01*
X71789Y-45276D01*
X71644Y-44546D01*
X71230Y-43927D01*
X70612Y-43514D01*
X69882Y-43369D01*
D02*
G37*
G36*
X159449Y-45638D02*
X158834Y-45761D01*
X158313Y-46109D01*
X157965Y-46630D01*
X157843Y-47244D01*
X157965Y-47859D01*
X158313Y-48379D01*
X158834Y-48728D01*
X159449Y-48850D01*
X160063Y-48728D01*
X160584Y-48379D01*
X160932Y-47859D01*
X161055Y-47244D01*
X160932Y-46630D01*
X160584Y-46109D01*
X160063Y-45761D01*
X159449Y-45638D01*
D02*
G37*
G36*
X139764D02*
X139149Y-45761D01*
X138628Y-46109D01*
X138280Y-46630D01*
X138158Y-47244D01*
X138280Y-47859D01*
X138628Y-48379D01*
X139149Y-48728D01*
X139764Y-48850D01*
X140378Y-48728D01*
X140899Y-48379D01*
X141247Y-47859D01*
X141369Y-47244D01*
X141247Y-46630D01*
X140899Y-46109D01*
X140378Y-45761D01*
X139764Y-45638D01*
D02*
G37*
G36*
X115157D02*
X114543Y-45761D01*
X114022Y-46109D01*
X113674Y-46630D01*
X113552Y-47244D01*
X113674Y-47859D01*
X114022Y-48379D01*
X114543Y-48728D01*
X115157Y-48850D01*
X115772Y-48728D01*
X116293Y-48379D01*
X116641Y-47859D01*
X116763Y-47244D01*
X116641Y-46630D01*
X116293Y-46109D01*
X115772Y-45761D01*
X115157Y-45638D01*
D02*
G37*
G36*
X56102Y-43369D02*
X55373Y-43514D01*
X54754Y-43927D01*
X54341Y-44546D01*
X54196Y-45276D01*
X54341Y-46005D01*
X54754Y-46624D01*
X55373Y-47037D01*
X56102Y-47182D01*
X56832Y-47037D01*
X57451Y-46624D01*
X57864Y-46005D01*
X58009Y-45276D01*
X57864Y-44546D01*
X57451Y-43927D01*
X56832Y-43514D01*
X56102Y-43369D01*
D02*
G37*
G36*
X48228D02*
X47499Y-43514D01*
X46880Y-43927D01*
X46467Y-44546D01*
X46322Y-45276D01*
X46467Y-46005D01*
X46880Y-46624D01*
X47499Y-47037D01*
X48228Y-47182D01*
X48958Y-47037D01*
X49577Y-46624D01*
X49990Y-46005D01*
X50135Y-45276D01*
X49990Y-44546D01*
X49577Y-43927D01*
X48958Y-43514D01*
X48228Y-43369D01*
D02*
G37*
G36*
X4921Y-44654D02*
X4307Y-44776D01*
X3786Y-45125D01*
X3438Y-45645D01*
X3316Y-46260D01*
X3438Y-46874D01*
X3786Y-47395D01*
X4307Y-47743D01*
X4921Y-47866D01*
X5536Y-47743D01*
X6057Y-47395D01*
X6405Y-46874D01*
X6527Y-46260D01*
X6405Y-45645D01*
X6057Y-45125D01*
X5536Y-44776D01*
X4921Y-44654D01*
D02*
G37*
G36*
X-98425Y-29589D02*
X-99155Y-29735D01*
X-99774Y-30148D01*
X-100187Y-30766D01*
X-100332Y-31496D01*
X-100187Y-32226D01*
X-99774Y-32844D01*
X-99155Y-33258D01*
X-98425Y-33403D01*
X-97695Y-33258D01*
X-97077Y-32844D01*
X-96664Y-32226D01*
X-96518Y-31496D01*
X-96664Y-30766D01*
X-97077Y-30148D01*
X-97695Y-29735D01*
X-98425Y-29589D01*
D02*
G37*
G36*
X-7874Y-13158D02*
X-8489Y-13280D01*
X-9009Y-13628D01*
X-9358Y-14149D01*
X-9480Y-14764D01*
X-9358Y-15378D01*
X-9009Y-15899D01*
X-8489Y-16247D01*
X-7874Y-16369D01*
X-7260Y-16247D01*
X-6739Y-15899D01*
X-6391Y-15378D01*
X-6268Y-14764D01*
X-6391Y-14149D01*
X-6739Y-13628D01*
X-7260Y-13280D01*
X-7874Y-13158D01*
D02*
G37*
G36*
X-11811D02*
X-12426Y-13280D01*
X-12946Y-13628D01*
X-13295Y-14149D01*
X-13417Y-14764D01*
X-13295Y-15378D01*
X-12946Y-15899D01*
X-12426Y-16247D01*
X-11811Y-16369D01*
X-11197Y-16247D01*
X-10676Y-15899D01*
X-10328Y-15378D01*
X-10205Y-14764D01*
X-10328Y-14149D01*
X-10676Y-13628D01*
X-11197Y-13280D01*
X-11811Y-13158D01*
D02*
G37*
G36*
X28543Y-14826D02*
X27814Y-14971D01*
X27195Y-15384D01*
X26782Y-16003D01*
X26637Y-16732D01*
X26782Y-17462D01*
X27195Y-18080D01*
X27814Y-18494D01*
X28543Y-18639D01*
X29273Y-18494D01*
X29892Y-18080D01*
X30305Y-17462D01*
X30450Y-16732D01*
X30305Y-16003D01*
X29892Y-15384D01*
X29273Y-14971D01*
X28543Y-14826D01*
D02*
G37*
G36*
X-192913Y-12174D02*
X-193528Y-12296D01*
X-194049Y-12644D01*
X-194397Y-13165D01*
X-194519Y-13780D01*
X-194397Y-14394D01*
X-194049Y-14915D01*
X-193528Y-15263D01*
X-192913Y-15385D01*
X-192299Y-15263D01*
X-191778Y-14915D01*
X-191430Y-14394D01*
X-191308Y-13780D01*
X-191430Y-13165D01*
X-191778Y-12644D01*
X-192299Y-12296D01*
X-192913Y-12174D01*
D02*
G37*
G36*
X-15748Y-13158D02*
X-16363Y-13280D01*
X-16883Y-13628D01*
X-17232Y-14149D01*
X-17354Y-14764D01*
X-17264Y-15217D01*
X-17702Y-15506D01*
X-18086Y-15249D01*
X-18701Y-15127D01*
X-19315Y-15249D01*
X-19836Y-15597D01*
X-20184Y-16118D01*
X-20306Y-16732D01*
X-20184Y-17347D01*
X-19836Y-17868D01*
X-19315Y-18216D01*
X-18701Y-18338D01*
X-18086Y-18216D01*
X-17565Y-17868D01*
X-17217Y-17347D01*
X-17095Y-16732D01*
X-17185Y-16279D01*
X-16747Y-15990D01*
X-16363Y-16247D01*
X-15748Y-16369D01*
X-15134Y-16247D01*
X-14613Y-15899D01*
X-14265Y-15378D01*
X-14142Y-14764D01*
X-14265Y-14149D01*
X-14613Y-13628D01*
X-15134Y-13280D01*
X-15748Y-13158D01*
D02*
G37*
G36*
X-153543Y-11873D02*
X-154273Y-12018D01*
X-154892Y-12431D01*
X-155305Y-13050D01*
X-155450Y-13780D01*
X-155305Y-14509D01*
X-154892Y-15128D01*
X-154273Y-15541D01*
X-153543Y-15686D01*
X-152814Y-15541D01*
X-152195Y-15128D01*
X-151782Y-14509D01*
X-151637Y-13780D01*
X-151782Y-13050D01*
X-152195Y-12431D01*
X-152814Y-12018D01*
X-153543Y-11873D01*
D02*
G37*
G36*
X7382Y-14826D02*
X6652Y-14971D01*
X6034Y-15384D01*
X5620Y-16003D01*
X5475Y-16732D01*
X5620Y-17462D01*
X6034Y-18080D01*
X6652Y-18494D01*
X7382Y-18639D01*
X8112Y-18494D01*
X8730Y-18080D01*
X9144Y-17462D01*
X9289Y-16732D01*
X9144Y-16003D01*
X8730Y-15384D01*
X8112Y-14971D01*
X7382Y-14826D01*
D02*
G37*
G36*
X78740Y-16111D02*
X78126Y-16233D01*
X77605Y-16581D01*
X77257Y-17102D01*
X77135Y-17717D01*
X77257Y-18331D01*
X77605Y-18852D01*
X78126Y-19200D01*
X78740Y-19322D01*
X79355Y-19200D01*
X79875Y-18852D01*
X80224Y-18331D01*
X80346Y-17717D01*
X80224Y-17102D01*
X79875Y-16581D01*
X79355Y-16233D01*
X78740Y-16111D01*
D02*
G37*
G36*
X119095Y-18079D02*
X118480Y-18202D01*
X117959Y-18550D01*
X117611Y-19071D01*
X117489Y-19685D01*
X117611Y-20300D01*
X117959Y-20820D01*
X118480Y-21169D01*
X119095Y-21291D01*
X119709Y-21169D01*
X120230Y-20820D01*
X120578Y-20300D01*
X120700Y-19685D01*
X120578Y-19071D01*
X120230Y-18550D01*
X119709Y-18202D01*
X119095Y-18079D01*
D02*
G37*
G36*
X93504D02*
X92889Y-18202D01*
X92369Y-18550D01*
X92020Y-19071D01*
X91898Y-19685D01*
X92020Y-20300D01*
X92369Y-20820D01*
X92889Y-21169D01*
X93504Y-21291D01*
X94118Y-21169D01*
X94639Y-20820D01*
X94987Y-20300D01*
X95110Y-19685D01*
X94987Y-19071D01*
X94639Y-18550D01*
X94118Y-18202D01*
X93504Y-18079D01*
D02*
G37*
G36*
X164370Y-16111D02*
X163756Y-16233D01*
X163235Y-16581D01*
X162887Y-17102D01*
X162764Y-17717D01*
X162887Y-18331D01*
X163235Y-18852D01*
X163756Y-19200D01*
X164370Y-19322D01*
X164985Y-19200D01*
X165505Y-18852D01*
X165854Y-18331D01*
X165976Y-17717D01*
X165854Y-17102D01*
X165505Y-16581D01*
X164985Y-16233D01*
X164370Y-16111D01*
D02*
G37*
G36*
X139764D02*
X139149Y-16233D01*
X138628Y-16581D01*
X138280Y-17102D01*
X138158Y-17717D01*
X138280Y-18331D01*
X138628Y-18852D01*
X139149Y-19200D01*
X139764Y-19322D01*
X140378Y-19200D01*
X140899Y-18852D01*
X141247Y-18331D01*
X141369Y-17717D01*
X141247Y-17102D01*
X140899Y-16581D01*
X140378Y-16233D01*
X139764Y-16111D01*
D02*
G37*
G36*
X125000D02*
X124385Y-16233D01*
X123865Y-16581D01*
X123517Y-17102D01*
X123394Y-17717D01*
X123517Y-18331D01*
X123865Y-18852D01*
X124385Y-19200D01*
X125000Y-19322D01*
X125615Y-19200D01*
X126135Y-18852D01*
X126483Y-18331D01*
X126606Y-17717D01*
X126483Y-17102D01*
X126135Y-16581D01*
X125615Y-16233D01*
X125000Y-16111D01*
D02*
G37*
G36*
X65945Y-6268D02*
X65330Y-6391D01*
X64810Y-6739D01*
X64461Y-7260D01*
X64339Y-7874D01*
X64461Y-8489D01*
X64810Y-9009D01*
X65330Y-9358D01*
X65945Y-9480D01*
X66559Y-9358D01*
X67080Y-9009D01*
X67428Y-8489D01*
X67550Y-7874D01*
X67428Y-7260D01*
X67080Y-6739D01*
X66559Y-6391D01*
X65945Y-6268D01*
D02*
G37*
G36*
X-32480D02*
X-33095Y-6391D01*
X-33616Y-6739D01*
X-33964Y-7260D01*
X-34086Y-7874D01*
X-33964Y-8489D01*
X-33616Y-9009D01*
X-33095Y-9358D01*
X-32480Y-9480D01*
X-31866Y-9358D01*
X-31345Y-9009D01*
X-30997Y-8489D01*
X-30875Y-7874D01*
X-30997Y-7260D01*
X-31345Y-6739D01*
X-31866Y-6391D01*
X-32480Y-6268D01*
D02*
G37*
G36*
X-147638Y-7253D02*
X-148252Y-7375D01*
X-148773Y-7723D01*
X-149121Y-8244D01*
X-149243Y-8858D01*
X-149121Y-9473D01*
X-148773Y-9994D01*
X-148252Y-10342D01*
X-147638Y-10464D01*
X-147023Y-10342D01*
X-146502Y-9994D01*
X-146154Y-9473D01*
X-146032Y-8858D01*
X-146154Y-8244D01*
X-146502Y-7723D01*
X-147023Y-7375D01*
X-147638Y-7253D01*
D02*
G37*
G36*
X154528Y-6268D02*
X153913Y-6391D01*
X153392Y-6739D01*
X153044Y-7260D01*
X152922Y-7874D01*
X153044Y-8489D01*
X153392Y-9009D01*
X153913Y-9358D01*
X154528Y-9480D01*
X155142Y-9358D01*
X155663Y-9009D01*
X156011Y-8489D01*
X156133Y-7874D01*
X156011Y-7260D01*
X155663Y-6739D01*
X155142Y-6391D01*
X154528Y-6268D01*
D02*
G37*
G36*
X139764D02*
X139149Y-6391D01*
X138628Y-6739D01*
X138280Y-7260D01*
X138158Y-7874D01*
X138280Y-8489D01*
X138628Y-9009D01*
X139149Y-9358D01*
X139764Y-9480D01*
X140378Y-9358D01*
X140899Y-9009D01*
X141247Y-8489D01*
X141369Y-7874D01*
X141247Y-7260D01*
X140899Y-6739D01*
X140378Y-6391D01*
X139764Y-6268D01*
D02*
G37*
G36*
X115157D02*
X114543Y-6391D01*
X114022Y-6739D01*
X113674Y-7260D01*
X113552Y-7874D01*
X113674Y-8489D01*
X114022Y-9009D01*
X114543Y-9358D01*
X115157Y-9480D01*
X115772Y-9358D01*
X116293Y-9009D01*
X116641Y-8489D01*
X116763Y-7874D01*
X116641Y-7260D01*
X116293Y-6739D01*
X115772Y-6391D01*
X115157Y-6268D01*
D02*
G37*
G36*
X87598Y-8237D02*
X86984Y-8359D01*
X86463Y-8707D01*
X86115Y-9228D01*
X85993Y-9843D01*
X86115Y-10457D01*
X86463Y-10978D01*
X86984Y-11326D01*
X87598Y-11448D01*
X88213Y-11326D01*
X88734Y-10978D01*
X89082Y-10457D01*
X89204Y-9843D01*
X89082Y-9228D01*
X88734Y-8707D01*
X88213Y-8359D01*
X87598Y-8237D01*
D02*
G37*
G36*
X93504Y-12174D02*
X92889Y-12296D01*
X92369Y-12644D01*
X92020Y-13165D01*
X91898Y-13780D01*
X92020Y-14394D01*
X92369Y-14915D01*
X92889Y-15263D01*
X93504Y-15385D01*
X94118Y-15263D01*
X94639Y-14915D01*
X94987Y-14394D01*
X95110Y-13780D01*
X94987Y-13165D01*
X94639Y-12644D01*
X94118Y-12296D01*
X93504Y-12174D01*
D02*
G37*
G36*
X-101378D02*
X-101992Y-12296D01*
X-102513Y-12644D01*
X-102861Y-13165D01*
X-102984Y-13780D01*
X-102861Y-14394D01*
X-102513Y-14915D01*
X-101992Y-15263D01*
X-101378Y-15385D01*
X-100763Y-15263D01*
X-100243Y-14915D01*
X-99894Y-14394D01*
X-99772Y-13780D01*
X-99894Y-13165D01*
X-100243Y-12644D01*
X-100763Y-12296D01*
X-101378Y-12174D01*
D02*
G37*
G36*
X-173228D02*
X-173843Y-12296D01*
X-174364Y-12644D01*
X-174712Y-13165D01*
X-174834Y-13780D01*
X-174712Y-14394D01*
X-174364Y-14915D01*
X-173843Y-15263D01*
X-173228Y-15385D01*
X-172614Y-15263D01*
X-172093Y-14915D01*
X-171745Y-14394D01*
X-171623Y-13780D01*
X-171745Y-13165D01*
X-172093Y-12644D01*
X-172614Y-12296D01*
X-173228Y-12174D01*
D02*
G37*
G36*
X133858Y-11190D02*
X133244Y-11312D01*
X132723Y-11660D01*
X132375Y-12181D01*
X132253Y-12795D01*
X132375Y-13410D01*
X132723Y-13931D01*
X133244Y-14279D01*
X133858Y-14401D01*
X134473Y-14279D01*
X134994Y-13931D01*
X135342Y-13410D01*
X135464Y-12795D01*
X135342Y-12181D01*
X134994Y-11660D01*
X134473Y-11312D01*
X133858Y-11190D01*
D02*
G37*
G36*
X0D02*
X-614Y-11312D01*
X-1135Y-11660D01*
X-1483Y-12181D01*
X-1606Y-12795D01*
X-1483Y-13410D01*
X-1135Y-13931D01*
X-614Y-14279D01*
X0Y-14401D01*
X614Y-14279D01*
X1135Y-13931D01*
X1483Y-13410D01*
X1606Y-12795D01*
X1483Y-12181D01*
X1135Y-11660D01*
X614Y-11312D01*
X0Y-11190D01*
D02*
G37*
G36*
X-3937D02*
X-4552Y-11312D01*
X-5072Y-11660D01*
X-5420Y-12181D01*
X-5543Y-12795D01*
X-5420Y-13410D01*
X-5072Y-13931D01*
X-4552Y-14279D01*
X-3937Y-14401D01*
X-3322Y-14279D01*
X-2802Y-13931D01*
X-2454Y-13410D01*
X-2331Y-12795D01*
X-2454Y-12181D01*
X-2802Y-11660D01*
X-3322Y-11312D01*
X-3937Y-11190D01*
D02*
G37*
G36*
X139764Y-25953D02*
X139149Y-26076D01*
X138628Y-26424D01*
X138280Y-26945D01*
X138158Y-27559D01*
X138280Y-28174D01*
X138628Y-28694D01*
X139149Y-29043D01*
X139764Y-29165D01*
X140378Y-29043D01*
X140899Y-28694D01*
X141247Y-28174D01*
X141369Y-27559D01*
X141247Y-26945D01*
X140899Y-26424D01*
X140378Y-26076D01*
X139764Y-25953D01*
D02*
G37*
G36*
X115157D02*
X114543Y-26076D01*
X114022Y-26424D01*
X113674Y-26945D01*
X113552Y-27559D01*
X113674Y-28174D01*
X114022Y-28694D01*
X114543Y-29043D01*
X115157Y-29165D01*
X115772Y-29043D01*
X116293Y-28694D01*
X116641Y-28174D01*
X116763Y-27559D01*
X116641Y-26945D01*
X116293Y-26424D01*
X115772Y-26076D01*
X115157Y-25953D01*
D02*
G37*
G36*
X69882Y-25652D02*
X69152Y-25798D01*
X68534Y-26211D01*
X68120Y-26829D01*
X67975Y-27559D01*
X68120Y-28289D01*
X68534Y-28907D01*
X69152Y-29321D01*
X69882Y-29466D01*
X70612Y-29321D01*
X71230Y-28907D01*
X71644Y-28289D01*
X71789Y-27559D01*
X71644Y-26829D01*
X71230Y-26211D01*
X70612Y-25798D01*
X69882Y-25652D01*
D02*
G37*
G36*
X-132874Y-23684D02*
X-133604Y-23829D01*
X-134222Y-24242D01*
X-134636Y-24861D01*
X-134781Y-25591D01*
X-134636Y-26320D01*
X-134222Y-26939D01*
X-133604Y-27352D01*
X-132874Y-27497D01*
X-132144Y-27352D01*
X-131526Y-26939D01*
X-131112Y-26320D01*
X-130967Y-25591D01*
X-131112Y-24861D01*
X-131526Y-24242D01*
X-132144Y-23829D01*
X-132874Y-23684D01*
D02*
G37*
G36*
X-153543D02*
X-154273Y-23829D01*
X-154892Y-24242D01*
X-155305Y-24861D01*
X-155450Y-25591D01*
X-155305Y-26320D01*
X-154892Y-26939D01*
X-154273Y-27352D01*
X-153543Y-27497D01*
X-152814Y-27352D01*
X-152195Y-26939D01*
X-151782Y-26320D01*
X-151637Y-25591D01*
X-151782Y-24861D01*
X-152195Y-24242D01*
X-152814Y-23829D01*
X-153543Y-23684D01*
D02*
G37*
G36*
X154528Y-25953D02*
X153913Y-26076D01*
X153392Y-26424D01*
X153044Y-26945D01*
X152922Y-27559D01*
X153044Y-28174D01*
X153392Y-28694D01*
X153913Y-29043D01*
X154528Y-29165D01*
X155142Y-29043D01*
X155663Y-28694D01*
X156011Y-28174D01*
X156133Y-27559D01*
X156011Y-26945D01*
X155663Y-26424D01*
X155142Y-26076D01*
X154528Y-25953D01*
D02*
G37*
G36*
X48228Y-25652D02*
X47499Y-25798D01*
X46880Y-26211D01*
X46467Y-26829D01*
X46322Y-27559D01*
X46467Y-28289D01*
X46880Y-28907D01*
X47499Y-29321D01*
X48228Y-29466D01*
X48958Y-29321D01*
X49577Y-28907D01*
X49990Y-28289D01*
X50135Y-27559D01*
X49990Y-26829D01*
X49577Y-26211D01*
X48958Y-25798D01*
X48228Y-25652D01*
D02*
G37*
G36*
X-18701Y-26938D02*
X-19315Y-27060D01*
X-19836Y-27408D01*
X-20184Y-27929D01*
X-20306Y-28543D01*
X-20184Y-29158D01*
X-19836Y-29679D01*
X-19315Y-30027D01*
X-18701Y-30149D01*
X-18086Y-30027D01*
X-17702Y-29770D01*
X-17264Y-30058D01*
X-17354Y-30512D01*
X-17232Y-31126D01*
X-16883Y-31647D01*
X-16363Y-31995D01*
X-15748Y-32118D01*
X-15134Y-31995D01*
X-14613Y-31647D01*
X-14265Y-31126D01*
X-14142Y-30512D01*
X-14265Y-29897D01*
X-14613Y-29376D01*
X-15134Y-29028D01*
X-15748Y-28906D01*
X-16363Y-29028D01*
X-16747Y-29285D01*
X-17185Y-28997D01*
X-17095Y-28543D01*
X-17217Y-27929D01*
X-17565Y-27408D01*
X-18086Y-27060D01*
X-18701Y-26938D01*
D02*
G37*
G36*
X-119095Y-29890D02*
X-119709Y-30013D01*
X-120230Y-30361D01*
X-120578Y-30882D01*
X-120700Y-31496D01*
X-120578Y-32111D01*
X-120230Y-32631D01*
X-119709Y-32980D01*
X-119095Y-33102D01*
X-118480Y-32980D01*
X-117959Y-32631D01*
X-117611Y-32111D01*
X-117489Y-31496D01*
X-117611Y-30882D01*
X-117959Y-30361D01*
X-118480Y-30013D01*
X-119095Y-29890D01*
D02*
G37*
G36*
X-130905D02*
X-131520Y-30013D01*
X-132041Y-30361D01*
X-132389Y-30882D01*
X-132511Y-31496D01*
X-132389Y-32111D01*
X-132041Y-32631D01*
X-131520Y-32980D01*
X-130905Y-33102D01*
X-130291Y-32980D01*
X-129770Y-32631D01*
X-129422Y-32111D01*
X-129300Y-31496D01*
X-129422Y-30882D01*
X-129770Y-30361D01*
X-130291Y-30013D01*
X-130905Y-29890D01*
D02*
G37*
G36*
X3937Y-28906D02*
X3322Y-29028D01*
X2802Y-29376D01*
X2454Y-29897D01*
X2331Y-30512D01*
X2454Y-31126D01*
X2802Y-31647D01*
X3322Y-31995D01*
X3937Y-32118D01*
X4552Y-31995D01*
X5072Y-31647D01*
X5420Y-31126D01*
X5543Y-30512D01*
X5420Y-29897D01*
X5072Y-29376D01*
X4552Y-29028D01*
X3937Y-28906D01*
D02*
G37*
G36*
X-7874D02*
X-8489Y-29028D01*
X-9009Y-29376D01*
X-9358Y-29897D01*
X-9480Y-30512D01*
X-9358Y-31126D01*
X-9009Y-31647D01*
X-8489Y-31995D01*
X-7874Y-32118D01*
X-7260Y-31995D01*
X-6739Y-31647D01*
X-6391Y-31126D01*
X-6268Y-30512D01*
X-6391Y-29897D01*
X-6739Y-29376D01*
X-7260Y-29028D01*
X-7874Y-28906D01*
D02*
G37*
G36*
X-11811D02*
X-12426Y-29028D01*
X-12946Y-29376D01*
X-13295Y-29897D01*
X-13417Y-30512D01*
X-13295Y-31126D01*
X-12946Y-31647D01*
X-12426Y-31995D01*
X-11811Y-32118D01*
X-11197Y-31995D01*
X-10676Y-31647D01*
X-10328Y-31126D01*
X-10205Y-30512D01*
X-10328Y-29897D01*
X-10676Y-29376D01*
X-11197Y-29028D01*
X-11811Y-28906D01*
D02*
G37*
G36*
X-18701Y-19064D02*
X-19315Y-19186D01*
X-19836Y-19534D01*
X-20184Y-20055D01*
X-20306Y-20669D01*
X-20184Y-21284D01*
X-19836Y-21805D01*
X-19315Y-22153D01*
X-18701Y-22275D01*
X-18086Y-22153D01*
X-17565Y-21805D01*
X-17217Y-21284D01*
X-17095Y-20669D01*
X-17217Y-20055D01*
X-17565Y-19534D01*
X-18086Y-19186D01*
X-18701Y-19064D01*
D02*
G37*
G36*
X133858Y-21032D02*
X133244Y-21154D01*
X132723Y-21502D01*
X132375Y-22023D01*
X132253Y-22638D01*
X132375Y-23252D01*
X132723Y-23773D01*
X133244Y-24121D01*
X133858Y-24243D01*
X134473Y-24121D01*
X134994Y-23773D01*
X135342Y-23252D01*
X135464Y-22638D01*
X135342Y-22023D01*
X134994Y-21502D01*
X134473Y-21154D01*
X133858Y-21032D01*
D02*
G37*
G36*
X28543Y-20731D02*
X27814Y-20876D01*
X27195Y-21290D01*
X26782Y-21908D01*
X26637Y-22638D01*
X26782Y-23368D01*
X27195Y-23986D01*
X27814Y-24399D01*
X28543Y-24544D01*
X29273Y-24399D01*
X29892Y-23986D01*
X30305Y-23368D01*
X30450Y-22638D01*
X30305Y-21908D01*
X29892Y-21290D01*
X29273Y-20876D01*
X28543Y-20731D01*
D02*
G37*
G36*
X-153543Y-17778D02*
X-154273Y-17923D01*
X-154892Y-18337D01*
X-155305Y-18955D01*
X-155450Y-19685D01*
X-155305Y-20415D01*
X-154892Y-21033D01*
X-154273Y-21447D01*
X-153543Y-21592D01*
X-152814Y-21447D01*
X-152195Y-21033D01*
X-151782Y-20415D01*
X-151637Y-19685D01*
X-151782Y-18955D01*
X-152195Y-18337D01*
X-152814Y-17923D01*
X-153543Y-17778D01*
D02*
G37*
G36*
X-89567Y-17778D02*
X-90297Y-17923D01*
X-90915Y-18337D01*
X-91329Y-18955D01*
X-91474Y-19685D01*
X-91329Y-20415D01*
X-90915Y-21033D01*
X-90297Y-21447D01*
X-89567Y-21592D01*
X-88837Y-21447D01*
X-88219Y-21033D01*
X-87805Y-20415D01*
X-87660Y-19685D01*
X-87805Y-18955D01*
X-88219Y-18337D01*
X-88837Y-17923D01*
X-89567Y-17778D01*
D02*
G37*
G36*
X57087Y-19064D02*
X56472Y-19186D01*
X55951Y-19534D01*
X55603Y-20055D01*
X55481Y-20669D01*
X55603Y-21284D01*
X55951Y-21805D01*
X56472Y-22153D01*
X57087Y-22275D01*
X57701Y-22153D01*
X58222Y-21805D01*
X58570Y-21284D01*
X58692Y-20669D01*
X58570Y-20055D01*
X58222Y-19534D01*
X57701Y-19186D01*
X57087Y-19064D01*
D02*
G37*
G36*
X-163386Y-22016D02*
X-164000Y-22139D01*
X-164521Y-22487D01*
X-164869Y-23008D01*
X-164991Y-23622D01*
X-164869Y-24237D01*
X-164521Y-24757D01*
X-164000Y-25106D01*
X-163386Y-25228D01*
X-162771Y-25106D01*
X-162250Y-24757D01*
X-161902Y-24237D01*
X-161780Y-23622D01*
X-161902Y-23008D01*
X-162250Y-22487D01*
X-162771Y-22139D01*
X-163386Y-22016D01*
D02*
G37*
G36*
X73819Y-22700D02*
X73089Y-22845D01*
X72471Y-23258D01*
X72057Y-23877D01*
X71912Y-24606D01*
X72057Y-25336D01*
X72471Y-25955D01*
X73089Y-26368D01*
X73819Y-26513D01*
X74549Y-26368D01*
X75167Y-25955D01*
X75581Y-25336D01*
X75726Y-24606D01*
X75581Y-23877D01*
X75167Y-23258D01*
X74549Y-22845D01*
X73819Y-22700D01*
D02*
G37*
G36*
X52165D02*
X51436Y-22845D01*
X50817Y-23258D01*
X50404Y-23877D01*
X50259Y-24606D01*
X50404Y-25336D01*
X50817Y-25955D01*
X51436Y-26368D01*
X52165Y-26513D01*
X52895Y-26368D01*
X53514Y-25955D01*
X53927Y-25336D01*
X54072Y-24606D01*
X53927Y-23877D01*
X53514Y-23258D01*
X52895Y-22845D01*
X52165Y-22700D01*
D02*
G37*
G36*
X-89567Y-23684D02*
X-90297Y-23829D01*
X-90915Y-24242D01*
X-91329Y-24861D01*
X-91474Y-25591D01*
X-91329Y-26320D01*
X-90915Y-26939D01*
X-90297Y-27352D01*
X-89567Y-27497D01*
X-88837Y-27352D01*
X-88219Y-26939D01*
X-87805Y-26320D01*
X-87660Y-25591D01*
X-87805Y-24861D01*
X-88219Y-24242D01*
X-88837Y-23829D01*
X-89567Y-23684D01*
D02*
G37*
G36*
X-183071Y-22016D02*
X-183685Y-22139D01*
X-184206Y-22487D01*
X-184554Y-23008D01*
X-184677Y-23622D01*
X-184554Y-24237D01*
X-184206Y-24757D01*
X-183685Y-25106D01*
X-183071Y-25228D01*
X-182456Y-25106D01*
X-181936Y-24757D01*
X-181587Y-24237D01*
X-181465Y-23622D01*
X-181587Y-23008D01*
X-181936Y-22487D01*
X-182456Y-22139D01*
X-183071Y-22016D01*
D02*
G37*
G36*
X-18701Y-23001D02*
X-19315Y-23123D01*
X-19836Y-23471D01*
X-20184Y-23992D01*
X-20306Y-24606D01*
X-20184Y-25221D01*
X-19836Y-25742D01*
X-19315Y-26090D01*
X-18701Y-26212D01*
X-18086Y-26090D01*
X-17565Y-25742D01*
X-17217Y-25221D01*
X-17095Y-24606D01*
X-17217Y-23992D01*
X-17565Y-23471D01*
X-18086Y-23123D01*
X-18701Y-23001D01*
D02*
G37*
G36*
X-30512D02*
X-31126Y-23123D01*
X-31647Y-23471D01*
X-31995Y-23992D01*
X-32118Y-24606D01*
X-31995Y-25221D01*
X-31647Y-25742D01*
X-31126Y-26090D01*
X-30512Y-26212D01*
X-29897Y-26090D01*
X-29376Y-25742D01*
X-29028Y-25221D01*
X-28906Y-24606D01*
X-29028Y-23992D01*
X-29376Y-23471D01*
X-29897Y-23123D01*
X-30512Y-23001D01*
D02*
G37*
G36*
X108071Y-88158D02*
X107456Y-88280D01*
X106936Y-88628D01*
X106587Y-89149D01*
X106465Y-89764D01*
X106587Y-90378D01*
X106936Y-90899D01*
X107456Y-91247D01*
X108071Y-91369D01*
X108685Y-91247D01*
X109206Y-90899D01*
X109554Y-90378D01*
X109677Y-89764D01*
X109554Y-89149D01*
X109206Y-88628D01*
X108685Y-88280D01*
X108071Y-88158D01*
D02*
G37*
G36*
X15748Y-87660D02*
X15018Y-87805D01*
X14400Y-88219D01*
X13986Y-88837D01*
X13841Y-89567D01*
X13986Y-90297D01*
X14400Y-90915D01*
X15018Y-91329D01*
X15748Y-91474D01*
X16478Y-91329D01*
X17096Y-90915D01*
X17510Y-90297D01*
X17655Y-89567D01*
X17510Y-88837D01*
X17096Y-88219D01*
X16478Y-87805D01*
X15748Y-87660D01*
D02*
G37*
G36*
X-15748D02*
X-16478Y-87805D01*
X-17096Y-88219D01*
X-17510Y-88837D01*
X-17655Y-89567D01*
X-17510Y-90297D01*
X-17096Y-90915D01*
X-16478Y-91329D01*
X-15748Y-91474D01*
X-15018Y-91329D01*
X-14400Y-90915D01*
X-13986Y-90297D01*
X-13841Y-89567D01*
X-13986Y-88837D01*
X-14400Y-88219D01*
X-15018Y-87805D01*
X-15748Y-87660D01*
D02*
G37*
G36*
X132087Y-88158D02*
X131472Y-88280D01*
X130951Y-88628D01*
X130603Y-89149D01*
X130481Y-89764D01*
X130603Y-90378D01*
X130951Y-90899D01*
X131472Y-91247D01*
X132087Y-91369D01*
X132701Y-91247D01*
X133222Y-90899D01*
X133570Y-90378D01*
X133692Y-89764D01*
X133570Y-89149D01*
X133222Y-88628D01*
X132701Y-88280D01*
X132087Y-88158D01*
D02*
G37*
G36*
X127756D02*
X127141Y-88280D01*
X126620Y-88628D01*
X126272Y-89149D01*
X126150Y-89764D01*
X126272Y-90378D01*
X126620Y-90899D01*
X127141Y-91247D01*
X127756Y-91369D01*
X128370Y-91247D01*
X128891Y-90899D01*
X129239Y-90378D01*
X129362Y-89764D01*
X129239Y-89149D01*
X128891Y-88628D01*
X128370Y-88280D01*
X127756Y-88158D01*
D02*
G37*
G36*
X112402D02*
X111787Y-88280D01*
X111266Y-88628D01*
X110918Y-89149D01*
X110796Y-89764D01*
X110918Y-90378D01*
X111266Y-90899D01*
X111787Y-91247D01*
X112402Y-91369D01*
X113016Y-91247D01*
X113537Y-90899D01*
X113885Y-90378D01*
X114007Y-89764D01*
X113885Y-89149D01*
X113537Y-88628D01*
X113016Y-88280D01*
X112402Y-88158D01*
D02*
G37*
G36*
X11811Y-90613D02*
X11081Y-90758D01*
X10463Y-91171D01*
X10049Y-91790D01*
X9904Y-92520D01*
X10049Y-93249D01*
X10463Y-93868D01*
X11081Y-94281D01*
X11811Y-94426D01*
X12541Y-94281D01*
X13159Y-93868D01*
X13573Y-93249D01*
X13718Y-92520D01*
X13573Y-91790D01*
X13159Y-91171D01*
X12541Y-90758D01*
X11811Y-90613D01*
D02*
G37*
G36*
X30512Y-93566D02*
X29782Y-93711D01*
X29164Y-94124D01*
X28750Y-94743D01*
X28605Y-95472D01*
X28750Y-96202D01*
X29164Y-96821D01*
X29782Y-97234D01*
X30512Y-97379D01*
X31242Y-97234D01*
X31860Y-96821D01*
X32273Y-96202D01*
X32419Y-95472D01*
X32273Y-94743D01*
X31860Y-94124D01*
X31242Y-93711D01*
X30512Y-93566D01*
D02*
G37*
G36*
X164370Y-94851D02*
X163756Y-94973D01*
X163235Y-95321D01*
X162887Y-95842D01*
X162764Y-96457D01*
X162887Y-97071D01*
X163235Y-97592D01*
X163756Y-97940D01*
X164370Y-98062D01*
X164985Y-97940D01*
X165505Y-97592D01*
X165854Y-97071D01*
X165976Y-96457D01*
X165854Y-95842D01*
X165505Y-95321D01*
X164985Y-94973D01*
X164370Y-94851D01*
D02*
G37*
G36*
X154528D02*
X153913Y-94973D01*
X153392Y-95321D01*
X153044Y-95842D01*
X152922Y-96457D01*
X153044Y-97071D01*
X153392Y-97592D01*
X153913Y-97940D01*
X154528Y-98062D01*
X155142Y-97940D01*
X155663Y-97592D01*
X156011Y-97071D01*
X156133Y-96457D01*
X156011Y-95842D01*
X155663Y-95321D01*
X155142Y-94973D01*
X154528Y-94851D01*
D02*
G37*
G36*
X-11811Y-90613D02*
X-12541Y-90758D01*
X-13159Y-91171D01*
X-13573Y-91790D01*
X-13718Y-92520D01*
X-13573Y-93249D01*
X-13159Y-93868D01*
X-12541Y-94281D01*
X-11811Y-94426D01*
X-11081Y-94281D01*
X-10463Y-93868D01*
X-10049Y-93249D01*
X-9904Y-92520D01*
X-10049Y-91790D01*
X-10463Y-91171D01*
X-11081Y-90758D01*
X-11811Y-90613D01*
D02*
G37*
G36*
X117126Y-91898D02*
X116511Y-92020D01*
X115991Y-92369D01*
X115643Y-92889D01*
X115520Y-93504D01*
X115643Y-94118D01*
X115991Y-94639D01*
X116511Y-94987D01*
X117126Y-95110D01*
X117740Y-94987D01*
X118261Y-94639D01*
X118609Y-94118D01*
X118732Y-93504D01*
X118609Y-92889D01*
X118261Y-92369D01*
X117740Y-92020D01*
X117126Y-91898D01*
D02*
G37*
G36*
X97441Y-91597D02*
X96711Y-91742D01*
X96093Y-92156D01*
X95679Y-92774D01*
X95534Y-93504D01*
X95679Y-94234D01*
X96093Y-94852D01*
X96711Y-95266D01*
X97441Y-95411D01*
X98171Y-95266D01*
X98789Y-94852D01*
X99203Y-94234D01*
X99348Y-93504D01*
X99203Y-92774D01*
X98789Y-92156D01*
X98171Y-91742D01*
X97441Y-91597D01*
D02*
G37*
G36*
X62992Y-82349D02*
X62339Y-82479D01*
X61786Y-82849D01*
X61416Y-83402D01*
X61286Y-84055D01*
X61416Y-84708D01*
X61786Y-85261D01*
X62339Y-85631D01*
X62992Y-85761D01*
X63645Y-85631D01*
X64198Y-85261D01*
X64568Y-84708D01*
X64698Y-84055D01*
X64568Y-83402D01*
X64198Y-82849D01*
X63645Y-82479D01*
X62992Y-82349D01*
D02*
G37*
G36*
X58661D02*
X58008Y-82479D01*
X57455Y-82849D01*
X57085Y-83402D01*
X56955Y-84055D01*
X57085Y-84708D01*
X57455Y-85261D01*
X58008Y-85631D01*
X58661Y-85761D01*
X59314Y-85631D01*
X59868Y-85261D01*
X60237Y-84708D01*
X60367Y-84055D01*
X60237Y-83402D01*
X59868Y-82849D01*
X59314Y-82479D01*
X58661Y-82349D01*
D02*
G37*
G36*
X88583Y-82739D02*
X87853Y-82884D01*
X87234Y-83297D01*
X86821Y-83916D01*
X86676Y-84646D01*
X86821Y-85375D01*
X87234Y-85994D01*
X87853Y-86407D01*
X88583Y-86552D01*
X89312Y-86407D01*
X89931Y-85994D01*
X90344Y-85375D01*
X90489Y-84646D01*
X90344Y-83916D01*
X89931Y-83297D01*
X89312Y-82884D01*
X88583Y-82739D01*
D02*
G37*
G36*
X142717Y-79786D02*
X141987Y-79931D01*
X141368Y-80345D01*
X140955Y-80963D01*
X140810Y-81693D01*
X140955Y-82423D01*
X141368Y-83041D01*
X141987Y-83455D01*
X142717Y-83600D01*
X143446Y-83455D01*
X144065Y-83041D01*
X144478Y-82423D01*
X144623Y-81693D01*
X144478Y-80963D01*
X144065Y-80345D01*
X143446Y-79931D01*
X142717Y-79786D01*
D02*
G37*
G36*
X54134Y-81072D02*
X53519Y-81194D01*
X52998Y-81542D01*
X52650Y-82063D01*
X52528Y-82677D01*
X52650Y-83292D01*
X52998Y-83812D01*
X53519Y-84161D01*
X54134Y-84283D01*
X54748Y-84161D01*
X55269Y-83812D01*
X55617Y-83292D01*
X55739Y-82677D01*
X55617Y-82063D01*
X55269Y-81542D01*
X54748Y-81194D01*
X54134Y-81072D01*
D02*
G37*
G36*
X67323Y-82349D02*
X66670Y-82479D01*
X66116Y-82849D01*
X65747Y-83402D01*
X65617Y-84055D01*
X65747Y-84708D01*
X66116Y-85261D01*
X66670Y-85631D01*
X67323Y-85761D01*
X67976Y-85631D01*
X68529Y-85261D01*
X68899Y-84708D01*
X69029Y-84055D01*
X68899Y-83402D01*
X68529Y-82849D01*
X67976Y-82479D01*
X67323Y-82349D01*
D02*
G37*
G36*
X132087Y-83827D02*
X131472Y-83950D01*
X130951Y-84298D01*
X130603Y-84819D01*
X130481Y-85433D01*
X130603Y-86048D01*
X130951Y-86568D01*
X131472Y-86917D01*
X132087Y-87039D01*
X132701Y-86917D01*
X133222Y-86568D01*
X133570Y-86048D01*
X133692Y-85433D01*
X133570Y-84819D01*
X133222Y-84298D01*
X132701Y-83950D01*
X132087Y-83827D01*
D02*
G37*
G36*
X159449Y-85009D02*
X158834Y-85131D01*
X158313Y-85479D01*
X157965Y-86000D01*
X157843Y-86614D01*
X157965Y-87229D01*
X158313Y-87749D01*
X158834Y-88098D01*
X159449Y-88220D01*
X160063Y-88098D01*
X160584Y-87749D01*
X160932Y-87229D01*
X161055Y-86614D01*
X160932Y-86000D01*
X160584Y-85479D01*
X160063Y-85131D01*
X159449Y-85009D01*
D02*
G37*
G36*
X-25591D02*
X-26205Y-85131D01*
X-26726Y-85479D01*
X-27074Y-86000D01*
X-27196Y-86614D01*
X-27074Y-87229D01*
X-26726Y-87749D01*
X-26205Y-88098D01*
X-25591Y-88220D01*
X-24976Y-88098D01*
X-24455Y-87749D01*
X-24107Y-87229D01*
X-23985Y-86614D01*
X-24107Y-86000D01*
X-24455Y-85479D01*
X-24976Y-85131D01*
X-25591Y-85009D01*
D02*
G37*
G36*
X123031Y-85993D02*
X122417Y-86115D01*
X121896Y-86463D01*
X121548Y-86984D01*
X121426Y-87598D01*
X121548Y-88213D01*
X121896Y-88734D01*
X122417Y-89082D01*
X123031Y-89204D01*
X123646Y-89082D01*
X124167Y-88734D01*
X124515Y-88213D01*
X124637Y-87598D01*
X124515Y-86984D01*
X124167Y-86463D01*
X123646Y-86115D01*
X123031Y-85993D01*
D02*
G37*
G36*
X127756Y-83827D02*
X127141Y-83950D01*
X126620Y-84298D01*
X126272Y-84819D01*
X126150Y-85433D01*
X126272Y-86048D01*
X126620Y-86568D01*
X127141Y-86917D01*
X127756Y-87039D01*
X128370Y-86917D01*
X128891Y-86568D01*
X129239Y-86048D01*
X129362Y-85433D01*
X129239Y-84819D01*
X128891Y-84298D01*
X128370Y-83950D01*
X127756Y-83827D01*
D02*
G37*
G36*
X112402D02*
X111787Y-83950D01*
X111266Y-84298D01*
X110918Y-84819D01*
X110796Y-85433D01*
X110918Y-86048D01*
X111266Y-86568D01*
X111787Y-86917D01*
X112402Y-87039D01*
X113016Y-86917D01*
X113537Y-86568D01*
X113885Y-86048D01*
X114007Y-85433D01*
X113885Y-84819D01*
X113537Y-84298D01*
X113016Y-83950D01*
X112402Y-83827D01*
D02*
G37*
G36*
X108071D02*
X107456Y-83950D01*
X106936Y-84298D01*
X106587Y-84819D01*
X106465Y-85433D01*
X106587Y-86048D01*
X106936Y-86568D01*
X107456Y-86917D01*
X108071Y-87039D01*
X108685Y-86917D01*
X109206Y-86568D01*
X109554Y-86048D01*
X109677Y-85433D01*
X109554Y-84819D01*
X109206Y-84298D01*
X108685Y-83950D01*
X108071Y-83827D01*
D02*
G37*
G36*
X149606Y-104694D02*
X148992Y-104816D01*
X148471Y-105164D01*
X148123Y-105685D01*
X148001Y-106299D01*
X148123Y-106914D01*
X148471Y-107435D01*
X148992Y-107783D01*
X149606Y-107905D01*
X150221Y-107783D01*
X150742Y-107435D01*
X151090Y-106914D01*
X151212Y-106299D01*
X151090Y-105685D01*
X150742Y-105164D01*
X150221Y-104816D01*
X149606Y-104694D01*
D02*
G37*
G36*
X90551D02*
X89937Y-104816D01*
X89416Y-105164D01*
X89068Y-105685D01*
X88946Y-106299D01*
X89068Y-106914D01*
X89416Y-107435D01*
X89937Y-107783D01*
X90551Y-107905D01*
X91166Y-107783D01*
X91686Y-107435D01*
X92035Y-106914D01*
X92157Y-106299D01*
X92035Y-105685D01*
X91686Y-105164D01*
X91166Y-104816D01*
X90551Y-104694D01*
D02*
G37*
G36*
X80709D02*
X80094Y-104816D01*
X79573Y-105164D01*
X79225Y-105685D01*
X79103Y-106299D01*
X79225Y-106914D01*
X79573Y-107435D01*
X80094Y-107783D01*
X80709Y-107905D01*
X81323Y-107783D01*
X81844Y-107435D01*
X82192Y-106914D01*
X82314Y-106299D01*
X82192Y-105685D01*
X81844Y-105164D01*
X81323Y-104816D01*
X80709Y-104694D01*
D02*
G37*
G36*
X94488Y-100757D02*
X93874Y-100879D01*
X93353Y-101227D01*
X93005Y-101748D01*
X92883Y-102362D01*
X93005Y-102977D01*
X93353Y-103498D01*
X93874Y-103846D01*
X94488Y-103968D01*
X95103Y-103846D01*
X95624Y-103498D01*
X95972Y-102977D01*
X96094Y-102362D01*
X95972Y-101748D01*
X95624Y-101227D01*
X95103Y-100879D01*
X94488Y-100757D01*
D02*
G37*
G36*
X112205Y-103709D02*
X111590Y-103832D01*
X111069Y-104180D01*
X110721Y-104701D01*
X110599Y-105315D01*
X110721Y-105929D01*
X111069Y-106450D01*
X111590Y-106798D01*
X112205Y-106921D01*
X112819Y-106798D01*
X113340Y-106450D01*
X113688Y-105929D01*
X113810Y-105315D01*
X113688Y-104701D01*
X113340Y-104180D01*
X112819Y-103832D01*
X112205Y-103709D01*
D02*
G37*
G36*
X159449Y-104694D02*
X158834Y-104816D01*
X158313Y-105164D01*
X157965Y-105685D01*
X157843Y-106299D01*
X157965Y-106914D01*
X158313Y-107435D01*
X158834Y-107783D01*
X159449Y-107905D01*
X160063Y-107783D01*
X160584Y-107435D01*
X160932Y-106914D01*
X161055Y-106299D01*
X160932Y-105685D01*
X160584Y-105164D01*
X160063Y-104816D01*
X159449Y-104694D01*
D02*
G37*
G36*
X70866D02*
X70252Y-104816D01*
X69731Y-105164D01*
X69383Y-105685D01*
X69261Y-106299D01*
X69383Y-106914D01*
X69731Y-107435D01*
X70252Y-107783D01*
X70866Y-107905D01*
X71481Y-107783D01*
X72001Y-107435D01*
X72350Y-106914D01*
X72472Y-106299D01*
X72350Y-105685D01*
X72001Y-105164D01*
X71481Y-104816D01*
X70866Y-104694D01*
D02*
G37*
G36*
X-5906D02*
X-6520Y-104816D01*
X-7041Y-105164D01*
X-7389Y-105685D01*
X-7511Y-106299D01*
X-7389Y-106914D01*
X-7041Y-107435D01*
X-6520Y-107783D01*
X-5906Y-107905D01*
X-5291Y-107783D01*
X-4770Y-107435D01*
X-4422Y-106914D01*
X-4300Y-106299D01*
X-4422Y-105685D01*
X-4770Y-105164D01*
X-5291Y-104816D01*
X-5906Y-104694D01*
D02*
G37*
G36*
X-15748D02*
X-16363Y-104816D01*
X-16883Y-105164D01*
X-17232Y-105685D01*
X-17354Y-106299D01*
X-17232Y-106914D01*
X-16883Y-107435D01*
X-16363Y-107783D01*
X-15748Y-107905D01*
X-15134Y-107783D01*
X-14613Y-107435D01*
X-14265Y-106914D01*
X-14142Y-106299D01*
X-14265Y-105685D01*
X-14613Y-105164D01*
X-15134Y-104816D01*
X-15748Y-104694D01*
D02*
G37*
G36*
X-25591D02*
X-26205Y-104816D01*
X-26726Y-105164D01*
X-27074Y-105685D01*
X-27196Y-106299D01*
X-27074Y-106914D01*
X-26726Y-107435D01*
X-26205Y-107783D01*
X-25591Y-107905D01*
X-24976Y-107783D01*
X-24455Y-107435D01*
X-24107Y-106914D01*
X-23985Y-106299D01*
X-24107Y-105685D01*
X-24455Y-105164D01*
X-24976Y-104816D01*
X-25591Y-104694D01*
D02*
G37*
G36*
X23622D02*
X23008Y-104816D01*
X22487Y-105164D01*
X22139Y-105685D01*
X22016Y-106299D01*
X22139Y-106914D01*
X22487Y-107435D01*
X23008Y-107783D01*
X23622Y-107905D01*
X24237Y-107783D01*
X24757Y-107435D01*
X25106Y-106914D01*
X25228Y-106299D01*
X25106Y-105685D01*
X24757Y-105164D01*
X24237Y-104816D01*
X23622Y-104694D01*
D02*
G37*
G36*
X13780D02*
X13165Y-104816D01*
X12644Y-105164D01*
X12296Y-105685D01*
X12174Y-106299D01*
X12296Y-106914D01*
X12644Y-107435D01*
X13165Y-107783D01*
X13780Y-107905D01*
X14394Y-107783D01*
X14915Y-107435D01*
X15263Y-106914D01*
X15385Y-106299D01*
X15263Y-105685D01*
X14915Y-105164D01*
X14394Y-104816D01*
X13780Y-104694D01*
D02*
G37*
G36*
X3937D02*
X3322Y-104816D01*
X2802Y-105164D01*
X2454Y-105685D01*
X2331Y-106299D01*
X2454Y-106914D01*
X2802Y-107435D01*
X3322Y-107783D01*
X3937Y-107905D01*
X4552Y-107783D01*
X5072Y-107435D01*
X5420Y-106914D01*
X5543Y-106299D01*
X5420Y-105685D01*
X5072Y-105164D01*
X4552Y-104816D01*
X3937Y-104694D01*
D02*
G37*
G36*
X8858Y-94851D02*
X8244Y-94973D01*
X7723Y-95321D01*
X7375Y-95842D01*
X7253Y-96457D01*
X7375Y-97071D01*
X7723Y-97592D01*
X8244Y-97940D01*
X8858Y-98062D01*
X9473Y-97940D01*
X9994Y-97592D01*
X10342Y-97071D01*
X10464Y-96457D01*
X10342Y-95842D01*
X9994Y-95321D01*
X9473Y-94973D01*
X8858Y-94851D01*
D02*
G37*
G36*
X-10827D02*
X-11441Y-94973D01*
X-11962Y-95321D01*
X-12310Y-95842D01*
X-12432Y-96457D01*
X-12310Y-97071D01*
X-11962Y-97592D01*
X-11441Y-97940D01*
X-10827Y-98062D01*
X-10212Y-97940D01*
X-9691Y-97592D01*
X-9343Y-97071D01*
X-9221Y-96457D01*
X-9343Y-95842D01*
X-9691Y-95321D01*
X-10212Y-94973D01*
X-10827Y-94851D01*
D02*
G37*
G36*
X-20669D02*
X-21284Y-94973D01*
X-21805Y-95321D01*
X-22153Y-95842D01*
X-22275Y-96457D01*
X-22153Y-97071D01*
X-21805Y-97592D01*
X-21284Y-97940D01*
X-20669Y-98062D01*
X-20055Y-97940D01*
X-19534Y-97592D01*
X-19186Y-97071D01*
X-19064Y-96457D01*
X-19186Y-95842D01*
X-19534Y-95321D01*
X-20055Y-94973D01*
X-20669Y-94851D01*
D02*
G37*
G36*
X85630D02*
X85015Y-94973D01*
X84495Y-95321D01*
X84146Y-95842D01*
X84024Y-96457D01*
X84146Y-97071D01*
X84495Y-97592D01*
X85015Y-97940D01*
X85630Y-98062D01*
X86244Y-97940D01*
X86765Y-97592D01*
X87113Y-97071D01*
X87236Y-96457D01*
X87113Y-95842D01*
X86765Y-95321D01*
X86244Y-94973D01*
X85630Y-94851D01*
D02*
G37*
G36*
X75787D02*
X75173Y-94973D01*
X74652Y-95321D01*
X74304Y-95842D01*
X74182Y-96457D01*
X74304Y-97071D01*
X74652Y-97592D01*
X75173Y-97940D01*
X75787Y-98062D01*
X76402Y-97940D01*
X76923Y-97592D01*
X77271Y-97071D01*
X77393Y-96457D01*
X77271Y-95842D01*
X76923Y-95321D01*
X76402Y-94973D01*
X75787Y-94851D01*
D02*
G37*
G36*
X18701D02*
X18086Y-94973D01*
X17565Y-95321D01*
X17217Y-95842D01*
X17095Y-96457D01*
X17217Y-97071D01*
X17565Y-97592D01*
X18086Y-97940D01*
X18701Y-98062D01*
X19315Y-97940D01*
X19836Y-97592D01*
X20184Y-97071D01*
X20306Y-96457D01*
X20184Y-95842D01*
X19836Y-95321D01*
X19315Y-94973D01*
X18701Y-94851D01*
D02*
G37*
G36*
X-5906Y-95534D02*
X-6635Y-95679D01*
X-7254Y-96093D01*
X-7667Y-96711D01*
X-7812Y-97441D01*
X-7667Y-98171D01*
X-7254Y-98789D01*
X-6635Y-99203D01*
X-5906Y-99348D01*
X-5176Y-99203D01*
X-4557Y-98789D01*
X-4144Y-98171D01*
X-3999Y-97441D01*
X-4144Y-96711D01*
X-4557Y-96093D01*
X-5176Y-95679D01*
X-5906Y-95534D01*
D02*
G37*
G36*
X102362Y-97804D02*
X101748Y-97926D01*
X101227Y-98274D01*
X100879Y-98795D01*
X100757Y-99410D01*
X100879Y-100024D01*
X101227Y-100545D01*
X101748Y-100893D01*
X102362Y-101015D01*
X102977Y-100893D01*
X103498Y-100545D01*
X103846Y-100024D01*
X103968Y-99410D01*
X103846Y-98795D01*
X103498Y-98274D01*
X102977Y-97926D01*
X102362Y-97804D01*
D02*
G37*
G36*
X107283Y-100757D02*
X106669Y-100879D01*
X106148Y-101227D01*
X105800Y-101748D01*
X105678Y-102362D01*
X105800Y-102977D01*
X106148Y-103498D01*
X106669Y-103846D01*
X107283Y-103968D01*
X107898Y-103846D01*
X108419Y-103498D01*
X108767Y-102977D01*
X108889Y-102362D01*
X108767Y-101748D01*
X108419Y-101227D01*
X107898Y-100879D01*
X107283Y-100757D01*
D02*
G37*
G36*
X99410D02*
X98795Y-100879D01*
X98274Y-101227D01*
X97926Y-101748D01*
X97804Y-102362D01*
X97926Y-102977D01*
X98274Y-103498D01*
X98795Y-103846D01*
X99410Y-103968D01*
X100024Y-103846D01*
X100545Y-103498D01*
X100893Y-102977D01*
X101015Y-102362D01*
X100893Y-101748D01*
X100545Y-101227D01*
X100024Y-100879D01*
X99410Y-100757D01*
D02*
G37*
G36*
X131890Y-97804D02*
X131275Y-97926D01*
X130754Y-98274D01*
X130406Y-98795D01*
X130284Y-99410D01*
X130406Y-100024D01*
X130754Y-100545D01*
X131275Y-100893D01*
X131890Y-101015D01*
X132504Y-100893D01*
X133025Y-100545D01*
X133373Y-100024D01*
X133495Y-99410D01*
X133373Y-98795D01*
X133025Y-98274D01*
X132504Y-97926D01*
X131890Y-97804D01*
D02*
G37*
G36*
X124016D02*
X123401Y-97926D01*
X122880Y-98274D01*
X122532Y-98795D01*
X122410Y-99410D01*
X122532Y-100024D01*
X122880Y-100545D01*
X123401Y-100893D01*
X124016Y-101015D01*
X124630Y-100893D01*
X125151Y-100545D01*
X125499Y-100024D01*
X125621Y-99410D01*
X125499Y-98795D01*
X125151Y-98274D01*
X124630Y-97926D01*
X124016Y-97804D01*
D02*
G37*
G36*
X116142D02*
X115527Y-97926D01*
X115006Y-98274D01*
X114658Y-98795D01*
X114536Y-99410D01*
X114658Y-100024D01*
X115006Y-100545D01*
X115527Y-100893D01*
X116142Y-101015D01*
X116756Y-100893D01*
X117277Y-100545D01*
X117625Y-100024D01*
X117747Y-99410D01*
X117625Y-98795D01*
X117277Y-98274D01*
X116756Y-97926D01*
X116142Y-97804D01*
D02*
G37*
G36*
X58661Y-78018D02*
X58008Y-78148D01*
X57455Y-78518D01*
X57085Y-79071D01*
X56955Y-79724D01*
X57085Y-80377D01*
X57455Y-80931D01*
X58008Y-81300D01*
X58661Y-81430D01*
X59314Y-81300D01*
X59868Y-80931D01*
X60237Y-80377D01*
X60367Y-79724D01*
X60237Y-79071D01*
X59868Y-78518D01*
X59314Y-78148D01*
X58661Y-78018D01*
D02*
G37*
G36*
X159449Y-65324D02*
X158834Y-65446D01*
X158313Y-65794D01*
X157965Y-66315D01*
X157843Y-66929D01*
X157965Y-67544D01*
X158313Y-68064D01*
X158834Y-68413D01*
X159449Y-68535D01*
X160063Y-68413D01*
X160584Y-68064D01*
X160932Y-67544D01*
X161055Y-66929D01*
X160932Y-66315D01*
X160584Y-65794D01*
X160063Y-65446D01*
X159449Y-65324D01*
D02*
G37*
G36*
X139764D02*
X139149Y-65446D01*
X138628Y-65794D01*
X138280Y-66315D01*
X138158Y-66929D01*
X138280Y-67544D01*
X138628Y-68064D01*
X139149Y-68413D01*
X139764Y-68535D01*
X140378Y-68413D01*
X140899Y-68064D01*
X141247Y-67544D01*
X141369Y-66929D01*
X141247Y-66315D01*
X140899Y-65794D01*
X140378Y-65446D01*
X139764Y-65324D01*
D02*
G37*
G36*
X23622D02*
X23008Y-65446D01*
X22487Y-65794D01*
X22139Y-66315D01*
X22016Y-66929D01*
X22139Y-67544D01*
X22487Y-68064D01*
X23008Y-68413D01*
X23622Y-68535D01*
X24237Y-68413D01*
X24757Y-68064D01*
X25106Y-67544D01*
X25228Y-66929D01*
X25106Y-66315D01*
X24757Y-65794D01*
X24237Y-65446D01*
X23622Y-65324D01*
D02*
G37*
G36*
X133858Y-60402D02*
X133244Y-60524D01*
X132723Y-60873D01*
X132375Y-61393D01*
X132253Y-62008D01*
X132375Y-62622D01*
X132723Y-63143D01*
X133244Y-63491D01*
X133858Y-63613D01*
X134473Y-63491D01*
X134994Y-63143D01*
X135342Y-62622D01*
X135464Y-62008D01*
X135342Y-61393D01*
X134994Y-60873D01*
X134473Y-60524D01*
X133858Y-60402D01*
D02*
G37*
G36*
X94488D02*
X93874Y-60524D01*
X93353Y-60873D01*
X93005Y-61393D01*
X92883Y-62008D01*
X93005Y-62622D01*
X93353Y-63143D01*
X93874Y-63491D01*
X94488Y-63613D01*
X95103Y-63491D01*
X95624Y-63143D01*
X95972Y-62622D01*
X96094Y-62008D01*
X95972Y-61393D01*
X95624Y-60873D01*
X95103Y-60524D01*
X94488Y-60402D01*
D02*
G37*
G36*
X91535Y-64038D02*
X90806Y-64183D01*
X90187Y-64597D01*
X89774Y-65215D01*
X89629Y-65945D01*
X89774Y-66675D01*
X90187Y-67293D01*
X90806Y-67707D01*
X91535Y-67852D01*
X92265Y-67707D01*
X92884Y-67293D01*
X93297Y-66675D01*
X93442Y-65945D01*
X93297Y-65215D01*
X92884Y-64597D01*
X92265Y-64183D01*
X91535Y-64038D01*
D02*
G37*
G36*
X-25591Y-65324D02*
X-26205Y-65446D01*
X-26726Y-65794D01*
X-27074Y-66315D01*
X-27196Y-66929D01*
X-27074Y-67544D01*
X-26726Y-68064D01*
X-26205Y-68413D01*
X-25591Y-68535D01*
X-24976Y-68413D01*
X-24455Y-68064D01*
X-24107Y-67544D01*
X-23985Y-66929D01*
X-24107Y-66315D01*
X-24455Y-65794D01*
X-24976Y-65446D01*
X-25591Y-65324D01*
D02*
G37*
G36*
X-28543Y-68276D02*
X-29158Y-68398D01*
X-29679Y-68747D01*
X-30027Y-69267D01*
X-30149Y-69882D01*
X-30027Y-70496D01*
X-29679Y-71017D01*
X-29158Y-71365D01*
X-28543Y-71487D01*
X-27929Y-71365D01*
X-27408Y-71017D01*
X-27060Y-70496D01*
X-26938Y-69882D01*
X-27060Y-69267D01*
X-27408Y-68747D01*
X-27929Y-68398D01*
X-28543Y-68276D01*
D02*
G37*
G36*
X116142Y-70245D02*
X115527Y-70367D01*
X115006Y-70715D01*
X114658Y-71236D01*
X114536Y-71850D01*
X114658Y-72465D01*
X115006Y-72986D01*
X115527Y-73334D01*
X116142Y-73456D01*
X116756Y-73334D01*
X117277Y-72986D01*
X117625Y-72465D01*
X117747Y-71850D01*
X117625Y-71236D01*
X117277Y-70715D01*
X116756Y-70367D01*
X116142Y-70245D01*
D02*
G37*
G36*
X89567Y-69944D02*
X88837Y-70089D01*
X88219Y-70502D01*
X87805Y-71121D01*
X87660Y-71850D01*
X87805Y-72580D01*
X88219Y-73199D01*
X88837Y-73612D01*
X89567Y-73757D01*
X90297Y-73612D01*
X90915Y-73199D01*
X91329Y-72580D01*
X91474Y-71850D01*
X91329Y-71121D01*
X90915Y-70502D01*
X90297Y-70089D01*
X89567Y-69944D01*
D02*
G37*
G36*
X-31496Y-65324D02*
X-32111Y-65446D01*
X-32631Y-65794D01*
X-32980Y-66315D01*
X-33102Y-66929D01*
X-32980Y-67544D01*
X-32631Y-68064D01*
X-32111Y-68413D01*
X-31496Y-68535D01*
X-30882Y-68413D01*
X-30361Y-68064D01*
X-30013Y-67544D01*
X-29890Y-66929D01*
X-30013Y-66315D01*
X-30361Y-65794D01*
X-30882Y-65446D01*
X-31496Y-65324D01*
D02*
G37*
G36*
X98425Y-66308D02*
X97811Y-66430D01*
X97290Y-66778D01*
X96942Y-67299D01*
X96820Y-67913D01*
X96942Y-68528D01*
X97290Y-69049D01*
X97811Y-69397D01*
X98425Y-69519D01*
X99040Y-69397D01*
X99561Y-69049D01*
X99909Y-68528D01*
X100031Y-67913D01*
X99909Y-67299D01*
X99561Y-66778D01*
X99040Y-66430D01*
X98425Y-66308D01*
D02*
G37*
G36*
X27559Y-67292D02*
X26945Y-67414D01*
X26424Y-67762D01*
X26076Y-68283D01*
X25953Y-68898D01*
X26076Y-69512D01*
X26424Y-70033D01*
X26945Y-70381D01*
X27559Y-70503D01*
X28174Y-70381D01*
X28694Y-70033D01*
X29043Y-69512D01*
X29165Y-68898D01*
X29043Y-68283D01*
X28694Y-67762D01*
X28174Y-67414D01*
X27559Y-67292D01*
D02*
G37*
G36*
X62008Y-52227D02*
X61278Y-52372D01*
X60660Y-52786D01*
X60246Y-53404D01*
X60101Y-54134D01*
X60246Y-54864D01*
X60660Y-55482D01*
X61278Y-55895D01*
X62008Y-56041D01*
X62738Y-55895D01*
X63356Y-55482D01*
X63769Y-54864D01*
X63915Y-54134D01*
X63769Y-53404D01*
X63356Y-52786D01*
X62738Y-52372D01*
X62008Y-52227D01*
D02*
G37*
G36*
X48228D02*
X47499Y-52372D01*
X46880Y-52786D01*
X46467Y-53404D01*
X46322Y-54134D01*
X46467Y-54864D01*
X46880Y-55482D01*
X47499Y-55895D01*
X48228Y-56041D01*
X48958Y-55895D01*
X49577Y-55482D01*
X49990Y-54864D01*
X50135Y-54134D01*
X49990Y-53404D01*
X49577Y-52786D01*
X48958Y-52372D01*
X48228Y-52227D01*
D02*
G37*
G36*
X164370Y-55481D02*
X163756Y-55603D01*
X163235Y-55951D01*
X162887Y-56472D01*
X162764Y-57087D01*
X162887Y-57701D01*
X163235Y-58222D01*
X163756Y-58570D01*
X164370Y-58692D01*
X164985Y-58570D01*
X165505Y-58222D01*
X165854Y-57701D01*
X165976Y-57087D01*
X165854Y-56472D01*
X165505Y-55951D01*
X164985Y-55603D01*
X164370Y-55481D01*
D02*
G37*
G36*
X-72835Y-52528D02*
X-73449Y-52650D01*
X-73970Y-52999D01*
X-74318Y-53519D01*
X-74440Y-54134D01*
X-74318Y-54748D01*
X-73970Y-55269D01*
X-73449Y-55617D01*
X-72835Y-55739D01*
X-72220Y-55617D01*
X-71699Y-55269D01*
X-71351Y-54748D01*
X-71229Y-54134D01*
X-71351Y-53519D01*
X-71699Y-52999D01*
X-72220Y-52650D01*
X-72835Y-52528D01*
D02*
G37*
G36*
X-115157D02*
X-115772Y-52650D01*
X-116293Y-52999D01*
X-116641Y-53519D01*
X-116763Y-54134D01*
X-116641Y-54748D01*
X-116293Y-55269D01*
X-115772Y-55617D01*
X-115157Y-55739D01*
X-114543Y-55617D01*
X-114022Y-55269D01*
X-113674Y-54748D01*
X-113552Y-54134D01*
X-113674Y-53519D01*
X-114022Y-52999D01*
X-114543Y-52650D01*
X-115157Y-52528D01*
D02*
G37*
G36*
X69882Y-52227D02*
X69152Y-52372D01*
X68534Y-52786D01*
X68120Y-53404D01*
X67975Y-54134D01*
X68120Y-54864D01*
X68534Y-55482D01*
X69152Y-55895D01*
X69882Y-56041D01*
X70612Y-55895D01*
X71230Y-55482D01*
X71644Y-54864D01*
X71789Y-54134D01*
X71644Y-53404D01*
X71230Y-52786D01*
X70612Y-52372D01*
X69882Y-52227D01*
D02*
G37*
G36*
X154528Y-55481D02*
X153913Y-55603D01*
X153392Y-55951D01*
X153044Y-56472D01*
X152922Y-57087D01*
X153044Y-57701D01*
X153392Y-58222D01*
X153913Y-58570D01*
X154528Y-58692D01*
X155142Y-58570D01*
X155663Y-58222D01*
X156011Y-57701D01*
X156133Y-57087D01*
X156011Y-56472D01*
X155663Y-55951D01*
X155142Y-55603D01*
X154528Y-55481D01*
D02*
G37*
G36*
X38386Y-57450D02*
X37771Y-57572D01*
X37251Y-57920D01*
X36902Y-58441D01*
X36780Y-59055D01*
X36902Y-59670D01*
X37251Y-60190D01*
X37771Y-60539D01*
X38386Y-60661D01*
X39000Y-60539D01*
X39521Y-60190D01*
X39869Y-59670D01*
X39992Y-59055D01*
X39869Y-58441D01*
X39521Y-57920D01*
X39000Y-57572D01*
X38386Y-57450D01*
D02*
G37*
G36*
X32480D02*
X31866Y-57572D01*
X31345Y-57920D01*
X30997Y-58441D01*
X30875Y-59055D01*
X30997Y-59670D01*
X31345Y-60190D01*
X31866Y-60539D01*
X32480Y-60661D01*
X33095Y-60539D01*
X33616Y-60190D01*
X33964Y-59670D01*
X34086Y-59055D01*
X33964Y-58441D01*
X33616Y-57920D01*
X33095Y-57572D01*
X32480Y-57450D01*
D02*
G37*
G36*
X-5906Y-59117D02*
X-6635Y-59262D01*
X-7254Y-59675D01*
X-7667Y-60294D01*
X-7812Y-61024D01*
X-7667Y-61753D01*
X-7254Y-62372D01*
X-6635Y-62785D01*
X-5906Y-62930D01*
X-5176Y-62785D01*
X-4557Y-62372D01*
X-4144Y-61753D01*
X-3999Y-61024D01*
X-4144Y-60294D01*
X-4557Y-59675D01*
X-5176Y-59262D01*
X-5906Y-59117D01*
D02*
G37*
G36*
X139764Y-55481D02*
X139149Y-55603D01*
X138628Y-55951D01*
X138280Y-56472D01*
X138158Y-57087D01*
X138280Y-57701D01*
X138628Y-58222D01*
X139149Y-58570D01*
X139764Y-58692D01*
X140378Y-58570D01*
X140899Y-58222D01*
X141247Y-57701D01*
X141369Y-57087D01*
X141247Y-56472D01*
X140899Y-55951D01*
X140378Y-55603D01*
X139764Y-55481D01*
D02*
G37*
G36*
X125000D02*
X124385Y-55603D01*
X123865Y-55951D01*
X123517Y-56472D01*
X123394Y-57087D01*
X123517Y-57701D01*
X123865Y-58222D01*
X124385Y-58570D01*
X125000Y-58692D01*
X125615Y-58570D01*
X126135Y-58222D01*
X126483Y-57701D01*
X126606Y-57087D01*
X126483Y-56472D01*
X126135Y-55951D01*
X125615Y-55603D01*
X125000Y-55481D01*
D02*
G37*
G36*
X-20669D02*
X-21284Y-55603D01*
X-21805Y-55951D01*
X-22153Y-56472D01*
X-22275Y-57087D01*
X-22153Y-57701D01*
X-21805Y-58222D01*
X-21284Y-58570D01*
X-20669Y-58692D01*
X-20055Y-58570D01*
X-19534Y-58222D01*
X-19186Y-57701D01*
X-19064Y-57087D01*
X-19186Y-56472D01*
X-19534Y-55951D01*
X-20055Y-55603D01*
X-20669Y-55481D01*
D02*
G37*
G36*
X154528Y-75166D02*
X153913Y-75288D01*
X153392Y-75636D01*
X153044Y-76157D01*
X152922Y-76772D01*
X153044Y-77386D01*
X153392Y-77907D01*
X153913Y-78255D01*
X154528Y-78377D01*
X155142Y-78255D01*
X155663Y-77907D01*
X156011Y-77386D01*
X156133Y-76772D01*
X156011Y-76157D01*
X155663Y-75636D01*
X155142Y-75288D01*
X154528Y-75166D01*
D02*
G37*
G36*
X136811D02*
X136197Y-75288D01*
X135676Y-75636D01*
X135328Y-76157D01*
X135205Y-76772D01*
X135328Y-77386D01*
X135676Y-77907D01*
X136197Y-78255D01*
X136811Y-78377D01*
X137425Y-78255D01*
X137946Y-77907D01*
X138294Y-77386D01*
X138417Y-76772D01*
X138294Y-76157D01*
X137946Y-75636D01*
X137425Y-75288D01*
X136811Y-75166D01*
D02*
G37*
G36*
X27559D02*
X26945Y-75288D01*
X26424Y-75636D01*
X26076Y-76157D01*
X25953Y-76772D01*
X26076Y-77386D01*
X26424Y-77907D01*
X26945Y-78255D01*
X27559Y-78377D01*
X28174Y-78255D01*
X28694Y-77907D01*
X29043Y-77386D01*
X29165Y-76772D01*
X29043Y-76157D01*
X28694Y-75636D01*
X28174Y-75288D01*
X27559Y-75166D01*
D02*
G37*
G36*
X106299Y-74182D02*
X105685Y-74304D01*
X105164Y-74652D01*
X104816Y-75173D01*
X104694Y-75787D01*
X104816Y-76402D01*
X105164Y-76923D01*
X105685Y-77271D01*
X106299Y-77393D01*
X106914Y-77271D01*
X107435Y-76923D01*
X107783Y-76402D01*
X107905Y-75787D01*
X107783Y-75173D01*
X107435Y-74652D01*
X106914Y-74304D01*
X106299Y-74182D01*
D02*
G37*
G36*
X102362D02*
X101748Y-74304D01*
X101227Y-74652D01*
X100879Y-75173D01*
X100757Y-75787D01*
X100879Y-76402D01*
X101227Y-76923D01*
X101748Y-77271D01*
X102362Y-77393D01*
X102977Y-77271D01*
X103498Y-76923D01*
X103846Y-76402D01*
X103968Y-75787D01*
X103846Y-75173D01*
X103498Y-74652D01*
X102977Y-74304D01*
X102362Y-74182D01*
D02*
G37*
G36*
X164370Y-75166D02*
X163756Y-75288D01*
X163235Y-75636D01*
X162887Y-76157D01*
X162764Y-76772D01*
X162887Y-77386D01*
X163235Y-77907D01*
X163756Y-78255D01*
X164370Y-78377D01*
X164985Y-78255D01*
X165505Y-77907D01*
X165854Y-77386D01*
X165976Y-76772D01*
X165854Y-76157D01*
X165505Y-75636D01*
X164985Y-75288D01*
X164370Y-75166D01*
D02*
G37*
G36*
X-20669D02*
X-21284Y-75288D01*
X-21805Y-75636D01*
X-22153Y-76157D01*
X-22275Y-76772D01*
X-22153Y-77386D01*
X-21805Y-77907D01*
X-21284Y-78255D01*
X-20669Y-78377D01*
X-20055Y-78255D01*
X-19534Y-77907D01*
X-19186Y-77386D01*
X-19064Y-76772D01*
X-19186Y-76157D01*
X-19534Y-75636D01*
X-20055Y-75288D01*
X-20669Y-75166D01*
D02*
G37*
G36*
X30512Y-78119D02*
X29897Y-78241D01*
X29376Y-78589D01*
X29028Y-79110D01*
X28906Y-79724D01*
X29028Y-80339D01*
X29376Y-80860D01*
X29897Y-81208D01*
X30512Y-81330D01*
X31126Y-81208D01*
X31647Y-80860D01*
X31995Y-80339D01*
X32118Y-79724D01*
X31995Y-79110D01*
X31647Y-78589D01*
X31126Y-78241D01*
X30512Y-78119D01*
D02*
G37*
G36*
X67323Y-78018D02*
X66670Y-78148D01*
X66116Y-78518D01*
X65747Y-79071D01*
X65617Y-79724D01*
X65747Y-80377D01*
X66116Y-80931D01*
X66670Y-81300D01*
X67323Y-81430D01*
X67976Y-81300D01*
X68529Y-80931D01*
X68899Y-80377D01*
X69029Y-79724D01*
X68899Y-79071D01*
X68529Y-78518D01*
X67976Y-78148D01*
X67323Y-78018D01*
D02*
G37*
G36*
X62992D02*
X62339Y-78148D01*
X61786Y-78518D01*
X61416Y-79071D01*
X61286Y-79724D01*
X61416Y-80377D01*
X61786Y-80931D01*
X62339Y-81300D01*
X62992Y-81430D01*
X63645Y-81300D01*
X64198Y-80931D01*
X64568Y-80377D01*
X64698Y-79724D01*
X64568Y-79071D01*
X64198Y-78518D01*
X63645Y-78148D01*
X62992Y-78018D01*
D02*
G37*
G36*
X-11811Y-75849D02*
X-12541Y-75994D01*
X-13159Y-76408D01*
X-13573Y-77026D01*
X-13718Y-77756D01*
X-13573Y-78486D01*
X-13159Y-79104D01*
X-12541Y-79518D01*
X-11811Y-79663D01*
X-11081Y-79518D01*
X-10463Y-79104D01*
X-10049Y-78486D01*
X-9904Y-77756D01*
X-10049Y-77026D01*
X-10463Y-76408D01*
X-11081Y-75994D01*
X-11811Y-75849D01*
D02*
G37*
G36*
X84646Y-77135D02*
X84031Y-77257D01*
X83510Y-77605D01*
X83162Y-78126D01*
X83040Y-78740D01*
X83162Y-79355D01*
X83510Y-79875D01*
X84031Y-80224D01*
X84646Y-80346D01*
X85260Y-80224D01*
X85781Y-79875D01*
X86129Y-79355D01*
X86251Y-78740D01*
X86129Y-78126D01*
X85781Y-77605D01*
X85260Y-77257D01*
X84646Y-77135D01*
D02*
G37*
G36*
X35433Y-78119D02*
X34819Y-78241D01*
X34298Y-78589D01*
X33950Y-79110D01*
X33827Y-79724D01*
X33950Y-80339D01*
X34298Y-80860D01*
X34819Y-81208D01*
X35433Y-81330D01*
X36048Y-81208D01*
X36568Y-80860D01*
X36917Y-80339D01*
X37039Y-79724D01*
X36917Y-79110D01*
X36568Y-78589D01*
X36048Y-78241D01*
X35433Y-78119D01*
D02*
G37*
G36*
X-93504Y-72213D02*
X-94118Y-72335D01*
X-94639Y-72684D01*
X-94987Y-73204D01*
X-95110Y-73819D01*
X-94987Y-74433D01*
X-94639Y-74954D01*
X-94118Y-75302D01*
X-93504Y-75424D01*
X-92889Y-75302D01*
X-92369Y-74954D01*
X-92020Y-74433D01*
X-91898Y-73819D01*
X-92020Y-73204D01*
X-92369Y-72684D01*
X-92889Y-72335D01*
X-93504Y-72213D01*
D02*
G37*
G36*
X93504Y-73198D02*
X92889Y-73320D01*
X92369Y-73668D01*
X92020Y-74189D01*
X91898Y-74803D01*
X92020Y-75418D01*
X92369Y-75938D01*
X92889Y-76287D01*
X93504Y-76409D01*
X94118Y-76287D01*
X94639Y-75938D01*
X94987Y-75418D01*
X95110Y-74803D01*
X94987Y-74189D01*
X94639Y-73668D01*
X94118Y-73320D01*
X93504Y-73198D01*
D02*
G37*
G36*
X15748Y-72896D02*
X15018Y-73042D01*
X14400Y-73455D01*
X13986Y-74073D01*
X13841Y-74803D01*
X13986Y-75533D01*
X14400Y-76151D01*
X15018Y-76565D01*
X15748Y-76710D01*
X16478Y-76565D01*
X17096Y-76151D01*
X17510Y-75533D01*
X17655Y-74803D01*
X17510Y-74073D01*
X17096Y-73455D01*
X16478Y-73042D01*
X15748Y-72896D01*
D02*
G37*
G36*
X27559Y-71229D02*
X26945Y-71351D01*
X26424Y-71699D01*
X26076Y-72220D01*
X25953Y-72835D01*
X26076Y-73449D01*
X26424Y-73970D01*
X26945Y-74318D01*
X27559Y-74440D01*
X28174Y-74318D01*
X28694Y-73970D01*
X29043Y-73449D01*
X29165Y-72835D01*
X29043Y-72220D01*
X28694Y-71699D01*
X28174Y-71351D01*
X27559Y-71229D01*
D02*
G37*
G36*
X148622Y-72213D02*
X148008Y-72335D01*
X147487Y-72684D01*
X147139Y-73204D01*
X147016Y-73819D01*
X147139Y-74433D01*
X147487Y-74954D01*
X148008Y-75302D01*
X148622Y-75424D01*
X149237Y-75302D01*
X149757Y-74954D01*
X150106Y-74433D01*
X150228Y-73819D01*
X150106Y-73204D01*
X149757Y-72684D01*
X149237Y-72335D01*
X148622Y-72213D01*
D02*
G37*
G36*
X144685D02*
X144071Y-72335D01*
X143550Y-72684D01*
X143202Y-73204D01*
X143079Y-73819D01*
X143202Y-74433D01*
X143550Y-74954D01*
X144071Y-75302D01*
X144685Y-75424D01*
X145299Y-75302D01*
X145820Y-74954D01*
X146168Y-74433D01*
X146291Y-73819D01*
X146168Y-73204D01*
X145820Y-72684D01*
X145299Y-72335D01*
X144685Y-72213D01*
D02*
G37*
G36*
X-15748Y-72896D02*
X-16478Y-73042D01*
X-17096Y-73455D01*
X-17510Y-74073D01*
X-17655Y-74803D01*
X-17510Y-75533D01*
X-17096Y-76151D01*
X-16478Y-76565D01*
X-15748Y-76710D01*
X-15018Y-76565D01*
X-14400Y-76151D01*
X-13986Y-75533D01*
X-13841Y-74803D01*
X-13986Y-74073D01*
X-14400Y-73455D01*
X-15018Y-73042D01*
X-15748Y-72896D01*
D02*
G37*
G36*
X129921Y-74182D02*
X129307Y-74304D01*
X128786Y-74652D01*
X128438Y-75173D01*
X128316Y-75787D01*
X128438Y-76402D01*
X128786Y-76923D01*
X129307Y-77271D01*
X129921Y-77393D01*
X130536Y-77271D01*
X131057Y-76923D01*
X131405Y-76402D01*
X131527Y-75787D01*
X131405Y-75173D01*
X131057Y-74652D01*
X130536Y-74304D01*
X129921Y-74182D01*
D02*
G37*
G36*
X125984D02*
X125370Y-74304D01*
X124849Y-74652D01*
X124501Y-75173D01*
X124379Y-75787D01*
X124501Y-76402D01*
X124849Y-76923D01*
X125370Y-77271D01*
X125984Y-77393D01*
X126599Y-77271D01*
X127120Y-76923D01*
X127468Y-76402D01*
X127590Y-75787D01*
X127468Y-75173D01*
X127120Y-74652D01*
X126599Y-74304D01*
X125984Y-74182D01*
D02*
G37*
G36*
X116142D02*
X115527Y-74304D01*
X115006Y-74652D01*
X114658Y-75173D01*
X114536Y-75787D01*
X114658Y-76402D01*
X115006Y-76923D01*
X115527Y-77271D01*
X116142Y-77393D01*
X116756Y-77271D01*
X117277Y-76923D01*
X117625Y-76402D01*
X117747Y-75787D01*
X117625Y-75173D01*
X117277Y-74652D01*
X116756Y-74304D01*
X116142Y-74182D01*
D02*
G37*
G36*
X67323Y-73688D02*
X66670Y-73817D01*
X66116Y-74187D01*
X65747Y-74741D01*
X65617Y-75394D01*
X65747Y-76047D01*
X66116Y-76600D01*
X66670Y-76970D01*
X67323Y-77100D01*
X67976Y-76970D01*
X68529Y-76600D01*
X68899Y-76047D01*
X69029Y-75394D01*
X68899Y-74741D01*
X68529Y-74187D01*
X67976Y-73817D01*
X67323Y-73688D01*
D02*
G37*
G36*
X62992D02*
X62339Y-73817D01*
X61786Y-74187D01*
X61416Y-74741D01*
X61286Y-75394D01*
X61416Y-76047D01*
X61786Y-76600D01*
X62339Y-76970D01*
X62992Y-77100D01*
X63645Y-76970D01*
X64198Y-76600D01*
X64568Y-76047D01*
X64698Y-75394D01*
X64568Y-74741D01*
X64198Y-74187D01*
X63645Y-73817D01*
X62992Y-73688D01*
D02*
G37*
G36*
X58661D02*
X58008Y-73817D01*
X57455Y-74187D01*
X57085Y-74741D01*
X56955Y-75394D01*
X57085Y-76047D01*
X57455Y-76600D01*
X58008Y-76970D01*
X58661Y-77100D01*
X59314Y-76970D01*
X59868Y-76600D01*
X60237Y-76047D01*
X60367Y-75394D01*
X60237Y-74741D01*
X59868Y-74187D01*
X59314Y-73817D01*
X58661Y-73688D01*
D02*
G37*
G36*
X-121063Y-7253D02*
X-121677Y-7375D01*
X-122198Y-7723D01*
X-122547Y-8244D01*
X-122669Y-8858D01*
X-122830Y-9055D01*
X-127170Y-9055D01*
X-127331Y-8858D01*
X-127454Y-8244D01*
X-127802Y-7723D01*
X-128323Y-7375D01*
X-128937Y-7253D01*
X-129552Y-7375D01*
X-130072Y-7723D01*
X-130420Y-8244D01*
X-130543Y-8858D01*
X-130704Y-9055D01*
X-141339D01*
Y-18504D01*
X-110630D01*
Y-9055D01*
X-119296D01*
X-119457Y-8858D01*
X-119580Y-8244D01*
X-119928Y-7723D01*
X-120449Y-7375D01*
X-121063Y-7253D01*
D02*
G37*
G36*
X93504Y78377D02*
X92889Y78255D01*
X92369Y77907D01*
X92020Y77386D01*
X91898Y76772D01*
X92020Y76157D01*
X92369Y75636D01*
X92889Y75288D01*
X93504Y75166D01*
X94118Y75288D01*
X94639Y75636D01*
X94987Y76157D01*
X95110Y76772D01*
X94987Y77386D01*
X94639Y77907D01*
X94118Y78255D01*
X93504Y78377D01*
D02*
G37*
G36*
X82677Y75424D02*
X82063Y75302D01*
X81542Y74954D01*
X81194Y74433D01*
X81072Y73819D01*
X81194Y73204D01*
X81542Y72684D01*
X82063Y72335D01*
X82677Y72213D01*
X83292Y72335D01*
X83812Y72684D01*
X84161Y73204D01*
X84283Y73819D01*
X84161Y74433D01*
X83812Y74954D01*
X83292Y75302D01*
X82677Y75424D01*
D02*
G37*
G36*
X9843D02*
X9228Y75302D01*
X8707Y74954D01*
X8359Y74433D01*
X8237Y73819D01*
X8359Y73204D01*
X8707Y72684D01*
X9228Y72335D01*
X9843Y72213D01*
X10457Y72335D01*
X10978Y72684D01*
X11326Y73204D01*
X11448Y73819D01*
X11326Y74433D01*
X10978Y74954D01*
X10457Y75302D01*
X9843Y75424D01*
D02*
G37*
G36*
X93504Y82314D02*
X92889Y82192D01*
X92369Y81844D01*
X92020Y81323D01*
X91898Y80709D01*
X92020Y80094D01*
X92369Y79573D01*
X92889Y79225D01*
X93504Y79103D01*
X94118Y79225D01*
X94639Y79573D01*
X94987Y80094D01*
X95110Y80709D01*
X94987Y81323D01*
X94639Y81844D01*
X94118Y82192D01*
X93504Y82314D01*
D02*
G37*
G36*
X65945D02*
X65330Y82192D01*
X64810Y81844D01*
X64461Y81323D01*
X64339Y80709D01*
X64461Y80094D01*
X64810Y79573D01*
X65330Y79225D01*
X65945Y79103D01*
X66559Y79225D01*
X67080Y79573D01*
X67428Y80094D01*
X67550Y80709D01*
X67428Y81323D01*
X67080Y81844D01*
X66559Y82192D01*
X65945Y82314D01*
D02*
G37*
G36*
X46260D02*
X45645Y82192D01*
X45125Y81844D01*
X44776Y81323D01*
X44654Y80709D01*
X44776Y80094D01*
X45125Y79573D01*
X45645Y79225D01*
X46260Y79103D01*
X46874Y79225D01*
X47395Y79573D01*
X47743Y80094D01*
X47866Y80709D01*
X47743Y81323D01*
X47395Y81844D01*
X46874Y82192D01*
X46260Y82314D01*
D02*
G37*
G36*
X93504Y74440D02*
X92889Y74318D01*
X92369Y73970D01*
X92020Y73449D01*
X91898Y72835D01*
X92020Y72220D01*
X92369Y71699D01*
X92889Y71351D01*
X93504Y71229D01*
X94118Y71351D01*
X94639Y71699D01*
X94987Y72220D01*
X95110Y72835D01*
X94987Y73449D01*
X94639Y73970D01*
X94118Y74318D01*
X93504Y74440D01*
D02*
G37*
G36*
X115157Y70503D02*
X114543Y70381D01*
X114022Y70033D01*
X113674Y69512D01*
X113552Y68898D01*
X113674Y68283D01*
X114022Y67762D01*
X114543Y67414D01*
X115157Y67292D01*
X115772Y67414D01*
X116293Y67762D01*
X116641Y68283D01*
X116763Y68898D01*
X116641Y69512D01*
X116293Y70033D01*
X115772Y70381D01*
X115157Y70503D01*
D02*
G37*
G36*
X111221D02*
X110606Y70381D01*
X110085Y70033D01*
X109737Y69512D01*
X109615Y68898D01*
X109737Y68283D01*
X110085Y67762D01*
X110606Y67414D01*
X111221Y67292D01*
X111835Y67414D01*
X112356Y67762D01*
X112704Y68283D01*
X112826Y68898D01*
X112704Y69512D01*
X112356Y70033D01*
X111835Y70381D01*
X111221Y70503D01*
D02*
G37*
G36*
X107283D02*
X106669Y70381D01*
X106148Y70033D01*
X105800Y69512D01*
X105678Y68898D01*
X105800Y68283D01*
X106148Y67762D01*
X106669Y67414D01*
X107283Y67292D01*
X107898Y67414D01*
X108419Y67762D01*
X108767Y68283D01*
X108889Y68898D01*
X108767Y69512D01*
X108419Y70033D01*
X107898Y70381D01*
X107283Y70503D01*
D02*
G37*
G36*
X154528Y72472D02*
X153913Y72350D01*
X153392Y72001D01*
X153044Y71481D01*
X152922Y70866D01*
X153044Y70252D01*
X153392Y69731D01*
X153913Y69383D01*
X154528Y69261D01*
X155142Y69383D01*
X155663Y69731D01*
X156011Y70252D01*
X156133Y70866D01*
X156011Y71481D01*
X155663Y72001D01*
X155142Y72350D01*
X154528Y72472D01*
D02*
G37*
G36*
X134843D02*
X134228Y72350D01*
X133707Y72001D01*
X133359Y71481D01*
X133237Y70866D01*
X133359Y70252D01*
X133707Y69731D01*
X134228Y69383D01*
X134843Y69261D01*
X135457Y69383D01*
X135978Y69731D01*
X136326Y70252D01*
X136448Y70866D01*
X136326Y71481D01*
X135978Y72001D01*
X135457Y72350D01*
X134843Y72472D01*
D02*
G37*
G36*
X9843Y71487D02*
X9228Y71365D01*
X8707Y71017D01*
X8359Y70496D01*
X8237Y69882D01*
X8359Y69267D01*
X8707Y68747D01*
X9228Y68398D01*
X9843Y68276D01*
X10457Y68398D01*
X10978Y68747D01*
X11326Y69267D01*
X11448Y69882D01*
X11326Y70496D01*
X10978Y71017D01*
X10457Y71365D01*
X9843Y71487D01*
D02*
G37*
G36*
X-8858Y90188D02*
X-9473Y90066D01*
X-9994Y89718D01*
X-10342Y89197D01*
X-10464Y88583D01*
X-10342Y87968D01*
X-9994Y87447D01*
X-9473Y87099D01*
X-8858Y86977D01*
X-8244Y87099D01*
X-7723Y87447D01*
X-7375Y87968D01*
X-7253Y88583D01*
X-7375Y89197D01*
X-7723Y89718D01*
X-8244Y90066D01*
X-8858Y90188D01*
D02*
G37*
G36*
X-24606Y89204D02*
X-25221Y89082D01*
X-25742Y88734D01*
X-26090Y88213D01*
X-26212Y87598D01*
X-26090Y86984D01*
X-25742Y86463D01*
X-25221Y86115D01*
X-24606Y85993D01*
X-23992Y86115D01*
X-23471Y86463D01*
X-23123Y86984D01*
X-23001Y87598D01*
X-23123Y88213D01*
X-23471Y88734D01*
X-23992Y89082D01*
X-24606Y89204D01*
D02*
G37*
G36*
X-44291D02*
X-44906Y89082D01*
X-45427Y88734D01*
X-45775Y88213D01*
X-45897Y87598D01*
X-45775Y86984D01*
X-45427Y86463D01*
X-44906Y86115D01*
X-44291Y85993D01*
X-43677Y86115D01*
X-43156Y86463D01*
X-42808Y86984D01*
X-42686Y87598D01*
X-42808Y88213D01*
X-43156Y88734D01*
X-43677Y89082D01*
X-44291Y89204D01*
D02*
G37*
G36*
X93504Y90188D02*
X92889Y90066D01*
X92369Y89718D01*
X92020Y89197D01*
X91898Y88583D01*
X92020Y87968D01*
X92369Y87447D01*
X92889Y87099D01*
X93504Y86977D01*
X94118Y87099D01*
X94639Y87447D01*
X94987Y87968D01*
X95110Y88583D01*
X94987Y89197D01*
X94639Y89718D01*
X94118Y90066D01*
X93504Y90188D01*
D02*
G37*
G36*
X19685D02*
X19071Y90066D01*
X18550Y89718D01*
X18202Y89197D01*
X18079Y88583D01*
X18202Y87968D01*
X18550Y87447D01*
X19071Y87099D01*
X19685Y86977D01*
X20300Y87099D01*
X20820Y87447D01*
X21169Y87968D01*
X21291Y88583D01*
X21169Y89197D01*
X20820Y89718D01*
X20300Y90066D01*
X19685Y90188D01*
D02*
G37*
G36*
X7874D02*
X7260Y90066D01*
X6739Y89718D01*
X6391Y89197D01*
X6268Y88583D01*
X6391Y87968D01*
X6739Y87447D01*
X7260Y87099D01*
X7874Y86977D01*
X8489Y87099D01*
X9009Y87447D01*
X9358Y87968D01*
X9480Y88583D01*
X9358Y89197D01*
X9009Y89718D01*
X8489Y90066D01*
X7874Y90188D01*
D02*
G37*
G36*
X-63976Y89204D02*
X-64591Y89082D01*
X-65112Y88734D01*
X-65460Y88213D01*
X-65582Y87598D01*
X-65460Y86984D01*
X-65112Y86463D01*
X-64591Y86115D01*
X-63976Y85993D01*
X-63362Y86115D01*
X-62841Y86463D01*
X-62493Y86984D01*
X-62371Y87598D01*
X-62493Y88213D01*
X-62841Y88734D01*
X-63362Y89082D01*
X-63976Y89204D01*
D02*
G37*
G36*
X164370Y82314D02*
X163756Y82192D01*
X163235Y81844D01*
X162887Y81323D01*
X162764Y80709D01*
X162887Y80094D01*
X163235Y79573D01*
X163756Y79225D01*
X164370Y79103D01*
X164985Y79225D01*
X165505Y79573D01*
X165854Y80094D01*
X165976Y80709D01*
X165854Y81323D01*
X165505Y81844D01*
X164985Y82192D01*
X164370Y82314D01*
D02*
G37*
G36*
X144685D02*
X144071Y82192D01*
X143550Y81844D01*
X143202Y81323D01*
X143079Y80709D01*
X143202Y80094D01*
X143550Y79573D01*
X144071Y79225D01*
X144685Y79103D01*
X145299Y79225D01*
X145820Y79573D01*
X146168Y80094D01*
X146291Y80709D01*
X146168Y81323D01*
X145820Y81844D01*
X145299Y82192D01*
X144685Y82314D01*
D02*
G37*
G36*
X125000D02*
X124385Y82192D01*
X123865Y81844D01*
X123517Y81323D01*
X123394Y80709D01*
X123517Y80094D01*
X123865Y79573D01*
X124385Y79225D01*
X125000Y79103D01*
X125615Y79225D01*
X126135Y79573D01*
X126483Y80094D01*
X126606Y80709D01*
X126483Y81323D01*
X126135Y81844D01*
X125615Y82192D01*
X125000Y82314D01*
D02*
G37*
G36*
X93504Y86251D02*
X92889Y86129D01*
X92369Y85781D01*
X92020Y85260D01*
X91898Y84646D01*
X92020Y84031D01*
X92369Y83510D01*
X92889Y83162D01*
X93504Y83040D01*
X94118Y83162D01*
X94639Y83510D01*
X94987Y84031D01*
X95110Y84646D01*
X94987Y85260D01*
X94639Y85781D01*
X94118Y86129D01*
X93504Y86251D01*
D02*
G37*
G36*
X40354Y85267D02*
X39740Y85145D01*
X39219Y84797D01*
X38871Y84276D01*
X38749Y83661D01*
X38871Y83047D01*
X39219Y82526D01*
X39740Y82178D01*
X40354Y82056D01*
X40969Y82178D01*
X41490Y82526D01*
X41838Y83047D01*
X41960Y83661D01*
X41838Y84276D01*
X41490Y84797D01*
X40969Y85145D01*
X40354Y85267D01*
D02*
G37*
G36*
X80709Y84283D02*
X80094Y84161D01*
X79573Y83812D01*
X79225Y83292D01*
X79103Y82677D01*
X79225Y82063D01*
X79573Y81542D01*
X80094Y81194D01*
X80709Y81072D01*
X81323Y81194D01*
X81844Y81542D01*
X82192Y82063D01*
X82314Y82677D01*
X82192Y83292D01*
X81844Y83812D01*
X81323Y84161D01*
X80709Y84283D01*
D02*
G37*
G36*
X154528Y52787D02*
X153913Y52665D01*
X153392Y52316D01*
X153044Y51796D01*
X152922Y51181D01*
X153044Y50567D01*
X153392Y50046D01*
X153913Y49698D01*
X154528Y49575D01*
X155142Y49698D01*
X155663Y50046D01*
X156011Y50567D01*
X156133Y51181D01*
X156011Y51796D01*
X155663Y52316D01*
X155142Y52665D01*
X154528Y52787D01*
D02*
G37*
G36*
X137795Y51802D02*
X137181Y51680D01*
X136660Y51332D01*
X136312Y50811D01*
X136190Y50197D01*
X136312Y49582D01*
X136660Y49062D01*
X137181Y48713D01*
X137795Y48591D01*
X138410Y48713D01*
X138931Y49062D01*
X139279Y49582D01*
X139401Y50197D01*
X139279Y50811D01*
X138931Y51332D01*
X138410Y51680D01*
X137795Y51802D01*
D02*
G37*
G36*
X125000Y50818D02*
X124385Y50696D01*
X123865Y50348D01*
X123517Y49827D01*
X123394Y49213D01*
X123517Y48598D01*
X123865Y48077D01*
X124385Y47729D01*
X125000Y47607D01*
X125615Y47729D01*
X126135Y48077D01*
X126483Y48598D01*
X126606Y49213D01*
X126483Y49827D01*
X126135Y50348D01*
X125615Y50696D01*
X125000Y50818D01*
D02*
G37*
G36*
X115157Y56724D02*
X114543Y56602D01*
X114022Y56253D01*
X113674Y55733D01*
X113552Y55118D01*
X113674Y54504D01*
X114022Y53983D01*
X114543Y53635D01*
X115157Y53513D01*
X115772Y53635D01*
X116293Y53983D01*
X116641Y54504D01*
X116763Y55118D01*
X116641Y55733D01*
X116293Y56253D01*
X115772Y56602D01*
X115157Y56724D01*
D02*
G37*
G36*
X93504D02*
X92889Y56602D01*
X92369Y56253D01*
X92020Y55733D01*
X91898Y55118D01*
X92020Y54504D01*
X92369Y53983D01*
X92889Y53635D01*
X93504Y53513D01*
X94118Y53635D01*
X94639Y53983D01*
X94987Y54504D01*
X95110Y55118D01*
X94987Y55733D01*
X94639Y56253D01*
X94118Y56602D01*
X93504Y56724D01*
D02*
G37*
G36*
X76772D02*
X76157Y56602D01*
X75636Y56253D01*
X75288Y55733D01*
X75166Y55118D01*
X75288Y54504D01*
X75636Y53983D01*
X76157Y53635D01*
X76772Y53513D01*
X77386Y53635D01*
X77907Y53983D01*
X78255Y54504D01*
X78377Y55118D01*
X78255Y55733D01*
X77907Y56253D01*
X77386Y56602D01*
X76772Y56724D01*
D02*
G37*
G36*
X115157Y50818D02*
X114543Y50696D01*
X114022Y50348D01*
X113674Y49827D01*
X113552Y49213D01*
X113674Y48598D01*
X114022Y48077D01*
X114543Y47729D01*
X115157Y47607D01*
X115772Y47729D01*
X116293Y48077D01*
X116641Y48598D01*
X116763Y49213D01*
X116641Y49827D01*
X116293Y50348D01*
X115772Y50696D01*
X115157Y50818D01*
D02*
G37*
G36*
X76772D02*
X76157Y50696D01*
X75636Y50348D01*
X75288Y49827D01*
X75166Y49213D01*
X75288Y48598D01*
X75636Y48077D01*
X76157Y47729D01*
X76772Y47607D01*
X77386Y47729D01*
X77907Y48077D01*
X78255Y48598D01*
X78377Y49213D01*
X78255Y49827D01*
X77907Y50348D01*
X77386Y50696D01*
X76772Y50818D01*
D02*
G37*
G36*
X-44291Y49834D02*
X-44906Y49712D01*
X-45427Y49364D01*
X-45775Y48843D01*
X-45897Y48228D01*
X-45775Y47614D01*
X-45427Y47093D01*
X-44906Y46745D01*
X-44291Y46623D01*
X-43677Y46745D01*
X-43156Y47093D01*
X-42808Y47614D01*
X-42686Y48228D01*
X-42808Y48843D01*
X-43156Y49364D01*
X-43677Y49712D01*
X-44291Y49834D01*
D02*
G37*
G36*
X-63976D02*
X-64591Y49712D01*
X-65112Y49364D01*
X-65460Y48843D01*
X-65582Y48228D01*
X-65460Y47614D01*
X-65112Y47093D01*
X-64591Y46745D01*
X-63976Y46623D01*
X-63362Y46745D01*
X-62841Y47093D01*
X-62493Y47614D01*
X-62371Y48228D01*
X-62493Y48843D01*
X-62841Y49364D01*
X-63362Y49712D01*
X-63976Y49834D01*
D02*
G37*
G36*
X111221Y50818D02*
X110606Y50696D01*
X110085Y50348D01*
X109737Y49827D01*
X109615Y49213D01*
X109737Y48598D01*
X110085Y48077D01*
X110606Y47729D01*
X111221Y47607D01*
X111835Y47729D01*
X112356Y48077D01*
X112704Y48598D01*
X112826Y49213D01*
X112704Y49827D01*
X112356Y50348D01*
X111835Y50696D01*
X111221Y50818D01*
D02*
G37*
G36*
X107283D02*
X106669Y50696D01*
X106148Y50348D01*
X105800Y49827D01*
X105678Y49213D01*
X105800Y48598D01*
X106148Y48077D01*
X106669Y47729D01*
X107283Y47607D01*
X107898Y47729D01*
X108419Y48077D01*
X108767Y48598D01*
X108889Y49213D01*
X108767Y49827D01*
X108419Y50348D01*
X107898Y50696D01*
X107283Y50818D01*
D02*
G37*
G36*
X88583D02*
X87968Y50696D01*
X87447Y50348D01*
X87099Y49827D01*
X86977Y49213D01*
X87099Y48598D01*
X87447Y48077D01*
X87968Y47729D01*
X88583Y47607D01*
X89197Y47729D01*
X89718Y48077D01*
X90066Y48598D01*
X90188Y49213D01*
X90066Y49827D01*
X89718Y50348D01*
X89197Y50696D01*
X88583Y50818D01*
D02*
G37*
G36*
X-984Y69820D02*
X-1714Y69675D01*
X-2332Y69262D01*
X-2746Y68643D01*
X-2891Y67913D01*
X-2746Y67184D01*
X-2332Y66565D01*
X-1714Y66152D01*
X-984Y66007D01*
X-255Y66152D01*
X364Y66565D01*
X777Y67184D01*
X922Y67913D01*
X777Y68643D01*
X364Y69262D01*
X-255Y69675D01*
X-984Y69820D01*
D02*
G37*
G36*
X13780Y67550D02*
X13165Y67428D01*
X12644Y67080D01*
X12296Y66559D01*
X12174Y65945D01*
X12296Y65330D01*
X12644Y64810D01*
X13165Y64461D01*
X13780Y64339D01*
X14394Y64461D01*
X14915Y64810D01*
X15263Y65330D01*
X15385Y65945D01*
X15263Y66559D01*
X14915Y67080D01*
X14394Y67428D01*
X13780Y67550D01*
D02*
G37*
G36*
X9843Y67550D02*
X9228Y67428D01*
X8707Y67080D01*
X8359Y66559D01*
X8237Y65945D01*
X8359Y65330D01*
X8707Y64810D01*
X9228Y64461D01*
X9843Y64339D01*
X10457Y64461D01*
X10978Y64810D01*
X11326Y65330D01*
X11448Y65945D01*
X11326Y66559D01*
X10978Y67080D01*
X10457Y67428D01*
X9843Y67550D01*
D02*
G37*
G36*
X93504Y70503D02*
X92889Y70381D01*
X92369Y70033D01*
X92020Y69512D01*
X91898Y68898D01*
X92020Y68283D01*
X92369Y67762D01*
X92889Y67414D01*
X93504Y67292D01*
X94118Y67414D01*
X94639Y67762D01*
X94987Y68283D01*
X95110Y68898D01*
X94987Y69512D01*
X94639Y70033D01*
X94118Y70381D01*
X93504Y70503D01*
D02*
G37*
G36*
X89567D02*
X88952Y70381D01*
X88432Y70033D01*
X88083Y69512D01*
X87961Y68898D01*
X88083Y68283D01*
X88432Y67762D01*
X88952Y67414D01*
X89567Y67292D01*
X90181Y67414D01*
X90702Y67762D01*
X91050Y68283D01*
X91173Y68898D01*
X91050Y69512D01*
X90702Y70033D01*
X90181Y70381D01*
X89567Y70503D01*
D02*
G37*
G36*
X-63976Y69519D02*
X-64591Y69397D01*
X-65112Y69049D01*
X-65460Y68528D01*
X-65582Y67913D01*
X-65460Y67299D01*
X-65112Y66778D01*
X-64591Y66430D01*
X-63976Y66308D01*
X-63362Y66430D01*
X-62841Y66778D01*
X-62493Y67299D01*
X-62371Y67913D01*
X-62493Y68528D01*
X-62841Y69049D01*
X-63362Y69397D01*
X-63976Y69519D01*
D02*
G37*
G36*
X17717Y63613D02*
X17102Y63491D01*
X16581Y63143D01*
X16233Y62622D01*
X16111Y62008D01*
X16233Y61393D01*
X16581Y60873D01*
X17102Y60524D01*
X17717Y60402D01*
X18331Y60524D01*
X18852Y60873D01*
X19200Y61393D01*
X19322Y62008D01*
X19200Y62622D01*
X18852Y63143D01*
X18331Y63491D01*
X17717Y63613D01*
D02*
G37*
G36*
X-54134Y59676D02*
X-54748Y59554D01*
X-55269Y59206D01*
X-55617Y58685D01*
X-55739Y58071D01*
X-55617Y57456D01*
X-55269Y56936D01*
X-54748Y56587D01*
X-54134Y56465D01*
X-53519Y56587D01*
X-52999Y56936D01*
X-52650Y57456D01*
X-52528Y58071D01*
X-52650Y58685D01*
X-52999Y59206D01*
X-53519Y59554D01*
X-54134Y59676D01*
D02*
G37*
G36*
X132874Y56724D02*
X132260Y56602D01*
X131739Y56253D01*
X131391Y55733D01*
X131268Y55118D01*
X131391Y54504D01*
X131739Y53983D01*
X132260Y53635D01*
X132874Y53513D01*
X133489Y53635D01*
X134009Y53983D01*
X134357Y54504D01*
X134480Y55118D01*
X134357Y55733D01*
X134009Y56253D01*
X133489Y56602D01*
X132874Y56724D01*
D02*
G37*
G36*
X125000D02*
X124385Y56602D01*
X123865Y56253D01*
X123517Y55733D01*
X123394Y55118D01*
X123517Y54504D01*
X123865Y53983D01*
X124385Y53635D01*
X125000Y53513D01*
X125615Y53635D01*
X126135Y53983D01*
X126483Y54504D01*
X126606Y55118D01*
X126483Y55733D01*
X126135Y56253D01*
X125615Y56602D01*
X125000Y56724D01*
D02*
G37*
G36*
X13780Y63613D02*
X13165Y63491D01*
X12644Y63143D01*
X12296Y62622D01*
X12174Y62008D01*
X12296Y61393D01*
X12644Y60873D01*
X13165Y60524D01*
X13780Y60402D01*
X14394Y60524D01*
X14915Y60873D01*
X15263Y61393D01*
X15385Y62008D01*
X15263Y62622D01*
X14915Y63143D01*
X14394Y63491D01*
X13780Y63613D01*
D02*
G37*
G36*
X164370Y62629D02*
X163756Y62507D01*
X163235Y62159D01*
X162887Y61638D01*
X162764Y61024D01*
X162887Y60409D01*
X163235Y59888D01*
X163756Y59540D01*
X164370Y59418D01*
X164985Y59540D01*
X165505Y59888D01*
X165854Y60409D01*
X165976Y61024D01*
X165854Y61638D01*
X165505Y62159D01*
X164985Y62507D01*
X164370Y62629D01*
D02*
G37*
G36*
X-34449Y59676D02*
X-35063Y59554D01*
X-35584Y59206D01*
X-35932Y58685D01*
X-36055Y58071D01*
X-35932Y57456D01*
X-35584Y56936D01*
X-35063Y56587D01*
X-34449Y56465D01*
X-33834Y56587D01*
X-33314Y56936D01*
X-32965Y57456D01*
X-32843Y58071D01*
X-32965Y58685D01*
X-33314Y59206D01*
X-33834Y59554D01*
X-34449Y59676D01*
D02*
G37*
G36*
X56102Y92157D02*
X55488Y92035D01*
X54967Y91686D01*
X54619Y91166D01*
X54497Y90551D01*
X54619Y89937D01*
X54967Y89416D01*
X55488Y89068D01*
X56102Y88946D01*
X56717Y89068D01*
X57238Y89416D01*
X57586Y89937D01*
X57708Y90551D01*
X57586Y91166D01*
X57238Y91686D01*
X56717Y92035D01*
X56102Y92157D01*
D02*
G37*
G36*
X164370Y131527D02*
X163756Y131405D01*
X163235Y131057D01*
X162887Y130536D01*
X162764Y129921D01*
X162887Y129307D01*
X163235Y128786D01*
X163756Y128438D01*
X164370Y128316D01*
X164985Y128438D01*
X165505Y128786D01*
X165854Y129307D01*
X165976Y129921D01*
X165854Y130536D01*
X165505Y131057D01*
X164985Y131405D01*
X164370Y131527D01*
D02*
G37*
G36*
X144685D02*
X144071Y131405D01*
X143550Y131057D01*
X143202Y130536D01*
X143079Y129921D01*
X143202Y129307D01*
X143550Y128786D01*
X144071Y128438D01*
X144685Y128316D01*
X145299Y128438D01*
X145820Y128786D01*
X146168Y129307D01*
X146291Y129921D01*
X146168Y130536D01*
X145820Y131057D01*
X145299Y131405D01*
X144685Y131527D01*
D02*
G37*
G36*
X29685Y127094D02*
X28763Y126910D01*
X27982Y126388D01*
X27460Y125607D01*
X27440Y125506D01*
X26930D01*
X26910Y125607D01*
X26388Y126388D01*
X25607Y126910D01*
X24685Y127094D01*
X23763Y126910D01*
X22982Y126388D01*
X22460Y125607D01*
X22440Y125506D01*
X21930D01*
X21910Y125607D01*
X21388Y126388D01*
X20607Y126910D01*
X19685Y127094D01*
X18763Y126910D01*
X17982Y126388D01*
X17460Y125607D01*
X17440Y125506D01*
X16930D01*
X16910Y125607D01*
X16388Y126388D01*
X15607Y126910D01*
X14685Y127094D01*
X13763Y126910D01*
X12982Y126388D01*
X12460Y125607D01*
X12440Y125506D01*
X11930D01*
X11910Y125607D01*
X11388Y126388D01*
X10607Y126910D01*
X9685Y127094D01*
X8763Y126910D01*
X7982Y126388D01*
X7460Y125607D01*
X7277Y124685D01*
X7460Y123763D01*
X7982Y122982D01*
X8763Y122460D01*
X8864Y122440D01*
Y121930D01*
X8763Y121910D01*
X7982Y121388D01*
X7460Y120607D01*
X7277Y119685D01*
X7460Y118763D01*
X7982Y117982D01*
X8763Y117460D01*
X9685Y117277D01*
X10607Y117460D01*
X11388Y117982D01*
X11910Y118763D01*
X11930Y118864D01*
X12440D01*
X12460Y118763D01*
X12982Y117982D01*
X13763Y117460D01*
X14685Y117277D01*
X15607Y117460D01*
X16388Y117982D01*
X16910Y118763D01*
X16930Y118864D01*
X17440D01*
X17460Y118763D01*
X17982Y117982D01*
X18763Y117460D01*
X19685Y117277D01*
X20607Y117460D01*
X21388Y117982D01*
X21910Y118763D01*
X21930Y118864D01*
X22440D01*
X22460Y118763D01*
X22982Y117982D01*
X23763Y117460D01*
X24685Y117277D01*
X25607Y117460D01*
X26388Y117982D01*
X26910Y118763D01*
X26930Y118864D01*
X27440D01*
X27460Y118763D01*
X27982Y117982D01*
X28763Y117460D01*
X29685Y117277D01*
X30607Y117460D01*
X31388Y117982D01*
X31910Y118763D01*
X32094Y119685D01*
X31910Y120607D01*
X31388Y121388D01*
X30607Y121910D01*
X30506Y121930D01*
Y122440D01*
X30607Y122460D01*
X31388Y122982D01*
X31910Y123763D01*
X32094Y124685D01*
X31910Y125607D01*
X31388Y126388D01*
X30607Y126910D01*
X29685Y127094D01*
D02*
G37*
G36*
X-34449Y138417D02*
X-35063Y138294D01*
X-35584Y137946D01*
X-35932Y137425D01*
X-36055Y136811D01*
X-35932Y136197D01*
X-35584Y135676D01*
X-35063Y135328D01*
X-34449Y135205D01*
X-33834Y135328D01*
X-33314Y135676D01*
X-32965Y136197D01*
X-32843Y136811D01*
X-32965Y137425D01*
X-33314Y137946D01*
X-33834Y138294D01*
X-34449Y138417D01*
D02*
G37*
G36*
X-54134D02*
X-54748Y138294D01*
X-55269Y137946D01*
X-55617Y137425D01*
X-55739Y136811D01*
X-55617Y136197D01*
X-55269Y135676D01*
X-54748Y135328D01*
X-54134Y135205D01*
X-53519Y135328D01*
X-52999Y135676D01*
X-52650Y136197D01*
X-52528Y136811D01*
X-52650Y137425D01*
X-52999Y137946D01*
X-53519Y138294D01*
X-54134Y138417D01*
D02*
G37*
G36*
X181102Y137241D02*
X180373Y137096D01*
X179754Y136683D01*
X179341Y136064D01*
X179196Y135335D01*
X179341Y134605D01*
X179754Y133986D01*
X180373Y133573D01*
X181102Y133428D01*
X181832Y133573D01*
X182451Y133986D01*
X182864Y134605D01*
X183009Y135335D01*
X182864Y136064D01*
X182451Y136683D01*
X181832Y137096D01*
X181102Y137241D01*
D02*
G37*
G36*
X-10827Y128574D02*
X-11441Y128452D01*
X-11962Y128104D01*
X-12310Y127583D01*
X-12432Y126969D01*
X-12310Y126354D01*
X-11962Y125833D01*
X-11441Y125485D01*
X-10827Y125363D01*
X-10212Y125485D01*
X-9691Y125833D01*
X-9343Y126354D01*
X-9221Y126969D01*
X-9343Y127583D01*
X-9691Y128104D01*
X-10212Y128452D01*
X-10827Y128574D01*
D02*
G37*
G36*
X123031Y123653D02*
X122417Y123531D01*
X121896Y123183D01*
X121548Y122662D01*
X121426Y122047D01*
X121548Y121433D01*
X121896Y120912D01*
X122417Y120564D01*
X123031Y120442D01*
X123646Y120564D01*
X124167Y120912D01*
X124515Y121433D01*
X124637Y122047D01*
X124515Y122662D01*
X124167Y123183D01*
X123646Y123531D01*
X123031Y123653D01*
D02*
G37*
G36*
X193898Y121684D02*
X193283Y121562D01*
X192762Y121214D01*
X192414Y120693D01*
X192292Y120079D01*
X192414Y119464D01*
X192762Y118943D01*
X193283Y118595D01*
X193898Y118473D01*
X194512Y118595D01*
X195033Y118943D01*
X195381Y119464D01*
X195503Y120079D01*
X195381Y120693D01*
X195033Y121214D01*
X194512Y121562D01*
X193898Y121684D01*
D02*
G37*
G36*
X105315D02*
X104701Y121562D01*
X104180Y121214D01*
X103832Y120693D01*
X103709Y120079D01*
X103832Y119464D01*
X104180Y118943D01*
X104701Y118595D01*
X105315Y118473D01*
X105929Y118595D01*
X106450Y118943D01*
X106798Y119464D01*
X106921Y120079D01*
X106798Y120693D01*
X106450Y121214D01*
X105929Y121562D01*
X105315Y121684D01*
D02*
G37*
G36*
X-44291Y128574D02*
X-44906Y128452D01*
X-45427Y128104D01*
X-45775Y127583D01*
X-45897Y126969D01*
X-45775Y126354D01*
X-45427Y125833D01*
X-44906Y125485D01*
X-44291Y125363D01*
X-43677Y125485D01*
X-43156Y125833D01*
X-42808Y126354D01*
X-42686Y126969D01*
X-42808Y127583D01*
X-43156Y128104D01*
X-43677Y128452D01*
X-44291Y128574D01*
D02*
G37*
G36*
X-63976D02*
X-64591Y128452D01*
X-65112Y128104D01*
X-65460Y127583D01*
X-65582Y126969D01*
X-65460Y126354D01*
X-65112Y125833D01*
X-64591Y125485D01*
X-63976Y125363D01*
X-63362Y125485D01*
X-62841Y125833D01*
X-62493Y126354D01*
X-62371Y126969D01*
X-62493Y127583D01*
X-62841Y128104D01*
X-63362Y128452D01*
X-63976Y128574D01*
D02*
G37*
G36*
X-3937Y126606D02*
X-4552Y126483D01*
X-5072Y126135D01*
X-5420Y125615D01*
X-5543Y125000D01*
X-5420Y124385D01*
X-5072Y123865D01*
X-4552Y123517D01*
X-3937Y123394D01*
X-3322Y123517D01*
X-2802Y123865D01*
X-2454Y124385D01*
X-2331Y125000D01*
X-2454Y125615D01*
X-2802Y126135D01*
X-3322Y126483D01*
X-3937Y126606D01*
D02*
G37*
G36*
X65945Y148259D02*
X65330Y148137D01*
X64810Y147789D01*
X64461Y147268D01*
X64339Y146653D01*
X64461Y146039D01*
X64810Y145518D01*
X65330Y145170D01*
X65945Y145048D01*
X66559Y145170D01*
X67080Y145518D01*
X67428Y146039D01*
X67550Y146653D01*
X67428Y147268D01*
X67080Y147789D01*
X66559Y148137D01*
X65945Y148259D01*
D02*
G37*
G36*
X46260D02*
X45645Y148137D01*
X45125Y147789D01*
X44776Y147268D01*
X44654Y146653D01*
X44776Y146039D01*
X45125Y145518D01*
X45645Y145170D01*
X46260Y145048D01*
X46874Y145170D01*
X47395Y145518D01*
X47743Y146039D01*
X47866Y146653D01*
X47743Y147268D01*
X47395Y147789D01*
X46874Y148137D01*
X46260Y148259D01*
D02*
G37*
G36*
X26575D02*
X25960Y148137D01*
X25439Y147789D01*
X25091Y147268D01*
X24969Y146653D01*
X25091Y146039D01*
X25439Y145518D01*
X25960Y145170D01*
X26575Y145048D01*
X27189Y145170D01*
X27710Y145518D01*
X28058Y146039D01*
X28181Y146653D01*
X28058Y147268D01*
X27710Y147789D01*
X27189Y148137D01*
X26575Y148259D01*
D02*
G37*
G36*
X125000D02*
X124385Y148137D01*
X123865Y147789D01*
X123517Y147268D01*
X123394Y146653D01*
X123517Y146039D01*
X123865Y145518D01*
X124385Y145170D01*
X125000Y145048D01*
X125615Y145170D01*
X126135Y145518D01*
X126483Y146039D01*
X126606Y146653D01*
X126483Y147268D01*
X126135Y147789D01*
X125615Y148137D01*
X125000Y148259D01*
D02*
G37*
G36*
X105315D02*
X104701Y148137D01*
X104180Y147789D01*
X103832Y147268D01*
X103709Y146653D01*
X103832Y146039D01*
X104180Y145518D01*
X104701Y145170D01*
X105315Y145048D01*
X105929Y145170D01*
X106450Y145518D01*
X106798Y146039D01*
X106921Y146653D01*
X106798Y147268D01*
X106450Y147789D01*
X105929Y148137D01*
X105315Y148259D01*
D02*
G37*
G36*
X85630D02*
X85015Y148137D01*
X84495Y147789D01*
X84146Y147268D01*
X84024Y146653D01*
X84146Y146039D01*
X84495Y145518D01*
X85015Y145170D01*
X85630Y145048D01*
X86244Y145170D01*
X86765Y145518D01*
X87113Y146039D01*
X87236Y146653D01*
X87113Y147268D01*
X86765Y147789D01*
X86244Y148137D01*
X85630Y148259D01*
D02*
G37*
G36*
X6890D02*
X6275Y148137D01*
X5754Y147789D01*
X5406Y147268D01*
X5284Y146653D01*
X5406Y146039D01*
X5754Y145518D01*
X6275Y145170D01*
X6890Y145048D01*
X7504Y145170D01*
X8025Y145518D01*
X8373Y146039D01*
X8495Y146653D01*
X8373Y147268D01*
X8025Y147789D01*
X7504Y148137D01*
X6890Y148259D01*
D02*
G37*
G36*
X-63976D02*
X-64591Y148137D01*
X-65112Y147789D01*
X-65460Y147268D01*
X-65582Y146653D01*
X-65460Y146039D01*
X-65112Y145518D01*
X-64591Y145170D01*
X-63976Y145048D01*
X-63362Y145170D01*
X-62841Y145518D01*
X-62493Y146039D01*
X-62371Y146653D01*
X-62493Y147268D01*
X-62841Y147789D01*
X-63362Y148137D01*
X-63976Y148259D01*
D02*
G37*
G36*
X181102Y148068D02*
X180373Y147923D01*
X179754Y147510D01*
X179341Y146891D01*
X179196Y146161D01*
X179341Y145432D01*
X179754Y144813D01*
X180373Y144400D01*
X181102Y144255D01*
X181832Y144400D01*
X182451Y144813D01*
X182864Y145432D01*
X183009Y146161D01*
X182864Y146891D01*
X182451Y147510D01*
X181832Y147923D01*
X181102Y148068D01*
D02*
G37*
G36*
X-14764Y138417D02*
X-15378Y138294D01*
X-15899Y137946D01*
X-16247Y137425D01*
X-16369Y136811D01*
X-16247Y136197D01*
X-15899Y135676D01*
X-15378Y135328D01*
X-14764Y135205D01*
X-14149Y135328D01*
X-13628Y135676D01*
X-13280Y136197D01*
X-13158Y136811D01*
X-13280Y137425D01*
X-13628Y137946D01*
X-14149Y138294D01*
X-14764Y138417D01*
D02*
G37*
G36*
X-12795Y148259D02*
X-13410Y148137D01*
X-13931Y147789D01*
X-14279Y147268D01*
X-14401Y146653D01*
X-14279Y146039D01*
X-13931Y145518D01*
X-13410Y145170D01*
X-12795Y145048D01*
X-12181Y145170D01*
X-11660Y145518D01*
X-11312Y146039D01*
X-11190Y146653D01*
X-11312Y147268D01*
X-11660Y147789D01*
X-12181Y148137D01*
X-12795Y148259D01*
D02*
G37*
G36*
X-32480D02*
X-33095Y148137D01*
X-33616Y147789D01*
X-33964Y147268D01*
X-34086Y146653D01*
X-33964Y146039D01*
X-33616Y145518D01*
X-33095Y145170D01*
X-32480Y145048D01*
X-31866Y145170D01*
X-31345Y145518D01*
X-30997Y146039D01*
X-30875Y146653D01*
X-30997Y147268D01*
X-31345Y147789D01*
X-31866Y148137D01*
X-32480Y148259D01*
D02*
G37*
G36*
X-52165D02*
X-52780Y148137D01*
X-53301Y147789D01*
X-53649Y147268D01*
X-53771Y146653D01*
X-53649Y146039D01*
X-53301Y145518D01*
X-52780Y145170D01*
X-52165Y145048D01*
X-51551Y145170D01*
X-51030Y145518D01*
X-50682Y146039D01*
X-50560Y146653D01*
X-50682Y147268D01*
X-51030Y147789D01*
X-51551Y148137D01*
X-52165Y148259D01*
D02*
G37*
G36*
X25591Y101316D02*
X24861Y101171D01*
X24242Y100758D01*
X23829Y100139D01*
X23684Y99410D01*
X23829Y98680D01*
X24242Y98061D01*
X24861Y97648D01*
X25591Y97503D01*
X26320Y97648D01*
X26939Y98061D01*
X27352Y98680D01*
X27497Y99410D01*
X27352Y100139D01*
X26939Y100758D01*
X26320Y101171D01*
X25591Y101316D01*
D02*
G37*
G36*
X13780D02*
X13050Y101171D01*
X12431Y100758D01*
X12018Y100139D01*
X11873Y99410D01*
X12018Y98680D01*
X12431Y98061D01*
X13050Y97648D01*
X13780Y97503D01*
X14509Y97648D01*
X15128Y98061D01*
X15541Y98680D01*
X15686Y99410D01*
X15541Y100139D01*
X15128Y100758D01*
X14509Y101171D01*
X13780Y101316D01*
D02*
G37*
G36*
X93504Y98062D02*
X92889Y97940D01*
X92369Y97592D01*
X92020Y97071D01*
X91898Y96457D01*
X92020Y95842D01*
X92369Y95321D01*
X92889Y94973D01*
X93504Y94851D01*
X94118Y94973D01*
X94639Y95321D01*
X94987Y95842D01*
X95110Y96457D01*
X94987Y97071D01*
X94639Y97592D01*
X94118Y97940D01*
X93504Y98062D01*
D02*
G37*
G36*
X65945Y101999D02*
X65330Y101877D01*
X64810Y101529D01*
X64461Y101008D01*
X64339Y100394D01*
X64461Y99779D01*
X64810Y99258D01*
X65330Y98910D01*
X65945Y98788D01*
X66559Y98910D01*
X67080Y99258D01*
X67428Y99779D01*
X67550Y100394D01*
X67428Y101008D01*
X67080Y101529D01*
X66559Y101877D01*
X65945Y101999D01*
D02*
G37*
G36*
X46260D02*
X45645Y101877D01*
X45125Y101529D01*
X44776Y101008D01*
X44654Y100394D01*
X44776Y99779D01*
X45125Y99258D01*
X45645Y98910D01*
X46260Y98788D01*
X46874Y98910D01*
X47395Y99258D01*
X47743Y99779D01*
X47866Y100394D01*
X47743Y101008D01*
X47395Y101529D01*
X46874Y101877D01*
X46260Y101999D01*
D02*
G37*
G36*
X107283Y102300D02*
X106554Y102155D01*
X105935Y101742D01*
X105522Y101123D01*
X105377Y100394D01*
X105522Y99664D01*
X105935Y99045D01*
X106554Y98632D01*
X107283Y98487D01*
X108013Y98632D01*
X108632Y99045D01*
X109045Y99664D01*
X109190Y100394D01*
X109045Y101123D01*
X108632Y101742D01*
X108013Y102155D01*
X107283Y102300D01*
D02*
G37*
G36*
X-8858Y96094D02*
X-9473Y95972D01*
X-9994Y95624D01*
X-10342Y95103D01*
X-10464Y94488D01*
X-10342Y93874D01*
X-9994Y93353D01*
X-9473Y93005D01*
X-8858Y92883D01*
X-8244Y93005D01*
X-7723Y93353D01*
X-7375Y93874D01*
X-7253Y94488D01*
X-7375Y95103D01*
X-7723Y95624D01*
X-8244Y95972D01*
X-8858Y96094D01*
D02*
G37*
G36*
X154528Y92157D02*
X153913Y92035D01*
X153392Y91686D01*
X153044Y91166D01*
X152922Y90551D01*
X153044Y89937D01*
X153392Y89416D01*
X153913Y89068D01*
X154528Y88946D01*
X155142Y89068D01*
X155663Y89416D01*
X156011Y89937D01*
X156133Y90551D01*
X156011Y91166D01*
X155663Y91686D01*
X155142Y92035D01*
X154528Y92157D01*
D02*
G37*
G36*
X134843D02*
X134228Y92035D01*
X133707Y91686D01*
X133359Y91166D01*
X133237Y90551D01*
X133359Y89937D01*
X133707Y89416D01*
X134228Y89068D01*
X134843Y88946D01*
X135457Y89068D01*
X135978Y89416D01*
X136326Y89937D01*
X136448Y90551D01*
X136326Y91166D01*
X135978Y91686D01*
X135457Y92035D01*
X134843Y92157D01*
D02*
G37*
G36*
X115157D02*
X114543Y92035D01*
X114022Y91686D01*
X113674Y91166D01*
X113552Y90551D01*
X113674Y89937D01*
X114022Y89416D01*
X114543Y89068D01*
X115157Y88946D01*
X115772Y89068D01*
X116293Y89416D01*
X116641Y89937D01*
X116763Y90551D01*
X116641Y91166D01*
X116293Y91686D01*
X115772Y92035D01*
X115157Y92157D01*
D02*
G37*
G36*
X93504Y94125D02*
X92889Y94003D01*
X92369Y93655D01*
X92020Y93134D01*
X91898Y92520D01*
X92020Y91905D01*
X92369Y91384D01*
X92889Y91036D01*
X93504Y90914D01*
X94118Y91036D01*
X94639Y91384D01*
X94987Y91905D01*
X95110Y92520D01*
X94987Y93134D01*
X94639Y93655D01*
X94118Y94003D01*
X93504Y94125D01*
D02*
G37*
G36*
X10827Y93141D02*
X10212Y93019D01*
X9691Y92671D01*
X9343Y92150D01*
X9221Y91535D01*
X9343Y90921D01*
X9691Y90400D01*
X10212Y90052D01*
X10827Y89930D01*
X11441Y90052D01*
X11962Y90400D01*
X12310Y90921D01*
X12432Y91535D01*
X12310Y92150D01*
X11962Y92671D01*
X11441Y93019D01*
X10827Y93141D01*
D02*
G37*
G36*
X-5906D02*
X-6520Y93019D01*
X-7041Y92671D01*
X-7389Y92150D01*
X-7511Y91535D01*
X-7389Y90921D01*
X-7041Y90400D01*
X-6520Y90052D01*
X-5906Y89930D01*
X-5291Y90052D01*
X-4770Y90400D01*
X-4422Y90921D01*
X-4300Y91535D01*
X-4422Y92150D01*
X-4770Y92671D01*
X-5291Y93019D01*
X-5906Y93141D01*
D02*
G37*
G36*
X134843Y111842D02*
X134228Y111720D01*
X133707Y111372D01*
X133359Y110851D01*
X133237Y110236D01*
X133359Y109622D01*
X133707Y109101D01*
X134228Y108753D01*
X134843Y108631D01*
X135457Y108753D01*
X135978Y109101D01*
X136326Y109622D01*
X136448Y110236D01*
X136326Y110851D01*
X135978Y111372D01*
X135457Y111720D01*
X134843Y111842D01*
D02*
G37*
G36*
X95472D02*
X94858Y111720D01*
X94337Y111372D01*
X93989Y110851D01*
X93867Y110236D01*
X93989Y109622D01*
X94337Y109101D01*
X94858Y108753D01*
X95472Y108631D01*
X96087Y108753D01*
X96608Y109101D01*
X96956Y109622D01*
X97078Y110236D01*
X96956Y110851D01*
X96608Y111372D01*
X96087Y111720D01*
X95472Y111842D01*
D02*
G37*
G36*
X36417D02*
X35803Y111720D01*
X35282Y111372D01*
X34934Y110851D01*
X34812Y110236D01*
X34934Y109622D01*
X35282Y109101D01*
X35803Y108753D01*
X36417Y108631D01*
X37032Y108753D01*
X37553Y109101D01*
X37901Y109622D01*
X38023Y110236D01*
X37901Y110851D01*
X37553Y111372D01*
X37032Y111720D01*
X36417Y111842D01*
D02*
G37*
G36*
X46260Y121684D02*
X45645Y121562D01*
X45125Y121214D01*
X44776Y120693D01*
X44654Y120079D01*
X44776Y119464D01*
X45125Y118943D01*
X45645Y118595D01*
X46260Y118473D01*
X46874Y118595D01*
X47395Y118943D01*
X47743Y119464D01*
X47866Y120079D01*
X47743Y120693D01*
X47395Y121214D01*
X46874Y121562D01*
X46260Y121684D01*
D02*
G37*
G36*
X-54134Y118732D02*
X-54748Y118609D01*
X-55269Y118261D01*
X-55617Y117740D01*
X-55739Y117126D01*
X-55617Y116511D01*
X-55269Y115991D01*
X-54748Y115643D01*
X-54134Y115520D01*
X-53519Y115643D01*
X-52999Y115991D01*
X-52650Y116511D01*
X-52528Y117126D01*
X-52650Y117740D01*
X-52999Y118261D01*
X-53519Y118609D01*
X-54134Y118732D01*
D02*
G37*
G36*
X154528Y111842D02*
X153913Y111720D01*
X153392Y111372D01*
X153044Y110851D01*
X152922Y110236D01*
X153044Y109622D01*
X153392Y109101D01*
X153913Y108753D01*
X154528Y108631D01*
X155142Y108753D01*
X155663Y109101D01*
X156011Y109622D01*
X156133Y110236D01*
X156011Y110851D01*
X155663Y111372D01*
X155142Y111720D01*
X154528Y111842D01*
D02*
G37*
G36*
X-44291Y108889D02*
X-44906Y108767D01*
X-45427Y108419D01*
X-45775Y107898D01*
X-45897Y107283D01*
X-45775Y106669D01*
X-45427Y106148D01*
X-44906Y105800D01*
X-44291Y105678D01*
X-43677Y105800D01*
X-43156Y106148D01*
X-42808Y106669D01*
X-42686Y107283D01*
X-42808Y107898D01*
X-43156Y108419D01*
X-43677Y108767D01*
X-44291Y108889D01*
D02*
G37*
G36*
X144685Y101999D02*
X144071Y101877D01*
X143550Y101529D01*
X143202Y101008D01*
X143079Y100394D01*
X143202Y99779D01*
X143550Y99258D01*
X144071Y98910D01*
X144685Y98788D01*
X145299Y98910D01*
X145820Y99258D01*
X146168Y99779D01*
X146291Y100394D01*
X146168Y101008D01*
X145820Y101529D01*
X145299Y101877D01*
X144685Y101999D01*
D02*
G37*
G36*
X125000D02*
X124385Y101877D01*
X123865Y101529D01*
X123517Y101008D01*
X123394Y100394D01*
X123517Y99779D01*
X123865Y99258D01*
X124385Y98910D01*
X125000Y98788D01*
X125615Y98910D01*
X126135Y99258D01*
X126483Y99779D01*
X126606Y100394D01*
X126483Y101008D01*
X126135Y101529D01*
X125615Y101877D01*
X125000Y101999D01*
D02*
G37*
G36*
X85630D02*
X85015Y101877D01*
X84495Y101529D01*
X84146Y101008D01*
X84024Y100394D01*
X84146Y99779D01*
X84495Y99258D01*
X85015Y98910D01*
X85630Y98788D01*
X86244Y98910D01*
X86765Y99258D01*
X87113Y99779D01*
X87236Y100394D01*
X87113Y101008D01*
X86765Y101529D01*
X86244Y101877D01*
X85630Y101999D01*
D02*
G37*
G36*
X-63976Y108889D02*
X-64591Y108767D01*
X-65112Y108419D01*
X-65460Y107898D01*
X-65582Y107283D01*
X-65460Y106669D01*
X-65112Y106148D01*
X-64591Y105800D01*
X-63976Y105678D01*
X-63362Y105800D01*
X-62841Y106148D01*
X-62493Y106669D01*
X-62371Y107283D01*
X-62493Y107898D01*
X-62841Y108419D01*
X-63362Y108767D01*
X-63976Y108889D01*
D02*
G37*
G36*
X21654Y108206D02*
X20924Y108061D01*
X20305Y107648D01*
X19892Y107029D01*
X19747Y106299D01*
X19892Y105570D01*
X20305Y104951D01*
X20924Y104538D01*
X21654Y104393D01*
X22383Y104538D01*
X23002Y104951D01*
X23415Y105570D01*
X23560Y106299D01*
X23415Y107029D01*
X23002Y107648D01*
X22383Y108061D01*
X21654Y108206D01*
D02*
G37*
G36*
X164370Y101999D02*
X163756Y101877D01*
X163235Y101529D01*
X162887Y101008D01*
X162764Y100394D01*
X162887Y99779D01*
X163235Y99258D01*
X163756Y98910D01*
X164370Y98788D01*
X164985Y98910D01*
X165505Y99258D01*
X165854Y99779D01*
X165976Y100394D01*
X165854Y101008D01*
X165505Y101529D01*
X164985Y101877D01*
X164370Y101999D01*
D02*
G37*
G36*
X133858Y47866D02*
X133244Y47743D01*
X132723Y47395D01*
X132375Y46874D01*
X132253Y46260D01*
X132375Y45645D01*
X132723Y45125D01*
X133244Y44776D01*
X133858Y44654D01*
X134473Y44776D01*
X134994Y45125D01*
X135342Y45645D01*
X135464Y46260D01*
X135342Y46874D01*
X134994Y47395D01*
X134473Y47743D01*
X133858Y47866D01*
D02*
G37*
G36*
X-65945Y5543D02*
X-66559Y5420D01*
X-67080Y5072D01*
X-67428Y4552D01*
X-67550Y3937D01*
X-67428Y3322D01*
X-67080Y2802D01*
X-66559Y2454D01*
X-65945Y2331D01*
X-65330Y2454D01*
X-64810Y2802D01*
X-64461Y3322D01*
X-64339Y3937D01*
X-64461Y4552D01*
X-64810Y5072D01*
X-65330Y5420D01*
X-65945Y5543D01*
D02*
G37*
G36*
X-89567Y5844D02*
X-90297Y5699D01*
X-90915Y5285D01*
X-91329Y4667D01*
X-91474Y3937D01*
X-91329Y3207D01*
X-90915Y2589D01*
X-90297Y2175D01*
X-89567Y2030D01*
X-88837Y2175D01*
X-88219Y2589D01*
X-87805Y3207D01*
X-87660Y3937D01*
X-87805Y4667D01*
X-88219Y5285D01*
X-88837Y5699D01*
X-89567Y5844D01*
D02*
G37*
G36*
X-104331Y4558D02*
X-104945Y4436D01*
X-105466Y4088D01*
X-105814Y3567D01*
X-105936Y2953D01*
X-105814Y2338D01*
X-105466Y1817D01*
X-104945Y1469D01*
X-104331Y1347D01*
X-103716Y1469D01*
X-103195Y1817D01*
X-102847Y2338D01*
X-102725Y2953D01*
X-102847Y3567D01*
X-103195Y4088D01*
X-103716Y4436D01*
X-104331Y4558D01*
D02*
G37*
G36*
X32480Y6527D02*
X31866Y6405D01*
X31345Y6057D01*
X30997Y5536D01*
X30875Y4921D01*
X30997Y4307D01*
X31345Y3786D01*
X31866Y3438D01*
X32480Y3316D01*
X33095Y3438D01*
X33616Y3786D01*
X33964Y4307D01*
X34086Y4921D01*
X33964Y5536D01*
X33616Y6057D01*
X33095Y6405D01*
X32480Y6527D01*
D02*
G37*
G36*
X-58071Y5543D02*
X-58685Y5420D01*
X-59206Y5072D01*
X-59554Y4552D01*
X-59676Y3937D01*
X-59554Y3322D01*
X-59206Y2802D01*
X-58685Y2454D01*
X-58071Y2331D01*
X-57456Y2454D01*
X-56936Y2802D01*
X-56587Y3322D01*
X-56465Y3937D01*
X-56587Y4552D01*
X-56936Y5072D01*
X-57456Y5420D01*
X-58071Y5543D01*
D02*
G37*
G36*
X-62008D02*
X-62622Y5420D01*
X-63143Y5072D01*
X-63491Y4552D01*
X-63613Y3937D01*
X-63491Y3322D01*
X-63143Y2802D01*
X-62622Y2454D01*
X-62008Y2331D01*
X-61393Y2454D01*
X-60873Y2802D01*
X-60524Y3322D01*
X-60402Y3937D01*
X-60524Y4552D01*
X-60873Y5072D01*
X-61393Y5420D01*
X-62008Y5543D01*
D02*
G37*
G36*
X-151575Y4860D02*
X-152304Y4714D01*
X-152923Y4301D01*
X-153336Y3682D01*
X-153481Y2953D01*
X-153336Y2223D01*
X-152923Y1605D01*
X-152304Y1191D01*
X-151575Y1046D01*
X-150845Y1191D01*
X-150227Y1605D01*
X-149813Y2223D01*
X-149724Y2672D01*
X-149711Y2739D01*
X-149201D01*
X-149188Y2672D01*
X-149121Y2338D01*
X-148773Y1817D01*
X-148252Y1469D01*
X-147638Y1347D01*
X-147023Y1469D01*
X-146502Y1817D01*
X-146154Y2338D01*
X-146032Y2953D01*
X-146154Y3567D01*
X-146502Y4088D01*
X-147023Y4436D01*
X-147638Y4558D01*
X-148252Y4436D01*
X-148773Y4088D01*
X-149121Y3567D01*
X-149188Y3233D01*
X-149201Y3167D01*
X-149711D01*
X-149724Y3233D01*
X-149813Y3682D01*
X-150227Y4301D01*
X-150845Y4714D01*
X-151575Y4860D01*
D02*
G37*
G36*
X75787Y3574D02*
X75173Y3452D01*
X74652Y3104D01*
X74304Y2583D01*
X74182Y1969D01*
X74304Y1354D01*
X74652Y833D01*
X75173Y485D01*
X75787Y363D01*
X76402Y485D01*
X76923Y833D01*
X77271Y1354D01*
X77393Y1969D01*
X77271Y2583D01*
X76923Y3104D01*
X76402Y3452D01*
X75787Y3574D01*
D02*
G37*
G36*
X6890Y2590D02*
X6275Y2468D01*
X5754Y2120D01*
X5406Y1599D01*
X5284Y984D01*
X5406Y370D01*
X5754Y-151D01*
X6275Y-499D01*
X6890Y-621D01*
X7504Y-499D01*
X8025Y-151D01*
X8373Y370D01*
X8495Y984D01*
X8373Y1599D01*
X8025Y2120D01*
X7504Y2468D01*
X6890Y2590D01*
D02*
G37*
G36*
X2953D02*
X2338Y2468D01*
X1817Y2120D01*
X1469Y1599D01*
X1347Y984D01*
X1469Y370D01*
X1817Y-151D01*
X2338Y-499D01*
X2953Y-621D01*
X3567Y-499D01*
X4088Y-151D01*
X4436Y370D01*
X4558Y984D01*
X4436Y1599D01*
X4088Y2120D01*
X3567Y2468D01*
X2953Y2590D01*
D02*
G37*
G36*
X164370Y3574D02*
X163756Y3452D01*
X163235Y3104D01*
X162887Y2583D01*
X162764Y1969D01*
X162887Y1354D01*
X163235Y833D01*
X163756Y485D01*
X164370Y363D01*
X164985Y485D01*
X165505Y833D01*
X165854Y1354D01*
X165976Y1969D01*
X165854Y2583D01*
X165505Y3104D01*
X164985Y3452D01*
X164370Y3574D01*
D02*
G37*
G36*
X139764D02*
X139149Y3452D01*
X138628Y3104D01*
X138280Y2583D01*
X138158Y1969D01*
X138280Y1354D01*
X138628Y833D01*
X139149Y485D01*
X139764Y363D01*
X140378Y485D01*
X140899Y833D01*
X141247Y1354D01*
X141369Y1969D01*
X141247Y2583D01*
X140899Y3104D01*
X140378Y3452D01*
X139764Y3574D01*
D02*
G37*
G36*
X125000D02*
X124385Y3452D01*
X123865Y3104D01*
X123517Y2583D01*
X123394Y1969D01*
X123517Y1354D01*
X123865Y833D01*
X124385Y485D01*
X125000Y363D01*
X125615Y485D01*
X126135Y833D01*
X126483Y1354D01*
X126606Y1969D01*
X126483Y2583D01*
X126135Y3104D01*
X125615Y3452D01*
X125000Y3574D01*
D02*
G37*
G36*
X56102Y14893D02*
X55488Y14771D01*
X54967Y14423D01*
X54619Y13902D01*
X54497Y13287D01*
X54619Y12673D01*
X54967Y12152D01*
X55488Y11804D01*
X56102Y11682D01*
X56717Y11804D01*
X57238Y12152D01*
X57586Y12673D01*
X57708Y13287D01*
X57586Y13902D01*
X57238Y14423D01*
X56717Y14771D01*
X56102Y14893D01*
D02*
G37*
G36*
X38386Y13417D02*
X37771Y13295D01*
X37251Y12946D01*
X36902Y12426D01*
X36780Y11811D01*
X36902Y11197D01*
X37251Y10676D01*
X37771Y10328D01*
X38386Y10205D01*
X39000Y10328D01*
X39521Y10676D01*
X39869Y11197D01*
X39992Y11811D01*
X39869Y12426D01*
X39521Y12946D01*
X39000Y13295D01*
X38386Y13417D01*
D02*
G37*
G36*
X154528Y13417D02*
X153913Y13295D01*
X153392Y12946D01*
X153044Y12426D01*
X152922Y11811D01*
X153044Y11197D01*
X153392Y10676D01*
X153913Y10328D01*
X154528Y10205D01*
X155142Y10328D01*
X155663Y10676D01*
X156011Y11197D01*
X156133Y11811D01*
X156011Y12426D01*
X155663Y12946D01*
X155142Y13295D01*
X154528Y13417D01*
D02*
G37*
G36*
X-74803Y17354D02*
X-75418Y17232D01*
X-75938Y16883D01*
X-76287Y16363D01*
X-76409Y15748D01*
X-76287Y15134D01*
X-75938Y14613D01*
X-75418Y14265D01*
X-74803Y14142D01*
X-74189Y14265D01*
X-73668Y14613D01*
X-73320Y15134D01*
X-73198Y15748D01*
X-73320Y16363D01*
X-73668Y16883D01*
X-74189Y17232D01*
X-74803Y17354D01*
D02*
G37*
G36*
X-163386D02*
X-164000Y17232D01*
X-164521Y16883D01*
X-164869Y16363D01*
X-164991Y15748D01*
X-164869Y15134D01*
X-164521Y14613D01*
X-164000Y14265D01*
X-163386Y14142D01*
X-162771Y14265D01*
X-162250Y14613D01*
X-161902Y15134D01*
X-161780Y15748D01*
X-161902Y16363D01*
X-162250Y16883D01*
X-162771Y17232D01*
X-163386Y17354D01*
D02*
G37*
G36*
X-183071D02*
X-183685Y17232D01*
X-184206Y16883D01*
X-184554Y16363D01*
X-184677Y15748D01*
X-184554Y15134D01*
X-184206Y14613D01*
X-183685Y14265D01*
X-183071Y14142D01*
X-182456Y14265D01*
X-181936Y14613D01*
X-181587Y15134D01*
X-181465Y15748D01*
X-181587Y16363D01*
X-181936Y16883D01*
X-182456Y17232D01*
X-183071Y17354D01*
D02*
G37*
G36*
X139764Y13417D02*
X139149Y13295D01*
X138628Y12946D01*
X138280Y12426D01*
X138158Y11811D01*
X138280Y11197D01*
X138628Y10676D01*
X139149Y10328D01*
X139764Y10205D01*
X140378Y10328D01*
X140899Y10676D01*
X141247Y11197D01*
X141369Y11811D01*
X141247Y12426D01*
X140899Y12946D01*
X140378Y13295D01*
X139764Y13417D01*
D02*
G37*
G36*
X133858Y8495D02*
X133244Y8373D01*
X132723Y8025D01*
X132375Y7504D01*
X132253Y6890D01*
X132375Y6275D01*
X132723Y5754D01*
X133244Y5406D01*
X133858Y5284D01*
X134473Y5406D01*
X134994Y5754D01*
X135342Y6275D01*
X135464Y6890D01*
X135342Y7504D01*
X134994Y8025D01*
X134473Y8373D01*
X133858Y8495D01*
D02*
G37*
G36*
X-173228Y7511D02*
X-173843Y7389D01*
X-174364Y7041D01*
X-174712Y6520D01*
X-174834Y5906D01*
X-174712Y5291D01*
X-174364Y4770D01*
X-173843Y4422D01*
X-173228Y4300D01*
X-172614Y4422D01*
X-172093Y4770D01*
X-171745Y5291D01*
X-171623Y5906D01*
X-171745Y6520D01*
X-172093Y7041D01*
X-172614Y7389D01*
X-173228Y7511D01*
D02*
G37*
G36*
X-192913D02*
X-193528Y7389D01*
X-194049Y7041D01*
X-194397Y6520D01*
X-194519Y5906D01*
X-194397Y5291D01*
X-194049Y4770D01*
X-193528Y4422D01*
X-192913Y4300D01*
X-192299Y4422D01*
X-191778Y4770D01*
X-191430Y5291D01*
X-191308Y5906D01*
X-191430Y6520D01*
X-191778Y7041D01*
X-192299Y7389D01*
X-192913Y7511D01*
D02*
G37*
G36*
X115157Y13417D02*
X114543Y13295D01*
X114022Y12946D01*
X113674Y12426D01*
X113552Y11811D01*
X113674Y11197D01*
X114022Y10676D01*
X114543Y10328D01*
X115157Y10205D01*
X115772Y10328D01*
X116293Y10676D01*
X116641Y11197D01*
X116763Y11811D01*
X116641Y12426D01*
X116293Y12946D01*
X115772Y13295D01*
X115157Y13417D01*
D02*
G37*
G36*
X35433Y9480D02*
X34819Y9358D01*
X34298Y9009D01*
X33950Y8489D01*
X33827Y7874D01*
X33950Y7260D01*
X34298Y6739D01*
X34819Y6391D01*
X35433Y6268D01*
X36048Y6391D01*
X36568Y6739D01*
X36917Y7260D01*
X37039Y7874D01*
X36917Y8489D01*
X36568Y9009D01*
X36048Y9358D01*
X35433Y9480D01*
D02*
G37*
G36*
X-72835D02*
X-73449Y9358D01*
X-73970Y9009D01*
X-74318Y8489D01*
X-74440Y7874D01*
X-74318Y7260D01*
X-73970Y6739D01*
X-73449Y6391D01*
X-72835Y6268D01*
X-72220Y6391D01*
X-71699Y6739D01*
X-71351Y7260D01*
X-71229Y7874D01*
X-71351Y8489D01*
X-71699Y9009D01*
X-72220Y9358D01*
X-72835Y9480D01*
D02*
G37*
G36*
X-163386Y-2331D02*
X-164000Y-2454D01*
X-164521Y-2802D01*
X-164869Y-3322D01*
X-164991Y-3937D01*
X-164869Y-4552D01*
X-164521Y-5072D01*
X-164000Y-5420D01*
X-163386Y-5543D01*
X-162771Y-5420D01*
X-162250Y-5072D01*
X-161902Y-4552D01*
X-161780Y-3937D01*
X-161902Y-3322D01*
X-162250Y-2802D01*
X-162771Y-2454D01*
X-163386Y-2331D01*
D02*
G37*
G36*
X-183071D02*
X-183685Y-2454D01*
X-184206Y-2802D01*
X-184554Y-3322D01*
X-184677Y-3937D01*
X-184554Y-4552D01*
X-184206Y-5072D01*
X-183685Y-5420D01*
X-183071Y-5543D01*
X-182456Y-5420D01*
X-181936Y-5072D01*
X-181587Y-4552D01*
X-181465Y-3937D01*
X-181587Y-3322D01*
X-181936Y-2802D01*
X-182456Y-2454D01*
X-183071Y-2331D01*
D02*
G37*
G36*
X-123032Y-3316D02*
X-123646Y-3438D01*
X-124167Y-3786D01*
X-124515Y-4307D01*
X-124637Y-4921D01*
X-124515Y-5536D01*
X-124167Y-6057D01*
X-123646Y-6405D01*
X-123032Y-6527D01*
X-122417Y-6405D01*
X-121896Y-6057D01*
X-121548Y-5536D01*
X-121426Y-4921D01*
X-121548Y-4307D01*
X-121896Y-3786D01*
X-122417Y-3438D01*
X-123032Y-3316D01*
D02*
G37*
G36*
X60039Y-1046D02*
X59310Y-1191D01*
X58691Y-1605D01*
X58278Y-2223D01*
X58133Y-2953D01*
X58278Y-3682D01*
X58691Y-4301D01*
X59310Y-4714D01*
X60039Y-4859D01*
X60769Y-4714D01*
X61388Y-4301D01*
X61801Y-3682D01*
X61946Y-2953D01*
X61801Y-2223D01*
X61388Y-1605D01*
X60769Y-1191D01*
X60039Y-1046D01*
D02*
G37*
G36*
X-50197Y-2331D02*
X-50811Y-2454D01*
X-51332Y-2802D01*
X-51680Y-3322D01*
X-51802Y-3937D01*
X-51680Y-4552D01*
X-51332Y-5072D01*
X-50811Y-5420D01*
X-50197Y-5543D01*
X-49582Y-5420D01*
X-49062Y-5072D01*
X-48713Y-4552D01*
X-48591Y-3937D01*
X-48713Y-3322D01*
X-49062Y-2802D01*
X-49582Y-2454D01*
X-50197Y-2331D01*
D02*
G37*
G36*
X-54134D02*
X-54748Y-2454D01*
X-55269Y-2802D01*
X-55617Y-3322D01*
X-55739Y-3937D01*
X-55617Y-4552D01*
X-55269Y-5072D01*
X-54748Y-5420D01*
X-54134Y-5543D01*
X-53519Y-5420D01*
X-52999Y-5072D01*
X-52650Y-4552D01*
X-52528Y-3937D01*
X-52650Y-3322D01*
X-52999Y-2802D01*
X-53519Y-2454D01*
X-54134Y-2331D01*
D02*
G37*
G36*
X-128937Y-3316D02*
X-129552Y-3438D01*
X-130072Y-3786D01*
X-130420Y-4307D01*
X-130543Y-4921D01*
X-130420Y-5536D01*
X-130072Y-6057D01*
X-129552Y-6405D01*
X-128937Y-6527D01*
X-128323Y-6405D01*
X-127802Y-6057D01*
X-127454Y-5536D01*
X-127331Y-4921D01*
X-127454Y-4307D01*
X-127802Y-3786D01*
X-128323Y-3438D01*
X-128937Y-3316D01*
D02*
G37*
G36*
X-117126Y-5284D02*
X-117740Y-5406D01*
X-118261Y-5754D01*
X-118609Y-6275D01*
X-118732Y-6890D01*
X-118609Y-7504D01*
X-118261Y-8025D01*
X-117740Y-8373D01*
X-117126Y-8495D01*
X-116512Y-8373D01*
X-115991Y-8025D01*
X-115643Y-7504D01*
X-115520Y-6890D01*
X-115643Y-6275D01*
X-115991Y-5754D01*
X-116512Y-5406D01*
X-117126Y-5284D01*
D02*
G37*
G36*
X-134843D02*
X-135457Y-5406D01*
X-135978Y-5754D01*
X-136326Y-6275D01*
X-136448Y-6890D01*
X-136326Y-7504D01*
X-135978Y-8025D01*
X-135457Y-8373D01*
X-134843Y-8495D01*
X-134228Y-8373D01*
X-133707Y-8025D01*
X-133359Y-7504D01*
X-133237Y-6890D01*
X-133359Y-6275D01*
X-133707Y-5754D01*
X-134228Y-5406D01*
X-134843Y-5284D01*
D02*
G37*
G36*
X-100394Y-6951D02*
X-101123Y-7097D01*
X-101742Y-7510D01*
X-102155Y-8129D01*
X-102245Y-8578D01*
X-102258Y-8644D01*
X-102768D01*
X-102781Y-8578D01*
X-102847Y-8244D01*
X-103195Y-7723D01*
X-103716Y-7375D01*
X-104331Y-7253D01*
X-104945Y-7375D01*
X-105466Y-7723D01*
X-105814Y-8244D01*
X-105936Y-8858D01*
X-105814Y-9473D01*
X-105466Y-9994D01*
X-104945Y-10342D01*
X-104331Y-10464D01*
X-103716Y-10342D01*
X-103195Y-9994D01*
X-102847Y-9473D01*
X-102781Y-9139D01*
X-102768Y-9072D01*
X-102258D01*
X-102245Y-9139D01*
X-102155Y-9588D01*
X-101742Y-10206D01*
X-101123Y-10620D01*
X-100394Y-10765D01*
X-99664Y-10620D01*
X-99045Y-10206D01*
X-98632Y-9588D01*
X-98487Y-8858D01*
X-98632Y-8129D01*
X-99045Y-7510D01*
X-99664Y-7097D01*
X-100394Y-6951D01*
D02*
G37*
G36*
X-113189Y-3999D02*
X-113919Y-4144D01*
X-114537Y-4557D01*
X-114951Y-5176D01*
X-115096Y-5906D01*
X-114951Y-6635D01*
X-114537Y-7254D01*
X-113919Y-7667D01*
X-113189Y-7812D01*
X-112459Y-7667D01*
X-111841Y-7254D01*
X-111427Y-6635D01*
X-111282Y-5906D01*
X-111427Y-5176D01*
X-111841Y-4557D01*
X-112459Y-4144D01*
X-113189Y-3999D01*
D02*
G37*
G36*
X-138779D02*
X-139509Y-4144D01*
X-140128Y-4557D01*
X-140541Y-5176D01*
X-140686Y-5906D01*
X-140541Y-6635D01*
X-140128Y-7254D01*
X-139509Y-7667D01*
X-138779Y-7812D01*
X-138050Y-7667D01*
X-137431Y-7254D01*
X-137018Y-6635D01*
X-136873Y-5906D01*
X-137018Y-5176D01*
X-137431Y-4557D01*
X-138050Y-4144D01*
X-138779Y-3999D01*
D02*
G37*
G36*
X46260Y-5284D02*
X45645Y-5406D01*
X45125Y-5754D01*
X44776Y-6275D01*
X44654Y-6890D01*
X44776Y-7504D01*
X45125Y-8025D01*
X45645Y-8373D01*
X46260Y-8495D01*
X46874Y-8373D01*
X47395Y-8025D01*
X47743Y-7504D01*
X47866Y-6890D01*
X47743Y-6275D01*
X47395Y-5754D01*
X46874Y-5406D01*
X46260Y-5284D01*
D02*
G37*
G36*
X37402Y1606D02*
X36787Y1483D01*
X36266Y1135D01*
X35918Y614D01*
X35796Y0D01*
X35918Y-614D01*
X36266Y-1135D01*
X36787Y-1483D01*
X37402Y-1606D01*
X38016Y-1483D01*
X38537Y-1135D01*
X38885Y-614D01*
X39007Y0D01*
X38885Y614D01*
X38537Y1135D01*
X38016Y1483D01*
X37402Y1606D01*
D02*
G37*
G36*
X-54134D02*
X-54748Y1483D01*
X-55269Y1135D01*
X-55617Y614D01*
X-55739Y0D01*
X-55617Y-614D01*
X-55269Y-1135D01*
X-54748Y-1483D01*
X-54134Y-1606D01*
X-53519Y-1483D01*
X-52999Y-1135D01*
X-52650Y-614D01*
X-52528Y0D01*
X-52650Y614D01*
X-52999Y1135D01*
X-53519Y1483D01*
X-54134Y1606D01*
D02*
G37*
G36*
X-58071D02*
X-58685Y1483D01*
X-59206Y1135D01*
X-59554Y614D01*
X-59676Y0D01*
X-59554Y-614D01*
X-59206Y-1135D01*
X-58685Y-1483D01*
X-58071Y-1606D01*
X-57456Y-1483D01*
X-56936Y-1135D01*
X-56587Y-614D01*
X-56465Y0D01*
X-56587Y614D01*
X-56936Y1135D01*
X-57456Y1483D01*
X-58071Y1606D01*
D02*
G37*
G36*
X-984Y2590D02*
X-1599Y2468D01*
X-2120Y2120D01*
X-2468Y1599D01*
X-2590Y984D01*
X-2468Y370D01*
X-2120Y-151D01*
X-1599Y-499D01*
X-984Y-621D01*
X-370Y-499D01*
X151Y-151D01*
X499Y370D01*
X621Y984D01*
X499Y1599D01*
X151Y2120D01*
X-370Y2468D01*
X-984Y2590D01*
D02*
G37*
G36*
X-27559Y2891D02*
X-28289Y2746D01*
X-28907Y2332D01*
X-29321Y1714D01*
X-29466Y984D01*
X-29321Y255D01*
X-28907Y-364D01*
X-28289Y-777D01*
X-27559Y-922D01*
X-26829Y-777D01*
X-26211Y-364D01*
X-25798Y255D01*
X-25652Y984D01*
X-25798Y1714D01*
X-26211Y2332D01*
X-26829Y2746D01*
X-27559Y2891D01*
D02*
G37*
G36*
X41339Y1606D02*
X40724Y1483D01*
X40203Y1135D01*
X39855Y614D01*
X39733Y0D01*
X39855Y-614D01*
X40203Y-1135D01*
X40724Y-1483D01*
X41339Y-1606D01*
X41953Y-1483D01*
X42474Y-1135D01*
X42822Y-614D01*
X42944Y0D01*
X42822Y614D01*
X42474Y1135D01*
X41953Y1483D01*
X41339Y1606D01*
D02*
G37*
G36*
X63976Y1907D02*
X63247Y1762D01*
X62628Y1348D01*
X62215Y730D01*
X62070Y0D01*
X62215Y-730D01*
X62628Y-1348D01*
X63247Y-1762D01*
X63976Y-1907D01*
X64706Y-1762D01*
X65325Y-1348D01*
X65738Y-730D01*
X65883Y0D01*
X65738Y730D01*
X65325Y1348D01*
X64706Y1762D01*
X63976Y1907D01*
D02*
G37*
G36*
X-91535Y-1347D02*
X-92150Y-1469D01*
X-92671Y-1817D01*
X-93019Y-2338D01*
X-93141Y-2953D01*
X-93019Y-3567D01*
X-92671Y-4088D01*
X-92150Y-4436D01*
X-91535Y-4558D01*
X-90921Y-4436D01*
X-90400Y-4088D01*
X-90052Y-3567D01*
X-89930Y-2953D01*
X-90052Y-2338D01*
X-90400Y-1817D01*
X-90921Y-1469D01*
X-91535Y-1347D01*
D02*
G37*
G36*
X-117126D02*
X-117740Y-1469D01*
X-118261Y-1817D01*
X-118609Y-2338D01*
X-118732Y-2953D01*
X-118609Y-3567D01*
X-118261Y-4088D01*
X-117740Y-4436D01*
X-117126Y-4558D01*
X-116512Y-4436D01*
X-115991Y-4088D01*
X-115643Y-3567D01*
X-115520Y-2953D01*
X-115643Y-2338D01*
X-115991Y-1817D01*
X-116512Y-1469D01*
X-117126Y-1347D01*
D02*
G37*
G36*
X-134843D02*
X-135457Y-1469D01*
X-135978Y-1817D01*
X-136326Y-2338D01*
X-136448Y-2953D01*
X-136326Y-3567D01*
X-135978Y-4088D01*
X-135457Y-4436D01*
X-134843Y-4558D01*
X-134228Y-4436D01*
X-133707Y-4088D01*
X-133359Y-3567D01*
X-133237Y-2953D01*
X-133359Y-2338D01*
X-133707Y-1817D01*
X-134228Y-1469D01*
X-134843Y-1347D01*
D02*
G37*
G36*
X-125984Y-62D02*
X-126714Y-207D01*
X-127332Y-620D01*
X-127746Y-1239D01*
X-127891Y-1969D01*
X-127746Y-2698D01*
X-127332Y-3317D01*
X-126714Y-3730D01*
X-125984Y-3875D01*
X-125255Y-3730D01*
X-124636Y-3317D01*
X-124223Y-2698D01*
X-124077Y-1969D01*
X-124223Y-1239D01*
X-124636Y-620D01*
X-125255Y-207D01*
X-125984Y-62D01*
D02*
G37*
G36*
X46260Y-1347D02*
X45645Y-1469D01*
X45124Y-1817D01*
X44776Y-2338D01*
X44654Y-2953D01*
X44776Y-3567D01*
X45124Y-4088D01*
X45645Y-4436D01*
X46260Y-4558D01*
X46874Y-4436D01*
X47395Y-4088D01*
X47743Y-3567D01*
X47865Y-2953D01*
X47743Y-2338D01*
X47395Y-1817D01*
X46874Y-1469D01*
X46260Y-1347D01*
D02*
G37*
G36*
X133858Y-1347D02*
X133244Y-1469D01*
X132723Y-1817D01*
X132375Y-2338D01*
X132253Y-2953D01*
X132375Y-3567D01*
X132723Y-4088D01*
X133244Y-4436D01*
X133858Y-4558D01*
X134473Y-4436D01*
X134994Y-4088D01*
X135342Y-3567D01*
X135464Y-2953D01*
X135342Y-2338D01*
X134994Y-1817D01*
X134473Y-1469D01*
X133858Y-1347D01*
D02*
G37*
G36*
Y18338D02*
X133244Y18216D01*
X132723Y17868D01*
X132375Y17347D01*
X132253Y16732D01*
X132375Y16118D01*
X132723Y15597D01*
X133244Y15249D01*
X133858Y15127D01*
X134473Y15249D01*
X134994Y15597D01*
X135342Y16118D01*
X135464Y16732D01*
X135342Y17347D01*
X134994Y17868D01*
X134473Y18216D01*
X133858Y18338D01*
D02*
G37*
G36*
X14764Y41960D02*
X14149Y41838D01*
X13628Y41490D01*
X13280Y40969D01*
X13158Y40354D01*
X13280Y39740D01*
X13628Y39219D01*
X14149Y38871D01*
X14764Y38749D01*
X15378Y38871D01*
X15899Y39219D01*
X16247Y39740D01*
X16369Y40354D01*
X16247Y40969D01*
X15899Y41490D01*
X15378Y41838D01*
X14764Y41960D01*
D02*
G37*
G36*
X133858Y38023D02*
X133244Y37901D01*
X132723Y37553D01*
X132375Y37032D01*
X132253Y36417D01*
X132375Y35803D01*
X132723Y35282D01*
X133244Y34934D01*
X133858Y34812D01*
X134473Y34934D01*
X134994Y35282D01*
X135342Y35803D01*
X135464Y36417D01*
X135342Y37032D01*
X134994Y37553D01*
X134473Y37901D01*
X133858Y38023D01*
D02*
G37*
G36*
X90551D02*
X89937Y37901D01*
X89416Y37553D01*
X89068Y37032D01*
X88946Y36417D01*
X89068Y35803D01*
X89416Y35282D01*
X89937Y34934D01*
X90551Y34812D01*
X91166Y34934D01*
X91686Y35282D01*
X92035Y35803D01*
X92157Y36417D01*
X92035Y37032D01*
X91686Y37553D01*
X91166Y37901D01*
X90551Y38023D01*
D02*
G37*
G36*
X107283Y42944D02*
X106669Y42822D01*
X106148Y42474D01*
X105800Y41953D01*
X105678Y41339D01*
X105800Y40724D01*
X106148Y40203D01*
X106669Y39855D01*
X107283Y39733D01*
X107898Y39855D01*
X108419Y40203D01*
X108767Y40724D01*
X108889Y41339D01*
X108767Y41953D01*
X108419Y42474D01*
X107898Y42822D01*
X107283Y42944D01*
D02*
G37*
G36*
X29528Y41960D02*
X28913Y41838D01*
X28392Y41490D01*
X28044Y40969D01*
X27922Y40354D01*
X28044Y39740D01*
X28392Y39219D01*
X28913Y38871D01*
X29528Y38749D01*
X30142Y38871D01*
X30663Y39219D01*
X31011Y39740D01*
X31133Y40354D01*
X31011Y40969D01*
X30663Y41490D01*
X30142Y41838D01*
X29528Y41960D01*
D02*
G37*
G36*
X25591D02*
X24976Y41838D01*
X24455Y41490D01*
X24107Y40969D01*
X23985Y40354D01*
X24107Y39740D01*
X24455Y39219D01*
X24976Y38871D01*
X25591Y38749D01*
X26205Y38871D01*
X26726Y39219D01*
X27074Y39740D01*
X27196Y40354D01*
X27074Y40969D01*
X26726Y41490D01*
X26205Y41838D01*
X25591Y41960D01*
D02*
G37*
G36*
Y38023D02*
X24976Y37901D01*
X24455Y37553D01*
X24107Y37032D01*
X23985Y36417D01*
X24107Y35803D01*
X24455Y35282D01*
X24976Y34934D01*
X25591Y34812D01*
X26205Y34934D01*
X26726Y35282D01*
X27074Y35803D01*
X27196Y36417D01*
X27074Y37032D01*
X26726Y37553D01*
X26205Y37901D01*
X25591Y38023D01*
D02*
G37*
G36*
X-183071Y37039D02*
X-183685Y36917D01*
X-184206Y36568D01*
X-184554Y36048D01*
X-184677Y35433D01*
X-184554Y34819D01*
X-184206Y34298D01*
X-183685Y33950D01*
X-183071Y33827D01*
X-182456Y33950D01*
X-181936Y34298D01*
X-181587Y34819D01*
X-181465Y35433D01*
X-181587Y36048D01*
X-181936Y36568D01*
X-182456Y36917D01*
X-183071Y37039D01*
D02*
G37*
G36*
X8858Y36055D02*
X8244Y35932D01*
X7723Y35584D01*
X7375Y35063D01*
X7253Y34449D01*
X7375Y33834D01*
X7723Y33314D01*
X8244Y32965D01*
X8858Y32843D01*
X9473Y32965D01*
X9994Y33314D01*
X10342Y33834D01*
X10464Y34449D01*
X10342Y35063D01*
X9994Y35584D01*
X9473Y35932D01*
X8858Y36055D01*
D02*
G37*
G36*
X93504Y35070D02*
X92889Y34948D01*
X92369Y34600D01*
X92020Y34079D01*
X91898Y33465D01*
X92020Y32850D01*
X92369Y32329D01*
X92889Y31981D01*
X93504Y31859D01*
X94118Y31981D01*
X94639Y32329D01*
X94987Y32850D01*
X95110Y33465D01*
X94987Y34079D01*
X94639Y34600D01*
X94118Y34948D01*
X93504Y35070D01*
D02*
G37*
G36*
X-74803Y37039D02*
X-75418Y36917D01*
X-75938Y36568D01*
X-76287Y36048D01*
X-76409Y35433D01*
X-76287Y34819D01*
X-75938Y34298D01*
X-75418Y33950D01*
X-74803Y33827D01*
X-74189Y33950D01*
X-73668Y34298D01*
X-73320Y34819D01*
X-73198Y35433D01*
X-73320Y36048D01*
X-73668Y36568D01*
X-74189Y36917D01*
X-74803Y37039D01*
D02*
G37*
G36*
X-94488D02*
X-95103Y36917D01*
X-95624Y36568D01*
X-95972Y36048D01*
X-96094Y35433D01*
X-95972Y34819D01*
X-95624Y34298D01*
X-95103Y33950D01*
X-94488Y33827D01*
X-93874Y33950D01*
X-93353Y34298D01*
X-93005Y34819D01*
X-92883Y35433D01*
X-93005Y36048D01*
X-93353Y36568D01*
X-93874Y36917D01*
X-94488Y37039D01*
D02*
G37*
G36*
X-163386D02*
X-164000Y36917D01*
X-164521Y36568D01*
X-164869Y36048D01*
X-164991Y35433D01*
X-164869Y34819D01*
X-164521Y34298D01*
X-164000Y33950D01*
X-163386Y33827D01*
X-162771Y33950D01*
X-162250Y34298D01*
X-161902Y34819D01*
X-161780Y35433D01*
X-161902Y36048D01*
X-162250Y36568D01*
X-162771Y36917D01*
X-163386Y37039D01*
D02*
G37*
G36*
X33465Y46881D02*
X32850Y46759D01*
X32329Y46411D01*
X31981Y45890D01*
X31859Y45276D01*
X31981Y44661D01*
X32329Y44140D01*
X32850Y43792D01*
X33465Y43670D01*
X34079Y43792D01*
X34600Y44140D01*
X34948Y44661D01*
X35070Y45276D01*
X34948Y45890D01*
X34600Y46411D01*
X34079Y46759D01*
X33465Y46881D01*
D02*
G37*
G36*
X29528D02*
X28913Y46759D01*
X28392Y46411D01*
X28044Y45890D01*
X27922Y45276D01*
X28044Y44661D01*
X28392Y44140D01*
X28913Y43792D01*
X29528Y43670D01*
X30142Y43792D01*
X30663Y44140D01*
X31011Y44661D01*
X31133Y45276D01*
X31011Y45890D01*
X30663Y46411D01*
X30142Y46759D01*
X29528Y46881D01*
D02*
G37*
G36*
X5906Y45897D02*
X5291Y45775D01*
X4770Y45427D01*
X4422Y44906D01*
X4300Y44291D01*
X4422Y43677D01*
X4770Y43156D01*
X5291Y42808D01*
X5906Y42686D01*
X6520Y42808D01*
X7041Y43156D01*
X7389Y43677D01*
X7511Y44291D01*
X7389Y44906D01*
X7041Y45427D01*
X6520Y45775D01*
X5906Y45897D01*
D02*
G37*
G36*
X69882Y48167D02*
X69152Y48021D01*
X68534Y47608D01*
X68120Y46990D01*
X67975Y46260D01*
X68120Y45530D01*
X68534Y44912D01*
X69152Y44498D01*
X69882Y44353D01*
X70612Y44498D01*
X71230Y44912D01*
X71644Y45530D01*
X71789Y46260D01*
X71644Y46990D01*
X71230Y47608D01*
X70612Y48021D01*
X69882Y48167D01*
D02*
G37*
G36*
X107283Y46881D02*
X106669Y46759D01*
X106148Y46411D01*
X105800Y45890D01*
X105678Y45276D01*
X105800Y44661D01*
X106148Y44140D01*
X106669Y43792D01*
X107283Y43670D01*
X107898Y43792D01*
X108419Y44140D01*
X108767Y44661D01*
X108889Y45276D01*
X108767Y45890D01*
X108419Y46411D01*
X107898Y46759D01*
X107283Y46881D01*
D02*
G37*
G36*
X37402D02*
X36787Y46759D01*
X36266Y46411D01*
X35918Y45890D01*
X35796Y45276D01*
X35918Y44661D01*
X36266Y44140D01*
X36787Y43792D01*
X37402Y43670D01*
X38016Y43792D01*
X38537Y44140D01*
X38885Y44661D01*
X39007Y45276D01*
X38885Y45890D01*
X38537Y46411D01*
X38016Y46759D01*
X37402Y46881D01*
D02*
G37*
G36*
X-33465Y46198D02*
X-34194Y46053D01*
X-34813Y45640D01*
X-35226Y45021D01*
X-35371Y44291D01*
X-35226Y43562D01*
X-34813Y42943D01*
X-34194Y42530D01*
X-33465Y42385D01*
X-32735Y42530D01*
X-32116Y42943D01*
X-31703Y43562D01*
X-31558Y44291D01*
X-31703Y45021D01*
X-32116Y45640D01*
X-32735Y46053D01*
X-33465Y46198D01*
D02*
G37*
G36*
X164370Y42944D02*
X163756Y42822D01*
X163235Y42474D01*
X162887Y41953D01*
X162764Y41339D01*
X162887Y40724D01*
X163235Y40203D01*
X163756Y39855D01*
X164370Y39733D01*
X164985Y39855D01*
X165505Y40203D01*
X165854Y40724D01*
X165976Y41339D01*
X165854Y41953D01*
X165505Y42474D01*
X164985Y42822D01*
X164370Y42944D01*
D02*
G37*
G36*
X139764D02*
X139149Y42822D01*
X138628Y42474D01*
X138280Y41953D01*
X138158Y41339D01*
X138280Y40724D01*
X138628Y40203D01*
X139149Y39855D01*
X139764Y39733D01*
X140378Y39855D01*
X140899Y40203D01*
X141247Y40724D01*
X141369Y41339D01*
X141247Y41953D01*
X140899Y42474D01*
X140378Y42822D01*
X139764Y42944D01*
D02*
G37*
G36*
X125000D02*
X124385Y42822D01*
X123865Y42474D01*
X123517Y41953D01*
X123394Y41339D01*
X123517Y40724D01*
X123865Y40203D01*
X124385Y39855D01*
X125000Y39733D01*
X125615Y39855D01*
X126135Y40203D01*
X126483Y40724D01*
X126606Y41339D01*
X126483Y41953D01*
X126135Y42474D01*
X125615Y42822D01*
X125000Y42944D01*
D02*
G37*
G36*
X-84646Y43929D02*
X-85260Y43806D01*
X-85781Y43458D01*
X-86129Y42937D01*
X-86251Y42323D01*
X-86129Y41708D01*
X-85781Y41188D01*
X-85260Y40839D01*
X-84646Y40717D01*
X-84031Y40839D01*
X-83510Y41188D01*
X-83162Y41708D01*
X-83040Y42323D01*
X-83162Y42937D01*
X-83510Y43458D01*
X-84031Y43806D01*
X-84646Y43929D01*
D02*
G37*
G36*
X-173228D02*
X-173843Y43806D01*
X-174364Y43458D01*
X-174712Y42937D01*
X-174834Y42323D01*
X-174712Y41708D01*
X-174364Y41188D01*
X-173843Y40839D01*
X-173228Y40717D01*
X-172614Y40839D01*
X-172093Y41188D01*
X-171745Y41708D01*
X-171623Y42323D01*
X-171745Y42937D01*
X-172093Y43458D01*
X-172614Y43806D01*
X-173228Y43929D01*
D02*
G37*
G36*
X-192913D02*
X-193528Y43806D01*
X-194049Y43458D01*
X-194397Y42937D01*
X-194519Y42323D01*
X-194397Y41708D01*
X-194049Y41188D01*
X-193528Y40839D01*
X-192913Y40717D01*
X-192299Y40839D01*
X-191778Y41188D01*
X-191430Y41708D01*
X-191308Y42323D01*
X-191430Y42937D01*
X-191778Y43458D01*
X-192299Y43806D01*
X-192913Y43929D01*
D02*
G37*
G36*
X-37402Y27497D02*
X-38131Y27352D01*
X-38750Y26939D01*
X-39163Y26320D01*
X-39308Y25591D01*
X-39163Y24861D01*
X-38750Y24242D01*
X-38131Y23829D01*
X-37402Y23684D01*
X-36672Y23829D01*
X-36053Y24242D01*
X-35640Y24861D01*
X-35495Y25591D01*
X-35640Y26320D01*
X-36053Y26939D01*
X-36672Y27352D01*
X-37402Y27497D01*
D02*
G37*
G36*
X164370Y23259D02*
X163756Y23137D01*
X163235Y22789D01*
X162887Y22268D01*
X162764Y21654D01*
X162887Y21039D01*
X163235Y20518D01*
X163756Y20170D01*
X164370Y20048D01*
X164985Y20170D01*
X165505Y20518D01*
X165854Y21039D01*
X165976Y21654D01*
X165854Y22268D01*
X165505Y22789D01*
X164985Y23137D01*
X164370Y23259D01*
D02*
G37*
G36*
X139764D02*
X139149Y23137D01*
X138628Y22789D01*
X138280Y22268D01*
X138158Y21654D01*
X138280Y21039D01*
X138628Y20518D01*
X139149Y20170D01*
X139764Y20048D01*
X140378Y20170D01*
X140899Y20518D01*
X141247Y21039D01*
X141369Y21654D01*
X141247Y22268D01*
X140899Y22789D01*
X140378Y23137D01*
X139764Y23259D01*
D02*
G37*
G36*
X-84646Y27196D02*
X-85260Y27074D01*
X-85781Y26726D01*
X-86129Y26205D01*
X-86251Y25591D01*
X-86129Y24976D01*
X-85781Y24455D01*
X-85260Y24107D01*
X-84646Y23985D01*
X-84031Y24107D01*
X-83510Y24455D01*
X-83162Y24976D01*
X-83040Y25591D01*
X-83162Y26205D01*
X-83510Y26726D01*
X-84031Y27074D01*
X-84646Y27196D01*
D02*
G37*
G36*
X-173228D02*
X-173843Y27074D01*
X-174364Y26726D01*
X-174712Y26205D01*
X-174834Y25591D01*
X-174712Y24976D01*
X-174364Y24455D01*
X-173843Y24107D01*
X-173228Y23985D01*
X-172614Y24107D01*
X-172093Y24455D01*
X-171745Y24976D01*
X-171623Y25591D01*
X-171745Y26205D01*
X-172093Y26726D01*
X-172614Y27074D01*
X-173228Y27196D01*
D02*
G37*
G36*
X-192913D02*
X-193528Y27074D01*
X-194049Y26726D01*
X-194397Y26205D01*
X-194519Y25591D01*
X-194397Y24976D01*
X-194049Y24455D01*
X-193528Y24107D01*
X-192913Y23985D01*
X-192299Y24107D01*
X-191778Y24455D01*
X-191430Y24976D01*
X-191308Y25591D01*
X-191430Y26205D01*
X-191778Y26726D01*
X-192299Y27074D01*
X-192913Y27196D01*
D02*
G37*
G36*
X125000Y23259D02*
X124385Y23137D01*
X123865Y22789D01*
X123517Y22268D01*
X123394Y21654D01*
X123517Y21039D01*
X123865Y20518D01*
X124385Y20170D01*
X125000Y20048D01*
X125615Y20170D01*
X126135Y20518D01*
X126483Y21039D01*
X126606Y21654D01*
X126483Y22268D01*
X126135Y22789D01*
X125615Y23137D01*
X125000Y23259D01*
D02*
G37*
G36*
X33465Y19322D02*
X32850Y19200D01*
X32329Y18852D01*
X31981Y18331D01*
X31859Y17717D01*
X31981Y17102D01*
X32238Y16718D01*
X31950Y16279D01*
X31496Y16369D01*
X30882Y16247D01*
X30361Y15899D01*
X30013Y15378D01*
X29890Y14764D01*
X30013Y14149D01*
X30361Y13628D01*
X30882Y13280D01*
X31496Y13158D01*
X32111Y13280D01*
X32631Y13628D01*
X32980Y14149D01*
X33102Y14764D01*
X32980Y15378D01*
X32723Y15763D01*
X33011Y16201D01*
X33465Y16111D01*
X34079Y16233D01*
X34600Y16581D01*
X34948Y17102D01*
X35070Y17717D01*
X34948Y18331D01*
X34600Y18852D01*
X34079Y19200D01*
X33465Y19322D01*
D02*
G37*
G36*
X112205D02*
X111590Y19200D01*
X111069Y18852D01*
X110721Y18331D01*
X110599Y17717D01*
X110721Y17102D01*
X111069Y16581D01*
X111590Y16233D01*
X112205Y16111D01*
X112819Y16233D01*
X113340Y16581D01*
X113688Y17102D01*
X113810Y17717D01*
X113688Y18331D01*
X113340Y18852D01*
X112819Y19200D01*
X112205Y19322D01*
D02*
G37*
G36*
X108268D02*
X107653Y19200D01*
X107132Y18852D01*
X106784Y18331D01*
X106662Y17717D01*
X106784Y17102D01*
X107132Y16581D01*
X107653Y16233D01*
X108268Y16111D01*
X108882Y16233D01*
X109403Y16581D01*
X109751Y17102D01*
X109873Y17717D01*
X109751Y18331D01*
X109403Y18852D01*
X108882Y19200D01*
X108268Y19322D01*
D02*
G37*
G36*
X112205Y23259D02*
X111590Y23137D01*
X111069Y22789D01*
X110721Y22268D01*
X110599Y21654D01*
X110721Y21039D01*
X111069Y20518D01*
X111590Y20170D01*
X112205Y20048D01*
X112819Y20170D01*
X113340Y20518D01*
X113688Y21039D01*
X113810Y21654D01*
X113688Y22268D01*
X113340Y22789D01*
X112819Y23137D01*
X112205Y23259D01*
D02*
G37*
G36*
X42323Y22275D02*
X41708Y22153D01*
X41188Y21805D01*
X40839Y21284D01*
X40717Y20669D01*
X40839Y20055D01*
X41188Y19534D01*
X41708Y19186D01*
X42323Y19064D01*
X42937Y19186D01*
X43458Y19534D01*
X43806Y20055D01*
X43929Y20669D01*
X43806Y21284D01*
X43458Y21805D01*
X42937Y22153D01*
X42323Y22275D01*
D02*
G37*
G36*
X38386D02*
X37771Y22153D01*
X37251Y21805D01*
X36902Y21284D01*
X36780Y20669D01*
X36902Y20055D01*
X37251Y19534D01*
X37771Y19186D01*
X38386Y19064D01*
X39000Y19186D01*
X39521Y19534D01*
X39869Y20055D01*
X39992Y20669D01*
X39869Y21284D01*
X39521Y21805D01*
X39000Y22153D01*
X38386Y22275D01*
D02*
G37*
G36*
X5906Y33102D02*
X5291Y32980D01*
X4770Y32631D01*
X4422Y32111D01*
X4300Y31496D01*
X4422Y30882D01*
X4770Y30361D01*
X5291Y30013D01*
X5906Y29890D01*
X6520Y30013D01*
X7041Y30361D01*
X7389Y30882D01*
X7511Y31496D01*
X7389Y32111D01*
X7041Y32631D01*
X6520Y32980D01*
X5906Y33102D01*
D02*
G37*
G36*
X-2953D02*
X-3567Y32980D01*
X-4088Y32631D01*
X-4436Y32111D01*
X-4558Y31496D01*
X-4436Y30882D01*
X-4088Y30361D01*
X-3567Y30013D01*
X-2953Y29890D01*
X-2338Y30013D01*
X-1817Y30361D01*
X-1469Y30882D01*
X-1347Y31496D01*
X-1469Y32111D01*
X-1817Y32631D01*
X-2338Y32980D01*
X-2953Y33102D01*
D02*
G37*
G36*
X87598Y32118D02*
X86984Y31995D01*
X86463Y31647D01*
X86115Y31126D01*
X85993Y30512D01*
X86115Y29897D01*
X86463Y29376D01*
X86984Y29028D01*
X87598Y28906D01*
X88213Y29028D01*
X88734Y29376D01*
X89082Y29897D01*
X89204Y30512D01*
X89082Y31126D01*
X88734Y31647D01*
X88213Y31995D01*
X87598Y32118D01*
D02*
G37*
G36*
X154528Y33102D02*
X153913Y32980D01*
X153392Y32631D01*
X153044Y32111D01*
X152922Y31496D01*
X153044Y30882D01*
X153392Y30361D01*
X153913Y30013D01*
X154528Y29890D01*
X155142Y30013D01*
X155663Y30361D01*
X156011Y30882D01*
X156133Y31496D01*
X156011Y32111D01*
X155663Y32631D01*
X155142Y32980D01*
X154528Y33102D01*
D02*
G37*
G36*
X139764D02*
X139149Y32980D01*
X138628Y32631D01*
X138280Y32111D01*
X138158Y31496D01*
X138280Y30882D01*
X138628Y30361D01*
X139149Y30013D01*
X139764Y29890D01*
X140378Y30013D01*
X140899Y30361D01*
X141247Y30882D01*
X141369Y31496D01*
X141247Y32111D01*
X140899Y32631D01*
X140378Y32980D01*
X139764Y33102D01*
D02*
G37*
G36*
X115157D02*
X114543Y32980D01*
X114022Y32631D01*
X113674Y32111D01*
X113552Y31496D01*
X113674Y30882D01*
X114022Y30361D01*
X114543Y30013D01*
X115157Y29890D01*
X115772Y30013D01*
X116293Y30361D01*
X116641Y30882D01*
X116763Y31496D01*
X116641Y32111D01*
X116293Y32631D01*
X115772Y32980D01*
X115157Y33102D01*
D02*
G37*
G36*
X-63976Y30149D02*
X-64591Y30027D01*
X-65112Y29679D01*
X-65460Y29158D01*
X-65582Y28543D01*
X-65460Y27929D01*
X-65112Y27408D01*
X-64591Y27060D01*
X-63976Y26938D01*
X-63362Y27060D01*
X-62841Y27408D01*
X-62493Y27929D01*
X-62371Y28543D01*
X-62493Y29158D01*
X-62841Y29679D01*
X-63362Y30027D01*
X-63976Y30149D01*
D02*
G37*
G36*
X-125984Y29466D02*
X-126714Y29321D01*
X-127333Y28907D01*
X-127746Y28289D01*
X-127891Y27559D01*
X-127746Y26829D01*
X-127333Y26211D01*
X-126714Y25798D01*
X-125984Y25652D01*
X-125255Y25798D01*
X-124636Y26211D01*
X-124223Y26829D01*
X-124078Y27559D01*
X-124223Y28289D01*
X-124636Y28907D01*
X-125255Y29321D01*
X-125984Y29466D01*
D02*
G37*
G36*
X-147638D02*
X-148368Y29321D01*
X-148986Y28907D01*
X-149399Y28289D01*
X-149545Y27559D01*
X-149399Y26829D01*
X-148986Y26211D01*
X-148368Y25798D01*
X-147638Y25652D01*
X-146908Y25798D01*
X-146290Y26211D01*
X-145876Y26829D01*
X-145731Y27559D01*
X-145876Y28289D01*
X-146290Y28907D01*
X-146908Y29321D01*
X-147638Y29466D01*
D02*
G37*
G36*
X133858Y28181D02*
X133244Y28058D01*
X132723Y27710D01*
X132375Y27189D01*
X132253Y26575D01*
X132375Y25960D01*
X132723Y25439D01*
X133244Y25091D01*
X133858Y24969D01*
X134473Y25091D01*
X134994Y25439D01*
X135342Y25960D01*
X135464Y26575D01*
X135342Y27189D01*
X134994Y27710D01*
X134473Y28058D01*
X133858Y28181D01*
D02*
G37*
G36*
X984Y29165D02*
X370Y29043D01*
X-151Y28694D01*
X-499Y28174D01*
X-621Y27559D01*
X-499Y26945D01*
X-151Y26424D01*
X370Y26076D01*
X984Y25953D01*
X1599Y26076D01*
X2120Y26424D01*
X2468Y26945D01*
X2590Y27559D01*
X2468Y28174D01*
X2120Y28694D01*
X1599Y29043D01*
X984Y29165D01*
D02*
G37*
G36*
X-2953D02*
X-3567Y29043D01*
X-4088Y28694D01*
X-4436Y28174D01*
X-4558Y27559D01*
X-4436Y26945D01*
X-4088Y26424D01*
X-3567Y26076D01*
X-2953Y25953D01*
X-2338Y26076D01*
X-1817Y26424D01*
X-1469Y26945D01*
X-1347Y27559D01*
X-1469Y28174D01*
X-1817Y28694D01*
X-2338Y29043D01*
X-2953Y29165D01*
D02*
G37*
G36*
X-104331Y29466D02*
X-105061Y29321D01*
X-105679Y28907D01*
X-106092Y28289D01*
X-106237Y27559D01*
X-106092Y26829D01*
X-105679Y26211D01*
X-105061Y25798D01*
X-104331Y25652D01*
X-103601Y25798D01*
X-102982Y26211D01*
X-102569Y26829D01*
X-102424Y27559D01*
X-102569Y28289D01*
X-102982Y28907D01*
X-103601Y29321D01*
X-104331Y29466D01*
D02*
G37*
%LPD*%
D65*
X-24606Y-50197D02*
D03*
X17717Y0D02*
D03*
X135827Y-99410D02*
D03*
X127953D02*
D03*
X-87598Y-76772D02*
D03*
X-99410D02*
D03*
X-75787D02*
D03*
X-69882Y-72835D02*
D03*
X-58071D02*
D03*
X-108268Y-82677D02*
D03*
X-48228Y-72835D02*
D03*
X-108268Y-76772D02*
D03*
X-99410Y-82677D02*
D03*
X19685Y-71850D02*
D03*
Y-86614D02*
D03*
X-52165Y38386D02*
D03*
X-94488Y7874D02*
D03*
X84400Y-50197D02*
D03*
D66*
X165354Y143701D02*
D03*
X130905D02*
D03*
X-36417Y-48228D02*
D03*
X84646Y-84646D02*
D03*
X89567Y-75787D02*
D03*
X69882Y-101378D02*
D03*
X17717Y106299D02*
D03*
X77756Y-39370D02*
D03*
X48228D02*
D03*
X-15748Y-83661D02*
D03*
X11811Y-65945D02*
D03*
X-11811D02*
D03*
X-15748Y-68898D02*
D03*
X-42323Y-35433D02*
D03*
X-18701D02*
D03*
X62008Y-58071D02*
D03*
X69882D02*
D03*
X-107283Y-52165D02*
D03*
X-101378D02*
D03*
X-97441Y-49213D02*
D03*
Y-2953D02*
D03*
X-154528D02*
D03*
X-119095Y-27559D02*
D03*
Y-23622D02*
D03*
X-157480Y-31496D02*
D03*
X-6890Y67913D02*
D03*
X60039Y55118D02*
D03*
X65945D02*
D03*
X69882Y52165D02*
D03*
X63976Y5906D02*
D03*
X69882Y14764D02*
D03*
X40354Y-22638D02*
D03*
Y-16732D02*
D03*
X37402Y-26575D02*
D03*
X97441Y-81693D02*
D03*
X142717Y-93504D02*
D03*
X-24606Y-1969D02*
D03*
X-23622Y25591D02*
D03*
X-27559Y44291D02*
D03*
X-39370Y22638D02*
D03*
X-37402Y984D02*
D03*
X-77756Y-19685D02*
D03*
Y-25591D02*
D03*
Y3937D02*
D03*
X-80709Y7874D02*
D03*
X-14764Y-38386D02*
D03*
X-24606Y-13780D02*
D03*
Y-19685D02*
D03*
X-147638Y-52165D02*
D03*
X41339Y-83661D02*
D03*
X-80709Y-53150D02*
D03*
X107283Y-49213D02*
D03*
X93504D02*
D03*
D67*
X-27559Y81693D02*
D03*
X-55118D02*
D03*
M02*
