G04 Layer_Color=16711935*
%FSLAX25Y25*%
%MOIN*%
G70*
G01*
G75*
%ADD124O,0.06706X0.10642*%
%ADD125C,0.18517*%
%ADD126C,0.04331*%
%ADD127O,0.10642X0.06706*%
%ADD128C,0.03162*%
%ADD129C,0.05721*%
%ADD130C,0.03753*%
%ADD131C,0.04737*%
%ADD132R,0.03162X0.04343*%
%ADD133R,0.17335X0.06706*%
%ADD134R,0.06706X0.17335*%
D124*
X-159449Y124606D02*
D03*
X-151575D02*
D03*
X-100394D02*
D03*
X-92520D02*
D03*
X-129921D02*
D03*
X-122047D02*
D03*
D125*
X186614Y-138976D02*
D03*
X-186614Y-138976D02*
D03*
Y138976D02*
D03*
D126*
X29685Y124685D02*
D03*
Y119685D02*
D03*
X24685Y124685D02*
D03*
Y119685D02*
D03*
X19685Y124685D02*
D03*
Y119685D02*
D03*
X14685Y124685D02*
D03*
Y119685D02*
D03*
X9685Y124685D02*
D03*
Y119685D02*
D03*
D127*
X-93504Y-130905D02*
D03*
Y-123031D02*
D03*
D128*
X112205Y21654D02*
D03*
Y17717D02*
D03*
X94488Y-102362D02*
D03*
X-35433Y-80709D02*
D03*
X-28543Y-69882D02*
D03*
X-31496Y-66929D02*
D03*
X14764Y40354D02*
D03*
X5906Y44291D02*
D03*
X17717Y62008D02*
D03*
X13780Y65945D02*
D03*
X43799Y-79724D02*
D03*
X-128937Y-35433D02*
D03*
X-136811Y-49213D02*
D03*
X6890Y984D02*
D03*
X-142717Y-43307D02*
D03*
X-119095Y-31496D02*
D03*
X-2953Y27559D02*
D03*
X-38386Y-92520D02*
D03*
X-3937Y125000D02*
D03*
X-104331Y-8858D02*
D03*
Y2953D02*
D03*
X-147638Y-8858D02*
D03*
Y2953D02*
D03*
X-121063Y-8858D02*
D03*
X-117126Y-6890D02*
D03*
Y-2953D02*
D03*
X-128937Y-4921D02*
D03*
Y-8858D02*
D03*
X-134843Y-6890D02*
D03*
Y-2953D02*
D03*
X-123032Y-4921D02*
D03*
X54134Y-82677D02*
D03*
X56102Y13287D02*
D03*
X-130905Y-31496D02*
D03*
X-101378Y-13780D02*
D03*
X984Y27559D02*
D03*
X-2953Y31496D02*
D03*
X2953Y984D02*
D03*
X-984D02*
D03*
X108268Y17717D02*
D03*
X41339Y0D02*
D03*
X37402Y0D02*
D03*
X32480Y4921D02*
D03*
X38386Y11811D02*
D03*
X35433Y7874D02*
D03*
X46260Y-6890D02*
D03*
X46260Y-2953D02*
D03*
X31496Y14764D02*
D03*
X33465Y17717D02*
D03*
X29528Y45276D02*
D03*
X33465D02*
D03*
X29528Y40354D02*
D03*
X25591D02*
D03*
X37402Y45276D02*
D03*
X25591Y36417D02*
D03*
X8858Y34449D02*
D03*
X5906Y31496D02*
D03*
X42323Y20669D02*
D03*
X38386D02*
D03*
X93504Y88583D02*
D03*
Y92520D02*
D03*
X-30512Y-24606D02*
D03*
X-32480Y-7874D02*
D03*
X-112205Y-92520D02*
D03*
X-139764Y-96457D02*
D03*
X-107283Y-109252D02*
D03*
X90551Y36417D02*
D03*
X93504Y33465D02*
D03*
X87598Y30512D02*
D03*
X-91535Y-2953D02*
D03*
X-50197Y-3937D02*
D03*
X-54134D02*
D03*
Y0D02*
D03*
X-58071D02*
D03*
Y3937D02*
D03*
X-62008D02*
D03*
X-65945D02*
D03*
X144685Y-73819D02*
D03*
X148622D02*
D03*
X116142Y-99410D02*
D03*
X84646Y-78740D02*
D03*
X125984Y-75787D02*
D03*
X98425Y-67913D02*
D03*
X106299Y-75787D02*
D03*
X116142D02*
D03*
X136811Y-76772D02*
D03*
X-38386Y-97441D02*
D03*
X-57972Y-98327D02*
D03*
X41339Y-95472D02*
D03*
X93504Y-74803D02*
D03*
X94488Y-62008D02*
D03*
X-87598Y-37402D02*
D03*
X102362Y-99410D02*
D03*
X112205Y-105315D02*
D03*
X99410Y-102362D02*
D03*
X-68898Y-22638D02*
D03*
X-35433Y-84646D02*
D03*
X-31496Y-88583D02*
D03*
X9843Y65945D02*
D03*
X13780Y62008D02*
D03*
X9843Y69882D02*
D03*
Y73819D02*
D03*
X10827Y91535D02*
D03*
X-5906D02*
D03*
X-8858Y88583D02*
D03*
X7874D02*
D03*
X-8858Y94488D02*
D03*
X19685Y88583D02*
D03*
X-135827Y-73819D02*
D03*
X-139764D02*
D03*
X-131890D02*
D03*
X-10827Y126969D02*
D03*
X57087Y-20669D02*
D03*
X0Y-104331D02*
D03*
Y-54134D02*
D03*
X40354Y83661D02*
D03*
X-93504Y-109252D02*
D03*
X-158465D02*
D03*
Y-123031D02*
D03*
Y-79724D02*
D03*
X19685Y-71850D02*
D03*
Y-86614D02*
D03*
X-52165Y38386D02*
D03*
X-93504Y-73819D02*
D03*
X-72835Y7874D02*
D03*
X-94488D02*
D03*
X-115157Y-54134D02*
D03*
X93504Y68898D02*
D03*
X89567D02*
D03*
X93504Y72835D02*
D03*
Y76772D02*
D03*
Y80709D02*
D03*
Y84646D02*
D03*
X82677Y73819D02*
D03*
X80709Y82677D02*
D03*
X93504Y-45276D02*
D03*
Y-41339D02*
D03*
Y-37402D02*
D03*
Y-33465D02*
D03*
Y-13780D02*
D03*
Y96457D02*
D03*
X87598Y-9843D02*
D03*
X93504Y-19685D02*
D03*
X119095D02*
D03*
X84400Y-50197D02*
D03*
D129*
X-115158Y88583D02*
D03*
X-136811D02*
D03*
X-158465Y57087D02*
D03*
X-93504D02*
D03*
D130*
X-104331Y27559D02*
D03*
X-147638D02*
D03*
X-125984D02*
D03*
X181102Y135335D02*
D03*
Y146161D02*
D03*
D131*
X-125984Y-123622D02*
D03*
Y-143307D02*
D03*
D132*
X-147638Y23031D02*
D03*
X-143898Y32087D02*
D03*
X-151378D02*
D03*
X-104331Y23031D02*
D03*
X-100591Y32087D02*
D03*
X-108071D02*
D03*
X-125984Y23032D02*
D03*
X-122244Y32087D02*
D03*
X-129725D02*
D03*
D133*
X-155512Y63976D02*
D03*
Y81693D02*
D03*
X-96457D02*
D03*
Y63976D02*
D03*
D134*
X-134843Y69882D02*
D03*
X-117126D02*
D03*
M02*
