G04 Layer_Physical_Order=2*
G04 Layer_Color=36540*
%FSLAX25Y25*%
%MOIN*%
G70*
G01*
G75*
%ADD56C,0.00984*%
%ADD58C,0.03937*%
%ADD63C,0.03937*%
%ADD64O,0.09843X0.05906*%
%ADD65C,0.02362*%
%ADD66C,0.02953*%
%ADD68C,0.05906*%
G36*
X196850Y149213D02*
Y115748D01*
X196850Y115748D01*
X196850D01*
X196830Y115256D01*
X196765Y114590D01*
X196427Y113477D01*
X195879Y112451D01*
X195141Y111552D01*
X194242Y110814D01*
X193216Y110266D01*
X192103Y109928D01*
X190945Y109814D01*
X173228Y109843D01*
X173228Y109871D01*
X172071Y109757D01*
X170958Y109419D01*
X169932Y108871D01*
X169032Y108133D01*
X168294Y107234D01*
X167746Y106208D01*
X167408Y105095D01*
X167294Y103937D01*
X167323Y-103449D01*
X167294Y-103937D01*
X167294Y-103937D01*
X167341Y-104417D01*
X167408Y-105095D01*
X167746Y-106208D01*
X168294Y-107234D01*
X169032Y-108133D01*
X169931Y-108871D01*
X170957Y-109419D01*
X172070Y-109757D01*
X173228Y-109871D01*
X173228Y-109871D01*
X190945Y-109843D01*
X190945Y-109843D01*
Y-109843D01*
X191437Y-109862D01*
X192103Y-109928D01*
X193216Y-110266D01*
X194242Y-110814D01*
X195141Y-111552D01*
X195879Y-112451D01*
X196427Y-113477D01*
X196765Y-114590D01*
X196879Y-115747D01*
X196879Y-115748D01*
X196850Y-120079D01*
X-44263D01*
X-44426Y-119646D01*
X-44687Y-118787D01*
X-45237Y-117758D01*
X-45976Y-116857D01*
X-46878Y-116117D01*
X-47906Y-115567D01*
X-49022Y-115229D01*
X-50182Y-115115D01*
X-50183Y-115115D01*
X-51343Y-115229D01*
X-52459Y-115568D01*
X-53487Y-116117D01*
X-54389Y-116857D01*
X-55128Y-117758D01*
X-55678Y-118787D01*
X-56017Y-119903D01*
X-56131Y-121063D01*
X-56103Y-148859D01*
X-56456Y-149213D01*
X-196850D01*
X-196850Y-58916D01*
X-196497Y-58563D01*
X-75787Y-58563D01*
X-75787Y-57579D01*
X-150091Y-57579D01*
X-150591Y-57579D01*
Y-42815D01*
X-148622Y-40846D01*
X-137303D01*
X-135335Y-38878D01*
X-118602D01*
X-116634Y-40846D01*
X-95965D01*
X-93504Y-38386D01*
X-93504Y-31496D01*
X-91536Y-29528D01*
X-78248D01*
X-76287Y-31488D01*
X-76279Y-31496D01*
X-75787Y-31496D01*
X-75787Y-31477D01*
X-75787Y-31477D01*
Y-30512D01*
X-77756Y-28543D01*
X-92028D01*
X-94488Y-31004D01*
X-94488Y-37894D01*
X-96457Y-39862D01*
X-116142D01*
X-118110Y-37894D01*
X-135827D01*
X-137795Y-39862D01*
X-149114D01*
X-151575Y-42323D01*
Y-57579D01*
X-152075Y-57579D01*
X-196497D01*
X-196850Y-57225D01*
X-196850Y46260D01*
X-147638D01*
X-78769Y46260D01*
X-78769Y46259D01*
X-78655Y45102D01*
X-78317Y43989D01*
X-77769Y42963D01*
X-77031Y42064D01*
X-76132Y41326D01*
X-75106Y40777D01*
X-73993Y40440D01*
X-72835Y40326D01*
X-72835Y40326D01*
X-72835Y40326D01*
X-71677Y40440D01*
X-70564Y40778D01*
X-69538Y41326D01*
X-68639Y42064D01*
X-68384Y42374D01*
X-67913Y42206D01*
Y37402D01*
X-67913Y-20846D01*
X-68413Y-21128D01*
X-68898Y-21032D01*
X-69512Y-21154D01*
X-70033Y-21502D01*
X-70381Y-22023D01*
X-70503Y-22638D01*
X-70381Y-23252D01*
X-70033Y-23773D01*
X-69512Y-24121D01*
X-68898Y-24243D01*
X-68413Y-24147D01*
X-67913Y-24430D01*
X-67913Y-58563D01*
X-66929D01*
X-66929Y2145D01*
X-66429Y2428D01*
X-65945Y2331D01*
X-65330Y2454D01*
X-64810Y2802D01*
X-64461Y3322D01*
X-64339Y3937D01*
X-64461Y4552D01*
X-64810Y5072D01*
X-65330Y5420D01*
X-65945Y5543D01*
X-66429Y5446D01*
X-66929Y5729D01*
X-66929Y149213D01*
X196850Y149213D01*
D02*
G37*
%LPC*%
G36*
X-147638Y-50259D02*
X-148368Y-50404D01*
X-148986Y-50817D01*
X-149399Y-51436D01*
X-149545Y-52165D01*
X-149399Y-52895D01*
X-148986Y-53514D01*
X-148368Y-53927D01*
X-147638Y-54072D01*
X-146908Y-53927D01*
X-146290Y-53514D01*
X-145876Y-52895D01*
X-145731Y-52165D01*
X-145876Y-51436D01*
X-146290Y-50817D01*
X-146908Y-50404D01*
X-147638Y-50259D01*
D02*
G37*
G36*
X-107283D02*
X-108013Y-50404D01*
X-108632Y-50817D01*
X-109045Y-51436D01*
X-109190Y-52165D01*
X-109045Y-52895D01*
X-108632Y-53514D01*
X-108013Y-53927D01*
X-107283Y-54072D01*
X-106554Y-53927D01*
X-105935Y-53514D01*
X-105522Y-52895D01*
X-105377Y-52165D01*
X-105522Y-51436D01*
X-105935Y-50817D01*
X-106554Y-50404D01*
X-107283Y-50259D01*
D02*
G37*
G36*
X-80709Y-51243D02*
X-81438Y-51388D01*
X-82057Y-51801D01*
X-82470Y-52420D01*
X-82615Y-53150D01*
X-82470Y-53879D01*
X-82057Y-54498D01*
X-81438Y-54911D01*
X-80709Y-55056D01*
X-79979Y-54911D01*
X-79360Y-54498D01*
X-78947Y-53879D01*
X-78802Y-53150D01*
X-78947Y-52420D01*
X-79360Y-51801D01*
X-79979Y-51388D01*
X-80709Y-51243D01*
D02*
G37*
G36*
X69882Y-56164D02*
X69152Y-56309D01*
X68534Y-56723D01*
X68120Y-57341D01*
X67975Y-58071D01*
X68120Y-58801D01*
X68534Y-59419D01*
X69152Y-59832D01*
X69882Y-59978D01*
X70612Y-59832D01*
X71230Y-59419D01*
X71644Y-58801D01*
X71789Y-58071D01*
X71644Y-57341D01*
X71230Y-56723D01*
X70612Y-56309D01*
X69882Y-56164D01*
D02*
G37*
G36*
X-115157Y-52528D02*
X-115772Y-52650D01*
X-116293Y-52999D01*
X-116641Y-53519D01*
X-116763Y-54134D01*
X-116641Y-54748D01*
X-116293Y-55269D01*
X-115772Y-55617D01*
X-115157Y-55739D01*
X-114543Y-55617D01*
X-114022Y-55269D01*
X-113674Y-54748D01*
X-113552Y-54134D01*
X-113674Y-53519D01*
X-114022Y-52999D01*
X-114543Y-52650D01*
X-115157Y-52528D01*
D02*
G37*
G36*
X0D02*
X-614Y-52650D01*
X-1135Y-52999D01*
X-1483Y-53519D01*
X-1606Y-54134D01*
X-1483Y-54748D01*
X-1135Y-55269D01*
X-614Y-55617D01*
X0Y-55739D01*
X614Y-55617D01*
X1135Y-55269D01*
X1483Y-54748D01*
X1606Y-54134D01*
X1483Y-53519D01*
X1135Y-52999D01*
X614Y-52650D01*
X0Y-52528D01*
D02*
G37*
G36*
X107283Y-47306D02*
X106554Y-47451D01*
X105935Y-47864D01*
X105522Y-48483D01*
X105377Y-49213D01*
X105522Y-49942D01*
X105935Y-50561D01*
X106554Y-50974D01*
X107283Y-51119D01*
X108013Y-50974D01*
X108632Y-50561D01*
X109045Y-49942D01*
X109190Y-49213D01*
X109045Y-48483D01*
X108632Y-47864D01*
X108013Y-47451D01*
X107283Y-47306D01*
D02*
G37*
G36*
X-97441Y-47306D02*
X-98171Y-47451D01*
X-98789Y-47864D01*
X-99203Y-48483D01*
X-99348Y-49213D01*
X-99203Y-49942D01*
X-98789Y-50561D01*
X-98171Y-50974D01*
X-97441Y-51119D01*
X-96711Y-50974D01*
X-96093Y-50561D01*
X-95679Y-49942D01*
X-95534Y-49213D01*
X-95679Y-48483D01*
X-96093Y-47864D01*
X-96711Y-47451D01*
X-97441Y-47306D01*
D02*
G37*
G36*
X-136811Y-47607D02*
X-137425Y-47729D01*
X-137946Y-48077D01*
X-138294Y-48598D01*
X-138417Y-49213D01*
X-138294Y-49827D01*
X-137946Y-50348D01*
X-137425Y-50696D01*
X-136811Y-50818D01*
X-136197Y-50696D01*
X-135676Y-50348D01*
X-135328Y-49827D01*
X-135205Y-49213D01*
X-135328Y-48598D01*
X-135676Y-48077D01*
X-136197Y-47729D01*
X-136811Y-47607D01*
D02*
G37*
G36*
X93504Y-43670D02*
X92889Y-43792D01*
X92369Y-44140D01*
X92020Y-44661D01*
X91898Y-45276D01*
X92020Y-45890D01*
X92369Y-46411D01*
X92889Y-46759D01*
X93224Y-46826D01*
X93290Y-46839D01*
Y-47348D01*
X93224Y-47362D01*
X92774Y-47451D01*
X92156Y-47864D01*
X91742Y-48483D01*
X91597Y-49213D01*
X91742Y-49942D01*
X92156Y-50561D01*
X92774Y-50974D01*
X93504Y-51119D01*
X94234Y-50974D01*
X94852Y-50561D01*
X95266Y-49942D01*
X95411Y-49213D01*
X95266Y-48483D01*
X94852Y-47864D01*
X94234Y-47451D01*
X93784Y-47362D01*
X93718Y-47348D01*
Y-46839D01*
X93784Y-46826D01*
X94118Y-46759D01*
X94639Y-46411D01*
X94987Y-45890D01*
X95110Y-45276D01*
X94987Y-44661D01*
X94639Y-44140D01*
X94118Y-43792D01*
X93504Y-43670D01*
D02*
G37*
G36*
X-101378Y-50259D02*
X-102108Y-50404D01*
X-102726Y-50817D01*
X-103139Y-51436D01*
X-103285Y-52165D01*
X-103139Y-52895D01*
X-102726Y-53514D01*
X-102108Y-53927D01*
X-101378Y-54072D01*
X-100648Y-53927D01*
X-100030Y-53514D01*
X-99616Y-52895D01*
X-99471Y-52165D01*
X-99616Y-51436D01*
X-100030Y-50817D01*
X-100648Y-50404D01*
X-101378Y-50259D01*
D02*
G37*
G36*
X-24606Y-48591D02*
X-25221Y-48713D01*
X-25742Y-49062D01*
X-26090Y-49582D01*
X-26212Y-50197D01*
X-26090Y-50811D01*
X-25742Y-51332D01*
X-25221Y-51680D01*
X-24606Y-51802D01*
X-23992Y-51680D01*
X-23471Y-51332D01*
X-23123Y-50811D01*
X-23001Y-50197D01*
X-23123Y-49582D01*
X-23471Y-49062D01*
X-23992Y-48713D01*
X-24606Y-48591D01*
D02*
G37*
G36*
X84400D02*
X83785Y-48713D01*
X83264Y-49062D01*
X82916Y-49582D01*
X82794Y-50197D01*
X82916Y-50811D01*
X83264Y-51332D01*
X83785Y-51680D01*
X84400Y-51802D01*
X85014Y-51680D01*
X85535Y-51332D01*
X85883Y-50811D01*
X86005Y-50197D01*
X85883Y-49582D01*
X85535Y-49062D01*
X85014Y-48713D01*
X84400Y-48591D01*
D02*
G37*
G36*
X62008Y-56164D02*
X61278Y-56309D01*
X60660Y-56723D01*
X60246Y-57341D01*
X60101Y-58071D01*
X60246Y-58801D01*
X60660Y-59419D01*
X61278Y-59832D01*
X62008Y-59978D01*
X62738Y-59832D01*
X63356Y-59419D01*
X63769Y-58801D01*
X63915Y-58071D01*
X63769Y-57341D01*
X63356Y-56723D01*
X62738Y-56309D01*
X62008Y-56164D01*
D02*
G37*
G36*
X-48228Y-71229D02*
X-48843Y-71351D01*
X-49364Y-71699D01*
X-49712Y-72220D01*
X-49834Y-72835D01*
X-49712Y-73449D01*
X-49364Y-73970D01*
X-48843Y-74318D01*
X-48228Y-74440D01*
X-47614Y-74318D01*
X-47093Y-73970D01*
X-46745Y-73449D01*
X-46623Y-72835D01*
X-46745Y-72220D01*
X-47093Y-71699D01*
X-47614Y-71351D01*
X-48228Y-71229D01*
D02*
G37*
G36*
X19685Y-70245D02*
X19071Y-70367D01*
X18550Y-70715D01*
X18202Y-71236D01*
X18079Y-71850D01*
X18202Y-72465D01*
X18550Y-72986D01*
X19071Y-73334D01*
X19685Y-73456D01*
X20300Y-73334D01*
X20820Y-72986D01*
X21169Y-72465D01*
X21291Y-71850D01*
X21169Y-71236D01*
X20820Y-70715D01*
X20300Y-70367D01*
X19685Y-70245D01*
D02*
G37*
G36*
X-28543Y-68276D02*
X-29158Y-68398D01*
X-29679Y-68747D01*
X-30027Y-69267D01*
X-30149Y-69882D01*
X-30027Y-70496D01*
X-29679Y-71017D01*
X-29158Y-71365D01*
X-28543Y-71487D01*
X-27929Y-71365D01*
X-27408Y-71017D01*
X-27060Y-70496D01*
X-26938Y-69882D01*
X-27060Y-69267D01*
X-27408Y-68747D01*
X-27929Y-68398D01*
X-28543Y-68276D01*
D02*
G37*
G36*
X148622Y-72213D02*
X148008Y-72335D01*
X147487Y-72684D01*
X147139Y-73204D01*
X147016Y-73819D01*
X147139Y-74433D01*
X147487Y-74954D01*
X148008Y-75302D01*
X148622Y-75424D01*
X149237Y-75302D01*
X149757Y-74954D01*
X150106Y-74433D01*
X150228Y-73819D01*
X150106Y-73204D01*
X149757Y-72684D01*
X149237Y-72335D01*
X148622Y-72213D01*
D02*
G37*
G36*
X-69882Y-71229D02*
X-70496Y-71351D01*
X-71017Y-71699D01*
X-71365Y-72220D01*
X-71487Y-72835D01*
X-71365Y-73449D01*
X-71017Y-73970D01*
X-70496Y-74318D01*
X-69882Y-74440D01*
X-69267Y-74318D01*
X-68747Y-73970D01*
X-68398Y-73449D01*
X-68276Y-72835D01*
X-68398Y-72220D01*
X-68747Y-71699D01*
X-69267Y-71351D01*
X-69882Y-71229D01*
D02*
G37*
G36*
X-58071D02*
X-58685Y-71351D01*
X-59206Y-71699D01*
X-59554Y-72220D01*
X-59676Y-72835D01*
X-59554Y-73449D01*
X-59206Y-73970D01*
X-58685Y-74318D01*
X-58071Y-74440D01*
X-57456Y-74318D01*
X-56936Y-73970D01*
X-56587Y-73449D01*
X-56465Y-72835D01*
X-56587Y-72220D01*
X-56936Y-71699D01*
X-57456Y-71351D01*
X-58071Y-71229D01*
D02*
G37*
G36*
X-15748Y-66991D02*
X-16478Y-67136D01*
X-17096Y-67549D01*
X-17510Y-68168D01*
X-17655Y-68898D01*
X-17510Y-69627D01*
X-17096Y-70246D01*
X-16478Y-70659D01*
X-15748Y-70804D01*
X-15018Y-70659D01*
X-14400Y-70246D01*
X-13986Y-69627D01*
X-13841Y-68898D01*
X-13986Y-68168D01*
X-14400Y-67549D01*
X-15018Y-67136D01*
X-15748Y-66991D01*
D02*
G37*
G36*
X11811Y-64038D02*
X11081Y-64183D01*
X10463Y-64597D01*
X10049Y-65215D01*
X9904Y-65945D01*
X10049Y-66675D01*
X10463Y-67293D01*
X11081Y-67707D01*
X11811Y-67852D01*
X12541Y-67707D01*
X13159Y-67293D01*
X13573Y-66675D01*
X13718Y-65945D01*
X13573Y-65215D01*
X13159Y-64597D01*
X12541Y-64183D01*
X11811Y-64038D01*
D02*
G37*
G36*
X39862Y-56102D02*
X31004D01*
X28543Y-58563D01*
Y-61516D01*
X26575Y-63484D01*
X26575Y-65453D01*
X24606Y-67421D01*
Y-78248D01*
X29035Y-82677D01*
X39191D01*
X39528Y-83177D01*
X39432Y-83661D01*
X39577Y-84391D01*
X39990Y-85010D01*
X40609Y-85423D01*
X41339Y-85568D01*
X42068Y-85423D01*
X42687Y-85010D01*
X43100Y-84391D01*
X43245Y-83661D01*
X43100Y-82932D01*
X42687Y-82313D01*
X42643Y-81865D01*
X43281Y-81227D01*
X43799Y-81330D01*
X44414Y-81208D01*
X44935Y-80860D01*
X45283Y-80339D01*
X45405Y-79724D01*
X45384Y-79619D01*
X45701Y-79232D01*
X52658D01*
X53642Y-78248D01*
Y-73819D01*
X52658Y-72835D01*
X46752D01*
X46260Y-72342D01*
X45295D01*
X45295Y-72342D01*
X45276Y-72342D01*
X45276Y-72835D01*
X45283Y-72843D01*
X46260Y-73819D01*
X52165D01*
X52658Y-74311D01*
X52658Y-77756D01*
X52165Y-78248D01*
X44783D01*
X44640Y-78392D01*
X44414Y-78241D01*
X43799Y-78119D01*
X43185Y-78241D01*
X42664Y-78589D01*
X42316Y-79110D01*
X42194Y-79724D01*
X42316Y-80339D01*
X42467Y-80565D01*
X41339Y-81693D01*
X29528D01*
X25591Y-77756D01*
Y-67913D01*
X27559Y-65945D01*
Y-63976D01*
X29528Y-62008D01*
Y-59055D01*
X31496Y-57087D01*
X39370D01*
X41339Y-59055D01*
Y-62008D01*
X43307Y-63976D01*
Y-65453D01*
X44291D01*
Y-63484D01*
X42323Y-61516D01*
X42323Y-58563D01*
X39862Y-56102D01*
D02*
G37*
G36*
X94488Y-60402D02*
X93874Y-60524D01*
X93353Y-60873D01*
X93005Y-61393D01*
X92883Y-62008D01*
X93005Y-62622D01*
X93353Y-63143D01*
X93874Y-63491D01*
X94488Y-63613D01*
X95103Y-63491D01*
X95624Y-63143D01*
X95972Y-62622D01*
X96094Y-62008D01*
X95972Y-61393D01*
X95624Y-60873D01*
X95103Y-60524D01*
X94488Y-60402D01*
D02*
G37*
G36*
X98425Y-66308D02*
X97811Y-66430D01*
X97290Y-66778D01*
X96942Y-67299D01*
X96820Y-67913D01*
X96942Y-68528D01*
X97290Y-69049D01*
X97811Y-69397D01*
X98425Y-69519D01*
X99040Y-69397D01*
X99561Y-69049D01*
X99909Y-68528D01*
X100031Y-67913D01*
X99909Y-67299D01*
X99561Y-66778D01*
X99040Y-66430D01*
X98425Y-66308D01*
D02*
G37*
G36*
X-31496Y-65324D02*
X-32111Y-65446D01*
X-32631Y-65794D01*
X-32980Y-66315D01*
X-33102Y-66929D01*
X-32980Y-67544D01*
X-32631Y-68064D01*
X-32111Y-68413D01*
X-31496Y-68535D01*
X-30882Y-68413D01*
X-30361Y-68064D01*
X-30013Y-67544D01*
X-29890Y-66929D01*
X-30013Y-66315D01*
X-30361Y-65794D01*
X-30882Y-65446D01*
X-31496Y-65324D01*
D02*
G37*
G36*
X-11811Y-64038D02*
X-12541Y-64183D01*
X-13159Y-64597D01*
X-13573Y-65215D01*
X-13718Y-65945D01*
X-13573Y-66675D01*
X-13159Y-67293D01*
X-12541Y-67707D01*
X-11811Y-67852D01*
X-11081Y-67707D01*
X-10463Y-67293D01*
X-10049Y-66675D01*
X-9904Y-65945D01*
X-10049Y-65215D01*
X-10463Y-64597D01*
X-11081Y-64183D01*
X-11811Y-64038D01*
D02*
G37*
G36*
X-36417Y-46322D02*
X-37147Y-46467D01*
X-37766Y-46880D01*
X-38179Y-47499D01*
X-38324Y-48228D01*
X-38179Y-48958D01*
X-37766Y-49577D01*
X-37147Y-49990D01*
X-36417Y-50135D01*
X-35688Y-49990D01*
X-35069Y-49577D01*
X-34656Y-48958D01*
X-34511Y-48228D01*
X-34656Y-47499D01*
X-35069Y-46880D01*
X-35688Y-46467D01*
X-36417Y-46322D01*
D02*
G37*
G36*
X57087Y-19064D02*
X56472Y-19186D01*
X55951Y-19534D01*
X55603Y-20055D01*
X55481Y-20669D01*
X55603Y-21284D01*
X55951Y-21805D01*
X56472Y-22153D01*
X57087Y-22275D01*
X57701Y-22153D01*
X58222Y-21805D01*
X58570Y-21284D01*
X58692Y-20669D01*
X58570Y-20055D01*
X58222Y-19534D01*
X57701Y-19186D01*
X57087Y-19064D01*
D02*
G37*
G36*
X-77756Y-17778D02*
X-78486Y-17923D01*
X-79104Y-18337D01*
X-79518Y-18955D01*
X-79663Y-19685D01*
X-79518Y-20415D01*
X-79104Y-21033D01*
X-78486Y-21447D01*
X-77756Y-21592D01*
X-77026Y-21447D01*
X-76408Y-21033D01*
X-75994Y-20415D01*
X-75849Y-19685D01*
X-75994Y-18955D01*
X-76408Y-18337D01*
X-77026Y-17923D01*
X-77756Y-17778D01*
D02*
G37*
G36*
X-24606D02*
X-25336Y-17923D01*
X-25955Y-18337D01*
X-26368Y-18955D01*
X-26513Y-19685D01*
X-26368Y-20415D01*
X-25955Y-21033D01*
X-25336Y-21447D01*
X-24606Y-21592D01*
X-23877Y-21447D01*
X-23258Y-21033D01*
X-22845Y-20415D01*
X-22700Y-19685D01*
X-22845Y-18955D01*
X-23258Y-18337D01*
X-23877Y-17923D01*
X-24606Y-17778D01*
D02*
G37*
G36*
X-77756Y-23684D02*
X-78486Y-23829D01*
X-79104Y-24242D01*
X-79518Y-24861D01*
X-79663Y-25591D01*
X-79518Y-26320D01*
X-79104Y-26939D01*
X-78486Y-27352D01*
X-77756Y-27497D01*
X-77026Y-27352D01*
X-76408Y-26939D01*
X-75994Y-26320D01*
X-75849Y-25591D01*
X-75994Y-24861D01*
X-76408Y-24242D01*
X-77026Y-23829D01*
X-77756Y-23684D01*
D02*
G37*
G36*
X-30512Y-23001D02*
X-31126Y-23123D01*
X-31647Y-23471D01*
X-31995Y-23992D01*
X-32118Y-24606D01*
X-31995Y-25221D01*
X-31647Y-25742D01*
X-31126Y-26090D01*
X-30512Y-26212D01*
X-29897Y-26090D01*
X-29376Y-25742D01*
X-29028Y-25221D01*
X-28906Y-24606D01*
X-29028Y-23992D01*
X-29376Y-23471D01*
X-29897Y-23123D01*
X-30512Y-23001D01*
D02*
G37*
G36*
X40354Y-20731D02*
X39625Y-20876D01*
X39006Y-21290D01*
X38593Y-21908D01*
X38448Y-22638D01*
X38593Y-23368D01*
X39006Y-23986D01*
X39625Y-24399D01*
X40354Y-24544D01*
X41084Y-24399D01*
X41703Y-23986D01*
X42116Y-23368D01*
X42261Y-22638D01*
X42116Y-21908D01*
X41703Y-21290D01*
X41084Y-20876D01*
X40354Y-20731D01*
D02*
G37*
G36*
X93504Y-18079D02*
X92889Y-18202D01*
X92369Y-18550D01*
X92020Y-19071D01*
X91898Y-19685D01*
X92020Y-20300D01*
X92369Y-20820D01*
X92889Y-21169D01*
X93504Y-21291D01*
X94118Y-21169D01*
X94639Y-20820D01*
X94987Y-20300D01*
X95110Y-19685D01*
X94987Y-19071D01*
X94639Y-18550D01*
X94118Y-18202D01*
X93504Y-18079D01*
D02*
G37*
G36*
X-24606Y-11873D02*
X-25336Y-12018D01*
X-25955Y-12431D01*
X-26368Y-13050D01*
X-26513Y-13780D01*
X-26368Y-14509D01*
X-25955Y-15128D01*
X-25336Y-15541D01*
X-24606Y-15686D01*
X-23877Y-15541D01*
X-23258Y-15128D01*
X-22845Y-14509D01*
X-22700Y-13780D01*
X-22845Y-13050D01*
X-23258Y-12431D01*
X-23877Y-12018D01*
X-24606Y-11873D01*
D02*
G37*
G36*
X-101378Y-12174D02*
X-101992Y-12296D01*
X-102513Y-12644D01*
X-102861Y-13165D01*
X-102984Y-13780D01*
X-102861Y-14394D01*
X-102513Y-14915D01*
X-101992Y-15263D01*
X-101378Y-15385D01*
X-100763Y-15263D01*
X-100243Y-14915D01*
X-99894Y-14394D01*
X-99772Y-13780D01*
X-99894Y-13165D01*
X-100243Y-12644D01*
X-100763Y-12296D01*
X-101378Y-12174D01*
D02*
G37*
G36*
X93504D02*
X92889Y-12296D01*
X92369Y-12644D01*
X92020Y-13165D01*
X91898Y-13780D01*
X92020Y-14394D01*
X92369Y-14915D01*
X92889Y-15263D01*
X93504Y-15385D01*
X94118Y-15263D01*
X94639Y-14915D01*
X94987Y-14394D01*
X95110Y-13780D01*
X94987Y-13165D01*
X94639Y-12644D01*
X94118Y-12296D01*
X93504Y-12174D01*
D02*
G37*
G36*
X119095Y-18079D02*
X118480Y-18202D01*
X117959Y-18550D01*
X117611Y-19071D01*
X117489Y-19685D01*
X117611Y-20300D01*
X117959Y-20820D01*
X118480Y-21169D01*
X119095Y-21291D01*
X119709Y-21169D01*
X120230Y-20820D01*
X120578Y-20300D01*
X120700Y-19685D01*
X120578Y-19071D01*
X120230Y-18550D01*
X119709Y-18202D01*
X119095Y-18079D01*
D02*
G37*
G36*
X78740Y-16111D02*
X78126Y-16233D01*
X77605Y-16581D01*
X77257Y-17102D01*
X77135Y-17717D01*
X77257Y-18331D01*
X77605Y-18852D01*
X78126Y-19200D01*
X78740Y-19322D01*
X79355Y-19200D01*
X79875Y-18852D01*
X80224Y-18331D01*
X80346Y-17717D01*
X80224Y-17102D01*
X79875Y-16581D01*
X79355Y-16233D01*
X78740Y-16111D01*
D02*
G37*
G36*
X40354Y-14826D02*
X39625Y-14971D01*
X39006Y-15384D01*
X38593Y-16003D01*
X38448Y-16732D01*
X38593Y-17462D01*
X39006Y-18080D01*
X39625Y-18494D01*
X40354Y-18639D01*
X41084Y-18494D01*
X41703Y-18080D01*
X42116Y-17462D01*
X42261Y-16732D01*
X42116Y-16003D01*
X41703Y-15384D01*
X41084Y-14971D01*
X40354Y-14826D01*
D02*
G37*
G36*
X37402Y-24668D02*
X36672Y-24813D01*
X36053Y-25227D01*
X35640Y-25845D01*
X35495Y-26575D01*
X35640Y-27305D01*
X36053Y-27923D01*
X36672Y-28336D01*
X37402Y-28482D01*
X38131Y-28336D01*
X38750Y-27923D01*
X39163Y-27305D01*
X39308Y-26575D01*
X39163Y-25845D01*
X38750Y-25227D01*
X38131Y-24813D01*
X37402Y-24668D01*
D02*
G37*
G36*
X77756Y-37463D02*
X77026Y-37609D01*
X76408Y-38022D01*
X75994Y-38640D01*
X75849Y-39370D01*
X75994Y-40100D01*
X76408Y-40718D01*
X77026Y-41132D01*
X77756Y-41277D01*
X78486Y-41132D01*
X79104Y-40718D01*
X79518Y-40100D01*
X79663Y-39370D01*
X79518Y-38640D01*
X79104Y-38022D01*
X78486Y-37609D01*
X77756Y-37463D01*
D02*
G37*
G36*
X-14764Y-36479D02*
X-15494Y-36624D01*
X-16112Y-37038D01*
X-16525Y-37656D01*
X-16670Y-38386D01*
X-16525Y-39116D01*
X-16112Y-39734D01*
X-15494Y-40147D01*
X-14764Y-40293D01*
X-14034Y-40147D01*
X-13416Y-39734D01*
X-13002Y-39116D01*
X-12857Y-38386D01*
X-13002Y-37656D01*
X-13416Y-37038D01*
X-14034Y-36624D01*
X-14764Y-36479D01*
D02*
G37*
G36*
X93504Y-35796D02*
X92889Y-35918D01*
X92369Y-36266D01*
X92020Y-36787D01*
X91898Y-37402D01*
X92020Y-38016D01*
X92369Y-38537D01*
X92889Y-38885D01*
X93504Y-39007D01*
X94118Y-38885D01*
X94639Y-38537D01*
X94987Y-38016D01*
X95110Y-37402D01*
X94987Y-36787D01*
X94639Y-36266D01*
X94118Y-35918D01*
X93504Y-35796D01*
D02*
G37*
G36*
X-142717Y-41701D02*
X-143331Y-41824D01*
X-143852Y-42172D01*
X-144200Y-42693D01*
X-144322Y-43307D01*
X-144200Y-43922D01*
X-143852Y-44442D01*
X-143331Y-44791D01*
X-142717Y-44913D01*
X-142102Y-44791D01*
X-141581Y-44442D01*
X-141233Y-43922D01*
X-141111Y-43307D01*
X-141233Y-42693D01*
X-141581Y-42172D01*
X-142102Y-41824D01*
X-142717Y-41701D01*
D02*
G37*
G36*
X93504Y-39733D02*
X92889Y-39855D01*
X92369Y-40203D01*
X92020Y-40724D01*
X91898Y-41339D01*
X92020Y-41953D01*
X92369Y-42474D01*
X92889Y-42822D01*
X93504Y-42944D01*
X94118Y-42822D01*
X94639Y-42474D01*
X94987Y-41953D01*
X95110Y-41339D01*
X94987Y-40724D01*
X94639Y-40203D01*
X94118Y-39855D01*
X93504Y-39733D01*
D02*
G37*
G36*
X48228Y-37463D02*
X47499Y-37609D01*
X46880Y-38022D01*
X46467Y-38640D01*
X46322Y-39370D01*
X46467Y-40100D01*
X46880Y-40718D01*
X47499Y-41132D01*
X48228Y-41277D01*
X48958Y-41132D01*
X49577Y-40718D01*
X49990Y-40100D01*
X50135Y-39370D01*
X49990Y-38640D01*
X49577Y-38022D01*
X48958Y-37609D01*
X48228Y-37463D01*
D02*
G37*
G36*
X-87598Y-35796D02*
X-88213Y-35918D01*
X-88734Y-36266D01*
X-89082Y-36787D01*
X-89204Y-37402D01*
X-89082Y-38016D01*
X-88734Y-38537D01*
X-88213Y-38885D01*
X-87598Y-39007D01*
X-86984Y-38885D01*
X-86463Y-38537D01*
X-86115Y-38016D01*
X-85993Y-37402D01*
X-86115Y-36787D01*
X-86463Y-36266D01*
X-86984Y-35918D01*
X-87598Y-35796D01*
D02*
G37*
G36*
X-157480Y-29589D02*
X-158210Y-29735D01*
X-158829Y-30148D01*
X-159242Y-30766D01*
X-159387Y-31496D01*
X-159242Y-32226D01*
X-158829Y-32844D01*
X-158210Y-33258D01*
X-157480Y-33403D01*
X-156751Y-33258D01*
X-156132Y-32844D01*
X-155719Y-32226D01*
X-155574Y-31496D01*
X-155719Y-30766D01*
X-156132Y-30148D01*
X-156751Y-29735D01*
X-157480Y-29589D01*
D02*
G37*
G36*
X-130905Y-29890D02*
X-131520Y-30013D01*
X-132041Y-30361D01*
X-132389Y-30882D01*
X-132511Y-31496D01*
X-132389Y-32111D01*
X-132041Y-32631D01*
X-131520Y-32980D01*
X-130905Y-33102D01*
X-130291Y-32980D01*
X-129770Y-32631D01*
X-129422Y-32111D01*
X-129300Y-31496D01*
X-129422Y-30882D01*
X-129770Y-30361D01*
X-130291Y-30013D01*
X-130905Y-29890D01*
D02*
G37*
G36*
X-119095Y-21715D02*
X-119824Y-21860D01*
X-120443Y-22274D01*
X-120856Y-22892D01*
X-121001Y-23622D01*
X-120856Y-24352D01*
X-120443Y-24970D01*
X-119930Y-25313D01*
X-119890Y-25496D01*
Y-25685D01*
X-119930Y-25868D01*
X-120443Y-26211D01*
X-120856Y-26829D01*
X-121001Y-27559D01*
X-120856Y-28289D01*
X-120443Y-28907D01*
X-119824Y-29321D01*
X-119375Y-29410D01*
X-119309Y-29423D01*
Y-29933D01*
X-119375Y-29946D01*
X-119709Y-30013D01*
X-120230Y-30361D01*
X-120578Y-30882D01*
X-120700Y-31496D01*
X-120578Y-32111D01*
X-120230Y-32631D01*
X-119709Y-32980D01*
X-119095Y-33102D01*
X-118480Y-32980D01*
X-117959Y-32631D01*
X-117611Y-32111D01*
X-117489Y-31496D01*
X-117611Y-30882D01*
X-117959Y-30361D01*
X-118480Y-30013D01*
X-118814Y-29946D01*
X-118880Y-29933D01*
Y-29423D01*
X-118814Y-29410D01*
X-118365Y-29321D01*
X-117746Y-28907D01*
X-117333Y-28289D01*
X-117188Y-27559D01*
X-117333Y-26829D01*
X-117746Y-26211D01*
X-118259Y-25868D01*
X-118299Y-25685D01*
Y-25496D01*
X-118259Y-25313D01*
X-117746Y-24970D01*
X-117333Y-24352D01*
X-117188Y-23622D01*
X-117333Y-22892D01*
X-117746Y-22274D01*
X-118365Y-21860D01*
X-119095Y-21715D01*
D02*
G37*
G36*
X-42323Y-33526D02*
X-43053Y-33672D01*
X-43671Y-34085D01*
X-44084Y-34703D01*
X-44230Y-35433D01*
X-44084Y-36163D01*
X-43671Y-36781D01*
X-43053Y-37195D01*
X-42323Y-37340D01*
X-41593Y-37195D01*
X-40975Y-36781D01*
X-40561Y-36163D01*
X-40416Y-35433D01*
X-40561Y-34703D01*
X-40975Y-34085D01*
X-41593Y-33672D01*
X-42323Y-33526D01*
D02*
G37*
G36*
X-128937Y-33827D02*
X-129551Y-33950D01*
X-130072Y-34298D01*
X-130420Y-34819D01*
X-130543Y-35433D01*
X-130420Y-36048D01*
X-130072Y-36568D01*
X-129551Y-36917D01*
X-128937Y-37039D01*
X-128323Y-36917D01*
X-127802Y-36568D01*
X-127454Y-36048D01*
X-127331Y-35433D01*
X-127454Y-34819D01*
X-127802Y-34298D01*
X-128323Y-33950D01*
X-128937Y-33827D01*
D02*
G37*
G36*
X93504Y-31859D02*
X92889Y-31981D01*
X92369Y-32329D01*
X92020Y-32850D01*
X91898Y-33465D01*
X92020Y-34079D01*
X92369Y-34600D01*
X92889Y-34948D01*
X93504Y-35070D01*
X94118Y-34948D01*
X94639Y-34600D01*
X94987Y-34079D01*
X95110Y-33465D01*
X94987Y-32850D01*
X94639Y-32329D01*
X94118Y-31981D01*
X93504Y-31859D01*
D02*
G37*
G36*
X135827Y-97804D02*
X135212Y-97926D01*
X134691Y-98274D01*
X134343Y-98795D01*
X134221Y-99410D01*
X134343Y-100024D01*
X134691Y-100545D01*
X135212Y-100893D01*
X135827Y-101015D01*
X136441Y-100893D01*
X136962Y-100545D01*
X137310Y-100024D01*
X137432Y-99410D01*
X137310Y-98795D01*
X136962Y-98274D01*
X136441Y-97926D01*
X135827Y-97804D01*
D02*
G37*
G36*
X-139764Y-94851D02*
X-140378Y-94973D01*
X-140899Y-95321D01*
X-141247Y-95842D01*
X-141369Y-96457D01*
X-141247Y-97071D01*
X-140899Y-97592D01*
X-140378Y-97940D01*
X-139764Y-98062D01*
X-139149Y-97940D01*
X-138628Y-97592D01*
X-138280Y-97071D01*
X-138158Y-96457D01*
X-138280Y-95842D01*
X-138628Y-95321D01*
X-139149Y-94973D01*
X-139764Y-94851D01*
D02*
G37*
G36*
X41339Y-93867D02*
X40724Y-93989D01*
X40203Y-94337D01*
X39855Y-94858D01*
X39733Y-95472D01*
X39855Y-96087D01*
X40203Y-96608D01*
X40724Y-96956D01*
X41339Y-97078D01*
X41953Y-96956D01*
X42474Y-96608D01*
X42822Y-96087D01*
X42944Y-95472D01*
X42822Y-94858D01*
X42474Y-94337D01*
X41953Y-93989D01*
X41339Y-93867D01*
D02*
G37*
G36*
X102362Y-97804D02*
X101748Y-97926D01*
X101227Y-98274D01*
X100879Y-98795D01*
X100757Y-99410D01*
X100879Y-100024D01*
X101227Y-100545D01*
X101748Y-100893D01*
X102362Y-101015D01*
X102977Y-100893D01*
X103498Y-100545D01*
X103846Y-100024D01*
X103968Y-99410D01*
X103846Y-98795D01*
X103498Y-98274D01*
X102977Y-97926D01*
X102362Y-97804D01*
D02*
G37*
G36*
X116142D02*
X115527Y-97926D01*
X115006Y-98274D01*
X114658Y-98795D01*
X114536Y-99410D01*
X114658Y-100024D01*
X115006Y-100545D01*
X115527Y-100893D01*
X116142Y-101015D01*
X116756Y-100893D01*
X117277Y-100545D01*
X117625Y-100024D01*
X117747Y-99410D01*
X117625Y-98795D01*
X117277Y-98274D01*
X116756Y-97926D01*
X116142Y-97804D01*
D02*
G37*
G36*
X127953D02*
X127338Y-97926D01*
X126817Y-98274D01*
X126469Y-98795D01*
X126347Y-99410D01*
X126469Y-100024D01*
X126817Y-100545D01*
X127338Y-100893D01*
X127953Y-101015D01*
X128567Y-100893D01*
X129088Y-100545D01*
X129436Y-100024D01*
X129558Y-99410D01*
X129436Y-98795D01*
X129088Y-98274D01*
X128567Y-97926D01*
X127953Y-97804D01*
D02*
G37*
G36*
X142717Y-91597D02*
X141987Y-91742D01*
X141368Y-92156D01*
X140955Y-92774D01*
X140810Y-93504D01*
X140955Y-94234D01*
X141368Y-94852D01*
X141987Y-95266D01*
X142717Y-95411D01*
X143446Y-95266D01*
X144065Y-94852D01*
X144478Y-94234D01*
X144623Y-93504D01*
X144478Y-92774D01*
X144065Y-92156D01*
X143446Y-91742D01*
X142717Y-91597D01*
D02*
G37*
G36*
X127756Y-88158D02*
X127141Y-88280D01*
X126620Y-88628D01*
X126272Y-89149D01*
X126150Y-89764D01*
X126272Y-90378D01*
X126620Y-90899D01*
X127141Y-91247D01*
X127756Y-91369D01*
X128370Y-91247D01*
X128891Y-90899D01*
X129239Y-90378D01*
X129362Y-89764D01*
X129239Y-89149D01*
X128891Y-88628D01*
X128370Y-88280D01*
X127756Y-88158D01*
D02*
G37*
G36*
X132087D02*
X131472Y-88280D01*
X130951Y-88628D01*
X130603Y-89149D01*
X130481Y-89764D01*
X130603Y-90378D01*
X130951Y-90899D01*
X131472Y-91247D01*
X132087Y-91369D01*
X132701Y-91247D01*
X133222Y-90899D01*
X133570Y-90378D01*
X133692Y-89764D01*
X133570Y-89149D01*
X133222Y-88628D01*
X132701Y-88280D01*
X132087Y-88158D01*
D02*
G37*
G36*
X19685Y-85009D02*
X19071Y-85131D01*
X18550Y-85479D01*
X18202Y-86000D01*
X18079Y-86614D01*
X18202Y-87229D01*
X18550Y-87749D01*
X19071Y-88098D01*
X19685Y-88220D01*
X20300Y-88098D01*
X20820Y-87749D01*
X21169Y-87229D01*
X21291Y-86614D01*
X21169Y-86000D01*
X20820Y-85479D01*
X20300Y-85131D01*
X19685Y-85009D01*
D02*
G37*
G36*
X-112205Y-90914D02*
X-112819Y-91036D01*
X-113340Y-91384D01*
X-113688Y-91905D01*
X-113810Y-92520D01*
X-113688Y-93134D01*
X-113340Y-93655D01*
X-112819Y-94003D01*
X-112205Y-94125D01*
X-111590Y-94003D01*
X-111069Y-93655D01*
X-110721Y-93134D01*
X-110599Y-92520D01*
X-110721Y-91905D01*
X-111069Y-91384D01*
X-111590Y-91036D01*
X-112205Y-90914D01*
D02*
G37*
G36*
X108071Y-88158D02*
X107456Y-88280D01*
X106936Y-88628D01*
X106587Y-89149D01*
X106465Y-89764D01*
X106587Y-90378D01*
X106936Y-90899D01*
X107456Y-91247D01*
X108071Y-91369D01*
X108685Y-91247D01*
X109206Y-90899D01*
X109554Y-90378D01*
X109677Y-89764D01*
X109554Y-89149D01*
X109206Y-88628D01*
X108685Y-88280D01*
X108071Y-88158D01*
D02*
G37*
G36*
X112402D02*
X111787Y-88280D01*
X111266Y-88628D01*
X110918Y-89149D01*
X110796Y-89764D01*
X110918Y-90378D01*
X111266Y-90899D01*
X111787Y-91247D01*
X112402Y-91369D01*
X113016Y-91247D01*
X113537Y-90899D01*
X113885Y-90378D01*
X114007Y-89764D01*
X113885Y-89149D01*
X113537Y-88628D01*
X113016Y-88280D01*
X112402Y-88158D01*
D02*
G37*
G36*
X69882Y-99471D02*
X69152Y-99616D01*
X68534Y-100030D01*
X68120Y-100648D01*
X67975Y-101378D01*
X68120Y-102108D01*
X68534Y-102726D01*
X69152Y-103139D01*
X69882Y-103285D01*
X70612Y-103139D01*
X71230Y-102726D01*
X71644Y-102108D01*
X71789Y-101378D01*
X71644Y-100648D01*
X71230Y-100030D01*
X70612Y-99616D01*
X69882Y-99471D01*
D02*
G37*
G36*
X-93996Y-123524D02*
X-98981D01*
X-98924Y-123957D01*
X-98567Y-124818D01*
X-98000Y-125559D01*
X-97259Y-126127D01*
X-96397Y-126484D01*
X-95473Y-126605D01*
X-93996D01*
Y-123524D01*
D02*
G37*
G36*
X-125984Y-121214D02*
X-126906Y-121397D01*
X-127687Y-121919D01*
X-128209Y-122700D01*
X-128393Y-123622D01*
X-128209Y-124544D01*
X-127687Y-125325D01*
X-126906Y-125847D01*
X-125984Y-126031D01*
X-125063Y-125847D01*
X-124281Y-125325D01*
X-123759Y-124544D01*
X-123576Y-123622D01*
X-123759Y-122700D01*
X-124281Y-121919D01*
X-125063Y-121397D01*
X-125984Y-121214D01*
D02*
G37*
G36*
X-93996Y-119458D02*
X-95473D01*
X-96397Y-119579D01*
X-97259Y-119936D01*
X-98000Y-120504D01*
X-98567Y-121245D01*
X-98924Y-122107D01*
X-98981Y-122539D01*
X-93996D01*
Y-119458D01*
D02*
G37*
G36*
X-186614Y-129680D02*
X-188428Y-129858D01*
X-190172Y-130387D01*
X-191779Y-131246D01*
X-193188Y-132403D01*
X-194344Y-133811D01*
X-195203Y-135419D01*
X-195732Y-137163D01*
X-195911Y-138976D01*
X-195732Y-140790D01*
X-195203Y-142534D01*
X-194344Y-144141D01*
X-193188Y-145550D01*
X-191779Y-146706D01*
X-190172Y-147565D01*
X-188428Y-148094D01*
X-186614Y-148273D01*
X-184801Y-148094D01*
X-183057Y-147565D01*
X-181449Y-146706D01*
X-180041Y-145550D01*
X-178884Y-144141D01*
X-178025Y-142534D01*
X-177496Y-140790D01*
X-177318Y-138976D01*
X-177496Y-137163D01*
X-178025Y-135419D01*
X-178884Y-133811D01*
X-180041Y-132403D01*
X-181449Y-131246D01*
X-183057Y-130387D01*
X-184801Y-129858D01*
X-186614Y-129680D01*
D02*
G37*
G36*
X-125984Y-140899D02*
X-126906Y-141082D01*
X-127687Y-141604D01*
X-128209Y-142385D01*
X-128393Y-143307D01*
X-128209Y-144229D01*
X-127687Y-145010D01*
X-126906Y-145532D01*
X-125984Y-145716D01*
X-125063Y-145532D01*
X-124281Y-145010D01*
X-123759Y-144229D01*
X-123576Y-143307D01*
X-123759Y-142385D01*
X-124281Y-141604D01*
X-125063Y-141082D01*
X-125984Y-140899D01*
D02*
G37*
G36*
X-91535Y-127530D02*
X-95473D01*
X-96346Y-127645D01*
X-97160Y-127982D01*
X-97859Y-128519D01*
X-98396Y-129218D01*
X-98733Y-130032D01*
X-98848Y-130905D01*
X-98733Y-131779D01*
X-98396Y-132593D01*
X-97859Y-133292D01*
X-97160Y-133829D01*
X-96346Y-134166D01*
X-95473Y-134281D01*
X-91535D01*
X-90662Y-134166D01*
X-89848Y-133829D01*
X-89149Y-133292D01*
X-88612Y-132593D01*
X-88275Y-131779D01*
X-88160Y-130905D01*
X-88275Y-130032D01*
X-88612Y-129218D01*
X-89149Y-128519D01*
X-89848Y-127982D01*
X-90662Y-127645D01*
X-91535Y-127530D01*
D02*
G37*
G36*
X-158465Y-107646D02*
X-159079Y-107768D01*
X-159600Y-108117D01*
X-159948Y-108637D01*
X-160070Y-109252D01*
X-159948Y-109866D01*
X-159600Y-110387D01*
X-159079Y-110735D01*
X-158465Y-110858D01*
X-157850Y-110735D01*
X-157329Y-110387D01*
X-156981Y-109866D01*
X-156859Y-109252D01*
X-156981Y-108637D01*
X-157329Y-108117D01*
X-157850Y-107768D01*
X-158465Y-107646D01*
D02*
G37*
G36*
X0Y-102725D02*
X-614Y-102847D01*
X-1135Y-103195D01*
X-1483Y-103716D01*
X-1606Y-104331D01*
X-1483Y-104945D01*
X-1135Y-105466D01*
X-614Y-105814D01*
X0Y-105936D01*
X614Y-105814D01*
X1135Y-105466D01*
X1483Y-104945D01*
X1606Y-104331D01*
X1483Y-103716D01*
X1135Y-103195D01*
X614Y-102847D01*
X0Y-102725D01*
D02*
G37*
G36*
X94488Y-100757D02*
X93874Y-100879D01*
X93353Y-101227D01*
X93005Y-101748D01*
X92883Y-102362D01*
X93005Y-102977D01*
X93353Y-103498D01*
X93874Y-103846D01*
X94488Y-103968D01*
X95103Y-103846D01*
X95624Y-103498D01*
X95972Y-102977D01*
X96094Y-102362D01*
X95972Y-101748D01*
X95624Y-101227D01*
X95103Y-100879D01*
X94488Y-100757D01*
D02*
G37*
G36*
X99410D02*
X98795Y-100879D01*
X98274Y-101227D01*
X97926Y-101748D01*
X97804Y-102362D01*
X97926Y-102977D01*
X98274Y-103498D01*
X98795Y-103846D01*
X99410Y-103968D01*
X100024Y-103846D01*
X100545Y-103498D01*
X100893Y-102977D01*
X101015Y-102362D01*
X100893Y-101748D01*
X100545Y-101227D01*
X100024Y-100879D01*
X99410Y-100757D01*
D02*
G37*
G36*
X-107283Y-107646D02*
X-107898Y-107768D01*
X-108419Y-108117D01*
X-108767Y-108637D01*
X-108889Y-109252D01*
X-108767Y-109866D01*
X-108419Y-110387D01*
X-107898Y-110735D01*
X-107283Y-110858D01*
X-106669Y-110735D01*
X-106148Y-110387D01*
X-105800Y-109866D01*
X-105678Y-109252D01*
X-105800Y-108637D01*
X-106148Y-108117D01*
X-106669Y-107768D01*
X-107283Y-107646D01*
D02*
G37*
G36*
X-93504D02*
X-94118Y-107768D01*
X-94639Y-108117D01*
X-94987Y-108637D01*
X-95110Y-109252D01*
X-94987Y-109866D01*
X-94639Y-110387D01*
X-94118Y-110735D01*
X-93504Y-110858D01*
X-92889Y-110735D01*
X-92369Y-110387D01*
X-92020Y-109866D01*
X-91898Y-109252D01*
X-92020Y-108637D01*
X-92369Y-108117D01*
X-92889Y-107768D01*
X-93504Y-107646D01*
D02*
G37*
G36*
X112205Y-103709D02*
X111590Y-103832D01*
X111069Y-104180D01*
X110721Y-104701D01*
X110599Y-105315D01*
X110721Y-105929D01*
X111069Y-106450D01*
X111590Y-106798D01*
X112205Y-106921D01*
X112819Y-106798D01*
X113340Y-106450D01*
X113688Y-105929D01*
X113810Y-105315D01*
X113688Y-104701D01*
X113340Y-104180D01*
X112819Y-103832D01*
X112205Y-103709D01*
D02*
G37*
G36*
X108071Y-83827D02*
X107456Y-83950D01*
X106936Y-84298D01*
X106587Y-84819D01*
X106465Y-85433D01*
X106587Y-86048D01*
X106936Y-86568D01*
X107456Y-86917D01*
X108071Y-87039D01*
X108685Y-86917D01*
X109206Y-86568D01*
X109554Y-86048D01*
X109677Y-85433D01*
X109554Y-84819D01*
X109206Y-84298D01*
X108685Y-83950D01*
X108071Y-83827D01*
D02*
G37*
G36*
X89567Y-73881D02*
X88837Y-74026D01*
X88219Y-74439D01*
X87805Y-75058D01*
X87660Y-75787D01*
X87805Y-76517D01*
X88219Y-77136D01*
X88837Y-77549D01*
X89567Y-77694D01*
X90297Y-77549D01*
X90915Y-77136D01*
X91329Y-76517D01*
X91474Y-75787D01*
X91329Y-75058D01*
X90915Y-74439D01*
X90297Y-74026D01*
X89567Y-73881D01*
D02*
G37*
G36*
X106299Y-74182D02*
X105685Y-74304D01*
X105164Y-74652D01*
X104816Y-75173D01*
X104694Y-75787D01*
X104816Y-76402D01*
X105164Y-76923D01*
X105685Y-77271D01*
X106299Y-77393D01*
X106914Y-77271D01*
X107435Y-76923D01*
X107783Y-76402D01*
X107905Y-75787D01*
X107783Y-75173D01*
X107435Y-74652D01*
X106914Y-74304D01*
X106299Y-74182D01*
D02*
G37*
G36*
X116142D02*
X115527Y-74304D01*
X115006Y-74652D01*
X114658Y-75173D01*
X114536Y-75787D01*
X114658Y-76402D01*
X115006Y-76923D01*
X115527Y-77271D01*
X116142Y-77393D01*
X116756Y-77271D01*
X117277Y-76923D01*
X117625Y-76402D01*
X117747Y-75787D01*
X117625Y-75173D01*
X117277Y-74652D01*
X116756Y-74304D01*
X116142Y-74182D01*
D02*
G37*
G36*
X-87598Y-75166D02*
X-88213Y-75288D01*
X-88734Y-75636D01*
X-89082Y-76157D01*
X-89204Y-76772D01*
X-89082Y-77386D01*
X-88734Y-77907D01*
X-88213Y-78255D01*
X-87598Y-78377D01*
X-86984Y-78255D01*
X-86463Y-77907D01*
X-86115Y-77386D01*
X-85993Y-76772D01*
X-86115Y-76157D01*
X-86463Y-75636D01*
X-86984Y-75288D01*
X-87598Y-75166D01*
D02*
G37*
G36*
X-75787D02*
X-76402Y-75288D01*
X-76923Y-75636D01*
X-77271Y-76157D01*
X-77393Y-76772D01*
X-77271Y-77386D01*
X-76923Y-77907D01*
X-76402Y-78255D01*
X-75787Y-78377D01*
X-75173Y-78255D01*
X-74652Y-77907D01*
X-74304Y-77386D01*
X-74182Y-76772D01*
X-74304Y-76157D01*
X-74652Y-75636D01*
X-75173Y-75288D01*
X-75787Y-75166D01*
D02*
G37*
G36*
X136811D02*
X136197Y-75288D01*
X135676Y-75636D01*
X135328Y-76157D01*
X135205Y-76772D01*
X135328Y-77386D01*
X135676Y-77907D01*
X136197Y-78255D01*
X136811Y-78377D01*
X137425Y-78255D01*
X137946Y-77907D01*
X138294Y-77386D01*
X138417Y-76772D01*
X138294Y-76157D01*
X137946Y-75636D01*
X137425Y-75288D01*
X136811Y-75166D01*
D02*
G37*
G36*
X125984Y-74182D02*
X125370Y-74304D01*
X124849Y-74652D01*
X124501Y-75173D01*
X124379Y-75787D01*
X124501Y-76402D01*
X124849Y-76923D01*
X125370Y-77271D01*
X125984Y-77393D01*
X126599Y-77271D01*
X127120Y-76923D01*
X127468Y-76402D01*
X127590Y-75787D01*
X127468Y-75173D01*
X127120Y-74652D01*
X126599Y-74304D01*
X125984Y-74182D01*
D02*
G37*
G36*
X-131890Y-72213D02*
X-132504Y-72335D01*
X-133025Y-72684D01*
X-133373Y-73204D01*
X-133495Y-73819D01*
X-133373Y-74433D01*
X-133025Y-74954D01*
X-132504Y-75302D01*
X-131890Y-75424D01*
X-131275Y-75302D01*
X-130754Y-74954D01*
X-130406Y-74433D01*
X-130284Y-73819D01*
X-130406Y-73204D01*
X-130754Y-72684D01*
X-131275Y-72335D01*
X-131890Y-72213D01*
D02*
G37*
G36*
X-93504D02*
X-94118Y-72335D01*
X-94639Y-72684D01*
X-94987Y-73204D01*
X-95110Y-73819D01*
X-94987Y-74433D01*
X-94639Y-74954D01*
X-94118Y-75302D01*
X-93504Y-75424D01*
X-92889Y-75302D01*
X-92369Y-74954D01*
X-92020Y-74433D01*
X-91898Y-73819D01*
X-92020Y-73204D01*
X-92369Y-72684D01*
X-92889Y-72335D01*
X-93504Y-72213D01*
D02*
G37*
G36*
X144685D02*
X144071Y-72335D01*
X143550Y-72684D01*
X143202Y-73204D01*
X143079Y-73819D01*
X143202Y-74433D01*
X143550Y-74954D01*
X144071Y-75302D01*
X144685Y-75424D01*
X145299Y-75302D01*
X145820Y-74954D01*
X146168Y-74433D01*
X146291Y-73819D01*
X146168Y-73204D01*
X145820Y-72684D01*
X145299Y-72335D01*
X144685Y-72213D01*
D02*
G37*
G36*
X93504Y-73198D02*
X92889Y-73320D01*
X92369Y-73668D01*
X92020Y-74189D01*
X91898Y-74803D01*
X92020Y-75418D01*
X92369Y-75938D01*
X92889Y-76287D01*
X93504Y-76409D01*
X94118Y-76287D01*
X94639Y-75938D01*
X94987Y-75418D01*
X95110Y-74803D01*
X94987Y-74189D01*
X94639Y-73668D01*
X94118Y-73320D01*
X93504Y-73198D01*
D02*
G37*
G36*
X-139764Y-72213D02*
X-140378Y-72335D01*
X-140899Y-72684D01*
X-141247Y-73204D01*
X-141369Y-73819D01*
X-141247Y-74433D01*
X-140899Y-74954D01*
X-140378Y-75302D01*
X-139764Y-75424D01*
X-139149Y-75302D01*
X-138628Y-74954D01*
X-138280Y-74433D01*
X-138158Y-73819D01*
X-138280Y-73204D01*
X-138628Y-72684D01*
X-139149Y-72335D01*
X-139764Y-72213D01*
D02*
G37*
G36*
X-135827D02*
X-136441Y-72335D01*
X-136962Y-72684D01*
X-137310Y-73204D01*
X-137432Y-73819D01*
X-137310Y-74433D01*
X-136962Y-74954D01*
X-136441Y-75302D01*
X-135827Y-75424D01*
X-135212Y-75302D01*
X-134691Y-74954D01*
X-134343Y-74433D01*
X-134221Y-73819D01*
X-134343Y-73204D01*
X-134691Y-72684D01*
X-135212Y-72335D01*
X-135827Y-72213D01*
D02*
G37*
G36*
X-99410Y-75166D02*
X-100024Y-75288D01*
X-100545Y-75636D01*
X-100893Y-76157D01*
X-101015Y-76772D01*
X-100893Y-77386D01*
X-100545Y-77907D01*
X-100024Y-78255D01*
X-99410Y-78377D01*
X-98795Y-78255D01*
X-98274Y-77907D01*
X-97926Y-77386D01*
X-97804Y-76772D01*
X-97926Y-76157D01*
X-98274Y-75636D01*
X-98795Y-75288D01*
X-99410Y-75166D01*
D02*
G37*
G36*
X84646Y-82739D02*
X83916Y-82884D01*
X83297Y-83297D01*
X82884Y-83916D01*
X82739Y-84646D01*
X82884Y-85375D01*
X83297Y-85994D01*
X83916Y-86407D01*
X84646Y-86552D01*
X85375Y-86407D01*
X85994Y-85994D01*
X86407Y-85375D01*
X86552Y-84646D01*
X86407Y-83916D01*
X85994Y-83297D01*
X85375Y-82884D01*
X84646Y-82739D01*
D02*
G37*
G36*
X-15748Y-81755D02*
X-16478Y-81900D01*
X-17096Y-82313D01*
X-17510Y-82932D01*
X-17655Y-83661D01*
X-17510Y-84391D01*
X-17096Y-85010D01*
X-16478Y-85423D01*
X-15748Y-85568D01*
X-15018Y-85423D01*
X-14400Y-85010D01*
X-13986Y-84391D01*
X-13841Y-83661D01*
X-13986Y-82932D01*
X-14400Y-82313D01*
X-15018Y-81900D01*
X-15748Y-81755D01*
D02*
G37*
G36*
X-108268Y-81072D02*
X-108882Y-81194D01*
X-109403Y-81542D01*
X-109751Y-82063D01*
X-109873Y-82677D01*
X-109751Y-83292D01*
X-109403Y-83812D01*
X-108882Y-84161D01*
X-108268Y-84283D01*
X-107653Y-84161D01*
X-107132Y-83812D01*
X-106784Y-83292D01*
X-106662Y-82677D01*
X-106784Y-82063D01*
X-107132Y-81542D01*
X-107653Y-81194D01*
X-108268Y-81072D01*
D02*
G37*
G36*
X112402Y-83827D02*
X111787Y-83950D01*
X111266Y-84298D01*
X110918Y-84819D01*
X110796Y-85433D01*
X110918Y-86048D01*
X111266Y-86568D01*
X111787Y-86917D01*
X112402Y-87039D01*
X113016Y-86917D01*
X113537Y-86568D01*
X113885Y-86048D01*
X114007Y-85433D01*
X113885Y-84819D01*
X113537Y-84298D01*
X113016Y-83950D01*
X112402Y-83827D01*
D02*
G37*
G36*
X127756D02*
X127141Y-83950D01*
X126620Y-84298D01*
X126272Y-84819D01*
X126150Y-85433D01*
X126272Y-86048D01*
X126620Y-86568D01*
X127141Y-86917D01*
X127756Y-87039D01*
X128370Y-86917D01*
X128891Y-86568D01*
X129239Y-86048D01*
X129362Y-85433D01*
X129239Y-84819D01*
X128891Y-84298D01*
X128370Y-83950D01*
X127756Y-83827D01*
D02*
G37*
G36*
X132087D02*
X131472Y-83950D01*
X130951Y-84298D01*
X130603Y-84819D01*
X130481Y-85433D01*
X130603Y-86048D01*
X130951Y-86568D01*
X131472Y-86917D01*
X132087Y-87039D01*
X132701Y-86917D01*
X133222Y-86568D01*
X133570Y-86048D01*
X133692Y-85433D01*
X133570Y-84819D01*
X133222Y-84298D01*
X132701Y-83950D01*
X132087Y-83827D01*
D02*
G37*
G36*
X-99410Y-81072D02*
X-100024Y-81194D01*
X-100545Y-81542D01*
X-100893Y-82063D01*
X-101015Y-82677D01*
X-100893Y-83292D01*
X-100545Y-83812D01*
X-100024Y-84161D01*
X-99410Y-84283D01*
X-98795Y-84161D01*
X-98274Y-83812D01*
X-97926Y-83292D01*
X-97804Y-82677D01*
X-97926Y-82063D01*
X-98274Y-81542D01*
X-98795Y-81194D01*
X-99410Y-81072D01*
D02*
G37*
G36*
X-158465Y-78119D02*
X-159079Y-78241D01*
X-159600Y-78589D01*
X-159948Y-79110D01*
X-160070Y-79724D01*
X-159948Y-80339D01*
X-159600Y-80860D01*
X-159079Y-81208D01*
X-158465Y-81330D01*
X-157850Y-81208D01*
X-157329Y-80860D01*
X-156981Y-80339D01*
X-156859Y-79724D01*
X-156981Y-79110D01*
X-157329Y-78589D01*
X-157850Y-78241D01*
X-158465Y-78119D01*
D02*
G37*
G36*
X84646Y-77135D02*
X84031Y-77257D01*
X83510Y-77605D01*
X83162Y-78126D01*
X83040Y-78740D01*
X83162Y-79355D01*
X83510Y-79875D01*
X84031Y-80224D01*
X84646Y-80346D01*
X85260Y-80224D01*
X85781Y-79875D01*
X86129Y-79355D01*
X86251Y-78740D01*
X86129Y-78126D01*
X85781Y-77605D01*
X85260Y-77257D01*
X84646Y-77135D01*
D02*
G37*
G36*
X-108268Y-75166D02*
X-108882Y-75288D01*
X-109403Y-75636D01*
X-109751Y-76157D01*
X-109873Y-76772D01*
X-109751Y-77386D01*
X-109403Y-77907D01*
X-108882Y-78255D01*
X-108268Y-78377D01*
X-107653Y-78255D01*
X-107132Y-77907D01*
X-106784Y-77386D01*
X-106662Y-76772D01*
X-106784Y-76157D01*
X-107132Y-75636D01*
X-107653Y-75288D01*
X-108268Y-75166D01*
D02*
G37*
G36*
X54134Y-81072D02*
X53519Y-81194D01*
X52998Y-81542D01*
X52650Y-82063D01*
X52528Y-82677D01*
X52650Y-83292D01*
X52998Y-83812D01*
X53519Y-84161D01*
X54134Y-84283D01*
X54748Y-84161D01*
X55269Y-83812D01*
X55617Y-83292D01*
X55739Y-82677D01*
X55617Y-82063D01*
X55269Y-81542D01*
X54748Y-81194D01*
X54134Y-81072D01*
D02*
G37*
G36*
X97441Y-79786D02*
X96711Y-79931D01*
X96093Y-80345D01*
X95679Y-80963D01*
X95534Y-81693D01*
X95679Y-82423D01*
X96093Y-83041D01*
X96711Y-83455D01*
X97441Y-83600D01*
X98171Y-83455D01*
X98789Y-83041D01*
X99202Y-82423D01*
X99348Y-81693D01*
X99202Y-80963D01*
X98789Y-80345D01*
X98171Y-79931D01*
X97441Y-79786D01*
D02*
G37*
G36*
X-68405Y-75787D02*
X-71358Y-78740D01*
Y-79232D01*
X-86614Y-79232D01*
X-89075Y-81693D01*
X-89075Y-95473D01*
X-86614Y-97933D01*
X-71850Y-97933D01*
X-68898Y-100886D01*
Y-108268D01*
X-72342Y-111713D01*
Y-119587D01*
X-74311Y-121555D01*
X-88312D01*
X-88440Y-121245D01*
X-89008Y-120504D01*
X-89749Y-119936D01*
X-90610Y-119579D01*
X-91535Y-119458D01*
X-93012D01*
Y-123031D01*
Y-126605D01*
X-91535D01*
X-90610Y-126484D01*
X-89749Y-126127D01*
X-89008Y-125559D01*
X-88440Y-124818D01*
X-88312Y-124508D01*
X-73327D01*
X-69390Y-120571D01*
Y-112697D01*
X-66929Y-110236D01*
X-33957D01*
X-31496Y-107776D01*
Y-90188D01*
X-30882Y-90066D01*
X-30361Y-89718D01*
X-30013Y-89197D01*
X-29890Y-88583D01*
X-30013Y-87968D01*
X-30361Y-87447D01*
X-30882Y-87099D01*
X-31496Y-86977D01*
X-32111Y-87099D01*
X-32336Y-87250D01*
X-33957Y-85630D01*
X-33926Y-85143D01*
X-33827Y-84646D01*
X-33950Y-84031D01*
X-34298Y-83510D01*
X-34819Y-83162D01*
X-35433Y-83040D01*
X-36048Y-83162D01*
X-36568Y-83510D01*
X-36902Y-84009D01*
X-36939Y-84016D01*
X-37402Y-83853D01*
Y-81501D01*
X-36939Y-81339D01*
X-36902Y-81345D01*
X-36568Y-81844D01*
X-36048Y-82192D01*
X-35433Y-82314D01*
X-34819Y-82192D01*
X-34298Y-81844D01*
X-33950Y-81323D01*
X-33827Y-80709D01*
X-33950Y-80094D01*
X-34298Y-79573D01*
X-34819Y-79225D01*
X-35433Y-79103D01*
X-36048Y-79225D01*
X-36568Y-79573D01*
X-36902Y-80072D01*
X-36939Y-80079D01*
X-37402Y-79916D01*
Y-78248D01*
X-39862Y-75787D01*
X-68405Y-75787D01*
D02*
G37*
G36*
X87598Y-8237D02*
X86984Y-8359D01*
X86463Y-8707D01*
X86115Y-9228D01*
X85993Y-9843D01*
X86115Y-10457D01*
X86463Y-10978D01*
X86984Y-11326D01*
X87598Y-11448D01*
X88213Y-11326D01*
X88734Y-10978D01*
X89082Y-10457D01*
X89204Y-9843D01*
X89082Y-9228D01*
X88734Y-8707D01*
X88213Y-8359D01*
X87598Y-8237D01*
D02*
G37*
G36*
X65945Y57025D02*
X65215Y56880D01*
X64597Y56466D01*
X64183Y55848D01*
X64038Y55118D01*
X64183Y54388D01*
X64597Y53770D01*
X65215Y53356D01*
X65945Y53211D01*
X66675Y53356D01*
X67293Y53770D01*
X67707Y54388D01*
X67852Y55118D01*
X67707Y55848D01*
X67293Y56466D01*
X66675Y56880D01*
X65945Y57025D01*
D02*
G37*
G36*
X13780Y63613D02*
X13165Y63491D01*
X12644Y63143D01*
X12296Y62622D01*
X12174Y62008D01*
X12296Y61393D01*
X12644Y60873D01*
X13165Y60524D01*
X13780Y60402D01*
X14394Y60524D01*
X14915Y60873D01*
X15263Y61393D01*
X15385Y62008D01*
X15263Y62622D01*
X14915Y63143D01*
X14394Y63491D01*
X13780Y63613D01*
D02*
G37*
G36*
X17717D02*
X17102Y63491D01*
X16581Y63143D01*
X16233Y62622D01*
X16111Y62008D01*
X16233Y61393D01*
X16581Y60873D01*
X17102Y60524D01*
X17717Y60402D01*
X18331Y60524D01*
X18852Y60873D01*
X19200Y61393D01*
X19322Y62008D01*
X19200Y62622D01*
X18852Y63143D01*
X18331Y63491D01*
X17717Y63613D01*
D02*
G37*
G36*
X37402Y46881D02*
X36787Y46759D01*
X36266Y46411D01*
X35918Y45890D01*
X35796Y45276D01*
X35918Y44661D01*
X36266Y44140D01*
X36787Y43792D01*
X37402Y43670D01*
X38016Y43792D01*
X38537Y44140D01*
X38885Y44661D01*
X39007Y45276D01*
X38885Y45890D01*
X38537Y46411D01*
X38016Y46759D01*
X37402Y46881D01*
D02*
G37*
G36*
X69882Y54072D02*
X69152Y53927D01*
X68534Y53514D01*
X68120Y52895D01*
X67975Y52165D01*
X68120Y51436D01*
X68534Y50817D01*
X69152Y50404D01*
X69882Y50259D01*
X70612Y50404D01*
X71230Y50817D01*
X71644Y51436D01*
X71789Y52165D01*
X71644Y52895D01*
X71230Y53514D01*
X70612Y53927D01*
X69882Y54072D01*
D02*
G37*
G36*
X60039Y57025D02*
X59310Y56880D01*
X58691Y56466D01*
X58278Y55848D01*
X58133Y55118D01*
X58278Y54388D01*
X58691Y53770D01*
X59310Y53356D01*
X60039Y53211D01*
X60769Y53356D01*
X61388Y53770D01*
X61801Y54388D01*
X61946Y55118D01*
X61801Y55848D01*
X61388Y56466D01*
X60769Y56880D01*
X60039Y57025D01*
D02*
G37*
G36*
X9843Y67550D02*
X9228Y67428D01*
X8707Y67080D01*
X8359Y66559D01*
X8237Y65945D01*
X8359Y65330D01*
X8707Y64810D01*
X9228Y64461D01*
X9843Y64339D01*
X10457Y64461D01*
X10978Y64810D01*
X11326Y65330D01*
X11448Y65945D01*
X11326Y66559D01*
X10978Y67080D01*
X10457Y67428D01*
X9843Y67550D01*
D02*
G37*
G36*
X93504Y70503D02*
X92889Y70381D01*
X92369Y70033D01*
X92020Y69512D01*
X91898Y68898D01*
X92020Y68283D01*
X92369Y67762D01*
X92889Y67414D01*
X93504Y67292D01*
X94118Y67414D01*
X94639Y67762D01*
X94987Y68283D01*
X95110Y68898D01*
X94987Y69512D01*
X94639Y70033D01*
X94118Y70381D01*
X93504Y70503D01*
D02*
G37*
G36*
X9843Y71487D02*
X9228Y71365D01*
X8707Y71017D01*
X8359Y70496D01*
X8237Y69882D01*
X8359Y69267D01*
X8707Y68747D01*
X9228Y68398D01*
X9843Y68276D01*
X10457Y68398D01*
X10978Y68747D01*
X11326Y69267D01*
X11448Y69882D01*
X11326Y70496D01*
X10978Y71017D01*
X10457Y71365D01*
X9843Y71487D01*
D02*
G37*
G36*
X93504Y74440D02*
X92889Y74318D01*
X92369Y73970D01*
X92020Y73449D01*
X91898Y72835D01*
X92020Y72220D01*
X92369Y71699D01*
X92889Y71351D01*
X93504Y71229D01*
X94118Y71351D01*
X94639Y71699D01*
X94987Y72220D01*
X95110Y72835D01*
X94987Y73449D01*
X94639Y73970D01*
X94118Y74318D01*
X93504Y74440D01*
D02*
G37*
G36*
X13780Y67550D02*
X13165Y67428D01*
X12644Y67080D01*
X12296Y66559D01*
X12174Y65945D01*
X12296Y65330D01*
X12644Y64810D01*
X13165Y64461D01*
X13780Y64339D01*
X14394Y64461D01*
X14915Y64810D01*
X15263Y65330D01*
X15385Y65945D01*
X15263Y66559D01*
X14915Y67080D01*
X14394Y67428D01*
X13780Y67550D01*
D02*
G37*
G36*
X-6890Y69820D02*
X-7619Y69675D01*
X-8238Y69262D01*
X-8651Y68643D01*
X-8796Y67913D01*
X-8651Y67184D01*
X-8238Y66565D01*
X-7619Y66152D01*
X-6890Y66007D01*
X-6160Y66152D01*
X-5542Y66565D01*
X-5128Y67184D01*
X-4983Y67913D01*
X-5128Y68643D01*
X-5542Y69262D01*
X-6160Y69675D01*
X-6890Y69820D01*
D02*
G37*
G36*
X89567Y70503D02*
X88952Y70381D01*
X88432Y70033D01*
X88083Y69512D01*
X87961Y68898D01*
X88083Y68283D01*
X88432Y67762D01*
X88952Y67414D01*
X89567Y67292D01*
X90181Y67414D01*
X90702Y67762D01*
X91050Y68283D01*
X91173Y68898D01*
X91050Y69512D01*
X90702Y70033D01*
X90181Y70381D01*
X89567Y70503D01*
D02*
G37*
G36*
X33465Y46881D02*
X32850Y46759D01*
X32329Y46411D01*
X31981Y45890D01*
X31859Y45276D01*
X31981Y44661D01*
X32329Y44140D01*
X32850Y43792D01*
X33465Y43670D01*
X34079Y43792D01*
X34600Y44140D01*
X34948Y44661D01*
X35070Y45276D01*
X34948Y45890D01*
X34600Y46411D01*
X34079Y46759D01*
X33465Y46881D01*
D02*
G37*
G36*
X8858Y36055D02*
X8244Y35932D01*
X7723Y35584D01*
X7375Y35063D01*
X7253Y34449D01*
X7375Y33834D01*
X7723Y33314D01*
X8244Y32965D01*
X8858Y32843D01*
X9473Y32965D01*
X9994Y33314D01*
X10342Y33834D01*
X10464Y34449D01*
X10342Y35063D01*
X9994Y35584D01*
X9473Y35932D01*
X8858Y36055D01*
D02*
G37*
G36*
X25591Y38023D02*
X24976Y37901D01*
X24455Y37553D01*
X24107Y37032D01*
X23985Y36417D01*
X24107Y35803D01*
X24455Y35282D01*
X24976Y34934D01*
X25591Y34812D01*
X26205Y34934D01*
X26726Y35282D01*
X27074Y35803D01*
X27196Y36417D01*
X27074Y37032D01*
X26726Y37553D01*
X26205Y37901D01*
X25591Y38023D01*
D02*
G37*
G36*
X90551D02*
X89937Y37901D01*
X89416Y37553D01*
X89068Y37032D01*
X88946Y36417D01*
X89068Y35803D01*
X89416Y35282D01*
X89937Y34934D01*
X90551Y34812D01*
X91166Y34934D01*
X91686Y35282D01*
X92035Y35803D01*
X92157Y36417D01*
X92035Y37032D01*
X91686Y37553D01*
X91166Y37901D01*
X90551Y38023D01*
D02*
G37*
G36*
X-2953Y33102D02*
X-3567Y32980D01*
X-4088Y32631D01*
X-4436Y32111D01*
X-4558Y31496D01*
X-4436Y30882D01*
X-4088Y30361D01*
X-3567Y30013D01*
X-2953Y29890D01*
X-2338Y30013D01*
X-1817Y30361D01*
X-1469Y30882D01*
X-1347Y31496D01*
X-1469Y32111D01*
X-1817Y32631D01*
X-2338Y32980D01*
X-2953Y33102D01*
D02*
G37*
G36*
X5906D02*
X5291Y32980D01*
X4770Y32631D01*
X4422Y32111D01*
X4300Y31496D01*
X4422Y30882D01*
X4770Y30361D01*
X5291Y30013D01*
X5906Y29890D01*
X6520Y30013D01*
X7041Y30361D01*
X7389Y30882D01*
X7511Y31496D01*
X7389Y32111D01*
X7041Y32631D01*
X6520Y32980D01*
X5906Y33102D01*
D02*
G37*
G36*
X93504Y35070D02*
X92889Y34948D01*
X92369Y34600D01*
X92020Y34079D01*
X91898Y33465D01*
X92020Y32850D01*
X92369Y32329D01*
X92889Y31981D01*
X93504Y31859D01*
X94118Y31981D01*
X94639Y32329D01*
X94987Y32850D01*
X95110Y33465D01*
X94987Y34079D01*
X94639Y34600D01*
X94118Y34948D01*
X93504Y35070D01*
D02*
G37*
G36*
X-52165Y39992D02*
X-52780Y39869D01*
X-53301Y39521D01*
X-53649Y39000D01*
X-53771Y38386D01*
X-53649Y37771D01*
X-53301Y37251D01*
X-52780Y36902D01*
X-52165Y36780D01*
X-51551Y36902D01*
X-51030Y37251D01*
X-50682Y37771D01*
X-50560Y38386D01*
X-50682Y39000D01*
X-51030Y39521D01*
X-51551Y39869D01*
X-52165Y39992D01*
D02*
G37*
G36*
X-27559Y46198D02*
X-28289Y46053D01*
X-28907Y45640D01*
X-29321Y45021D01*
X-29466Y44291D01*
X-29321Y43562D01*
X-28907Y42943D01*
X-28289Y42530D01*
X-27559Y42385D01*
X-26829Y42530D01*
X-26211Y42943D01*
X-25798Y43562D01*
X-25652Y44291D01*
X-25798Y45021D01*
X-26211Y45640D01*
X-26829Y46053D01*
X-27559Y46198D01*
D02*
G37*
G36*
X5906Y45897D02*
X5291Y45775D01*
X4770Y45427D01*
X4422Y44906D01*
X4300Y44291D01*
X4422Y43677D01*
X4770Y43156D01*
X5291Y42808D01*
X5906Y42686D01*
X6520Y42808D01*
X7041Y43156D01*
X7389Y43677D01*
X7511Y44291D01*
X7389Y44906D01*
X7041Y45427D01*
X6520Y45775D01*
X5906Y45897D01*
D02*
G37*
G36*
X29528Y46881D02*
X28913Y46759D01*
X28392Y46411D01*
X28044Y45890D01*
X27922Y45276D01*
X28044Y44661D01*
X28392Y44140D01*
X28913Y43792D01*
X29528Y43670D01*
X30142Y43792D01*
X30663Y44140D01*
X31011Y44661D01*
X31133Y45276D01*
X31011Y45890D01*
X30663Y46411D01*
X30142Y46759D01*
X29528Y46881D01*
D02*
G37*
G36*
X14764Y41960D02*
X14149Y41838D01*
X13628Y41490D01*
X13280Y40969D01*
X13158Y40354D01*
X13280Y39740D01*
X13628Y39219D01*
X14149Y38871D01*
X14764Y38749D01*
X15378Y38871D01*
X15899Y39219D01*
X16247Y39740D01*
X16369Y40354D01*
X16247Y40969D01*
X15899Y41490D01*
X15378Y41838D01*
X14764Y41960D01*
D02*
G37*
G36*
X25591D02*
X24976Y41838D01*
X24455Y41490D01*
X24107Y40969D01*
X23985Y40354D01*
X24107Y39740D01*
X24455Y39219D01*
X24976Y38871D01*
X25591Y38749D01*
X26205Y38871D01*
X26726Y39219D01*
X27074Y39740D01*
X27196Y40354D01*
X27074Y40969D01*
X26726Y41490D01*
X26205Y41838D01*
X25591Y41960D01*
D02*
G37*
G36*
X29528D02*
X28913Y41838D01*
X28392Y41490D01*
X28044Y40969D01*
X27922Y40354D01*
X28044Y39740D01*
X28392Y39219D01*
X28913Y38871D01*
X29528Y38749D01*
X30142Y38871D01*
X30663Y39219D01*
X31011Y39740D01*
X31133Y40354D01*
X31011Y40969D01*
X30663Y41490D01*
X30142Y41838D01*
X29528Y41960D01*
D02*
G37*
G36*
X9843Y75424D02*
X9228Y75302D01*
X8707Y74954D01*
X8359Y74433D01*
X8237Y73819D01*
X8359Y73204D01*
X8707Y72684D01*
X9228Y72335D01*
X9843Y72213D01*
X10457Y72335D01*
X10978Y72684D01*
X11326Y73204D01*
X11448Y73819D01*
X11326Y74433D01*
X10978Y74954D01*
X10457Y75302D01*
X9843Y75424D01*
D02*
G37*
G36*
X17717Y108206D02*
X16987Y108061D01*
X16368Y107648D01*
X15955Y107029D01*
X15810Y106299D01*
X15955Y105570D01*
X16368Y104951D01*
X16987Y104538D01*
X17717Y104393D01*
X18446Y104538D01*
X19065Y104951D01*
X19478Y105570D01*
X19623Y106299D01*
X19478Y107029D01*
X19065Y107648D01*
X18446Y108061D01*
X17717Y108206D01*
D02*
G37*
G36*
X32201Y119193D02*
X30177D01*
Y117169D01*
X30353Y117192D01*
X30976Y117450D01*
X31510Y117860D01*
X31920Y118394D01*
X32178Y119017D01*
X32201Y119193D01*
D02*
G37*
G36*
X123031Y123653D02*
X122417Y123531D01*
X121896Y123183D01*
X121548Y122662D01*
X121426Y122047D01*
X121548Y121433D01*
X121896Y120912D01*
X122417Y120564D01*
X123031Y120442D01*
X123646Y120564D01*
X124167Y120912D01*
X124515Y121433D01*
X124637Y122047D01*
X124515Y122662D01*
X124167Y123183D01*
X123646Y123531D01*
X123031Y123653D01*
D02*
G37*
G36*
X93504Y94125D02*
X92889Y94003D01*
X92369Y93655D01*
X92020Y93134D01*
X91898Y92520D01*
X92020Y91905D01*
X92369Y91384D01*
X92889Y91036D01*
X93504Y90914D01*
X94118Y91036D01*
X94639Y91384D01*
X94987Y91905D01*
X95110Y92520D01*
X94987Y93134D01*
X94639Y93655D01*
X94118Y94003D01*
X93504Y94125D01*
D02*
G37*
G36*
X-8858Y96094D02*
X-9473Y95972D01*
X-9994Y95624D01*
X-10342Y95103D01*
X-10464Y94488D01*
X-10342Y93874D01*
X-9994Y93353D01*
X-9473Y93005D01*
X-8858Y92883D01*
X-8244Y93005D01*
X-7723Y93353D01*
X-7375Y93874D01*
X-7253Y94488D01*
X-7375Y95103D01*
X-7723Y95624D01*
X-8244Y95972D01*
X-8858Y96094D01*
D02*
G37*
G36*
X93504Y98062D02*
X92889Y97940D01*
X92369Y97592D01*
X92020Y97071D01*
X91898Y96457D01*
X92020Y95842D01*
X92369Y95321D01*
X92889Y94973D01*
X93504Y94851D01*
X94118Y94973D01*
X94639Y95321D01*
X94987Y95842D01*
X95110Y96457D01*
X94987Y97071D01*
X94639Y97592D01*
X94118Y97940D01*
X93504Y98062D01*
D02*
G37*
G36*
X-3937Y126606D02*
X-4552Y126483D01*
X-5072Y126135D01*
X-5420Y125615D01*
X-5543Y125000D01*
X-5420Y124385D01*
X-5072Y123865D01*
X-4552Y123517D01*
X-3937Y123394D01*
X-3322Y123517D01*
X-2802Y123865D01*
X-2454Y124385D01*
X-2331Y125000D01*
X-2454Y125615D01*
X-2802Y126135D01*
X-3322Y126483D01*
X-3937Y126606D01*
D02*
G37*
G36*
X130905Y145607D02*
X130176Y145462D01*
X129557Y145049D01*
X129144Y144430D01*
X128999Y143701D01*
X129144Y142971D01*
X129557Y142352D01*
X130176Y141939D01*
X130905Y141794D01*
X131635Y141939D01*
X132254Y142352D01*
X132667Y142971D01*
X132812Y143701D01*
X132667Y144430D01*
X132254Y145049D01*
X131635Y145462D01*
X130905Y145607D01*
D02*
G37*
G36*
X165354D02*
X164625Y145462D01*
X164006Y145049D01*
X163593Y144430D01*
X163448Y143701D01*
X163593Y142971D01*
X164006Y142352D01*
X164625Y141939D01*
X165354Y141794D01*
X166084Y141939D01*
X166703Y142352D01*
X167116Y142971D01*
X167261Y143701D01*
X167116Y144430D01*
X166703Y145049D01*
X166084Y145462D01*
X165354Y145607D01*
D02*
G37*
G36*
X181102Y148068D02*
X180373Y147923D01*
X179754Y147510D01*
X179341Y146891D01*
X179196Y146161D01*
X179341Y145432D01*
X179754Y144813D01*
X180373Y144400D01*
X181102Y144255D01*
X181832Y144400D01*
X182451Y144813D01*
X182864Y145432D01*
X183009Y146161D01*
X182864Y146891D01*
X182451Y147510D01*
X181832Y147923D01*
X181102Y148068D01*
D02*
G37*
G36*
X-10827Y128574D02*
X-11441Y128452D01*
X-11962Y128104D01*
X-12310Y127583D01*
X-12432Y126969D01*
X-12310Y126354D01*
X-11962Y125833D01*
X-11441Y125485D01*
X-10827Y125363D01*
X-10212Y125485D01*
X-9691Y125833D01*
X-9343Y126354D01*
X-9221Y126969D01*
X-9343Y127583D01*
X-9691Y128104D01*
X-10212Y128452D01*
X-10827Y128574D01*
D02*
G37*
G36*
X29685Y127094D02*
X28763Y126910D01*
X27982Y126388D01*
X27460Y125607D01*
X27440Y125506D01*
X26930D01*
X26910Y125607D01*
X26388Y126388D01*
X25607Y126910D01*
X24685Y127094D01*
X23763Y126910D01*
X22982Y126388D01*
X22460Y125607D01*
X22440Y125506D01*
X21930D01*
X21910Y125607D01*
X21388Y126388D01*
X20607Y126910D01*
X19685Y127094D01*
X18763Y126910D01*
X17982Y126388D01*
X17460Y125607D01*
X17440Y125506D01*
X16930D01*
X16910Y125607D01*
X16388Y126388D01*
X15607Y126910D01*
X14685Y127094D01*
X13763Y126910D01*
X12982Y126388D01*
X12460Y125607D01*
X12440Y125506D01*
X11930D01*
X11910Y125607D01*
X11388Y126388D01*
X10607Y126910D01*
X9685Y127094D01*
X8763Y126910D01*
X7982Y126388D01*
X7460Y125607D01*
X7277Y124685D01*
X7460Y123763D01*
X7982Y122982D01*
X8763Y122460D01*
X8864Y122440D01*
Y121930D01*
X8763Y121910D01*
X7982Y121388D01*
X7460Y120607D01*
X7277Y119685D01*
X7460Y118763D01*
X7982Y117982D01*
X8763Y117460D01*
X9685Y117277D01*
X10607Y117460D01*
X11388Y117982D01*
X11815Y118621D01*
X12309Y118625D01*
X12361Y118607D01*
X12450Y118394D01*
X12860Y117860D01*
X13395Y117450D01*
X14017Y117192D01*
X14193Y117169D01*
Y119685D01*
X15177D01*
Y117169D01*
X15353Y117192D01*
X15976Y117450D01*
X16510Y117860D01*
X16920Y118394D01*
X17450D01*
X17860Y117860D01*
X18395Y117450D01*
X19017Y117192D01*
X19193Y117169D01*
Y119685D01*
X20177D01*
Y117169D01*
X20353Y117192D01*
X20976Y117450D01*
X21510Y117860D01*
X21920Y118394D01*
X22008Y118607D01*
X22061Y118625D01*
X22555Y118621D01*
X22982Y117982D01*
X23763Y117460D01*
X24685Y117277D01*
X25607Y117460D01*
X26388Y117982D01*
X26815Y118621D01*
X27309Y118625D01*
X27362Y118607D01*
X27450Y118394D01*
X27860Y117860D01*
X28394Y117450D01*
X29017Y117192D01*
X29193Y117169D01*
Y119685D01*
X29685D01*
Y120177D01*
X32201D01*
X32178Y120353D01*
X31920Y120976D01*
X31510Y121510D01*
X30976Y121920D01*
X30763Y122009D01*
X30745Y122061D01*
X30749Y122555D01*
X31388Y122982D01*
X31910Y123763D01*
X32094Y124685D01*
X31910Y125607D01*
X31388Y126388D01*
X30607Y126910D01*
X29685Y127094D01*
D02*
G37*
G36*
X181102Y137241D02*
X180373Y137096D01*
X179754Y136683D01*
X179341Y136064D01*
X179196Y135335D01*
X179341Y134605D01*
X179754Y133986D01*
X180373Y133573D01*
X181102Y133428D01*
X181832Y133573D01*
X182451Y133986D01*
X182864Y134605D01*
X183009Y135335D01*
X182864Y136064D01*
X182451Y136683D01*
X181832Y137096D01*
X181102Y137241D01*
D02*
G37*
G36*
X10827Y93141D02*
X10212Y93019D01*
X9691Y92671D01*
X9343Y92150D01*
X9221Y91535D01*
X9343Y90921D01*
X9691Y90400D01*
X10212Y90052D01*
X10827Y89930D01*
X11441Y90052D01*
X11962Y90400D01*
X12310Y90921D01*
X12432Y91535D01*
X12310Y92150D01*
X11962Y92671D01*
X11441Y93019D01*
X10827Y93141D01*
D02*
G37*
G36*
X-27559Y84572D02*
X-28304Y84474D01*
X-28999Y84186D01*
X-29595Y83729D01*
X-30052Y83132D01*
X-30340Y82438D01*
X-30438Y81693D01*
X-30340Y80948D01*
X-30052Y80253D01*
X-29595Y79657D01*
X-28999Y79200D01*
X-28304Y78912D01*
X-27559Y78814D01*
X-26814Y78912D01*
X-26120Y79200D01*
X-25523Y79657D01*
X-25066Y80253D01*
X-24778Y80948D01*
X-24680Y81693D01*
X-24778Y82438D01*
X-25066Y83132D01*
X-25523Y83729D01*
X-26120Y84186D01*
X-26814Y84474D01*
X-27559Y84572D01*
D02*
G37*
G36*
X93504Y82314D02*
X92889Y82192D01*
X92369Y81844D01*
X92020Y81323D01*
X91898Y80709D01*
X92020Y80094D01*
X92369Y79573D01*
X92889Y79225D01*
X93504Y79103D01*
X94118Y79225D01*
X94639Y79573D01*
X94987Y80094D01*
X95110Y80709D01*
X94987Y81323D01*
X94639Y81844D01*
X94118Y82192D01*
X93504Y82314D01*
D02*
G37*
G36*
X80709Y84283D02*
X80094Y84161D01*
X79573Y83812D01*
X79225Y83292D01*
X79103Y82677D01*
X79225Y82063D01*
X79573Y81542D01*
X80094Y81194D01*
X80709Y81072D01*
X81323Y81194D01*
X81844Y81542D01*
X82192Y82063D01*
X82314Y82677D01*
X82192Y83292D01*
X81844Y83812D01*
X81323Y84161D01*
X80709Y84283D01*
D02*
G37*
G36*
X82677Y75424D02*
X82063Y75302D01*
X81542Y74954D01*
X81194Y74433D01*
X81072Y73819D01*
X81194Y73204D01*
X81542Y72684D01*
X82063Y72335D01*
X82677Y72213D01*
X83292Y72335D01*
X83812Y72684D01*
X84161Y73204D01*
X84283Y73819D01*
X84161Y74433D01*
X83812Y74954D01*
X83292Y75302D01*
X82677Y75424D01*
D02*
G37*
G36*
X93504Y78377D02*
X92889Y78255D01*
X92369Y77907D01*
X92020Y77386D01*
X91898Y76772D01*
X92020Y76157D01*
X92369Y75636D01*
X92889Y75288D01*
X93504Y75166D01*
X94118Y75288D01*
X94639Y75636D01*
X94987Y76157D01*
X95110Y76772D01*
X94987Y77386D01*
X94639Y77907D01*
X94118Y78255D01*
X93504Y78377D01*
D02*
G37*
G36*
X-55118Y84572D02*
X-55863Y84474D01*
X-56558Y84186D01*
X-57154Y83729D01*
X-57611Y83132D01*
X-57899Y82438D01*
X-57997Y81693D01*
X-57899Y80948D01*
X-57611Y80253D01*
X-57154Y79657D01*
X-56558Y79200D01*
X-55863Y78912D01*
X-55118Y78814D01*
X-54373Y78912D01*
X-53679Y79200D01*
X-53082Y79657D01*
X-52625Y80253D01*
X-52337Y80948D01*
X-52239Y81693D01*
X-52337Y82438D01*
X-52625Y83132D01*
X-53082Y83729D01*
X-53679Y84186D01*
X-54373Y84474D01*
X-55118Y84572D01*
D02*
G37*
G36*
X40354Y85267D02*
X39740Y85145D01*
X39219Y84797D01*
X38871Y84276D01*
X38749Y83661D01*
X38871Y83047D01*
X39219Y82526D01*
X39740Y82178D01*
X40354Y82056D01*
X40969Y82178D01*
X41490Y82526D01*
X41838Y83047D01*
X41960Y83661D01*
X41838Y84276D01*
X41490Y84797D01*
X40969Y85145D01*
X40354Y85267D01*
D02*
G37*
G36*
X19685Y90188D02*
X19071Y90066D01*
X18550Y89718D01*
X18202Y89197D01*
X18079Y88583D01*
X18202Y87968D01*
X18550Y87447D01*
X19071Y87099D01*
X19685Y86977D01*
X20300Y87099D01*
X20820Y87447D01*
X21169Y87968D01*
X21291Y88583D01*
X21169Y89197D01*
X20820Y89718D01*
X20300Y90066D01*
X19685Y90188D01*
D02*
G37*
G36*
X93504D02*
X92889Y90066D01*
X92369Y89718D01*
X92020Y89197D01*
X91898Y88583D01*
X92020Y87968D01*
X92369Y87447D01*
X92889Y87099D01*
X93504Y86977D01*
X94118Y87099D01*
X94639Y87447D01*
X94987Y87968D01*
X95110Y88583D01*
X94987Y89197D01*
X94639Y89718D01*
X94118Y90066D01*
X93504Y90188D01*
D02*
G37*
G36*
X-5906Y93141D02*
X-6520Y93019D01*
X-7041Y92671D01*
X-7389Y92150D01*
X-7511Y91535D01*
X-7389Y90921D01*
X-7041Y90400D01*
X-6520Y90052D01*
X-5906Y89930D01*
X-5291Y90052D01*
X-4770Y90400D01*
X-4422Y90921D01*
X-4300Y91535D01*
X-4422Y92150D01*
X-4770Y92671D01*
X-5291Y93019D01*
X-5906Y93141D01*
D02*
G37*
G36*
X93504Y86251D02*
X92889Y86129D01*
X92369Y85781D01*
X92020Y85260D01*
X91898Y84646D01*
X92020Y84031D01*
X92369Y83510D01*
X92889Y83162D01*
X93504Y83040D01*
X94118Y83162D01*
X94639Y83510D01*
X94987Y84031D01*
X95110Y84646D01*
X94987Y85260D01*
X94639Y85781D01*
X94118Y86129D01*
X93504Y86251D01*
D02*
G37*
G36*
X-8858Y90188D02*
X-9473Y90066D01*
X-9994Y89718D01*
X-10342Y89197D01*
X-10464Y88583D01*
X-10342Y87968D01*
X-9994Y87447D01*
X-9473Y87099D01*
X-8858Y86977D01*
X-8244Y87099D01*
X-7723Y87447D01*
X-7375Y87968D01*
X-7253Y88583D01*
X-7375Y89197D01*
X-7723Y89718D01*
X-8244Y90066D01*
X-8858Y90188D01*
D02*
G37*
G36*
X7874D02*
X7260Y90066D01*
X6739Y89718D01*
X6391Y89197D01*
X6268Y88583D01*
X6391Y87968D01*
X6739Y87447D01*
X7260Y87099D01*
X7874Y86977D01*
X8489Y87099D01*
X9009Y87447D01*
X9358Y87968D01*
X9480Y88583D01*
X9358Y89197D01*
X9009Y89718D01*
X8489Y90066D01*
X7874Y90188D01*
D02*
G37*
G36*
X46260Y-1347D02*
X45645Y-1469D01*
X45124Y-1817D01*
X44776Y-2338D01*
X44654Y-2953D01*
X44776Y-3567D01*
X45124Y-4088D01*
X45645Y-4436D01*
X46260Y-4558D01*
X46874Y-4436D01*
X47395Y-4088D01*
X47743Y-3567D01*
X47865Y-2953D01*
X47743Y-2338D01*
X47395Y-1817D01*
X46874Y-1469D01*
X46260Y-1347D01*
D02*
G37*
G36*
X-24606Y-62D02*
X-25336Y-207D01*
X-25955Y-620D01*
X-26368Y-1239D01*
X-26513Y-1969D01*
X-26368Y-2698D01*
X-25955Y-3317D01*
X-25336Y-3730D01*
X-24606Y-3875D01*
X-23877Y-3730D01*
X-23258Y-3317D01*
X-22845Y-2698D01*
X-22700Y-1969D01*
X-22845Y-1239D01*
X-23258Y-620D01*
X-23877Y-207D01*
X-24606Y-62D01*
D02*
G37*
G36*
X-58071Y1606D02*
X-58685Y1483D01*
X-59206Y1135D01*
X-59554Y614D01*
X-59676Y0D01*
X-59554Y-614D01*
X-59206Y-1135D01*
X-58685Y-1483D01*
X-58071Y-1606D01*
X-57456Y-1483D01*
X-56936Y-1135D01*
X-56587Y-614D01*
X-56465Y0D01*
X-56587Y614D01*
X-56936Y1135D01*
X-57456Y1483D01*
X-58071Y1606D01*
D02*
G37*
G36*
X-134843Y-1347D02*
X-135457Y-1469D01*
X-135978Y-1817D01*
X-136326Y-2338D01*
X-136448Y-2953D01*
X-136326Y-3567D01*
X-135978Y-4088D01*
X-135457Y-4436D01*
X-134843Y-4558D01*
X-134228Y-4436D01*
X-133707Y-4088D01*
X-133359Y-3567D01*
X-133237Y-2953D01*
X-133359Y-2338D01*
X-133707Y-1817D01*
X-134228Y-1469D01*
X-134843Y-1347D01*
D02*
G37*
G36*
X-117126D02*
X-117740Y-1469D01*
X-118261Y-1817D01*
X-118609Y-2338D01*
X-118732Y-2953D01*
X-118609Y-3567D01*
X-118261Y-4088D01*
X-117740Y-4436D01*
X-117126Y-4558D01*
X-116512Y-4436D01*
X-115991Y-4088D01*
X-115643Y-3567D01*
X-115520Y-2953D01*
X-115643Y-2338D01*
X-115991Y-1817D01*
X-116512Y-1469D01*
X-117126Y-1347D01*
D02*
G37*
G36*
X-91535D02*
X-92150Y-1469D01*
X-92671Y-1817D01*
X-93019Y-2338D01*
X-93141Y-2953D01*
X-93019Y-3567D01*
X-92671Y-4088D01*
X-92150Y-4436D01*
X-91535Y-4558D01*
X-90921Y-4436D01*
X-90400Y-4088D01*
X-90052Y-3567D01*
X-89930Y-2953D01*
X-90052Y-2338D01*
X-90400Y-1817D01*
X-90921Y-1469D01*
X-91535Y-1347D01*
D02*
G37*
G36*
X-54134Y1606D02*
X-54748Y1483D01*
X-55269Y1135D01*
X-55617Y614D01*
X-55739Y0D01*
X-55617Y-614D01*
X-55269Y-1135D01*
X-54748Y-1483D01*
X-54134Y-1606D01*
X-53519Y-1483D01*
X-52999Y-1135D01*
X-52650Y-614D01*
X-52528Y0D01*
X-52650Y614D01*
X-52999Y1135D01*
X-53519Y1483D01*
X-54134Y1606D01*
D02*
G37*
G36*
X-984Y2590D02*
X-1599Y2468D01*
X-2120Y2120D01*
X-2468Y1599D01*
X-2590Y984D01*
X-2468Y370D01*
X-2120Y-151D01*
X-1599Y-499D01*
X-984Y-621D01*
X-370Y-499D01*
X151Y-151D01*
X499Y370D01*
X621Y984D01*
X499Y1599D01*
X151Y2120D01*
X-370Y2468D01*
X-984Y2590D01*
D02*
G37*
G36*
X2953D02*
X2338Y2468D01*
X1817Y2120D01*
X1469Y1599D01*
X1347Y984D01*
X1469Y370D01*
X1817Y-151D01*
X2338Y-499D01*
X2953Y-621D01*
X3567Y-499D01*
X4088Y-151D01*
X4436Y370D01*
X4558Y984D01*
X4436Y1599D01*
X4088Y2120D01*
X3567Y2468D01*
X2953Y2590D01*
D02*
G37*
G36*
X6890D02*
X6275Y2468D01*
X5754Y2120D01*
X5406Y1599D01*
X5284Y984D01*
X5406Y370D01*
X5754Y-151D01*
X6275Y-499D01*
X6890Y-621D01*
X7504Y-499D01*
X8025Y-151D01*
X8373Y370D01*
X8495Y984D01*
X8373Y1599D01*
X8025Y2120D01*
X7504Y2468D01*
X6890Y2590D01*
D02*
G37*
G36*
X37402Y1606D02*
X36787Y1483D01*
X36266Y1135D01*
X35918Y614D01*
X35796Y0D01*
X35918Y-614D01*
X36266Y-1135D01*
X36787Y-1483D01*
X37402Y-1606D01*
X38016Y-1483D01*
X38537Y-1135D01*
X38885Y-614D01*
X39007Y0D01*
X38885Y614D01*
X38537Y1135D01*
X38016Y1483D01*
X37402Y1606D01*
D02*
G37*
G36*
X41339Y1606D02*
X40724Y1483D01*
X40203Y1135D01*
X39855Y614D01*
X39733Y0D01*
X39855Y-614D01*
X40203Y-1135D01*
X40724Y-1483D01*
X41339Y-1606D01*
X41953Y-1483D01*
X42474Y-1135D01*
X42822Y-614D01*
X42944Y0D01*
X42822Y614D01*
X42474Y1135D01*
X41953Y1483D01*
X41339Y1606D01*
D02*
G37*
G36*
X-37402Y2891D02*
X-38131Y2746D01*
X-38750Y2332D01*
X-39163Y1714D01*
X-39308Y984D01*
X-39163Y255D01*
X-38750Y-364D01*
X-38131Y-777D01*
X-37402Y-922D01*
X-36672Y-777D01*
X-36053Y-364D01*
X-35640Y255D01*
X-35495Y984D01*
X-35640Y1714D01*
X-36053Y2332D01*
X-36672Y2746D01*
X-37402Y2891D01*
D02*
G37*
G36*
X-97441Y-1046D02*
X-98171Y-1191D01*
X-98789Y-1605D01*
X-99203Y-2223D01*
X-99348Y-2953D01*
X-99203Y-3682D01*
X-98789Y-4301D01*
X-98171Y-4714D01*
X-97441Y-4860D01*
X-96711Y-4714D01*
X-96093Y-4301D01*
X-95679Y-3682D01*
X-95534Y-2953D01*
X-95679Y-2223D01*
X-96093Y-1605D01*
X-96711Y-1191D01*
X-97441Y-1046D01*
D02*
G37*
G36*
X-32480Y-6268D02*
X-33095Y-6391D01*
X-33616Y-6739D01*
X-33964Y-7260D01*
X-34086Y-7874D01*
X-33964Y-8489D01*
X-33616Y-9009D01*
X-33095Y-9358D01*
X-32480Y-9480D01*
X-31866Y-9358D01*
X-31345Y-9009D01*
X-30997Y-8489D01*
X-30875Y-7874D01*
X-30997Y-7260D01*
X-31345Y-6739D01*
X-31866Y-6391D01*
X-32480Y-6268D01*
D02*
G37*
G36*
X-121063Y-7253D02*
X-121677Y-7375D01*
X-122198Y-7723D01*
X-122547Y-8244D01*
X-122669Y-8858D01*
X-122830Y-9055D01*
X-127170Y-9055D01*
X-127331Y-8858D01*
X-127454Y-8244D01*
X-127802Y-7723D01*
X-128323Y-7375D01*
X-128937Y-7253D01*
X-129552Y-7375D01*
X-130072Y-7723D01*
X-130420Y-8244D01*
X-130543Y-8858D01*
X-130704Y-9055D01*
X-141339D01*
Y-18504D01*
X-110630D01*
Y-9055D01*
X-119296D01*
X-119457Y-8858D01*
X-119580Y-8244D01*
X-119928Y-7723D01*
X-120449Y-7375D01*
X-121063Y-7253D01*
D02*
G37*
G36*
X-134843Y-5284D02*
X-135457Y-5406D01*
X-135978Y-5754D01*
X-136326Y-6275D01*
X-136448Y-6890D01*
X-136326Y-7504D01*
X-135978Y-8025D01*
X-135457Y-8373D01*
X-134843Y-8495D01*
X-134228Y-8373D01*
X-133707Y-8025D01*
X-133359Y-7504D01*
X-133237Y-6890D01*
X-133359Y-6275D01*
X-133707Y-5754D01*
X-134228Y-5406D01*
X-134843Y-5284D01*
D02*
G37*
G36*
X17717Y1606D02*
X17102Y1483D01*
X16581Y1135D01*
X16233Y614D01*
X16111Y0D01*
X16233Y-614D01*
X16581Y-1135D01*
X15748Y-1969D01*
Y-23622D01*
X13287Y-26083D01*
X13287Y-27048D01*
X13287D01*
X13287Y-27067D01*
X13780Y-27067D01*
X13787Y-27059D01*
X16732Y-24114D01*
Y-2461D01*
X17609Y-1584D01*
X17717Y-1606D01*
X18331Y-1483D01*
X18342Y-1476D01*
X19685D01*
X20669Y-2461D01*
Y-24114D01*
X24114Y-27559D01*
X29528D01*
X34449Y-32480D01*
Y-47244D01*
X29528Y-52165D01*
X7874D01*
X2953Y-47244D01*
Y-34941D01*
X6882Y-31012D01*
X6890Y-31004D01*
X6890Y-30512D01*
X6871Y-30512D01*
Y-30512D01*
X6390Y-30512D01*
X5906D01*
X1969Y-34449D01*
X-5906Y-34449D01*
X-7874Y-32480D01*
X-17717D01*
X-20669Y-29528D01*
Y-15748D01*
X-17717Y-12795D01*
X-7874D01*
X-5906Y-10827D01*
X7382Y-10827D01*
X8858Y-9350D01*
Y-2461D01*
X9843Y-1476D01*
X11811D01*
X12795Y-2461D01*
Y-10827D01*
X13780D01*
Y-1969D01*
X12303Y-492D01*
X9350D01*
X7874Y-1969D01*
Y-8858D01*
X6890Y-9843D01*
X-6398D01*
X-8366Y-11811D01*
X-18209D01*
X-21654Y-15256D01*
Y-30020D01*
X-18632Y-33042D01*
X-18653Y-33190D01*
X-18829Y-33552D01*
X-19431Y-33672D01*
X-20049Y-34085D01*
X-20462Y-34703D01*
X-20607Y-35433D01*
X-20462Y-36163D01*
X-20049Y-36781D01*
X-19431Y-37195D01*
X-18701Y-37340D01*
X-17971Y-37195D01*
X-17353Y-36781D01*
X-16939Y-36163D01*
X-16794Y-35433D01*
X-16939Y-34703D01*
X-17353Y-34085D01*
X-17533Y-33965D01*
X-17381Y-33465D01*
X-8366D01*
X-6398Y-35433D01*
X1969D01*
Y-47736D01*
X7382Y-53150D01*
X30020D01*
X35433Y-47736D01*
Y-31988D01*
X30020Y-26575D01*
X24606D01*
X21654Y-23622D01*
Y-1969D01*
X20177Y-492D01*
X19618D01*
X19301Y-106D01*
X19322Y0D01*
X19200Y614D01*
X18852Y1135D01*
X18331Y1483D01*
X17717Y1606D01*
D02*
G37*
G36*
X-147638Y-7253D02*
X-148252Y-7375D01*
X-148773Y-7723D01*
X-149121Y-8244D01*
X-149243Y-8858D01*
X-149121Y-9473D01*
X-148773Y-9994D01*
X-148252Y-10342D01*
X-147638Y-10464D01*
X-147023Y-10342D01*
X-146502Y-9994D01*
X-146154Y-9473D01*
X-146032Y-8858D01*
X-146154Y-8244D01*
X-146502Y-7723D01*
X-147023Y-7375D01*
X-147638Y-7253D01*
D02*
G37*
G36*
X-104331D02*
X-104945Y-7375D01*
X-105466Y-7723D01*
X-105814Y-8244D01*
X-105936Y-8858D01*
X-105814Y-9473D01*
X-105466Y-9994D01*
X-104945Y-10342D01*
X-104331Y-10464D01*
X-103716Y-10342D01*
X-103195Y-9994D01*
X-102847Y-9473D01*
X-102725Y-8858D01*
X-102847Y-8244D01*
X-103195Y-7723D01*
X-103716Y-7375D01*
X-104331Y-7253D01*
D02*
G37*
G36*
X-117126Y-5284D02*
X-117740Y-5406D01*
X-118261Y-5754D01*
X-118609Y-6275D01*
X-118732Y-6890D01*
X-118609Y-7504D01*
X-118261Y-8025D01*
X-117740Y-8373D01*
X-117126Y-8495D01*
X-116512Y-8373D01*
X-115991Y-8025D01*
X-115643Y-7504D01*
X-115520Y-6890D01*
X-115643Y-6275D01*
X-115991Y-5754D01*
X-116512Y-5406D01*
X-117126Y-5284D01*
D02*
G37*
G36*
X-54134Y-2331D02*
X-54748Y-2454D01*
X-55269Y-2802D01*
X-55617Y-3322D01*
X-55739Y-3937D01*
X-55617Y-4552D01*
X-55269Y-5072D01*
X-54748Y-5420D01*
X-54134Y-5543D01*
X-53519Y-5420D01*
X-52999Y-5072D01*
X-52650Y-4552D01*
X-52528Y-3937D01*
X-52650Y-3322D01*
X-52999Y-2802D01*
X-53519Y-2454D01*
X-54134Y-2331D01*
D02*
G37*
G36*
X-50197D02*
X-50811Y-2454D01*
X-51332Y-2802D01*
X-51680Y-3322D01*
X-51802Y-3937D01*
X-51680Y-4552D01*
X-51332Y-5072D01*
X-50811Y-5420D01*
X-50197Y-5543D01*
X-49582Y-5420D01*
X-49062Y-5072D01*
X-48713Y-4552D01*
X-48591Y-3937D01*
X-48713Y-3322D01*
X-49062Y-2802D01*
X-49582Y-2454D01*
X-50197Y-2331D01*
D02*
G37*
G36*
X-154528Y-1046D02*
X-155257Y-1191D01*
X-155876Y-1605D01*
X-156289Y-2223D01*
X-156434Y-2953D01*
X-156289Y-3682D01*
X-155876Y-4301D01*
X-155257Y-4714D01*
X-154528Y-4860D01*
X-153798Y-4714D01*
X-153179Y-4301D01*
X-152766Y-3682D01*
X-152621Y-2953D01*
X-152766Y-2223D01*
X-153179Y-1605D01*
X-153798Y-1191D01*
X-154528Y-1046D01*
D02*
G37*
G36*
X46260Y-5284D02*
X45645Y-5406D01*
X45125Y-5754D01*
X44776Y-6275D01*
X44654Y-6890D01*
X44776Y-7504D01*
X45125Y-8025D01*
X45645Y-8373D01*
X46260Y-8495D01*
X46874Y-8373D01*
X47395Y-8025D01*
X47743Y-7504D01*
X47866Y-6890D01*
X47743Y-6275D01*
X47395Y-5754D01*
X46874Y-5406D01*
X46260Y-5284D01*
D02*
G37*
G36*
X-128937Y-3316D02*
X-129552Y-3438D01*
X-130072Y-3786D01*
X-130420Y-4307D01*
X-130543Y-4921D01*
X-130420Y-5536D01*
X-130072Y-6057D01*
X-129552Y-6405D01*
X-128937Y-6527D01*
X-128323Y-6405D01*
X-127802Y-6057D01*
X-127454Y-5536D01*
X-127331Y-4921D01*
X-127454Y-4307D01*
X-127802Y-3786D01*
X-128323Y-3438D01*
X-128937Y-3316D01*
D02*
G37*
G36*
X-123032D02*
X-123646Y-3438D01*
X-124167Y-3786D01*
X-124515Y-4307D01*
X-124637Y-4921D01*
X-124515Y-5536D01*
X-124167Y-6057D01*
X-123646Y-6405D01*
X-123032Y-6527D01*
X-122417Y-6405D01*
X-121896Y-6057D01*
X-121548Y-5536D01*
X-121426Y-4921D01*
X-121548Y-4307D01*
X-121896Y-3786D01*
X-122417Y-3438D01*
X-123032Y-3316D01*
D02*
G37*
G36*
X-147638Y4558D02*
X-148252Y4436D01*
X-148773Y4088D01*
X-149121Y3567D01*
X-149243Y2953D01*
X-149121Y2338D01*
X-148773Y1817D01*
X-148252Y1469D01*
X-147638Y1347D01*
X-147023Y1469D01*
X-146502Y1817D01*
X-146154Y2338D01*
X-146032Y2953D01*
X-146154Y3567D01*
X-146502Y4088D01*
X-147023Y4436D01*
X-147638Y4558D01*
D02*
G37*
G36*
X38386Y22275D02*
X37771Y22153D01*
X37251Y21805D01*
X36902Y21284D01*
X36780Y20669D01*
X36902Y20055D01*
X37251Y19534D01*
X37771Y19186D01*
X38386Y19064D01*
X39000Y19186D01*
X39521Y19534D01*
X39869Y20055D01*
X39992Y20669D01*
X39869Y21284D01*
X39521Y21805D01*
X39000Y22153D01*
X38386Y22275D01*
D02*
G37*
G36*
X42323D02*
X41708Y22153D01*
X41188Y21805D01*
X40839Y21284D01*
X40717Y20669D01*
X40839Y20055D01*
X41188Y19534D01*
X41708Y19186D01*
X42323Y19064D01*
X42937Y19186D01*
X43458Y19534D01*
X43806Y20055D01*
X43929Y20669D01*
X43806Y21284D01*
X43458Y21805D01*
X42937Y22153D01*
X42323Y22275D01*
D02*
G37*
G36*
X112205Y23259D02*
X111590Y23137D01*
X111069Y22789D01*
X110721Y22268D01*
X110599Y21654D01*
X110721Y21039D01*
X111069Y20518D01*
X111590Y20170D01*
X112205Y20048D01*
X112819Y20170D01*
X113340Y20518D01*
X113688Y21039D01*
X113810Y21654D01*
X113688Y22268D01*
X113340Y22789D01*
X112819Y23137D01*
X112205Y23259D01*
D02*
G37*
G36*
X33465Y19322D02*
X32850Y19200D01*
X32329Y18852D01*
X31981Y18331D01*
X31859Y17717D01*
X31981Y17102D01*
X32238Y16718D01*
X31950Y16279D01*
X31496Y16369D01*
X30882Y16247D01*
X30361Y15899D01*
X30013Y15378D01*
X29890Y14764D01*
X30013Y14149D01*
X30361Y13628D01*
X30882Y13280D01*
X31496Y13158D01*
X32111Y13280D01*
X32631Y13628D01*
X32980Y14149D01*
X33102Y14764D01*
X32980Y15378D01*
X32723Y15763D01*
X33011Y16201D01*
X33465Y16111D01*
X34079Y16233D01*
X34600Y16581D01*
X34948Y17102D01*
X35070Y17717D01*
X34948Y18331D01*
X34600Y18852D01*
X34079Y19200D01*
X33465Y19322D01*
D02*
G37*
G36*
X69882Y16670D02*
X69152Y16525D01*
X68534Y16112D01*
X68120Y15494D01*
X67975Y14764D01*
X68120Y14034D01*
X68534Y13416D01*
X69152Y13002D01*
X69882Y12857D01*
X70612Y13002D01*
X71230Y13416D01*
X71644Y14034D01*
X71789Y14764D01*
X71644Y15494D01*
X71230Y16112D01*
X70612Y16525D01*
X69882Y16670D01*
D02*
G37*
G36*
X108268Y19322D02*
X107653Y19200D01*
X107132Y18852D01*
X106784Y18331D01*
X106662Y17717D01*
X106784Y17102D01*
X107132Y16581D01*
X107653Y16233D01*
X108268Y16111D01*
X108882Y16233D01*
X109403Y16581D01*
X109751Y17102D01*
X109873Y17717D01*
X109751Y18331D01*
X109403Y18852D01*
X108882Y19200D01*
X108268Y19322D01*
D02*
G37*
G36*
X112205D02*
X111590Y19200D01*
X111069Y18852D01*
X110721Y18331D01*
X110599Y17717D01*
X110721Y17102D01*
X111069Y16581D01*
X111590Y16233D01*
X112205Y16111D01*
X112819Y16233D01*
X113340Y16581D01*
X113688Y17102D01*
X113810Y17717D01*
X113688Y18331D01*
X113340Y18852D01*
X112819Y19200D01*
X112205Y19322D01*
D02*
G37*
G36*
X-39370Y24544D02*
X-40100Y24399D01*
X-40718Y23986D01*
X-41132Y23368D01*
X-41277Y22638D01*
X-41132Y21908D01*
X-40718Y21290D01*
X-40100Y20876D01*
X-39370Y20731D01*
X-38640Y20876D01*
X-38022Y21290D01*
X-37609Y21908D01*
X-37463Y22638D01*
X-37609Y23368D01*
X-38022Y23986D01*
X-38640Y24399D01*
X-39370Y24544D01*
D02*
G37*
G36*
X-2953Y29165D02*
X-3567Y29043D01*
X-4088Y28694D01*
X-4436Y28174D01*
X-4558Y27559D01*
X-4436Y26945D01*
X-4088Y26424D01*
X-3567Y26076D01*
X-2953Y25953D01*
X-2338Y26076D01*
X-1817Y26424D01*
X-1469Y26945D01*
X-1347Y27559D01*
X-1469Y28174D01*
X-1817Y28694D01*
X-2338Y29043D01*
X-2953Y29165D01*
D02*
G37*
G36*
X984D02*
X370Y29043D01*
X-151Y28694D01*
X-499Y28174D01*
X-621Y27559D01*
X-499Y26945D01*
X-151Y26424D01*
X370Y26076D01*
X984Y25953D01*
X1599Y26076D01*
X2120Y26424D01*
X2468Y26945D01*
X2590Y27559D01*
X2468Y28174D01*
X2120Y28694D01*
X1599Y29043D01*
X984Y29165D01*
D02*
G37*
G36*
X87598Y32118D02*
X86984Y31995D01*
X86463Y31647D01*
X86115Y31126D01*
X85993Y30512D01*
X86115Y29897D01*
X86463Y29376D01*
X86984Y29028D01*
X87598Y28906D01*
X88213Y29028D01*
X88734Y29376D01*
X89082Y29897D01*
X89204Y30512D01*
X89082Y31126D01*
X88734Y31647D01*
X88213Y31995D01*
X87598Y32118D01*
D02*
G37*
G36*
X-104331Y29466D02*
X-105061Y29321D01*
X-105679Y28907D01*
X-106092Y28289D01*
X-106237Y27559D01*
X-106092Y26829D01*
X-105679Y26211D01*
X-105061Y25798D01*
X-104331Y25652D01*
X-103601Y25798D01*
X-102982Y26211D01*
X-102569Y26829D01*
X-102424Y27559D01*
X-102569Y28289D01*
X-102982Y28907D01*
X-103601Y29321D01*
X-104331Y29466D01*
D02*
G37*
G36*
X-23622Y27497D02*
X-24352Y27352D01*
X-24970Y26939D01*
X-25384Y26320D01*
X-25529Y25591D01*
X-25384Y24861D01*
X-24970Y24242D01*
X-24352Y23829D01*
X-23622Y23684D01*
X-22892Y23829D01*
X-22274Y24242D01*
X-21860Y24861D01*
X-21715Y25591D01*
X-21860Y26320D01*
X-22274Y26939D01*
X-22892Y27352D01*
X-23622Y27497D01*
D02*
G37*
G36*
X-147638Y29466D02*
X-148368Y29321D01*
X-148986Y28907D01*
X-149399Y28289D01*
X-149545Y27559D01*
X-149399Y26829D01*
X-148986Y26211D01*
X-148368Y25798D01*
X-147638Y25652D01*
X-146908Y25798D01*
X-146290Y26211D01*
X-145876Y26829D01*
X-145731Y27559D01*
X-145876Y28289D01*
X-146290Y28907D01*
X-146908Y29321D01*
X-147638Y29466D01*
D02*
G37*
G36*
X-125984D02*
X-126714Y29321D01*
X-127333Y28907D01*
X-127746Y28289D01*
X-127891Y27559D01*
X-127746Y26829D01*
X-127333Y26211D01*
X-126714Y25798D01*
X-125984Y25652D01*
X-125255Y25798D01*
X-124636Y26211D01*
X-124223Y26829D01*
X-124078Y27559D01*
X-124223Y28289D01*
X-124636Y28907D01*
X-125255Y29321D01*
X-125984Y29466D01*
D02*
G37*
G36*
X32480Y6527D02*
X31866Y6405D01*
X31345Y6057D01*
X30997Y5536D01*
X30875Y4921D01*
X30997Y4307D01*
X31345Y3786D01*
X31866Y3438D01*
X32480Y3316D01*
X33095Y3438D01*
X33616Y3786D01*
X33964Y4307D01*
X34086Y4921D01*
X33964Y5536D01*
X33616Y6057D01*
X33095Y6405D01*
X32480Y6527D01*
D02*
G37*
G36*
X63976Y7812D02*
X63247Y7667D01*
X62628Y7254D01*
X62215Y6635D01*
X62070Y5906D01*
X62215Y5176D01*
X62628Y4557D01*
X63247Y4144D01*
X63976Y3999D01*
X64706Y4144D01*
X65325Y4557D01*
X65738Y5176D01*
X65883Y5906D01*
X65738Y6635D01*
X65325Y7254D01*
X64706Y7667D01*
X63976Y7812D01*
D02*
G37*
G36*
X-80709Y9781D02*
X-81438Y9636D01*
X-82057Y9222D01*
X-82470Y8604D01*
X-82615Y7874D01*
X-82470Y7144D01*
X-82057Y6526D01*
X-81438Y6112D01*
X-80709Y5967D01*
X-79979Y6112D01*
X-79360Y6526D01*
X-78947Y7144D01*
X-78802Y7874D01*
X-78947Y8604D01*
X-79360Y9222D01*
X-79979Y9636D01*
X-80709Y9781D01*
D02*
G37*
G36*
X-58071Y5543D02*
X-58685Y5420D01*
X-59206Y5072D01*
X-59554Y4552D01*
X-59676Y3937D01*
X-59554Y3322D01*
X-59206Y2802D01*
X-58685Y2454D01*
X-58071Y2331D01*
X-57456Y2454D01*
X-56936Y2802D01*
X-56587Y3322D01*
X-56465Y3937D01*
X-56587Y4552D01*
X-56936Y5072D01*
X-57456Y5420D01*
X-58071Y5543D01*
D02*
G37*
G36*
X-104331Y4558D02*
X-104945Y4436D01*
X-105466Y4088D01*
X-105814Y3567D01*
X-105936Y2953D01*
X-105814Y2338D01*
X-105466Y1817D01*
X-104945Y1469D01*
X-104331Y1347D01*
X-103716Y1469D01*
X-103195Y1817D01*
X-102847Y2338D01*
X-102725Y2953D01*
X-102847Y3567D01*
X-103195Y4088D01*
X-103716Y4436D01*
X-104331Y4558D01*
D02*
G37*
G36*
X-77756Y5844D02*
X-78486Y5699D01*
X-79104Y5285D01*
X-79518Y4667D01*
X-79663Y3937D01*
X-79518Y3207D01*
X-79104Y2589D01*
X-78486Y2175D01*
X-77756Y2030D01*
X-77026Y2175D01*
X-76408Y2589D01*
X-75994Y3207D01*
X-75849Y3937D01*
X-75994Y4667D01*
X-76408Y5285D01*
X-77026Y5699D01*
X-77756Y5844D01*
D02*
G37*
G36*
X-62008Y5543D02*
X-62622Y5420D01*
X-63143Y5072D01*
X-63491Y4552D01*
X-63613Y3937D01*
X-63491Y3322D01*
X-63143Y2802D01*
X-62622Y2454D01*
X-62008Y2331D01*
X-61393Y2454D01*
X-60873Y2802D01*
X-60524Y3322D01*
X-60402Y3937D01*
X-60524Y4552D01*
X-60873Y5072D01*
X-61393Y5420D01*
X-62008Y5543D01*
D02*
G37*
G36*
X-94488Y9480D02*
X-95103Y9358D01*
X-95624Y9009D01*
X-95972Y8489D01*
X-96094Y7874D01*
X-95972Y7260D01*
X-95624Y6739D01*
X-95103Y6391D01*
X-94488Y6268D01*
X-93874Y6391D01*
X-93353Y6739D01*
X-93005Y7260D01*
X-92883Y7874D01*
X-93005Y8489D01*
X-93353Y9009D01*
X-93874Y9358D01*
X-94488Y9480D01*
D02*
G37*
G36*
X38386Y13417D02*
X37771Y13295D01*
X37251Y12946D01*
X36902Y12426D01*
X36780Y11811D01*
X36902Y11197D01*
X37251Y10676D01*
X37771Y10328D01*
X38386Y10205D01*
X39000Y10328D01*
X39521Y10676D01*
X39869Y11197D01*
X39992Y11811D01*
X39869Y12426D01*
X39521Y12946D01*
X39000Y13295D01*
X38386Y13417D01*
D02*
G37*
G36*
X35433Y9480D02*
X34819Y9358D01*
X34298Y9009D01*
X33950Y8489D01*
X33827Y7874D01*
X33950Y7260D01*
X34298Y6739D01*
X34819Y6391D01*
X35433Y6268D01*
X36048Y6391D01*
X36568Y6739D01*
X36917Y7260D01*
X37039Y7874D01*
X36917Y8489D01*
X36568Y9009D01*
X36048Y9358D01*
X35433Y9480D01*
D02*
G37*
G36*
X56102Y14893D02*
X55488Y14771D01*
X54967Y14423D01*
X54619Y13902D01*
X54497Y13287D01*
X54619Y12673D01*
X54967Y12152D01*
X55488Y11804D01*
X56102Y11682D01*
X56717Y11804D01*
X57238Y12152D01*
X57586Y12673D01*
X57708Y13287D01*
X57586Y13902D01*
X57238Y14423D01*
X56717Y14771D01*
X56102Y14893D01*
D02*
G37*
G36*
X-72835Y9480D02*
X-73449Y9358D01*
X-73970Y9009D01*
X-74318Y8489D01*
X-74440Y7874D01*
X-74318Y7260D01*
X-73970Y6739D01*
X-73449Y6391D01*
X-72835Y6268D01*
X-72220Y6391D01*
X-71699Y6739D01*
X-71351Y7260D01*
X-71229Y7874D01*
X-71351Y8489D01*
X-71699Y9009D01*
X-72220Y9358D01*
X-72835Y9480D01*
D02*
G37*
%LPD*%
G36*
X-40354Y-76772D02*
X-38386Y-78740D01*
X-38386Y-85138D01*
X-36909Y-86614D01*
X-34449D01*
X-32999Y-88064D01*
X-33102Y-88583D01*
X-32980Y-89197D01*
X-32631Y-89718D01*
X-32480Y-89819D01*
X-32480Y-107283D01*
X-34449Y-109252D01*
X-66929Y-109252D01*
X-67914Y-108268D01*
Y-100394D01*
X-71358Y-96949D01*
X-86122D01*
X-88091Y-94980D01*
X-88091Y-82185D01*
X-86122Y-80216D01*
X-71358D01*
X-67914Y-76772D01*
X-61024D01*
X-40354Y-76772D01*
D02*
G37*
%LPC*%
G36*
X-38386Y-90914D02*
X-39000Y-91036D01*
X-39521Y-91384D01*
X-39869Y-91905D01*
X-39992Y-92520D01*
X-39869Y-93134D01*
X-39521Y-93655D01*
X-39000Y-94003D01*
X-38386Y-94125D01*
X-37771Y-94003D01*
X-37251Y-93655D01*
X-36902Y-93134D01*
X-36780Y-92520D01*
X-36902Y-91905D01*
X-37251Y-91384D01*
X-37771Y-91036D01*
X-38386Y-90914D01*
D02*
G37*
G36*
Y-95835D02*
X-39000Y-95957D01*
X-39521Y-96306D01*
X-39869Y-96826D01*
X-39992Y-97441D01*
X-39869Y-98055D01*
X-39521Y-98576D01*
X-39000Y-98924D01*
X-38386Y-99047D01*
X-37771Y-98924D01*
X-37251Y-98576D01*
X-36902Y-98055D01*
X-36780Y-97441D01*
X-36902Y-96826D01*
X-37251Y-96306D01*
X-37771Y-95957D01*
X-38386Y-95835D01*
D02*
G37*
G36*
X-57972Y-96721D02*
X-58587Y-96843D01*
X-59108Y-97191D01*
X-59456Y-97712D01*
X-59578Y-98327D01*
X-59456Y-98941D01*
X-59108Y-99462D01*
X-58587Y-99810D01*
X-57972Y-99932D01*
X-57358Y-99810D01*
X-56837Y-99462D01*
X-56489Y-98941D01*
X-56367Y-98327D01*
X-56489Y-97712D01*
X-56837Y-97191D01*
X-57358Y-96843D01*
X-57972Y-96721D01*
D02*
G37*
%LPD*%
D56*
X-70866Y-112205D02*
X-64961Y-106299D01*
X-93504Y-123031D02*
X-73819D01*
X-70866Y-120079D01*
Y-112205D01*
D58*
X-99046Y-123031D02*
X-93504D01*
D63*
X29685Y119685D02*
D03*
X19685D02*
D03*
X14685D02*
D03*
D64*
X-93504Y-123031D02*
D03*
D65*
X32480Y-36417D02*
D03*
X115157Y68898D02*
D03*
Y49213D02*
D03*
X111221D02*
D03*
Y68898D02*
D03*
X107283D02*
D03*
Y49213D02*
D03*
Y45276D02*
D03*
Y41339D02*
D03*
X32480Y-59055D02*
D03*
X38386D02*
D03*
X43307Y-68898D02*
D03*
X27559Y-72835D02*
D03*
Y-68898D02*
D03*
Y-76772D02*
D03*
X30512Y-79724D02*
D03*
X40354D02*
D03*
X35433D02*
D03*
X0Y-12795D02*
D03*
X-3937D02*
D03*
X-15748Y-14764D02*
D03*
X0Y-32480D02*
D03*
X-3937D02*
D03*
X-7874Y-14764D02*
D03*
X-18701Y-16732D02*
D03*
Y-20669D02*
D03*
Y-24606D02*
D03*
X4921Y-36417D02*
D03*
Y-41339D02*
D03*
Y-46260D02*
D03*
X18701Y-50197D02*
D03*
X32480Y-41339D02*
D03*
Y-46260D02*
D03*
X28543Y-50197D02*
D03*
X13780D02*
D03*
X8858D02*
D03*
X23622D02*
D03*
X32480Y-32480D02*
D03*
X-11811Y-14764D02*
D03*
X-18701Y-28543D02*
D03*
X-15748Y-30512D02*
D03*
X-11811D02*
D03*
X-7874D02*
D03*
X3937D02*
D03*
X-53543Y-89764D02*
D03*
Y-93701D02*
D03*
X-46850D02*
D03*
Y-89764D02*
D03*
X-50197D02*
D03*
X-124409Y-90551D02*
D03*
X-127559Y-94488D02*
D03*
X58661Y-84055D02*
D03*
X62992D02*
D03*
X67323D02*
D03*
X58661Y-79724D02*
D03*
X62992D02*
D03*
X67323D02*
D03*
X58661Y-75394D02*
D03*
X62992D02*
D03*
X67323D02*
D03*
X131890Y-99410D02*
D03*
X124016D02*
D03*
X129921Y-75787D02*
D03*
X123031Y-87598D02*
D03*
X102362Y-75787D02*
D03*
X116142Y-71850D02*
D03*
X117126Y-93504D02*
D03*
X-50197Y-93701D02*
D03*
X-120079Y-132874D02*
D03*
X-117126Y-138779D02*
D03*
X-120079Y-144685D02*
D03*
X-123031Y-138779D02*
D03*
X-114173Y-144685D02*
D03*
X-117126Y-126969D02*
D03*
X-111221D02*
D03*
X-105315D02*
D03*
Y-144685D02*
D03*
X-123031Y-126969D02*
D03*
X-120079Y-121063D02*
D03*
X-123031Y-115157D02*
D03*
X-117126D02*
D03*
X-101378Y-109252D02*
D03*
Y-103347D02*
D03*
X-107283D02*
D03*
X-113189Y-109252D02*
D03*
X-192913Y-53150D02*
D03*
Y-33465D02*
D03*
Y-13780D02*
D03*
Y5906D02*
D03*
Y25591D02*
D03*
X-173228Y-53150D02*
D03*
X-154528D02*
D03*
X-183071Y15748D02*
D03*
Y-3937D02*
D03*
Y-23622D02*
D03*
Y-43307D02*
D03*
X-173228Y25591D02*
D03*
Y5906D02*
D03*
Y-13780D02*
D03*
Y-33465D02*
D03*
X-163386Y35433D02*
D03*
Y15748D02*
D03*
Y-3937D02*
D03*
Y-23622D02*
D03*
X-183071Y35433D02*
D03*
X-192913Y42323D02*
D03*
X-173228D02*
D03*
X-163386Y-43307D02*
D03*
X-140748Y-53150D02*
D03*
X-72835Y-44291D02*
D03*
X-75787Y-49213D02*
D03*
X-69882D02*
D03*
X-72835Y-54134D02*
D03*
X-74803Y15748D02*
D03*
X-84646Y25591D02*
D03*
X-74803Y35433D02*
D03*
X-94488D02*
D03*
X-84646Y42323D02*
D03*
X-183071Y-62992D02*
D03*
X-192913Y-72835D02*
D03*
X-183071Y-82677D02*
D03*
X-173228Y-72835D02*
D03*
X-163386Y-82677D02*
D03*
X-153543Y-72835D02*
D03*
X-143701Y-62992D02*
D03*
Y-82677D02*
D03*
X-163386Y-62992D02*
D03*
X-83661Y-7874D02*
D03*
X43307Y-106299D02*
D03*
X51181D02*
D03*
Y-101378D02*
D03*
X43307D02*
D03*
X46260Y-92520D02*
D03*
X50197Y-96457D02*
D03*
X41339Y-112205D02*
D03*
X53150D02*
D03*
X33465Y-106299D02*
D03*
X23622D02*
D03*
X13780D02*
D03*
X3937D02*
D03*
X-5906D02*
D03*
X-15748D02*
D03*
X-25591D02*
D03*
X-20669Y-96457D02*
D03*
X-10827D02*
D03*
X8858D02*
D03*
X18701D02*
D03*
X70866Y-106299D02*
D03*
X80709D02*
D03*
X90551D02*
D03*
X159449D02*
D03*
X154528Y-96457D02*
D03*
X164370D02*
D03*
X159449Y-86614D02*
D03*
X164370Y-76772D02*
D03*
X154528D02*
D03*
X85630Y-96457D02*
D03*
X75787D02*
D03*
X-25591Y-86614D02*
D03*
X-20669Y-76772D02*
D03*
X23622Y-86614D02*
D03*
Y-66929D02*
D03*
X-25591D02*
D03*
X-20669Y-57087D02*
D03*
X159449Y-66929D02*
D03*
X164370Y-57087D02*
D03*
X154528D02*
D03*
X115157D02*
D03*
X159449Y-47244D02*
D03*
X105315Y-57087D02*
D03*
X149606Y-106299D02*
D03*
X164370Y-17717D02*
D03*
Y21654D02*
D03*
Y61024D02*
D03*
Y100394D02*
D03*
X193898Y120079D02*
D03*
X125000Y146653D02*
D03*
X85630D02*
D03*
X46260D02*
D03*
X6890D02*
D03*
X-32480D02*
D03*
X-63976D02*
D03*
Y107283D02*
D03*
Y67913D02*
D03*
Y28543D02*
D03*
X164370Y-37402D02*
D03*
Y1969D02*
D03*
Y41339D02*
D03*
Y80709D02*
D03*
X105315Y146653D02*
D03*
X65945D02*
D03*
X26575D02*
D03*
X-12795D02*
D03*
X-52165D02*
D03*
X-63976Y126969D02*
D03*
Y87598D02*
D03*
Y48228D02*
D03*
X154528Y-27559D02*
D03*
Y-7874D02*
D03*
Y11811D02*
D03*
Y31496D02*
D03*
Y51181D02*
D03*
Y70866D02*
D03*
Y90551D02*
D03*
X144685Y80709D02*
D03*
X134843Y70866D02*
D03*
Y90551D02*
D03*
X125000Y80709D02*
D03*
X115157Y90551D02*
D03*
Y31496D02*
D03*
Y11811D02*
D03*
Y-7874D02*
D03*
Y-27559D02*
D03*
Y-47244D02*
D03*
X144685Y100394D02*
D03*
X164370Y129921D02*
D03*
X144685D02*
D03*
X105315Y120079D02*
D03*
X95472Y110236D02*
D03*
X85630Y100394D02*
D03*
X65945D02*
D03*
Y80709D02*
D03*
X56102Y90551D02*
D03*
X46260Y80709D02*
D03*
Y100394D02*
D03*
X36417Y110236D02*
D03*
X46260Y120079D02*
D03*
X-44291Y48228D02*
D03*
X-54134Y58071D02*
D03*
X-34449D02*
D03*
X-44291Y87598D02*
D03*
X-24606D02*
D03*
X-54134Y117126D02*
D03*
X-44291Y107283D02*
D03*
Y126969D02*
D03*
X-54134Y136811D02*
D03*
X-34449D02*
D03*
X-14764D02*
D03*
X154528Y110236D02*
D03*
X134843D02*
D03*
X125000Y100394D02*
D03*
X139764Y41339D02*
D03*
Y31496D02*
D03*
Y21654D02*
D03*
Y11811D02*
D03*
Y1969D02*
D03*
Y-7874D02*
D03*
Y-17717D02*
D03*
Y-27559D02*
D03*
Y-37402D02*
D03*
Y-47244D02*
D03*
Y-57087D02*
D03*
Y-66929D02*
D03*
X125000Y41339D02*
D03*
Y21654D02*
D03*
Y1969D02*
D03*
Y-17717D02*
D03*
Y-37402D02*
D03*
Y-57087D02*
D03*
X133858Y46260D02*
D03*
Y36417D02*
D03*
Y26575D02*
D03*
Y16732D02*
D03*
Y6890D02*
D03*
Y-2953D02*
D03*
Y-12795D02*
D03*
Y-22638D02*
D03*
Y-32480D02*
D03*
Y-42323D02*
D03*
Y-52165D02*
D03*
Y-62008D02*
D03*
X137795Y50197D02*
D03*
X125000Y49213D02*
D03*
Y55118D02*
D03*
X115157D02*
D03*
X132874D02*
D03*
X93504D02*
D03*
X88583Y49213D02*
D03*
X76772Y55118D02*
D03*
Y49213D02*
D03*
X107283Y-102362D02*
D03*
X65945Y-7874D02*
D03*
X75787Y1969D02*
D03*
X-127559Y-90551D02*
D03*
X-124409Y-94488D02*
D03*
X-158465Y-123031D02*
D03*
D66*
X-5906Y-61024D02*
D03*
X89567Y-71850D02*
D03*
X21654Y106299D02*
D03*
X-18701Y-47244D02*
D03*
X-42323D02*
D03*
X93504Y-53150D02*
D03*
X107283D02*
D03*
Y100394D02*
D03*
X-64961Y-79724D02*
D03*
X-51181Y-80709D02*
D03*
X88583Y-84646D02*
D03*
X66929Y-108268D02*
D03*
X62992D02*
D03*
X30512Y-95472D02*
D03*
X48228Y-54134D02*
D03*
X69882Y-45276D02*
D03*
Y-27559D02*
D03*
X73819Y-24606D02*
D03*
X48228Y-27559D02*
D03*
X52165Y-24606D02*
D03*
X48228Y-45276D02*
D03*
X-97441Y-43307D02*
D03*
X-157480Y-37402D02*
D03*
X-100394Y-8858D02*
D03*
X-151575Y2953D02*
D03*
X-113189Y-5906D02*
D03*
X-138779D02*
D03*
X-125984Y-1969D02*
D03*
X-153543Y-25591D02*
D03*
Y-19685D02*
D03*
Y-13780D02*
D03*
X-132874Y-25591D02*
D03*
X-98425Y-31496D02*
D03*
Y-37402D02*
D03*
X-984Y67913D02*
D03*
X69882Y46260D02*
D03*
X63976Y0D02*
D03*
X60039Y-2953D02*
D03*
X28543Y-22638D02*
D03*
X7382Y-16732D02*
D03*
X97441Y-93504D02*
D03*
X142717Y-81693D02*
D03*
X28543Y-16732D02*
D03*
X-27559Y984D02*
D03*
X-37402Y25591D02*
D03*
X-33465Y44291D02*
D03*
X-115157Y-80709D02*
D03*
X-136811D02*
D03*
X-150591Y-98425D02*
D03*
X-130905Y-108268D02*
D03*
X-121063D02*
D03*
X-107283Y-98425D02*
D03*
X-101378Y-98425D02*
D03*
X-11811Y-77756D02*
D03*
X-15748Y-74803D02*
D03*
X11811Y-77756D02*
D03*
X15748Y-74803D02*
D03*
Y-89567D02*
D03*
X11811Y-92520D02*
D03*
X-11811D02*
D03*
X-15748Y-89567D02*
D03*
X-89567Y-49213D02*
D03*
X-86614Y-53150D02*
D03*
X-89567Y-25591D02*
D03*
Y-19685D02*
D03*
X-86614Y7874D02*
D03*
X-89567Y3937D02*
D03*
X-14764Y-44291D02*
D03*
X-153543Y-40354D02*
D03*
X91535Y-65945D02*
D03*
X-5906Y-97441D02*
D03*
X-64961D02*
D03*
X-144685Y-98425D02*
D03*
X-50197D02*
D03*
X-113189Y-43307D02*
D03*
X62008Y-54134D02*
D03*
X56102Y-45276D02*
D03*
X59055Y-105315D02*
D03*
X55118Y-50197D02*
D03*
X13780Y99410D02*
D03*
X25591D02*
D03*
X-157480Y-92520D02*
D03*
X77756Y-45276D02*
D03*
X69882Y-54134D02*
D03*
D68*
X-93504Y-123031D02*
Y-116634D01*
M02*
