G04 Layer_Color=8388736*
%FSLAX25Y25*%
%MOIN*%
G70*
G01*
G75*
%ADD81O,0.07480X0.01575*%
%ADD82O,0.01575X0.07480*%
%ADD83R,0.03635X0.04737*%
%ADD84R,0.03543X0.01969*%
%ADD85R,0.04343X0.03162*%
%ADD86R,0.14186X0.07296*%
%ADD87R,0.03162X0.04737*%
%ADD88R,0.04540X0.03359*%
%ADD89R,0.03359X0.04540*%
%ADD90R,0.04737X0.03635*%
%ADD91R,0.04737X0.03162*%
%ADD92R,0.02913X0.02913*%
%ADD93R,0.04528X0.03740*%
%ADD94R,0.02559X0.03150*%
G04:AMPARAMS|DCode=95|XSize=31.62mil|YSize=86.74mil|CornerRadius=9.91mil|HoleSize=0mil|Usage=FLASHONLY|Rotation=270.000|XOffset=0mil|YOffset=0mil|HoleType=Round|Shape=RoundedRectangle|*
%AMROUNDEDRECTD95*
21,1,0.03162,0.06693,0,0,270.0*
21,1,0.01181,0.08674,0,0,270.0*
1,1,0.01981,-0.03347,-0.00591*
1,1,0.01981,-0.03347,0.00591*
1,1,0.01981,0.03347,0.00591*
1,1,0.01981,0.03347,-0.00591*
%
%ADD95ROUNDEDRECTD95*%
G04:AMPARAMS|DCode=96|XSize=86.74mil|YSize=106.42mil|CornerRadius=23.69mil|HoleSize=0mil|Usage=FLASHONLY|Rotation=270.000|XOffset=0mil|YOffset=0mil|HoleType=Round|Shape=RoundedRectangle|*
%AMROUNDEDRECTD96*
21,1,0.08674,0.05906,0,0,270.0*
21,1,0.03937,0.10642,0,0,270.0*
1,1,0.04737,-0.02953,-0.01969*
1,1,0.04737,-0.02953,0.01969*
1,1,0.04737,0.02953,0.01969*
1,1,0.04737,0.02953,-0.01969*
%
%ADD96ROUNDEDRECTD96*%
%ADD97R,0.04540X0.03359*%
%ADD98R,0.07887X0.05721*%
G04:AMPARAMS|DCode=99|XSize=86.74mil|YSize=47.37mil|CornerRadius=13.84mil|HoleSize=0mil|Usage=FLASHONLY|Rotation=180.000|XOffset=0mil|YOffset=0mil|HoleType=Round|Shape=RoundedRectangle|*
%AMROUNDEDRECTD99*
21,1,0.08674,0.01969,0,0,180.0*
21,1,0.05906,0.04737,0,0,180.0*
1,1,0.02769,-0.02953,0.00984*
1,1,0.02769,0.02953,0.00984*
1,1,0.02769,0.02953,-0.00984*
1,1,0.02769,-0.02953,-0.00984*
%
%ADD99ROUNDEDRECTD99*%
%ADD100O,0.01575X0.05906*%
%ADD101O,0.05906X0.01575*%
%ADD102R,0.06299X0.07284*%
%ADD103R,0.07887X0.04737*%
G04:AMPARAMS|DCode=104|XSize=106.42mil|YSize=106.42mil|CornerRadius=28.61mil|HoleSize=0mil|Usage=FLASHONLY|Rotation=90.000|XOffset=0mil|YOffset=0mil|HoleType=Round|Shape=RoundedRectangle|*
%AMROUNDEDRECTD104*
21,1,0.10642,0.04921,0,0,90.0*
21,1,0.04921,0.10642,0,0,90.0*
1,1,0.05721,0.02461,0.02461*
1,1,0.05721,0.02461,-0.02461*
1,1,0.05721,-0.02461,-0.02461*
1,1,0.05721,-0.02461,0.02461*
%
%ADD104ROUNDEDRECTD104*%
G04:AMPARAMS|DCode=105|XSize=55.24mil|YSize=47.37mil|CornerRadius=13.84mil|HoleSize=0mil|Usage=FLASHONLY|Rotation=180.000|XOffset=0mil|YOffset=0mil|HoleType=Round|Shape=RoundedRectangle|*
%AMROUNDEDRECTD105*
21,1,0.05524,0.01969,0,0,180.0*
21,1,0.02756,0.04737,0,0,180.0*
1,1,0.02769,-0.01378,0.00984*
1,1,0.02769,0.01378,0.00984*
1,1,0.02769,0.01378,-0.00984*
1,1,0.02769,-0.01378,-0.00984*
%
%ADD105ROUNDEDRECTD105*%
%ADD106R,0.02913X0.02913*%
%ADD107R,0.01969X0.02756*%
%ADD108R,0.02756X0.07284*%
%ADD109R,0.03937X0.03543*%
G04:AMPARAMS|DCode=110|XSize=118.24mil|YSize=74.93mil|CornerRadius=20.73mil|HoleSize=0mil|Usage=FLASHONLY|Rotation=90.000|XOffset=0mil|YOffset=0mil|HoleType=Round|Shape=RoundedRectangle|*
%AMROUNDEDRECTD110*
21,1,0.11824,0.03347,0,0,90.0*
21,1,0.07677,0.07493,0,0,90.0*
1,1,0.04146,0.01673,0.03839*
1,1,0.04146,0.01673,-0.03839*
1,1,0.04146,-0.01673,-0.03839*
1,1,0.04146,-0.01673,0.03839*
%
%ADD110ROUNDEDRECTD110*%
G04:AMPARAMS|DCode=111|XSize=118.24mil|YSize=110.36mil|CornerRadius=29.59mil|HoleSize=0mil|Usage=FLASHONLY|Rotation=90.000|XOffset=0mil|YOffset=0mil|HoleType=Round|Shape=RoundedRectangle|*
%AMROUNDEDRECTD111*
21,1,0.11824,0.05118,0,0,90.0*
21,1,0.05906,0.11036,0,0,90.0*
1,1,0.05918,0.02559,0.02953*
1,1,0.05918,0.02559,-0.02953*
1,1,0.05918,-0.02559,-0.02953*
1,1,0.05918,-0.02559,0.02953*
%
%ADD111ROUNDEDRECTD111*%
%ADD112O,0.03740X0.01181*%
%ADD113R,0.10039X0.08071*%
%ADD114O,0.05709X0.01575*%
%ADD115R,0.06575X0.07795*%
%ADD116R,0.13937X0.13937*%
%ADD117O,0.01339X0.03110*%
%ADD118O,0.03110X0.01339*%
%ADD119C,0.07874*%
%ADD120R,0.08622X0.08622*%
%ADD121O,0.01535X0.04095*%
%ADD122O,0.04095X0.01535*%
%ADD123R,0.07887X0.05524*%
%ADD124O,0.06706X0.10642*%
%ADD125C,0.18517*%
%ADD126C,0.04331*%
%ADD127O,0.10642X0.06706*%
%ADD128C,0.03162*%
%ADD129C,0.05721*%
%ADD130C,0.03753*%
%ADD131C,0.04737*%
G36*
X-45335Y-85042D02*
X-45298Y-85053D01*
X-45264Y-85072D01*
X-45234Y-85096D01*
X-45210Y-85126D01*
X-45191Y-85160D01*
X-45180Y-85198D01*
X-45176Y-85236D01*
Y-98228D01*
X-45180Y-98267D01*
X-45191Y-98304D01*
X-45210Y-98338D01*
X-45234Y-98368D01*
X-45264Y-98393D01*
X-45298Y-98411D01*
X-45335Y-98422D01*
X-45374Y-98426D01*
X-46358D01*
X-46397Y-98422D01*
X-46434Y-98411D01*
X-46468Y-98393D01*
X-46498Y-98368D01*
X-46523Y-98338D01*
X-46541Y-98304D01*
X-46552Y-98267D01*
X-46556Y-98228D01*
Y-95769D01*
X-53838D01*
Y-98228D01*
X-53841Y-98267D01*
X-53853Y-98304D01*
X-53871Y-98338D01*
X-53896Y-98368D01*
X-53926Y-98393D01*
X-53960Y-98411D01*
X-53997Y-98422D01*
X-54035Y-98426D01*
X-55020D01*
X-55058Y-98422D01*
X-55095Y-98411D01*
X-55130Y-98393D01*
X-55160Y-98368D01*
X-55184Y-98338D01*
X-55202Y-98304D01*
X-55214Y-98267D01*
X-55217Y-98228D01*
Y-85236D01*
X-55214Y-85198D01*
X-55202Y-85161D01*
X-55184Y-85126D01*
X-55160Y-85096D01*
X-55130Y-85072D01*
X-55095Y-85053D01*
X-55058Y-85042D01*
X-55020Y-85039D01*
X-54035D01*
X-53997Y-85042D01*
X-53960Y-85053D01*
X-53926Y-85072D01*
X-53896Y-85096D01*
X-53871Y-85126D01*
X-53853Y-85161D01*
X-53841Y-85198D01*
X-53838Y-85236D01*
Y-87696D01*
X-46556D01*
Y-85236D01*
X-46552Y-85198D01*
X-46541Y-85161D01*
X-46523Y-85126D01*
X-46498Y-85096D01*
X-46468Y-85072D01*
X-46434Y-85053D01*
X-46397Y-85042D01*
X-46358Y-85039D01*
X-45374Y-85038D01*
X-45335Y-85042D01*
D02*
G37*
D81*
X49409Y45276D02*
D03*
Y47244D02*
D03*
Y37402D02*
D03*
Y43307D02*
D03*
Y39370D02*
D03*
Y41339D02*
D03*
Y27559D02*
D03*
Y29528D02*
D03*
Y23622D02*
D03*
Y25591D02*
D03*
Y33465D02*
D03*
Y35433D02*
D03*
Y31496D02*
D03*
Y19685D02*
D03*
Y21654D02*
D03*
Y15748D02*
D03*
Y17717D02*
D03*
Y13780D02*
D03*
Y3937D02*
D03*
Y5906D02*
D03*
Y0D02*
D03*
Y1969D02*
D03*
Y9843D02*
D03*
Y11811D02*
D03*
Y7874D02*
D03*
X-10039Y47244D02*
D03*
Y45276D02*
D03*
Y33465D02*
D03*
Y35433D02*
D03*
Y29528D02*
D03*
Y31496D02*
D03*
Y41339D02*
D03*
Y43307D02*
D03*
Y37402D02*
D03*
Y39370D02*
D03*
Y19685D02*
D03*
Y21654D02*
D03*
Y15748D02*
D03*
Y17717D02*
D03*
Y25591D02*
D03*
Y27559D02*
D03*
Y23622D02*
D03*
Y7874D02*
D03*
Y13780D02*
D03*
Y9843D02*
D03*
Y11811D02*
D03*
Y3937D02*
D03*
Y1969D02*
D03*
Y5906D02*
D03*
Y0D02*
D03*
D82*
X43307Y53347D02*
D03*
X41339D02*
D03*
X35433D02*
D03*
X33465D02*
D03*
X39370D02*
D03*
X37402D02*
D03*
X27559D02*
D03*
X25591D02*
D03*
X31496D02*
D03*
X29528D02*
D03*
X23622D02*
D03*
X21654D02*
D03*
X19685D02*
D03*
X17717D02*
D03*
X15748D02*
D03*
X25591Y-6102D02*
D03*
X23622D02*
D03*
X29528D02*
D03*
X27559D02*
D03*
X19685D02*
D03*
X17717D02*
D03*
X21654D02*
D03*
X39370D02*
D03*
X37402D02*
D03*
X43307D02*
D03*
X41339D02*
D03*
X33465D02*
D03*
X31496D02*
D03*
X35433D02*
D03*
X9843Y53347D02*
D03*
X7874D02*
D03*
X13780D02*
D03*
X11811D02*
D03*
X-1969D02*
D03*
X5906D02*
D03*
X3937D02*
D03*
X1969D02*
D03*
X0D02*
D03*
X-3937D02*
D03*
X11811Y-6102D02*
D03*
X9843D02*
D03*
X15748D02*
D03*
X13780D02*
D03*
X1969D02*
D03*
X3937D02*
D03*
X0D02*
D03*
X7874D02*
D03*
X5906D02*
D03*
X-1969D02*
D03*
X-3937D02*
D03*
D83*
X37165Y-16732D02*
D03*
X31732D02*
D03*
X-43071Y-55118D02*
D03*
X-37638D02*
D03*
X-101614Y-31496D02*
D03*
X-107047D02*
D03*
X-86378Y-25591D02*
D03*
X-80945D02*
D03*
X-101614Y-25591D02*
D03*
X-107047D02*
D03*
X-86378Y-49213D02*
D03*
X-80945D02*
D03*
X-86378Y-19685D02*
D03*
X-80945D02*
D03*
X-86378Y3937D02*
D03*
X-80945D02*
D03*
X-129173Y11811D02*
D03*
X-134606D02*
D03*
X37165Y-22638D02*
D03*
X31732D02*
D03*
X-9094Y-25591D02*
D03*
X-14527D02*
D03*
X-9094Y-19685D02*
D03*
X-14527D02*
D03*
X16496Y-29528D02*
D03*
X11063D02*
D03*
X20906Y-29528D02*
D03*
X26338D02*
D03*
X-42559Y-80709D02*
D03*
X-47992D02*
D03*
X-70630Y-93504D02*
D03*
X-65197D02*
D03*
X-42559Y-102362D02*
D03*
X-47992D02*
D03*
X-65197Y-83662D02*
D03*
X-70630D02*
D03*
X-6654Y63976D02*
D03*
X-1221D02*
D03*
X-117362Y11811D02*
D03*
X-122795D02*
D03*
X-150354Y-25591D02*
D03*
X-144921D02*
D03*
X-150354Y-19685D02*
D03*
X-144921D02*
D03*
X-150354Y-13780D02*
D03*
X-144921D02*
D03*
D84*
X-143898Y-2953D02*
D03*
Y-394D02*
D03*
Y-5512D02*
D03*
X-151378Y-2953D02*
D03*
Y-394D02*
D03*
Y-5512D02*
D03*
X-100591Y-2953D02*
D03*
Y-394D02*
D03*
Y-5512D02*
D03*
X-108071D02*
D03*
Y-394D02*
D03*
Y-2953D02*
D03*
X68465Y-40256D02*
D03*
Y-37697D02*
D03*
Y-35138D02*
D03*
Y-32579D02*
D03*
X57520Y-40256D02*
D03*
Y-37697D02*
D03*
Y-35138D02*
D03*
Y-32579D02*
D03*
D85*
X64370Y113976D02*
D03*
Y106496D02*
D03*
X73425Y110236D02*
D03*
X64370Y141535D02*
D03*
Y134055D02*
D03*
X73425Y137795D02*
D03*
X64370Y127756D02*
D03*
Y120276D02*
D03*
X73425Y124016D02*
D03*
X-25984Y120275D02*
D03*
Y127756D02*
D03*
X-35039Y124016D02*
D03*
D86*
X-147638Y57382D02*
D03*
Y35138D02*
D03*
X-155512Y110531D02*
D03*
Y88287D02*
D03*
X-125984Y110531D02*
D03*
Y88287D02*
D03*
X-104331Y57382D02*
D03*
Y35138D02*
D03*
X-125984Y57382D02*
D03*
Y35138D02*
D03*
X-96457Y110531D02*
D03*
Y88287D02*
D03*
D87*
X-87402Y-13287D02*
D03*
X-79921D02*
D03*
X-87402Y-2461D02*
D03*
X-79921D02*
D03*
X-83661D02*
D03*
X-87402Y-42815D02*
D03*
X-79921D02*
D03*
X-87402Y-31988D02*
D03*
X-79921D02*
D03*
X-83661D02*
D03*
D88*
X-72835Y-5217D02*
D03*
Y-10531D02*
D03*
Y-34744D02*
D03*
Y-40059D02*
D03*
X-147638Y-43602D02*
D03*
Y-48917D02*
D03*
X-113189Y22343D02*
D03*
Y17028D02*
D03*
X-123031Y22343D02*
D03*
Y17028D02*
D03*
X-128937Y22343D02*
D03*
Y17028D02*
D03*
X-138779Y22343D02*
D03*
Y17028D02*
D03*
X-17717Y121358D02*
D03*
Y126673D02*
D03*
X57087Y126673D02*
D03*
Y121358D02*
D03*
Y107579D02*
D03*
Y112894D02*
D03*
X181102Y121358D02*
D03*
Y126673D02*
D03*
X187008Y126673D02*
D03*
Y121358D02*
D03*
X-33465Y16043D02*
D03*
Y21358D02*
D03*
X-27559D02*
D03*
Y16043D02*
D03*
X57087Y135138D02*
D03*
Y140453D02*
D03*
X-33465Y-1673D02*
D03*
Y3642D02*
D03*
X-27559Y41043D02*
D03*
Y35728D02*
D03*
X-33465Y41043D02*
D03*
Y35728D02*
D03*
X-33465Y31201D02*
D03*
Y25886D02*
D03*
X-27559Y31201D02*
D03*
Y25886D02*
D03*
X52165Y-27854D02*
D03*
Y-33169D02*
D03*
D89*
X-37697Y-61024D02*
D03*
X-43012D02*
D03*
X-27854Y-61024D02*
D03*
X-33169D02*
D03*
X-101673Y-37402D02*
D03*
X-106988D02*
D03*
X-101673Y-19685D02*
D03*
X-106988D02*
D03*
X-33169Y-13780D02*
D03*
X-27854D02*
D03*
X-33169Y-19685D02*
D03*
X-27854D02*
D03*
X21949Y110236D02*
D03*
X27264D02*
D03*
X-33169Y110236D02*
D03*
X-27854D02*
D03*
X84350Y110236D02*
D03*
X79035D02*
D03*
X12106Y110236D02*
D03*
X17421D02*
D03*
X60335Y11811D02*
D03*
X65650D02*
D03*
X-81004Y-93504D02*
D03*
X-86319D02*
D03*
X-81004Y-83662D02*
D03*
X-86319D02*
D03*
X-118405Y-80709D02*
D03*
X-123721D02*
D03*
X-133563Y-104331D02*
D03*
X-128248D02*
D03*
X-118405D02*
D03*
X-123721D02*
D03*
X-133563Y-80709D02*
D03*
X-128248D02*
D03*
X-57776Y-102362D02*
D03*
X-52461D02*
D03*
X79035Y137795D02*
D03*
X84350D02*
D03*
Y124016D02*
D03*
X79035D02*
D03*
X60335Y17717D02*
D03*
X65650D02*
D03*
X-2657Y-61024D02*
D03*
X2657D02*
D03*
X-2657Y-97441D02*
D03*
X2657D02*
D03*
D90*
X-147638Y-31732D02*
D03*
Y-37165D02*
D03*
X-113189Y-11063D02*
D03*
Y-16496D02*
D03*
X-138779Y-11063D02*
D03*
Y-16496D02*
D03*
X-113189Y6654D02*
D03*
Y1221D02*
D03*
X-138779Y6654D02*
D03*
Y1221D02*
D03*
X-123031Y6654D02*
D03*
Y1221D02*
D03*
X-128937Y6654D02*
D03*
Y1221D02*
D03*
X-153543Y-31732D02*
D03*
Y-37165D02*
D03*
X-18701Y-38622D02*
D03*
Y-44055D02*
D03*
X-42323Y-38622D02*
D03*
Y-44055D02*
D03*
X73819Y-39606D02*
D03*
Y-45039D02*
D03*
Y-33228D02*
D03*
Y-27795D02*
D03*
X52165Y-39606D02*
D03*
Y-45039D02*
D03*
X11811Y-69134D02*
D03*
Y-74567D02*
D03*
Y-83898D02*
D03*
Y-89331D02*
D03*
X175197Y121299D02*
D03*
Y126732D02*
D03*
X11811Y-22402D02*
D03*
Y-16969D02*
D03*
X60039Y5669D02*
D03*
Y236D02*
D03*
X-20669Y-1732D02*
D03*
Y3701D02*
D03*
X65945Y51929D02*
D03*
Y46496D02*
D03*
X60040Y51929D02*
D03*
Y46496D02*
D03*
X23622Y-16969D02*
D03*
Y-22401D02*
D03*
X-107283Y-89803D02*
D03*
Y-95236D02*
D03*
X-144685Y-89803D02*
D03*
Y-95236D02*
D03*
X-150591Y-89803D02*
D03*
Y-95236D02*
D03*
X-75787Y-91299D02*
D03*
Y-85866D02*
D03*
X-107283Y-48976D02*
D03*
Y-43543D02*
D03*
X-101378Y-48976D02*
D03*
Y-43543D02*
D03*
X142717Y-84882D02*
D03*
Y-90315D02*
D03*
X97441Y-90315D02*
D03*
Y-84882D02*
D03*
X-11811Y-74567D02*
D03*
Y-69134D02*
D03*
Y-89331D02*
D03*
Y-83898D02*
D03*
X-101378Y-95236D02*
D03*
Y-89803D02*
D03*
D91*
X-5413Y-68110D02*
D03*
Y-71850D02*
D03*
Y-75590D02*
D03*
X5413D02*
D03*
Y-68110D02*
D03*
X-5413Y-82874D02*
D03*
Y-86614D02*
D03*
Y-90354D02*
D03*
X5413D02*
D03*
Y-82874D02*
D03*
X-35925Y-37598D02*
D03*
Y-41339D02*
D03*
Y-45079D02*
D03*
X-25098D02*
D03*
Y-37598D02*
D03*
D92*
X88386Y-87598D02*
D03*
X84842D02*
D03*
X88386Y-65945D02*
D03*
X84842D02*
D03*
X37205Y-95472D02*
D03*
X33661D02*
D03*
X37205Y-91535D02*
D03*
X33661D02*
D03*
X37205Y-87598D02*
D03*
X33661D02*
D03*
X37205Y-83661D02*
D03*
X33661D02*
D03*
D93*
X148031Y144291D02*
D03*
X135433D02*
D03*
D94*
X140157Y143012D02*
D03*
X143307D02*
D03*
D95*
X101181Y100394D02*
D03*
Y96457D02*
D03*
Y92520D02*
D03*
Y88583D02*
D03*
Y84646D02*
D03*
Y80709D02*
D03*
Y76772D02*
D03*
Y72835D02*
D03*
Y68898D02*
D03*
Y64961D02*
D03*
Y61024D02*
D03*
Y57087D02*
D03*
Y53150D02*
D03*
Y49213D02*
D03*
Y45276D02*
D03*
Y41339D02*
D03*
Y37402D02*
D03*
Y33465D02*
D03*
Y29528D02*
D03*
Y25591D02*
D03*
Y21654D02*
D03*
Y17717D02*
D03*
Y13780D02*
D03*
Y9843D02*
D03*
Y5906D02*
D03*
Y1969D02*
D03*
Y-1969D02*
D03*
Y-5906D02*
D03*
Y-9843D02*
D03*
Y-13780D02*
D03*
Y-17717D02*
D03*
Y-21654D02*
D03*
Y-25591D02*
D03*
Y-29528D02*
D03*
Y-33465D02*
D03*
Y-37402D02*
D03*
Y-41339D02*
D03*
Y-45276D02*
D03*
Y-49213D02*
D03*
Y-53150D02*
D03*
D96*
X109646Y-64173D02*
D03*
Y111417D02*
D03*
D97*
X-167264Y-92520D02*
D03*
X-157539Y-88779D02*
D03*
Y-96260D02*
D03*
D98*
X-93504Y-94193D02*
D03*
Y-82972D02*
D03*
D99*
X31988Y99410D02*
D03*
X7383D02*
D03*
X7383Y83662D02*
D03*
X31988D02*
D03*
D100*
X-123031Y-43110D02*
D03*
X-125000D02*
D03*
X-126969D02*
D03*
X-130905D02*
D03*
X-128937D02*
D03*
X-121063Y-17913D02*
D03*
X-119095D02*
D03*
X-123031D02*
D03*
X-125000D02*
D03*
X-126969D02*
D03*
X-121063Y-43110D02*
D03*
X-119095D02*
D03*
X-130905Y-17913D02*
D03*
X-128937D02*
D03*
X-132874D02*
D03*
Y-43110D02*
D03*
D101*
X-138583Y-35433D02*
D03*
Y-37402D02*
D03*
X-113386Y-23622D02*
D03*
Y-25591D02*
D03*
Y-29528D02*
D03*
Y-31496D02*
D03*
Y-27559D02*
D03*
Y-35433D02*
D03*
Y-37402D02*
D03*
Y-33465D02*
D03*
X-138583Y-25591D02*
D03*
Y-27559D02*
D03*
Y-23622D02*
D03*
Y-31496D02*
D03*
Y-33465D02*
D03*
Y-29528D02*
D03*
D102*
X62992Y-36417D02*
D03*
D103*
X-1969Y-17717D02*
D03*
Y-27559D02*
D03*
D104*
X-55118Y72835D02*
D03*
X-27559D02*
D03*
X-55118Y100394D02*
D03*
X-27559D02*
D03*
D105*
X192126Y144095D02*
D03*
Y137402D02*
D03*
X170079Y144095D02*
D03*
Y137402D02*
D03*
D106*
X51181Y-54331D02*
D03*
Y-57874D02*
D03*
X55118Y-54331D02*
D03*
Y-57874D02*
D03*
X59055Y-54331D02*
D03*
Y-57874D02*
D03*
X66929Y-54331D02*
D03*
Y-57874D02*
D03*
X86614Y-72047D02*
D03*
Y-75591D02*
D03*
X66929Y-101575D02*
D03*
Y-105118D02*
D03*
X62992Y-101575D02*
D03*
Y-105118D02*
D03*
X55118Y-101575D02*
D03*
Y-105118D02*
D03*
X47244Y-99606D02*
D03*
Y-103149D02*
D03*
X32480Y-65748D02*
D03*
Y-62205D02*
D03*
X38386D02*
D03*
Y-65748D02*
D03*
D107*
X47244Y-108268D02*
D03*
Y-116142D02*
D03*
D108*
X50000Y-112205D02*
D03*
X44488D02*
D03*
D109*
X38091Y-74902D02*
D03*
X32776D02*
D03*
X38091Y-70768D02*
D03*
X32776D02*
D03*
D110*
X-143898Y-135827D02*
D03*
Y-118110D02*
D03*
D111*
X-109843Y-135827D02*
D03*
Y-118110D02*
D03*
D112*
X-42421Y-95669D02*
D03*
Y-94095D02*
D03*
Y-92520D02*
D03*
Y-90945D02*
D03*
Y-89370D02*
D03*
Y-87795D02*
D03*
X-57972D02*
D03*
Y-89370D02*
D03*
Y-90945D02*
D03*
Y-92520D02*
D03*
Y-94095D02*
D03*
Y-95669D02*
D03*
D113*
X-50197Y-91732D02*
D03*
D114*
X-134744Y-88583D02*
D03*
Y-90551D02*
D03*
Y-92520D02*
D03*
Y-94488D02*
D03*
Y-96457D02*
D03*
X-117224Y-88583D02*
D03*
Y-90551D02*
D03*
Y-92520D02*
D03*
Y-94488D02*
D03*
Y-96457D02*
D03*
D115*
X-125984Y-92520D02*
D03*
D116*
X62992Y-79724D02*
D03*
D117*
X72441Y-67421D02*
D03*
X70079D02*
D03*
X67716D02*
D03*
X65354D02*
D03*
X62992D02*
D03*
X60630D02*
D03*
X58268D02*
D03*
X55905D02*
D03*
X53543D02*
D03*
Y-92027D02*
D03*
X55905D02*
D03*
X58268D02*
D03*
X60630D02*
D03*
X62992D02*
D03*
X65354D02*
D03*
X67716D02*
D03*
X70079D02*
D03*
X72441D02*
D03*
X73622Y-63878D02*
D03*
X71260D02*
D03*
X68898D02*
D03*
X66535D02*
D03*
X64173D02*
D03*
X61811D02*
D03*
X59449D02*
D03*
X57086D02*
D03*
X54724D02*
D03*
X52362D02*
D03*
Y-95571D02*
D03*
X54724D02*
D03*
X57086D02*
D03*
X59449D02*
D03*
X61811D02*
D03*
X64173D02*
D03*
X66535D02*
D03*
X68898D02*
D03*
X71260D02*
D03*
X73622D02*
D03*
D118*
X50689Y-70276D02*
D03*
Y-72638D02*
D03*
Y-75000D02*
D03*
Y-77362D02*
D03*
Y-79724D02*
D03*
Y-82087D02*
D03*
Y-84449D02*
D03*
Y-86811D02*
D03*
Y-89173D02*
D03*
X75295D02*
D03*
Y-86811D02*
D03*
Y-84449D02*
D03*
Y-82087D02*
D03*
Y-79724D02*
D03*
Y-77362D02*
D03*
Y-75000D02*
D03*
Y-72638D02*
D03*
Y-70276D02*
D03*
X47146Y-69095D02*
D03*
Y-71457D02*
D03*
Y-73819D02*
D03*
Y-76181D02*
D03*
Y-78543D02*
D03*
Y-80905D02*
D03*
Y-83268D02*
D03*
Y-85630D02*
D03*
Y-87992D02*
D03*
Y-90354D02*
D03*
X78838D02*
D03*
Y-87992D02*
D03*
Y-85630D02*
D03*
Y-83268D02*
D03*
Y-80905D02*
D03*
Y-78543D02*
D03*
Y-76181D02*
D03*
Y-73819D02*
D03*
Y-71457D02*
D03*
Y-69095D02*
D03*
D119*
X-59055Y141339D02*
D03*
X163386Y-113779D02*
D03*
Y113779D02*
D03*
X-186614Y-113779D02*
D03*
D120*
X129921Y-87598D02*
D03*
X110236D02*
D03*
D121*
X133858Y-94390D02*
D03*
X131890D02*
D03*
X129921D02*
D03*
X127953D02*
D03*
X125984D02*
D03*
Y-80807D02*
D03*
X127953D02*
D03*
X129921D02*
D03*
X131890D02*
D03*
X133858D02*
D03*
X106299D02*
D03*
X108268D02*
D03*
X110236D02*
D03*
X112205D02*
D03*
X114173D02*
D03*
Y-94390D02*
D03*
X112205D02*
D03*
X110236D02*
D03*
X108268D02*
D03*
X106299D02*
D03*
D122*
X123130Y-90551D02*
D03*
Y-84646D02*
D03*
X136713D02*
D03*
Y-90551D02*
D03*
X117028Y-84646D02*
D03*
Y-90551D02*
D03*
X103445D02*
D03*
Y-84646D02*
D03*
D123*
X26575Y-36614D02*
D03*
X10827D02*
D03*
Y-46063D02*
D03*
X26575D02*
D03*
D124*
X-159449Y124606D02*
D03*
X-151575D02*
D03*
X-100394D02*
D03*
X-92520D02*
D03*
X-129921D02*
D03*
X-122047D02*
D03*
D125*
X186614Y-138976D02*
D03*
X-186614Y-138976D02*
D03*
Y138976D02*
D03*
D126*
X29685Y124685D02*
D03*
Y119685D02*
D03*
X24685Y124685D02*
D03*
Y119685D02*
D03*
X19685Y124685D02*
D03*
Y119685D02*
D03*
X14685Y124685D02*
D03*
Y119685D02*
D03*
X9685Y124685D02*
D03*
Y119685D02*
D03*
D127*
X-93504Y-130905D02*
D03*
Y-123031D02*
D03*
D128*
X94488Y-102362D02*
D03*
X-35433Y-80709D02*
D03*
X-28543Y-69882D02*
D03*
X-31496Y-66929D02*
D03*
X17717Y62008D02*
D03*
X13780Y65945D02*
D03*
X43799Y-79724D02*
D03*
X-136811Y-49213D02*
D03*
X-142717Y-43307D02*
D03*
X-38386Y-92520D02*
D03*
X-3937Y125000D02*
D03*
X-104331Y-8858D02*
D03*
Y2953D02*
D03*
X-147638Y-8858D02*
D03*
Y2953D02*
D03*
X-121063Y-8858D02*
D03*
X-117126Y-6890D02*
D03*
Y-2953D02*
D03*
X-128937Y-4921D02*
D03*
Y-8858D02*
D03*
X-134843Y-6890D02*
D03*
Y-2953D02*
D03*
X-123032Y-4921D02*
D03*
X56102Y13287D02*
D03*
X-101378Y-13780D02*
D03*
X46260Y-6890D02*
D03*
X46260Y-2953D02*
D03*
X93504Y88583D02*
D03*
Y92520D02*
D03*
X-30512Y-24606D02*
D03*
X-32480Y-7874D02*
D03*
X-112205Y-92520D02*
D03*
X-139764Y-96457D02*
D03*
X-107283Y-109252D02*
D03*
X90551Y36417D02*
D03*
X93504Y33465D02*
D03*
X87598Y30512D02*
D03*
X-91535Y-2953D02*
D03*
X-50197Y-3937D02*
D03*
X-54134D02*
D03*
Y0D02*
D03*
X-58071D02*
D03*
Y3937D02*
D03*
X-62008D02*
D03*
X-65945D02*
D03*
X144685Y-73819D02*
D03*
X148622D02*
D03*
X116142Y-99410D02*
D03*
X84646Y-78740D02*
D03*
X125984Y-75787D02*
D03*
X98425Y-67913D02*
D03*
X106299Y-75787D02*
D03*
X116142D02*
D03*
X136811Y-76772D02*
D03*
X-38386Y-97441D02*
D03*
X41339Y-95472D02*
D03*
X93504Y-74803D02*
D03*
X94488Y-62008D02*
D03*
X102362Y-99410D02*
D03*
X112205Y-105315D02*
D03*
X99410Y-102362D02*
D03*
X-68898Y-22638D02*
D03*
X-35433Y-84646D02*
D03*
X-31496Y-88583D02*
D03*
X9843Y65945D02*
D03*
X13780Y62008D02*
D03*
X9843Y69882D02*
D03*
Y73819D02*
D03*
X-5906Y91535D02*
D03*
X-8858Y88583D02*
D03*
Y94488D02*
D03*
X-135827Y-73819D02*
D03*
X-139764D02*
D03*
X-131890D02*
D03*
X-10827Y126969D02*
D03*
X57087Y-20669D02*
D03*
X0Y-104331D02*
D03*
Y-54134D02*
D03*
X40354Y83661D02*
D03*
X-93504Y-109252D02*
D03*
X-158465D02*
D03*
Y-123031D02*
D03*
Y-79724D02*
D03*
X19685Y-71850D02*
D03*
Y-86614D02*
D03*
X-52165Y38386D02*
D03*
X-93504Y-73819D02*
D03*
X-72835Y7874D02*
D03*
X-94488D02*
D03*
X-115157Y-54134D02*
D03*
X93504Y68898D02*
D03*
X89567D02*
D03*
X93504Y72835D02*
D03*
Y76772D02*
D03*
Y80709D02*
D03*
Y84646D02*
D03*
Y-45276D02*
D03*
Y-41339D02*
D03*
Y-37402D02*
D03*
Y-33465D02*
D03*
Y-13780D02*
D03*
Y96457D02*
D03*
X87598Y-9843D02*
D03*
X93504Y-19685D02*
D03*
X84400Y-50197D02*
D03*
X123031Y122047D02*
D03*
D129*
X-115158Y88583D02*
D03*
X-136811D02*
D03*
X-158465Y57087D02*
D03*
X-93504D02*
D03*
D130*
X-104331Y27559D02*
D03*
X-147638D02*
D03*
X-125984D02*
D03*
X181102Y135335D02*
D03*
Y146161D02*
D03*
D131*
X-125984Y-123622D02*
D03*
Y-143307D02*
D03*
M02*
