M48
;Layer_Color=9474304
;FILE_FORMAT=2:4
INCH,TZ
;TYPE=PLATED
T1F00S00C0.0118
T2F00S00C0.0276
T3F00S00C0.0295
T4F00S00C0.0394
T5F00S00C0.0630
T6F00S00C0.1260
%
T01
X-12008Y-14468
X-11417
X-11713Y-13878
X-12303
X-12008Y-13287
X-10531Y-14468
X13583Y-9941
X14272Y-9350
Y-8169
X14469Y-7382
X14862
X15453Y-7677
X16437
X15945Y-6693
X15453Y-5709
X16437
X15945Y-4724
X16437Y-3740
X15453Y-2756
X13976
Y-3740
Y-4724
Y-5709
Y-6693
X13681Y-7677
X15945Y-8661
X16437Y-9646
X15453
X14961Y-10630
X15945
X16437Y-1772
X15453Y-787
X13976
Y-1772
Y197
Y1181
Y2165
X15453Y1181
X16437Y197
Y2165
X13386Y1673
Y689
Y-295
Y-1280
Y-2264
Y-3248
Y-4232
Y-5217
Y-6201
X12500Y-5709
X11516
Y-4724
X10728Y-4921
Y-5315
X10532Y-5709
X9350Y-5315
Y-4921
Y-4528
Y-4134
Y-3740
Y-3346
Y-1969
Y-1378
X8760Y-984
X7874Y-1772
X7382Y-2461
X6988Y-2756
Y-4528
X7776
Y-3937
X8440Y-5020
X6988Y-5413
Y-5807
X6201
Y-5413
X5512Y-5020
X5610Y-4528
X4823
Y-3937
Y-2756
X5217Y-2461
X5709Y-2067
X4035Y-2264
Y-1673
X2854
Y-2264
X3740Y-2657
X3248Y-3248
Y-3642
Y-4134
Y-4626
X2854Y-5020
X2362
X1870
X1378
X886
X492Y-4626
Y-4134
Y-3642
X394Y-3051
X0Y-3248
X-394
X-787Y-3051
X-1181
X-1575
X-1870Y-2854
Y-2461
Y-2067
Y-1673
X-1575Y-1476
X-1181
X-787
X-394Y-1280
X0
X738Y-1673
X787Y0
X394
X0Y-0
X-394Y-0
X1772Y0
X3248Y492
X3543Y787
X3839Y1181
X3839Y2067
X4232
X3346Y1772
X3150Y1476
X3740Y0
X4134Y0
X4626Y-295
X4626Y-689
X6004Y-295
X6398Y0
Y591
X6988Y1476
X5610Y1329
X7579Y197
X6594Y-787
X11516
X11909Y-1969
X12500Y-1772
Y-3740
X11516Y-2756
X12500Y197
Y2165
X11220
Y1772
X10827
X11516Y1181
X11614Y-7185
Y-7579
X10630
X10236
X9350Y-7480
X8957Y-7579
Y-7185
X9154Y-6594
X9449Y-6201
X9843Y-6791
X9744Y-8169
X8858Y-8465
X8465
Y-7874
X6732Y-7972
Y-7539
X6299
X5866
Y-7972
X6299
Y-8406
X6732
X5866
X5413Y-8268
X4380Y-7972
X4035
X4134Y-8366
X3543Y-7972
X3051
X2756Y-7677
Y-7283
Y-6890
X2362Y-6693
X1969Y-7185
X1575Y-7480
X1181Y-7776
Y-6594
X-591Y-6102
X-1181Y-6594
X-1575Y-6890
Y-7480
X-2067Y-7677
X-1181Y-7776
X-1575Y-8366
Y-8957
X-1181Y-9252
X-1083Y-9646
X-591Y-9744
Y-10630
X0Y-10433
X394Y-10630
X1378
X2362
X3346
X4331
Y-10138
X5118
Y-10630
X5315Y-11220
X4134
Y-9547
X4626Y-9252
X5020Y-9646
X5906Y-10532
X6299Y-10827
X6693
X7087Y-10630
X6988Y-10138
X7579Y-9646
X8563
X9055Y-10630
X9449Y-10236
X9941
X10236Y-9941
X10728Y-10236
X11220Y-10532
X11614Y-9941
X11713Y-9350
X11240Y-8976
Y-8543
X10807
Y-8976
X9744Y-9350
X8071Y-10630
X12402Y-9941
X12795
X13189
X13209Y-8976
X12776
Y-8543
X13209
X12303Y-8760
X12598Y-7579
X12992
X4331Y-6890
X3839Y-5906
X3248
X4823Y-5413
X0
X-2067Y-5709
X-1870Y-4724
X-1476Y-4429
Y-3839
X-1870Y-3543
X-2067Y-9646
X-1575Y-10630
X886Y-9646
X1181Y-9252
X1575Y-8957
X1969Y-8661
X2362
X1870Y-9646
X3051Y-9547
X-2559Y-8661
X-3150Y-8858
X-3543Y-8465
Y-8071
X-3346Y-6988
X-3642Y-4823
X-3937Y-5118
X-4232Y-4724
Y-3543
X-3051Y-2953
Y-2165
X-2362Y-1575
X-2362Y-984
X-2461Y-197
X-2756Y98
X-3740
X-3642Y-984
X-5020Y-394
X-5413
Y0
X-5807
Y394
X-6201
X-6594
X-7283Y787
X-8071
X-8661
X-8957Y394
X-9154Y-295
X-8366Y-787
X-9449Y-1378
X-8957Y-1969
Y-2559
X-7776
Y-1969
X-7283Y-2264
X-8760Y-3740
X-8957Y-4921
X-8661Y-5315
X-8071
X-7480
X-9449
X-10925Y-4921
Y-4331
X-11024Y-3740
Y-3150
X-10433Y-2362
X-11220Y-886
X-10925Y-295
X-11614Y295
X-12500Y295
X-13091Y-591
X-13287Y-886
X-14075Y-591
X-14469
X-15059Y295
X-15945Y295
X-16339Y295
X-16634Y-295
X-16535Y-1378
Y-1969
Y-2559
X-16929Y-3150
Y-3740
X-17028Y-5413
X-16339Y-6299
X-17323Y-7283
X-15354
X-13976Y-7382
X-13583Y-7382
X-13189Y-7382
X-13681Y-8071
X-14370Y-8268
X-14468Y-9843
X-15059
X-15748Y-9252
X-16240Y-8858
X-15846Y-10925
Y-12303
X-12303Y-12697
X-11713
X-11122
X-10531
X-10728Y-10925
Y-10335
Y-9843
X-10138Y-9843
X-10138Y-10335
Y-10925
X-9350
X-11319
X-12106Y-10827
X-12303Y-11516
X-11713
X-12008Y-12106
X-13091Y-10827
X-12756Y-9449
X-12441
Y-9055
X-12756
X-11220Y-9252
X-10827Y-8268
Y-7677
X-9941
Y-8268
X-9350Y-7382
X-8760Y-7677
X-7579
X-6988Y-7283
X-5807
X-5610Y-8071
X-6496Y-7972
Y-9744
X-5797Y-9833
X-5020Y-9843
Y-9370
X-4685
Y-8976
X-5020
X-5354
Y-9370
X-3839Y-9252
Y-9744
X-2559Y-10630
X-2461Y-5020
X-3937Y2264
X-8465Y1575
X-7776Y394
X-12500Y-2067
X-13091Y-2362
Y-2756
X-13091Y-3150
X-14272
X-14075Y-3543
X-14469Y-2559
X-15453Y-4331
X-15551Y-4921
X-14862
X-15256Y-5315
X-11909Y-5217
X-11319
X-12500Y-4331
X-11516Y-8071
X-13976Y-9646
X-15945Y-886
X-17323Y-1378
Y591
X-16339Y1575
X-18307Y-394
Y-2362
Y-4331
X-17913Y-5413
X-18307Y-6299
X-19291Y-7283
Y-5315
Y-3346
Y-1378
Y591
X-17913Y-7972
X-18307Y3543
Y5512
X-19291Y4528
X-17913Y7579
Y12795
X-14961
X-12008
Y7579
X-14961
Y3543
X-12795
X-10630
X-9449Y2559
X-7480
X-6398Y2854
X-5217Y2854
X-3740Y2559
X-2362
X-2756Y4429
X-3346
X-4429Y4823
X-5709Y6299
X-6398Y6791
X-2953Y6299
X-4921Y10138
X-4232Y11220
X-3248Y12205
X-2264Y13189
X-8465Y3543
X-17323Y4528
Y2559
X-1673Y3543
X-295Y3150
Y2756
X98
X591Y3150
X886Y3445
X1476Y4035
X2559
Y3642
X2953Y4035
Y4528
X3346
X3740
X3642Y7283
X4626
X2657
X984Y7382
Y6988
Y6594
X1378Y6594
Y6201
X1772
X-98Y6791
X-689
X-886Y8858
Y9449
X-591Y9154
X787Y8858
X1083Y9154
X1378Y9941
X2559
X2657Y11220
X3150Y11024
X3642Y12205
X3642Y13681
X2657Y14665
X689
X1673Y13681
X1673Y12205
X689Y11220
X-1083Y11614
X1969Y8858
X3150Y8858
X6594Y9252
Y7283
X8268Y7382
X8071Y8268
X9350Y8465
Y8071
Y7677
Y7283
Y6890
X8957
X10728
X11122
X11516
Y5512
Y4921
X11122
X10728
Y4528
Y4134
X12500
Y4921
Y5512
X13287
X13386Y4626
Y3642
Y2657
X11516Y3150
X9350Y3346
X9055Y3642
X8760Y3051
X8858Y4921
X9350Y5512
X7677
Y4921
X6988Y5217
Y4626
X6594Y5512
X6004
X591Y4429
X-197Y4528
X5610Y12205
Y13681
X4626Y14665
X6594
X7579Y13681
X9547
X8563Y14665
X10532
X11516Y13681
X12500Y14665
X13091Y14370
X12303Y12205
X12500Y10039
X10728
X9350Y9646
Y9252
Y8858
X11516Y9055
X12500Y8071
X8071Y10630
X13484Y11024
X15453
X14469Y10039
X13484Y9055
Y7087
X14469Y8071
X15453Y9055
Y7087
Y5118
X13780Y5020
X13976Y4134
Y3150
X15453
X16437Y4134
Y6102
Y8071
Y10039
Y12992
X16535Y14370
X19390Y12008
T02
X7268Y11968
Y12469
X7768
Y11968
X8268
Y12469
X8768
Y11968
X9268
Y12469
T03
X18110Y13533
Y14616
T04
X-12598Y-14331
X-9350Y-13091
Y-12303
X-12598Y-12362
T05
X-17732Y17724
X-15732
X-12220
X-10220
X-6709
X-4709
X-1197
X803
Y19724
X-1197
X-4709
X-6709
X-10220
X-12220
X-15732
X-17732
T06
X-18661Y-13898
X18661Y-13898
X-18661Y2362
M30
