M48
;Layer_Color=9474304
;FILE_FORMAT=2:4
INCH,TZ
;TYPE=PLATED
T1F00S00C0.0157
T2F00S00C0.0200
T3F00S00C0.0236
T4F00S00C0.0315
T5F00S00C0.0354
T6F00S00C0.0394
T7F00S00C0.0472
T8F00S00C0.1181
%
T01
X29764Y13976
X30079
Y14370
X29764
T02
X28150Y6693
X31467Y4951
X34350Y7283
X32382Y14173
X31791
X32382Y14764
X33268Y15256
X31693Y15945
X30512
X29331
X28051Y14370
X27461
X26280Y15059
Y15945
T03
X15846Y3248
X15157Y6004
X13386
T04
X8465Y6890
Y10827
T05
X25197Y12795
Y13795
Y14795
T06
X9252Y4528
X11220
X29921Y7874
Y9843
X17323Y9843
Y7874
X12992
Y9843
X11220Y13189
X9252
T07
X25228Y6858
Y7858
Y8858
Y9858
Y10858
X21228
Y9858
Y8858
Y7858
Y6858
T08
X1181Y1181
X34252
Y16535
X1181
X5512Y11024
Y6693
M30
