%FSLAX25Y25*%
%MOIN*%
G70*
G01*
G75*
G04 Layer_Color=32896*
%ADD10R,0.02165X0.03150*%
%ADD11R,0.07087X0.04921*%
%ADD12O,0.05315X0.01181*%
%ADD13R,0.06181X0.07402*%
%ADD14R,0.04921X0.07087*%
%ADD15R,0.06496X0.04724*%
%ADD16R,0.02756X0.03150*%
%ADD17R,0.07874X0.07874*%
%ADD18R,0.07874X0.07874*%
%ADD19R,0.06378X0.08583*%
%ADD20O,0.06890X0.03347*%
%ADD21O,0.05709X0.02362*%
%ADD22R,0.09252X0.06299*%
%ADD23C,0.02000*%
%ADD24C,0.01000*%
%ADD25C,0.03000*%
%ADD26C,0.04000*%
%ADD27C,0.05000*%
%ADD28C,0.05906*%
%ADD29R,0.05906X0.05906*%
%ADD30C,0.23622*%
%ADD31O,0.09843X0.05906*%
%ADD32O,0.05906X0.09843*%
%ADD33C,0.06299*%
%ADD34O,0.11811X0.06890*%
%ADD35O,0.29528X0.17716*%
%ADD36C,0.04000*%
%ADD37C,0.02362*%
%ADD38C,0.04724*%
%ADD39C,0.00984*%
%ADD40C,0.00394*%
%ADD41C,0.01969*%
%ADD42C,0.02362*%
%ADD43C,0.00787*%
%ADD44R,0.02965X0.03950*%
%ADD45R,0.07887X0.05721*%
%ADD46O,0.06115X0.01981*%
%ADD47R,0.06981X0.08202*%
%ADD48R,0.05721X0.07887*%
%ADD49R,0.07296X0.05524*%
%ADD50R,0.03556X0.03950*%
%ADD51R,0.08674X0.08674*%
%ADD52R,0.08674X0.08674*%
%ADD53R,0.07178X0.09383*%
%ADD54O,0.07690X0.04147*%
%ADD55O,0.06509X0.03162*%
%ADD56R,0.10052X0.07099*%
%ADD57C,0.06706*%
%ADD58R,0.06706X0.06706*%
%ADD59C,0.24422*%
%ADD60O,0.10642X0.06706*%
%ADD61O,0.06706X0.10642*%
%ADD62C,0.07099*%
%ADD63O,0.12611X0.07690*%
%ADD64O,0.30328X0.18517*%
%ADD65C,0.04800*%
%ADD66C,0.03162*%
%ADD67C,0.05524*%
G36*
X79386Y66142D02*
X74016D01*
Y76455D01*
X79386D01*
Y66142D01*
D02*
G37*
%LPC*%
G36*
X78588Y69521D02*
X77948D01*
Y67695D01*
X77049D01*
Y69274D01*
X76410D01*
Y67695D01*
X74803D01*
Y66929D01*
X78588D01*
Y69521D01*
D02*
G37*
G36*
X74803Y73542D02*
Y72626D01*
X75621Y72084D01*
X75627Y72079D01*
X75638Y72073D01*
X75661Y72056D01*
X75690Y72038D01*
X75731Y72015D01*
X75765Y71986D01*
X75857Y71923D01*
X75955Y71860D01*
X76042Y71791D01*
X76122Y71727D01*
X76157Y71704D01*
X76180Y71681D01*
X76186Y71675D01*
X76197Y71664D01*
X76220Y71641D01*
X76243Y71612D01*
X76295Y71537D01*
X76318Y71497D01*
X76335Y71451D01*
Y71445D01*
X76341Y71428D01*
X76353Y71399D01*
X76358Y71359D01*
X76370Y71307D01*
X76376Y71243D01*
X76381Y71163D01*
Y71071D01*
Y70921D01*
X74803D01*
Y70155D01*
X78588D01*
Y71750D01*
Y71756D01*
Y71779D01*
Y71808D01*
Y71848D01*
X78582Y71900D01*
Y71958D01*
Y72021D01*
X78576Y72084D01*
X78564Y72228D01*
X78541Y72372D01*
X78518Y72511D01*
X78501Y72574D01*
X78484Y72626D01*
Y72632D01*
X78478Y72637D01*
X78466Y72672D01*
X78438Y72724D01*
X78397Y72787D01*
X78346Y72856D01*
X78282Y72931D01*
X78207Y73000D01*
X78115Y73069D01*
X78104Y73075D01*
X78069Y73098D01*
X78017Y73121D01*
X77942Y73156D01*
X77856Y73185D01*
X77758Y73213D01*
X77643Y73231D01*
X77522Y73236D01*
X77482D01*
X77453Y73231D01*
X77412D01*
X77372Y73225D01*
X77274Y73207D01*
X77165Y73173D01*
X77044Y73127D01*
X76929Y73069D01*
X76871Y73029D01*
X76819Y72983D01*
X76813D01*
X76808Y72971D01*
X76796Y72954D01*
X76773Y72937D01*
X76756Y72908D01*
X76727Y72879D01*
X76698Y72839D01*
X76669Y72799D01*
X76641Y72747D01*
X76612Y72695D01*
X76583Y72632D01*
X76554Y72562D01*
X76525Y72493D01*
X76502Y72413D01*
X76485Y72332D01*
X76468Y72240D01*
Y72246D01*
X76462Y72251D01*
X76445Y72280D01*
X76416Y72326D01*
X76376Y72384D01*
X76329Y72447D01*
X76272Y72516D01*
X76214Y72585D01*
X76151Y72649D01*
X76145Y72655D01*
X76116Y72678D01*
X76076Y72712D01*
X76013Y72764D01*
X75926Y72827D01*
X75823Y72896D01*
X75759Y72943D01*
X75690Y72983D01*
X75621Y73029D01*
X75540Y73081D01*
X74803Y73542D01*
D02*
G37*
G36*
X78599Y75667D02*
X74803D01*
Y74941D01*
X77533D01*
X77528Y74936D01*
X77516Y74924D01*
X77499Y74901D01*
X77470Y74872D01*
X77441Y74832D01*
X77407Y74786D01*
X77366Y74734D01*
X77326Y74671D01*
X77280Y74607D01*
X77234Y74532D01*
X77148Y74377D01*
X77061Y74198D01*
X76986Y74002D01*
X77643D01*
Y74008D01*
X77649Y74014D01*
X77654Y74031D01*
X77660Y74054D01*
X77683Y74112D01*
X77723Y74187D01*
X77770Y74279D01*
X77833Y74383D01*
X77902Y74498D01*
X77994Y74619D01*
X78000Y74625D01*
X78006Y74636D01*
X78023Y74653D01*
X78040Y74671D01*
X78092Y74728D01*
X78167Y74803D01*
X78253Y74878D01*
X78357Y74953D01*
X78472Y75022D01*
X78599Y75074D01*
Y75667D01*
D02*
G37*
%LPD*%
G36*
X77545Y72441D02*
X77585Y72436D01*
X77631Y72424D01*
X77683Y72401D01*
X77735Y72378D01*
X77781Y72343D01*
X77787Y72338D01*
X77798Y72326D01*
X77821Y72303D01*
X77844Y72269D01*
X77873Y72228D01*
X77896Y72182D01*
X77913Y72125D01*
X77931Y72061D01*
Y72056D01*
X77937Y72038D01*
Y72009D01*
X77942Y71958D01*
Y71923D01*
Y71889D01*
Y71842D01*
X77948Y71791D01*
Y71733D01*
Y71664D01*
Y71589D01*
Y71508D01*
Y70921D01*
X76986D01*
Y71479D01*
Y71485D01*
Y71503D01*
Y71531D01*
Y71566D01*
Y71612D01*
Y71658D01*
X76992Y71767D01*
X76998Y71883D01*
X77004Y71992D01*
X77009Y72044D01*
X77015Y72084D01*
X77026Y72125D01*
X77032Y72153D01*
Y72159D01*
X77044Y72176D01*
X77055Y72199D01*
X77067Y72234D01*
X77119Y72303D01*
X77148Y72338D01*
X77188Y72367D01*
X77194Y72372D01*
X77211Y72378D01*
X77234Y72390D01*
X77268Y72407D01*
X77309Y72424D01*
X77361Y72436D01*
X77412Y72441D01*
X77476Y72447D01*
X77510D01*
X77545Y72441D01*
D02*
G37*
D39*
X82677Y80709D02*
Y96457D01*
X84646Y74803D02*
Y80709D01*
Y96457D02*
Y102362D01*
X86614Y80709D02*
Y96457D01*
X82677Y80709D02*
X86614D01*
X82677Y96457D02*
X86614D01*
M02*
