%FSLAX25Y25*%
%MOIN*%
G70*
G01*
G75*
G04 Layer_Color=8388736*
%ADD10R,0.02165X0.03150*%
%ADD11R,0.07087X0.04921*%
%ADD12O,0.05315X0.01181*%
%ADD13R,0.06181X0.07402*%
%ADD14R,0.04921X0.07087*%
%ADD15R,0.06496X0.04724*%
%ADD16R,0.02756X0.03150*%
%ADD17R,0.07874X0.07874*%
%ADD18R,0.07874X0.07874*%
%ADD19R,0.06378X0.08583*%
%ADD20O,0.06890X0.03347*%
%ADD21O,0.05709X0.02362*%
%ADD22R,0.09252X0.06299*%
%ADD23C,0.02000*%
%ADD24C,0.01000*%
%ADD25C,0.03000*%
%ADD26C,0.04000*%
%ADD27C,0.05000*%
%ADD28C,0.05906*%
%ADD29R,0.05906X0.05906*%
%ADD30C,0.23622*%
%ADD31O,0.09843X0.05906*%
%ADD32O,0.05906X0.09843*%
%ADD33C,0.06299*%
%ADD34O,0.11811X0.06890*%
%ADD35O,0.29528X0.17716*%
%ADD36C,0.04000*%
%ADD37C,0.02362*%
%ADD38C,0.04724*%
%ADD39C,0.00984*%
%ADD40C,0.00394*%
%ADD41C,0.01969*%
%ADD42C,0.02362*%
%ADD43C,0.00787*%
%ADD44R,0.02965X0.03950*%
%ADD45R,0.07887X0.05721*%
%ADD46O,0.06115X0.01981*%
%ADD47R,0.06981X0.08202*%
%ADD48R,0.05721X0.07887*%
%ADD49R,0.07296X0.05524*%
%ADD50R,0.03556X0.03950*%
%ADD51R,0.08674X0.08674*%
%ADD52R,0.08674X0.08674*%
%ADD53R,0.07178X0.09383*%
%ADD54O,0.07690X0.04147*%
%ADD55O,0.06509X0.03162*%
%ADD56R,0.10052X0.07099*%
%ADD57C,0.06706*%
%ADD58R,0.06706X0.06706*%
%ADD59C,0.24422*%
%ADD60O,0.10642X0.06706*%
%ADD61O,0.06706X0.10642*%
%ADD62C,0.07099*%
%ADD63O,0.12611X0.07690*%
%ADD64O,0.30328X0.18517*%
%ADD65C,0.04800*%
%ADD66C,0.03162*%
%ADD67C,0.05524*%
D44*
X269685Y163681D02*
D03*
X272244Y155217D02*
D03*
X267126D02*
D03*
D45*
X281496Y165059D02*
D03*
Y153839D02*
D03*
X293307D02*
D03*
Y165059D02*
D03*
X305118Y153839D02*
D03*
Y165059D02*
D03*
X316929Y153839D02*
D03*
Y165059D02*
D03*
X337598Y109941D02*
D03*
Y98721D02*
D03*
Y67224D02*
D03*
Y78445D02*
D03*
X305118Y49508D02*
D03*
Y60728D02*
D03*
X293307D02*
D03*
Y49508D02*
D03*
X281496Y49508D02*
D03*
Y60728D02*
D03*
X269685Y60728D02*
D03*
Y49508D02*
D03*
X188976Y140059D02*
D03*
Y151280D02*
D03*
X151575Y50886D02*
D03*
Y39665D02*
D03*
X133858Y50886D02*
D03*
Y39665D02*
D03*
Y137500D02*
D03*
Y126280D02*
D03*
D46*
X290453Y137795D02*
D03*
Y141732D02*
D03*
Y139764D02*
D03*
Y145669D02*
D03*
Y143701D02*
D03*
X307972D02*
D03*
Y137795D02*
D03*
Y141732D02*
D03*
Y139764D02*
D03*
Y145669D02*
D03*
D47*
X299213Y141732D02*
D03*
D48*
X277854Y116142D02*
D03*
X289075D02*
D03*
X277854Y127953D02*
D03*
X289075D02*
D03*
X309350D02*
D03*
X320571D02*
D03*
X309350Y116142D02*
D03*
X320571D02*
D03*
X337894Y88583D02*
D03*
X349114D02*
D03*
X151870Y151575D02*
D03*
X163091D02*
D03*
X151870Y139764D02*
D03*
X163091D02*
D03*
X198524Y35433D02*
D03*
X187303D02*
D03*
X178839D02*
D03*
X167618D02*
D03*
X198524Y23622D02*
D03*
X187303D02*
D03*
X178839D02*
D03*
X167618D02*
D03*
D49*
X349410Y78051D02*
D03*
Y67618D02*
D03*
Y109547D02*
D03*
Y99114D02*
D03*
D50*
X208661Y22638D02*
D03*
Y36417D02*
D03*
D51*
X269685Y86614D02*
D03*
Y70866D02*
D03*
D52*
X181102Y124016D02*
D03*
X196850D02*
D03*
D53*
X149173D02*
D03*
X165787D02*
D03*
D54*
X102067Y93504D02*
D03*
Y83662D02*
D03*
X79035Y93504D02*
D03*
Y83662D02*
D03*
D55*
X183957Y60650D02*
D03*
Y50650D02*
D03*
Y45650D02*
D03*
X162500Y50650D02*
D03*
Y60650D02*
D03*
Y55650D02*
D03*
Y45650D02*
D03*
D56*
X135236Y23622D02*
D03*
X152165D02*
D03*
D57*
X251969Y147953D02*
D03*
Y137953D02*
D03*
D58*
Y127953D02*
D03*
D59*
X342520Y11811D02*
D03*
X11811D02*
D03*
Y165354D02*
D03*
X342520D02*
D03*
D60*
X299213Y98425D02*
D03*
Y78740D02*
D03*
X129921Y78740D02*
D03*
Y98425D02*
D03*
X173228Y78740D02*
D03*
Y98425D02*
D03*
D61*
X112205Y45276D02*
D03*
X92520D02*
D03*
Y131890D02*
D03*
X112205D02*
D03*
D62*
X84646Y68898D02*
D03*
Y108268D02*
D03*
D63*
X252284Y68583D02*
D03*
Y78583D02*
D03*
Y88583D02*
D03*
Y98583D02*
D03*
Y108583D02*
D03*
X212283Y68583D02*
D03*
Y78583D02*
D03*
Y88583D02*
D03*
Y98583D02*
D03*
Y108583D02*
D03*
D64*
X55118Y66929D02*
D03*
Y110236D02*
D03*
D65*
X332677Y152559D02*
D03*
X314665Y49508D02*
D03*
X281496Y66929D02*
D03*
X293307Y159449D02*
D03*
X323819Y147638D02*
D03*
Y141732D02*
D03*
X317913D02*
D03*
X316929Y159449D02*
D03*
X305118D02*
D03*
X262795Y150591D02*
D03*
X274606Y143701D02*
D03*
X262795Y159449D02*
D03*
X343504Y72835D02*
D03*
X280512Y143701D02*
D03*
D66*
X297638Y139764D02*
D03*
X300787D02*
D03*
X297638Y143701D02*
D03*
X300787D02*
D03*
D67*
X151575Y60039D02*
D03*
X158465Y32480D02*
D03*
X133858Y60039D02*
D03*
M02*
