%FSLAX25Y25*%
%MOIN*%
G70*
G01*
G75*
G04 Layer_Physical_Order=2*
G04 Layer_Color=16711680*
%ADD10R,0.02165X0.03150*%
%ADD11R,0.07087X0.04921*%
%ADD12O,0.05315X0.01181*%
%ADD13R,0.06181X0.07402*%
%ADD14R,0.04921X0.07087*%
%ADD15R,0.06496X0.04724*%
%ADD16R,0.02756X0.03150*%
%ADD17R,0.07874X0.07874*%
%ADD18R,0.07874X0.07874*%
%ADD19R,0.06378X0.08583*%
%ADD20O,0.06890X0.03347*%
%ADD21O,0.05709X0.02362*%
%ADD22R,0.09252X0.06299*%
%ADD23C,0.02000*%
%ADD24C,0.01000*%
%ADD25C,0.03000*%
%ADD26C,0.04000*%
%ADD27C,0.05000*%
%ADD28C,0.05906*%
%ADD29R,0.05906X0.05906*%
%ADD30C,0.23622*%
%ADD31O,0.09843X0.05906*%
%ADD32O,0.05906X0.09843*%
%ADD33C,0.06299*%
%ADD34O,0.11811X0.06890*%
%ADD35O,0.29528X0.17716*%
%ADD36C,0.04000*%
%ADD37C,0.02362*%
%ADD38C,0.04724*%
G36*
X337567Y177165D02*
X337606Y176969D01*
X336777Y176626D01*
X335084Y175588D01*
X333575Y174299D01*
X332286Y172790D01*
X331248Y171097D01*
X330489Y169263D01*
X330025Y167333D01*
X329870Y165354D01*
X330025Y163375D01*
X330489Y161445D01*
X331248Y159611D01*
X332286Y157919D01*
X333575Y156409D01*
X335084Y155120D01*
X336777Y154083D01*
X338611Y153323D01*
X340541Y152860D01*
X342520Y152704D01*
X344499Y152860D01*
X346429Y153323D01*
X348263Y154083D01*
X349955Y155120D01*
X351465Y156409D01*
X352754Y157919D01*
X353791Y159611D01*
X354170Y160526D01*
X354366Y160487D01*
X354332Y16761D01*
X354136Y16722D01*
X353791Y17554D01*
X352754Y19247D01*
X351465Y20756D01*
X349955Y22045D01*
X348263Y23082D01*
X346429Y23842D01*
X344499Y24305D01*
X342520Y24461D01*
X340541Y24305D01*
X338611Y23842D01*
X336777Y23082D01*
X335084Y22045D01*
X333575Y20756D01*
X332286Y19247D01*
X331248Y17554D01*
X330489Y15720D01*
X330025Y13790D01*
X329870Y11811D01*
X330025Y9832D01*
X330489Y7902D01*
X331248Y6068D01*
X332286Y4375D01*
X333575Y2866D01*
X335084Y1577D01*
X336777Y540D01*
X337690Y161D01*
X337651Y-35D01*
X242126Y0D01*
Y26071D01*
X242352Y26494D01*
X242375Y26571D01*
X242413Y26641D01*
X242807Y27940D01*
X242815Y28020D01*
X242838Y28097D01*
X242971Y29448D01*
X242967Y29488D01*
X242975Y29528D01*
X242952Y29645D01*
X242942Y29746D01*
X242975Y147638D01*
X242967Y147677D01*
X242971Y147718D01*
X242838Y149068D01*
X242815Y149145D01*
X242807Y149225D01*
X242413Y150524D01*
X242375Y150595D01*
X242352Y150672D01*
X242126Y151094D01*
Y177024D01*
X242267Y177165D01*
X337567Y177165D01*
D02*
G37*
G36*
X190945Y159449D02*
X194882Y155512D01*
Y92520D01*
X204724Y82677D01*
X207036D01*
X207206Y82177D01*
X206653Y81753D01*
X205940Y80824D01*
X205633Y80083D01*
X212283D01*
Y77083D01*
X205633D01*
X205940Y76341D01*
X206653Y75413D01*
X206830Y75277D01*
X206669Y74803D01*
X204724D01*
X202756Y72835D01*
X192913Y62992D01*
X192913Y11811D01*
X188976Y7874D01*
X82677Y7874D01*
X78740Y11811D01*
Y49213D01*
X82677Y53150D01*
X86614Y53150D01*
X94488Y61024D01*
Y116142D01*
X86614Y124016D01*
X82677Y124016D01*
X78740Y127953D01*
X78740Y155512D01*
X82677Y159449D01*
X190945Y159449D01*
D02*
G37*
%LPC*%
G36*
X282996Y69555D02*
Y68429D01*
X284122D01*
X284117Y68442D01*
X283636Y69069D01*
X283009Y69550D01*
X282996Y69555D01*
D02*
G37*
G36*
X279996D02*
X279983Y69550D01*
X279356Y69069D01*
X278876Y68442D01*
X278870Y68429D01*
X279996D01*
Y69555D01*
D02*
G37*
G36*
X131890Y83704D02*
X127953D01*
X126668Y83535D01*
X125471Y83039D01*
X124443Y82250D01*
X123654Y81222D01*
X123158Y80025D01*
X122989Y78740D01*
X123158Y77456D01*
X123654Y76258D01*
X124443Y75230D01*
X125471Y74441D01*
X126668Y73946D01*
X127953Y73777D01*
X131890D01*
X133175Y73946D01*
X134372Y74441D01*
X135400Y75230D01*
X136188Y76258D01*
X136684Y77456D01*
X136854Y78740D01*
X136684Y80025D01*
X136188Y81222D01*
X135400Y82250D01*
X134372Y83039D01*
X133175Y83535D01*
X131890Y83704D01*
D02*
G37*
G36*
X305118Y162273D02*
X304387Y162177D01*
X303706Y161895D01*
X303121Y161446D01*
X302672Y160861D01*
X302390Y160180D01*
X302294Y159449D01*
X302390Y158718D01*
X302672Y158037D01*
X303121Y157452D01*
X303706Y157003D01*
X304387Y156721D01*
X305118Y156625D01*
X305849Y156721D01*
X306122Y156834D01*
X318021Y144935D01*
X317932Y144756D01*
X317913Y144758D01*
X317130Y144655D01*
X316400Y144353D01*
X315774Y143872D01*
X315293Y143245D01*
X315287Y143232D01*
X317913D01*
Y141732D01*
X319413D01*
Y139106D01*
X319426Y139112D01*
X320053Y139593D01*
X320534Y140219D01*
X320836Y140949D01*
X320866Y141177D01*
X321068D01*
X321091Y141001D01*
X321373Y140320D01*
X321822Y139735D01*
X322407Y139286D01*
X323088Y139004D01*
X323819Y138908D01*
X324550Y139004D01*
X325231Y139286D01*
X325816Y139735D01*
X326265Y140320D01*
X326547Y141001D01*
X326643Y141732D01*
X326547Y142463D01*
X326265Y143144D01*
X325816Y143729D01*
X325231Y144178D01*
X324550Y144460D01*
X323819Y144556D01*
X323617Y144530D01*
X323479Y144667D01*
X323568Y144847D01*
X323819Y144814D01*
X324550Y144910D01*
X325231Y145192D01*
X325816Y145641D01*
X325940Y145802D01*
X340775D01*
X341669Y144909D01*
Y74956D01*
X341507Y74832D01*
X341058Y74247D01*
X340776Y73566D01*
X340680Y72835D01*
X340776Y72104D01*
X341058Y71423D01*
X341507Y70838D01*
X342092Y70389D01*
X342773Y70107D01*
X343504Y70011D01*
X344235Y70107D01*
X344916Y70389D01*
X345501Y70838D01*
X345950Y71423D01*
X346232Y72104D01*
X346328Y72835D01*
X346232Y73566D01*
X345950Y74247D01*
X345501Y74832D01*
X345339Y74956D01*
Y145669D01*
X345199Y146372D01*
X345068Y146569D01*
X344802Y146967D01*
X342833Y148935D01*
X342238Y149333D01*
X342121Y149356D01*
X341535Y149473D01*
X325940D01*
X325816Y149635D01*
X325231Y150084D01*
X324550Y150366D01*
X323819Y150462D01*
X323088Y150366D01*
X322407Y150084D01*
X321822Y149635D01*
X321373Y149050D01*
X321091Y148369D01*
X320995Y147638D01*
X321028Y147387D01*
X320848Y147298D01*
X307761Y160386D01*
X307564Y160861D01*
X307115Y161446D01*
X306530Y161895D01*
X305849Y162177D01*
X305118Y162273D01*
D02*
G37*
G36*
X284122Y65429D02*
X282996D01*
Y64303D01*
X283009Y64309D01*
X283636Y64789D01*
X284117Y65416D01*
X284122Y65429D01*
D02*
G37*
G36*
X153075Y63057D02*
Y61539D01*
X154593D01*
X154512Y61735D01*
X153973Y62437D01*
X153270Y62976D01*
X153075Y63057D01*
D02*
G37*
G36*
X150075D02*
X149879Y62976D01*
X149177Y62437D01*
X148638Y61735D01*
X148557Y61539D01*
X150075D01*
Y63057D01*
D02*
G37*
G36*
X279996Y65429D02*
X278870D01*
X278876Y65416D01*
X279356Y64789D01*
X279983Y64309D01*
X279996Y64303D01*
Y65429D01*
D02*
G37*
G36*
X254744Y72864D02*
X249823D01*
X248715Y72718D01*
X247682Y72291D01*
X246795Y71610D01*
X246115Y70723D01*
X245687Y69691D01*
X245541Y68583D01*
X245687Y67475D01*
X246115Y66442D01*
X246795Y65555D01*
X247682Y64875D01*
X248715Y64447D01*
X249823Y64301D01*
X254744D01*
X255852Y64447D01*
X256885Y64875D01*
X257772Y65555D01*
X258452Y66442D01*
X258880Y67475D01*
X259026Y68583D01*
X258880Y69691D01*
X258452Y70723D01*
X257772Y71610D01*
X256885Y72291D01*
X255852Y72718D01*
X254744Y72864D01*
D02*
G37*
G36*
Y92864D02*
X249823D01*
X248715Y92718D01*
X247682Y92291D01*
X246795Y91610D01*
X246115Y90724D01*
X245687Y89691D01*
X245541Y88583D01*
X245687Y87475D01*
X246115Y86442D01*
X246795Y85555D01*
X247682Y84875D01*
X248715Y84447D01*
X249823Y84301D01*
X254744D01*
X255852Y84447D01*
X256885Y84875D01*
X257772Y85555D01*
X258452Y86442D01*
X258880Y87475D01*
X259026Y88583D01*
X258880Y89691D01*
X258452Y90724D01*
X257772Y91610D01*
X256885Y92291D01*
X255852Y92718D01*
X254744Y92864D01*
D02*
G37*
G36*
X175197Y82727D02*
X174728D01*
Y80240D01*
X178854D01*
X178650Y80734D01*
X178016Y81559D01*
X177190Y82193D01*
X176229Y82591D01*
X175197Y82727D01*
D02*
G37*
G36*
Y103389D02*
X171260D01*
X169975Y103220D01*
X168778Y102724D01*
X167750Y101935D01*
X166961Y100907D01*
X166465Y99710D01*
X166296Y98425D01*
X166465Y97141D01*
X166961Y95943D01*
X167750Y94915D01*
X168778Y94126D01*
X169975Y93631D01*
X171260Y93462D01*
X175197D01*
X176482Y93631D01*
X177679Y94126D01*
X178707Y94915D01*
X179496Y95943D01*
X179991Y97141D01*
X180161Y98425D01*
X179991Y99710D01*
X179496Y100907D01*
X178707Y101935D01*
X177679Y102724D01*
X176482Y103220D01*
X175197Y103389D01*
D02*
G37*
G36*
X131890D02*
X127953D01*
X126668Y103220D01*
X125471Y102724D01*
X124443Y101935D01*
X123654Y100907D01*
X123158Y99710D01*
X122989Y98425D01*
X123158Y97141D01*
X123654Y95943D01*
X124443Y94915D01*
X125471Y94126D01*
X126668Y93631D01*
X127953Y93462D01*
X131890D01*
X133175Y93631D01*
X134372Y94126D01*
X135400Y94915D01*
X136188Y95943D01*
X136684Y97141D01*
X136854Y98425D01*
X136684Y99710D01*
X136188Y100907D01*
X135400Y101935D01*
X134372Y102724D01*
X133175Y103220D01*
X131890Y103389D01*
D02*
G37*
G36*
X171728Y82727D02*
X171260D01*
X170228Y82591D01*
X169266Y82193D01*
X168441Y81559D01*
X167807Y80734D01*
X167603Y80240D01*
X171728D01*
Y82727D01*
D02*
G37*
G36*
Y77240D02*
X167603D01*
X167807Y76747D01*
X168441Y75921D01*
X169266Y75287D01*
X170228Y74889D01*
X171260Y74753D01*
X171728D01*
Y77240D01*
D02*
G37*
G36*
X254744Y82864D02*
X249823D01*
X248715Y82718D01*
X247682Y82291D01*
X246795Y81610D01*
X246115Y80724D01*
X245687Y79691D01*
X245541Y78583D01*
X245687Y77475D01*
X246115Y76442D01*
X246795Y75555D01*
X247682Y74875D01*
X248715Y74447D01*
X249823Y74301D01*
X254744D01*
X255852Y74447D01*
X256885Y74875D01*
X257772Y75555D01*
X258452Y76442D01*
X258880Y77475D01*
X259026Y78583D01*
X258880Y79691D01*
X258452Y80724D01*
X257772Y81610D01*
X256885Y82291D01*
X255852Y82718D01*
X254744Y82864D01*
D02*
G37*
G36*
X301181Y82525D02*
X297244D01*
X296264Y82396D01*
X295352Y82018D01*
X294568Y81417D01*
X293966Y80633D01*
X293588Y79720D01*
X293459Y78740D01*
X293588Y77760D01*
X293966Y76848D01*
X294568Y76064D01*
X295352Y75462D01*
X296264Y75084D01*
X297244Y74955D01*
X301181D01*
X302161Y75084D01*
X303074Y75462D01*
X303858Y76064D01*
X304459Y76848D01*
X304837Y77760D01*
X304966Y78740D01*
X304837Y79720D01*
X304459Y80633D01*
X303858Y81417D01*
X303074Y82018D01*
X302161Y82396D01*
X301181Y82525D01*
D02*
G37*
G36*
X178854Y77240D02*
X174728D01*
Y74753D01*
X175197D01*
X176229Y74889D01*
X177190Y75287D01*
X178016Y75921D01*
X178650Y76747D01*
X178854Y77240D01*
D02*
G37*
G36*
X135358Y63057D02*
Y61539D01*
X136876D01*
X136795Y61735D01*
X136256Y62437D01*
X135554Y62976D01*
X135358Y63057D01*
D02*
G37*
G36*
X116192Y43776D02*
X113705D01*
Y39650D01*
X114198Y39854D01*
X115024Y40488D01*
X115657Y41314D01*
X116056Y42275D01*
X116192Y43307D01*
Y43776D01*
D02*
G37*
G36*
X110705D02*
X108218D01*
Y43307D01*
X108354Y42275D01*
X108752Y41314D01*
X109386Y40488D01*
X110211Y39854D01*
X110705Y39650D01*
Y43776D01*
D02*
G37*
G36*
X113705Y50901D02*
Y46776D01*
X116192D01*
Y47244D01*
X116056Y48276D01*
X115657Y49238D01*
X115024Y50063D01*
X114198Y50697D01*
X113705Y50901D01*
D02*
G37*
G36*
X110705D02*
X110211Y50697D01*
X109386Y50063D01*
X108752Y49238D01*
X108354Y48276D01*
X108218Y47244D01*
Y46776D01*
X110705D01*
Y50901D01*
D02*
G37*
G36*
X92520Y52208D02*
X91235Y52039D01*
X90038Y51543D01*
X89010Y50754D01*
X88221Y49726D01*
X87725Y48529D01*
X87556Y47244D01*
Y43307D01*
X87725Y42022D01*
X88221Y40825D01*
X89010Y39797D01*
X90038Y39008D01*
X91235Y38513D01*
X92520Y38343D01*
X93804Y38513D01*
X95002Y39008D01*
X96030Y39797D01*
X96818Y40825D01*
X97314Y42022D01*
X97483Y43307D01*
Y47244D01*
X97314Y48529D01*
X96818Y49726D01*
X96030Y50754D01*
X95002Y51543D01*
X93804Y52039D01*
X92520Y52208D01*
D02*
G37*
G36*
X161483Y30980D02*
X159965D01*
Y29463D01*
X160160Y29544D01*
X160863Y30082D01*
X161401Y30785D01*
X161483Y30980D01*
D02*
G37*
G36*
X156965D02*
X155447D01*
X155528Y30785D01*
X156067Y30082D01*
X156769Y29544D01*
X156965Y29463D01*
Y30980D01*
D02*
G37*
G36*
X159965Y35498D02*
Y33980D01*
X161483D01*
X161401Y34176D01*
X160863Y34878D01*
X160160Y35417D01*
X159965Y35498D01*
D02*
G37*
G36*
X156965D02*
X156769Y35417D01*
X156067Y34878D01*
X155528Y34176D01*
X155447Y33980D01*
X156965D01*
Y35498D01*
D02*
G37*
G36*
X150075Y58539D02*
X148557D01*
X148638Y58344D01*
X149177Y57642D01*
X149879Y57103D01*
X150075Y57021D01*
Y58539D01*
D02*
G37*
G36*
X136876D02*
X135358D01*
Y57021D01*
X135554Y57103D01*
X136256Y57642D01*
X136795Y58344D01*
X136876Y58539D01*
D02*
G37*
G36*
X132358Y63057D02*
X132163Y62976D01*
X131460Y62437D01*
X130921Y61735D01*
X130840Y61539D01*
X132358D01*
Y63057D01*
D02*
G37*
G36*
X154593Y58539D02*
X153075D01*
Y57021D01*
X153270Y57103D01*
X153973Y57642D01*
X154512Y58344D01*
X154593Y58539D01*
D02*
G37*
G36*
X132358D02*
X130840D01*
X130921Y58344D01*
X131460Y57642D01*
X132163Y57103D01*
X132358Y57021D01*
Y58539D01*
D02*
G37*
G36*
X317291Y48008D02*
X316165D01*
Y46882D01*
X316178Y46887D01*
X316805Y47368D01*
X317286Y47995D01*
X317291Y48008D01*
D02*
G37*
G36*
X313165D02*
X312039D01*
X312045Y47995D01*
X312526Y47368D01*
X313152Y46887D01*
X313165Y46882D01*
Y48008D01*
D02*
G37*
G36*
X316165Y52134D02*
Y51008D01*
X317291D01*
X317286Y51021D01*
X316805Y51648D01*
X316178Y52128D01*
X316165Y52134D01*
D02*
G37*
G36*
X313165D02*
X313152Y52128D01*
X312526Y51648D01*
X312045Y51021D01*
X312039Y51008D01*
X313165D01*
Y52134D01*
D02*
G37*
G36*
X250783Y97083D02*
X245633D01*
X245940Y96341D01*
X246653Y95413D01*
X247581Y94700D01*
X248662Y94252D01*
X249823Y94099D01*
X250783D01*
Y97083D01*
D02*
G37*
G36*
X322835Y167190D02*
X276575D01*
X275989Y167073D01*
X275872Y167050D01*
X275277Y166652D01*
X273309Y164683D01*
X272911Y164088D01*
X272888Y163972D01*
X272771Y163386D01*
Y148393D01*
X272586Y148316D01*
X269014Y151888D01*
X268419Y152286D01*
X268302Y152309D01*
X267717Y152426D01*
X264916D01*
X264792Y152587D01*
X264207Y153036D01*
X263526Y153319D01*
X262795Y153415D01*
X262064Y153319D01*
X261383Y153036D01*
X260798Y152587D01*
X260349Y152003D01*
X260067Y151321D01*
X259971Y150591D01*
X260067Y149860D01*
X260349Y149179D01*
X260798Y148594D01*
X261383Y148145D01*
X262064Y147863D01*
X262795Y147766D01*
X263526Y147863D01*
X264207Y148145D01*
X264792Y148594D01*
X264916Y148755D01*
X266956D01*
X271809Y143903D01*
X271782Y143701D01*
X271878Y142970D01*
X272161Y142289D01*
X272609Y141704D01*
X273194Y141255D01*
X273875Y140973D01*
X274606Y140877D01*
X275337Y140973D01*
X276018Y141255D01*
X276603Y141704D01*
X277052Y142289D01*
X277334Y142970D01*
X277357Y143145D01*
X277358D01*
X277431Y143701D01*
X277358Y144256D01*
X277357D01*
X277334Y144432D01*
X277052Y145113D01*
X276603Y145698D01*
X276442Y145822D01*
Y162626D01*
X277335Y163519D01*
X322075D01*
X322968Y162626D01*
Y154528D01*
X323084Y153942D01*
X323108Y153825D01*
X323505Y153230D01*
X325474Y151261D01*
X326069Y150864D01*
X326186Y150840D01*
X326772Y150724D01*
X330556D01*
X330680Y150562D01*
X331265Y150113D01*
X331946Y149831D01*
X332677Y149735D01*
X333408Y149831D01*
X334089Y150113D01*
X334674Y150562D01*
X335123Y151147D01*
X335405Y151828D01*
X335501Y152559D01*
X335405Y153290D01*
X335123Y153971D01*
X334674Y154556D01*
X334089Y155005D01*
X333408Y155287D01*
X332677Y155383D01*
X331946Y155287D01*
X331265Y155005D01*
X330680Y154556D01*
X330556Y154394D01*
X327532D01*
X326638Y155288D01*
Y163386D01*
X326522Y163972D01*
X326499Y164088D01*
X326101Y164683D01*
X324132Y166652D01*
X323537Y167050D01*
X323421Y167073D01*
X322835Y167190D01*
D02*
G37*
G36*
X253468Y151610D02*
Y149453D01*
X255626D01*
X255421Y149946D01*
X254788Y150772D01*
X253962Y151406D01*
X253468Y151610D01*
D02*
G37*
G36*
X295933Y157949D02*
X294807D01*
Y156823D01*
X294820Y156828D01*
X295447Y157309D01*
X295928Y157936D01*
X295933Y157949D01*
D02*
G37*
G36*
X291807D02*
X290681D01*
X290687Y157936D01*
X291167Y157309D01*
X291794Y156828D01*
X291807Y156823D01*
Y157949D01*
D02*
G37*
G36*
X250468Y151610D02*
X249975Y151406D01*
X249149Y150772D01*
X248516Y149946D01*
X248311Y149453D01*
X250468D01*
Y151610D01*
D02*
G37*
G36*
X279012Y146327D02*
X278999Y146321D01*
X278372Y145840D01*
X277891Y145214D01*
X277886Y145201D01*
X279012D01*
Y146327D01*
D02*
G37*
G36*
X301787Y145656D02*
Y144701D01*
X302742D01*
X302360Y145273D01*
X301787Y145656D01*
D02*
G37*
G36*
X299787D02*
X299215Y145273D01*
X299210D01*
X298638Y145656D01*
Y143701D01*
X297638D01*
Y142701D01*
X295683D01*
X296065Y142128D01*
X296508Y141832D01*
Y141632D01*
X296065Y141336D01*
X295683Y140764D01*
X297638D01*
Y139764D01*
X298638D01*
Y137809D01*
X299210Y138191D01*
X299215D01*
X299787Y137809D01*
Y139764D01*
X300787D01*
Y140764D01*
X302742D01*
X302360Y141336D01*
X301917Y141632D01*
Y141832D01*
X302360Y142128D01*
X302742Y142701D01*
X300787D01*
Y143701D01*
X299787D01*
Y145656D01*
D02*
G37*
G36*
X282012Y146327D02*
Y145201D01*
X283138D01*
X283132Y145214D01*
X282651Y145840D01*
X282025Y146321D01*
X282012Y146327D01*
D02*
G37*
G36*
X315429Y157949D02*
X314303D01*
X314309Y157936D01*
X314790Y157309D01*
X315416Y156828D01*
X315429Y156823D01*
Y157949D01*
D02*
G37*
G36*
X294807Y162075D02*
Y160949D01*
X295933D01*
X295928Y160962D01*
X295447Y161588D01*
X294820Y162069D01*
X294807Y162075D01*
D02*
G37*
G36*
X291807D02*
X291794Y162069D01*
X291167Y161588D01*
X290687Y160962D01*
X290681Y160949D01*
X291807D01*
Y162075D01*
D02*
G37*
G36*
X318429D02*
Y160949D01*
X319555D01*
X319550Y160962D01*
X319069Y161588D01*
X318442Y162069D01*
X318429Y162075D01*
D02*
G37*
G36*
X315429D02*
X315416Y162069D01*
X314790Y161588D01*
X314309Y160962D01*
X314303Y160949D01*
X315429D01*
Y162075D01*
D02*
G37*
G36*
X264295D02*
Y160949D01*
X265421D01*
X265416Y160962D01*
X264935Y161588D01*
X264308Y162069D01*
X264295Y162075D01*
D02*
G37*
G36*
X261295Y157949D02*
X260169D01*
X260175Y157936D01*
X260656Y157309D01*
X261282Y156828D01*
X261295Y156823D01*
Y157949D01*
D02*
G37*
G36*
X319555D02*
X318429D01*
Y156823D01*
X318442Y156828D01*
X319069Y157309D01*
X319550Y157936D01*
X319555Y157949D01*
D02*
G37*
G36*
X261295Y162075D02*
X261282Y162069D01*
X260656Y161588D01*
X260175Y160962D01*
X260169Y160949D01*
X261295D01*
Y162075D01*
D02*
G37*
G36*
X265421Y157949D02*
X264295D01*
Y156823D01*
X264308Y156828D01*
X264935Y157309D01*
X265416Y157936D01*
X265421Y157949D01*
D02*
G37*
G36*
X296638Y145656D02*
X296065Y145273D01*
X295683Y144701D01*
X296638D01*
Y145656D01*
D02*
G37*
G36*
X254744Y103066D02*
X253783D01*
Y100083D01*
X258934D01*
X258627Y100824D01*
X257914Y101753D01*
X256986Y102465D01*
X255904Y102913D01*
X254744Y103066D01*
D02*
G37*
G36*
X250783D02*
X249823D01*
X248662Y102913D01*
X247581Y102465D01*
X246653Y101753D01*
X245940Y100824D01*
X245633Y100083D01*
X250783D01*
Y103066D01*
D02*
G37*
G36*
X255721Y131705D02*
X248216D01*
Y124200D01*
X255721D01*
Y131705D01*
D02*
G37*
G36*
X254744Y112864D02*
X249823D01*
X248715Y112718D01*
X247682Y112291D01*
X246795Y111610D01*
X246115Y110723D01*
X245687Y109691D01*
X245541Y108583D01*
X245687Y107475D01*
X246115Y106442D01*
X246795Y105555D01*
X247682Y104875D01*
X248715Y104447D01*
X249823Y104301D01*
X254744D01*
X255852Y104447D01*
X256885Y104875D01*
X257772Y105555D01*
X258452Y106442D01*
X258880Y107475D01*
X259026Y108583D01*
X258880Y109691D01*
X258452Y110723D01*
X257772Y111610D01*
X256885Y112291D01*
X255852Y112718D01*
X254744Y112864D01*
D02*
G37*
G36*
X301181Y102412D02*
X300713D01*
Y99925D01*
X304838D01*
X304634Y100419D01*
X304000Y101244D01*
X303174Y101878D01*
X302213Y102276D01*
X301181Y102412D01*
D02*
G37*
G36*
X297713Y96925D02*
X293587D01*
X293791Y96432D01*
X294425Y95606D01*
X295251Y94972D01*
X296212Y94574D01*
X297244Y94438D01*
X297713D01*
Y96925D01*
D02*
G37*
G36*
X258934Y97083D02*
X253783D01*
Y94099D01*
X254744D01*
X255904Y94252D01*
X256986Y94700D01*
X257914Y95413D01*
X258627Y96341D01*
X258934Y97083D01*
D02*
G37*
G36*
X297713Y102412D02*
X297244D01*
X296212Y102276D01*
X295251Y101878D01*
X294425Y101244D01*
X293791Y100419D01*
X293587Y99925D01*
X297713D01*
Y102412D01*
D02*
G37*
G36*
X304838Y96925D02*
X300713D01*
Y94438D01*
X301181D01*
X302213Y94574D01*
X303174Y94972D01*
X304000Y95606D01*
X304634Y96432D01*
X304838Y96925D01*
D02*
G37*
G36*
X92520Y138822D02*
X91235Y138653D01*
X90038Y138157D01*
X89010Y137368D01*
X88221Y136340D01*
X87725Y135143D01*
X87556Y133858D01*
Y129921D01*
X87725Y128637D01*
X88221Y127439D01*
X89010Y126411D01*
X90038Y125623D01*
X91235Y125127D01*
X92520Y124958D01*
X93804Y125127D01*
X95002Y125623D01*
X96030Y126411D01*
X96818Y127439D01*
X97314Y128637D01*
X97483Y129921D01*
Y133858D01*
X97314Y135143D01*
X96818Y136340D01*
X96030Y137368D01*
X95002Y138157D01*
X93804Y138653D01*
X92520Y138822D01*
D02*
G37*
G36*
X283138Y142201D02*
X282012D01*
Y141075D01*
X282025Y141080D01*
X282651Y141561D01*
X283132Y142188D01*
X283138Y142201D01*
D02*
G37*
G36*
X279012D02*
X277886D01*
X277891Y142188D01*
X278372Y141561D01*
X278999Y141080D01*
X279012Y141075D01*
Y142201D01*
D02*
G37*
G36*
X255626Y146453D02*
X253468D01*
Y144296D01*
X253962Y144500D01*
X254788Y145134D01*
X255421Y145959D01*
X255626Y146453D01*
D02*
G37*
G36*
X250468D02*
X248311D01*
X248516Y145959D01*
X249149Y145134D01*
X249975Y144500D01*
X250468Y144296D01*
Y146453D01*
D02*
G37*
G36*
X316413Y140232D02*
X315287D01*
X315293Y140219D01*
X315774Y139593D01*
X316400Y139112D01*
X316413Y139106D01*
Y140232D01*
D02*
G37*
G36*
X251969Y141738D02*
X250989Y141609D01*
X250076Y141231D01*
X249292Y140629D01*
X248691Y139845D01*
X248312Y138932D01*
X248183Y137953D01*
X248312Y136973D01*
X248691Y136060D01*
X249292Y135276D01*
X250076Y134675D01*
X250989Y134297D01*
X251969Y134168D01*
X252948Y134297D01*
X253861Y134675D01*
X254645Y135276D01*
X255246Y136060D01*
X255625Y136973D01*
X255754Y137953D01*
X255625Y138932D01*
X255246Y139845D01*
X254645Y140629D01*
X253861Y141231D01*
X252948Y141609D01*
X251969Y141738D01*
D02*
G37*
G36*
X112205Y138822D02*
X110920Y138653D01*
X109723Y138157D01*
X108695Y137368D01*
X107906Y136340D01*
X107410Y135143D01*
X107241Y133858D01*
Y129921D01*
X107410Y128637D01*
X107906Y127439D01*
X108695Y126411D01*
X109723Y125623D01*
X110920Y125127D01*
X112205Y124958D01*
X113489Y125127D01*
X114687Y125623D01*
X115715Y126411D01*
X116503Y127439D01*
X116999Y128637D01*
X117168Y129921D01*
Y133858D01*
X116999Y135143D01*
X116503Y136340D01*
X115715Y137368D01*
X114687Y138157D01*
X113489Y138653D01*
X112205Y138822D01*
D02*
G37*
G36*
X302742Y138764D02*
X301787D01*
Y137809D01*
X302360Y138191D01*
X302742Y138764D01*
D02*
G37*
G36*
X296638D02*
X295683D01*
X296065Y138191D01*
X296638Y137809D01*
Y138764D01*
D02*
G37*
%LPD*%
D23*
X326772Y152559D02*
X332677D01*
X324803Y154528D02*
X326772Y152559D01*
X267717Y150591D02*
X274606Y143701D01*
X262795Y150591D02*
X267717D01*
X324803Y154528D02*
Y163386D01*
X322835Y165354D02*
X324803Y163386D01*
X276575Y165354D02*
X322835D01*
X274606Y163386D02*
X276575Y165354D01*
X274606Y143701D02*
Y163386D01*
X343504Y72835D02*
Y145669D01*
X341535Y147638D02*
X343504Y145669D01*
X323819Y147638D02*
X341535D01*
X306102Y159449D02*
X323819Y141732D01*
X305118Y159449D02*
X306102D01*
D28*
X251969Y147953D02*
D03*
Y137953D02*
D03*
D29*
Y127953D02*
D03*
D30*
X342520Y11811D02*
D03*
X11811D02*
D03*
Y165354D02*
D03*
X342520D02*
D03*
D31*
X299213Y98425D02*
D03*
Y78740D02*
D03*
X129921Y78740D02*
D03*
Y98425D02*
D03*
X173228Y78740D02*
D03*
Y98425D02*
D03*
D32*
X112205Y45276D02*
D03*
X92520D02*
D03*
Y131890D02*
D03*
X112205D02*
D03*
D33*
X84646Y68898D02*
D03*
Y108268D02*
D03*
D34*
X252284Y68583D02*
D03*
Y78583D02*
D03*
Y88583D02*
D03*
Y98583D02*
D03*
Y108583D02*
D03*
X212283Y68583D02*
D03*
Y78583D02*
D03*
Y88583D02*
D03*
Y98583D02*
D03*
Y108583D02*
D03*
D35*
X55118Y66929D02*
D03*
Y110236D02*
D03*
D36*
X332677Y152559D02*
D03*
X314665Y49508D02*
D03*
X281496Y66929D02*
D03*
X293307Y159449D02*
D03*
X323819Y147638D02*
D03*
Y141732D02*
D03*
X317913D02*
D03*
X316929Y159449D02*
D03*
X305118D02*
D03*
X262795Y150591D02*
D03*
X274606Y143701D02*
D03*
X262795Y159449D02*
D03*
X343504Y72835D02*
D03*
X280512Y143701D02*
D03*
D37*
X297638Y139764D02*
D03*
X300787D02*
D03*
X297638Y143701D02*
D03*
X300787D02*
D03*
D38*
X151575Y60039D02*
D03*
X158465Y32480D02*
D03*
X133858Y60039D02*
D03*
M02*
