G04 Layer_Physical_Order=2*
G04 Layer_Color=16711680*
%FSLAX25Y25*%
%MOIN*%
G70*
G01*
G75*
%ADD19C,0.02953*%
%ADD21C,0.06299*%
%ADD22O,0.11811X0.06890*%
%ADD23O,0.09843X0.05906*%
%ADD24C,0.17716*%
%ADD25O,0.05906X0.09843*%
%ADD26O,0.09843X0.05906*%
%ADD27O,0.29528X0.17716*%
%ADD28C,0.03937*%
G36*
X284764Y78347D02*
X283936Y78300D01*
X282846Y78115D01*
X281784Y77809D01*
X280762Y77386D01*
X279795Y76851D01*
X278893Y76211D01*
X278069Y75475D01*
X277332Y74650D01*
X276692Y73749D01*
X276158Y72781D01*
X275734Y71760D01*
X275429Y70698D01*
X275243Y69608D01*
X275181Y68504D01*
X275243Y67400D01*
X275429Y66310D01*
X275734Y65248D01*
X276158Y64227D01*
X276692Y63259D01*
X277332Y62358D01*
X278069Y61533D01*
X278893Y60797D01*
X279795Y60157D01*
X280762Y59622D01*
X281784Y59199D01*
X282846Y58893D01*
X283936Y58708D01*
X285039Y58646D01*
X286143Y58708D01*
X287233Y58893D01*
X288295Y59199D01*
X289317Y59622D01*
X290284Y60157D01*
X291186Y60797D01*
X292010Y61533D01*
X292747Y62358D01*
X293386Y63259D01*
X293921Y64227D01*
X294344Y65248D01*
X294650Y66310D01*
X294835Y67400D01*
X294882Y68229D01*
X295276Y68218D01*
Y-68218D01*
X294882Y-68230D01*
X294835Y-67400D01*
X294650Y-66310D01*
X294344Y-65248D01*
X293921Y-64227D01*
X293386Y-63259D01*
X292747Y-62357D01*
X292010Y-61533D01*
X291186Y-60797D01*
X290284Y-60157D01*
X289317Y-59622D01*
X288295Y-59199D01*
X287233Y-58893D01*
X286143Y-58708D01*
X285039Y-58646D01*
X283936Y-58708D01*
X282846Y-58893D01*
X281783Y-59199D01*
X280762Y-59622D01*
X279795Y-60157D01*
X278893Y-60797D01*
X278069Y-61533D01*
X277332Y-62357D01*
X276692Y-63259D01*
X276157Y-64227D01*
X275734Y-65248D01*
X275429Y-66310D01*
X275243Y-67400D01*
X275181Y-68504D01*
X275243Y-69608D01*
X275429Y-70697D01*
X275734Y-71760D01*
X276157Y-72781D01*
X276692Y-73749D01*
X277332Y-74650D01*
X278069Y-75475D01*
X278893Y-76211D01*
X279795Y-76851D01*
X280762Y-77386D01*
X281783Y-77809D01*
X282846Y-78115D01*
X283936Y-78300D01*
X284765Y-78347D01*
X284754Y-78740D01*
X252953Y-78740D01*
X225442Y-51229D01*
X225451Y-51181D01*
X225422Y-51037D01*
X225413Y-50943D01*
X225451Y51181D01*
X225442Y51229D01*
X252953Y78740D01*
X284753D01*
X284764Y78347D01*
D02*
G37*
G36*
X207629Y51229D02*
X207620Y51181D01*
X207648Y51037D01*
X207658Y50943D01*
X207620Y-51181D01*
X207629Y-51229D01*
X180118Y-78740D01*
X64961D01*
Y-59055D01*
X74414Y-49602D01*
X74531Y-49674D01*
X75246Y-49970D01*
X75999Y-50151D01*
X76772Y-50212D01*
X80709D01*
X81481Y-50151D01*
X82234Y-49970D01*
X82950Y-49674D01*
X83610Y-49269D01*
X84199Y-48766D01*
X84702Y-48177D01*
X85107Y-47517D01*
X85404Y-46801D01*
X85584Y-46048D01*
X85645Y-45276D01*
X85584Y-44503D01*
X85404Y-43750D01*
X85107Y-43034D01*
X84702Y-42374D01*
X84199Y-41785D01*
X83610Y-41282D01*
X83338Y-41115D01*
X83292Y-40724D01*
X92520Y-31496D01*
Y78740D01*
X180118Y78740D01*
X207629Y51229D01*
D02*
G37*
G36*
X295276Y68790D02*
X294882Y68779D01*
X294835Y69608D01*
X294650Y70698D01*
X294344Y71760D01*
X293921Y72781D01*
X293386Y73749D01*
X292747Y74650D01*
X292010Y75475D01*
X291186Y76211D01*
X290284Y76851D01*
X289317Y77386D01*
X288295Y77809D01*
X287233Y78115D01*
X286143Y78300D01*
X285315Y78347D01*
X285326Y78740D01*
X295276D01*
Y68790D01*
D02*
G37*
G36*
Y-68789D02*
Y-78740D01*
X285325D01*
X285314Y-78347D01*
X286143Y-78300D01*
X287233Y-78115D01*
X288295Y-77809D01*
X289317Y-77386D01*
X290284Y-76851D01*
X291186Y-76211D01*
X292010Y-75475D01*
X292747Y-74650D01*
X293386Y-73749D01*
X293921Y-72781D01*
X294344Y-71760D01*
X294650Y-70697D01*
X294835Y-69608D01*
X294882Y-68778D01*
X295276Y-68789D01*
D02*
G37*
%LPC*%
G36*
X253445Y-54528D02*
Y-55610D01*
X254527D01*
X254435Y-55438D01*
X254066Y-54989D01*
X253617Y-54620D01*
X253445Y-54528D01*
D02*
G37*
G36*
X183563Y-38878D02*
X182480D01*
X182572Y-39050D01*
X182941Y-39500D01*
X183391Y-39869D01*
X183563Y-39961D01*
Y-38878D01*
D02*
G37*
G36*
X286417Y-35414D02*
X282480D01*
X281709Y-35490D01*
X280966Y-35715D01*
X280282Y-36081D01*
X279683Y-36573D01*
X279191Y-37172D01*
X278825Y-37856D01*
X278600Y-38598D01*
X278524Y-39370D01*
X278600Y-40142D01*
X278825Y-40884D01*
X279191Y-41568D01*
X279683Y-42167D01*
X280282Y-42659D01*
X280966Y-43025D01*
X281218Y-43101D01*
Y-43513D01*
X280966Y-43589D01*
X280282Y-43955D01*
X279683Y-44447D01*
X279191Y-45046D01*
X278825Y-45730D01*
X278814Y-45768D01*
X290084D01*
X290072Y-45730D01*
X289707Y-45046D01*
X289215Y-44447D01*
X288615Y-43955D01*
X287931Y-43589D01*
X287679Y-43513D01*
Y-43101D01*
X287931Y-43025D01*
X288615Y-42659D01*
X289215Y-42167D01*
X289707Y-41568D01*
X290072Y-40884D01*
X290297Y-40142D01*
X290373Y-39370D01*
X290297Y-38598D01*
X290072Y-37856D01*
X289707Y-37172D01*
X289215Y-36573D01*
X288615Y-36081D01*
X287931Y-35715D01*
X287189Y-35490D01*
X286417Y-35414D01*
D02*
G37*
G36*
X290084Y-48720D02*
X285925D01*
Y-51200D01*
X286417D01*
X287189Y-51124D01*
X287931Y-50899D01*
X288615Y-50533D01*
X289215Y-50041D01*
X289707Y-49442D01*
X290072Y-48758D01*
X290084Y-48720D01*
D02*
G37*
G36*
X282972D02*
X278814D01*
X278825Y-48758D01*
X279191Y-49442D01*
X279683Y-50041D01*
X280282Y-50533D01*
X280966Y-50899D01*
X281709Y-51124D01*
X282480Y-51200D01*
X282972D01*
Y-48720D01*
D02*
G37*
G36*
X287894Y-29035D02*
X286811D01*
X286903Y-29208D01*
X287272Y-29657D01*
X287722Y-30026D01*
X287894Y-30118D01*
Y-29035D01*
D02*
G37*
G36*
X291929D02*
X290846D01*
Y-30118D01*
X291019Y-30026D01*
X291468Y-29657D01*
X291837Y-29208D01*
X291929Y-29035D01*
D02*
G37*
G36*
X287894Y-25000D02*
X287722Y-25092D01*
X287272Y-25461D01*
X286903Y-25911D01*
X286811Y-26083D01*
X287894D01*
Y-25000D01*
D02*
G37*
G36*
X187598Y-38878D02*
X186516D01*
Y-39961D01*
X186688Y-39869D01*
X187137Y-39500D01*
X187506Y-39050D01*
X187598Y-38878D01*
D02*
G37*
G36*
X183563Y-34843D02*
X183391Y-34935D01*
X182941Y-35304D01*
X182572Y-35753D01*
X182480Y-35925D01*
X183563D01*
Y-34843D01*
D02*
G37*
G36*
X186516D02*
Y-35925D01*
X187598D01*
X187506Y-35753D01*
X187137Y-35304D01*
X186688Y-34935D01*
X186516Y-34843D01*
D02*
G37*
G36*
X250492Y-54528D02*
X250320Y-54620D01*
X249870Y-54989D01*
X249501Y-55438D01*
X249410Y-55610D01*
X250492D01*
Y-54528D01*
D02*
G37*
G36*
X77264Y-66437D02*
X73105D01*
X73117Y-66474D01*
X73482Y-67159D01*
X73974Y-67758D01*
X74574Y-68250D01*
X75258Y-68616D01*
X76000Y-68841D01*
X76772Y-68917D01*
X77264D01*
Y-66437D01*
D02*
G37*
G36*
X84375D02*
X80216D01*
Y-68917D01*
X80709D01*
X81480Y-68841D01*
X82223Y-68616D01*
X82907Y-68250D01*
X83506Y-67758D01*
X83998Y-67159D01*
X84364Y-66474D01*
X84375Y-66437D01*
D02*
G37*
G36*
X120571Y-66339D02*
X120399Y-66431D01*
X119949Y-66800D01*
X119580Y-67249D01*
X119488Y-67421D01*
X120571D01*
Y-66339D01*
D02*
G37*
G36*
X186516D02*
Y-68898D01*
X185039D01*
Y-70374D01*
X182480D01*
X182572Y-70546D01*
X182941Y-70996D01*
X183391Y-71365D01*
X183904Y-71639D01*
X184460Y-71808D01*
X185039Y-71865D01*
X185618Y-71808D01*
X186175Y-71639D01*
X186688Y-71365D01*
X187137Y-70996D01*
X187506Y-70546D01*
X187781Y-70033D01*
X187949Y-69476D01*
X188006Y-68898D01*
X187949Y-68319D01*
X187781Y-67762D01*
X187506Y-67249D01*
X187137Y-66800D01*
X186688Y-66431D01*
X186516Y-66339D01*
D02*
G37*
G36*
X120571Y-70374D02*
X119488D01*
X119580Y-70546D01*
X119949Y-70996D01*
X120399Y-71365D01*
X120571Y-71457D01*
Y-70374D01*
D02*
G37*
G36*
X124606D02*
X123524D01*
Y-71457D01*
X123696Y-71365D01*
X124145Y-70996D01*
X124514Y-70546D01*
X124606Y-70374D01*
D02*
G37*
G36*
X80709Y-61005D02*
X80216D01*
Y-63484D01*
X84375D01*
X84364Y-63447D01*
X83998Y-62763D01*
X83506Y-62163D01*
X82907Y-61671D01*
X82223Y-61306D01*
X81480Y-61081D01*
X80709Y-61005D01*
D02*
G37*
G36*
X250492Y-58563D02*
X249410D01*
X249501Y-58735D01*
X249870Y-59185D01*
X250320Y-59554D01*
X250492Y-59646D01*
Y-58563D01*
D02*
G37*
G36*
X254527D02*
X253445D01*
Y-59646D01*
X253617Y-59554D01*
X254066Y-59185D01*
X254435Y-58735D01*
X254527Y-58563D01*
D02*
G37*
G36*
X123524Y-66339D02*
Y-67421D01*
X124606D01*
X124514Y-67249D01*
X124145Y-66800D01*
X123696Y-66431D01*
X123524Y-66339D01*
D02*
G37*
G36*
X183563D02*
X183391Y-66431D01*
X182941Y-66800D01*
X182572Y-67249D01*
X182480Y-67421D01*
X183563D01*
Y-66339D01*
D02*
G37*
G36*
X77264Y-61005D02*
X76772D01*
X76000Y-61081D01*
X75258Y-61306D01*
X74574Y-61671D01*
X73974Y-62163D01*
X73482Y-62763D01*
X73117Y-63447D01*
X73105Y-63484D01*
X77264D01*
Y-61005D01*
D02*
G37*
G36*
X235059Y8524D02*
X229892D01*
X230116Y7983D01*
X230481Y7389D01*
X230933Y6858D01*
X231463Y6406D01*
X232058Y6041D01*
X232702Y5775D01*
X233380Y5612D01*
X234075Y5557D01*
X235059D01*
Y8524D01*
D02*
G37*
G36*
X243179D02*
X238012D01*
Y5557D01*
X238996D01*
X239691Y5612D01*
X240369Y5775D01*
X241013Y6041D01*
X241607Y6406D01*
X242138Y6858D01*
X242590Y7389D01*
X242955Y7983D01*
X243179Y8524D01*
D02*
G37*
G36*
X235059Y14443D02*
X234075D01*
X233380Y14388D01*
X232702Y14225D01*
X232058Y13959D01*
X231463Y13594D01*
X230933Y13142D01*
X230481Y12611D01*
X230116Y12017D01*
X229892Y11476D01*
X235059D01*
Y14443D01*
D02*
G37*
G36*
X290846Y590D02*
Y-492D01*
X291929D01*
X291837Y-320D01*
X291468Y129D01*
X291019Y499D01*
X290846Y590D01*
D02*
G37*
G36*
X124016Y14779D02*
X120079D01*
X119307Y14718D01*
X118553Y14537D01*
X117838Y14241D01*
X117177Y13836D01*
X116588Y13333D01*
X116085Y12744D01*
X115680Y12084D01*
X115384Y11368D01*
X115203Y10615D01*
X115142Y9843D01*
X115203Y9070D01*
X115384Y8317D01*
X115680Y7601D01*
X116085Y6941D01*
X116588Y6352D01*
X117177Y5849D01*
X117838Y5444D01*
X118553Y5148D01*
X119307Y4967D01*
X120079Y4906D01*
X124016D01*
X124788Y4967D01*
X125541Y5148D01*
X126257Y5444D01*
X126917Y5849D01*
X127506Y6352D01*
X128009Y6941D01*
X128414Y7601D01*
X128711Y8317D01*
X128891Y9070D01*
X128952Y9843D01*
X128891Y10615D01*
X128711Y11368D01*
X128414Y12084D01*
X128009Y12744D01*
X127506Y13333D01*
X126917Y13836D01*
X126257Y14241D01*
X125541Y14537D01*
X124788Y14718D01*
X124016Y14779D01*
D02*
G37*
G36*
X167323D02*
X163386D01*
X162614Y14718D01*
X161860Y14537D01*
X161145Y14241D01*
X160484Y13836D01*
X159895Y13333D01*
X159392Y12744D01*
X158987Y12084D01*
X158691Y11368D01*
X158510Y10615D01*
X158449Y9843D01*
X158510Y9070D01*
X158691Y8317D01*
X158987Y7601D01*
X159392Y6941D01*
X159895Y6352D01*
X160484Y5849D01*
X161145Y5444D01*
X161860Y5148D01*
X162614Y4967D01*
X163386Y4906D01*
X167323D01*
X168095Y4967D01*
X168848Y5148D01*
X169564Y5444D01*
X170224Y5849D01*
X170813Y6352D01*
X171317Y6941D01*
X171721Y7601D01*
X172018Y8317D01*
X172198Y9070D01*
X172259Y9843D01*
X172198Y10615D01*
X172018Y11368D01*
X171721Y12084D01*
X171317Y12744D01*
X170813Y13333D01*
X170224Y13836D01*
X169564Y14241D01*
X168848Y14537D01*
X168095Y14718D01*
X167323Y14779D01*
D02*
G37*
G36*
X238996Y14443D02*
X238012D01*
Y11476D01*
X243179D01*
X242955Y12017D01*
X242590Y12611D01*
X242138Y13142D01*
X241607Y13594D01*
X241013Y13959D01*
X240369Y14225D01*
X239691Y14388D01*
X238996Y14443D01*
D02*
G37*
G36*
Y24443D02*
X234075D01*
X233380Y24388D01*
X232702Y24225D01*
X232058Y23959D01*
X231463Y23594D01*
X230933Y23142D01*
X230481Y22611D01*
X230116Y22017D01*
X229849Y21373D01*
X229687Y20695D01*
X229632Y20000D01*
X229687Y19305D01*
X229849Y18627D01*
X230116Y17983D01*
X230481Y17389D01*
X230933Y16858D01*
X231463Y16406D01*
X232058Y16041D01*
X232702Y15775D01*
X233380Y15612D01*
X234075Y15557D01*
X238996D01*
X239691Y15612D01*
X240369Y15775D01*
X241013Y16041D01*
X241607Y16406D01*
X242138Y16858D01*
X242590Y17389D01*
X242955Y17983D01*
X243221Y18627D01*
X243384Y19305D01*
X243439Y20000D01*
X243384Y20695D01*
X243221Y21373D01*
X242955Y22017D01*
X242590Y22611D01*
X242138Y23142D01*
X241607Y23594D01*
X241013Y23959D01*
X240369Y24225D01*
X239691Y24388D01*
X238996Y24443D01*
D02*
G37*
G36*
X256398Y25320D02*
X256360Y25308D01*
X255676Y24943D01*
X255077Y24451D01*
X254585Y23851D01*
X254219Y23167D01*
X253994Y22425D01*
X253918Y21654D01*
Y21161D01*
X256398D01*
Y25320D01*
D02*
G37*
G36*
X259350D02*
Y21161D01*
X261830D01*
Y21654D01*
X261754Y22425D01*
X261529Y23167D01*
X261163Y23851D01*
X260671Y24451D01*
X260072Y24943D01*
X259388Y25308D01*
X259350Y25320D01*
D02*
G37*
G36*
X277559Y25610D02*
X276787Y25534D01*
X276045Y25308D01*
X275361Y24943D01*
X274762Y24451D01*
X274270Y23851D01*
X273904Y23167D01*
X273679Y22425D01*
X273603Y21654D01*
Y17717D01*
X273679Y16945D01*
X273904Y16203D01*
X274270Y15519D01*
X274762Y14919D01*
X275361Y14427D01*
X276045Y14062D01*
X276787Y13837D01*
X277559Y13760D01*
X278331Y13837D01*
X279073Y14062D01*
X279757Y14427D01*
X280356Y14919D01*
X280848Y15519D01*
X281214Y16203D01*
X281439Y16945D01*
X281515Y17717D01*
Y21654D01*
X281439Y22425D01*
X281214Y23167D01*
X280848Y23851D01*
X280356Y24451D01*
X279757Y24943D01*
X279073Y25308D01*
X278331Y25534D01*
X277559Y25610D01*
D02*
G37*
G36*
X256398Y18209D02*
X253918D01*
Y17717D01*
X253994Y16945D01*
X254219Y16203D01*
X254585Y15519D01*
X255077Y14919D01*
X255676Y14427D01*
X256360Y14062D01*
X256398Y14050D01*
Y18209D01*
D02*
G37*
G36*
X261830D02*
X259350D01*
Y14050D01*
X259388Y14062D01*
X260072Y14427D01*
X260671Y14919D01*
X261163Y15519D01*
X261529Y16203D01*
X261754Y16945D01*
X261830Y17717D01*
Y18209D01*
D02*
G37*
G36*
X287894Y590D02*
X287722Y499D01*
X287272Y129D01*
X286903Y-320D01*
X286811Y-492D01*
X287894D01*
Y590D01*
D02*
G37*
G36*
X124016Y-4906D02*
X120079D01*
X119307Y-4967D01*
X118553Y-5148D01*
X117838Y-5444D01*
X117177Y-5849D01*
X116588Y-6352D01*
X116085Y-6941D01*
X115680Y-7601D01*
X115384Y-8317D01*
X115203Y-9070D01*
X115142Y-9843D01*
X115203Y-10615D01*
X115384Y-11368D01*
X115680Y-12084D01*
X116085Y-12744D01*
X116588Y-13333D01*
X117177Y-13836D01*
X117838Y-14241D01*
X118553Y-14537D01*
X119307Y-14718D01*
X120079Y-14779D01*
X124016D01*
X124788Y-14718D01*
X125541Y-14537D01*
X126257Y-14241D01*
X126917Y-13836D01*
X127506Y-13333D01*
X128009Y-12744D01*
X128414Y-12084D01*
X128711Y-11368D01*
X128891Y-10615D01*
X128952Y-9843D01*
X128891Y-9070D01*
X128711Y-8317D01*
X128414Y-7601D01*
X128009Y-6941D01*
X127506Y-6352D01*
X126917Y-5849D01*
X126257Y-5444D01*
X125541Y-5148D01*
X124788Y-4967D01*
X124016Y-4906D01*
D02*
G37*
G36*
X238996Y-5557D02*
X234075D01*
X233380Y-5612D01*
X232702Y-5775D01*
X232058Y-6041D01*
X231463Y-6406D01*
X230933Y-6858D01*
X230481Y-7389D01*
X230116Y-7983D01*
X229849Y-8627D01*
X229687Y-9305D01*
X229632Y-10000D01*
X229687Y-10695D01*
X229849Y-11373D01*
X230116Y-12017D01*
X230481Y-12611D01*
X230933Y-13142D01*
X231463Y-13594D01*
X232058Y-13959D01*
X232702Y-14225D01*
X233380Y-14388D01*
X234075Y-14443D01*
X238996D01*
X239691Y-14388D01*
X240369Y-14225D01*
X241013Y-13959D01*
X241607Y-13594D01*
X242138Y-13142D01*
X242590Y-12611D01*
X242955Y-12017D01*
X243221Y-11373D01*
X243384Y-10695D01*
X243439Y-10000D01*
X243384Y-9305D01*
X243221Y-8627D01*
X242955Y-7983D01*
X242590Y-7389D01*
X242138Y-6858D01*
X241607Y-6406D01*
X241013Y-6041D01*
X240369Y-5775D01*
X239691Y-5612D01*
X238996Y-5557D01*
D02*
G37*
G36*
X163878Y-11319D02*
X159720D01*
X159731Y-11356D01*
X160097Y-12040D01*
X160589Y-12640D01*
X161188Y-13132D01*
X161872Y-13497D01*
X162614Y-13723D01*
X163386Y-13799D01*
X163878D01*
Y-11319D01*
D02*
G37*
G36*
X290846Y-25000D02*
Y-26083D01*
X291929D01*
X291837Y-25911D01*
X291468Y-25461D01*
X291019Y-25092D01*
X290846Y-25000D01*
D02*
G37*
G36*
X203179Y-11476D02*
X189892D01*
X190116Y-12017D01*
X190480Y-12611D01*
X190933Y-13142D01*
X191463Y-13594D01*
X192058Y-13959D01*
X192702Y-14225D01*
X192977Y-14291D01*
Y-14696D01*
X192397Y-14836D01*
X191610Y-15162D01*
X190883Y-15607D01*
X190235Y-16160D01*
X189682Y-16808D01*
X189236Y-17535D01*
X188910Y-18322D01*
X188712Y-19150D01*
X188645Y-20000D01*
X188712Y-20850D01*
X188910Y-21678D01*
X189236Y-22465D01*
X189682Y-23192D01*
X190235Y-23840D01*
X190883Y-24393D01*
X191610Y-24838D01*
X192397Y-25164D01*
X193225Y-25363D01*
X194075Y-25430D01*
X198996D01*
X199846Y-25363D01*
X200674Y-25164D01*
X201461Y-24838D01*
X202188Y-24393D01*
X202836Y-23840D01*
X203389Y-23192D01*
X203834Y-22465D01*
X204160Y-21678D01*
X204359Y-20850D01*
X204426Y-20000D01*
X204359Y-19150D01*
X204160Y-18322D01*
X203834Y-17535D01*
X203389Y-16808D01*
X202836Y-16160D01*
X202188Y-15607D01*
X201461Y-15162D01*
X200674Y-14836D01*
X200094Y-14696D01*
Y-14291D01*
X200369Y-14225D01*
X201013Y-13959D01*
X201607Y-13594D01*
X202138Y-13142D01*
X202590Y-12611D01*
X202955Y-12017D01*
X203179Y-11476D01*
D02*
G37*
G36*
X238996Y-15557D02*
X234075D01*
X233380Y-15612D01*
X232702Y-15775D01*
X232058Y-16041D01*
X231463Y-16406D01*
X230933Y-16858D01*
X230481Y-17389D01*
X230116Y-17983D01*
X229849Y-18627D01*
X229687Y-19305D01*
X229632Y-20000D01*
X229687Y-20695D01*
X229849Y-21373D01*
X230116Y-22017D01*
X230481Y-22611D01*
X230933Y-23142D01*
X231463Y-23594D01*
X232058Y-23959D01*
X232702Y-24225D01*
X233380Y-24388D01*
X234075Y-24443D01*
X238996D01*
X239691Y-24388D01*
X240369Y-24225D01*
X241013Y-23959D01*
X241607Y-23594D01*
X242138Y-23142D01*
X242590Y-22611D01*
X242955Y-22017D01*
X243221Y-21373D01*
X243384Y-20695D01*
X243439Y-20000D01*
X243384Y-19305D01*
X243221Y-18627D01*
X242955Y-17983D01*
X242590Y-17389D01*
X242138Y-16858D01*
X241607Y-16406D01*
X241013Y-16041D01*
X240369Y-15775D01*
X239691Y-15612D01*
X238996Y-15557D01*
D02*
G37*
G36*
X170989Y-11319D02*
X166831D01*
Y-13799D01*
X167323D01*
X168095Y-13723D01*
X168837Y-13497D01*
X169521Y-13132D01*
X170120Y-12640D01*
X170612Y-12040D01*
X170978Y-11356D01*
X170989Y-11319D01*
D02*
G37*
G36*
X287894Y-3445D02*
X286811D01*
X286903Y-3617D01*
X287272Y-4067D01*
X287722Y-4436D01*
X287894Y-4527D01*
Y-3445D01*
D02*
G37*
G36*
X291929D02*
X290846D01*
Y-4527D01*
X291019Y-4436D01*
X291468Y-4067D01*
X291837Y-3617D01*
X291929Y-3445D01*
D02*
G37*
G36*
X238996Y4443D02*
X234075D01*
X233380Y4388D01*
X232702Y4225D01*
X232058Y3959D01*
X231463Y3594D01*
X230933Y3142D01*
X230481Y2611D01*
X230116Y2017D01*
X229849Y1373D01*
X229687Y695D01*
X229632Y0D01*
X229687Y-695D01*
X229849Y-1373D01*
X230116Y-2017D01*
X230481Y-2611D01*
X230933Y-3142D01*
X231463Y-3594D01*
X232058Y-3959D01*
X232702Y-4225D01*
X233380Y-4388D01*
X234075Y-4443D01*
X238996D01*
X239691Y-4388D01*
X240369Y-4225D01*
X241013Y-3959D01*
X241607Y-3594D01*
X242138Y-3142D01*
X242590Y-2611D01*
X242955Y-2017D01*
X243221Y-1373D01*
X243384Y-695D01*
X243439Y0D01*
X243384Y695D01*
X243221Y1373D01*
X242955Y2017D01*
X242590Y2611D01*
X242138Y3142D01*
X241607Y3594D01*
X241013Y3959D01*
X240369Y4225D01*
X239691Y4388D01*
X238996Y4443D01*
D02*
G37*
G36*
X181102Y45295D02*
X180331Y45219D01*
X179588Y44993D01*
X178904Y44628D01*
X178305Y44136D01*
X177813Y43536D01*
X177447Y42853D01*
X177222Y42110D01*
X177146Y41339D01*
X177222Y40567D01*
X177447Y39825D01*
X177641Y39463D01*
Y3937D01*
X177641Y3937D01*
X177707Y3262D01*
X177904Y2612D01*
X178224Y2014D01*
X178655Y1489D01*
X182592Y-2448D01*
X182592Y-2448D01*
X183116Y-2878D01*
X183715Y-3198D01*
X184364Y-3395D01*
X185039Y-3461D01*
X189912D01*
X190235Y-3840D01*
X190883Y-4393D01*
X191610Y-4838D01*
X192397Y-5164D01*
X192977Y-5304D01*
Y-5709D01*
X192702Y-5775D01*
X192058Y-6041D01*
X191463Y-6406D01*
X190933Y-6858D01*
X190480Y-7389D01*
X190116Y-7983D01*
X189892Y-8524D01*
X203179D01*
X202955Y-7983D01*
X202590Y-7389D01*
X202138Y-6858D01*
X201607Y-6406D01*
X201013Y-6041D01*
X200369Y-5775D01*
X200094Y-5709D01*
Y-5304D01*
X200674Y-5164D01*
X201461Y-4838D01*
X202188Y-4393D01*
X202836Y-3840D01*
X203389Y-3192D01*
X203834Y-2465D01*
X204160Y-1678D01*
X204359Y-850D01*
X204426Y0D01*
X204359Y850D01*
X204160Y1678D01*
X203834Y2465D01*
X203389Y3192D01*
X202836Y3840D01*
X202188Y4393D01*
X201461Y4838D01*
X200674Y5164D01*
X200094Y5304D01*
Y5709D01*
X200369Y5775D01*
X201013Y6041D01*
X201607Y6406D01*
X202138Y6858D01*
X202590Y7389D01*
X202955Y7983D01*
X203221Y8627D01*
X203384Y9305D01*
X203439Y10000D01*
X203384Y10695D01*
X203221Y11373D01*
X202955Y12017D01*
X202590Y12611D01*
X202138Y13142D01*
X201607Y13594D01*
X201013Y13959D01*
X200369Y14225D01*
X200094Y14291D01*
Y14696D01*
X200674Y14836D01*
X201461Y15162D01*
X202188Y15607D01*
X202836Y16160D01*
X203389Y16808D01*
X203834Y17535D01*
X204160Y18322D01*
X204359Y19150D01*
X204426Y20000D01*
X204359Y20850D01*
X204160Y21678D01*
X203834Y22465D01*
X203389Y23192D01*
X202836Y23840D01*
X202188Y24393D01*
X201461Y24838D01*
X200674Y25164D01*
X199846Y25363D01*
X198996Y25430D01*
X194075D01*
X193225Y25363D01*
X192397Y25164D01*
X191610Y24838D01*
X190883Y24393D01*
X190235Y23840D01*
X189682Y23192D01*
X189236Y22465D01*
X188910Y21678D01*
X188712Y20850D01*
X188645Y20000D01*
X188712Y19150D01*
X188910Y18322D01*
X189236Y17535D01*
X189682Y16808D01*
X190235Y16160D01*
X190883Y15607D01*
X191610Y15162D01*
X192397Y14836D01*
X192977Y14696D01*
Y14291D01*
X192702Y14225D01*
X192058Y13959D01*
X191463Y13594D01*
X190933Y13142D01*
X190480Y12611D01*
X190116Y12017D01*
X189849Y11373D01*
X189687Y10695D01*
X189632Y10000D01*
X189687Y9305D01*
X189849Y8627D01*
X190116Y7983D01*
X190480Y7389D01*
X190933Y6858D01*
X191463Y6406D01*
X192058Y6041D01*
X192702Y5775D01*
X192977Y5709D01*
Y5304D01*
X192397Y5164D01*
X191610Y4838D01*
X190883Y4393D01*
X190235Y3840D01*
X189912Y3461D01*
X186473D01*
X184564Y5371D01*
Y39463D01*
X184757Y39825D01*
X184982Y40567D01*
X185058Y41339D01*
X184982Y42110D01*
X184757Y42853D01*
X184392Y43536D01*
X183900Y44136D01*
X183300Y44628D01*
X182616Y44993D01*
X181874Y45219D01*
X181102Y45295D01*
D02*
G37*
G36*
X163878Y-5886D02*
X163386D01*
X162614Y-5962D01*
X161872Y-6188D01*
X161188Y-6553D01*
X160589Y-7045D01*
X160097Y-7645D01*
X159731Y-8329D01*
X159720Y-8366D01*
X163878D01*
Y-5886D01*
D02*
G37*
G36*
X167323D02*
X166831D01*
Y-8366D01*
X170989D01*
X170978Y-8329D01*
X170612Y-7645D01*
X170120Y-7045D01*
X169521Y-6553D01*
X168837Y-6188D01*
X168095Y-5962D01*
X167323Y-5886D01*
D02*
G37*
%LPD*%
D19*
X185039Y0D02*
X196535D01*
X181102Y3937D02*
X185039Y0D01*
X181102Y3937D02*
Y41339D01*
D21*
X78740Y-19685D02*
D03*
Y19685D02*
D03*
D22*
X196535Y20000D02*
D03*
Y10000D02*
D03*
Y0D02*
D03*
Y-10000D02*
D03*
Y-20000D02*
D03*
X236535Y20000D02*
D03*
Y10000D02*
D03*
Y0D02*
D03*
Y-10000D02*
D03*
Y-20000D02*
D03*
D23*
X284449Y-39370D02*
D03*
Y-47244D02*
D03*
X78740Y-45276D02*
D03*
Y-64961D02*
D03*
Y45276D02*
D03*
Y64961D02*
D03*
D24*
X285039Y-68504D02*
D03*
X10236Y-68504D02*
D03*
Y68504D02*
D03*
X285039D02*
D03*
D25*
X257874Y19685D02*
D03*
X277559D02*
D03*
D26*
X122047Y9843D02*
D03*
Y-9843D02*
D03*
X165354Y9843D02*
D03*
Y-9843D02*
D03*
D27*
X49213Y-21654D02*
D03*
Y21654D02*
D03*
D28*
X185039Y-37402D02*
D03*
Y-68898D02*
D03*
X122047D02*
D03*
X251969Y-57087D02*
D03*
X289370Y-27559D02*
D03*
Y-1969D02*
D03*
X181102Y41339D02*
D03*
M02*
