G04 Layer_Physical_Order=1*
G04 Layer_Color=255*
%FSLAX25Y25*%
%MOIN*%
G70*
G01*
G75*
%ADD10R,0.07874X0.07874*%
%ADD11R,0.04921X0.07087*%
%ADD12O,0.05709X0.02362*%
%ADD13O,0.06890X0.03347*%
%ADD14R,0.02756X0.03150*%
%ADD15R,0.06299X0.09252*%
%ADD16R,0.07087X0.04921*%
%ADD17R,0.06378X0.08583*%
%ADD18C,0.01969*%
%ADD19C,0.02953*%
%ADD20C,0.05906*%
%ADD21C,0.06299*%
%ADD22O,0.11811X0.06890*%
%ADD23O,0.09843X0.05906*%
%ADD24C,0.17716*%
%ADD25O,0.05906X0.09843*%
%ADD26O,0.09843X0.05906*%
%ADD27O,0.29528X0.17716*%
%ADD28C,0.03937*%
G36*
X120079Y69800D02*
X119882Y69488D01*
X119685Y69488D01*
X117913D01*
Y64961D01*
Y60433D01*
X119685D01*
X119882Y60433D01*
X120079Y60121D01*
Y56021D01*
X119882Y55709D01*
X119685Y55709D01*
X117913D01*
Y51181D01*
Y46654D01*
X119685D01*
X119882Y46654D01*
X120079Y46341D01*
Y45276D01*
X124016Y41339D01*
X137795Y41339D01*
X141732Y37402D01*
Y27559D01*
X145669Y23622D01*
X190890D01*
X191035Y23228D01*
X190933Y23142D01*
X190480Y22611D01*
X190116Y22017D01*
X189892Y21476D01*
X196535D01*
Y18524D01*
X189892D01*
X190116Y17983D01*
X190480Y17389D01*
X190933Y16858D01*
X191463Y16406D01*
X191894Y16142D01*
X191783Y15748D01*
X181102D01*
X177165Y11811D01*
X177165Y1969D01*
X139764Y1969D01*
Y9843D01*
X137795Y11811D01*
X116142Y33465D01*
X111139D01*
X110827Y33661D01*
X110827Y33858D01*
Y35630D01*
X101772D01*
Y33858D01*
X101460Y33465D01*
X96457D01*
X92520Y37402D01*
Y51181D01*
X86614Y57087D01*
X68898D01*
X64961Y61024D01*
X64961Y78740D01*
X120079D01*
Y69800D01*
D02*
G37*
G36*
X284764Y78347D02*
X283936Y78300D01*
X282846Y78115D01*
X281784Y77809D01*
X280762Y77386D01*
X279795Y76851D01*
X278893Y76211D01*
X278069Y75475D01*
X277332Y74650D01*
X276692Y73749D01*
X276158Y72781D01*
X275734Y71760D01*
X275429Y70698D01*
X275243Y69608D01*
X275181Y68504D01*
X275243Y67400D01*
X275429Y66310D01*
X275734Y65248D01*
X276158Y64227D01*
X276692Y63259D01*
X277332Y62358D01*
X278069Y61533D01*
X278893Y60797D01*
X279795Y60157D01*
X280762Y59622D01*
X281784Y59199D01*
X282846Y58893D01*
X283936Y58708D01*
X285039Y58646D01*
X286143Y58708D01*
X287233Y58893D01*
X288295Y59199D01*
X289317Y59622D01*
X290284Y60157D01*
X291186Y60797D01*
X292010Y61533D01*
X292747Y62358D01*
X293386Y63259D01*
X293921Y64227D01*
X294344Y65248D01*
X294650Y66310D01*
X294835Y67400D01*
X294882Y68228D01*
X295276Y68217D01*
Y-68218D01*
X294882Y-68229D01*
X294835Y-67400D01*
X294650Y-66310D01*
X294344Y-65248D01*
X293921Y-64227D01*
X293386Y-63259D01*
X292747Y-62357D01*
X292010Y-61533D01*
X291186Y-60797D01*
X290284Y-60157D01*
X289317Y-59622D01*
X288295Y-59199D01*
X287233Y-58893D01*
X286143Y-58708D01*
X285039Y-58646D01*
X283936Y-58708D01*
X282846Y-58893D01*
X281783Y-59199D01*
X280762Y-59622D01*
X279795Y-60157D01*
X278893Y-60797D01*
X278069Y-61533D01*
X277332Y-62357D01*
X276692Y-63259D01*
X276157Y-64227D01*
X275734Y-65248D01*
X275429Y-66310D01*
X275243Y-67400D01*
X275181Y-68504D01*
X275243Y-69608D01*
X275429Y-70697D01*
X275734Y-71760D01*
X276157Y-72781D01*
X276692Y-73749D01*
X277332Y-74650D01*
X278069Y-75475D01*
X278893Y-76211D01*
X279795Y-76851D01*
X280762Y-77386D01*
X281783Y-77809D01*
X282846Y-78115D01*
X283936Y-78300D01*
X284764Y-78347D01*
X284753Y-78740D01*
X252953Y-78740D01*
X225442Y-51229D01*
X225451Y-51181D01*
X225422Y-51037D01*
X225413Y-50943D01*
X225432Y0D01*
X229632D01*
X229687Y-695D01*
X229849Y-1373D01*
X230116Y-2017D01*
X230481Y-2611D01*
X230933Y-3142D01*
X231463Y-3594D01*
X232058Y-3959D01*
X232702Y-4225D01*
X233380Y-4388D01*
X234075Y-4443D01*
X238996D01*
X239691Y-4388D01*
X240369Y-4225D01*
X241013Y-3959D01*
X241607Y-3594D01*
X242138Y-3142D01*
X242590Y-2611D01*
X242955Y-2017D01*
X243221Y-1373D01*
X243384Y-695D01*
X243439Y0D01*
X268701D01*
Y39370D01*
X225725D01*
X225447Y39649D01*
X225451Y51181D01*
X225442Y51229D01*
X252953Y78740D01*
X284753Y78740D01*
X284764Y78347D01*
D02*
G37*
G36*
X191404Y3543D02*
X190933Y3142D01*
X190480Y2611D01*
X190116Y2017D01*
X189892Y1476D01*
X196535D01*
Y-1476D01*
X189892D01*
X190116Y-2017D01*
X190480Y-2611D01*
X190933Y-3142D01*
X191404Y-3543D01*
X191341Y-3937D01*
X188976D01*
X185039Y-7874D01*
Y-19685D01*
X177165Y-27559D01*
X151575D01*
X149606Y-25591D01*
Y-21654D01*
X151575Y-19685D01*
X175197Y-19685D01*
X181102Y-13780D01*
X181102Y-1969D01*
X187008Y3937D01*
X191341Y3937D01*
X191404Y3543D01*
D02*
G37*
G36*
X177165Y-2247D02*
Y-11811D01*
X173228Y-15748D01*
X149606Y-15748D01*
X143701Y-21654D01*
X143701Y-31496D01*
X139764Y-35433D01*
X136707D01*
X136704Y-35427D01*
X136557Y-35039D01*
X136755Y-34561D01*
X136765Y-34488D01*
X129180D01*
X129190Y-34561D01*
X129408Y-35088D01*
X129755Y-35540D01*
X129759Y-35596D01*
X124016Y-41339D01*
X116142D01*
Y-55118D01*
X117208Y-55118D01*
X117520Y-55315D01*
X117520Y-55512D01*
Y-57284D01*
X126575D01*
Y-55512D01*
X126887Y-55118D01*
X127953Y-55118D01*
X131890Y-59055D01*
X149606Y-59055D01*
X153543Y-62992D01*
X153543Y-78462D01*
X153265Y-78740D01*
X64961Y-78740D01*
Y-59055D01*
X68898Y-55118D01*
X86614D01*
X92520Y-49213D01*
Y-37402D01*
X96457Y-33465D01*
X101460D01*
X101772Y-33661D01*
X101772Y-33858D01*
Y-35630D01*
X110827D01*
Y-33858D01*
X111139Y-33465D01*
X116142D01*
X129921Y-19685D01*
X137795Y-11811D01*
X139764Y-9842D01*
X139764Y-1969D01*
X176887Y-1969D01*
X177165Y-2247D01*
D02*
G37*
G36*
X88583Y49213D02*
Y35433D01*
X94488Y29528D01*
X100394Y29528D01*
X101460D01*
X101772Y29331D01*
X101772Y29134D01*
Y27362D01*
X110827D01*
Y29134D01*
X111139Y29528D01*
X114173D01*
X127953Y15748D01*
X135827Y7874D01*
Y2247D01*
X135548Y1969D01*
X116142Y1969D01*
X106299Y11811D01*
X90551Y11811D01*
X88583Y9843D01*
X88583Y0D01*
X90551Y-1969D01*
X93613D01*
X93671Y-2362D01*
X93368Y-2454D01*
X92906Y-2701D01*
X92501Y-3033D01*
X92169Y-3438D01*
X92166Y-3445D01*
X96161D01*
Y-6398D01*
X92166D01*
X92169Y-6405D01*
X92501Y-6809D01*
X92906Y-7142D01*
X93368Y-7388D01*
X93671Y-7480D01*
X93613Y-7874D01*
X88583D01*
X84646Y-3937D01*
Y11811D01*
X88583Y15748D01*
X88583Y25591D01*
X82677Y31496D01*
X74803Y31496D01*
X68898Y37402D01*
Y53150D01*
X84646D01*
X88583Y49213D01*
D02*
G37*
G36*
X266732Y4921D02*
X266732Y1969D01*
X242975D01*
X242955Y2017D01*
X242590Y2611D01*
X242138Y3142D01*
X241607Y3594D01*
X241013Y3959D01*
X240369Y4225D01*
X239691Y4388D01*
X238996Y4443D01*
X234075D01*
X233380Y4388D01*
X232702Y4225D01*
X232058Y3959D01*
X231463Y3594D01*
X230933Y3142D01*
X230481Y2611D01*
X230116Y2017D01*
X230096Y1969D01*
X225711D01*
X225433Y2247D01*
X225446Y37402D01*
X266732D01*
X266732Y4921D01*
D02*
G37*
G36*
X295276Y-68790D02*
Y-78740D01*
X285325D01*
X285314Y-78347D01*
X286143Y-78300D01*
X287233Y-78115D01*
X288295Y-77809D01*
X289317Y-77386D01*
X290284Y-76851D01*
X291186Y-76211D01*
X292010Y-75475D01*
X292747Y-74650D01*
X293386Y-73749D01*
X293921Y-72781D01*
X294344Y-71760D01*
X294650Y-70697D01*
X294835Y-69608D01*
X294882Y-68779D01*
X295276Y-68790D01*
D02*
G37*
G36*
Y78462D02*
Y68791D01*
X294882Y68780D01*
X294835Y69608D01*
X294650Y70698D01*
X294344Y71760D01*
X293921Y72781D01*
X293386Y73749D01*
X292747Y74650D01*
X292010Y75475D01*
X291186Y76211D01*
X290284Y76851D01*
X289317Y77386D01*
X288295Y77809D01*
X287233Y78115D01*
X286143Y78300D01*
X285315Y78347D01*
X285326Y78740D01*
X294997D01*
X295276Y78462D01*
D02*
G37*
G36*
X108268Y3937D02*
X114173Y-1969D01*
X135827D01*
Y-7874D01*
X114173Y-29528D01*
X111139Y-29528D01*
X110827Y-29331D01*
X110827Y-29134D01*
Y-27362D01*
X101772D01*
Y-29134D01*
X101460Y-29528D01*
X100394D01*
X94488Y-29528D01*
X88583Y-35433D01*
X88583Y-47244D01*
X84646Y-51181D01*
X68898D01*
X68898Y-37402D01*
X74803Y-31496D01*
X82677Y-31496D01*
X88583Y-25591D01*
X88583Y-19685D01*
X92520Y-15748D01*
X98425Y-15748D01*
X104331Y-9843D01*
Y-7874D01*
Y-1969D01*
X100394Y1969D01*
X98710D01*
X98652Y2362D01*
X98955Y2454D01*
X99417Y2701D01*
X99821Y3033D01*
X100153Y3438D01*
X100157Y3445D01*
X96161D01*
Y6398D01*
X100157D01*
X100153Y6405D01*
X99821Y6809D01*
X99417Y7142D01*
X98955Y7388D01*
X98652Y7480D01*
X98710Y7874D01*
X104331D01*
X108268Y3937D01*
D02*
G37*
%LPC*%
G36*
X153937Y-24488D02*
X150637D01*
X150646Y-24561D01*
X150865Y-25088D01*
X151212Y-25540D01*
X151664Y-25888D01*
X152191Y-26106D01*
X152756Y-26180D01*
X153937D01*
Y-24488D01*
D02*
G37*
G36*
X136765D02*
X133465D01*
Y-26180D01*
X134646D01*
X135211Y-26106D01*
X135738Y-25888D01*
X136190Y-25540D01*
X136537Y-25088D01*
X136755Y-24561D01*
X136765Y-24488D01*
D02*
G37*
G36*
X238996Y-15557D02*
X234075D01*
X233380Y-15612D01*
X232702Y-15775D01*
X232058Y-16041D01*
X231463Y-16406D01*
X230933Y-16858D01*
X230481Y-17389D01*
X230116Y-17983D01*
X229849Y-18627D01*
X229687Y-19305D01*
X229632Y-20000D01*
X229687Y-20695D01*
X229849Y-21373D01*
X230116Y-22017D01*
X230481Y-22611D01*
X230933Y-23142D01*
X231463Y-23594D01*
X232058Y-23959D01*
X232702Y-24225D01*
X233380Y-24388D01*
X234075Y-24443D01*
X238996D01*
X239691Y-24388D01*
X240369Y-24225D01*
X241013Y-23959D01*
X241607Y-23594D01*
X242138Y-23142D01*
X242590Y-22611D01*
X242955Y-22017D01*
X243221Y-21373D01*
X243384Y-20695D01*
X243439Y-20000D01*
X243384Y-19305D01*
X243221Y-18627D01*
X242955Y-17983D01*
X242590Y-17389D01*
X242138Y-16858D01*
X241607Y-16406D01*
X241013Y-16041D01*
X240369Y-15775D01*
X239691Y-15612D01*
X238996Y-15557D01*
D02*
G37*
G36*
X158222Y-24488D02*
X154921D01*
Y-26180D01*
X156102D01*
X156668Y-26106D01*
X157194Y-25888D01*
X157647Y-25540D01*
X157994Y-25088D01*
X158212Y-24561D01*
X158222Y-24488D01*
D02*
G37*
G36*
X132480D02*
X129180D01*
X129190Y-24561D01*
X129408Y-25088D01*
X129755Y-25540D01*
X130207Y-25888D01*
X130734Y-26106D01*
X131299Y-26180D01*
X132480D01*
Y-24488D01*
D02*
G37*
G36*
X136765Y-29488D02*
X133465D01*
Y-31180D01*
X134646D01*
X135211Y-31106D01*
X135738Y-30887D01*
X136190Y-30540D01*
X136537Y-30088D01*
X136755Y-29561D01*
X136765Y-29488D01*
D02*
G37*
G36*
X281299Y-15157D02*
X274410D01*
Y-18209D01*
X281299D01*
Y-15157D01*
D02*
G37*
G36*
X289370Y998D02*
X288791Y941D01*
X288235Y773D01*
X287722Y499D01*
X287272Y129D01*
X286903Y-320D01*
X286629Y-833D01*
X286460Y-1390D01*
X286403Y-1969D01*
X286460Y-2547D01*
X286629Y-3104D01*
X286903Y-3617D01*
X287272Y-4067D01*
X287385Y-4159D01*
Y-5315D01*
X285630D01*
Y-14370D01*
X286602D01*
Y-15157D01*
X285630D01*
Y-24213D01*
X287385D01*
Y-25369D01*
X287272Y-25461D01*
X286903Y-25911D01*
X286629Y-26424D01*
X286460Y-26980D01*
X286403Y-27559D01*
X286460Y-28138D01*
X286629Y-28694D01*
X286903Y-29208D01*
X287272Y-29657D01*
X287722Y-30026D01*
X288235Y-30300D01*
X288791Y-30469D01*
X289370Y-30526D01*
X289949Y-30469D01*
X290506Y-30300D01*
X291019Y-30026D01*
X291468Y-29657D01*
X291837Y-29208D01*
X292111Y-28694D01*
X292280Y-28138D01*
X292337Y-27559D01*
X292280Y-26980D01*
X292111Y-26424D01*
X291837Y-25911D01*
X291468Y-25461D01*
X291356Y-25369D01*
Y-24213D01*
X292520D01*
Y-15157D01*
X291547D01*
Y-14370D01*
X292520D01*
Y-5315D01*
X291356D01*
Y-4159D01*
X291468Y-4067D01*
X291837Y-3617D01*
X292111Y-3104D01*
X292280Y-2547D01*
X292337Y-1969D01*
X292280Y-1390D01*
X292111Y-833D01*
X291837Y-320D01*
X291468Y129D01*
X291019Y499D01*
X290506Y773D01*
X289949Y941D01*
X289370Y998D01*
D02*
G37*
G36*
X134646Y-26812D02*
X133465D01*
Y-28504D01*
X136765D01*
X136755Y-28431D01*
X136537Y-27904D01*
X136190Y-27452D01*
X135738Y-27105D01*
X135211Y-26886D01*
X134646Y-26812D01*
D02*
G37*
G36*
X132480D02*
X131299D01*
X130734Y-26886D01*
X130207Y-27105D01*
X129755Y-27452D01*
X129408Y-27904D01*
X129190Y-28431D01*
X129180Y-28504D01*
X132480D01*
Y-26812D01*
D02*
G37*
G36*
X104823Y-22441D02*
X101772D01*
Y-24409D01*
X104823D01*
Y-22441D01*
D02*
G37*
G36*
X132480Y-21812D02*
X131299D01*
X130734Y-21887D01*
X130207Y-22105D01*
X129755Y-22452D01*
X129408Y-22904D01*
X129190Y-23431D01*
X129180Y-23504D01*
X132480D01*
Y-21812D01*
D02*
G37*
G36*
X281299Y-21161D02*
X279331D01*
Y-24213D01*
X281299D01*
Y-21161D01*
D02*
G37*
G36*
X134646Y-21812D02*
X133465D01*
Y-23504D01*
X136765D01*
X136755Y-23431D01*
X136537Y-22904D01*
X136190Y-22452D01*
X135738Y-22105D01*
X135211Y-21887D01*
X134646Y-21812D01*
D02*
G37*
G36*
X156102D02*
X154921D01*
Y-23504D01*
X158222D01*
X158212Y-23431D01*
X157994Y-22904D01*
X157647Y-22452D01*
X157194Y-22105D01*
X156668Y-21887D01*
X156102Y-21812D01*
D02*
G37*
G36*
X153937D02*
X152756D01*
X152191Y-21887D01*
X151664Y-22105D01*
X151212Y-22452D01*
X150865Y-22904D01*
X150646Y-23431D01*
X150637Y-23504D01*
X153937D01*
Y-21812D01*
D02*
G37*
G36*
X281299Y-11319D02*
X274410D01*
Y-14370D01*
X281299D01*
Y-11319D01*
D02*
G37*
G36*
X110827Y-22441D02*
X107776D01*
Y-24409D01*
X110827D01*
Y-22441D01*
D02*
G37*
G36*
X272638Y-11319D02*
X269193D01*
Y-14764D01*
X272638D01*
Y-11319D01*
D02*
G37*
G36*
X276378Y-21161D02*
X274410D01*
Y-24213D01*
X276378D01*
Y-21161D01*
D02*
G37*
G36*
X266240Y-11319D02*
X262795D01*
Y-14764D01*
X266240D01*
Y-11319D01*
D02*
G37*
G36*
X132480Y-29488D02*
X129180D01*
X129190Y-29561D01*
X129408Y-30088D01*
X129755Y-30540D01*
X130207Y-30887D01*
X130734Y-31106D01*
X131299Y-31180D01*
X132480D01*
Y-29488D01*
D02*
G37*
G36*
X147835Y-61910D02*
X145177D01*
Y-66043D01*
X147835D01*
Y-61910D01*
D02*
G37*
G36*
X142224D02*
X139567D01*
Y-66043D01*
X142224D01*
Y-61910D01*
D02*
G37*
G36*
X123524Y-66339D02*
Y-67421D01*
X124606D01*
X124514Y-67249D01*
X124145Y-66800D01*
X123696Y-66431D01*
X123524Y-66339D01*
D02*
G37*
G36*
X120571Y-60236D02*
X117520D01*
Y-62205D01*
X120571D01*
Y-60236D01*
D02*
G37*
G36*
X80709Y-61005D02*
X80216D01*
Y-63484D01*
X84375D01*
X84364Y-63447D01*
X83998Y-62763D01*
X83506Y-62163D01*
X82907Y-61671D01*
X82223Y-61306D01*
X81480Y-61081D01*
X80709Y-61005D01*
D02*
G37*
G36*
X77264D02*
X76772D01*
X76000Y-61081D01*
X75258Y-61306D01*
X74574Y-61671D01*
X73974Y-62163D01*
X73482Y-62763D01*
X73117Y-63447D01*
X73105Y-63484D01*
X77264D01*
Y-61005D01*
D02*
G37*
G36*
X120571Y-66339D02*
X120399Y-66431D01*
X119949Y-66800D01*
X119580Y-67249D01*
X119488Y-67421D01*
X120571D01*
Y-66339D01*
D02*
G37*
G36*
Y-70374D02*
X119488D01*
X119580Y-70546D01*
X119949Y-70996D01*
X120399Y-71365D01*
X120571Y-71457D01*
Y-70374D01*
D02*
G37*
G36*
X147835Y-68996D02*
X145177D01*
Y-73130D01*
X147835D01*
Y-68996D01*
D02*
G37*
G36*
X142224D02*
X139567D01*
Y-73130D01*
X142224D01*
Y-68996D01*
D02*
G37*
G36*
X84375Y-66437D02*
X80216D01*
Y-68917D01*
X80709D01*
X81480Y-68841D01*
X82223Y-68616D01*
X82907Y-68250D01*
X83506Y-67758D01*
X83998Y-67159D01*
X84364Y-66474D01*
X84375Y-66437D01*
D02*
G37*
G36*
X77264D02*
X73105D01*
X73117Y-66474D01*
X73482Y-67159D01*
X73974Y-67758D01*
X74574Y-68250D01*
X75258Y-68616D01*
X76000Y-68841D01*
X76772Y-68917D01*
X77264D01*
Y-66437D01*
D02*
G37*
G36*
X124606Y-70374D02*
X123524D01*
Y-71457D01*
X123696Y-71365D01*
X124145Y-70996D01*
X124514Y-70546D01*
X124606Y-70374D01*
D02*
G37*
G36*
X126575Y-60236D02*
X123524D01*
Y-62205D01*
X126575D01*
Y-60236D01*
D02*
G37*
G36*
X282972Y-35414D02*
X282480D01*
X281709Y-35490D01*
X280966Y-35715D01*
X280282Y-36081D01*
X279683Y-36573D01*
X279191Y-37172D01*
X278825Y-37856D01*
X278814Y-37894D01*
X282972D01*
Y-35414D01*
D02*
G37*
G36*
X110827Y-38583D02*
X107776D01*
Y-40551D01*
X110827D01*
Y-38583D01*
D02*
G37*
G36*
X104823D02*
X101772D01*
Y-40551D01*
X104823D01*
Y-38583D01*
D02*
G37*
G36*
X134646Y-31812D02*
X133465D01*
Y-33504D01*
X136765D01*
X136755Y-33431D01*
X136537Y-32904D01*
X136190Y-32452D01*
X135738Y-32105D01*
X135211Y-31887D01*
X134646Y-31812D01*
D02*
G37*
G36*
X132480D02*
X131299D01*
X130734Y-31887D01*
X130207Y-32105D01*
X129755Y-32452D01*
X129408Y-32904D01*
X129190Y-33431D01*
X129180Y-33504D01*
X132480D01*
Y-31812D01*
D02*
G37*
G36*
X286417Y-35414D02*
X285925D01*
Y-37894D01*
X290084D01*
X290072Y-37856D01*
X289707Y-37172D01*
X289215Y-36573D01*
X288615Y-36081D01*
X287931Y-35715D01*
X287189Y-35490D01*
X286417Y-35414D01*
D02*
G37*
G36*
X80709Y-41320D02*
X80216D01*
Y-43799D01*
X84375D01*
X84364Y-43762D01*
X83998Y-43078D01*
X83506Y-42478D01*
X82907Y-41986D01*
X82223Y-41621D01*
X81480Y-41396D01*
X80709Y-41320D01*
D02*
G37*
G36*
X290084Y-40846D02*
X278814D01*
X278825Y-40884D01*
X279191Y-41568D01*
X279683Y-42167D01*
X280282Y-42659D01*
X280966Y-43025D01*
X281218Y-43101D01*
Y-43513D01*
X280966Y-43589D01*
X280282Y-43955D01*
X279683Y-44447D01*
X279191Y-45046D01*
X278825Y-45730D01*
X278600Y-46472D01*
X278524Y-47244D01*
X278600Y-48016D01*
X278825Y-48758D01*
X279191Y-49442D01*
X279683Y-50041D01*
X280282Y-50533D01*
X280966Y-50899D01*
X281709Y-51124D01*
X282480Y-51200D01*
X286417D01*
X287189Y-51124D01*
X287931Y-50899D01*
X288615Y-50533D01*
X289215Y-50041D01*
X289707Y-49442D01*
X290072Y-48758D01*
X290297Y-48016D01*
X290373Y-47244D01*
X290297Y-46472D01*
X290072Y-45730D01*
X289707Y-45046D01*
X289215Y-44447D01*
X288615Y-43955D01*
X287931Y-43589D01*
X287679Y-43513D01*
Y-43101D01*
X287931Y-43025D01*
X288615Y-42659D01*
X289215Y-42167D01*
X289707Y-41568D01*
X290072Y-40884D01*
X290084Y-40846D01*
D02*
G37*
G36*
X243898Y-34843D02*
X237008D01*
Y-43898D01*
X237980D01*
Y-44685D01*
X237008D01*
Y-53740D01*
X243898D01*
Y-44685D01*
X242925D01*
Y-43898D01*
X243898D01*
Y-34843D01*
D02*
G37*
G36*
X255118Y-44685D02*
X248228D01*
Y-53740D01*
X249983D01*
Y-54896D01*
X249870Y-54989D01*
X249501Y-55438D01*
X249227Y-55951D01*
X249059Y-56508D01*
X249002Y-57087D01*
X249059Y-57665D01*
X249227Y-58222D01*
X249501Y-58735D01*
X249870Y-59185D01*
X250320Y-59554D01*
X250833Y-59828D01*
X251390Y-59997D01*
X251969Y-60054D01*
X252547Y-59997D01*
X253104Y-59828D01*
X253617Y-59554D01*
X254066Y-59185D01*
X254435Y-58735D01*
X254710Y-58222D01*
X254878Y-57665D01*
X254936Y-57087D01*
X254878Y-56508D01*
X254710Y-55951D01*
X254435Y-55438D01*
X254066Y-54989D01*
X253954Y-54896D01*
Y-53740D01*
X255118D01*
Y-44685D01*
D02*
G37*
G36*
X77264Y-41320D02*
X76772D01*
X76000Y-41396D01*
X75258Y-41621D01*
X74574Y-41986D01*
X73974Y-42478D01*
X73482Y-43078D01*
X73117Y-43762D01*
X73105Y-43799D01*
X77264D01*
Y-41320D01*
D02*
G37*
G36*
X84375Y-46752D02*
X80216D01*
Y-49232D01*
X80709D01*
X81480Y-49156D01*
X82223Y-48930D01*
X82907Y-48565D01*
X83506Y-48073D01*
X83998Y-47473D01*
X84364Y-46790D01*
X84375Y-46752D01*
D02*
G37*
G36*
X77264D02*
X73105D01*
X73117Y-46790D01*
X73482Y-47473D01*
X73974Y-48073D01*
X74574Y-48565D01*
X75258Y-48930D01*
X76000Y-49156D01*
X76772Y-49232D01*
X77264D01*
Y-46752D01*
D02*
G37*
G36*
X120571Y-11319D02*
X116412D01*
X116424Y-11356D01*
X116789Y-12040D01*
X117281Y-12640D01*
X117881Y-13132D01*
X118565Y-13497D01*
X119307Y-13723D01*
X120079Y-13799D01*
X120571D01*
Y-11319D01*
D02*
G37*
G36*
X139567Y30020D02*
X136870D01*
Y26221D01*
X139567D01*
Y30020D01*
D02*
G37*
G36*
X133917D02*
X131220D01*
Y26221D01*
X133917D01*
Y30020D01*
D02*
G37*
G36*
X110827Y24409D02*
X107776D01*
Y22441D01*
X110827D01*
Y24409D01*
D02*
G37*
G36*
X104823Y40551D02*
X101772D01*
Y38583D01*
X104823D01*
Y40551D01*
D02*
G37*
G36*
X139567Y36772D02*
X136870D01*
Y32972D01*
X139567D01*
Y36772D01*
D02*
G37*
G36*
X133917D02*
X131220D01*
Y32972D01*
X133917D01*
Y36772D01*
D02*
G37*
G36*
X104823Y24409D02*
X101772D01*
Y22441D01*
X104823D01*
Y24409D01*
D02*
G37*
G36*
X256398Y25320D02*
X256360Y25308D01*
X255676Y24943D01*
X255077Y24451D01*
X254585Y23851D01*
X254219Y23167D01*
X253994Y22425D01*
X253918Y21654D01*
Y21161D01*
X256398D01*
Y25320D01*
D02*
G37*
G36*
X238996Y24443D02*
X234075D01*
X233380Y24388D01*
X232702Y24225D01*
X232058Y23959D01*
X231463Y23594D01*
X230933Y23142D01*
X230481Y22611D01*
X230116Y22017D01*
X229849Y21373D01*
X229687Y20695D01*
X229632Y20000D01*
X229687Y19305D01*
X229849Y18627D01*
X230116Y17983D01*
X230481Y17389D01*
X230933Y16858D01*
X231463Y16406D01*
X232058Y16041D01*
X232702Y15775D01*
X233380Y15612D01*
X234075Y15557D01*
X238996D01*
X239691Y15612D01*
X240369Y15775D01*
X241013Y16041D01*
X241607Y16406D01*
X242138Y16858D01*
X242590Y17389D01*
X242955Y17983D01*
X243221Y18627D01*
X243384Y19305D01*
X243439Y20000D01*
X243384Y20695D01*
X243221Y21373D01*
X242955Y22017D01*
X242590Y22611D01*
X242138Y23142D01*
X241607Y23594D01*
X241013Y23959D01*
X240369Y24225D01*
X239691Y24388D01*
X238996Y24443D01*
D02*
G37*
G36*
X281515Y18209D02*
X279035D01*
Y14050D01*
X279073Y14062D01*
X279757Y14427D01*
X280356Y14919D01*
X280848Y15519D01*
X281214Y16203D01*
X281439Y16945D01*
X281515Y17717D01*
Y18209D01*
D02*
G37*
G36*
X279035Y25320D02*
Y21161D01*
X281515D01*
Y21654D01*
X281439Y22425D01*
X281214Y23167D01*
X280848Y23851D01*
X280356Y24451D01*
X279757Y24943D01*
X279073Y25308D01*
X279035Y25320D01*
D02*
G37*
G36*
X276083D02*
X276045Y25308D01*
X275361Y24943D01*
X274762Y24451D01*
X274270Y23851D01*
X273904Y23167D01*
X273679Y22425D01*
X273603Y21654D01*
Y21161D01*
X276083D01*
Y25320D01*
D02*
G37*
G36*
X259350D02*
Y21161D01*
X261830D01*
Y21654D01*
X261754Y22425D01*
X261529Y23167D01*
X261163Y23851D01*
X260671Y24451D01*
X260072Y24943D01*
X259388Y25308D01*
X259350Y25320D01*
D02*
G37*
G36*
X84375Y63484D02*
X80216D01*
Y61005D01*
X80709D01*
X81480Y61081D01*
X82223Y61306D01*
X82907Y61671D01*
X83506Y62163D01*
X83998Y62763D01*
X84364Y63447D01*
X84375Y63484D01*
D02*
G37*
G36*
X77264D02*
X73105D01*
X73117Y63447D01*
X73482Y62763D01*
X73974Y62163D01*
X74574Y61671D01*
X75258Y61306D01*
X76000Y61081D01*
X76772Y61005D01*
X77264D01*
Y63484D01*
D02*
G37*
G36*
X114961D02*
X112992D01*
Y60433D01*
X114961D01*
Y63484D01*
D02*
G37*
G36*
Y69488D02*
X112992D01*
Y66437D01*
X114961D01*
Y69488D01*
D02*
G37*
G36*
X80709Y68917D02*
X80216D01*
Y66437D01*
X84375D01*
X84364Y66474D01*
X83998Y67159D01*
X83506Y67758D01*
X82907Y68250D01*
X82223Y68616D01*
X81480Y68841D01*
X80709Y68917D01*
D02*
G37*
G36*
X77264D02*
X76772D01*
X76000Y68841D01*
X75258Y68616D01*
X74574Y68250D01*
X73974Y67758D01*
X73482Y67159D01*
X73117Y66474D01*
X73105Y66437D01*
X77264D01*
Y68917D01*
D02*
G37*
G36*
X114961Y55709D02*
X112992D01*
Y52658D01*
X114961D01*
Y55709D01*
D02*
G37*
G36*
X84375Y43799D02*
X80216D01*
Y41320D01*
X80709D01*
X81480Y41396D01*
X82223Y41621D01*
X82907Y41986D01*
X83506Y42478D01*
X83998Y43078D01*
X84364Y43762D01*
X84375Y43799D01*
D02*
G37*
G36*
X77264D02*
X73105D01*
X73117Y43762D01*
X73482Y43078D01*
X73974Y42478D01*
X74574Y41986D01*
X75258Y41621D01*
X76000Y41396D01*
X76772Y41320D01*
X77264D01*
Y43799D01*
D02*
G37*
G36*
X110827Y40551D02*
X107776D01*
Y38583D01*
X110827D01*
Y40551D01*
D02*
G37*
G36*
X80709Y49232D02*
X80216D01*
Y46752D01*
X84375D01*
X84364Y46790D01*
X83998Y47473D01*
X83506Y48073D01*
X82907Y48565D01*
X82223Y48930D01*
X81480Y49156D01*
X80709Y49232D01*
D02*
G37*
G36*
X77264D02*
X76772D01*
X76000Y49156D01*
X75258Y48930D01*
X74574Y48565D01*
X73974Y48073D01*
X73482Y47473D01*
X73117Y46790D01*
X73105Y46752D01*
X77264D01*
Y49232D01*
D02*
G37*
G36*
X114961Y49705D02*
X112992D01*
Y46654D01*
X114961D01*
Y49705D01*
D02*
G37*
G36*
X276083Y18209D02*
X273603D01*
Y17717D01*
X273679Y16945D01*
X273904Y16203D01*
X274270Y15519D01*
X274762Y14919D01*
X275361Y14427D01*
X276045Y14062D01*
X276083Y14050D01*
Y18209D01*
D02*
G37*
G36*
X276378Y-5315D02*
X274410D01*
Y-8366D01*
X276378D01*
Y-5315D01*
D02*
G37*
G36*
X272638Y-4921D02*
X269193D01*
Y-8366D01*
X272638D01*
Y-4921D01*
D02*
G37*
G36*
X266240D02*
X262795D01*
Y-8366D01*
X266240D01*
Y-4921D01*
D02*
G37*
G36*
X235059Y8524D02*
X229892D01*
X230116Y7983D01*
X230481Y7389D01*
X230933Y6858D01*
X231463Y6406D01*
X232058Y6041D01*
X232702Y5775D01*
X233380Y5612D01*
X234075Y5557D01*
X235059D01*
Y8524D01*
D02*
G37*
G36*
X256890Y-4921D02*
X247047D01*
Y-5886D01*
X240639D01*
X240369Y-5775D01*
X239691Y-5612D01*
X238996Y-5557D01*
X234075D01*
X233380Y-5612D01*
X232702Y-5775D01*
X232058Y-6041D01*
X231463Y-6406D01*
X230933Y-6858D01*
X230481Y-7389D01*
X230116Y-7983D01*
X229849Y-8627D01*
X229687Y-9305D01*
X229632Y-10000D01*
X229687Y-10695D01*
X229849Y-11373D01*
X230116Y-12017D01*
X230481Y-12611D01*
X230933Y-13142D01*
X231463Y-13594D01*
X232058Y-13959D01*
X232702Y-14225D01*
X233380Y-14388D01*
X234075Y-14443D01*
X238996D01*
X239691Y-14388D01*
X240369Y-14225D01*
X241013Y-13959D01*
X241274Y-13799D01*
X247047D01*
Y-14764D01*
X249201D01*
Y-34843D01*
X248228D01*
Y-43898D01*
X255118D01*
Y-34843D01*
X254146D01*
Y-14764D01*
X256890D01*
Y-4921D01*
D02*
G37*
G36*
X281299Y-5315D02*
X279331D01*
Y-8366D01*
X281299D01*
Y-5315D01*
D02*
G37*
G36*
X167323Y-5886D02*
X166831D01*
Y-8366D01*
X170989D01*
X170978Y-8329D01*
X170612Y-7645D01*
X170120Y-7045D01*
X169521Y-6553D01*
X168837Y-6188D01*
X168095Y-5962D01*
X167323Y-5886D01*
D02*
G37*
G36*
X170989Y-11319D02*
X166831D01*
Y-13799D01*
X167323D01*
X168095Y-13723D01*
X168837Y-13497D01*
X169521Y-13132D01*
X170120Y-12640D01*
X170612Y-12040D01*
X170978Y-11356D01*
X170989Y-11319D01*
D02*
G37*
G36*
X163878D02*
X159720D01*
X159731Y-11356D01*
X160097Y-12040D01*
X160589Y-12640D01*
X161188Y-13132D01*
X161872Y-13497D01*
X162614Y-13723D01*
X163386Y-13799D01*
X163878D01*
Y-11319D01*
D02*
G37*
G36*
X127682D02*
X123524D01*
Y-13799D01*
X124016D01*
X124787Y-13723D01*
X125530Y-13497D01*
X126214Y-13132D01*
X126813Y-12640D01*
X127305Y-12040D01*
X127671Y-11356D01*
X127682Y-11319D01*
D02*
G37*
G36*
X163878Y-5886D02*
X163386D01*
X162614Y-5962D01*
X161872Y-6188D01*
X161188Y-6553D01*
X160589Y-7045D01*
X160097Y-7645D01*
X159731Y-8329D01*
X159720Y-8366D01*
X163878D01*
Y-5886D01*
D02*
G37*
G36*
X124016D02*
X123524D01*
Y-8366D01*
X127682D01*
X127671Y-8329D01*
X127305Y-7645D01*
X126813Y-7045D01*
X126214Y-6553D01*
X125530Y-6188D01*
X124787Y-5962D01*
X124016Y-5886D01*
D02*
G37*
G36*
X120571D02*
X120079D01*
X119307Y-5962D01*
X118565Y-6188D01*
X117881Y-6553D01*
X117281Y-7045D01*
X116789Y-7645D01*
X116424Y-8329D01*
X116412Y-8366D01*
X120571D01*
Y-5886D01*
D02*
G37*
G36*
X235059Y14443D02*
X234075D01*
X233380Y14388D01*
X232702Y14225D01*
X232058Y13959D01*
X231463Y13594D01*
X230933Y13142D01*
X230481Y12611D01*
X230116Y12017D01*
X229892Y11476D01*
X235059D01*
Y14443D01*
D02*
G37*
G36*
X167323Y13799D02*
X166831D01*
Y11319D01*
X170989D01*
X170978Y11356D01*
X170612Y12040D01*
X170120Y12640D01*
X169521Y13132D01*
X168837Y13497D01*
X168095Y13723D01*
X167323Y13799D01*
D02*
G37*
G36*
X163878D02*
X163386D01*
X162614Y13723D01*
X161872Y13497D01*
X161188Y13132D01*
X160589Y12640D01*
X160097Y12040D01*
X159731Y11356D01*
X159720Y11319D01*
X163878D01*
Y13799D01*
D02*
G37*
G36*
X261830Y18209D02*
X259350D01*
Y14050D01*
X259388Y14062D01*
X260072Y14427D01*
X260671Y14919D01*
X261163Y15519D01*
X261529Y16203D01*
X261754Y16945D01*
X261830Y17717D01*
Y18209D01*
D02*
G37*
G36*
X256398D02*
X253918D01*
Y17717D01*
X253994Y16945D01*
X254219Y16203D01*
X254585Y15519D01*
X255077Y14919D01*
X255676Y14427D01*
X256360Y14062D01*
X256398Y14050D01*
Y18209D01*
D02*
G37*
G36*
X238996Y14443D02*
X238012D01*
Y11476D01*
X243179D01*
X242955Y12017D01*
X242590Y12611D01*
X242138Y13142D01*
X241607Y13594D01*
X241013Y13959D01*
X240369Y14225D01*
X239691Y14388D01*
X238996Y14443D01*
D02*
G37*
G36*
X124016Y13799D02*
X123524D01*
Y11319D01*
X127682D01*
X127671Y11356D01*
X127305Y12040D01*
X126813Y12640D01*
X126214Y13132D01*
X125530Y13497D01*
X124787Y13723D01*
X124016Y13799D01*
D02*
G37*
G36*
X127682Y8366D02*
X123524D01*
Y5886D01*
X124016D01*
X124787Y5962D01*
X125530Y6188D01*
X126214Y6553D01*
X126813Y7045D01*
X127305Y7645D01*
X127671Y8329D01*
X127682Y8366D01*
D02*
G37*
G36*
X120571D02*
X116412D01*
X116424Y8329D01*
X116789Y7645D01*
X117281Y7045D01*
X117881Y6553D01*
X118565Y6188D01*
X119307Y5962D01*
X120079Y5886D01*
X120571D01*
Y8366D01*
D02*
G37*
G36*
X243179Y8524D02*
X238012D01*
Y5557D01*
X238996D01*
X239691Y5612D01*
X240369Y5775D01*
X241013Y6041D01*
X241607Y6406D01*
X242138Y6858D01*
X242590Y7389D01*
X242955Y7983D01*
X243179Y8524D01*
D02*
G37*
G36*
X120571Y13799D02*
X120079D01*
X119307Y13723D01*
X118565Y13497D01*
X117881Y13132D01*
X117281Y12640D01*
X116789Y12040D01*
X116424Y11356D01*
X116412Y11319D01*
X120571D01*
Y13799D01*
D02*
G37*
G36*
X170989Y8366D02*
X166831D01*
Y5886D01*
X167323D01*
X168095Y5962D01*
X168837Y6188D01*
X169521Y6553D01*
X170120Y7045D01*
X170612Y7645D01*
X170978Y8329D01*
X170989Y8366D01*
D02*
G37*
G36*
X163878D02*
X159720D01*
X159731Y8329D01*
X160097Y7645D01*
X160589Y7045D01*
X161188Y6553D01*
X161872Y6188D01*
X162614Y5962D01*
X163386Y5886D01*
X163878D01*
Y8366D01*
D02*
G37*
%LPD*%
D10*
X179134Y31496D02*
D03*
X163386D02*
D03*
X251969Y-9843D02*
D03*
X267717D02*
D03*
D11*
X165650Y-59055D02*
D03*
X176870D02*
D03*
X176870Y-68898D02*
D03*
X165650D02*
D03*
X176870Y-37402D02*
D03*
X165650D02*
D03*
X165650Y-47244D02*
D03*
X176870D02*
D03*
X116437Y51181D02*
D03*
X127657D02*
D03*
X140059Y64961D02*
D03*
X151279D02*
D03*
X116437D02*
D03*
X127657D02*
D03*
X277854Y-19685D02*
D03*
X289075D02*
D03*
X251673Y-39370D02*
D03*
X240453D02*
D03*
X251673Y-49213D02*
D03*
X240453D02*
D03*
X289075Y-9843D02*
D03*
X277854D02*
D03*
D12*
X132972Y-38996D02*
D03*
Y-28996D02*
D03*
Y-23996D02*
D03*
Y-33996D02*
D03*
X154429Y-38996D02*
D03*
Y-33996D02*
D03*
Y-23996D02*
D03*
D13*
X73130Y4921D02*
D03*
Y-4921D02*
D03*
X96161D02*
D03*
Y4921D02*
D03*
D14*
X196850Y-60039D02*
D03*
Y-46260D02*
D03*
D15*
X143701Y-67520D02*
D03*
Y-50591D02*
D03*
D16*
X106299Y-25886D02*
D03*
Y-37106D02*
D03*
Y37106D02*
D03*
Y25886D02*
D03*
X122047Y-58760D02*
D03*
Y-47539D02*
D03*
D17*
X135394Y31496D02*
D03*
X152008D02*
D03*
D18*
X289370Y-9843D02*
Y-1969D01*
X124429Y-47539D02*
X132972Y-38996D01*
X122047Y-47539D02*
X124429D01*
X185039Y-37402D02*
X185039Y-37402D01*
X176870Y-37402D02*
X185039D01*
Y-68898D02*
X185039Y-68898D01*
X176870Y-68898D02*
X185039D01*
X154429Y-38996D02*
X164055D01*
X177854Y-46260D02*
X196850D01*
X177854Y-60039D02*
X196850D01*
Y-46260D02*
Y-20315D01*
X251969Y-57087D02*
Y-49508D01*
X251673Y-49213D02*
X251969Y-49508D01*
X289370Y-27559D02*
Y-19980D01*
X289075Y-19685D02*
X289370Y-19980D01*
X289075Y-9843D02*
X289370D01*
X143701Y-50591D02*
Y-39370D01*
X149075Y-33996D01*
X154429D01*
D19*
X251673Y-39370D02*
Y-9843D01*
X277854Y-19685D02*
Y-9843D01*
X151279Y32224D02*
X152008Y31496D01*
X127657Y64961D02*
X140059D01*
X127657Y51181D02*
Y64961D01*
X116437Y51181D02*
Y64961D01*
X165650Y-47244D02*
Y-38996D01*
Y-68898D02*
Y-59055D01*
X73130Y14075D02*
X78740Y19685D01*
X73130Y4921D02*
Y14075D01*
X49213Y7874D02*
Y21654D01*
Y7874D02*
X62008Y-4921D01*
X73130D01*
X51181Y-19685D02*
X78740D01*
X49213Y-21654D02*
X51181Y-19685D01*
X289075D02*
Y-9843D01*
X240453Y-49213D02*
Y-39370D01*
X143701Y-50591D02*
X150984D01*
X159449Y-59055D01*
X165650D01*
X151279Y32224D02*
Y64961D01*
X152008Y31496D02*
X163386D01*
X181102Y33465D02*
Y41339D01*
X179134Y31496D02*
X181102Y33465D01*
D20*
X236535Y-9843D02*
X251673D01*
X236535Y-10000D02*
Y-9843D01*
D21*
X78740Y-19685D02*
D03*
Y19685D02*
D03*
D22*
X196535Y20000D02*
D03*
Y10000D02*
D03*
Y0D02*
D03*
Y-10000D02*
D03*
Y-20000D02*
D03*
X236535Y20000D02*
D03*
Y10000D02*
D03*
Y0D02*
D03*
Y-10000D02*
D03*
Y-20000D02*
D03*
D23*
X284449Y-39370D02*
D03*
Y-47244D02*
D03*
X78740Y-45276D02*
D03*
Y-64961D02*
D03*
Y45276D02*
D03*
Y64961D02*
D03*
D24*
X285039Y-68504D02*
D03*
X10236Y-68504D02*
D03*
Y68504D02*
D03*
X285039D02*
D03*
D25*
X257874Y19685D02*
D03*
X277559D02*
D03*
D26*
X122047Y9843D02*
D03*
Y-9843D02*
D03*
X165354Y9843D02*
D03*
Y-9843D02*
D03*
D27*
X49213Y-21654D02*
D03*
Y21654D02*
D03*
D28*
X185039Y-37402D02*
D03*
Y-68898D02*
D03*
X122047D02*
D03*
X251969Y-57087D02*
D03*
X289370Y-27559D02*
D03*
Y-1969D02*
D03*
X181102Y41339D02*
D03*
M02*
