G04 Layer_Color=8388736*
%FSLAX25Y25*%
%MOIN*%
G70*
G01*
G75*
%ADD34R,0.08674X0.08674*%
%ADD35R,0.05721X0.07887*%
%ADD36O,0.06509X0.03162*%
%ADD37O,0.07690X0.04147*%
%ADD38R,0.03556X0.03950*%
%ADD39R,0.07099X0.10052*%
%ADD40R,0.07887X0.05721*%
%ADD41R,0.07178X0.09383*%
%ADD42C,0.07099*%
%ADD43O,0.12611X0.07690*%
%ADD44O,0.10642X0.06706*%
%ADD45C,0.18517*%
%ADD46O,0.06706X0.10642*%
%ADD47O,0.10642X0.06706*%
%ADD48O,0.30328X0.18517*%
%ADD49C,0.04737*%
D34*
X179134Y31496D02*
D03*
X163386D02*
D03*
X251969Y-9843D02*
D03*
X267717D02*
D03*
D35*
X165650Y-59055D02*
D03*
X176870D02*
D03*
X176870Y-68898D02*
D03*
X165650D02*
D03*
X176870Y-37402D02*
D03*
X165650D02*
D03*
X165650Y-47244D02*
D03*
X176870D02*
D03*
X116437Y51181D02*
D03*
X127657D02*
D03*
X140059Y64961D02*
D03*
X151279D02*
D03*
X116437D02*
D03*
X127657D02*
D03*
X277854Y-19685D02*
D03*
X289075D02*
D03*
X251673Y-39370D02*
D03*
X240453D02*
D03*
X251673Y-49213D02*
D03*
X240453D02*
D03*
X289075Y-9843D02*
D03*
X277854D02*
D03*
D36*
X132972Y-38996D02*
D03*
Y-28996D02*
D03*
Y-23996D02*
D03*
Y-33996D02*
D03*
X154429Y-38996D02*
D03*
Y-33996D02*
D03*
Y-23996D02*
D03*
D37*
X73130Y4921D02*
D03*
Y-4921D02*
D03*
X96161D02*
D03*
Y4921D02*
D03*
D38*
X196850Y-60039D02*
D03*
Y-46260D02*
D03*
D39*
X143701Y-67520D02*
D03*
Y-50591D02*
D03*
D40*
X106299Y-25886D02*
D03*
Y-37106D02*
D03*
Y37106D02*
D03*
Y25886D02*
D03*
X122047Y-58760D02*
D03*
Y-47539D02*
D03*
D41*
X135394Y31496D02*
D03*
X152008D02*
D03*
D42*
X78740Y-19685D02*
D03*
Y19685D02*
D03*
D43*
X196535Y20000D02*
D03*
Y10000D02*
D03*
Y0D02*
D03*
Y-10000D02*
D03*
Y-20000D02*
D03*
X236535Y20000D02*
D03*
Y10000D02*
D03*
Y0D02*
D03*
Y-10000D02*
D03*
Y-20000D02*
D03*
D44*
X284449Y-39370D02*
D03*
Y-47244D02*
D03*
X78740Y-45276D02*
D03*
Y-64961D02*
D03*
Y45276D02*
D03*
Y64961D02*
D03*
D45*
X285039Y-68504D02*
D03*
X10236Y-68504D02*
D03*
Y68504D02*
D03*
X285039D02*
D03*
D46*
X257874Y19685D02*
D03*
X277559D02*
D03*
D47*
X122047Y9843D02*
D03*
Y-9843D02*
D03*
X165354Y9843D02*
D03*
Y-9843D02*
D03*
D48*
X49213Y-21654D02*
D03*
Y21654D02*
D03*
D49*
X185039Y-37402D02*
D03*
Y-68898D02*
D03*
X122047D02*
D03*
X251969Y-57087D02*
D03*
X289370Y-27559D02*
D03*
Y-1969D02*
D03*
X181102Y41339D02*
D03*
M02*
