%FSLAX25Y25*%
%MOIN*%
G70*
G01*
G75*
G04 Layer_Color=16711935*
%ADD10C,0.00492*%
%ADD11R,0.03937X0.01811*%
%ADD12R,0.01811X0.01811*%
%ADD13R,0.13386X0.13386*%
%ADD14O,0.00787X0.02559*%
%ADD15O,0.02559X0.00787*%
%ADD16R,0.02835X0.03937*%
%ADD17R,0.03937X0.02835*%
%ADD18R,0.04134X0.04528*%
%ADD19O,0.01772X0.05512*%
%ADD20R,0.03740X0.02559*%
%ADD21R,0.03150X0.02165*%
%ADD22R,0.02559X0.03740*%
%ADD23R,0.03937X0.02362*%
G04:AMPARAMS|DCode=24|XSize=118.11mil|YSize=118.11mil|CornerRadius=0mil|HoleSize=0mil|Usage=FLASHONLY|Rotation=270.000|XOffset=0mil|YOffset=0mil|HoleType=Round|Shape=Octagon|*
%AMOCTAGOND24*
4,1,8,-0.02953,-0.05906,0.02953,-0.05906,0.05906,-0.02953,0.05906,0.02953,0.02953,0.05906,-0.02953,0.05906,-0.05906,0.02953,-0.05906,-0.02953,-0.02953,-0.05906,0.0*
%
%ADD24OCTAGOND24*%

%ADD25R,0.02362X0.03937*%
%ADD26R,0.05512X0.03543*%
%ADD27O,0.01181X0.05512*%
%ADD28O,0.05512X0.01181*%
%ADD29O,0.05709X0.01181*%
%ADD30O,0.01181X0.05709*%
%ADD31R,0.06496X0.04724*%
%ADD32C,0.01142*%
%ADD33R,0.01378X0.03740*%
%ADD34R,0.02953X0.06496*%
%ADD35R,0.03347X0.01575*%
%ADD36C,0.00984*%
%ADD37C,0.01969*%
%ADD38C,0.00500*%
%ADD39C,0.01575*%
%ADD40C,0.00787*%
%ADD41C,0.01000*%
%ADD42O,0.09843X0.05906*%
%ADD43R,0.07874X0.07874*%
%ADD44C,0.07874*%
%ADD45R,0.05906X0.05906*%
%ADD46C,0.05906*%
%ADD47O,0.05906X0.09843*%
%ADD48C,0.11811*%
%ADD49O,0.07874X0.11811*%
%ADD50C,0.19685*%
%ADD51O,0.01969X0.03937*%
%ADD52C,0.01969*%
%ADD53R,0.01969X0.04921*%
%ADD54C,0.00394*%
%ADD55C,0.02362*%
%ADD56C,0.00591*%
%ADD57R,0.14186X0.14186*%
%ADD58O,0.01587X0.03359*%
%ADD59O,0.03359X0.01587*%
%ADD60R,0.03635X0.04737*%
%ADD61R,0.04737X0.03635*%
%ADD62R,0.04934X0.05328*%
%ADD63O,0.02572X0.06312*%
%ADD64R,0.04540X0.03359*%
%ADD65R,0.03950X0.02965*%
%ADD66R,0.03359X0.04540*%
%ADD67R,0.04737X0.03162*%
G04:AMPARAMS|DCode=68|XSize=126.11mil|YSize=126.11mil|CornerRadius=0mil|HoleSize=0mil|Usage=FLASHONLY|Rotation=270.000|XOffset=0mil|YOffset=0mil|HoleType=Round|Shape=Octagon|*
%AMOCTAGOND68*
4,1,8,-0.03153,-0.06306,0.03153,-0.06306,0.06306,-0.03153,0.06306,0.03153,0.03153,0.06306,-0.03153,0.06306,-0.06306,0.03153,-0.06306,-0.03153,-0.03153,-0.06306,0.0*
%
%ADD68OCTAGOND68*%

%ADD69R,0.03162X0.04737*%
%ADD70R,0.06312X0.04343*%
%ADD71O,0.01981X0.06312*%
%ADD72O,0.06312X0.01981*%
%ADD73O,0.06509X0.01981*%
%ADD74O,0.01981X0.06509*%
%ADD75R,0.07296X0.05524*%
%ADD76C,0.01535*%
%ADD77R,0.01772X0.04134*%
%ADD78R,0.03347X0.06890*%
%ADD79R,0.03819X0.02047*%
%ADD80O,0.10642X0.06706*%
%ADD81R,0.08674X0.08674*%
%ADD82C,0.08674*%
%ADD83R,0.06706X0.06706*%
%ADD84C,0.06706*%
%ADD85O,0.06706X0.10642*%
%ADD86C,0.12611*%
%ADD87O,0.08674X0.12611*%
%ADD88C,0.20485*%
%ADD89O,0.02769X0.04737*%
%ADD90C,0.02559*%
%ADD91C,0.02769*%
D80*
X-92520Y90551D02*
D03*
Y106299D02*
D03*
Y98425D02*
D03*
X-74803Y299213D02*
D03*
Y291339D02*
D03*
D81*
X65945Y187480D02*
D03*
D82*
X75945D02*
D03*
X65945Y177480D02*
D03*
X75945D02*
D03*
X65945Y167480D02*
D03*
X75945D02*
D03*
X65945Y157480D02*
D03*
X75945D02*
D03*
X65945Y147480D02*
D03*
X75945D02*
D03*
X65945Y137480D02*
D03*
X75945D02*
D03*
X65945Y127480D02*
D03*
X75945D02*
D03*
D83*
X95000Y7874D02*
D03*
D84*
X85000D02*
D03*
X75000D02*
D03*
X65000D02*
D03*
X55000D02*
D03*
X45000D02*
D03*
X35000D02*
D03*
X25000D02*
D03*
X15000D02*
D03*
X5000D02*
D03*
X-5000D02*
D03*
X-15000D02*
D03*
X-25000D02*
D03*
X-35000D02*
D03*
X-45000D02*
D03*
X-55000D02*
D03*
X-65000D02*
D03*
X-75000D02*
D03*
X-85000D02*
D03*
X-95000D02*
D03*
Y17874D02*
D03*
X-85000D02*
D03*
X-75000D02*
D03*
X-65000D02*
D03*
X-55000D02*
D03*
X-45000D02*
D03*
X-35000D02*
D03*
X-25000D02*
D03*
X-15000D02*
D03*
X-5000D02*
D03*
X5000D02*
D03*
X15000D02*
D03*
X25000D02*
D03*
X35000D02*
D03*
X45000D02*
D03*
X55000D02*
D03*
X65000D02*
D03*
X75000D02*
D03*
X85000D02*
D03*
X95000D02*
D03*
D85*
X-47244Y275591D02*
D03*
X-31496D02*
D03*
X-39370D02*
D03*
D86*
X-92519Y184645D02*
D03*
Y248425D02*
D03*
D87*
X-87598Y216535D02*
D03*
X-97441D02*
D03*
Y200787D02*
D03*
X-87598D02*
D03*
Y232283D02*
D03*
X-97441D02*
D03*
D88*
X-97441Y53150D02*
D03*
X97441D02*
D03*
X-97441Y275591D02*
D03*
X97441D02*
D03*
D89*
X41607Y125984D02*
D03*
X45007D02*
D03*
D90*
X-31496Y203740D02*
D03*
X27165Y224410D02*
D03*
Y228740D02*
D03*
X31496D02*
D03*
Y224410D02*
D03*
X27165Y220079D02*
D03*
X35827Y224410D02*
D03*
X31496Y220079D02*
D03*
X35827Y228740D02*
D03*
Y220079D02*
D03*
X73819Y215551D02*
D03*
X34449Y204725D02*
D03*
X81693Y198819D02*
D03*
X51181Y217520D02*
D03*
X-22638Y193898D02*
D03*
X-5906Y187008D02*
D03*
X-68898Y100394D02*
D03*
X-63976Y96457D02*
D03*
X-18701Y87599D02*
D03*
X-29528Y112205D02*
D03*
X-59055Y99410D02*
D03*
X-25591Y106299D02*
D03*
X-27559Y103347D02*
D03*
X-32480Y64961D02*
D03*
X-984Y57087D02*
D03*
X-2953Y68898D02*
D03*
X-3937Y71851D02*
D03*
X-2953Y65945D02*
D03*
X-25591Y60039D02*
D03*
X-21654D02*
D03*
X-27559Y109252D02*
D03*
X-44291Y103347D02*
D03*
Y109252D02*
D03*
X-46260Y106299D02*
D03*
X-29528Y100394D02*
D03*
X-46260D02*
D03*
X-77756Y132874D02*
D03*
X-74803Y130906D02*
D03*
X-76772Y96457D02*
D03*
X-74803Y134843D02*
D03*
X-76772Y162402D02*
D03*
X-66929Y145669D02*
D03*
X-84646Y117126D02*
D03*
X-4921Y104331D02*
D03*
X7874Y121063D02*
D03*
X-54134Y194882D02*
D03*
Y202756D02*
D03*
X-52165Y211614D02*
D03*
X-49213D02*
D03*
X-46260Y217520D02*
D03*
X-34449D02*
D03*
X0Y104331D02*
D03*
X9843Y101378D02*
D03*
X15748Y107283D02*
D03*
X-27559Y71850D02*
D03*
X27559Y37402D02*
D03*
X7874Y35433D02*
D03*
X16732D02*
D03*
X2953Y35433D02*
D03*
X22638Y25591D02*
D03*
X31496Y33465D02*
D03*
X10827Y79725D02*
D03*
X76772Y57087D02*
D03*
Y64961D02*
D03*
X62992Y67913D02*
D03*
Y71850D02*
D03*
X20669Y43307D02*
D03*
X45276Y25591D02*
D03*
X49213D02*
D03*
X53150D02*
D03*
X64961Y33465D02*
D03*
X79724Y25591D02*
D03*
X75787D02*
D03*
X71850D02*
D03*
X61024Y51181D02*
D03*
X4921Y43307D02*
D03*
X62992Y95473D02*
D03*
X56102Y81693D02*
D03*
Y95473D02*
D03*
X10827Y83662D02*
D03*
X-32480Y34449D02*
D03*
X10827Y75788D02*
D03*
X8858Y56102D02*
D03*
X60039Y2953D02*
D03*
X-29528Y24606D02*
D03*
X-59055Y41339D02*
D03*
X-69882Y208662D02*
D03*
Y216535D02*
D03*
Y224410D02*
D03*
Y232283D02*
D03*
Y240158D02*
D03*
X-8858Y208662D02*
D03*
Y216535D02*
D03*
Y224410D02*
D03*
X-43307Y229331D02*
D03*
X77756Y240158D02*
D03*
X62008Y245079D02*
D03*
X65945Y208662D02*
D03*
X67913Y212598D02*
D03*
X34449Y193898D02*
D03*
X52165D02*
D03*
X50197Y185039D02*
D03*
Y177165D02*
D03*
X-60039Y160433D02*
D03*
X-62992Y181102D02*
D03*
X-56102Y140748D02*
D03*
X-24606D02*
D03*
X-35433Y127953D02*
D03*
X-56102Y125000D02*
D03*
X-24606D02*
D03*
X66929Y95473D02*
D03*
X58071Y109252D02*
D03*
X52165Y240158D02*
D03*
X40354Y224410D02*
D03*
Y228346D02*
D03*
X11811Y248032D02*
D03*
Y255906D02*
D03*
X12795Y201772D02*
D03*
X-35433Y143701D02*
D03*
X35433Y50197D02*
D03*
X68898Y33465D02*
D03*
X31496Y50197D02*
D03*
X14764Y62008D02*
D03*
X18701D02*
D03*
X30512Y67913D02*
D03*
X26575D02*
D03*
X28543Y70866D02*
D03*
X20669Y68898D02*
D03*
X28543Y92520D02*
D03*
X16732D02*
D03*
X20669Y72835D02*
D03*
X22638Y89567D02*
D03*
X62992D02*
D03*
X56102Y86614D02*
D03*
X12795Y218504D02*
D03*
X25591Y90551D02*
D03*
X19685D02*
D03*
X-2953Y74803D02*
D03*
Y77756D02*
D03*
X29528Y62008D02*
D03*
X43307Y63976D02*
D03*
X72835Y53150D02*
D03*
X68898Y57087D02*
D03*
X43307Y61024D02*
D03*
X42323Y66929D02*
D03*
X35433Y85630D02*
D03*
X34449Y67913D02*
D03*
X32480Y75788D02*
D03*
X31496Y83662D02*
D03*
X25591Y80709D02*
D03*
X13780Y77756D02*
D03*
X0Y100394D02*
D03*
X-37402Y225394D02*
D03*
X-69882Y196850D02*
D03*
X-54134Y160433D02*
D03*
X-51181Y163386D02*
D03*
X-42323Y172244D02*
D03*
X-48228Y166339D02*
D03*
X-50197Y198819D02*
D03*
X-54134D02*
D03*
X-45276Y169291D02*
D03*
X-39370Y175197D02*
D03*
X-36417Y178150D02*
D03*
X-33465Y181102D02*
D03*
X-39370Y219488D02*
D03*
X13780Y154528D02*
D03*
X39370Y149606D02*
D03*
Y145669D02*
D03*
X6890Y150591D02*
D03*
X13780D02*
D03*
X6890Y154528D02*
D03*
X-11811Y160433D02*
D03*
X-7874Y172244D02*
D03*
X-5906Y175197D02*
D03*
X-7874Y178150D02*
D03*
X-5906Y169291D02*
D03*
Y181102D02*
D03*
X-3937Y184055D02*
D03*
X-30512D02*
D03*
X10827Y181102D02*
D03*
X25591Y178150D02*
D03*
X3937Y232283D02*
D03*
X-9843Y163386D02*
D03*
X-7874Y166339D02*
D03*
X-72835Y84646D02*
D03*
X-68898Y96457D02*
D03*
X-72835Y100394D02*
D03*
X-100394Y179134D02*
D03*
X-104331Y147638D02*
D03*
X-72835Y106299D02*
D03*
X-104331Y112205D02*
D03*
X-92520Y117126D02*
D03*
X-94488Y114173D02*
D03*
X-81693Y106299D02*
D03*
X52165Y138780D02*
D03*
X-56102Y24606D02*
D03*
X-88583Y156496D02*
D03*
X-104331Y76772D02*
D03*
X-92520Y137795D02*
D03*
X-52165Y62008D02*
D03*
X-38386D02*
D03*
X17717Y66929D02*
D03*
X44291Y87599D02*
D03*
Y92520D02*
D03*
Y96457D02*
D03*
X66929Y43307D02*
D03*
X-24606Y82677D02*
D03*
X-30512D02*
D03*
X51673Y222638D02*
D03*
X35433Y38386D02*
D03*
X35925Y42323D02*
D03*
Y46260D02*
D03*
X82677Y227362D02*
D03*
D91*
X41339Y119095D02*
D03*
X51673Y226378D02*
D03*
M02*
