%FSLAX25Y25*%
%MOIN*%
G70*
G01*
G75*
G04 Layer_Color=8388736*
%ADD10C,0.00492*%
%ADD11R,0.03937X0.01811*%
%ADD12R,0.01811X0.01811*%
%ADD13R,0.13386X0.13386*%
%ADD14O,0.00787X0.02559*%
%ADD15O,0.02559X0.00787*%
%ADD16R,0.02835X0.03937*%
%ADD17R,0.03937X0.02835*%
%ADD18R,0.04134X0.04528*%
%ADD19O,0.01772X0.05512*%
%ADD20R,0.03740X0.02559*%
%ADD21R,0.03150X0.02165*%
%ADD22R,0.02559X0.03740*%
%ADD23R,0.03937X0.02362*%
G04:AMPARAMS|DCode=24|XSize=118.11mil|YSize=118.11mil|CornerRadius=0mil|HoleSize=0mil|Usage=FLASHONLY|Rotation=270.000|XOffset=0mil|YOffset=0mil|HoleType=Round|Shape=Octagon|*
%AMOCTAGOND24*
4,1,8,-0.02953,-0.05906,0.02953,-0.05906,0.05906,-0.02953,0.05906,0.02953,0.02953,0.05906,-0.02953,0.05906,-0.05906,0.02953,-0.05906,-0.02953,-0.02953,-0.05906,0.0*
%
%ADD24OCTAGOND24*%

%ADD25R,0.02362X0.03937*%
%ADD26R,0.05512X0.03543*%
%ADD27O,0.01181X0.05512*%
%ADD28O,0.05512X0.01181*%
%ADD29O,0.05709X0.01181*%
%ADD30O,0.01181X0.05709*%
%ADD31R,0.06496X0.04724*%
%ADD32C,0.01142*%
%ADD33R,0.01378X0.03740*%
%ADD34R,0.02953X0.06496*%
%ADD35R,0.03347X0.01575*%
%ADD36C,0.00984*%
%ADD37C,0.01969*%
%ADD38C,0.00500*%
%ADD39C,0.01575*%
%ADD40C,0.00787*%
%ADD41C,0.01000*%
%ADD42O,0.09843X0.05906*%
%ADD43R,0.07874X0.07874*%
%ADD44C,0.07874*%
%ADD45R,0.05906X0.05906*%
%ADD46C,0.05906*%
%ADD47O,0.05906X0.09843*%
%ADD48C,0.11811*%
%ADD49O,0.07874X0.11811*%
%ADD50C,0.19685*%
%ADD51O,0.01969X0.03937*%
%ADD52C,0.01969*%
%ADD53R,0.01969X0.04921*%
%ADD54C,0.00394*%
%ADD55C,0.02362*%
%ADD56C,0.00591*%
%ADD57R,0.14186X0.14186*%
%ADD58O,0.01587X0.03359*%
%ADD59O,0.03359X0.01587*%
%ADD60R,0.03635X0.04737*%
%ADD61R,0.04737X0.03635*%
%ADD62R,0.04934X0.05328*%
%ADD63O,0.02572X0.06312*%
%ADD64R,0.04540X0.03359*%
%ADD65R,0.03950X0.02965*%
%ADD66R,0.03359X0.04540*%
%ADD67R,0.04737X0.03162*%
G04:AMPARAMS|DCode=68|XSize=126.11mil|YSize=126.11mil|CornerRadius=0mil|HoleSize=0mil|Usage=FLASHONLY|Rotation=270.000|XOffset=0mil|YOffset=0mil|HoleType=Round|Shape=Octagon|*
%AMOCTAGOND68*
4,1,8,-0.03153,-0.06306,0.03153,-0.06306,0.06306,-0.03153,0.06306,0.03153,0.03153,0.06306,-0.03153,0.06306,-0.06306,0.03153,-0.06306,-0.03153,-0.03153,-0.06306,0.0*
%
%ADD68OCTAGOND68*%

%ADD69R,0.03162X0.04737*%
%ADD70R,0.06312X0.04343*%
%ADD71O,0.01981X0.06312*%
%ADD72O,0.06312X0.01981*%
%ADD73O,0.06509X0.01981*%
%ADD74O,0.01981X0.06509*%
%ADD75R,0.07296X0.05524*%
%ADD76C,0.01535*%
%ADD77R,0.01772X0.04134*%
%ADD78R,0.03347X0.06890*%
%ADD79R,0.03819X0.02047*%
%ADD80O,0.10642X0.06706*%
%ADD81R,0.08674X0.08674*%
%ADD82C,0.08674*%
%ADD83R,0.06706X0.06706*%
%ADD84C,0.06706*%
%ADD85O,0.06706X0.10642*%
%ADD86C,0.12611*%
%ADD87O,0.08674X0.12611*%
%ADD88C,0.20485*%
%ADD89O,0.02769X0.04737*%
%ADD90C,0.02559*%
%ADD91C,0.02769*%
D57*
X31496Y224410D02*
D03*
D58*
X22047Y212106D02*
D03*
X24409D02*
D03*
X26772D02*
D03*
X29134D02*
D03*
X31496D02*
D03*
X33858D02*
D03*
X36220D02*
D03*
X38583D02*
D03*
X40945D02*
D03*
Y236713D02*
D03*
X38583D02*
D03*
X36220D02*
D03*
X33858D02*
D03*
X31496D02*
D03*
X29134D02*
D03*
X26772D02*
D03*
X24409D02*
D03*
X22047D02*
D03*
X20866Y208563D02*
D03*
X23228D02*
D03*
X25591D02*
D03*
X27953D02*
D03*
X30315D02*
D03*
X32677D02*
D03*
X35039D02*
D03*
X37402D02*
D03*
X39764D02*
D03*
X42126D02*
D03*
Y240256D02*
D03*
X39764D02*
D03*
X37402D02*
D03*
X35039D02*
D03*
X32677D02*
D03*
X30315D02*
D03*
X27953D02*
D03*
X25591D02*
D03*
X23228D02*
D03*
X20866D02*
D03*
D59*
X43799Y214961D02*
D03*
Y217323D02*
D03*
Y219685D02*
D03*
Y222047D02*
D03*
Y224410D02*
D03*
Y226772D02*
D03*
Y229134D02*
D03*
Y231496D02*
D03*
Y233858D02*
D03*
X19193D02*
D03*
Y231496D02*
D03*
Y229134D02*
D03*
Y226772D02*
D03*
Y224410D02*
D03*
Y222047D02*
D03*
Y219685D02*
D03*
Y217323D02*
D03*
Y214961D02*
D03*
X47343Y213780D02*
D03*
Y216142D02*
D03*
Y218504D02*
D03*
Y220866D02*
D03*
Y223228D02*
D03*
Y225591D02*
D03*
Y227953D02*
D03*
Y230315D02*
D03*
Y232677D02*
D03*
Y235039D02*
D03*
X15650D02*
D03*
Y232677D02*
D03*
Y230315D02*
D03*
Y227953D02*
D03*
Y225591D02*
D03*
Y223228D02*
D03*
Y220866D02*
D03*
Y218504D02*
D03*
Y216142D02*
D03*
Y213780D02*
D03*
D60*
X22402Y248032D02*
D03*
X16969D02*
D03*
X22402Y255906D02*
D03*
X16969D02*
D03*
X73583Y232283D02*
D03*
X68150D02*
D03*
X61772D02*
D03*
X56339D02*
D03*
X56339Y240158D02*
D03*
X61772D02*
D03*
X68150D02*
D03*
X73583D02*
D03*
X68150Y220473D02*
D03*
X73583D02*
D03*
X56339Y208662D02*
D03*
X61772D02*
D03*
X40591Y185039D02*
D03*
X46024D02*
D03*
X40591Y177165D02*
D03*
X46024D02*
D03*
X30276Y125984D02*
D03*
X24843D02*
D03*
X40591Y114173D02*
D03*
X46024D02*
D03*
X57835D02*
D03*
X52402D02*
D03*
X14527Y43307D02*
D03*
X9094D02*
D03*
X-76535Y156496D02*
D03*
X-71102D02*
D03*
X-60276Y216535D02*
D03*
X-65709D02*
D03*
X-60276Y196850D02*
D03*
X-65709D02*
D03*
X-60276Y208662D02*
D03*
X-65709D02*
D03*
X-60276Y224410D02*
D03*
X-65709D02*
D03*
X-60276Y240158D02*
D03*
X-65709D02*
D03*
X-60276Y232283D02*
D03*
X-65709D02*
D03*
X-36654Y246063D02*
D03*
X-42087D02*
D03*
X-18465Y224410D02*
D03*
X-13032D02*
D03*
X34213Y248032D02*
D03*
X28780D02*
D03*
X-65709Y165354D02*
D03*
X-60276D02*
D03*
D61*
X47244Y250748D02*
D03*
Y245315D02*
D03*
Y199567D02*
D03*
Y194134D02*
D03*
X39370Y199567D02*
D03*
Y194134D02*
D03*
X7874Y111457D02*
D03*
Y116890D02*
D03*
X15748Y111457D02*
D03*
Y116890D02*
D03*
X62992Y105079D02*
D03*
Y99646D02*
D03*
X70866Y105079D02*
D03*
Y99646D02*
D03*
X62992Y81457D02*
D03*
Y76024D02*
D03*
X23622Y40591D02*
D03*
Y46024D02*
D03*
X-51181Y130669D02*
D03*
Y125236D02*
D03*
Y146417D02*
D03*
Y140984D02*
D03*
X-19685Y130669D02*
D03*
Y125236D02*
D03*
Y146417D02*
D03*
Y140984D02*
D03*
X-80709Y126732D02*
D03*
Y121299D02*
D03*
X-35433Y199567D02*
D03*
Y194134D02*
D03*
X-27559Y199567D02*
D03*
Y194134D02*
D03*
X-35433Y257126D02*
D03*
Y262559D02*
D03*
X-43307Y262559D02*
D03*
Y257126D02*
D03*
X-27559Y237441D02*
D03*
Y242874D02*
D03*
X-51181Y242874D02*
D03*
Y237441D02*
D03*
X3937Y242874D02*
D03*
Y237441D02*
D03*
D62*
X56055Y224472D02*
D03*
X62055D02*
D03*
X56055Y216473D02*
D03*
X62055D02*
D03*
X23425Y117126D02*
D03*
X31693D02*
D03*
X23425Y111221D02*
D03*
X31693D02*
D03*
D63*
X28642Y192717D02*
D03*
X26083D02*
D03*
X23524D02*
D03*
X20965D02*
D03*
X18406D02*
D03*
X15846D02*
D03*
X13287D02*
D03*
X10728D02*
D03*
X28642Y169488D02*
D03*
X26083D02*
D03*
X23524D02*
D03*
X20965D02*
D03*
X18406D02*
D03*
X15846D02*
D03*
X13287D02*
D03*
X10728D02*
D03*
D64*
X70866Y76083D02*
D03*
Y81398D02*
D03*
X55118Y40650D02*
D03*
Y45965D02*
D03*
X31496D02*
D03*
Y40650D02*
D03*
X-15748Y66240D02*
D03*
Y71555D02*
D03*
Y43996D02*
D03*
Y38681D02*
D03*
X-59055Y103642D02*
D03*
Y108957D02*
D03*
X-51181Y103642D02*
D03*
Y108957D02*
D03*
Y93209D02*
D03*
Y87894D02*
D03*
X-59055D02*
D03*
Y93209D02*
D03*
X-73819Y126673D02*
D03*
Y121358D02*
D03*
X-43307Y194193D02*
D03*
Y199508D02*
D03*
X-51181Y257185D02*
D03*
Y262500D02*
D03*
X-27559Y257185D02*
D03*
Y262500D02*
D03*
X-88583Y166043D02*
D03*
Y160728D02*
D03*
Y146358D02*
D03*
Y141043D02*
D03*
Y121358D02*
D03*
Y126673D02*
D03*
D65*
X62697Y45866D02*
D03*
Y40748D02*
D03*
X71161Y43307D02*
D03*
X-23327Y66339D02*
D03*
Y71457D02*
D03*
X-31791Y68898D02*
D03*
X-68602Y90551D02*
D03*
X-77067Y87992D02*
D03*
Y93110D02*
D03*
X-68602Y106299D02*
D03*
X-77067Y103740D02*
D03*
Y108858D02*
D03*
D66*
X-61713Y29528D02*
D03*
X-56398D02*
D03*
X-13091Y208662D02*
D03*
X-18406D02*
D03*
X-13091Y232283D02*
D03*
X-18406D02*
D03*
X-13091Y216535D02*
D03*
X-18406D02*
D03*
X-30217Y77756D02*
D03*
X-24902D02*
D03*
D67*
X-40846Y131693D02*
D03*
Y127953D02*
D03*
Y124213D02*
D03*
X-30020D02*
D03*
Y131693D02*
D03*
X-40846Y147441D02*
D03*
Y143701D02*
D03*
Y139961D02*
D03*
X-30020D02*
D03*
Y147441D02*
D03*
D68*
X-45276Y68898D02*
D03*
X-72835D02*
D03*
X-45276Y41339D02*
D03*
X-72835D02*
D03*
D69*
X-66732Y175689D02*
D03*
X-62992D02*
D03*
X-59252D02*
D03*
Y186516D02*
D03*
X-66732D02*
D03*
D70*
X-15748Y192717D02*
D03*
Y200984D02*
D03*
D71*
X-32480Y237008D02*
D03*
X-34449D02*
D03*
X-36417D02*
D03*
X-38386D02*
D03*
X-40354D02*
D03*
X-42323D02*
D03*
X-44291D02*
D03*
X-46260D02*
D03*
Y211811D02*
D03*
X-44291D02*
D03*
X-42323D02*
D03*
X-40354D02*
D03*
X-38386D02*
D03*
X-36417D02*
D03*
X-34449D02*
D03*
X-32480D02*
D03*
D72*
X-51968Y231299D02*
D03*
Y229331D02*
D03*
Y227362D02*
D03*
Y225394D02*
D03*
Y223425D02*
D03*
Y221457D02*
D03*
Y219488D02*
D03*
Y217520D02*
D03*
X-26772D02*
D03*
Y219488D02*
D03*
Y221457D02*
D03*
Y223425D02*
D03*
Y225394D02*
D03*
Y227362D02*
D03*
Y229331D02*
D03*
Y231299D02*
D03*
D73*
X5020Y93504D02*
D03*
Y91536D02*
D03*
Y89567D02*
D03*
Y87599D02*
D03*
Y85630D02*
D03*
Y83662D02*
D03*
Y81693D02*
D03*
Y79725D02*
D03*
Y77756D02*
D03*
Y75788D02*
D03*
Y73819D02*
D03*
Y71851D02*
D03*
Y69882D02*
D03*
Y67913D02*
D03*
Y65945D02*
D03*
Y63976D02*
D03*
X50098D02*
D03*
Y65945D02*
D03*
Y67913D02*
D03*
Y69882D02*
D03*
Y71851D02*
D03*
Y73819D02*
D03*
Y75788D02*
D03*
Y77756D02*
D03*
Y79725D02*
D03*
Y81693D02*
D03*
Y83662D02*
D03*
Y85630D02*
D03*
Y87599D02*
D03*
Y89567D02*
D03*
Y91536D02*
D03*
Y93504D02*
D03*
D74*
X12795Y56201D02*
D03*
X14764D02*
D03*
X16732D02*
D03*
X18701D02*
D03*
X20669D02*
D03*
X22638D02*
D03*
X24606D02*
D03*
X26575D02*
D03*
X28543D02*
D03*
X30512D02*
D03*
X32480D02*
D03*
X34449D02*
D03*
X36417D02*
D03*
X38386D02*
D03*
X40354D02*
D03*
X42323D02*
D03*
Y101280D02*
D03*
X40354D02*
D03*
X38386D02*
D03*
X36417D02*
D03*
X34449D02*
D03*
X32480D02*
D03*
X30512D02*
D03*
X28543D02*
D03*
X26575D02*
D03*
X24606D02*
D03*
X22638D02*
D03*
X20669D02*
D03*
X18701D02*
D03*
X16732D02*
D03*
X14764D02*
D03*
X12795D02*
D03*
D75*
X-98425Y162106D02*
D03*
Y172539D02*
D03*
Y142421D02*
D03*
Y152854D02*
D03*
Y122736D02*
D03*
Y133169D02*
D03*
D76*
X-75787Y145669D02*
D03*
X-73819D02*
D03*
X-71850D02*
D03*
X-75787Y143701D02*
D03*
X-73819D02*
D03*
X-71850D02*
D03*
X-75787Y141732D02*
D03*
X-73819D02*
D03*
X-71850D02*
D03*
D77*
X47244Y265827D02*
D03*
Y255827D02*
D03*
D78*
X50244Y260827D02*
D03*
X44244D02*
D03*
D79*
X-31988Y43898D02*
D03*
Y41339D02*
D03*
Y38780D02*
D03*
X-23130D02*
D03*
Y43898D02*
D03*
D80*
X-92520Y90551D02*
D03*
Y106299D02*
D03*
Y98425D02*
D03*
X-74803Y299213D02*
D03*
Y291339D02*
D03*
D81*
X65945Y187480D02*
D03*
D82*
X75945D02*
D03*
X65945Y177480D02*
D03*
X75945D02*
D03*
X65945Y167480D02*
D03*
X75945D02*
D03*
X65945Y157480D02*
D03*
X75945D02*
D03*
X65945Y147480D02*
D03*
X75945D02*
D03*
X65945Y137480D02*
D03*
X75945D02*
D03*
X65945Y127480D02*
D03*
X75945D02*
D03*
D83*
X95000Y7874D02*
D03*
D84*
X85000D02*
D03*
X75000D02*
D03*
X65000D02*
D03*
X55000D02*
D03*
X45000D02*
D03*
X35000D02*
D03*
X25000D02*
D03*
X15000D02*
D03*
X5000D02*
D03*
X-5000D02*
D03*
X-15000D02*
D03*
X-25000D02*
D03*
X-35000D02*
D03*
X-45000D02*
D03*
X-55000D02*
D03*
X-65000D02*
D03*
X-75000D02*
D03*
X-85000D02*
D03*
X-95000D02*
D03*
Y17874D02*
D03*
X-85000D02*
D03*
X-75000D02*
D03*
X-65000D02*
D03*
X-55000D02*
D03*
X-45000D02*
D03*
X-35000D02*
D03*
X-25000D02*
D03*
X-15000D02*
D03*
X-5000D02*
D03*
X5000D02*
D03*
X15000D02*
D03*
X25000D02*
D03*
X35000D02*
D03*
X45000D02*
D03*
X55000D02*
D03*
X65000D02*
D03*
X75000D02*
D03*
X85000D02*
D03*
X95000D02*
D03*
D85*
X-47244Y275591D02*
D03*
X-31496D02*
D03*
X-39370D02*
D03*
D86*
X-92519Y184645D02*
D03*
Y248425D02*
D03*
D87*
X-87598Y216535D02*
D03*
X-97441D02*
D03*
Y200787D02*
D03*
X-87598D02*
D03*
Y232283D02*
D03*
X-97441D02*
D03*
D88*
X-97441Y53150D02*
D03*
X97441D02*
D03*
X-97441Y275591D02*
D03*
X97441D02*
D03*
D89*
X41607Y125984D02*
D03*
X45007D02*
D03*
D90*
X-31496Y203740D02*
D03*
X27165Y224410D02*
D03*
Y228740D02*
D03*
X31496D02*
D03*
Y224410D02*
D03*
X27165Y220079D02*
D03*
X35827Y224410D02*
D03*
X31496Y220079D02*
D03*
X35827Y228740D02*
D03*
Y220079D02*
D03*
X73819Y215551D02*
D03*
X34449Y204725D02*
D03*
X81693Y198819D02*
D03*
X51181Y217520D02*
D03*
X-22638Y193898D02*
D03*
X-5906Y187008D02*
D03*
X-68898Y100394D02*
D03*
X-63976Y96457D02*
D03*
X-18701Y87599D02*
D03*
X-29528Y112205D02*
D03*
X-59055Y99410D02*
D03*
X-25591Y106299D02*
D03*
X-27559Y103347D02*
D03*
X-32480Y64961D02*
D03*
X-984Y57087D02*
D03*
X-2953Y68898D02*
D03*
X-3937Y71851D02*
D03*
X-2953Y65945D02*
D03*
X-25591Y60039D02*
D03*
X-21654D02*
D03*
X-27559Y109252D02*
D03*
X-44291Y103347D02*
D03*
Y109252D02*
D03*
X-46260Y106299D02*
D03*
X-29528Y100394D02*
D03*
X-46260D02*
D03*
X-77756Y132874D02*
D03*
X-74803Y130906D02*
D03*
X-76772Y96457D02*
D03*
X-74803Y134843D02*
D03*
X-76772Y162402D02*
D03*
X-66929Y145669D02*
D03*
X-84646Y117126D02*
D03*
X-4921Y104331D02*
D03*
X7874Y121063D02*
D03*
X-54134Y194882D02*
D03*
Y202756D02*
D03*
X-52165Y211614D02*
D03*
X-49213D02*
D03*
X-46260Y217520D02*
D03*
X-34449D02*
D03*
X0Y104331D02*
D03*
X9843Y101378D02*
D03*
X15748Y107283D02*
D03*
X-27559Y71850D02*
D03*
X27559Y37402D02*
D03*
X7874Y35433D02*
D03*
X16732D02*
D03*
X2953Y35433D02*
D03*
X22638Y25591D02*
D03*
X31496Y33465D02*
D03*
X10827Y79725D02*
D03*
X76772Y57087D02*
D03*
Y64961D02*
D03*
X62992Y67913D02*
D03*
Y71850D02*
D03*
X20669Y43307D02*
D03*
X45276Y25591D02*
D03*
X49213D02*
D03*
X53150D02*
D03*
X64961Y33465D02*
D03*
X79724Y25591D02*
D03*
X75787D02*
D03*
X71850D02*
D03*
X61024Y51181D02*
D03*
X4921Y43307D02*
D03*
X62992Y95473D02*
D03*
X56102Y81693D02*
D03*
Y95473D02*
D03*
X10827Y83662D02*
D03*
X-32480Y34449D02*
D03*
X10827Y75788D02*
D03*
X8858Y56102D02*
D03*
X60039Y2953D02*
D03*
X-29528Y24606D02*
D03*
X-59055Y41339D02*
D03*
X-69882Y208662D02*
D03*
Y216535D02*
D03*
Y224410D02*
D03*
Y232283D02*
D03*
Y240158D02*
D03*
X-8858Y208662D02*
D03*
Y216535D02*
D03*
Y224410D02*
D03*
X-43307Y229331D02*
D03*
X77756Y240158D02*
D03*
X62008Y245079D02*
D03*
X65945Y208662D02*
D03*
X67913Y212598D02*
D03*
X34449Y193898D02*
D03*
X52165D02*
D03*
X50197Y185039D02*
D03*
Y177165D02*
D03*
X-60039Y160433D02*
D03*
X-62992Y181102D02*
D03*
X-56102Y140748D02*
D03*
X-24606D02*
D03*
X-35433Y127953D02*
D03*
X-56102Y125000D02*
D03*
X-24606D02*
D03*
X66929Y95473D02*
D03*
X58071Y109252D02*
D03*
X52165Y240158D02*
D03*
X40354Y224410D02*
D03*
Y228346D02*
D03*
X11811Y248032D02*
D03*
Y255906D02*
D03*
X12795Y201772D02*
D03*
X-35433Y143701D02*
D03*
X35433Y50197D02*
D03*
X68898Y33465D02*
D03*
X31496Y50197D02*
D03*
X14764Y62008D02*
D03*
X18701D02*
D03*
X30512Y67913D02*
D03*
X26575D02*
D03*
X28543Y70866D02*
D03*
X20669Y68898D02*
D03*
X28543Y92520D02*
D03*
X16732D02*
D03*
X20669Y72835D02*
D03*
X22638Y89567D02*
D03*
X62992D02*
D03*
X56102Y86614D02*
D03*
X12795Y218504D02*
D03*
X25591Y90551D02*
D03*
X19685D02*
D03*
X-2953Y74803D02*
D03*
Y77756D02*
D03*
X29528Y62008D02*
D03*
X43307Y63976D02*
D03*
X72835Y53150D02*
D03*
X68898Y57087D02*
D03*
X43307Y61024D02*
D03*
X42323Y66929D02*
D03*
X35433Y85630D02*
D03*
X34449Y67913D02*
D03*
X32480Y75788D02*
D03*
X31496Y83662D02*
D03*
X25591Y80709D02*
D03*
X13780Y77756D02*
D03*
X0Y100394D02*
D03*
X-37402Y225394D02*
D03*
X-69882Y196850D02*
D03*
X-54134Y160433D02*
D03*
X-51181Y163386D02*
D03*
X-42323Y172244D02*
D03*
X-48228Y166339D02*
D03*
X-50197Y198819D02*
D03*
X-54134D02*
D03*
X-45276Y169291D02*
D03*
X-39370Y175197D02*
D03*
X-36417Y178150D02*
D03*
X-33465Y181102D02*
D03*
X-39370Y219488D02*
D03*
X13780Y154528D02*
D03*
X39370Y149606D02*
D03*
Y145669D02*
D03*
X6890Y150591D02*
D03*
X13780D02*
D03*
X6890Y154528D02*
D03*
X-11811Y160433D02*
D03*
X-7874Y172244D02*
D03*
X-5906Y175197D02*
D03*
X-7874Y178150D02*
D03*
X-5906Y169291D02*
D03*
Y181102D02*
D03*
X-3937Y184055D02*
D03*
X-30512D02*
D03*
X10827Y181102D02*
D03*
X25591Y178150D02*
D03*
X3937Y232283D02*
D03*
X-9843Y163386D02*
D03*
X-7874Y166339D02*
D03*
X-72835Y84646D02*
D03*
X-68898Y96457D02*
D03*
X-72835Y100394D02*
D03*
X-100394Y179134D02*
D03*
X-104331Y147638D02*
D03*
X-72835Y106299D02*
D03*
X-104331Y112205D02*
D03*
X-92520Y117126D02*
D03*
X-94488Y114173D02*
D03*
X-81693Y106299D02*
D03*
X52165Y138780D02*
D03*
X-56102Y24606D02*
D03*
X-88583Y156496D02*
D03*
X-104331Y76772D02*
D03*
X-92520Y137795D02*
D03*
X-52165Y62008D02*
D03*
X-38386D02*
D03*
X17717Y66929D02*
D03*
X44291Y87599D02*
D03*
Y92520D02*
D03*
Y96457D02*
D03*
X66929Y43307D02*
D03*
X-24606Y82677D02*
D03*
X-30512D02*
D03*
X51673Y222638D02*
D03*
X35433Y38386D02*
D03*
X35925Y42323D02*
D03*
Y46260D02*
D03*
X82677Y227362D02*
D03*
D91*
X41339Y119095D02*
D03*
X51673Y226378D02*
D03*
M02*
