%FSLAX25Y25*%
%MOIN*%
G70*
G01*
G75*
G04 Layer_Color=32896*
%ADD10C,0.00492*%
%ADD11R,0.03937X0.01811*%
%ADD12R,0.01811X0.01811*%
%ADD13R,0.13386X0.13386*%
%ADD14O,0.00787X0.02559*%
%ADD15O,0.02559X0.00787*%
%ADD16R,0.02835X0.03937*%
%ADD17R,0.03937X0.02835*%
%ADD18R,0.04134X0.04528*%
%ADD19O,0.01772X0.05512*%
%ADD20R,0.03740X0.02559*%
%ADD21R,0.03150X0.02165*%
%ADD22R,0.02559X0.03740*%
%ADD23R,0.03937X0.02362*%
G04:AMPARAMS|DCode=24|XSize=118.11mil|YSize=118.11mil|CornerRadius=0mil|HoleSize=0mil|Usage=FLASHONLY|Rotation=270.000|XOffset=0mil|YOffset=0mil|HoleType=Round|Shape=Octagon|*
%AMOCTAGOND24*
4,1,8,-0.02953,-0.05906,0.02953,-0.05906,0.05906,-0.02953,0.05906,0.02953,0.02953,0.05906,-0.02953,0.05906,-0.05906,0.02953,-0.05906,-0.02953,-0.02953,-0.05906,0.0*
%
%ADD24OCTAGOND24*%

%ADD25R,0.02362X0.03937*%
%ADD26R,0.05512X0.03543*%
%ADD27O,0.01181X0.05512*%
%ADD28O,0.05512X0.01181*%
%ADD29O,0.05709X0.01181*%
%ADD30O,0.01181X0.05709*%
%ADD31R,0.06496X0.04724*%
%ADD32C,0.01142*%
%ADD33R,0.01378X0.03740*%
%ADD34R,0.02953X0.06496*%
%ADD35R,0.03347X0.01575*%
%ADD36C,0.00984*%
%ADD37C,0.01969*%
%ADD38C,0.00500*%
%ADD39C,0.01575*%
%ADD40C,0.00787*%
%ADD41C,0.01000*%
%ADD42O,0.09843X0.05906*%
%ADD43R,0.07874X0.07874*%
%ADD44C,0.07874*%
%ADD45R,0.05906X0.05906*%
%ADD46C,0.05906*%
%ADD47O,0.05906X0.09843*%
%ADD48C,0.11811*%
%ADD49O,0.07874X0.11811*%
%ADD50C,0.19685*%
%ADD51O,0.01969X0.03937*%
%ADD52C,0.01969*%
%ADD53R,0.01969X0.04921*%
%ADD54C,0.00394*%
%ADD55C,0.02362*%
%ADD56C,0.00591*%
%ADD57R,0.14186X0.14186*%
%ADD58O,0.01587X0.03359*%
%ADD59O,0.03359X0.01587*%
%ADD60R,0.03635X0.04737*%
%ADD61R,0.04737X0.03635*%
%ADD62R,0.04934X0.05328*%
%ADD63O,0.02572X0.06312*%
%ADD64R,0.04540X0.03359*%
%ADD65R,0.03950X0.02965*%
%ADD66R,0.03359X0.04540*%
%ADD67R,0.04737X0.03162*%
G04:AMPARAMS|DCode=68|XSize=126.11mil|YSize=126.11mil|CornerRadius=0mil|HoleSize=0mil|Usage=FLASHONLY|Rotation=270.000|XOffset=0mil|YOffset=0mil|HoleType=Round|Shape=Octagon|*
%AMOCTAGOND68*
4,1,8,-0.03153,-0.06306,0.03153,-0.06306,0.06306,-0.03153,0.06306,0.03153,0.03153,0.06306,-0.03153,0.06306,-0.06306,0.03153,-0.06306,-0.03153,-0.03153,-0.06306,0.0*
%
%ADD68OCTAGOND68*%

%ADD69R,0.03162X0.04737*%
%ADD70R,0.06312X0.04343*%
%ADD71O,0.01981X0.06312*%
%ADD72O,0.06312X0.01981*%
%ADD73O,0.06509X0.01981*%
%ADD74O,0.01981X0.06509*%
%ADD75R,0.07296X0.05524*%
%ADD76C,0.01535*%
%ADD77R,0.01772X0.04134*%
%ADD78R,0.03347X0.06890*%
%ADD79R,0.03819X0.02047*%
%ADD80O,0.10642X0.06706*%
%ADD81R,0.08674X0.08674*%
%ADD82C,0.08674*%
%ADD83R,0.06706X0.06706*%
%ADD84C,0.06706*%
%ADD85O,0.06706X0.10642*%
%ADD86C,0.12611*%
%ADD87O,0.08674X0.12611*%
%ADD88C,0.20485*%
%ADD89O,0.02769X0.04737*%
%ADD90C,0.02559*%
%ADD91C,0.02769*%
G36*
X96800Y239655D02*
X96992Y239616D01*
X97161Y239563D01*
X97307Y239501D01*
X97422Y239440D01*
X97460Y239409D01*
X97499Y239386D01*
X97529Y239363D01*
X97552Y239348D01*
X97560Y239340D01*
X97568Y239332D01*
X97637Y239263D01*
X97691Y239194D01*
X97744Y239117D01*
X97783Y239033D01*
X97852Y238872D01*
X97898Y238710D01*
X97921Y238564D01*
X97936Y238503D01*
Y238449D01*
X97944Y238403D01*
Y238372D01*
Y238349D01*
Y238341D01*
Y236836D01*
X98843D01*
Y239501D01*
X99756D01*
Y235915D01*
X97038D01*
Y238341D01*
X97030Y238403D01*
X97015Y238464D01*
X96992Y238510D01*
X96969Y238557D01*
X96946Y238595D01*
X96923Y238618D01*
X96907Y238633D01*
X96899Y238641D01*
X96846Y238679D01*
X96792Y238710D01*
X96738Y238733D01*
X96692Y238749D01*
X96646Y238756D01*
X96615Y238764D01*
X96585D01*
X96523Y238756D01*
X96462Y238749D01*
X96423Y238733D01*
X96416Y238725D01*
X96408D01*
X96347Y238695D01*
X96301Y238672D01*
X96270Y238641D01*
X96254Y238633D01*
X96208Y238587D01*
X96178Y238541D01*
X96155Y238510D01*
X96147Y238495D01*
X96124Y238441D01*
X96116Y238395D01*
X96109Y238357D01*
Y238349D01*
Y238341D01*
Y235915D01*
X95202D01*
Y238341D01*
X95210Y238449D01*
X95218Y238549D01*
X95233Y238641D01*
X95256Y238718D01*
X95279Y238787D01*
X95294Y238833D01*
X95302Y238872D01*
X95310Y238879D01*
X95356Y238971D01*
X95402Y239048D01*
X95448Y239117D01*
X95494Y239186D01*
X95540Y239232D01*
X95571Y239271D01*
X95594Y239294D01*
X95602Y239301D01*
X95671Y239363D01*
X95748Y239417D01*
X95824Y239463D01*
X95893Y239501D01*
X95947Y239532D01*
X96001Y239555D01*
X96032Y239563D01*
X96039Y239570D01*
X96139Y239601D01*
X96231Y239632D01*
X96324Y239647D01*
X96400Y239655D01*
X96477Y239663D01*
X96531Y239670D01*
X96692D01*
X96800Y239655D01*
D02*
G37*
G36*
X98336Y235416D02*
X98459Y235400D01*
X98574Y235377D01*
X98674Y235354D01*
X98750Y235323D01*
X98812Y235300D01*
X98850Y235285D01*
X98866Y235277D01*
X98973Y235216D01*
X99065Y235154D01*
X99150Y235093D01*
X99227Y235031D01*
X99280Y234978D01*
X99326Y234932D01*
X99349Y234901D01*
X99357Y234893D01*
X99426Y234801D01*
X99488Y234717D01*
X99534Y234624D01*
X99572Y234540D01*
X99611Y234471D01*
X99634Y234417D01*
X99641Y234379D01*
X99649Y234363D01*
X99687Y234248D01*
X99710Y234141D01*
X99734Y234025D01*
X99741Y233926D01*
X99749Y233833D01*
X99756Y233764D01*
Y233718D01*
Y233711D01*
Y233703D01*
X98843D01*
Y233780D01*
X98835Y233856D01*
X98827Y233918D01*
X98820Y233964D01*
X98812Y234010D01*
X98804Y234041D01*
X98796Y234056D01*
Y234064D01*
X98766Y234156D01*
X98727Y234233D01*
X98697Y234279D01*
X98681Y234286D01*
Y234294D01*
X98620Y234356D01*
X98551Y234402D01*
X98505Y234432D01*
X98489Y234440D01*
X98482D01*
X98389Y234478D01*
X98297Y234494D01*
X98259Y234502D01*
X95202D01*
Y235423D01*
X98198D01*
X98336Y235416D01*
D02*
G37*
G36*
X97706Y233396D02*
X97898Y233373D01*
X98075Y233349D01*
X98243Y233311D01*
X98397Y233257D01*
X98543Y233204D01*
X98681Y233142D01*
X98804Y233065D01*
X98919Y232989D01*
X99019Y232912D01*
X99119Y232827D01*
X99203Y232735D01*
X99280Y232643D01*
X99357Y232551D01*
X99472Y232351D01*
X99564Y232159D01*
X99641Y231975D01*
X99687Y231798D01*
X99718Y231645D01*
X99741Y231514D01*
X99749Y231460D01*
Y231414D01*
X99756Y231376D01*
Y231345D01*
Y231330D01*
Y231322D01*
Y231284D01*
X99749Y231092D01*
X99734Y230915D01*
X99703Y230754D01*
X99657Y230600D01*
X99611Y230454D01*
X99549Y230324D01*
X99480Y230201D01*
X99403Y230085D01*
X99319Y229978D01*
X99234Y229886D01*
X99142Y229794D01*
X99042Y229717D01*
X98835Y229579D01*
X98628Y229464D01*
X98420Y229379D01*
X98213Y229317D01*
X98021Y229272D01*
X97852Y229233D01*
X97775Y229225D01*
X97706Y229218D01*
X97645Y229210D01*
X97598D01*
X97552Y229202D01*
X97475D01*
X97268Y229210D01*
X97076Y229225D01*
X96892Y229256D01*
X96723Y229294D01*
X96569Y229341D01*
X96423Y229394D01*
X96285Y229456D01*
X96162Y229525D01*
X96047Y229602D01*
X95939Y229686D01*
X95847Y229771D01*
X95755Y229863D01*
X95678Y229955D01*
X95609Y230047D01*
X95486Y230247D01*
X95394Y230439D01*
X95325Y230623D01*
X95271Y230800D01*
X95241Y230961D01*
X95218Y231092D01*
X95210Y231145D01*
Y231191D01*
X95202Y231230D01*
Y231261D01*
Y231276D01*
Y231284D01*
Y231322D01*
X95210Y231514D01*
X95225Y231691D01*
X95256Y231852D01*
X95302Y232006D01*
X95348Y232152D01*
X95410Y232290D01*
X95479Y232413D01*
X95556Y232528D01*
X95640Y232628D01*
X95732Y232727D01*
X95824Y232812D01*
X95924Y232896D01*
X96124Y233035D01*
X96339Y233142D01*
X96554Y233227D01*
X96754Y233296D01*
X96946Y233342D01*
X97122Y233373D01*
X97199Y233380D01*
X97268Y233388D01*
X97330Y233396D01*
X97376Y233403D01*
X97499D01*
X97706Y233396D01*
D02*
G37*
G36*
X-77095Y57603D02*
X-79743D01*
X-79810Y57596D01*
X-79851Y57582D01*
X-79877Y57569D01*
X-79884Y57562D01*
X-79911Y57529D01*
X-79924Y57495D01*
X-79931Y57468D01*
Y57455D01*
X-79924Y57408D01*
X-79904Y57367D01*
X-79884Y57341D01*
X-79877Y57327D01*
X-79837Y57280D01*
X-79790Y57253D01*
X-79756Y57233D01*
X-79750Y57226D01*
X-79743D01*
X-77640Y56312D01*
X-77559Y56272D01*
X-77485Y56239D01*
X-77418Y56198D01*
X-77364Y56165D01*
X-77324Y56138D01*
X-77297Y56111D01*
X-77277Y56097D01*
X-77270Y56091D01*
X-77183Y56003D01*
X-77122Y55923D01*
X-77102Y55889D01*
X-77082Y55862D01*
X-77075Y55849D01*
X-77068Y55842D01*
X-77021Y55748D01*
X-76988Y55667D01*
X-76981Y55634D01*
X-76974Y55607D01*
X-76968Y55593D01*
Y55587D01*
X-76954Y55499D01*
X-76947Y55425D01*
Y55398D01*
Y55378D01*
Y55365D01*
Y55358D01*
X-76961Y55210D01*
X-76988Y55076D01*
X-77028Y54962D01*
X-77075Y54861D01*
X-77122Y54787D01*
X-77162Y54726D01*
X-77189Y54693D01*
X-77203Y54679D01*
X-77310Y54592D01*
X-77431Y54525D01*
X-77552Y54485D01*
X-77673Y54451D01*
X-77788Y54431D01*
X-77834Y54424D01*
X-77875D01*
X-77908Y54417D01*
X-80630D01*
Y55204D01*
X-77935D01*
X-77881Y55210D01*
X-77841Y55224D01*
X-77814Y55237D01*
X-77808Y55244D01*
X-77774Y55278D01*
X-77761Y55318D01*
X-77754Y55351D01*
Y55365D01*
X-77761Y55405D01*
X-77774Y55445D01*
X-77788Y55472D01*
X-77794Y55479D01*
X-77834Y55519D01*
X-77881Y55553D01*
X-77922Y55580D01*
X-77929Y55587D01*
X-77935D01*
X-80092Y56527D01*
X-80166Y56561D01*
X-80234Y56601D01*
X-80287Y56642D01*
X-80334Y56675D01*
X-80375Y56702D01*
X-80401Y56729D01*
X-80422Y56743D01*
X-80428Y56749D01*
X-80475Y56796D01*
X-80516Y56850D01*
X-80576Y56931D01*
X-80596Y56964D01*
X-80610Y56991D01*
X-80623Y57005D01*
Y57011D01*
X-80664Y57105D01*
X-80690Y57193D01*
X-80697Y57220D01*
X-80704Y57247D01*
Y57260D01*
Y57267D01*
X-80711Y57347D01*
X-80717Y57408D01*
Y57441D01*
Y57455D01*
X-80704Y57603D01*
X-80677Y57737D01*
X-80637Y57851D01*
X-80596Y57952D01*
X-80549Y58026D01*
X-80509Y58087D01*
X-80482Y58120D01*
X-80469Y58134D01*
X-80368Y58221D01*
X-80247Y58288D01*
X-80119Y58335D01*
X-79998Y58369D01*
X-79891Y58389D01*
X-79844Y58396D01*
X-79797D01*
X-79763Y58402D01*
X-77095D01*
Y57603D01*
D02*
G37*
G36*
X-67002Y58396D02*
X-66847Y58382D01*
X-66706Y58355D01*
X-66572Y58315D01*
X-66444Y58275D01*
X-66330Y58221D01*
X-66222Y58160D01*
X-66122Y58093D01*
X-66027Y58019D01*
X-65947Y57945D01*
X-65866Y57865D01*
X-65799Y57777D01*
X-65678Y57596D01*
X-65577Y57415D01*
X-65503Y57233D01*
X-65450Y57052D01*
X-65409Y56884D01*
X-65376Y56736D01*
X-65369Y56669D01*
X-65362Y56608D01*
X-65355Y56554D01*
Y56514D01*
X-65349Y56474D01*
Y56447D01*
Y56433D01*
Y56427D01*
Y56406D01*
X-65355Y56225D01*
X-65369Y56057D01*
X-65396Y55896D01*
X-65429Y55748D01*
X-65470Y55613D01*
X-65517Y55486D01*
X-65570Y55365D01*
X-65631Y55257D01*
X-65698Y55157D01*
X-65772Y55063D01*
X-65846Y54982D01*
X-65927Y54901D01*
X-66007Y54834D01*
X-66088Y54773D01*
X-66263Y54666D01*
X-66431Y54585D01*
X-66592Y54525D01*
X-66746Y54478D01*
X-66888Y54451D01*
X-67002Y54431D01*
X-67049Y54424D01*
X-67089D01*
X-67123Y54417D01*
X-67472D01*
X-67640Y54424D01*
X-67795Y54438D01*
X-67936Y54464D01*
X-68070Y54505D01*
X-68198Y54545D01*
X-68312Y54599D01*
X-68420Y54659D01*
X-68521Y54726D01*
X-68615Y54800D01*
X-68695Y54881D01*
X-68776Y54962D01*
X-68843Y55049D01*
X-68964Y55224D01*
X-69058Y55412D01*
X-69132Y55600D01*
X-69193Y55775D01*
X-69233Y55943D01*
X-69260Y56097D01*
X-69266Y56165D01*
X-69273Y56225D01*
X-69280Y56279D01*
X-69287Y56319D01*
Y56359D01*
Y56386D01*
Y56400D01*
Y56406D01*
Y56427D01*
X-69280Y56608D01*
X-69266Y56776D01*
X-69240Y56931D01*
X-69206Y57078D01*
X-69166Y57213D01*
X-69112Y57341D01*
X-69058Y57462D01*
X-68998Y57569D01*
X-68931Y57670D01*
X-68857Y57757D01*
X-68783Y57845D01*
X-68702Y57919D01*
X-68621Y57986D01*
X-68541Y58053D01*
X-68373Y58154D01*
X-68205Y58234D01*
X-68037Y58302D01*
X-67882Y58342D01*
X-67748Y58369D01*
X-67633Y58389D01*
X-67586Y58396D01*
X-67546D01*
X-67513Y58402D01*
X-67170D01*
X-67002Y58396D01*
D02*
G37*
G36*
X-69670Y54417D02*
X-70476D01*
Y56024D01*
X-71666D01*
X-71786Y56030D01*
X-71901Y56037D01*
X-72001Y56057D01*
X-72089Y56077D01*
X-72156Y56091D01*
X-72210Y56111D01*
X-72237Y56117D01*
X-72250Y56124D01*
X-72338Y56165D01*
X-72418Y56212D01*
X-72485Y56252D01*
X-72546Y56299D01*
X-72593Y56333D01*
X-72627Y56366D01*
X-72647Y56386D01*
X-72653Y56393D01*
X-72707Y56460D01*
X-72754Y56527D01*
X-72795Y56595D01*
X-72821Y56655D01*
X-72848Y56709D01*
X-72862Y56749D01*
X-72875Y56776D01*
Y56783D01*
X-72916Y56937D01*
X-72929Y57011D01*
X-72936Y57078D01*
X-72942Y57132D01*
Y57173D01*
Y57200D01*
Y57206D01*
Y57293D01*
X-72929Y57381D01*
X-72922Y57455D01*
X-72909Y57529D01*
X-72895Y57582D01*
X-72882Y57623D01*
X-72875Y57656D01*
X-72868Y57663D01*
X-72842Y57744D01*
X-72808Y57811D01*
X-72768Y57878D01*
X-72727Y57932D01*
X-72694Y57979D01*
X-72667Y58013D01*
X-72647Y58033D01*
X-72640Y58039D01*
X-72579Y58100D01*
X-72512Y58154D01*
X-72445Y58194D01*
X-72378Y58234D01*
X-72324Y58261D01*
X-72277Y58281D01*
X-72250Y58295D01*
X-72237Y58302D01*
X-72143Y58335D01*
X-72049Y58362D01*
X-71948Y58376D01*
X-71860Y58389D01*
X-71780Y58396D01*
X-71719Y58402D01*
X-69670D01*
Y54417D01*
D02*
G37*
G36*
X-74434Y58396D02*
X-74327Y58389D01*
X-74233Y58376D01*
X-74145Y58355D01*
X-74078Y58335D01*
X-74024Y58322D01*
X-73997Y58315D01*
X-73984Y58308D01*
X-73897Y58275D01*
X-73816Y58234D01*
X-73749Y58194D01*
X-73695Y58154D01*
X-73648Y58113D01*
X-73608Y58087D01*
X-73588Y58066D01*
X-73581Y58060D01*
X-73527Y57999D01*
X-73480Y57932D01*
X-73440Y57865D01*
X-73406Y57811D01*
X-73379Y57757D01*
X-73359Y57717D01*
X-73352Y57683D01*
X-73346Y57677D01*
X-73319Y57596D01*
X-73305Y57515D01*
X-73292Y57435D01*
X-73278Y57361D01*
Y57300D01*
X-73272Y57247D01*
Y57220D01*
Y57206D01*
X-73278Y57126D01*
X-73285Y57038D01*
X-73305Y56964D01*
X-73325Y56897D01*
X-73339Y56837D01*
X-73359Y56789D01*
X-73366Y56763D01*
X-73372Y56749D01*
X-73413Y56669D01*
X-73466Y56601D01*
X-73514Y56541D01*
X-73567Y56494D01*
X-73614Y56460D01*
X-73655Y56440D01*
X-73681Y56427D01*
X-73688Y56420D01*
X-73614Y56380D01*
X-73547Y56333D01*
X-73493Y56279D01*
X-73453Y56225D01*
X-73413Y56178D01*
X-73393Y56138D01*
X-73379Y56111D01*
X-73372Y56097D01*
X-73339Y56010D01*
X-73312Y55929D01*
X-73299Y55849D01*
X-73285Y55775D01*
X-73278Y55714D01*
X-73272Y55661D01*
Y55634D01*
Y55620D01*
X-73285Y55452D01*
X-73292Y55378D01*
X-73305Y55311D01*
X-73319Y55257D01*
X-73325Y55217D01*
X-73339Y55184D01*
Y55177D01*
X-73366Y55103D01*
X-73399Y55029D01*
X-73440Y54962D01*
X-73473Y54908D01*
X-73507Y54861D01*
X-73527Y54827D01*
X-73547Y54800D01*
X-73554Y54794D01*
X-73614Y54733D01*
X-73681Y54679D01*
X-73749Y54632D01*
X-73816Y54592D01*
X-73870Y54558D01*
X-73917Y54538D01*
X-73944Y54525D01*
X-73957Y54518D01*
X-74051Y54485D01*
X-74159Y54458D01*
X-74253Y54444D01*
X-74347Y54431D01*
X-74434Y54424D01*
X-74495Y54417D01*
X-76544D01*
Y55204D01*
X-74448D01*
X-74387Y55210D01*
X-74333Y55224D01*
X-74286Y55237D01*
X-74246Y55264D01*
X-74212Y55284D01*
X-74192Y55298D01*
X-74179Y55311D01*
X-74172Y55318D01*
X-74138Y55365D01*
X-74112Y55419D01*
X-74092Y55472D01*
X-74078Y55519D01*
X-74071Y55567D01*
X-74065Y55600D01*
Y55627D01*
Y55634D01*
X-74071Y55687D01*
X-74085Y55734D01*
X-74092Y55761D01*
X-74098Y55775D01*
X-74125Y55829D01*
X-74152Y55869D01*
X-74172Y55896D01*
X-74179Y55902D01*
X-74219Y55936D01*
X-74260Y55970D01*
X-74286Y55983D01*
X-74300Y55990D01*
X-74353Y56010D01*
X-74401Y56017D01*
X-74434Y56024D01*
X-76544D01*
Y56816D01*
X-74448D01*
X-74387Y56823D01*
X-74333Y56837D01*
X-74286Y56850D01*
X-74246Y56877D01*
X-74212Y56897D01*
X-74192Y56911D01*
X-74179Y56924D01*
X-74172Y56931D01*
X-74138Y56978D01*
X-74112Y57025D01*
X-74092Y57072D01*
X-74078Y57112D01*
X-74071Y57152D01*
X-74065Y57186D01*
Y57206D01*
Y57213D01*
X-74071Y57273D01*
X-74085Y57320D01*
X-74092Y57347D01*
X-74098Y57361D01*
X-74125Y57415D01*
X-74152Y57455D01*
X-74172Y57482D01*
X-74179Y57488D01*
X-74219Y57522D01*
X-74260Y57549D01*
X-74286Y57562D01*
X-74300Y57569D01*
X-74353Y57589D01*
X-74401Y57596D01*
X-74434Y57603D01*
X-76544D01*
Y58402D01*
X-74555D01*
X-74434Y58396D01*
D02*
G37*
G36*
X99756Y205863D02*
X99749Y205725D01*
X99741Y205602D01*
X99726Y205494D01*
X99703Y205394D01*
X99680Y205317D01*
X99664Y205256D01*
X99657Y205225D01*
X99649Y205210D01*
X99611Y205110D01*
X99564Y205018D01*
X99518Y204941D01*
X99472Y204880D01*
X99426Y204826D01*
X99396Y204780D01*
X99373Y204757D01*
X99365Y204749D01*
X99296Y204688D01*
X99219Y204634D01*
X99142Y204588D01*
X99081Y204550D01*
X99019Y204519D01*
X98973Y204496D01*
X98935Y204488D01*
X98927Y204480D01*
X98835Y204450D01*
X98743Y204434D01*
X98651Y204419D01*
X98566Y204404D01*
X98497D01*
X98435Y204396D01*
X98389D01*
X98297Y204404D01*
X98198Y204411D01*
X98113Y204434D01*
X98036Y204457D01*
X97967Y204473D01*
X97913Y204496D01*
X97883Y204503D01*
X97867Y204511D01*
X97775Y204557D01*
X97698Y204619D01*
X97629Y204672D01*
X97575Y204734D01*
X97537Y204788D01*
X97514Y204834D01*
X97499Y204864D01*
X97491Y204872D01*
X97445Y204788D01*
X97391Y204711D01*
X97330Y204649D01*
X97268Y204603D01*
X97214Y204557D01*
X97168Y204534D01*
X97138Y204519D01*
X97122Y204511D01*
X97022Y204473D01*
X96930Y204442D01*
X96838Y204427D01*
X96754Y204411D01*
X96684Y204404D01*
X96623Y204396D01*
X96577D01*
X96385Y204411D01*
X96301Y204419D01*
X96224Y204434D01*
X96162Y204450D01*
X96116Y204457D01*
X96078Y204473D01*
X96070D01*
X95986Y204503D01*
X95901Y204542D01*
X95824Y204588D01*
X95763Y204626D01*
X95709Y204665D01*
X95671Y204688D01*
X95640Y204711D01*
X95632Y204718D01*
X95563Y204788D01*
X95502Y204864D01*
X95448Y204941D01*
X95402Y205018D01*
X95363Y205079D01*
X95341Y205133D01*
X95325Y205164D01*
X95317Y205179D01*
X95279Y205287D01*
X95248Y205410D01*
X95233Y205517D01*
X95218Y205625D01*
X95210Y205725D01*
X95202Y205794D01*
Y205824D01*
Y205847D01*
Y205855D01*
Y205863D01*
Y208136D01*
X96101D01*
Y205740D01*
X96109Y205671D01*
X96124Y205609D01*
X96139Y205556D01*
X96170Y205509D01*
X96193Y205471D01*
X96208Y205448D01*
X96224Y205433D01*
X96231Y205425D01*
X96285Y205387D01*
X96347Y205356D01*
X96408Y205333D01*
X96462Y205317D01*
X96516Y205310D01*
X96554Y205302D01*
X96592D01*
X96654Y205310D01*
X96707Y205325D01*
X96738Y205333D01*
X96754Y205341D01*
X96815Y205371D01*
X96861Y205402D01*
X96892Y205425D01*
X96899Y205433D01*
X96938Y205479D01*
X96976Y205525D01*
X96992Y205556D01*
X96999Y205571D01*
X97022Y205632D01*
X97030Y205686D01*
X97038Y205725D01*
Y205732D01*
Y205740D01*
Y208136D01*
X97944D01*
Y205740D01*
X97952Y205671D01*
X97967Y205609D01*
X97982Y205556D01*
X98013Y205509D01*
X98036Y205471D01*
X98052Y205448D01*
X98067Y205433D01*
X98075Y205425D01*
X98128Y205387D01*
X98182Y205356D01*
X98236Y205333D01*
X98282Y205317D01*
X98328Y205310D01*
X98366Y205302D01*
X98397D01*
X98466Y205310D01*
X98520Y205325D01*
X98551Y205333D01*
X98566Y205341D01*
X98628Y205371D01*
X98674Y205402D01*
X98704Y205425D01*
X98712Y205433D01*
X98750Y205479D01*
X98781Y205525D01*
X98796Y205556D01*
X98804Y205571D01*
X98827Y205632D01*
X98835Y205686D01*
X98843Y205725D01*
Y205732D01*
Y205740D01*
Y208136D01*
X99756D01*
Y205863D01*
D02*
G37*
G36*
X96101Y202614D02*
X96116Y202430D01*
X96147Y202276D01*
X96185Y202138D01*
X96239Y202023D01*
X96293Y201931D01*
X96331Y201869D01*
X96362Y201831D01*
X96377Y201816D01*
X96492Y201723D01*
X96615Y201654D01*
X96754Y201600D01*
X96884Y201570D01*
X96999Y201547D01*
X97045Y201539D01*
X97092D01*
X97130Y201531D01*
X99756D01*
Y200610D01*
X97184D01*
X97015Y200617D01*
X96861Y200633D01*
X96723Y200648D01*
X96600Y200671D01*
X96500Y200694D01*
X96423Y200717D01*
X96400Y200725D01*
X96377D01*
X96370Y200733D01*
X96362D01*
X96231Y200786D01*
X96116Y200848D01*
X96009Y200917D01*
X95916Y200978D01*
X95840Y201032D01*
X95786Y201078D01*
X95755Y201117D01*
X95740Y201124D01*
X95648Y201224D01*
X95571Y201332D01*
X95502Y201439D01*
X95440Y201539D01*
X95402Y201631D01*
X95363Y201700D01*
X95348Y201746D01*
X95341Y201754D01*
Y201762D01*
X95294Y201908D01*
X95264Y202061D01*
X95233Y202207D01*
X95218Y202338D01*
X95210Y202461D01*
Y202507D01*
X95202Y202553D01*
Y202591D01*
Y202614D01*
Y202629D01*
Y202637D01*
Y204035D01*
X96101D01*
Y202614D01*
D02*
G37*
G36*
Y198767D02*
X96116Y198582D01*
X96147Y198429D01*
X96185Y198290D01*
X96239Y198175D01*
X96293Y198083D01*
X96331Y198021D01*
X96362Y197983D01*
X96377Y197968D01*
X96492Y197876D01*
X96615Y197807D01*
X96754Y197753D01*
X96884Y197722D01*
X96999Y197699D01*
X97045Y197691D01*
X97092D01*
X97130Y197684D01*
X99756D01*
Y196762D01*
X97184D01*
X97015Y196770D01*
X96861Y196785D01*
X96723Y196800D01*
X96600Y196824D01*
X96500Y196846D01*
X96423Y196870D01*
X96400Y196877D01*
X96377D01*
X96370Y196885D01*
X96362D01*
X96231Y196939D01*
X96116Y197000D01*
X96009Y197069D01*
X95916Y197131D01*
X95840Y197184D01*
X95786Y197231D01*
X95755Y197269D01*
X95740Y197277D01*
X95648Y197376D01*
X95571Y197484D01*
X95502Y197591D01*
X95440Y197691D01*
X95402Y197783D01*
X95363Y197853D01*
X95348Y197899D01*
X95341Y197906D01*
Y197914D01*
X95294Y198060D01*
X95264Y198214D01*
X95233Y198359D01*
X95218Y198490D01*
X95210Y198613D01*
Y198659D01*
X95202Y198705D01*
Y198743D01*
Y198767D01*
Y198782D01*
Y198790D01*
Y200187D01*
X96101D01*
Y198767D01*
D02*
G37*
G36*
X99756Y212260D02*
X96400D01*
X96293Y212253D01*
X96216Y212222D01*
X96155Y212176D01*
X96116Y212130D01*
X96093Y212084D01*
X96086Y212037D01*
X96078Y212007D01*
Y211999D01*
X96086Y211945D01*
X96101Y211907D01*
X96116Y211884D01*
X96124Y211876D01*
X96178Y211845D01*
X96239Y211823D01*
X96285Y211807D01*
X96301Y211799D01*
X96308D01*
X99088Y210886D01*
X99196Y210839D01*
X99288Y210786D01*
X99373Y210717D01*
X99442Y210655D01*
X99495Y210594D01*
X99541Y210540D01*
X99564Y210509D01*
X99572Y210494D01*
X99634Y210386D01*
X99680Y210271D01*
X99718Y210164D01*
X99741Y210064D01*
X99756Y209979D01*
X99764Y209910D01*
Y209864D01*
Y209856D01*
Y209849D01*
Y209757D01*
X99749Y209664D01*
X99741Y209588D01*
X99726Y209519D01*
X99710Y209457D01*
X99695Y209411D01*
X99687Y209380D01*
X99680Y209373D01*
X99649Y209296D01*
X99611Y209219D01*
X99572Y209150D01*
X99534Y209096D01*
X99503Y209050D01*
X99472Y209012D01*
X99457Y208989D01*
X99449Y208981D01*
X99334Y208873D01*
X99211Y208797D01*
X99165Y208766D01*
X99127Y208743D01*
X99096Y208735D01*
X99088Y208727D01*
X99004Y208697D01*
X98927Y208674D01*
X98843Y208658D01*
X98773Y208651D01*
X98712Y208643D01*
X98666Y208635D01*
X95202D01*
Y209603D01*
X98543D01*
X98651Y209611D01*
X98727Y209641D01*
X98781Y209687D01*
X98820Y209734D01*
X98843Y209780D01*
X98850Y209826D01*
X98858Y209856D01*
Y209864D01*
X98850Y209918D01*
X98827Y209956D01*
X98804Y209979D01*
X98796Y209987D01*
X98750Y210018D01*
X98697Y210041D01*
X98651Y210056D01*
X98643Y210064D01*
X98635D01*
X95855Y210970D01*
X95748Y211016D01*
X95648Y211070D01*
X95563Y211139D01*
X95494Y211200D01*
X95433Y211262D01*
X95394Y211308D01*
X95363Y211339D01*
X95356Y211354D01*
X95294Y211469D01*
X95248Y211584D01*
X95210Y211692D01*
X95187Y211792D01*
X95171Y211884D01*
X95164Y211953D01*
Y211999D01*
Y212007D01*
Y212015D01*
Y212107D01*
X95179Y212191D01*
X95187Y212276D01*
X95202Y212345D01*
X95218Y212399D01*
X95225Y212445D01*
X95241Y212475D01*
Y212483D01*
X95271Y212567D01*
X95310Y212637D01*
X95348Y212706D01*
X95387Y212759D01*
X95417Y212806D01*
X95448Y212836D01*
X95463Y212859D01*
X95471Y212867D01*
X95594Y212982D01*
X95655Y213021D01*
X95717Y213059D01*
X95763Y213090D01*
X95801Y213113D01*
X95832Y213120D01*
X95840Y213128D01*
X95924Y213159D01*
X96009Y213190D01*
X96086Y213205D01*
X96162Y213213D01*
X96224Y213220D01*
X96277Y213228D01*
X99756D01*
Y212260D01*
D02*
G37*
G36*
X98843Y228703D02*
X98996Y228672D01*
X99127Y228626D01*
X99242Y228580D01*
X99326Y228526D01*
X99396Y228480D01*
X99434Y228450D01*
X99449Y228434D01*
X99549Y228319D01*
X99626Y228181D01*
X99680Y228043D01*
X99718Y227904D01*
X99741Y227774D01*
X99749Y227720D01*
Y227674D01*
X99756Y227636D01*
Y227605D01*
Y227590D01*
Y227582D01*
Y224587D01*
X98843D01*
Y227597D01*
Y227643D01*
X98835Y227682D01*
X98827Y227712D01*
X98820Y227735D01*
X98804Y227766D01*
X98796Y227774D01*
X98766Y227797D01*
X98727Y227805D01*
X98697Y227812D01*
X98681D01*
X98628Y227805D01*
X98581Y227789D01*
X98543Y227766D01*
X98535Y227759D01*
X98528D01*
X98474Y227720D01*
X98443Y227666D01*
X98420Y227628D01*
X98413Y227620D01*
Y227613D01*
X97353Y225170D01*
X97314Y225086D01*
X97276Y225009D01*
X97230Y224940D01*
X97191Y224886D01*
X97161Y224840D01*
X97130Y224809D01*
X97115Y224786D01*
X97107Y224779D01*
X97007Y224679D01*
X96915Y224610D01*
X96877Y224587D01*
X96846Y224564D01*
X96830Y224556D01*
X96823Y224548D01*
X96715Y224502D01*
X96623Y224464D01*
X96585Y224456D01*
X96554Y224448D01*
X96539Y224441D01*
X96531D01*
X96431Y224425D01*
X96354Y224418D01*
X95202D01*
Y228611D01*
X96101D01*
Y225332D01*
X96277D01*
X96339Y225339D01*
X96385Y225362D01*
X96416Y225378D01*
X96423Y225385D01*
X96469Y225439D01*
X96508Y225485D01*
X96531Y225524D01*
X96539Y225539D01*
X97598Y227966D01*
X97667Y228104D01*
X97744Y228227D01*
X97821Y228327D01*
X97890Y228404D01*
X97952Y228465D01*
X98005Y228511D01*
X98036Y228534D01*
X98052Y228542D01*
X98159Y228603D01*
X98267Y228642D01*
X98366Y228672D01*
X98466Y228695D01*
X98551Y228711D01*
X98612Y228718D01*
X98674D01*
X98843Y228703D01*
D02*
G37*
G36*
X99756Y219633D02*
X99749Y219495D01*
X99741Y219372D01*
X99726Y219264D01*
X99703Y219165D01*
X99680Y219088D01*
X99664Y219026D01*
X99657Y218996D01*
X99649Y218980D01*
X99611Y218880D01*
X99564Y218788D01*
X99518Y218711D01*
X99472Y218650D01*
X99426Y218596D01*
X99396Y218550D01*
X99373Y218527D01*
X99365Y218519D01*
X99296Y218458D01*
X99219Y218404D01*
X99142Y218358D01*
X99081Y218320D01*
X99019Y218289D01*
X98973Y218266D01*
X98935Y218258D01*
X98927Y218251D01*
X98835Y218220D01*
X98743Y218205D01*
X98651Y218189D01*
X98566Y218174D01*
X98497D01*
X98435Y218166D01*
X98389D01*
X98297Y218174D01*
X98198Y218181D01*
X98113Y218205D01*
X98036Y218228D01*
X97967Y218243D01*
X97913Y218266D01*
X97883Y218274D01*
X97867Y218281D01*
X97775Y218327D01*
X97698Y218389D01*
X97629Y218443D01*
X97575Y218504D01*
X97537Y218558D01*
X97514Y218604D01*
X97499Y218635D01*
X97491Y218642D01*
X97445Y218558D01*
X97391Y218481D01*
X97330Y218420D01*
X97268Y218373D01*
X97214Y218327D01*
X97168Y218304D01*
X97138Y218289D01*
X97122Y218281D01*
X97022Y218243D01*
X96930Y218212D01*
X96838Y218197D01*
X96754Y218181D01*
X96684Y218174D01*
X96623Y218166D01*
X96577D01*
X96385Y218181D01*
X96301Y218189D01*
X96224Y218205D01*
X96162Y218220D01*
X96116Y218228D01*
X96078Y218243D01*
X96070D01*
X95986Y218274D01*
X95901Y218312D01*
X95824Y218358D01*
X95763Y218397D01*
X95709Y218435D01*
X95671Y218458D01*
X95640Y218481D01*
X95632Y218489D01*
X95563Y218558D01*
X95502Y218635D01*
X95448Y218711D01*
X95402Y218788D01*
X95363Y218850D01*
X95341Y218903D01*
X95325Y218934D01*
X95317Y218950D01*
X95279Y219057D01*
X95248Y219180D01*
X95233Y219287D01*
X95218Y219395D01*
X95210Y219495D01*
X95202Y219564D01*
Y219595D01*
Y219618D01*
Y219625D01*
Y219633D01*
Y221906D01*
X96101D01*
Y219510D01*
X96109Y219441D01*
X96124Y219380D01*
X96139Y219326D01*
X96170Y219280D01*
X96193Y219241D01*
X96208Y219218D01*
X96224Y219203D01*
X96231Y219195D01*
X96285Y219157D01*
X96347Y219126D01*
X96408Y219103D01*
X96462Y219088D01*
X96516Y219080D01*
X96554Y219072D01*
X96592D01*
X96654Y219080D01*
X96707Y219095D01*
X96738Y219103D01*
X96754Y219111D01*
X96815Y219142D01*
X96861Y219172D01*
X96892Y219195D01*
X96899Y219203D01*
X96938Y219249D01*
X96976Y219295D01*
X96992Y219326D01*
X96999Y219341D01*
X97022Y219403D01*
X97030Y219456D01*
X97038Y219495D01*
Y219502D01*
Y219510D01*
Y221906D01*
X97944D01*
Y219510D01*
X97952Y219441D01*
X97967Y219380D01*
X97982Y219326D01*
X98013Y219280D01*
X98036Y219241D01*
X98052Y219218D01*
X98067Y219203D01*
X98075Y219195D01*
X98128Y219157D01*
X98182Y219126D01*
X98236Y219103D01*
X98282Y219088D01*
X98328Y219080D01*
X98366Y219072D01*
X98397D01*
X98466Y219080D01*
X98520Y219095D01*
X98551Y219103D01*
X98566Y219111D01*
X98628Y219142D01*
X98674Y219172D01*
X98704Y219195D01*
X98712Y219203D01*
X98750Y219249D01*
X98781Y219295D01*
X98796Y219326D01*
X98804Y219341D01*
X98827Y219403D01*
X98835Y219456D01*
X98843Y219495D01*
Y219502D01*
Y219510D01*
Y221906D01*
X99756D01*
Y219633D01*
D02*
G37*
G36*
X96654Y217790D02*
X96761Y217782D01*
X96853Y217767D01*
X96938Y217752D01*
X97007Y217728D01*
X97053Y217713D01*
X97092Y217705D01*
X97099Y217698D01*
X97191Y217659D01*
X97276Y217613D01*
X97353Y217567D01*
X97422Y217521D01*
X97475Y217483D01*
X97514Y217452D01*
X97537Y217429D01*
X97545Y217421D01*
X97614Y217352D01*
X97667Y217283D01*
X97721Y217221D01*
X97760Y217152D01*
X97790Y217099D01*
X97813Y217053D01*
X97829Y217022D01*
X97837Y217014D01*
X97875Y216930D01*
X97898Y216838D01*
X97921Y216753D01*
X97929Y216676D01*
X97936Y216607D01*
X97944Y216553D01*
Y216523D01*
Y216507D01*
Y215701D01*
X97038D01*
Y216469D01*
X97030Y216530D01*
X97015Y216592D01*
X96992Y216638D01*
X96969Y216684D01*
X96946Y216715D01*
X96923Y216738D01*
X96907Y216753D01*
X96899Y216761D01*
X96846Y216799D01*
X96792Y216830D01*
X96738Y216853D01*
X96684Y216868D01*
X96646Y216876D01*
X96608Y216884D01*
X96577D01*
X96508Y216876D01*
X96446Y216868D01*
X96408Y216853D01*
X96400Y216845D01*
X96393D01*
X96331Y216814D01*
X96285Y216791D01*
X96254Y216761D01*
X96239Y216753D01*
X96201Y216707D01*
X96170Y216669D01*
X96147Y216638D01*
X96139Y216622D01*
X96116Y216569D01*
X96109Y216515D01*
X96101Y216484D01*
Y216469D01*
Y215547D01*
X96109Y215455D01*
X96116Y215378D01*
X96162Y215225D01*
X96224Y215094D01*
X96316Y214987D01*
X96416Y214887D01*
X96531Y214810D01*
X96654Y214749D01*
X96784Y214695D01*
X96915Y214656D01*
X97038Y214626D01*
X97153Y214603D01*
X97253Y214587D01*
X97345Y214580D01*
X97406Y214572D01*
X97598D01*
X97721Y214580D01*
X97837Y214595D01*
X97944Y214610D01*
X98036Y214626D01*
X98121Y214649D01*
X98198Y214672D01*
X98267Y214695D01*
X98328Y214718D01*
X98382Y214741D01*
X98420Y214764D01*
X98459Y214779D01*
X98489Y214795D01*
X98505Y214810D01*
X98520Y214818D01*
X98628Y214917D01*
X98704Y215040D01*
X98766Y215156D01*
X98804Y215279D01*
X98827Y215386D01*
X98835Y215478D01*
X98843Y215509D01*
Y215532D01*
Y215547D01*
Y215555D01*
Y217421D01*
X99756D01*
Y215747D01*
X99749Y215555D01*
X99734Y215378D01*
X99703Y215217D01*
X99657Y215064D01*
X99611Y214917D01*
X99549Y214787D01*
X99480Y214664D01*
X99403Y214549D01*
X99319Y214441D01*
X99234Y214349D01*
X99142Y214257D01*
X99042Y214180D01*
X98835Y214042D01*
X98628Y213927D01*
X98420Y213842D01*
X98213Y213781D01*
X98021Y213735D01*
X97852Y213696D01*
X97775Y213689D01*
X97706Y213681D01*
X97645Y213673D01*
X97598D01*
X97552Y213666D01*
X97475D01*
X97268Y213673D01*
X97076Y213689D01*
X96892Y213720D01*
X96723Y213758D01*
X96569Y213804D01*
X96423Y213858D01*
X96285Y213919D01*
X96162Y213988D01*
X96047Y214065D01*
X95939Y214149D01*
X95847Y214234D01*
X95755Y214326D01*
X95678Y214418D01*
X95609Y214510D01*
X95486Y214710D01*
X95394Y214902D01*
X95325Y215087D01*
X95271Y215263D01*
X95241Y215424D01*
X95218Y215555D01*
X95210Y215609D01*
Y215655D01*
X95202Y215693D01*
Y215724D01*
Y215739D01*
Y215747D01*
Y216500D01*
X95210Y216599D01*
X95218Y216684D01*
X95233Y216768D01*
X95256Y216845D01*
X95279Y216907D01*
X95294Y216953D01*
X95302Y216983D01*
X95310Y216991D01*
X95356Y217076D01*
X95410Y217160D01*
X95456Y217229D01*
X95509Y217291D01*
X95548Y217337D01*
X95586Y217375D01*
X95609Y217398D01*
X95617Y217406D01*
X95694Y217475D01*
X95763Y217529D01*
X95840Y217575D01*
X95901Y217621D01*
X95963Y217652D01*
X96009Y217675D01*
X96039Y217682D01*
X96047Y217690D01*
X96139Y217728D01*
X96224Y217752D01*
X96308Y217775D01*
X96385Y217782D01*
X96454Y217790D01*
X96500Y217797D01*
X96546D01*
X96654Y217790D01*
D02*
G37*
G36*
X-75590Y46555D02*
X-76396D01*
Y50540D01*
X-75590D01*
Y46555D01*
D02*
G37*
G36*
X-78594Y50533D02*
X-78500Y50520D01*
X-78412Y50500D01*
X-78338Y50473D01*
X-78278Y50446D01*
X-78238Y50426D01*
X-78204Y50412D01*
X-78197Y50406D01*
X-78123Y50352D01*
X-78056Y50292D01*
X-78003Y50224D01*
X-77962Y50157D01*
X-77929Y50103D01*
X-77908Y50056D01*
X-77895Y50023D01*
X-77888Y50009D01*
X-76685Y46555D01*
X-77505D01*
X-77700Y47106D01*
X-79689D01*
X-79891Y46555D01*
X-80717D01*
X-79508Y50009D01*
X-79467Y50103D01*
X-79420Y50184D01*
X-79367Y50251D01*
X-79320Y50312D01*
X-79273Y50352D01*
X-79232Y50379D01*
X-79205Y50399D01*
X-79199Y50406D01*
X-79118Y50453D01*
X-79031Y50486D01*
X-78950Y50507D01*
X-78869Y50527D01*
X-78802Y50533D01*
X-78748Y50540D01*
X-78701D01*
X-78594Y50533D01*
D02*
G37*
G36*
X-66316Y59000D02*
Y58422D01*
X-68662Y59021D01*
Y59767D01*
X-66316Y59000D01*
D02*
G37*
G36*
X-73540Y50533D02*
X-73386Y50520D01*
X-73245Y50493D01*
X-73110Y50453D01*
X-72983Y50412D01*
X-72868Y50359D01*
X-72761Y50298D01*
X-72660Y50231D01*
X-72566Y50157D01*
X-72485Y50083D01*
X-72405Y50002D01*
X-72338Y49915D01*
X-72217Y49734D01*
X-72116Y49552D01*
X-72042Y49371D01*
X-71988Y49189D01*
X-71948Y49021D01*
X-71914Y48874D01*
X-71908Y48806D01*
X-71901Y48746D01*
X-71894Y48692D01*
Y48652D01*
X-71887Y48612D01*
Y48585D01*
Y48571D01*
Y48564D01*
Y48544D01*
X-71894Y48363D01*
X-71908Y48195D01*
X-71934Y48034D01*
X-71968Y47886D01*
X-72008Y47751D01*
X-72055Y47624D01*
X-72109Y47503D01*
X-72170Y47395D01*
X-72237Y47294D01*
X-72311Y47200D01*
X-72385Y47120D01*
X-72465Y47039D01*
X-72546Y46972D01*
X-72627Y46911D01*
X-72801Y46804D01*
X-72969Y46723D01*
X-73131Y46663D01*
X-73285Y46616D01*
X-73426Y46589D01*
X-73540Y46569D01*
X-73588Y46562D01*
X-73628D01*
X-73661Y46555D01*
X-75173D01*
Y47341D01*
X-73534D01*
X-73453Y47348D01*
X-73386Y47355D01*
X-73251Y47395D01*
X-73137Y47449D01*
X-73043Y47530D01*
X-72956Y47617D01*
X-72889Y47718D01*
X-72835Y47825D01*
X-72788Y47940D01*
X-72754Y48054D01*
X-72727Y48161D01*
X-72707Y48262D01*
X-72694Y48349D01*
X-72687Y48430D01*
X-72680Y48484D01*
Y48524D01*
Y48538D01*
Y48652D01*
X-72687Y48759D01*
X-72700Y48860D01*
X-72714Y48954D01*
X-72727Y49035D01*
X-72747Y49109D01*
X-72768Y49176D01*
X-72788Y49237D01*
X-72808Y49290D01*
X-72828Y49337D01*
X-72848Y49371D01*
X-72862Y49404D01*
X-72875Y49431D01*
X-72889Y49445D01*
X-72895Y49458D01*
X-72983Y49552D01*
X-73090Y49619D01*
X-73191Y49673D01*
X-73299Y49707D01*
X-73393Y49727D01*
X-73473Y49734D01*
X-73500Y49740D01*
X-75173D01*
Y50540D01*
X-73708D01*
X-73540Y50533D01*
D02*
G37*
G36*
X-58057D02*
X-57964Y50520D01*
X-57876Y50500D01*
X-57802Y50473D01*
X-57742Y50446D01*
X-57701Y50426D01*
X-57668Y50412D01*
X-57661Y50406D01*
X-57587Y50352D01*
X-57520Y50292D01*
X-57466Y50224D01*
X-57426Y50157D01*
X-57392Y50103D01*
X-57372Y50056D01*
X-57359Y50023D01*
X-57352Y50009D01*
X-56149Y46555D01*
X-56969D01*
X-57164Y47106D01*
X-59153D01*
X-59355Y46555D01*
X-60181D01*
X-58972Y50009D01*
X-58931Y50103D01*
X-58884Y50184D01*
X-58830Y50251D01*
X-58783Y50312D01*
X-58736Y50352D01*
X-58696Y50379D01*
X-58669Y50399D01*
X-58662Y50406D01*
X-58582Y50453D01*
X-58494Y50486D01*
X-58414Y50507D01*
X-58333Y50527D01*
X-58266Y50533D01*
X-58212Y50540D01*
X-58165D01*
X-58057Y50533D01*
D02*
G37*
G36*
X-60463Y48289D02*
X-60470Y48141D01*
X-60483Y48007D01*
X-60497Y47886D01*
X-60517Y47778D01*
X-60537Y47691D01*
X-60557Y47624D01*
X-60564Y47603D01*
Y47583D01*
X-60571Y47577D01*
Y47570D01*
X-60618Y47456D01*
X-60672Y47355D01*
X-60732Y47261D01*
X-60786Y47180D01*
X-60833Y47113D01*
X-60873Y47066D01*
X-60907Y47039D01*
X-60913Y47026D01*
X-61001Y46945D01*
X-61095Y46878D01*
X-61189Y46817D01*
X-61276Y46764D01*
X-61357Y46730D01*
X-61418Y46696D01*
X-61458Y46683D01*
X-61465Y46676D01*
X-61471D01*
X-61599Y46636D01*
X-61733Y46609D01*
X-61861Y46582D01*
X-61975Y46569D01*
X-62083Y46562D01*
X-62123D01*
X-62164Y46555D01*
X-63460D01*
Y47341D01*
X-62217D01*
X-62056Y47355D01*
X-61922Y47382D01*
X-61801Y47415D01*
X-61700Y47462D01*
X-61619Y47509D01*
X-61565Y47543D01*
X-61532Y47570D01*
X-61518Y47583D01*
X-61438Y47684D01*
X-61377Y47792D01*
X-61330Y47913D01*
X-61303Y48027D01*
X-61283Y48128D01*
X-61276Y48168D01*
Y48208D01*
X-61270Y48242D01*
Y48262D01*
Y48276D01*
Y48282D01*
Y50540D01*
X-60463D01*
Y48289D01*
D02*
G37*
G36*
X-64939Y50533D02*
X-64831Y50527D01*
X-64737Y50513D01*
X-64650Y50493D01*
X-64583Y50473D01*
X-64529Y50459D01*
X-64502Y50453D01*
X-64489Y50446D01*
X-64401Y50412D01*
X-64321Y50372D01*
X-64253Y50332D01*
X-64200Y50292D01*
X-64153Y50251D01*
X-64112Y50224D01*
X-64092Y50204D01*
X-64085Y50197D01*
X-64032Y50137D01*
X-63985Y50070D01*
X-63944Y50002D01*
X-63911Y49949D01*
X-63884Y49895D01*
X-63864Y49855D01*
X-63857Y49821D01*
X-63850Y49814D01*
X-63823Y49734D01*
X-63810Y49653D01*
X-63796Y49572D01*
X-63783Y49499D01*
Y49438D01*
X-63776Y49384D01*
Y49357D01*
Y49344D01*
X-63783Y49263D01*
X-63790Y49176D01*
X-63810Y49102D01*
X-63830Y49035D01*
X-63844Y48974D01*
X-63864Y48927D01*
X-63870Y48900D01*
X-63877Y48887D01*
X-63917Y48806D01*
X-63971Y48739D01*
X-64018Y48679D01*
X-64072Y48632D01*
X-64119Y48598D01*
X-64159Y48578D01*
X-64186Y48564D01*
X-64193Y48558D01*
X-64119Y48517D01*
X-64052Y48470D01*
X-63998Y48417D01*
X-63958Y48363D01*
X-63917Y48316D01*
X-63897Y48276D01*
X-63884Y48249D01*
X-63877Y48235D01*
X-63844Y48148D01*
X-63817Y48067D01*
X-63803Y47987D01*
X-63790Y47913D01*
X-63783Y47852D01*
X-63776Y47798D01*
Y47771D01*
Y47758D01*
X-63790Y47590D01*
X-63796Y47516D01*
X-63810Y47449D01*
X-63823Y47395D01*
X-63830Y47355D01*
X-63844Y47321D01*
Y47315D01*
X-63870Y47241D01*
X-63904Y47167D01*
X-63944Y47100D01*
X-63978Y47046D01*
X-64012Y46999D01*
X-64032Y46965D01*
X-64052Y46938D01*
X-64059Y46931D01*
X-64119Y46871D01*
X-64186Y46817D01*
X-64253Y46770D01*
X-64321Y46730D01*
X-64374Y46696D01*
X-64421Y46676D01*
X-64448Y46663D01*
X-64462Y46656D01*
X-64556Y46622D01*
X-64663Y46595D01*
X-64757Y46582D01*
X-64851Y46569D01*
X-64939Y46562D01*
X-64999Y46555D01*
X-67049D01*
Y47341D01*
X-64952D01*
X-64892Y47348D01*
X-64838Y47362D01*
X-64791Y47375D01*
X-64751Y47402D01*
X-64717Y47422D01*
X-64697Y47436D01*
X-64684Y47449D01*
X-64677Y47456D01*
X-64643Y47503D01*
X-64616Y47556D01*
X-64596Y47610D01*
X-64583Y47657D01*
X-64576Y47704D01*
X-64569Y47738D01*
Y47765D01*
Y47771D01*
X-64576Y47825D01*
X-64589Y47872D01*
X-64596Y47899D01*
X-64603Y47913D01*
X-64630Y47966D01*
X-64657Y48007D01*
X-64677Y48034D01*
X-64684Y48040D01*
X-64724Y48074D01*
X-64764Y48107D01*
X-64791Y48121D01*
X-64804Y48128D01*
X-64858Y48148D01*
X-64905Y48155D01*
X-64939Y48161D01*
X-67049D01*
Y48954D01*
X-64952D01*
X-64892Y48961D01*
X-64838Y48974D01*
X-64791Y48988D01*
X-64751Y49015D01*
X-64717Y49035D01*
X-64697Y49048D01*
X-64684Y49062D01*
X-64677Y49068D01*
X-64643Y49115D01*
X-64616Y49163D01*
X-64596Y49210D01*
X-64583Y49250D01*
X-64576Y49290D01*
X-64569Y49324D01*
Y49344D01*
Y49351D01*
X-64576Y49411D01*
X-64589Y49458D01*
X-64596Y49485D01*
X-64603Y49499D01*
X-64630Y49552D01*
X-64657Y49593D01*
X-64677Y49619D01*
X-64684Y49626D01*
X-64724Y49660D01*
X-64764Y49687D01*
X-64791Y49700D01*
X-64804Y49707D01*
X-64858Y49727D01*
X-64905Y49734D01*
X-64939Y49740D01*
X-67049D01*
Y50540D01*
X-65060D01*
X-64939Y50533D01*
D02*
G37*
G36*
X-54415Y58396D02*
X-54308Y58389D01*
X-54214Y58376D01*
X-54126Y58355D01*
X-54059Y58335D01*
X-54005Y58322D01*
X-53979Y58315D01*
X-53965Y58308D01*
X-53878Y58275D01*
X-53797Y58234D01*
X-53730Y58194D01*
X-53676Y58154D01*
X-53629Y58113D01*
X-53589Y58087D01*
X-53569Y58066D01*
X-53562Y58060D01*
X-53508Y57999D01*
X-53461Y57932D01*
X-53421Y57865D01*
X-53387Y57811D01*
X-53360Y57757D01*
X-53340Y57717D01*
X-53333Y57683D01*
X-53327Y57677D01*
X-53300Y57596D01*
X-53286Y57515D01*
X-53273Y57435D01*
X-53259Y57361D01*
Y57300D01*
X-53253Y57247D01*
Y57220D01*
Y57206D01*
X-53259Y57126D01*
X-53266Y57038D01*
X-53286Y56964D01*
X-53307Y56897D01*
X-53320Y56837D01*
X-53340Y56789D01*
X-53347Y56763D01*
X-53354Y56749D01*
X-53394Y56669D01*
X-53448Y56601D01*
X-53495Y56541D01*
X-53548Y56494D01*
X-53596Y56460D01*
X-53636Y56440D01*
X-53663Y56427D01*
X-53669Y56420D01*
X-53596Y56380D01*
X-53528Y56333D01*
X-53474Y56279D01*
X-53434Y56225D01*
X-53394Y56178D01*
X-53374Y56138D01*
X-53360Y56111D01*
X-53354Y56097D01*
X-53320Y56010D01*
X-53293Y55929D01*
X-53280Y55849D01*
X-53266Y55775D01*
X-53259Y55714D01*
X-53253Y55661D01*
Y55634D01*
Y55620D01*
X-53266Y55452D01*
X-53273Y55378D01*
X-53286Y55311D01*
X-53300Y55257D01*
X-53307Y55217D01*
X-53320Y55184D01*
Y55177D01*
X-53347Y55103D01*
X-53380Y55029D01*
X-53421Y54962D01*
X-53454Y54908D01*
X-53488Y54861D01*
X-53508Y54827D01*
X-53528Y54800D01*
X-53535Y54794D01*
X-53596Y54733D01*
X-53663Y54679D01*
X-53730Y54632D01*
X-53797Y54592D01*
X-53851Y54558D01*
X-53898Y54538D01*
X-53925Y54525D01*
X-53938Y54518D01*
X-54032Y54485D01*
X-54140Y54458D01*
X-54234Y54444D01*
X-54328Y54431D01*
X-54415Y54424D01*
X-54476Y54417D01*
X-56525D01*
Y55204D01*
X-54429D01*
X-54368Y55210D01*
X-54315Y55224D01*
X-54268Y55237D01*
X-54227Y55264D01*
X-54194Y55284D01*
X-54173Y55298D01*
X-54160Y55311D01*
X-54153Y55318D01*
X-54120Y55365D01*
X-54093Y55419D01*
X-54073Y55472D01*
X-54059Y55519D01*
X-54052Y55567D01*
X-54046Y55600D01*
Y55627D01*
Y55634D01*
X-54052Y55687D01*
X-54066Y55734D01*
X-54073Y55761D01*
X-54079Y55775D01*
X-54106Y55829D01*
X-54133Y55869D01*
X-54153Y55896D01*
X-54160Y55902D01*
X-54200Y55936D01*
X-54241Y55970D01*
X-54268Y55983D01*
X-54281Y55990D01*
X-54335Y56010D01*
X-54382Y56017D01*
X-54415Y56024D01*
X-56525D01*
Y56816D01*
X-54429D01*
X-54368Y56823D01*
X-54315Y56837D01*
X-54268Y56850D01*
X-54227Y56877D01*
X-54194Y56897D01*
X-54173Y56911D01*
X-54160Y56924D01*
X-54153Y56931D01*
X-54120Y56978D01*
X-54093Y57025D01*
X-54073Y57072D01*
X-54059Y57112D01*
X-54052Y57152D01*
X-54046Y57186D01*
Y57206D01*
Y57213D01*
X-54052Y57273D01*
X-54066Y57320D01*
X-54073Y57347D01*
X-54079Y57361D01*
X-54106Y57415D01*
X-54133Y57455D01*
X-54153Y57482D01*
X-54160Y57488D01*
X-54200Y57522D01*
X-54241Y57549D01*
X-54268Y57562D01*
X-54281Y57569D01*
X-54335Y57589D01*
X-54382Y57596D01*
X-54415Y57603D01*
X-56525D01*
Y58402D01*
X-54536D01*
X-54415Y58396D01*
D02*
G37*
G36*
X-56962Y56151D02*
X-56969Y56003D01*
X-56982Y55869D01*
X-56996Y55748D01*
X-57016Y55640D01*
X-57036Y55553D01*
X-57056Y55486D01*
X-57063Y55466D01*
Y55445D01*
X-57070Y55439D01*
Y55432D01*
X-57117Y55318D01*
X-57170Y55217D01*
X-57231Y55123D01*
X-57285Y55042D01*
X-57332Y54975D01*
X-57372Y54928D01*
X-57406Y54901D01*
X-57412Y54888D01*
X-57500Y54807D01*
X-57594Y54740D01*
X-57688Y54679D01*
X-57775Y54626D01*
X-57856Y54592D01*
X-57916Y54558D01*
X-57957Y54545D01*
X-57964Y54538D01*
X-57970D01*
X-58098Y54498D01*
X-58232Y54471D01*
X-58360Y54444D01*
X-58474Y54431D01*
X-58582Y54424D01*
X-58622D01*
X-58662Y54417D01*
X-59959D01*
Y55204D01*
X-58716D01*
X-58555Y55217D01*
X-58420Y55244D01*
X-58299Y55278D01*
X-58199Y55325D01*
X-58118Y55372D01*
X-58064Y55405D01*
X-58031Y55432D01*
X-58017Y55445D01*
X-57937Y55546D01*
X-57876Y55654D01*
X-57829Y55775D01*
X-57802Y55889D01*
X-57782Y55990D01*
X-57775Y56030D01*
Y56071D01*
X-57769Y56104D01*
Y56124D01*
Y56138D01*
Y56144D01*
Y58402D01*
X-56962D01*
Y56151D01*
D02*
G37*
G36*
X-62029D02*
X-62036Y56003D01*
X-62049Y55869D01*
X-62063Y55748D01*
X-62083Y55640D01*
X-62103Y55553D01*
X-62123Y55486D01*
X-62130Y55466D01*
Y55445D01*
X-62137Y55439D01*
Y55432D01*
X-62184Y55318D01*
X-62237Y55217D01*
X-62298Y55123D01*
X-62352Y55042D01*
X-62399Y54975D01*
X-62439Y54928D01*
X-62473Y54901D01*
X-62479Y54888D01*
X-62567Y54807D01*
X-62661Y54740D01*
X-62755Y54679D01*
X-62842Y54626D01*
X-62923Y54592D01*
X-62983Y54558D01*
X-63024Y54545D01*
X-63030Y54538D01*
X-63037D01*
X-63165Y54498D01*
X-63299Y54471D01*
X-63427Y54444D01*
X-63541Y54431D01*
X-63649Y54424D01*
X-63689D01*
X-63729Y54417D01*
X-65026D01*
Y55204D01*
X-63783D01*
X-63622Y55217D01*
X-63487Y55244D01*
X-63366Y55278D01*
X-63266Y55325D01*
X-63185Y55372D01*
X-63131Y55405D01*
X-63098Y55432D01*
X-63084Y55445D01*
X-63003Y55546D01*
X-62943Y55654D01*
X-62896Y55775D01*
X-62869Y55889D01*
X-62849Y55990D01*
X-62842Y56030D01*
Y56071D01*
X-62836Y56104D01*
Y56124D01*
Y56138D01*
Y56144D01*
Y58402D01*
X-62029D01*
Y56151D01*
D02*
G37*
G36*
X-40458Y58396D02*
X-40364Y58382D01*
X-40276Y58362D01*
X-40203Y58335D01*
X-40142Y58308D01*
X-40102Y58288D01*
X-40068Y58275D01*
X-40061Y58268D01*
X-39987Y58214D01*
X-39920Y58154D01*
X-39867Y58087D01*
X-39826Y58019D01*
X-39793Y57965D01*
X-39772Y57919D01*
X-39759Y57885D01*
X-39752Y57872D01*
X-38549Y54417D01*
X-39369D01*
X-39564Y54968D01*
X-41553D01*
X-41755Y54417D01*
X-42581D01*
X-41372Y57872D01*
X-41331Y57965D01*
X-41284Y58046D01*
X-41231Y58113D01*
X-41184Y58174D01*
X-41137Y58214D01*
X-41096Y58241D01*
X-41069Y58261D01*
X-41063Y58268D01*
X-40982Y58315D01*
X-40895Y58349D01*
X-40814Y58369D01*
X-40733Y58389D01*
X-40666Y58396D01*
X-40612Y58402D01*
X-40565D01*
X-40458Y58396D01*
D02*
G37*
G36*
X-43791D02*
X-43717Y58389D01*
X-43657Y58376D01*
X-43603Y58362D01*
X-43562Y58349D01*
X-43536Y58342D01*
X-43529Y58335D01*
X-43462Y58308D01*
X-43395Y58275D01*
X-43334Y58241D01*
X-43287Y58207D01*
X-43247Y58181D01*
X-43220Y58154D01*
X-43200Y58140D01*
X-43193Y58134D01*
X-43099Y58033D01*
X-43032Y57925D01*
X-43005Y57885D01*
X-42985Y57851D01*
X-42978Y57824D01*
X-42971Y57818D01*
X-42944Y57744D01*
X-42924Y57677D01*
X-42911Y57603D01*
X-42904Y57542D01*
X-42897Y57488D01*
X-42891Y57448D01*
Y57421D01*
Y57408D01*
Y54417D01*
X-43737D01*
Y57341D01*
X-43744Y57435D01*
X-43771Y57502D01*
X-43811Y57549D01*
X-43852Y57582D01*
X-43892Y57603D01*
X-43932Y57609D01*
X-43959Y57616D01*
X-43966D01*
X-44013Y57609D01*
X-44040Y57589D01*
X-44060Y57569D01*
X-44067Y57562D01*
X-44093Y57515D01*
X-44120Y57468D01*
X-44140Y57428D01*
X-44147Y57415D01*
Y57408D01*
X-44940Y55009D01*
X-44980Y54915D01*
X-45028Y54834D01*
X-45081Y54760D01*
X-45135Y54693D01*
X-45189Y54646D01*
X-45229Y54612D01*
X-45256Y54585D01*
X-45269Y54579D01*
X-45364Y54525D01*
X-45464Y54485D01*
X-45558Y54451D01*
X-45646Y54431D01*
X-45726Y54417D01*
X-45787Y54411D01*
X-45921D01*
X-46002Y54424D01*
X-46076Y54431D01*
X-46136Y54444D01*
X-46183Y54458D01*
X-46224Y54464D01*
X-46251Y54478D01*
X-46257D01*
X-46331Y54505D01*
X-46392Y54538D01*
X-46452Y54572D01*
X-46499Y54599D01*
X-46540Y54626D01*
X-46566Y54653D01*
X-46586Y54666D01*
X-46593Y54673D01*
X-46694Y54780D01*
X-46728Y54834D01*
X-46761Y54888D01*
X-46788Y54928D01*
X-46808Y54962D01*
X-46815Y54989D01*
X-46822Y54995D01*
X-46849Y55069D01*
X-46869Y55143D01*
X-46882Y55210D01*
X-46896Y55278D01*
Y55331D01*
X-46902Y55372D01*
Y55405D01*
Y55412D01*
Y57341D01*
X-46916Y57435D01*
X-46943Y57502D01*
X-46976Y57549D01*
X-47023Y57582D01*
X-47064Y57603D01*
X-47104Y57609D01*
X-47131Y57616D01*
X-47137D01*
X-47178Y57609D01*
X-47205Y57589D01*
X-47225Y57569D01*
X-47232Y57562D01*
X-47258Y57522D01*
X-47285Y57468D01*
X-47306Y57428D01*
X-47312Y57421D01*
Y57415D01*
X-48347Y54417D01*
X-49221D01*
X-48045Y57771D01*
X-47998Y57878D01*
X-47944Y57972D01*
X-47883Y58053D01*
X-47823Y58120D01*
X-47769Y58174D01*
X-47722Y58207D01*
X-47695Y58234D01*
X-47682Y58241D01*
X-47588Y58295D01*
X-47487Y58335D01*
X-47393Y58369D01*
X-47306Y58389D01*
X-47232Y58402D01*
X-47171Y58409D01*
X-47037D01*
X-46956Y58396D01*
X-46889Y58389D01*
X-46828Y58376D01*
X-46775Y58362D01*
X-46734Y58349D01*
X-46707Y58342D01*
X-46701Y58335D01*
X-46633Y58308D01*
X-46566Y58275D01*
X-46506Y58241D01*
X-46459Y58207D01*
X-46418Y58181D01*
X-46385Y58154D01*
X-46365Y58140D01*
X-46358Y58134D01*
X-46264Y58033D01*
X-46197Y57925D01*
X-46170Y57885D01*
X-46150Y57851D01*
X-46143Y57824D01*
X-46136Y57818D01*
X-46109Y57744D01*
X-46089Y57677D01*
X-46076Y57603D01*
X-46069Y57542D01*
X-46062Y57488D01*
X-46056Y57448D01*
Y57421D01*
Y57408D01*
Y55486D01*
X-46049Y55392D01*
X-46022Y55325D01*
X-45988Y55271D01*
X-45948Y55237D01*
X-45901Y55217D01*
X-45867Y55210D01*
X-45841Y55204D01*
X-45834D01*
X-45787Y55210D01*
X-45753Y55230D01*
X-45733Y55244D01*
X-45726Y55251D01*
X-45713Y55271D01*
X-45700Y55298D01*
X-45673Y55358D01*
X-45666Y55385D01*
X-45652Y55405D01*
X-45646Y55419D01*
Y55425D01*
X-44859Y57818D01*
X-44819Y57912D01*
X-44772Y57992D01*
X-44718Y58066D01*
X-44665Y58127D01*
X-44611Y58174D01*
X-44564Y58214D01*
X-44537Y58234D01*
X-44524Y58241D01*
X-44429Y58295D01*
X-44329Y58335D01*
X-44234Y58369D01*
X-44147Y58389D01*
X-44067Y58402D01*
X-44006Y58409D01*
X-43872D01*
X-43791Y58396D01*
D02*
G37*
G36*
X-49483Y55936D02*
X-49490Y55815D01*
X-49503Y55701D01*
X-49516Y55593D01*
X-49543Y55499D01*
X-49564Y55425D01*
X-49577Y55365D01*
X-49590Y55331D01*
X-49597Y55318D01*
X-49644Y55217D01*
X-49698Y55123D01*
X-49752Y55042D01*
X-49805Y54975D01*
X-49852Y54915D01*
X-49893Y54874D01*
X-49920Y54841D01*
X-49926Y54834D01*
X-50014Y54760D01*
X-50101Y54700D01*
X-50188Y54646D01*
X-50276Y54606D01*
X-50343Y54572D01*
X-50403Y54545D01*
X-50444Y54532D01*
X-50450Y54525D01*
X-50457D01*
X-50578Y54491D01*
X-50706Y54464D01*
X-50827Y54444D01*
X-50941Y54431D01*
X-51035Y54424D01*
X-51116Y54417D01*
X-51183D01*
X-51337Y54424D01*
X-51472Y54438D01*
X-51600Y54451D01*
X-51707Y54471D01*
X-51794Y54491D01*
X-51862Y54511D01*
X-51882Y54518D01*
X-51902D01*
X-51909Y54525D01*
X-51916D01*
X-52030Y54572D01*
X-52131Y54619D01*
X-52218Y54673D01*
X-52298Y54720D01*
X-52359Y54767D01*
X-52399Y54800D01*
X-52433Y54827D01*
X-52440Y54834D01*
X-52513Y54915D01*
X-52581Y54995D01*
X-52635Y55076D01*
X-52681Y55150D01*
X-52715Y55217D01*
X-52735Y55271D01*
X-52749Y55304D01*
X-52755Y55318D01*
X-52789Y55425D01*
X-52816Y55533D01*
X-52836Y55640D01*
X-52850Y55734D01*
X-52856Y55822D01*
X-52863Y55882D01*
Y55909D01*
Y55929D01*
Y55936D01*
Y55943D01*
Y58402D01*
X-52063D01*
Y55949D01*
X-52057Y55835D01*
X-52030Y55728D01*
X-51996Y55634D01*
X-51956Y55560D01*
X-51916Y55493D01*
X-51882Y55452D01*
X-51855Y55419D01*
X-51848Y55412D01*
X-51761Y55345D01*
X-51660Y55291D01*
X-51553Y55257D01*
X-51452Y55230D01*
X-51358Y55217D01*
X-51284Y55210D01*
X-51250Y55204D01*
X-51190D01*
X-51035Y55210D01*
X-50907Y55237D01*
X-50793Y55271D01*
X-50699Y55311D01*
X-50618Y55345D01*
X-50572Y55378D01*
X-50538Y55405D01*
X-50524Y55412D01*
X-50444Y55493D01*
X-50390Y55587D01*
X-50350Y55674D01*
X-50316Y55761D01*
X-50303Y55835D01*
X-50296Y55896D01*
X-50289Y55936D01*
Y55943D01*
Y55949D01*
Y58402D01*
X-49483D01*
Y55936D01*
D02*
G37*
G36*
X-35949Y58396D02*
X-35835Y58389D01*
X-35734Y58369D01*
X-35646Y58355D01*
X-35579Y58335D01*
X-35525Y58315D01*
X-35498Y58308D01*
X-35485Y58302D01*
X-35398Y58261D01*
X-35317Y58221D01*
X-35250Y58181D01*
X-35196Y58134D01*
X-35149Y58100D01*
X-35109Y58066D01*
X-35089Y58046D01*
X-35082Y58039D01*
X-35028Y57979D01*
X-34981Y57912D01*
X-34941Y57851D01*
X-34907Y57791D01*
X-34887Y57737D01*
X-34867Y57697D01*
X-34860Y57670D01*
X-34853Y57663D01*
X-34813Y57502D01*
X-34800Y57421D01*
X-34793Y57354D01*
Y57293D01*
X-34786Y57247D01*
Y57220D01*
Y57206D01*
X-34800Y57052D01*
X-34806Y56978D01*
X-34820Y56917D01*
X-34833Y56863D01*
X-34840Y56823D01*
X-34853Y56789D01*
Y56783D01*
X-34880Y56709D01*
X-34914Y56635D01*
X-34954Y56568D01*
X-34988Y56514D01*
X-35021Y56467D01*
X-35041Y56433D01*
X-35062Y56406D01*
X-35068Y56400D01*
X-35129Y56339D01*
X-35196Y56286D01*
X-35263Y56239D01*
X-35324Y56198D01*
X-35377Y56165D01*
X-35425Y56144D01*
X-35451Y56131D01*
X-35465Y56124D01*
X-35566Y56091D01*
X-35666Y56064D01*
X-35767Y56050D01*
X-35861Y56037D01*
X-35942Y56030D01*
X-36009Y56024D01*
X-37158D01*
X-37212Y56017D01*
X-37259Y56003D01*
X-37299Y55983D01*
X-37340Y55963D01*
X-37367Y55943D01*
X-37387Y55923D01*
X-37400Y55909D01*
X-37407Y55902D01*
X-37441Y55855D01*
X-37468Y55808D01*
X-37488Y55761D01*
X-37501Y55714D01*
X-37508Y55681D01*
X-37514Y55647D01*
Y55627D01*
Y55620D01*
X-37508Y55553D01*
X-37501Y55499D01*
X-37481Y55445D01*
X-37461Y55398D01*
X-37441Y55365D01*
X-37427Y55338D01*
X-37414Y55325D01*
X-37407Y55318D01*
X-37367Y55278D01*
X-37326Y55251D01*
X-37286Y55230D01*
X-37246Y55217D01*
X-37212Y55210D01*
X-37185Y55204D01*
X-34981D01*
Y54417D01*
X-37024D01*
X-37132Y54424D01*
X-37239Y54431D01*
X-37427Y54464D01*
X-37514Y54485D01*
X-37588Y54511D01*
X-37662Y54538D01*
X-37723Y54565D01*
X-37783Y54592D01*
X-37830Y54619D01*
X-37871Y54646D01*
X-37911Y54666D01*
X-37938Y54686D01*
X-37958Y54700D01*
X-37965Y54713D01*
X-37971D01*
X-38032Y54773D01*
X-38086Y54841D01*
X-38133Y54908D01*
X-38173Y54982D01*
X-38234Y55130D01*
X-38274Y55271D01*
X-38294Y55405D01*
X-38301Y55459D01*
X-38307Y55513D01*
X-38314Y55553D01*
Y55580D01*
Y55600D01*
Y55607D01*
Y55634D01*
X-38307Y55741D01*
X-38301Y55842D01*
X-38281Y55929D01*
X-38260Y56017D01*
X-38234Y56097D01*
X-38207Y56171D01*
X-38173Y56232D01*
X-38140Y56292D01*
X-38106Y56346D01*
X-38072Y56393D01*
X-38045Y56427D01*
X-38019Y56460D01*
X-37998Y56480D01*
X-37978Y56501D01*
X-37971Y56514D01*
X-37965D01*
X-37898Y56568D01*
X-37824Y56615D01*
X-37676Y56689D01*
X-37521Y56743D01*
X-37373Y56776D01*
X-37239Y56803D01*
X-37185Y56810D01*
X-37132D01*
X-37091Y56816D01*
X-35962D01*
X-35908Y56823D01*
X-35855Y56837D01*
X-35808Y56850D01*
X-35767Y56877D01*
X-35740Y56897D01*
X-35713Y56911D01*
X-35700Y56924D01*
X-35693Y56931D01*
X-35653Y56978D01*
X-35626Y57025D01*
X-35606Y57072D01*
X-35593Y57112D01*
X-35586Y57152D01*
X-35579Y57186D01*
Y57206D01*
Y57213D01*
X-35586Y57273D01*
X-35599Y57320D01*
X-35606Y57347D01*
X-35613Y57361D01*
X-35640Y57415D01*
X-35666Y57455D01*
X-35687Y57482D01*
X-35693Y57488D01*
X-35734Y57522D01*
X-35774Y57549D01*
X-35801Y57562D01*
X-35814Y57569D01*
X-35868Y57589D01*
X-35915Y57596D01*
X-35949Y57603D01*
X-38059D01*
Y58402D01*
X-36070D01*
X-35949Y58396D01*
D02*
G37*
G36*
X99150Y195057D02*
X99257Y195011D01*
X99349Y194957D01*
X99426Y194896D01*
X99495Y194842D01*
X99541Y194788D01*
X99572Y194742D01*
X99595Y194711D01*
X99603Y194704D01*
X99657Y194612D01*
X99695Y194512D01*
X99718Y194420D01*
X99741Y194327D01*
X99749Y194251D01*
X99756Y194189D01*
Y194151D01*
Y194143D01*
Y194135D01*
X99749Y194013D01*
X99734Y193905D01*
X99710Y193805D01*
X99680Y193721D01*
X99649Y193652D01*
X99626Y193605D01*
X99611Y193567D01*
X99603Y193559D01*
X99541Y193475D01*
X99472Y193398D01*
X99396Y193337D01*
X99319Y193291D01*
X99257Y193252D01*
X99203Y193229D01*
X99165Y193214D01*
X99150Y193206D01*
X95202Y191831D01*
Y192768D01*
X95832Y192991D01*
Y195264D01*
X95202Y195495D01*
Y196440D01*
X99150Y195057D01*
D02*
G37*
G36*
X97038Y107997D02*
Y108288D01*
X97045Y108427D01*
X97053Y108557D01*
X97076Y108672D01*
X97099Y108772D01*
X97115Y108849D01*
X97138Y108911D01*
X97145Y108941D01*
X97153Y108957D01*
X97199Y109056D01*
X97253Y109149D01*
X97299Y109225D01*
X97353Y109294D01*
X97391Y109348D01*
X97429Y109387D01*
X97452Y109410D01*
X97460Y109417D01*
X97537Y109479D01*
X97614Y109533D01*
X97691Y109579D01*
X97760Y109609D01*
X97821Y109640D01*
X97867Y109655D01*
X97898Y109671D01*
X97906D01*
X98082Y109717D01*
X98167Y109732D01*
X98243Y109740D01*
X98305Y109748D01*
X98489D01*
X98589Y109732D01*
X98674Y109725D01*
X98758Y109709D01*
X98820Y109694D01*
X98866Y109678D01*
X98904Y109671D01*
X98912Y109663D01*
X99004Y109632D01*
X99081Y109594D01*
X99157Y109548D01*
X99219Y109502D01*
X99273Y109463D01*
X99311Y109433D01*
X99334Y109410D01*
X99342Y109402D01*
X99411Y109333D01*
X99472Y109256D01*
X99518Y109179D01*
X99564Y109102D01*
X99595Y109041D01*
X99618Y108987D01*
X99634Y108957D01*
X99641Y108941D01*
X99680Y108834D01*
X99710Y108726D01*
X99726Y108611D01*
X99741Y108511D01*
X99749Y108419D01*
X99756Y108350D01*
Y108304D01*
Y108296D01*
Y108288D01*
Y106007D01*
X95202D01*
Y106929D01*
X96846D01*
X95118Y109786D01*
X96131D01*
X97038Y107997D01*
D02*
G37*
G36*
X99756Y102621D02*
X98843D01*
Y103711D01*
X95202D01*
Y104617D01*
X98843D01*
Y105647D01*
X99756D01*
Y102621D01*
D02*
G37*
G36*
X96715Y102313D02*
X96830Y102306D01*
X96930Y102283D01*
X97030Y102260D01*
X97122Y102229D01*
X97207Y102198D01*
X97276Y102160D01*
X97345Y102121D01*
X97406Y102083D01*
X97460Y102045D01*
X97499Y102014D01*
X97537Y101983D01*
X97560Y101960D01*
X97583Y101937D01*
X97598Y101929D01*
Y101922D01*
X97660Y101845D01*
X97714Y101760D01*
X97798Y101591D01*
X97860Y101415D01*
X97898Y101246D01*
X97929Y101092D01*
X97936Y101031D01*
Y100969D01*
X97944Y100923D01*
Y100893D01*
Y100870D01*
Y100862D01*
Y99633D01*
X97952Y99572D01*
X97967Y99510D01*
X97982Y99456D01*
X98013Y99410D01*
X98036Y99380D01*
X98052Y99349D01*
X98067Y99334D01*
X98075Y99326D01*
X98128Y99280D01*
X98182Y99249D01*
X98236Y99226D01*
X98282Y99211D01*
X98328Y99203D01*
X98366Y99195D01*
X98397D01*
X98466Y99203D01*
X98520Y99218D01*
X98551Y99226D01*
X98566Y99234D01*
X98628Y99264D01*
X98674Y99295D01*
X98704Y99318D01*
X98712Y99326D01*
X98750Y99372D01*
X98781Y99418D01*
X98796Y99449D01*
X98804Y99464D01*
X98827Y99525D01*
X98835Y99579D01*
X98843Y99618D01*
Y99625D01*
Y99633D01*
Y102029D01*
X99756D01*
Y99756D01*
X99749Y99618D01*
X99741Y99487D01*
X99718Y99372D01*
X99703Y99272D01*
X99680Y99195D01*
X99657Y99134D01*
X99649Y99103D01*
X99641Y99088D01*
X99595Y98988D01*
X99549Y98896D01*
X99503Y98819D01*
X99449Y98757D01*
X99411Y98704D01*
X99373Y98658D01*
X99349Y98635D01*
X99342Y98627D01*
X99273Y98566D01*
X99196Y98512D01*
X99127Y98466D01*
X99058Y98427D01*
X98996Y98404D01*
X98950Y98381D01*
X98919Y98374D01*
X98912Y98366D01*
X98727Y98320D01*
X98635Y98304D01*
X98558Y98297D01*
X98489D01*
X98435Y98289D01*
X98389D01*
X98213Y98304D01*
X98128Y98312D01*
X98059Y98327D01*
X97998Y98343D01*
X97952Y98351D01*
X97913Y98366D01*
X97906D01*
X97821Y98397D01*
X97737Y98435D01*
X97660Y98481D01*
X97598Y98519D01*
X97545Y98558D01*
X97506Y98581D01*
X97475Y98604D01*
X97468Y98612D01*
X97399Y98681D01*
X97337Y98757D01*
X97284Y98834D01*
X97237Y98903D01*
X97199Y98965D01*
X97176Y99019D01*
X97161Y99049D01*
X97153Y99065D01*
X97115Y99180D01*
X97084Y99295D01*
X97069Y99410D01*
X97053Y99518D01*
X97045Y99610D01*
X97038Y99687D01*
Y99717D01*
Y99741D01*
Y99748D01*
Y99756D01*
Y101000D01*
X97030Y101061D01*
X97015Y101115D01*
X96992Y101161D01*
X96969Y101207D01*
X96946Y101238D01*
X96923Y101261D01*
X96907Y101277D01*
X96899Y101284D01*
X96846Y101323D01*
X96792Y101353D01*
X96738Y101376D01*
X96684Y101392D01*
X96646Y101400D01*
X96608Y101407D01*
X96577D01*
X96500Y101400D01*
X96439Y101392D01*
X96377Y101369D01*
X96324Y101346D01*
X96285Y101323D01*
X96254Y101307D01*
X96239Y101292D01*
X96231Y101284D01*
X96185Y101238D01*
X96155Y101192D01*
X96131Y101146D01*
X96116Y101100D01*
X96109Y101061D01*
X96101Y101031D01*
Y101008D01*
Y101000D01*
Y98512D01*
X95202D01*
Y100847D01*
X95210Y100969D01*
X95218Y101092D01*
X95256Y101307D01*
X95279Y101407D01*
X95310Y101492D01*
X95341Y101576D01*
X95371Y101645D01*
X95402Y101714D01*
X95433Y101768D01*
X95463Y101814D01*
X95486Y101860D01*
X95509Y101891D01*
X95525Y101914D01*
X95540Y101922D01*
Y101929D01*
X95609Y101998D01*
X95686Y102060D01*
X95763Y102114D01*
X95847Y102160D01*
X96016Y102229D01*
X96178Y102275D01*
X96331Y102298D01*
X96393Y102306D01*
X96454Y102313D01*
X96500Y102321D01*
X96592D01*
X96715Y102313D01*
D02*
G37*
G36*
X99756Y113135D02*
X96953D01*
X96823Y113127D01*
X96700Y113096D01*
X96592Y113058D01*
X96508Y113012D01*
X96431Y112966D01*
X96385Y112927D01*
X96347Y112896D01*
X96339Y112889D01*
X96262Y112789D01*
X96201Y112674D01*
X96162Y112551D01*
X96131Y112436D01*
X96116Y112328D01*
X96109Y112244D01*
X96101Y112205D01*
Y112182D01*
Y112167D01*
Y112159D01*
Y112136D01*
X96109Y111959D01*
X96139Y111813D01*
X96178Y111683D01*
X96224Y111575D01*
X96262Y111483D01*
X96301Y111430D01*
X96331Y111391D01*
X96339Y111376D01*
X96431Y111284D01*
X96539Y111222D01*
X96638Y111176D01*
X96738Y111138D01*
X96823Y111122D01*
X96892Y111115D01*
X96938Y111107D01*
X99756D01*
Y110185D01*
X96938D01*
X96800Y110193D01*
X96669Y110208D01*
X96546Y110224D01*
X96439Y110255D01*
X96354Y110277D01*
X96285Y110293D01*
X96247Y110308D01*
X96231Y110316D01*
X96116Y110370D01*
X96009Y110431D01*
X95916Y110493D01*
X95840Y110554D01*
X95771Y110608D01*
X95724Y110654D01*
X95686Y110685D01*
X95678Y110692D01*
X95594Y110792D01*
X95525Y110892D01*
X95463Y110992D01*
X95417Y111092D01*
X95379Y111168D01*
X95348Y111238D01*
X95333Y111284D01*
X95325Y111291D01*
Y111299D01*
X95287Y111437D01*
X95256Y111583D01*
X95233Y111721D01*
X95218Y111852D01*
X95210Y111959D01*
X95202Y112052D01*
Y112082D01*
Y112105D01*
Y112121D01*
Y112128D01*
X95210Y112305D01*
X95225Y112459D01*
X95241Y112605D01*
X95264Y112727D01*
X95287Y112827D01*
X95310Y112904D01*
X95317Y112927D01*
Y112950D01*
X95325Y112958D01*
Y112966D01*
X95379Y113096D01*
X95433Y113211D01*
X95494Y113311D01*
X95548Y113403D01*
X95602Y113472D01*
X95640Y113519D01*
X95671Y113557D01*
X95678Y113565D01*
X95771Y113649D01*
X95863Y113726D01*
X95955Y113787D01*
X96039Y113841D01*
X96116Y113879D01*
X96178Y113902D01*
X96216Y113918D01*
X96231Y113926D01*
X96354Y113964D01*
X96477Y113995D01*
X96600Y114018D01*
X96707Y114033D01*
X96807Y114041D01*
X96877Y114048D01*
X99756D01*
Y113135D01*
D02*
G37*
G36*
Y129923D02*
X96400D01*
X96293Y129915D01*
X96216Y129885D01*
X96155Y129839D01*
X96116Y129792D01*
X96093Y129746D01*
X96086Y129700D01*
X96078Y129669D01*
Y129662D01*
X96086Y129608D01*
X96101Y129570D01*
X96116Y129547D01*
X96124Y129539D01*
X96178Y129508D01*
X96239Y129485D01*
X96285Y129470D01*
X96301Y129462D01*
X96308D01*
X99088Y128548D01*
X99196Y128502D01*
X99288Y128448D01*
X99373Y128379D01*
X99442Y128318D01*
X99495Y128256D01*
X99541Y128203D01*
X99564Y128172D01*
X99572Y128157D01*
X99634Y128049D01*
X99680Y127934D01*
X99718Y127826D01*
X99741Y127726D01*
X99756Y127642D01*
X99764Y127573D01*
Y127527D01*
Y127519D01*
Y127511D01*
Y127419D01*
X99749Y127327D01*
X99741Y127250D01*
X99726Y127181D01*
X99710Y127120D01*
X99695Y127074D01*
X99687Y127043D01*
X99680Y127035D01*
X99649Y126959D01*
X99611Y126882D01*
X99572Y126813D01*
X99534Y126759D01*
X99503Y126713D01*
X99472Y126674D01*
X99457Y126651D01*
X99449Y126644D01*
X99334Y126536D01*
X99211Y126459D01*
X99165Y126429D01*
X99127Y126406D01*
X99096Y126398D01*
X99088Y126390D01*
X99004Y126359D01*
X98927Y126336D01*
X98843Y126321D01*
X98773Y126313D01*
X98712Y126306D01*
X98666Y126298D01*
X95202D01*
Y127266D01*
X98543D01*
X98651Y127273D01*
X98727Y127304D01*
X98781Y127350D01*
X98820Y127396D01*
X98843Y127442D01*
X98850Y127488D01*
X98858Y127519D01*
Y127527D01*
X98850Y127581D01*
X98827Y127619D01*
X98804Y127642D01*
X98796Y127650D01*
X98750Y127680D01*
X98697Y127703D01*
X98651Y127719D01*
X98643Y127726D01*
X98635D01*
X95855Y128633D01*
X95748Y128679D01*
X95648Y128733D01*
X95563Y128802D01*
X95494Y128863D01*
X95433Y128925D01*
X95394Y128971D01*
X95363Y129001D01*
X95356Y129017D01*
X95294Y129132D01*
X95248Y129247D01*
X95210Y129355D01*
X95187Y129455D01*
X95171Y129547D01*
X95164Y129616D01*
Y129662D01*
Y129669D01*
Y129677D01*
Y129769D01*
X95179Y129854D01*
X95187Y129938D01*
X95202Y130007D01*
X95218Y130061D01*
X95225Y130107D01*
X95241Y130138D01*
Y130146D01*
X95271Y130230D01*
X95310Y130299D01*
X95348Y130368D01*
X95387Y130422D01*
X95417Y130468D01*
X95448Y130499D01*
X95463Y130522D01*
X95471Y130530D01*
X95594Y130645D01*
X95655Y130683D01*
X95717Y130722D01*
X95763Y130752D01*
X95801Y130775D01*
X95832Y130783D01*
X95840Y130791D01*
X95924Y130822D01*
X96009Y130852D01*
X96086Y130868D01*
X96162Y130875D01*
X96224Y130883D01*
X96277Y130891D01*
X99756D01*
Y129923D01*
D02*
G37*
G36*
Y123526D02*
X99749Y123387D01*
X99741Y123264D01*
X99726Y123157D01*
X99703Y123057D01*
X99680Y122980D01*
X99664Y122919D01*
X99657Y122888D01*
X99649Y122873D01*
X99611Y122773D01*
X99564Y122681D01*
X99518Y122604D01*
X99472Y122543D01*
X99426Y122489D01*
X99396Y122443D01*
X99373Y122420D01*
X99365Y122412D01*
X99296Y122351D01*
X99219Y122297D01*
X99142Y122251D01*
X99081Y122212D01*
X99019Y122181D01*
X98973Y122159D01*
X98935Y122151D01*
X98927Y122143D01*
X98835Y122112D01*
X98743Y122097D01*
X98651Y122082D01*
X98566Y122066D01*
X98497D01*
X98435Y122059D01*
X98389D01*
X98297Y122066D01*
X98198Y122074D01*
X98113Y122097D01*
X98036Y122120D01*
X97967Y122135D01*
X97913Y122159D01*
X97883Y122166D01*
X97867Y122174D01*
X97775Y122220D01*
X97698Y122281D01*
X97629Y122335D01*
X97575Y122397D01*
X97537Y122450D01*
X97514Y122496D01*
X97499Y122527D01*
X97491Y122535D01*
X97445Y122450D01*
X97391Y122373D01*
X97330Y122312D01*
X97268Y122266D01*
X97214Y122220D01*
X97168Y122197D01*
X97138Y122181D01*
X97122Y122174D01*
X97022Y122135D01*
X96930Y122105D01*
X96838Y122089D01*
X96754Y122074D01*
X96684Y122066D01*
X96623Y122059D01*
X96577D01*
X96385Y122074D01*
X96301Y122082D01*
X96224Y122097D01*
X96162Y122112D01*
X96116Y122120D01*
X96078Y122135D01*
X96070D01*
X95986Y122166D01*
X95901Y122205D01*
X95824Y122251D01*
X95763Y122289D01*
X95709Y122327D01*
X95671Y122351D01*
X95640Y122373D01*
X95632Y122381D01*
X95563Y122450D01*
X95502Y122527D01*
X95448Y122604D01*
X95402Y122681D01*
X95363Y122742D01*
X95341Y122796D01*
X95325Y122827D01*
X95317Y122842D01*
X95279Y122950D01*
X95248Y123072D01*
X95233Y123180D01*
X95218Y123287D01*
X95210Y123387D01*
X95202Y123456D01*
Y123487D01*
Y123510D01*
Y123518D01*
Y123526D01*
Y125799D01*
X96101D01*
Y123403D01*
X96109Y123334D01*
X96124Y123272D01*
X96139Y123218D01*
X96170Y123172D01*
X96193Y123134D01*
X96208Y123111D01*
X96224Y123096D01*
X96231Y123088D01*
X96285Y123049D01*
X96347Y123019D01*
X96408Y122996D01*
X96462Y122980D01*
X96516Y122973D01*
X96554Y122965D01*
X96592D01*
X96654Y122973D01*
X96707Y122988D01*
X96738Y122996D01*
X96754Y123003D01*
X96815Y123034D01*
X96861Y123065D01*
X96892Y123088D01*
X96899Y123096D01*
X96938Y123142D01*
X96976Y123188D01*
X96992Y123218D01*
X96999Y123234D01*
X97022Y123295D01*
X97030Y123349D01*
X97038Y123387D01*
Y123395D01*
Y123403D01*
Y125799D01*
X97944D01*
Y123403D01*
X97952Y123334D01*
X97967Y123272D01*
X97982Y123218D01*
X98013Y123172D01*
X98036Y123134D01*
X98052Y123111D01*
X98067Y123096D01*
X98075Y123088D01*
X98128Y123049D01*
X98182Y123019D01*
X98236Y122996D01*
X98282Y122980D01*
X98328Y122973D01*
X98366Y122965D01*
X98397D01*
X98466Y122973D01*
X98520Y122988D01*
X98551Y122996D01*
X98566Y123003D01*
X98628Y123034D01*
X98674Y123065D01*
X98704Y123088D01*
X98712Y123096D01*
X98750Y123142D01*
X98781Y123188D01*
X98796Y123218D01*
X98804Y123234D01*
X98827Y123295D01*
X98835Y123349D01*
X98843Y123387D01*
Y123395D01*
Y123403D01*
Y125799D01*
X99756D01*
Y123526D01*
D02*
G37*
G36*
X99035Y120477D02*
X99157Y120423D01*
X99265Y120361D01*
X99357Y120292D01*
X99434Y120223D01*
X99495Y120162D01*
X99534Y120108D01*
X99564Y120077D01*
X99572Y120062D01*
X99634Y119954D01*
X99680Y119839D01*
X99718Y119732D01*
X99741Y119632D01*
X99756Y119547D01*
X99764Y119478D01*
Y119432D01*
Y119424D01*
Y119417D01*
Y119325D01*
X99749Y119232D01*
X99741Y119156D01*
X99726Y119087D01*
X99710Y119025D01*
X99695Y118979D01*
X99687Y118948D01*
X99680Y118941D01*
X99649Y118864D01*
X99611Y118787D01*
X99572Y118718D01*
X99534Y118664D01*
X99503Y118618D01*
X99472Y118580D01*
X99457Y118557D01*
X99449Y118549D01*
X99334Y118441D01*
X99211Y118365D01*
X99165Y118334D01*
X99127Y118311D01*
X99096Y118303D01*
X99088Y118296D01*
X99004Y118265D01*
X98927Y118242D01*
X98843Y118226D01*
X98773Y118219D01*
X98712Y118211D01*
X98666Y118203D01*
X96423D01*
X96316Y118196D01*
X96239Y118165D01*
X96178Y118126D01*
X96139Y118080D01*
X96116Y118027D01*
X96109Y117988D01*
X96101Y117957D01*
Y117950D01*
X96109Y117896D01*
X96131Y117858D01*
X96147Y117835D01*
X96155Y117827D01*
X96178Y117812D01*
X96208Y117796D01*
X96277Y117765D01*
X96308Y117758D01*
X96331Y117743D01*
X96347Y117735D01*
X96354D01*
X99088Y116836D01*
X99196Y116790D01*
X99288Y116736D01*
X99373Y116675D01*
X99442Y116613D01*
X99495Y116552D01*
X99541Y116498D01*
X99564Y116468D01*
X99572Y116452D01*
X99634Y116345D01*
X99680Y116229D01*
X99718Y116122D01*
X99741Y116022D01*
X99756Y115930D01*
X99764Y115861D01*
Y115815D01*
Y115807D01*
Y115799D01*
Y115707D01*
X99749Y115615D01*
X99741Y115531D01*
X99726Y115462D01*
X99710Y115400D01*
X99695Y115354D01*
X99687Y115323D01*
X99680Y115316D01*
X99649Y115239D01*
X99611Y115162D01*
X99572Y115093D01*
X99534Y115039D01*
X99503Y114993D01*
X99472Y114962D01*
X99457Y114939D01*
X99449Y114932D01*
X99334Y114824D01*
X99211Y114747D01*
X99165Y114717D01*
X99127Y114693D01*
X99096Y114686D01*
X99088Y114678D01*
X99004Y114647D01*
X98927Y114624D01*
X98843Y114609D01*
X98773Y114601D01*
X98712Y114594D01*
X98666Y114586D01*
X95202D01*
Y115554D01*
X98543D01*
X98651Y115561D01*
X98727Y115592D01*
X98781Y115638D01*
X98820Y115684D01*
X98843Y115730D01*
X98850Y115776D01*
X98858Y115807D01*
Y115815D01*
X98850Y115869D01*
X98827Y115899D01*
X98804Y115922D01*
X98796Y115930D01*
X98743Y115961D01*
X98689Y115991D01*
X98643Y116015D01*
X98628Y116022D01*
X98620D01*
X95878Y116928D01*
X95771Y116974D01*
X95678Y117028D01*
X95594Y117090D01*
X95517Y117151D01*
X95463Y117213D01*
X95425Y117259D01*
X95394Y117289D01*
X95387Y117305D01*
X95325Y117412D01*
X95279Y117527D01*
X95241Y117635D01*
X95218Y117735D01*
X95202Y117827D01*
X95195Y117896D01*
Y117942D01*
Y117950D01*
Y117957D01*
Y118050D01*
X95210Y118142D01*
X95218Y118226D01*
X95233Y118296D01*
X95248Y118349D01*
X95256Y118395D01*
X95271Y118426D01*
Y118434D01*
X95302Y118518D01*
X95341Y118587D01*
X95379Y118656D01*
X95410Y118710D01*
X95440Y118756D01*
X95471Y118787D01*
X95486Y118810D01*
X95494Y118818D01*
X95617Y118933D01*
X95678Y118971D01*
X95740Y119010D01*
X95786Y119040D01*
X95824Y119063D01*
X95855Y119071D01*
X95863Y119079D01*
X95947Y119109D01*
X96032Y119133D01*
X96109Y119148D01*
X96185Y119163D01*
X96247D01*
X96293Y119171D01*
X98543D01*
X98651Y119186D01*
X98727Y119217D01*
X98781Y119255D01*
X98820Y119309D01*
X98843Y119355D01*
X98850Y119401D01*
X98858Y119432D01*
Y119440D01*
X98850Y119486D01*
X98827Y119517D01*
X98804Y119540D01*
X98796Y119547D01*
X98750Y119578D01*
X98689Y119609D01*
X98643Y119632D01*
X98635Y119640D01*
X98628D01*
X95202Y120822D01*
Y121821D01*
X99035Y120477D01*
D02*
G37*
G36*
X99756Y79412D02*
X97990Y78360D01*
X99756Y77300D01*
Y76271D01*
X97537Y77691D01*
X95202Y76271D01*
Y77315D01*
X96992Y78360D01*
X95202Y79404D01*
Y80441D01*
X97537Y79012D01*
X99756Y80441D01*
Y79412D01*
D02*
G37*
G36*
Y73690D02*
X99749Y73552D01*
X99741Y73429D01*
X99726Y73321D01*
X99703Y73221D01*
X99680Y73145D01*
X99664Y73083D01*
X99657Y73053D01*
X99649Y73037D01*
X99611Y72937D01*
X99564Y72845D01*
X99518Y72768D01*
X99472Y72707D01*
X99426Y72653D01*
X99396Y72607D01*
X99373Y72584D01*
X99365Y72576D01*
X99296Y72515D01*
X99219Y72461D01*
X99142Y72415D01*
X99081Y72377D01*
X99019Y72346D01*
X98973Y72323D01*
X98935Y72315D01*
X98927Y72308D01*
X98835Y72277D01*
X98743Y72262D01*
X98651Y72246D01*
X98566Y72231D01*
X98497D01*
X98435Y72223D01*
X98389D01*
X98297Y72231D01*
X98198Y72238D01*
X98113Y72262D01*
X98036Y72285D01*
X97967Y72300D01*
X97913Y72323D01*
X97883Y72331D01*
X97867Y72338D01*
X97775Y72384D01*
X97698Y72446D01*
X97629Y72500D01*
X97575Y72561D01*
X97537Y72615D01*
X97514Y72661D01*
X97499Y72692D01*
X97491Y72699D01*
X97445Y72615D01*
X97391Y72538D01*
X97330Y72477D01*
X97268Y72430D01*
X97214Y72384D01*
X97168Y72361D01*
X97138Y72346D01*
X97122Y72338D01*
X97022Y72300D01*
X96930Y72269D01*
X96838Y72254D01*
X96754Y72238D01*
X96684Y72231D01*
X96623Y72223D01*
X96577D01*
X96385Y72238D01*
X96301Y72246D01*
X96224Y72262D01*
X96162Y72277D01*
X96116Y72285D01*
X96078Y72300D01*
X96070D01*
X95986Y72331D01*
X95901Y72369D01*
X95824Y72415D01*
X95763Y72453D01*
X95709Y72492D01*
X95671Y72515D01*
X95640Y72538D01*
X95632Y72546D01*
X95563Y72615D01*
X95502Y72692D01*
X95448Y72768D01*
X95402Y72845D01*
X95363Y72907D01*
X95341Y72960D01*
X95325Y72991D01*
X95317Y73006D01*
X95279Y73114D01*
X95248Y73237D01*
X95233Y73344D01*
X95218Y73452D01*
X95210Y73552D01*
X95202Y73621D01*
Y73652D01*
Y73675D01*
Y73682D01*
Y73690D01*
Y75963D01*
X96101D01*
Y73567D01*
X96109Y73498D01*
X96124Y73437D01*
X96139Y73383D01*
X96170Y73337D01*
X96193Y73298D01*
X96208Y73275D01*
X96224Y73260D01*
X96231Y73252D01*
X96285Y73214D01*
X96347Y73183D01*
X96408Y73160D01*
X96462Y73145D01*
X96516Y73137D01*
X96554Y73129D01*
X96592D01*
X96654Y73137D01*
X96707Y73152D01*
X96738Y73160D01*
X96754Y73168D01*
X96815Y73198D01*
X96861Y73229D01*
X96892Y73252D01*
X96899Y73260D01*
X96938Y73306D01*
X96976Y73352D01*
X96992Y73383D01*
X96999Y73398D01*
X97022Y73460D01*
X97030Y73513D01*
X97038Y73552D01*
Y73559D01*
Y73567D01*
Y75963D01*
X97944D01*
Y73567D01*
X97952Y73498D01*
X97967Y73437D01*
X97982Y73383D01*
X98013Y73337D01*
X98036Y73298D01*
X98052Y73275D01*
X98067Y73260D01*
X98075Y73252D01*
X98128Y73214D01*
X98182Y73183D01*
X98236Y73160D01*
X98282Y73145D01*
X98328Y73137D01*
X98366Y73129D01*
X98397D01*
X98466Y73137D01*
X98520Y73152D01*
X98551Y73160D01*
X98566Y73168D01*
X98628Y73198D01*
X98674Y73229D01*
X98704Y73252D01*
X98712Y73260D01*
X98750Y73306D01*
X98781Y73352D01*
X98796Y73383D01*
X98804Y73398D01*
X98827Y73460D01*
X98835Y73513D01*
X98843Y73552D01*
Y73559D01*
Y73567D01*
Y75963D01*
X99756D01*
Y73690D01*
D02*
G37*
G36*
Y68898D02*
X98843D01*
Y69988D01*
X95202D01*
Y70894D01*
X98843D01*
Y71924D01*
X99756D01*
Y68898D01*
D02*
G37*
G36*
X99150Y83805D02*
X99257Y83758D01*
X99349Y83705D01*
X99426Y83643D01*
X99495Y83590D01*
X99541Y83536D01*
X99572Y83490D01*
X99595Y83459D01*
X99603Y83451D01*
X99657Y83359D01*
X99695Y83259D01*
X99718Y83167D01*
X99741Y83075D01*
X99749Y82998D01*
X99756Y82937D01*
Y82898D01*
Y82891D01*
Y82883D01*
X99749Y82760D01*
X99734Y82653D01*
X99710Y82553D01*
X99680Y82468D01*
X99649Y82399D01*
X99626Y82353D01*
X99611Y82315D01*
X99603Y82307D01*
X99541Y82222D01*
X99472Y82146D01*
X99396Y82084D01*
X99319Y82038D01*
X99257Y82000D01*
X99203Y81977D01*
X99165Y81961D01*
X99150Y81954D01*
X95202Y80579D01*
Y81516D01*
X95832Y81739D01*
Y84012D01*
X95202Y84242D01*
Y85187D01*
X99150Y83805D01*
D02*
G37*
G36*
X99756Y96891D02*
X96400D01*
X96293Y96884D01*
X96216Y96853D01*
X96155Y96807D01*
X96116Y96761D01*
X96093Y96715D01*
X96086Y96669D01*
X96078Y96638D01*
Y96630D01*
X96086Y96576D01*
X96101Y96538D01*
X96116Y96515D01*
X96124Y96507D01*
X96178Y96477D01*
X96239Y96453D01*
X96285Y96438D01*
X96301Y96430D01*
X96308D01*
X99088Y95517D01*
X99196Y95470D01*
X99288Y95417D01*
X99373Y95348D01*
X99442Y95286D01*
X99495Y95225D01*
X99541Y95171D01*
X99564Y95140D01*
X99572Y95125D01*
X99634Y95017D01*
X99680Y94902D01*
X99718Y94795D01*
X99741Y94695D01*
X99756Y94610D01*
X99764Y94541D01*
Y94495D01*
Y94488D01*
Y94480D01*
Y94388D01*
X99749Y94296D01*
X99741Y94219D01*
X99726Y94150D01*
X99710Y94088D01*
X99695Y94042D01*
X99687Y94011D01*
X99680Y94004D01*
X99649Y93927D01*
X99611Y93850D01*
X99572Y93781D01*
X99534Y93727D01*
X99503Y93681D01*
X99472Y93643D01*
X99457Y93620D01*
X99449Y93612D01*
X99334Y93504D01*
X99211Y93428D01*
X99165Y93397D01*
X99127Y93374D01*
X99096Y93366D01*
X99088Y93358D01*
X99004Y93328D01*
X98927Y93305D01*
X98843Y93289D01*
X98773Y93282D01*
X98712Y93274D01*
X98666Y93266D01*
X95202D01*
Y94234D01*
X98543D01*
X98651Y94242D01*
X98727Y94272D01*
X98781Y94318D01*
X98820Y94365D01*
X98843Y94411D01*
X98850Y94457D01*
X98858Y94488D01*
Y94495D01*
X98850Y94549D01*
X98827Y94587D01*
X98804Y94610D01*
X98796Y94618D01*
X98750Y94649D01*
X98697Y94672D01*
X98651Y94687D01*
X98643Y94695D01*
X98635D01*
X95855Y95601D01*
X95748Y95647D01*
X95648Y95701D01*
X95563Y95770D01*
X95494Y95831D01*
X95433Y95893D01*
X95394Y95939D01*
X95363Y95970D01*
X95356Y95985D01*
X95294Y96100D01*
X95248Y96215D01*
X95210Y96323D01*
X95187Y96423D01*
X95171Y96515D01*
X95164Y96584D01*
Y96630D01*
Y96638D01*
Y96645D01*
Y96738D01*
X95179Y96822D01*
X95187Y96907D01*
X95202Y96976D01*
X95218Y97030D01*
X95225Y97076D01*
X95241Y97106D01*
Y97114D01*
X95271Y97198D01*
X95310Y97268D01*
X95348Y97337D01*
X95387Y97391D01*
X95417Y97437D01*
X95448Y97467D01*
X95463Y97490D01*
X95471Y97498D01*
X95594Y97613D01*
X95655Y97652D01*
X95717Y97690D01*
X95763Y97721D01*
X95801Y97744D01*
X95832Y97751D01*
X95840Y97759D01*
X95924Y97790D01*
X96009Y97821D01*
X96086Y97836D01*
X96162Y97844D01*
X96224Y97851D01*
X96277Y97859D01*
X99756D01*
Y96891D01*
D02*
G37*
G36*
Y91853D02*
X95202D01*
Y92775D01*
X99756D01*
Y91853D01*
D02*
G37*
G36*
X96715Y89472D02*
X96830Y89465D01*
X96930Y89442D01*
X97030Y89419D01*
X97122Y89388D01*
X97207Y89357D01*
X97276Y89319D01*
X97345Y89280D01*
X97406Y89242D01*
X97460Y89204D01*
X97499Y89173D01*
X97537Y89142D01*
X97560Y89119D01*
X97583Y89096D01*
X97598Y89088D01*
Y89081D01*
X97660Y89004D01*
X97714Y88919D01*
X97798Y88750D01*
X97860Y88574D01*
X97898Y88405D01*
X97929Y88251D01*
X97936Y88190D01*
Y88128D01*
X97944Y88082D01*
Y88052D01*
Y88029D01*
Y88021D01*
Y86792D01*
X97952Y86731D01*
X97967Y86669D01*
X97982Y86615D01*
X98013Y86569D01*
X98036Y86539D01*
X98052Y86508D01*
X98067Y86493D01*
X98075Y86485D01*
X98128Y86439D01*
X98182Y86408D01*
X98236Y86385D01*
X98282Y86370D01*
X98328Y86362D01*
X98366Y86354D01*
X98397D01*
X98466Y86362D01*
X98520Y86377D01*
X98551Y86385D01*
X98566Y86393D01*
X98628Y86423D01*
X98674Y86454D01*
X98704Y86477D01*
X98712Y86485D01*
X98750Y86531D01*
X98781Y86577D01*
X98796Y86608D01*
X98804Y86623D01*
X98827Y86685D01*
X98835Y86738D01*
X98843Y86777D01*
Y86784D01*
Y86792D01*
Y89188D01*
X99756D01*
Y86915D01*
X99749Y86777D01*
X99741Y86646D01*
X99718Y86531D01*
X99703Y86431D01*
X99680Y86354D01*
X99657Y86293D01*
X99649Y86262D01*
X99641Y86247D01*
X99595Y86147D01*
X99549Y86055D01*
X99503Y85978D01*
X99449Y85917D01*
X99411Y85863D01*
X99373Y85817D01*
X99349Y85794D01*
X99342Y85786D01*
X99273Y85725D01*
X99196Y85671D01*
X99127Y85625D01*
X99058Y85586D01*
X98996Y85563D01*
X98950Y85540D01*
X98919Y85533D01*
X98912Y85525D01*
X98727Y85479D01*
X98635Y85464D01*
X98558Y85456D01*
X98489D01*
X98435Y85448D01*
X98389D01*
X98213Y85464D01*
X98128Y85471D01*
X98059Y85487D01*
X97998Y85502D01*
X97952Y85510D01*
X97913Y85525D01*
X97906D01*
X97821Y85556D01*
X97737Y85594D01*
X97660Y85640D01*
X97598Y85678D01*
X97545Y85717D01*
X97506Y85740D01*
X97475Y85763D01*
X97468Y85771D01*
X97399Y85840D01*
X97337Y85917D01*
X97284Y85993D01*
X97237Y86063D01*
X97199Y86124D01*
X97176Y86178D01*
X97161Y86208D01*
X97153Y86224D01*
X97115Y86339D01*
X97084Y86454D01*
X97069Y86569D01*
X97053Y86677D01*
X97045Y86769D01*
X97038Y86846D01*
Y86877D01*
Y86900D01*
Y86907D01*
Y86915D01*
Y88159D01*
X97030Y88221D01*
X97015Y88274D01*
X96992Y88320D01*
X96969Y88367D01*
X96946Y88397D01*
X96923Y88420D01*
X96907Y88436D01*
X96899Y88443D01*
X96846Y88482D01*
X96792Y88512D01*
X96738Y88535D01*
X96684Y88551D01*
X96646Y88559D01*
X96608Y88566D01*
X96577D01*
X96500Y88559D01*
X96439Y88551D01*
X96377Y88528D01*
X96324Y88505D01*
X96285Y88482D01*
X96254Y88466D01*
X96239Y88451D01*
X96231Y88443D01*
X96185Y88397D01*
X96155Y88351D01*
X96131Y88305D01*
X96116Y88259D01*
X96109Y88221D01*
X96101Y88190D01*
Y88167D01*
Y88159D01*
Y85671D01*
X95202D01*
Y88006D01*
X95210Y88128D01*
X95218Y88251D01*
X95256Y88466D01*
X95279Y88566D01*
X95310Y88651D01*
X95341Y88735D01*
X95371Y88804D01*
X95402Y88873D01*
X95433Y88927D01*
X95463Y88973D01*
X95486Y89019D01*
X95509Y89050D01*
X95525Y89073D01*
X95540Y89081D01*
Y89088D01*
X95609Y89157D01*
X95686Y89219D01*
X95763Y89273D01*
X95847Y89319D01*
X96016Y89388D01*
X96178Y89434D01*
X96331Y89457D01*
X96393Y89465D01*
X96454Y89472D01*
X96500Y89480D01*
X96592D01*
X96715Y89472D01*
D02*
G37*
G36*
X99756Y170243D02*
X95202D01*
Y171165D01*
X99756D01*
Y170243D01*
D02*
G37*
G36*
Y166856D02*
X98843D01*
Y167947D01*
X95202D01*
Y168853D01*
X98843D01*
Y169882D01*
X99756D01*
Y166856D01*
D02*
G37*
G36*
X99150Y165282D02*
X99257Y165236D01*
X99349Y165182D01*
X99426Y165120D01*
X99495Y165067D01*
X99541Y165013D01*
X99572Y164967D01*
X99595Y164936D01*
X99603Y164928D01*
X99657Y164836D01*
X99695Y164736D01*
X99718Y164644D01*
X99741Y164552D01*
X99749Y164475D01*
X99756Y164414D01*
Y164375D01*
Y164368D01*
Y164360D01*
X99749Y164237D01*
X99734Y164130D01*
X99710Y164030D01*
X99680Y163945D01*
X99649Y163876D01*
X99626Y163830D01*
X99611Y163792D01*
X99603Y163784D01*
X99541Y163700D01*
X99472Y163623D01*
X99396Y163561D01*
X99319Y163515D01*
X99257Y163477D01*
X99203Y163454D01*
X99165Y163438D01*
X99150Y163431D01*
X95202Y162056D01*
Y162993D01*
X95832Y163216D01*
Y165489D01*
X95202Y165719D01*
Y166664D01*
X99150Y165282D01*
D02*
G37*
G36*
X97706Y176095D02*
X97898Y176080D01*
X98075Y176049D01*
X98243Y176011D01*
X98397Y175965D01*
X98543Y175903D01*
X98681Y175842D01*
X98804Y175773D01*
X98919Y175696D01*
X99019Y175611D01*
X99119Y175527D01*
X99203Y175435D01*
X99280Y175343D01*
X99357Y175250D01*
X99472Y175058D01*
X99564Y174866D01*
X99641Y174674D01*
X99687Y174498D01*
X99718Y174344D01*
X99741Y174214D01*
X99749Y174160D01*
Y174114D01*
X99756Y174075D01*
Y174045D01*
Y174029D01*
Y174021D01*
Y173684D01*
X99749Y173492D01*
X99734Y173315D01*
X99703Y173154D01*
X99657Y173000D01*
X99611Y172854D01*
X99549Y172724D01*
X99480Y172601D01*
X99403Y172485D01*
X99319Y172378D01*
X99234Y172286D01*
X99142Y172194D01*
X99042Y172117D01*
X98835Y171979D01*
X98628Y171863D01*
X98420Y171779D01*
X98213Y171718D01*
X98021Y171671D01*
X97852Y171633D01*
X97775Y171625D01*
X97706Y171618D01*
X97645Y171610D01*
X97598D01*
X97552Y171602D01*
X97475D01*
X97268Y171610D01*
X97076Y171625D01*
X96892Y171656D01*
X96723Y171695D01*
X96569Y171741D01*
X96423Y171794D01*
X96285Y171856D01*
X96162Y171925D01*
X96047Y172002D01*
X95939Y172086D01*
X95847Y172171D01*
X95755Y172263D01*
X95678Y172355D01*
X95609Y172447D01*
X95486Y172647D01*
X95394Y172839D01*
X95325Y173023D01*
X95271Y173200D01*
X95241Y173361D01*
X95218Y173492D01*
X95210Y173545D01*
Y173591D01*
X95202Y173630D01*
Y173661D01*
Y173676D01*
Y173684D01*
Y174029D01*
X95210Y174221D01*
X95225Y174398D01*
X95256Y174559D01*
X95302Y174713D01*
X95348Y174859D01*
X95410Y174989D01*
X95479Y175112D01*
X95556Y175227D01*
X95640Y175335D01*
X95732Y175427D01*
X95824Y175519D01*
X95924Y175596D01*
X96124Y175734D01*
X96339Y175842D01*
X96554Y175926D01*
X96754Y175995D01*
X96946Y176041D01*
X97122Y176072D01*
X97199Y176080D01*
X97268Y176087D01*
X97330Y176095D01*
X97376Y176103D01*
X97499D01*
X97706Y176095D01*
D02*
G37*
G36*
X99756Y190580D02*
X97944D01*
Y188667D01*
X99756D01*
Y187746D01*
X95202D01*
Y188667D01*
X97038D01*
Y190580D01*
X95202D01*
Y191486D01*
X99756D01*
Y190580D01*
D02*
G37*
G36*
Y185595D02*
X99749Y185403D01*
X99734Y185227D01*
X99703Y185065D01*
X99657Y184912D01*
X99611Y184766D01*
X99549Y184635D01*
X99480Y184512D01*
X99403Y184397D01*
X99319Y184290D01*
X99234Y184197D01*
X99142Y184105D01*
X99042Y184029D01*
X98835Y183890D01*
X98628Y183775D01*
X98420Y183691D01*
X98213Y183629D01*
X98021Y183583D01*
X97852Y183545D01*
X97775Y183537D01*
X97706Y183529D01*
X97645Y183522D01*
X97598D01*
X97552Y183514D01*
X97475D01*
X97268Y183522D01*
X97076Y183537D01*
X96892Y183568D01*
X96723Y183606D01*
X96569Y183652D01*
X96423Y183706D01*
X96285Y183767D01*
X96162Y183837D01*
X96047Y183913D01*
X95939Y183998D01*
X95847Y184082D01*
X95755Y184175D01*
X95678Y184267D01*
X95609Y184359D01*
X95486Y184558D01*
X95394Y184750D01*
X95325Y184935D01*
X95271Y185111D01*
X95241Y185273D01*
X95218Y185403D01*
X95210Y185457D01*
Y185503D01*
X95202Y185541D01*
Y185572D01*
Y185588D01*
Y185595D01*
Y187269D01*
X96101D01*
Y185396D01*
X96109Y185303D01*
X96116Y185227D01*
X96162Y185073D01*
X96224Y184942D01*
X96316Y184835D01*
X96416Y184735D01*
X96531Y184658D01*
X96654Y184597D01*
X96784Y184543D01*
X96915Y184505D01*
X97038Y184474D01*
X97153Y184451D01*
X97253Y184436D01*
X97345Y184428D01*
X97406Y184420D01*
X97598D01*
X97721Y184428D01*
X97837Y184443D01*
X97944Y184459D01*
X98036Y184474D01*
X98121Y184497D01*
X98198Y184520D01*
X98267Y184543D01*
X98328Y184566D01*
X98382Y184589D01*
X98420Y184612D01*
X98459Y184628D01*
X98489Y184643D01*
X98505Y184658D01*
X98520Y184666D01*
X98628Y184766D01*
X98704Y184889D01*
X98766Y185004D01*
X98804Y185127D01*
X98827Y185234D01*
X98835Y185327D01*
X98843Y185357D01*
Y185380D01*
Y185396D01*
Y185403D01*
Y187269D01*
X99756D01*
Y185595D01*
D02*
G37*
G36*
Y180166D02*
X96400D01*
X96293Y180158D01*
X96216Y180127D01*
X96155Y180081D01*
X96116Y180035D01*
X96093Y179989D01*
X96086Y179943D01*
X96078Y179912D01*
Y179904D01*
X96086Y179851D01*
X96101Y179812D01*
X96116Y179789D01*
X96124Y179781D01*
X96178Y179751D01*
X96239Y179728D01*
X96285Y179712D01*
X96301Y179705D01*
X96308D01*
X99088Y178791D01*
X99196Y178745D01*
X99288Y178691D01*
X99373Y178622D01*
X99442Y178560D01*
X99495Y178499D01*
X99541Y178445D01*
X99564Y178414D01*
X99572Y178399D01*
X99634Y178292D01*
X99680Y178176D01*
X99718Y178069D01*
X99741Y177969D01*
X99756Y177885D01*
X99764Y177815D01*
Y177769D01*
Y177762D01*
Y177754D01*
Y177662D01*
X99749Y177570D01*
X99741Y177493D01*
X99726Y177424D01*
X99710Y177362D01*
X99695Y177316D01*
X99687Y177286D01*
X99680Y177278D01*
X99649Y177201D01*
X99611Y177124D01*
X99572Y177055D01*
X99534Y177001D01*
X99503Y176955D01*
X99472Y176917D01*
X99457Y176894D01*
X99449Y176886D01*
X99334Y176779D01*
X99211Y176702D01*
X99165Y176671D01*
X99127Y176648D01*
X99096Y176640D01*
X99088Y176633D01*
X99004Y176602D01*
X98927Y176579D01*
X98843Y176564D01*
X98773Y176556D01*
X98712Y176548D01*
X98666Y176541D01*
X95202D01*
Y177508D01*
X98543D01*
X98651Y177516D01*
X98727Y177547D01*
X98781Y177593D01*
X98820Y177639D01*
X98843Y177685D01*
X98850Y177731D01*
X98858Y177762D01*
Y177769D01*
X98850Y177823D01*
X98827Y177861D01*
X98804Y177885D01*
X98796Y177892D01*
X98750Y177923D01*
X98697Y177946D01*
X98651Y177961D01*
X98643Y177969D01*
X98635D01*
X95855Y178875D01*
X95748Y178921D01*
X95648Y178975D01*
X95563Y179044D01*
X95494Y179106D01*
X95433Y179167D01*
X95394Y179213D01*
X95363Y179244D01*
X95356Y179259D01*
X95294Y179375D01*
X95248Y179490D01*
X95210Y179597D01*
X95187Y179697D01*
X95171Y179789D01*
X95164Y179858D01*
Y179904D01*
Y179912D01*
Y179920D01*
Y180012D01*
X95179Y180096D01*
X95187Y180181D01*
X95202Y180250D01*
X95218Y180304D01*
X95225Y180350D01*
X95241Y180381D01*
Y180388D01*
X95271Y180473D01*
X95310Y180542D01*
X95348Y180611D01*
X95387Y180665D01*
X95417Y180711D01*
X95448Y180742D01*
X95463Y180765D01*
X95471Y180772D01*
X95594Y180887D01*
X95655Y180926D01*
X95717Y180964D01*
X95763Y180995D01*
X95801Y181018D01*
X95832Y181026D01*
X95840Y181033D01*
X95924Y181064D01*
X96009Y181095D01*
X96086Y181110D01*
X96162Y181118D01*
X96224Y181125D01*
X96277Y181133D01*
X99756D01*
Y180166D01*
D02*
G37*
G36*
Y140982D02*
X95202D01*
Y141904D01*
X99756D01*
Y140982D01*
D02*
G37*
G36*
X96715Y138601D02*
X96830Y138594D01*
X96930Y138571D01*
X97030Y138548D01*
X97122Y138517D01*
X97207Y138486D01*
X97276Y138448D01*
X97345Y138409D01*
X97406Y138371D01*
X97460Y138333D01*
X97499Y138302D01*
X97537Y138271D01*
X97560Y138248D01*
X97583Y138225D01*
X97598Y138217D01*
Y138210D01*
X97660Y138133D01*
X97714Y138048D01*
X97798Y137879D01*
X97860Y137703D01*
X97898Y137534D01*
X97929Y137380D01*
X97936Y137319D01*
Y137257D01*
X97944Y137211D01*
Y137181D01*
Y137157D01*
Y137150D01*
Y135921D01*
X97952Y135860D01*
X97967Y135798D01*
X97982Y135744D01*
X98013Y135698D01*
X98036Y135668D01*
X98052Y135637D01*
X98067Y135622D01*
X98075Y135614D01*
X98128Y135568D01*
X98182Y135537D01*
X98236Y135514D01*
X98282Y135499D01*
X98328Y135491D01*
X98366Y135483D01*
X98397D01*
X98466Y135491D01*
X98520Y135506D01*
X98551Y135514D01*
X98566Y135522D01*
X98628Y135552D01*
X98674Y135583D01*
X98704Y135606D01*
X98712Y135614D01*
X98750Y135660D01*
X98781Y135706D01*
X98796Y135737D01*
X98804Y135752D01*
X98827Y135813D01*
X98835Y135867D01*
X98843Y135906D01*
Y135913D01*
Y135921D01*
Y138317D01*
X99756D01*
Y136044D01*
X99749Y135906D01*
X99741Y135775D01*
X99718Y135660D01*
X99703Y135560D01*
X99680Y135483D01*
X99657Y135422D01*
X99649Y135391D01*
X99641Y135376D01*
X99595Y135276D01*
X99549Y135184D01*
X99503Y135107D01*
X99449Y135046D01*
X99411Y134992D01*
X99373Y134946D01*
X99349Y134923D01*
X99342Y134915D01*
X99273Y134853D01*
X99196Y134800D01*
X99127Y134754D01*
X99058Y134715D01*
X98996Y134692D01*
X98950Y134669D01*
X98919Y134661D01*
X98912Y134654D01*
X98727Y134608D01*
X98635Y134592D01*
X98558Y134585D01*
X98489D01*
X98435Y134577D01*
X98389D01*
X98213Y134592D01*
X98128Y134600D01*
X98059Y134616D01*
X97998Y134631D01*
X97952Y134639D01*
X97913Y134654D01*
X97906D01*
X97821Y134685D01*
X97737Y134723D01*
X97660Y134769D01*
X97598Y134807D01*
X97545Y134846D01*
X97506Y134869D01*
X97475Y134892D01*
X97468Y134900D01*
X97399Y134969D01*
X97337Y135046D01*
X97284Y135122D01*
X97237Y135192D01*
X97199Y135253D01*
X97176Y135307D01*
X97161Y135337D01*
X97153Y135353D01*
X97115Y135468D01*
X97084Y135583D01*
X97069Y135698D01*
X97053Y135806D01*
X97045Y135898D01*
X97038Y135975D01*
Y136005D01*
Y136029D01*
Y136036D01*
Y136044D01*
Y137288D01*
X97030Y137349D01*
X97015Y137403D01*
X96992Y137449D01*
X96969Y137496D01*
X96946Y137526D01*
X96923Y137549D01*
X96907Y137565D01*
X96899Y137572D01*
X96846Y137611D01*
X96792Y137641D01*
X96738Y137664D01*
X96684Y137680D01*
X96646Y137687D01*
X96608Y137695D01*
X96577D01*
X96500Y137687D01*
X96439Y137680D01*
X96377Y137657D01*
X96324Y137634D01*
X96285Y137611D01*
X96254Y137595D01*
X96239Y137580D01*
X96231Y137572D01*
X96185Y137526D01*
X96155Y137480D01*
X96131Y137434D01*
X96116Y137388D01*
X96109Y137349D01*
X96101Y137319D01*
Y137296D01*
Y137288D01*
Y134800D01*
X95202D01*
Y137135D01*
X95210Y137257D01*
X95218Y137380D01*
X95256Y137595D01*
X95279Y137695D01*
X95310Y137780D01*
X95341Y137864D01*
X95371Y137933D01*
X95402Y138002D01*
X95433Y138056D01*
X95463Y138102D01*
X95486Y138148D01*
X95509Y138179D01*
X95525Y138202D01*
X95540Y138210D01*
Y138217D01*
X95609Y138286D01*
X95686Y138348D01*
X95763Y138402D01*
X95847Y138448D01*
X96016Y138517D01*
X96178Y138563D01*
X96331Y138586D01*
X96393Y138594D01*
X96454Y138601D01*
X96500Y138609D01*
X96592D01*
X96715Y138601D01*
D02*
G37*
G36*
X99756Y131252D02*
X98843D01*
Y132342D01*
X95202D01*
Y133248D01*
X98843D01*
Y134277D01*
X99756D01*
Y131252D01*
D02*
G37*
G36*
Y146020D02*
X96400D01*
X96293Y146013D01*
X96216Y145982D01*
X96155Y145936D01*
X96116Y145890D01*
X96093Y145844D01*
X96086Y145798D01*
X96078Y145767D01*
Y145759D01*
X96086Y145705D01*
X96101Y145667D01*
X96116Y145644D01*
X96124Y145636D01*
X96178Y145606D01*
X96239Y145582D01*
X96285Y145567D01*
X96301Y145559D01*
X96308D01*
X99088Y144646D01*
X99196Y144599D01*
X99288Y144546D01*
X99373Y144477D01*
X99442Y144415D01*
X99495Y144354D01*
X99541Y144300D01*
X99564Y144269D01*
X99572Y144254D01*
X99634Y144146D01*
X99680Y144031D01*
X99718Y143924D01*
X99741Y143824D01*
X99756Y143739D01*
X99764Y143670D01*
Y143624D01*
Y143616D01*
Y143609D01*
Y143517D01*
X99749Y143424D01*
X99741Y143348D01*
X99726Y143279D01*
X99710Y143217D01*
X99695Y143171D01*
X99687Y143140D01*
X99680Y143133D01*
X99649Y143056D01*
X99611Y142979D01*
X99572Y142910D01*
X99534Y142856D01*
X99503Y142810D01*
X99472Y142772D01*
X99457Y142749D01*
X99449Y142741D01*
X99334Y142633D01*
X99211Y142557D01*
X99165Y142526D01*
X99127Y142503D01*
X99096Y142495D01*
X99088Y142487D01*
X99004Y142457D01*
X98927Y142434D01*
X98843Y142418D01*
X98773Y142411D01*
X98712Y142403D01*
X98666Y142395D01*
X95202D01*
Y143363D01*
X98543D01*
X98651Y143371D01*
X98727Y143401D01*
X98781Y143447D01*
X98820Y143493D01*
X98843Y143540D01*
X98850Y143586D01*
X98858Y143616D01*
Y143624D01*
X98850Y143678D01*
X98827Y143716D01*
X98804Y143739D01*
X98796Y143747D01*
X98750Y143778D01*
X98697Y143801D01*
X98651Y143816D01*
X98643Y143824D01*
X98635D01*
X95855Y144730D01*
X95748Y144776D01*
X95648Y144830D01*
X95563Y144899D01*
X95494Y144960D01*
X95433Y145022D01*
X95394Y145068D01*
X95363Y145099D01*
X95356Y145114D01*
X95294Y145229D01*
X95248Y145344D01*
X95210Y145452D01*
X95187Y145552D01*
X95171Y145644D01*
X95164Y145713D01*
Y145759D01*
Y145767D01*
Y145774D01*
Y145867D01*
X95179Y145951D01*
X95187Y146036D01*
X95202Y146105D01*
X95218Y146159D01*
X95225Y146205D01*
X95241Y146235D01*
Y146243D01*
X95271Y146327D01*
X95310Y146397D01*
X95348Y146466D01*
X95387Y146519D01*
X95417Y146565D01*
X95448Y146596D01*
X95463Y146619D01*
X95471Y146627D01*
X95594Y146742D01*
X95655Y146781D01*
X95717Y146819D01*
X95763Y146850D01*
X95801Y146873D01*
X95832Y146880D01*
X95840Y146888D01*
X95924Y146919D01*
X96009Y146950D01*
X96086Y146965D01*
X96162Y146973D01*
X96224Y146980D01*
X96277Y146988D01*
X99756D01*
Y146020D01*
D02*
G37*
G36*
Y160950D02*
X96178Y159691D01*
X96139Y159675D01*
X96116Y159660D01*
X96101Y159652D01*
Y159645D01*
X96086Y159614D01*
Y159606D01*
Y159599D01*
Y159568D01*
X96093Y159529D01*
X96101Y159522D01*
Y159514D01*
X96116Y159506D01*
X96139Y159491D01*
X96162Y159483D01*
X96170D01*
X99756Y158224D01*
Y157287D01*
X95778Y158661D01*
X95671Y158708D01*
X95579Y158761D01*
X95502Y158823D01*
X95440Y158877D01*
X95387Y158930D01*
X95356Y158976D01*
X95333Y159007D01*
X95325Y159015D01*
X95279Y159107D01*
X95241Y159207D01*
X95218Y159307D01*
X95195Y159399D01*
X95187Y159476D01*
X95179Y159537D01*
Y159575D01*
Y159591D01*
X95187Y159706D01*
X95202Y159813D01*
X95225Y159913D01*
X95248Y159998D01*
X95271Y160067D01*
X95294Y160113D01*
X95310Y160151D01*
X95317Y160159D01*
X95379Y160244D01*
X95448Y160320D01*
X95525Y160382D01*
X95602Y160428D01*
X95671Y160466D01*
X95724Y160489D01*
X95763Y160505D01*
X95778Y160512D01*
X99756Y161895D01*
Y160950D01*
D02*
G37*
G36*
X97706Y157003D02*
X97898Y156987D01*
X98075Y156957D01*
X98243Y156918D01*
X98397Y156872D01*
X98543Y156811D01*
X98681Y156749D01*
X98804Y156680D01*
X98919Y156603D01*
X99019Y156519D01*
X99119Y156434D01*
X99203Y156342D01*
X99280Y156250D01*
X99357Y156158D01*
X99472Y155966D01*
X99564Y155774D01*
X99641Y155582D01*
X99687Y155405D01*
X99718Y155252D01*
X99741Y155121D01*
X99749Y155067D01*
Y155021D01*
X99756Y154983D01*
Y154952D01*
Y154937D01*
Y154929D01*
Y154591D01*
X99749Y154399D01*
X99734Y154223D01*
X99703Y154061D01*
X99657Y153908D01*
X99611Y153762D01*
X99549Y153631D01*
X99480Y153508D01*
X99403Y153393D01*
X99319Y153286D01*
X99234Y153193D01*
X99142Y153101D01*
X99042Y153024D01*
X98835Y152886D01*
X98628Y152771D01*
X98420Y152687D01*
X98213Y152625D01*
X98021Y152579D01*
X97852Y152541D01*
X97775Y152533D01*
X97706Y152525D01*
X97645Y152517D01*
X97598D01*
X97552Y152510D01*
X97475D01*
X97268Y152517D01*
X97076Y152533D01*
X96892Y152564D01*
X96723Y152602D01*
X96569Y152648D01*
X96423Y152702D01*
X96285Y152763D01*
X96162Y152832D01*
X96047Y152909D01*
X95939Y152994D01*
X95847Y153078D01*
X95755Y153170D01*
X95678Y153262D01*
X95609Y153355D01*
X95486Y153554D01*
X95394Y153746D01*
X95325Y153931D01*
X95271Y154107D01*
X95241Y154269D01*
X95218Y154399D01*
X95210Y154453D01*
Y154499D01*
X95202Y154537D01*
Y154568D01*
Y154583D01*
Y154591D01*
Y154937D01*
X95210Y155129D01*
X95225Y155305D01*
X95256Y155467D01*
X95302Y155620D01*
X95348Y155766D01*
X95410Y155897D01*
X95479Y156020D01*
X95556Y156135D01*
X95640Y156242D01*
X95732Y156334D01*
X95824Y156427D01*
X95924Y156503D01*
X96124Y156642D01*
X96339Y156749D01*
X96554Y156834D01*
X96754Y156903D01*
X96946Y156949D01*
X97122Y156980D01*
X97199Y156987D01*
X97268Y156995D01*
X97330Y157003D01*
X97376Y157010D01*
X97499D01*
X97706Y157003D01*
D02*
G37*
G36*
X99756Y151104D02*
X96400D01*
X96293Y151097D01*
X96216Y151066D01*
X96155Y151020D01*
X96116Y150974D01*
X96093Y150928D01*
X96086Y150882D01*
X96078Y150851D01*
Y150843D01*
X96086Y150789D01*
X96101Y150751D01*
X96116Y150728D01*
X96124Y150720D01*
X96178Y150690D01*
X96239Y150667D01*
X96285Y150651D01*
X96301Y150644D01*
X96308D01*
X99088Y149730D01*
X99196Y149684D01*
X99288Y149630D01*
X99373Y149561D01*
X99442Y149499D01*
X99495Y149438D01*
X99541Y149384D01*
X99564Y149353D01*
X99572Y149338D01*
X99634Y149231D01*
X99680Y149115D01*
X99718Y149008D01*
X99741Y148908D01*
X99756Y148823D01*
X99764Y148754D01*
Y148708D01*
Y148701D01*
Y148693D01*
Y148601D01*
X99749Y148509D01*
X99741Y148432D01*
X99726Y148363D01*
X99710Y148301D01*
X99695Y148255D01*
X99687Y148224D01*
X99680Y148217D01*
X99649Y148140D01*
X99611Y148063D01*
X99572Y147994D01*
X99534Y147940D01*
X99503Y147894D01*
X99472Y147856D01*
X99457Y147833D01*
X99449Y147825D01*
X99334Y147717D01*
X99211Y147641D01*
X99165Y147610D01*
X99127Y147587D01*
X99096Y147579D01*
X99088Y147572D01*
X99004Y147541D01*
X98927Y147518D01*
X98843Y147503D01*
X98773Y147495D01*
X98712Y147487D01*
X98666Y147479D01*
X95202D01*
Y148447D01*
X98543D01*
X98651Y148455D01*
X98727Y148486D01*
X98781Y148532D01*
X98820Y148578D01*
X98843Y148624D01*
X98850Y148670D01*
X98858Y148701D01*
Y148708D01*
X98850Y148762D01*
X98827Y148800D01*
X98804Y148823D01*
X98796Y148831D01*
X98750Y148862D01*
X98697Y148885D01*
X98651Y148900D01*
X98643Y148908D01*
X98635D01*
X95855Y149814D01*
X95748Y149860D01*
X95648Y149914D01*
X95563Y149983D01*
X95494Y150045D01*
X95433Y150106D01*
X95394Y150152D01*
X95363Y150183D01*
X95356Y150198D01*
X95294Y150313D01*
X95248Y150429D01*
X95210Y150536D01*
X95187Y150636D01*
X95171Y150728D01*
X95164Y150797D01*
Y150843D01*
Y150851D01*
Y150859D01*
Y150951D01*
X95179Y151035D01*
X95187Y151120D01*
X95202Y151189D01*
X95218Y151243D01*
X95225Y151289D01*
X95241Y151320D01*
Y151327D01*
X95271Y151412D01*
X95310Y151481D01*
X95348Y151550D01*
X95387Y151604D01*
X95417Y151650D01*
X95448Y151680D01*
X95463Y151703D01*
X95471Y151711D01*
X95594Y151826D01*
X95655Y151865D01*
X95717Y151903D01*
X95763Y151934D01*
X95801Y151957D01*
X95832Y151965D01*
X95840Y151972D01*
X95924Y152003D01*
X96009Y152034D01*
X96086Y152049D01*
X96162Y152057D01*
X96224Y152064D01*
X96277Y152072D01*
X99756D01*
Y151104D01*
D02*
G37*
G36*
X-47675Y50533D02*
X-47561Y50527D01*
X-47460Y50507D01*
X-47373Y50493D01*
X-47306Y50473D01*
X-47252Y50453D01*
X-47225Y50446D01*
X-47212Y50439D01*
X-47124Y50399D01*
X-47043Y50359D01*
X-46976Y50318D01*
X-46922Y50271D01*
X-46876Y50238D01*
X-46835Y50204D01*
X-46815Y50184D01*
X-46808Y50177D01*
X-46755Y50117D01*
X-46707Y50050D01*
X-46667Y49989D01*
X-46633Y49929D01*
X-46613Y49875D01*
X-46593Y49834D01*
X-46586Y49808D01*
X-46580Y49801D01*
X-46540Y49640D01*
X-46526Y49559D01*
X-46519Y49492D01*
Y49431D01*
X-46513Y49384D01*
Y49357D01*
Y49344D01*
X-46526Y49189D01*
X-46533Y49115D01*
X-46546Y49055D01*
X-46560Y49001D01*
X-46566Y48961D01*
X-46580Y48927D01*
Y48921D01*
X-46607Y48847D01*
X-46640Y48773D01*
X-46681Y48706D01*
X-46714Y48652D01*
X-46748Y48605D01*
X-46768Y48571D01*
X-46788Y48544D01*
X-46795Y48538D01*
X-46855Y48477D01*
X-46922Y48423D01*
X-46990Y48376D01*
X-47050Y48336D01*
X-47104Y48302D01*
X-47151Y48282D01*
X-47178Y48269D01*
X-47191Y48262D01*
X-47292Y48228D01*
X-47393Y48202D01*
X-47494Y48188D01*
X-47588Y48175D01*
X-47668Y48168D01*
X-47736Y48161D01*
X-48885D01*
X-48939Y48155D01*
X-48985Y48141D01*
X-49026Y48121D01*
X-49066Y48101D01*
X-49093Y48081D01*
X-49113Y48060D01*
X-49127Y48047D01*
X-49133Y48040D01*
X-49167Y47993D01*
X-49194Y47946D01*
X-49214Y47899D01*
X-49227Y47852D01*
X-49234Y47818D01*
X-49241Y47785D01*
Y47765D01*
Y47758D01*
X-49234Y47691D01*
X-49227Y47637D01*
X-49207Y47583D01*
X-49187Y47536D01*
X-49167Y47503D01*
X-49154Y47476D01*
X-49140Y47462D01*
X-49133Y47456D01*
X-49093Y47415D01*
X-49053Y47388D01*
X-49012Y47368D01*
X-48972Y47355D01*
X-48939Y47348D01*
X-48912Y47341D01*
X-46707D01*
Y46555D01*
X-48750D01*
X-48858Y46562D01*
X-48965Y46569D01*
X-49154Y46602D01*
X-49241Y46622D01*
X-49315Y46649D01*
X-49389Y46676D01*
X-49449Y46703D01*
X-49510Y46730D01*
X-49557Y46757D01*
X-49597Y46784D01*
X-49637Y46804D01*
X-49664Y46824D01*
X-49684Y46837D01*
X-49691Y46851D01*
X-49698D01*
X-49758Y46911D01*
X-49812Y46979D01*
X-49859Y47046D01*
X-49900Y47120D01*
X-49960Y47267D01*
X-50000Y47409D01*
X-50020Y47543D01*
X-50027Y47597D01*
X-50034Y47651D01*
X-50041Y47691D01*
Y47718D01*
Y47738D01*
Y47745D01*
Y47771D01*
X-50034Y47879D01*
X-50027Y47980D01*
X-50007Y48067D01*
X-49987Y48155D01*
X-49960Y48235D01*
X-49933Y48309D01*
X-49900Y48370D01*
X-49866Y48430D01*
X-49832Y48484D01*
X-49799Y48531D01*
X-49772Y48564D01*
X-49745Y48598D01*
X-49725Y48618D01*
X-49705Y48638D01*
X-49698Y48652D01*
X-49691D01*
X-49624Y48706D01*
X-49550Y48753D01*
X-49402Y48827D01*
X-49248Y48880D01*
X-49100Y48914D01*
X-48965Y48941D01*
X-48912Y48948D01*
X-48858D01*
X-48818Y48954D01*
X-47689D01*
X-47635Y48961D01*
X-47581Y48974D01*
X-47534Y48988D01*
X-47494Y49015D01*
X-47467Y49035D01*
X-47440Y49048D01*
X-47427Y49062D01*
X-47420Y49068D01*
X-47379Y49115D01*
X-47353Y49163D01*
X-47332Y49210D01*
X-47319Y49250D01*
X-47312Y49290D01*
X-47306Y49324D01*
Y49344D01*
Y49351D01*
X-47312Y49411D01*
X-47326Y49458D01*
X-47332Y49485D01*
X-47339Y49499D01*
X-47366Y49552D01*
X-47393Y49593D01*
X-47413Y49619D01*
X-47420Y49626D01*
X-47460Y49660D01*
X-47500Y49687D01*
X-47527Y49700D01*
X-47541Y49707D01*
X-47594Y49727D01*
X-47642Y49734D01*
X-47675Y49740D01*
X-49785D01*
Y50540D01*
X-47796D01*
X-47675Y50533D01*
D02*
G37*
G36*
X74529Y280584D02*
X74646Y280574D01*
X74753Y280554D01*
X74856Y280523D01*
X74953Y280492D01*
X75040Y280451D01*
X75121Y280405D01*
X75198Y280354D01*
X75270Y280298D01*
X75331Y280242D01*
X75392Y280181D01*
X75443Y280114D01*
X75535Y279976D01*
X75612Y279838D01*
X75668Y279700D01*
X75709Y279562D01*
X75740Y279434D01*
X75765Y279322D01*
X75770Y279271D01*
X75775Y279225D01*
X75781Y279184D01*
Y279153D01*
X75786Y279123D01*
Y279102D01*
Y279092D01*
Y279087D01*
Y279072D01*
X75781Y278934D01*
X75770Y278806D01*
X75750Y278683D01*
X75724Y278571D01*
X75694Y278469D01*
X75658Y278372D01*
X75617Y278280D01*
X75571Y278198D01*
X75520Y278121D01*
X75464Y278050D01*
X75408Y277988D01*
X75346Y277927D01*
X75285Y277876D01*
X75224Y277830D01*
X75091Y277748D01*
X74963Y277687D01*
X74840Y277641D01*
X74723Y277605D01*
X74616Y277585D01*
X74529Y277569D01*
X74493Y277564D01*
X74462D01*
X74437Y277559D01*
X73287D01*
Y278157D01*
X74534D01*
X74595Y278162D01*
X74646Y278167D01*
X74748Y278198D01*
X74835Y278239D01*
X74907Y278300D01*
X74973Y278366D01*
X75024Y278443D01*
X75065Y278525D01*
X75101Y278612D01*
X75127Y278699D01*
X75147Y278780D01*
X75162Y278857D01*
X75173Y278924D01*
X75178Y278985D01*
X75183Y279026D01*
Y279056D01*
Y279067D01*
Y279153D01*
X75178Y279235D01*
X75167Y279312D01*
X75157Y279383D01*
X75147Y279445D01*
X75132Y279501D01*
X75116Y279552D01*
X75101Y279598D01*
X75086Y279639D01*
X75070Y279675D01*
X75055Y279700D01*
X75045Y279726D01*
X75035Y279746D01*
X75024Y279756D01*
X75019Y279767D01*
X74953Y279838D01*
X74871Y279889D01*
X74794Y279930D01*
X74713Y279956D01*
X74641Y279971D01*
X74580Y279976D01*
X74559Y279981D01*
X73287D01*
Y280589D01*
X74401D01*
X74529Y280584D01*
D02*
G37*
G36*
X72127D02*
X72209Y280579D01*
X72280Y280569D01*
X72347Y280554D01*
X72398Y280538D01*
X72439Y280528D01*
X72459Y280523D01*
X72469Y280518D01*
X72536Y280492D01*
X72597Y280462D01*
X72648Y280431D01*
X72689Y280400D01*
X72725Y280370D01*
X72755Y280349D01*
X72771Y280334D01*
X72776Y280329D01*
X72817Y280283D01*
X72853Y280232D01*
X72883Y280181D01*
X72909Y280140D01*
X72929Y280099D01*
X72945Y280068D01*
X72950Y280043D01*
X72955Y280037D01*
X72975Y279976D01*
X72986Y279915D01*
X72996Y279854D01*
X73006Y279797D01*
Y279751D01*
X73011Y279710D01*
Y279690D01*
Y279680D01*
X73006Y279618D01*
X73001Y279552D01*
X72986Y279496D01*
X72970Y279445D01*
X72960Y279399D01*
X72945Y279363D01*
X72939Y279343D01*
X72934Y279332D01*
X72904Y279271D01*
X72863Y279220D01*
X72827Y279174D01*
X72786Y279138D01*
X72750Y279113D01*
X72720Y279097D01*
X72699Y279087D01*
X72694Y279082D01*
X72750Y279051D01*
X72802Y279015D01*
X72842Y278975D01*
X72873Y278934D01*
X72904Y278898D01*
X72919Y278867D01*
X72929Y278847D01*
X72934Y278837D01*
X72960Y278770D01*
X72980Y278709D01*
X72991Y278647D01*
X73001Y278591D01*
X73006Y278545D01*
X73011Y278504D01*
Y278484D01*
Y278474D01*
X73001Y278346D01*
X72996Y278290D01*
X72986Y278239D01*
X72975Y278198D01*
X72970Y278167D01*
X72960Y278142D01*
Y278136D01*
X72939Y278080D01*
X72914Y278024D01*
X72883Y277973D01*
X72858Y277932D01*
X72832Y277896D01*
X72817Y277871D01*
X72802Y277850D01*
X72796Y277845D01*
X72750Y277799D01*
X72699Y277758D01*
X72648Y277723D01*
X72597Y277692D01*
X72556Y277666D01*
X72521Y277651D01*
X72500Y277641D01*
X72490Y277636D01*
X72418Y277610D01*
X72337Y277590D01*
X72265Y277579D01*
X72193Y277569D01*
X72127Y277564D01*
X72081Y277559D01*
X70522D01*
Y278157D01*
X72117D01*
X72163Y278162D01*
X72204Y278172D01*
X72239Y278183D01*
X72270Y278203D01*
X72296Y278218D01*
X72311Y278228D01*
X72321Y278239D01*
X72326Y278244D01*
X72352Y278280D01*
X72372Y278321D01*
X72388Y278361D01*
X72398Y278397D01*
X72403Y278433D01*
X72408Y278458D01*
Y278479D01*
Y278484D01*
X72403Y278525D01*
X72393Y278561D01*
X72388Y278581D01*
X72382Y278591D01*
X72362Y278632D01*
X72342Y278663D01*
X72326Y278683D01*
X72321Y278688D01*
X72290Y278714D01*
X72260Y278740D01*
X72239Y278750D01*
X72229Y278755D01*
X72188Y278770D01*
X72153Y278775D01*
X72127Y278780D01*
X70522D01*
Y279383D01*
X72117D01*
X72163Y279388D01*
X72204Y279399D01*
X72239Y279409D01*
X72270Y279429D01*
X72296Y279445D01*
X72311Y279455D01*
X72321Y279465D01*
X72326Y279470D01*
X72352Y279506D01*
X72372Y279542D01*
X72388Y279578D01*
X72398Y279608D01*
X72403Y279639D01*
X72408Y279664D01*
Y279680D01*
Y279685D01*
X72403Y279731D01*
X72393Y279767D01*
X72388Y279787D01*
X72382Y279797D01*
X72362Y279838D01*
X72342Y279869D01*
X72326Y279889D01*
X72321Y279894D01*
X72290Y279920D01*
X72260Y279940D01*
X72239Y279951D01*
X72229Y279956D01*
X72188Y279971D01*
X72153Y279976D01*
X72127Y279981D01*
X70522D01*
Y280589D01*
X72035D01*
X72127Y280584D01*
D02*
G37*
G36*
X63813D02*
X63885Y280574D01*
X63951Y280559D01*
X64007Y280538D01*
X64053Y280518D01*
X64084Y280503D01*
X64109Y280492D01*
X64114Y280487D01*
X64171Y280446D01*
X64222Y280400D01*
X64263Y280349D01*
X64293Y280298D01*
X64319Y280257D01*
X64334Y280221D01*
X64345Y280196D01*
X64350Y280186D01*
X65264Y277559D01*
X64641D01*
X64493Y277978D01*
X62980D01*
X62827Y277559D01*
X62198D01*
X63118Y280186D01*
X63149Y280257D01*
X63184Y280318D01*
X63225Y280370D01*
X63261Y280416D01*
X63297Y280446D01*
X63328Y280467D01*
X63348Y280482D01*
X63353Y280487D01*
X63414Y280523D01*
X63481Y280549D01*
X63542Y280564D01*
X63604Y280579D01*
X63655Y280584D01*
X63696Y280589D01*
X63731D01*
X63813Y280584D01*
D02*
G37*
G36*
X27057Y277942D02*
X27026Y277871D01*
X26990Y277810D01*
X26950Y277758D01*
X26914Y277717D01*
X26878Y277682D01*
X26847Y277661D01*
X26827Y277646D01*
X26822Y277641D01*
X26760Y277610D01*
X26694Y277585D01*
X26628Y277569D01*
X26566Y277554D01*
X26515Y277549D01*
X26474Y277544D01*
X26439D01*
X26362Y277549D01*
X26290Y277559D01*
X26224Y277574D01*
X26168Y277590D01*
X26122Y277605D01*
X26091Y277620D01*
X26065Y277631D01*
X26060Y277636D01*
X26004Y277677D01*
X25953Y277723D01*
X25912Y277774D01*
X25881Y277825D01*
X25856Y277871D01*
X25841Y277907D01*
X25830Y277932D01*
X25825Y277942D01*
X24905Y280589D01*
X25534D01*
X26372Y278208D01*
X26382Y278183D01*
X26392Y278167D01*
X26398Y278157D01*
X26403D01*
X26423Y278147D01*
X26454D01*
X26479Y278152D01*
X26485Y278157D01*
X26490D01*
X26495Y278167D01*
X26505Y278183D01*
X26510Y278198D01*
Y278203D01*
X27348Y280589D01*
X27972D01*
X27057Y277942D01*
D02*
G37*
G36*
X81698Y279981D02*
X80099D01*
X80058Y279976D01*
X80022Y279971D01*
X80001Y279961D01*
X79991Y279956D01*
X79956Y279935D01*
X79930Y279920D01*
X79909Y279900D01*
X79904Y279894D01*
X79879Y279864D01*
X79853Y279833D01*
X79843Y279807D01*
X79838Y279802D01*
Y279797D01*
X79823Y279756D01*
X79817Y279721D01*
X79812Y279695D01*
Y279690D01*
Y279685D01*
X79817Y279639D01*
X79828Y279598D01*
X79838Y279562D01*
X79853Y279532D01*
X79874Y279506D01*
X79884Y279486D01*
X79894Y279475D01*
X79899Y279470D01*
X79930Y279440D01*
X79966Y279419D01*
X80001Y279404D01*
X80032Y279394D01*
X80063Y279388D01*
X80083Y279383D01*
X80804D01*
X80880Y279373D01*
X81018Y279348D01*
X81141Y279312D01*
X81197Y279291D01*
X81243Y279271D01*
X81289Y279245D01*
X81325Y279225D01*
X81356Y279205D01*
X81381Y279189D01*
X81407Y279174D01*
X81422Y279164D01*
X81427Y279158D01*
X81432Y279153D01*
X81478Y279107D01*
X81519Y279061D01*
X81555Y279010D01*
X81586Y278954D01*
X81632Y278842D01*
X81662Y278734D01*
X81683Y278637D01*
X81688Y278596D01*
X81693Y278555D01*
X81698Y278525D01*
Y278504D01*
Y278489D01*
Y278484D01*
Y277559D01*
X81090D01*
Y278474D01*
X81085Y278520D01*
X81075Y278561D01*
X81064Y278596D01*
X81049Y278627D01*
X81034Y278653D01*
X81018Y278673D01*
X81013Y278683D01*
X81008Y278688D01*
X80977Y278719D01*
X80942Y278740D01*
X80911Y278760D01*
X80880Y278770D01*
X80855Y278775D01*
X80834Y278780D01*
X80180D01*
X80088Y278785D01*
X80001Y278791D01*
X79925Y278806D01*
X79858Y278821D01*
X79807Y278832D01*
X79766Y278847D01*
X79746Y278852D01*
X79736Y278857D01*
X79669Y278888D01*
X79608Y278924D01*
X79557Y278954D01*
X79511Y278990D01*
X79475Y279015D01*
X79450Y279041D01*
X79434Y279056D01*
X79429Y279061D01*
X79388Y279113D01*
X79352Y279164D01*
X79322Y279215D01*
X79301Y279261D01*
X79281Y279302D01*
X79271Y279332D01*
X79261Y279353D01*
Y279358D01*
X79230Y279475D01*
X79220Y279532D01*
X79215Y279583D01*
X79210Y279624D01*
Y279654D01*
Y279675D01*
Y279680D01*
Y279746D01*
X79220Y279813D01*
X79225Y279869D01*
X79235Y279925D01*
X79245Y279966D01*
X79255Y279997D01*
X79261Y280022D01*
X79266Y280027D01*
X79291Y280088D01*
X79317Y280140D01*
X79347Y280191D01*
X79378Y280232D01*
X79404Y280267D01*
X79424Y280293D01*
X79439Y280308D01*
X79444Y280313D01*
X79491Y280359D01*
X79542Y280400D01*
X79593Y280431D01*
X79639Y280462D01*
X79680Y280482D01*
X79715Y280497D01*
X79736Y280508D01*
X79746Y280513D01*
X79817Y280538D01*
X79889Y280559D01*
X79966Y280569D01*
X80032Y280579D01*
X80093Y280584D01*
X80139Y280589D01*
X81698D01*
Y279981D01*
D02*
G37*
G36*
X77579Y280584D02*
X77651Y280574D01*
X77717Y280559D01*
X77773Y280538D01*
X77820Y280518D01*
X77850Y280503D01*
X77876Y280492D01*
X77881Y280487D01*
X77937Y280446D01*
X77988Y280400D01*
X78029Y280349D01*
X78060Y280298D01*
X78085Y280257D01*
X78101Y280221D01*
X78111Y280196D01*
X78116Y280186D01*
X79031Y277559D01*
X78407D01*
X78259Y277978D01*
X76746D01*
X76593Y277559D01*
X75965D01*
X76884Y280186D01*
X76915Y280257D01*
X76951Y280318D01*
X76992Y280370D01*
X77027Y280416D01*
X77063Y280446D01*
X77094Y280467D01*
X77114Y280482D01*
X77119Y280487D01*
X77181Y280523D01*
X77247Y280549D01*
X77308Y280564D01*
X77370Y280579D01*
X77421Y280584D01*
X77462Y280589D01*
X77498D01*
X77579Y280584D01*
D02*
G37*
G36*
X61370Y279654D02*
Y280589D01*
X61984D01*
Y277559D01*
X61370D01*
Y278494D01*
X59424Y277534D01*
Y278167D01*
X61386Y279072D01*
X59424Y279951D01*
Y280620D01*
X61370Y279654D01*
D02*
G37*
G36*
X47844Y280584D02*
X47962Y280574D01*
X48069Y280554D01*
X48171Y280523D01*
X48268Y280492D01*
X48355Y280451D01*
X48437Y280405D01*
X48514Y280354D01*
X48585Y280298D01*
X48647Y280242D01*
X48708Y280181D01*
X48759Y280114D01*
X48851Y279976D01*
X48928Y279838D01*
X48984Y279700D01*
X49025Y279562D01*
X49055Y279434D01*
X49081Y279322D01*
X49086Y279271D01*
X49091Y279225D01*
X49096Y279184D01*
Y279153D01*
X49101Y279123D01*
Y279102D01*
Y279092D01*
Y279087D01*
Y279072D01*
X49096Y278934D01*
X49086Y278806D01*
X49066Y278683D01*
X49040Y278571D01*
X49009Y278469D01*
X48974Y278372D01*
X48933Y278280D01*
X48887Y278198D01*
X48836Y278121D01*
X48779Y278050D01*
X48723Y277988D01*
X48662Y277927D01*
X48601Y277876D01*
X48539Y277830D01*
X48406Y277748D01*
X48279Y277687D01*
X48156Y277641D01*
X48039Y277605D01*
X47931Y277585D01*
X47844Y277569D01*
X47809Y277564D01*
X47778D01*
X47752Y277559D01*
X46602D01*
Y278157D01*
X47849D01*
X47911Y278162D01*
X47962Y278167D01*
X48064Y278198D01*
X48151Y278239D01*
X48222Y278300D01*
X48289Y278366D01*
X48340Y278443D01*
X48381Y278525D01*
X48417Y278612D01*
X48442Y278699D01*
X48463Y278780D01*
X48478Y278857D01*
X48488Y278924D01*
X48493Y278985D01*
X48498Y279026D01*
Y279056D01*
Y279067D01*
Y279153D01*
X48493Y279235D01*
X48483Y279312D01*
X48473Y279383D01*
X48463Y279445D01*
X48447Y279501D01*
X48432Y279552D01*
X48417Y279598D01*
X48401Y279639D01*
X48386Y279675D01*
X48371Y279700D01*
X48360Y279726D01*
X48350Y279746D01*
X48340Y279756D01*
X48335Y279767D01*
X48268Y279838D01*
X48187Y279889D01*
X48110Y279930D01*
X48028Y279956D01*
X47957Y279971D01*
X47895Y279976D01*
X47875Y279981D01*
X46602D01*
Y280589D01*
X47717D01*
X47844Y280584D01*
D02*
G37*
G36*
X45064D02*
X45182Y280574D01*
X45289Y280554D01*
X45391Y280523D01*
X45489Y280492D01*
X45575Y280451D01*
X45657Y280405D01*
X45734Y280354D01*
X45805Y280298D01*
X45867Y280242D01*
X45928Y280181D01*
X45979Y280114D01*
X46071Y279976D01*
X46148Y279838D01*
X46204Y279700D01*
X46245Y279562D01*
X46275Y279434D01*
X46301Y279322D01*
X46306Y279271D01*
X46311Y279225D01*
X46316Y279184D01*
Y279153D01*
X46321Y279123D01*
Y279102D01*
Y279092D01*
Y279087D01*
Y279072D01*
X46316Y278934D01*
X46306Y278806D01*
X46286Y278683D01*
X46260Y278571D01*
X46229Y278469D01*
X46194Y278372D01*
X46153Y278280D01*
X46107Y278198D01*
X46056Y278121D01*
X46000Y278050D01*
X45943Y277988D01*
X45882Y277927D01*
X45821Y277876D01*
X45759Y277830D01*
X45627Y277748D01*
X45499Y277687D01*
X45376Y277641D01*
X45259Y277605D01*
X45151Y277585D01*
X45064Y277569D01*
X45029Y277564D01*
X44998D01*
X44972Y277559D01*
X43823D01*
Y278157D01*
X45070D01*
X45131Y278162D01*
X45182Y278167D01*
X45284Y278198D01*
X45371Y278239D01*
X45443Y278300D01*
X45509Y278366D01*
X45560Y278443D01*
X45601Y278525D01*
X45637Y278612D01*
X45662Y278699D01*
X45683Y278780D01*
X45698Y278857D01*
X45708Y278924D01*
X45713Y278985D01*
X45719Y279026D01*
Y279056D01*
Y279067D01*
Y279153D01*
X45713Y279235D01*
X45703Y279312D01*
X45693Y279383D01*
X45683Y279445D01*
X45667Y279501D01*
X45652Y279552D01*
X45637Y279598D01*
X45621Y279639D01*
X45606Y279675D01*
X45591Y279700D01*
X45581Y279726D01*
X45570Y279746D01*
X45560Y279756D01*
X45555Y279767D01*
X45489Y279838D01*
X45407Y279889D01*
X45330Y279930D01*
X45248Y279956D01*
X45177Y279971D01*
X45116Y279976D01*
X45095Y279981D01*
X43823D01*
Y280589D01*
X44937D01*
X45064Y280584D01*
D02*
G37*
G36*
X42663D02*
X42744Y280579D01*
X42816Y280569D01*
X42882Y280554D01*
X42934Y280538D01*
X42974Y280528D01*
X42995Y280523D01*
X43005Y280518D01*
X43071Y280492D01*
X43133Y280462D01*
X43184Y280431D01*
X43225Y280400D01*
X43261Y280370D01*
X43291Y280349D01*
X43307Y280334D01*
X43312Y280329D01*
X43353Y280283D01*
X43388Y280232D01*
X43419Y280181D01*
X43445Y280140D01*
X43465Y280099D01*
X43480Y280068D01*
X43485Y280043D01*
X43491Y280037D01*
X43511Y279976D01*
X43521Y279915D01*
X43531Y279854D01*
X43542Y279797D01*
Y279751D01*
X43547Y279710D01*
Y279690D01*
Y279680D01*
X43542Y279618D01*
X43536Y279552D01*
X43521Y279496D01*
X43506Y279445D01*
X43496Y279399D01*
X43480Y279363D01*
X43475Y279343D01*
X43470Y279332D01*
X43439Y279271D01*
X43399Y279220D01*
X43363Y279174D01*
X43322Y279138D01*
X43286Y279113D01*
X43255Y279097D01*
X43235Y279087D01*
X43230Y279082D01*
X43286Y279051D01*
X43337Y279015D01*
X43378Y278975D01*
X43409Y278934D01*
X43439Y278898D01*
X43455Y278867D01*
X43465Y278847D01*
X43470Y278837D01*
X43496Y278770D01*
X43516Y278709D01*
X43526Y278647D01*
X43536Y278591D01*
X43542Y278545D01*
X43547Y278504D01*
Y278484D01*
Y278474D01*
X43536Y278346D01*
X43531Y278290D01*
X43521Y278239D01*
X43511Y278198D01*
X43506Y278167D01*
X43496Y278142D01*
Y278136D01*
X43475Y278080D01*
X43450Y278024D01*
X43419Y277973D01*
X43393Y277932D01*
X43368Y277896D01*
X43353Y277871D01*
X43337Y277850D01*
X43332Y277845D01*
X43286Y277799D01*
X43235Y277758D01*
X43184Y277723D01*
X43133Y277692D01*
X43092Y277666D01*
X43056Y277651D01*
X43036Y277641D01*
X43025Y277636D01*
X42954Y277610D01*
X42872Y277590D01*
X42801Y277579D01*
X42729Y277569D01*
X42663Y277564D01*
X42617Y277559D01*
X41058D01*
Y278157D01*
X42652D01*
X42698Y278162D01*
X42739Y278172D01*
X42775Y278183D01*
X42806Y278203D01*
X42831Y278218D01*
X42847Y278228D01*
X42857Y278239D01*
X42862Y278244D01*
X42888Y278280D01*
X42908Y278321D01*
X42923Y278361D01*
X42934Y278397D01*
X42939Y278433D01*
X42944Y278458D01*
Y278479D01*
Y278484D01*
X42939Y278525D01*
X42928Y278561D01*
X42923Y278581D01*
X42918Y278591D01*
X42898Y278632D01*
X42877Y278663D01*
X42862Y278683D01*
X42857Y278688D01*
X42826Y278714D01*
X42796Y278740D01*
X42775Y278750D01*
X42765Y278755D01*
X42724Y278770D01*
X42688Y278775D01*
X42663Y278780D01*
X41058D01*
Y279383D01*
X42652D01*
X42698Y279388D01*
X42739Y279399D01*
X42775Y279409D01*
X42806Y279429D01*
X42831Y279445D01*
X42847Y279455D01*
X42857Y279465D01*
X42862Y279470D01*
X42888Y279506D01*
X42908Y279542D01*
X42923Y279578D01*
X42934Y279608D01*
X42939Y279639D01*
X42944Y279664D01*
Y279680D01*
Y279685D01*
X42939Y279731D01*
X42928Y279767D01*
X42923Y279787D01*
X42918Y279797D01*
X42898Y279838D01*
X42877Y279869D01*
X42862Y279889D01*
X42857Y279894D01*
X42826Y279920D01*
X42796Y279940D01*
X42775Y279951D01*
X42765Y279956D01*
X42724Y279971D01*
X42688Y279976D01*
X42663Y279981D01*
X41058D01*
Y280589D01*
X42571D01*
X42663Y280584D01*
D02*
G37*
G36*
X58248D02*
X58330Y280579D01*
X58402Y280569D01*
X58468Y280554D01*
X58519Y280538D01*
X58560Y280528D01*
X58580Y280523D01*
X58591Y280518D01*
X58657Y280492D01*
X58718Y280462D01*
X58769Y280431D01*
X58810Y280400D01*
X58846Y280370D01*
X58877Y280349D01*
X58892Y280334D01*
X58897Y280329D01*
X58938Y280283D01*
X58974Y280232D01*
X59004Y280181D01*
X59030Y280140D01*
X59051Y280099D01*
X59066Y280068D01*
X59071Y280043D01*
X59076Y280037D01*
X59096Y279976D01*
X59107Y279915D01*
X59117Y279854D01*
X59127Y279797D01*
Y279751D01*
X59132Y279710D01*
Y279690D01*
Y279680D01*
X59127Y279618D01*
X59122Y279552D01*
X59107Y279496D01*
X59091Y279445D01*
X59081Y279399D01*
X59066Y279363D01*
X59061Y279343D01*
X59056Y279332D01*
X59025Y279271D01*
X58984Y279220D01*
X58948Y279174D01*
X58907Y279138D01*
X58872Y279113D01*
X58841Y279097D01*
X58821Y279087D01*
X58815Y279082D01*
X58872Y279051D01*
X58923Y279015D01*
X58964Y278975D01*
X58994Y278934D01*
X59025Y278898D01*
X59040Y278867D01*
X59051Y278847D01*
X59056Y278837D01*
X59081Y278770D01*
X59102Y278709D01*
X59112Y278647D01*
X59122Y278591D01*
X59127Y278545D01*
X59132Y278504D01*
Y278484D01*
Y278474D01*
X59122Y278346D01*
X59117Y278290D01*
X59107Y278239D01*
X59096Y278198D01*
X59091Y278167D01*
X59081Y278142D01*
Y278136D01*
X59061Y278080D01*
X59035Y278024D01*
X59004Y277973D01*
X58979Y277932D01*
X58953Y277896D01*
X58938Y277871D01*
X58923Y277850D01*
X58918Y277845D01*
X58872Y277799D01*
X58821Y277758D01*
X58769Y277723D01*
X58718Y277692D01*
X58678Y277666D01*
X58642Y277651D01*
X58621Y277641D01*
X58611Y277636D01*
X58539Y277610D01*
X58458Y277590D01*
X58386Y277579D01*
X58315Y277569D01*
X58248Y277564D01*
X58202Y277559D01*
X56644D01*
Y278157D01*
X58238D01*
X58284Y278162D01*
X58325Y278172D01*
X58361Y278183D01*
X58391Y278203D01*
X58417Y278218D01*
X58432Y278228D01*
X58442Y278239D01*
X58447Y278244D01*
X58473Y278280D01*
X58494Y278321D01*
X58509Y278361D01*
X58519Y278397D01*
X58524Y278433D01*
X58529Y278458D01*
Y278479D01*
Y278484D01*
X58524Y278525D01*
X58514Y278561D01*
X58509Y278581D01*
X58504Y278591D01*
X58483Y278632D01*
X58463Y278663D01*
X58447Y278683D01*
X58442Y278688D01*
X58412Y278714D01*
X58381Y278740D01*
X58361Y278750D01*
X58350Y278755D01*
X58310Y278770D01*
X58274Y278775D01*
X58248Y278780D01*
X56644D01*
Y279383D01*
X58238D01*
X58284Y279388D01*
X58325Y279399D01*
X58361Y279409D01*
X58391Y279429D01*
X58417Y279445D01*
X58432Y279455D01*
X58442Y279465D01*
X58447Y279470D01*
X58473Y279506D01*
X58494Y279542D01*
X58509Y279578D01*
X58519Y279608D01*
X58524Y279639D01*
X58529Y279664D01*
Y279680D01*
Y279685D01*
X58524Y279731D01*
X58514Y279767D01*
X58509Y279787D01*
X58504Y279797D01*
X58483Y279838D01*
X58463Y279869D01*
X58447Y279889D01*
X58442Y279894D01*
X58412Y279920D01*
X58381Y279940D01*
X58361Y279951D01*
X58350Y279956D01*
X58310Y279971D01*
X58274Y279976D01*
X58248Y279981D01*
X56644D01*
Y280589D01*
X58156D01*
X58248Y280584D01*
D02*
G37*
G36*
X56312Y277559D02*
X55698D01*
Y278653D01*
X53797Y277503D01*
Y278177D01*
X54988Y278780D01*
X54794D01*
X54702Y278785D01*
X54615Y278791D01*
X54538Y278806D01*
X54472Y278821D01*
X54421Y278832D01*
X54380Y278847D01*
X54360Y278852D01*
X54349Y278857D01*
X54283Y278888D01*
X54222Y278924D01*
X54171Y278954D01*
X54124Y278990D01*
X54089Y279015D01*
X54063Y279041D01*
X54048Y279056D01*
X54043Y279061D01*
X54002Y279113D01*
X53966Y279164D01*
X53935Y279215D01*
X53915Y279261D01*
X53895Y279302D01*
X53884Y279332D01*
X53874Y279353D01*
Y279358D01*
X53843Y279475D01*
X53833Y279532D01*
X53828Y279583D01*
X53823Y279624D01*
Y279654D01*
Y279675D01*
Y279680D01*
Y279746D01*
X53833Y279813D01*
X53838Y279869D01*
X53848Y279925D01*
X53859Y279966D01*
X53869Y279997D01*
X53874Y280022D01*
X53879Y280027D01*
X53900Y280088D01*
X53925Y280140D01*
X53956Y280191D01*
X53987Y280232D01*
X54012Y280267D01*
X54032Y280293D01*
X54048Y280308D01*
X54053Y280313D01*
X54099Y280359D01*
X54150Y280400D01*
X54201Y280431D01*
X54252Y280462D01*
X54293Y280482D01*
X54329Y280497D01*
X54349Y280508D01*
X54360Y280513D01*
X54431Y280538D01*
X54503Y280559D01*
X54579Y280569D01*
X54646Y280579D01*
X54707Y280584D01*
X54753Y280589D01*
X56312D01*
Y277559D01*
D02*
G37*
G36*
X50895Y280584D02*
X50967Y280574D01*
X51033Y280559D01*
X51089Y280538D01*
X51135Y280518D01*
X51166Y280503D01*
X51191Y280492D01*
X51196Y280487D01*
X51253Y280446D01*
X51304Y280395D01*
X51345Y280344D01*
X51375Y280298D01*
X51401Y280252D01*
X51416Y280216D01*
X51426Y280191D01*
X51432Y280181D01*
X52346Y277559D01*
X51723D01*
X50890Y279910D01*
X50880Y279935D01*
X50869Y279951D01*
X50844Y279971D01*
X50823Y279981D01*
X50798D01*
X50783Y279971D01*
X50762Y279956D01*
X50752Y279935D01*
X50747Y279930D01*
Y279925D01*
X49909Y277559D01*
X49280D01*
X50200Y280181D01*
X50231Y280252D01*
X50266Y280313D01*
X50307Y280370D01*
X50343Y280411D01*
X50379Y280446D01*
X50410Y280467D01*
X50430Y280482D01*
X50435Y280487D01*
X50496Y280523D01*
X50563Y280549D01*
X50624Y280564D01*
X50685Y280579D01*
X50736Y280584D01*
X50777Y280589D01*
X50813D01*
X50895Y280584D01*
D02*
G37*
G36*
X80372Y271279D02*
X80495Y271271D01*
X80602Y271256D01*
X80702Y271233D01*
X80779Y271210D01*
X80840Y271194D01*
X80871Y271187D01*
X80887Y271179D01*
X80986Y271141D01*
X81078Y271095D01*
X81155Y271048D01*
X81217Y271002D01*
X81270Y270956D01*
X81317Y270926D01*
X81340Y270903D01*
X81347Y270895D01*
X81409Y270826D01*
X81463Y270749D01*
X81509Y270672D01*
X81547Y270611D01*
X81578Y270549D01*
X81601Y270503D01*
X81608Y270465D01*
X81616Y270457D01*
X81647Y270365D01*
X81662Y270273D01*
X81678Y270181D01*
X81693Y270096D01*
Y270027D01*
X81701Y269966D01*
Y269935D01*
Y269919D01*
X81693Y269827D01*
X81685Y269727D01*
X81662Y269643D01*
X81639Y269566D01*
X81624Y269497D01*
X81601Y269443D01*
X81593Y269413D01*
X81585Y269397D01*
X81539Y269305D01*
X81478Y269228D01*
X81424Y269159D01*
X81363Y269106D01*
X81309Y269067D01*
X81263Y269044D01*
X81232Y269029D01*
X81224Y269021D01*
X81309Y268975D01*
X81386Y268921D01*
X81447Y268860D01*
X81493Y268798D01*
X81539Y268744D01*
X81562Y268698D01*
X81578Y268668D01*
X81585Y268652D01*
X81624Y268552D01*
X81655Y268460D01*
X81670Y268368D01*
X81685Y268284D01*
X81693Y268215D01*
X81701Y268153D01*
Y268122D01*
Y268107D01*
X81685Y267915D01*
X81678Y267831D01*
X81662Y267754D01*
X81647Y267692D01*
X81639Y267646D01*
X81624Y267608D01*
Y267600D01*
X81593Y267516D01*
X81555Y267431D01*
X81509Y267354D01*
X81470Y267293D01*
X81432Y267239D01*
X81409Y267201D01*
X81386Y267170D01*
X81378Y267162D01*
X81309Y267093D01*
X81232Y267032D01*
X81155Y266978D01*
X81078Y266932D01*
X81017Y266894D01*
X80963Y266871D01*
X80933Y266855D01*
X80917Y266847D01*
X80810Y266809D01*
X80687Y266778D01*
X80579Y266763D01*
X80472Y266748D01*
X80372Y266740D01*
X80303Y266732D01*
X77960D01*
Y267631D01*
X80357D01*
X80426Y267639D01*
X80487Y267654D01*
X80541Y267669D01*
X80587Y267700D01*
X80625Y267723D01*
X80648Y267738D01*
X80664Y267754D01*
X80672Y267761D01*
X80710Y267815D01*
X80741Y267877D01*
X80764Y267938D01*
X80779Y267992D01*
X80787Y268046D01*
X80794Y268084D01*
Y268115D01*
Y268122D01*
X80787Y268184D01*
X80771Y268238D01*
X80764Y268268D01*
X80756Y268284D01*
X80725Y268345D01*
X80695Y268391D01*
X80672Y268422D01*
X80664Y268430D01*
X80618Y268468D01*
X80572Y268506D01*
X80541Y268522D01*
X80525Y268529D01*
X80464Y268552D01*
X80410Y268560D01*
X80372Y268568D01*
X77960D01*
Y269474D01*
X80357D01*
X80426Y269482D01*
X80487Y269497D01*
X80541Y269513D01*
X80587Y269543D01*
X80625Y269566D01*
X80648Y269582D01*
X80664Y269597D01*
X80672Y269605D01*
X80710Y269658D01*
X80741Y269712D01*
X80764Y269766D01*
X80779Y269812D01*
X80787Y269858D01*
X80794Y269897D01*
Y269919D01*
Y269927D01*
X80787Y269996D01*
X80771Y270050D01*
X80764Y270081D01*
X80756Y270096D01*
X80725Y270158D01*
X80695Y270204D01*
X80672Y270234D01*
X80664Y270242D01*
X80618Y270281D01*
X80572Y270311D01*
X80541Y270327D01*
X80525Y270334D01*
X80464Y270357D01*
X80410Y270365D01*
X80372Y270373D01*
X77960D01*
Y271287D01*
X80234D01*
X80372Y271279D01*
D02*
G37*
G36*
X75626D02*
X75802Y271264D01*
X75964Y271233D01*
X76117Y271187D01*
X76263Y271141D01*
X76394Y271079D01*
X76517Y271010D01*
X76632Y270933D01*
X76739Y270849D01*
X76832Y270764D01*
X76924Y270672D01*
X77000Y270572D01*
X77139Y270365D01*
X77254Y270158D01*
X77338Y269950D01*
X77400Y269743D01*
X77446Y269551D01*
X77484Y269382D01*
X77492Y269305D01*
X77500Y269236D01*
X77507Y269175D01*
Y269128D01*
X77515Y269082D01*
Y269052D01*
Y269036D01*
Y269029D01*
Y269006D01*
X77507Y268798D01*
X77492Y268606D01*
X77461Y268422D01*
X77423Y268253D01*
X77377Y268099D01*
X77323Y267953D01*
X77262Y267815D01*
X77192Y267692D01*
X77116Y267577D01*
X77031Y267470D01*
X76947Y267377D01*
X76854Y267285D01*
X76762Y267209D01*
X76670Y267139D01*
X76471Y267017D01*
X76279Y266924D01*
X76094Y266855D01*
X75918Y266802D01*
X75756Y266771D01*
X75626Y266748D01*
X75572Y266740D01*
X75526D01*
X75488Y266732D01*
X73760D01*
Y267631D01*
X75633D01*
X75726Y267639D01*
X75802Y267646D01*
X75956Y267692D01*
X76086Y267754D01*
X76194Y267846D01*
X76294Y267946D01*
X76371Y268061D01*
X76432Y268184D01*
X76486Y268314D01*
X76524Y268445D01*
X76555Y268568D01*
X76578Y268683D01*
X76593Y268783D01*
X76601Y268875D01*
X76609Y268936D01*
Y268983D01*
Y268998D01*
Y269128D01*
X76601Y269251D01*
X76586Y269367D01*
X76570Y269474D01*
X76555Y269566D01*
X76532Y269651D01*
X76509Y269727D01*
X76486Y269797D01*
X76463Y269858D01*
X76440Y269912D01*
X76417Y269950D01*
X76401Y269989D01*
X76386Y270019D01*
X76371Y270035D01*
X76363Y270050D01*
X76263Y270158D01*
X76140Y270234D01*
X76025Y270296D01*
X75902Y270334D01*
X75795Y270357D01*
X75703Y270365D01*
X75672Y270373D01*
X73760D01*
Y271287D01*
X75434D01*
X75626Y271279D01*
D02*
G37*
G36*
X57248D02*
X57355Y271264D01*
X57455Y271240D01*
X57539Y271210D01*
X57608Y271179D01*
X57655Y271156D01*
X57693Y271141D01*
X57701Y271133D01*
X57785Y271072D01*
X57862Y271002D01*
X57923Y270926D01*
X57969Y270849D01*
X58008Y270787D01*
X58031Y270734D01*
X58046Y270695D01*
X58054Y270680D01*
X59429Y266732D01*
X58492D01*
X58269Y267362D01*
X55996D01*
X55765Y266732D01*
X54821D01*
X56203Y270680D01*
X56249Y270787D01*
X56303Y270880D01*
X56364Y270956D01*
X56418Y271025D01*
X56472Y271072D01*
X56518Y271102D01*
X56549Y271125D01*
X56556Y271133D01*
X56648Y271187D01*
X56748Y271225D01*
X56840Y271248D01*
X56933Y271271D01*
X57009Y271279D01*
X57071Y271287D01*
X57125D01*
X57248Y271279D01*
D02*
G37*
G36*
X71448D02*
X71624Y271264D01*
X71786Y271233D01*
X71939Y271187D01*
X72085Y271141D01*
X72216Y271079D01*
X72339Y271010D01*
X72454Y270933D01*
X72561Y270849D01*
X72654Y270764D01*
X72746Y270672D01*
X72822Y270572D01*
X72961Y270365D01*
X73076Y270158D01*
X73160Y269950D01*
X73222Y269743D01*
X73268Y269551D01*
X73306Y269382D01*
X73314Y269305D01*
X73322Y269236D01*
X73329Y269175D01*
Y269128D01*
X73337Y269082D01*
Y269052D01*
Y269036D01*
Y269029D01*
Y269006D01*
X73329Y268798D01*
X73314Y268606D01*
X73283Y268422D01*
X73245Y268253D01*
X73199Y268099D01*
X73145Y267953D01*
X73084Y267815D01*
X73014Y267692D01*
X72938Y267577D01*
X72853Y267470D01*
X72769Y267377D01*
X72677Y267285D01*
X72584Y267209D01*
X72492Y267139D01*
X72293Y267017D01*
X72101Y266924D01*
X71916Y266855D01*
X71740Y266802D01*
X71578Y266771D01*
X71448Y266748D01*
X71394Y266740D01*
X71348D01*
X71310Y266732D01*
X70503D01*
X70403Y266740D01*
X70319Y266748D01*
X70234Y266763D01*
X70158Y266786D01*
X70096Y266809D01*
X70050Y266825D01*
X70019Y266832D01*
X70012Y266840D01*
X69927Y266886D01*
X69843Y266940D01*
X69774Y266986D01*
X69712Y267039D01*
X69666Y267078D01*
X69628Y267116D01*
X69605Y267139D01*
X69597Y267147D01*
X69528Y267224D01*
X69474Y267293D01*
X69428Y267370D01*
X69382Y267431D01*
X69351Y267493D01*
X69328Y267539D01*
X69320Y267569D01*
X69313Y267577D01*
X69274Y267669D01*
X69251Y267754D01*
X69228Y267838D01*
X69221Y267915D01*
X69213Y267984D01*
X69205Y268030D01*
Y268069D01*
Y268076D01*
X69213Y268184D01*
X69221Y268291D01*
X69236Y268384D01*
X69251Y268468D01*
X69274Y268537D01*
X69290Y268583D01*
X69297Y268622D01*
X69305Y268629D01*
X69344Y268722D01*
X69389Y268806D01*
X69436Y268883D01*
X69482Y268952D01*
X69520Y269006D01*
X69551Y269044D01*
X69574Y269067D01*
X69582Y269075D01*
X69651Y269144D01*
X69720Y269198D01*
X69781Y269251D01*
X69850Y269290D01*
X69904Y269321D01*
X69950Y269343D01*
X69981Y269359D01*
X69989Y269367D01*
X70073Y269405D01*
X70165Y269428D01*
X70250Y269451D01*
X70327Y269459D01*
X70396Y269466D01*
X70449Y269474D01*
X71302D01*
Y268568D01*
X70534D01*
X70472Y268560D01*
X70411Y268545D01*
X70365Y268522D01*
X70319Y268499D01*
X70288Y268476D01*
X70265Y268453D01*
X70250Y268437D01*
X70242Y268430D01*
X70204Y268376D01*
X70173Y268322D01*
X70150Y268268D01*
X70135Y268215D01*
X70127Y268176D01*
X70119Y268138D01*
Y268115D01*
Y268107D01*
X70127Y268038D01*
X70135Y267976D01*
X70150Y267938D01*
X70158Y267930D01*
Y267923D01*
X70188Y267861D01*
X70211Y267815D01*
X70242Y267785D01*
X70250Y267769D01*
X70296Y267731D01*
X70334Y267700D01*
X70365Y267677D01*
X70380Y267669D01*
X70434Y267646D01*
X70488Y267639D01*
X70518Y267631D01*
X71456D01*
X71548Y267639D01*
X71624Y267646D01*
X71778Y267692D01*
X71909Y267754D01*
X72016Y267846D01*
X72116Y267946D01*
X72193Y268061D01*
X72254Y268184D01*
X72308Y268314D01*
X72346Y268445D01*
X72377Y268568D01*
X72400Y268683D01*
X72416Y268783D01*
X72423Y268875D01*
X72431Y268936D01*
Y268983D01*
Y268998D01*
Y269128D01*
X72423Y269251D01*
X72408Y269367D01*
X72392Y269474D01*
X72377Y269566D01*
X72354Y269651D01*
X72331Y269727D01*
X72308Y269797D01*
X72285Y269858D01*
X72262Y269912D01*
X72239Y269950D01*
X72224Y269989D01*
X72208Y270019D01*
X72193Y270035D01*
X72185Y270050D01*
X72085Y270158D01*
X71962Y270234D01*
X71847Y270296D01*
X71724Y270334D01*
X71617Y270357D01*
X71525Y270365D01*
X71494Y270373D01*
X69582D01*
Y271287D01*
X71256D01*
X71448Y271279D01*
D02*
G37*
G36*
X52056D02*
X52133Y271271D01*
X52202Y271256D01*
X52263Y271240D01*
X52309Y271225D01*
X52340Y271217D01*
X52348Y271210D01*
X52424Y271179D01*
X52501Y271141D01*
X52570Y271102D01*
X52624Y271064D01*
X52670Y271033D01*
X52709Y271002D01*
X52732Y270987D01*
X52739Y270979D01*
X52847Y270864D01*
X52924Y270741D01*
X52954Y270695D01*
X52977Y270657D01*
X52985Y270626D01*
X52993Y270618D01*
X53023Y270534D01*
X53047Y270457D01*
X53062Y270373D01*
X53070Y270304D01*
X53077Y270242D01*
X53085Y270196D01*
Y270165D01*
Y270150D01*
Y266732D01*
X52117D01*
Y270073D01*
X52110Y270181D01*
X52079Y270257D01*
X52033Y270311D01*
X51987Y270350D01*
X51941Y270373D01*
X51894Y270380D01*
X51864Y270388D01*
X51856D01*
X51802Y270380D01*
X51764Y270357D01*
X51741Y270334D01*
X51733Y270327D01*
X51702Y270281D01*
X51679Y270227D01*
X51664Y270181D01*
X51656Y270173D01*
Y270165D01*
X50750Y267385D01*
X50704Y267278D01*
X50650Y267178D01*
X50581Y267093D01*
X50520Y267024D01*
X50458Y266963D01*
X50412Y266924D01*
X50381Y266894D01*
X50366Y266886D01*
X50251Y266825D01*
X50136Y266778D01*
X50028Y266740D01*
X49928Y266717D01*
X49836Y266702D01*
X49767Y266694D01*
X49613D01*
X49529Y266709D01*
X49445Y266717D01*
X49376Y266732D01*
X49322Y266748D01*
X49276Y266755D01*
X49245Y266771D01*
X49237D01*
X49153Y266802D01*
X49084Y266840D01*
X49014Y266878D01*
X48961Y266917D01*
X48915Y266947D01*
X48884Y266978D01*
X48861Y266993D01*
X48853Y267001D01*
X48738Y267124D01*
X48700Y267185D01*
X48661Y267247D01*
X48630Y267293D01*
X48608Y267331D01*
X48600Y267362D01*
X48592Y267370D01*
X48561Y267454D01*
X48531Y267539D01*
X48515Y267616D01*
X48508Y267692D01*
X48500Y267754D01*
X48492Y267808D01*
Y267838D01*
Y267854D01*
Y271287D01*
X49460D01*
Y267930D01*
X49468Y267823D01*
X49498Y267746D01*
X49544Y267685D01*
X49591Y267646D01*
X49637Y267623D01*
X49683Y267616D01*
X49713Y267608D01*
X49721D01*
X49775Y267616D01*
X49813Y267631D01*
X49836Y267646D01*
X49844Y267654D01*
X49875Y267708D01*
X49898Y267769D01*
X49913Y267815D01*
X49921Y267831D01*
Y267838D01*
X50835Y270618D01*
X50881Y270726D01*
X50934Y270818D01*
X51004Y270903D01*
X51065Y270972D01*
X51126Y271025D01*
X51180Y271072D01*
X51211Y271095D01*
X51226Y271102D01*
X51334Y271164D01*
X51449Y271210D01*
X51557Y271248D01*
X51656Y271271D01*
X51741Y271287D01*
X51810Y271294D01*
X51964D01*
X52056Y271279D01*
D02*
G37*
G36*
X64728Y271287D02*
X64851Y271264D01*
X64966Y271233D01*
X65058Y271202D01*
X65143Y271164D01*
X65196Y271133D01*
X65235Y271110D01*
X65250Y271102D01*
X65350Y271025D01*
X65434Y270941D01*
X65504Y270849D01*
X65557Y270764D01*
X65603Y270688D01*
X65634Y270618D01*
X65649Y270580D01*
X65657Y270572D01*
Y270565D01*
X66993Y266732D01*
X66003D01*
X64805Y270173D01*
X64774Y270242D01*
X64743Y270288D01*
X64728Y270319D01*
X64720Y270327D01*
X64689Y270365D01*
X64651Y270380D01*
X64620Y270388D01*
X64605D01*
X64520Y270373D01*
X64451Y270342D01*
X64405Y270288D01*
X64375Y270234D01*
X64359Y270173D01*
X64344Y270119D01*
Y270089D01*
Y270073D01*
Y267831D01*
X64336Y267738D01*
X64328Y267646D01*
X64313Y267562D01*
X64298Y267493D01*
X64282Y267439D01*
X64267Y267393D01*
X64252Y267362D01*
Y267354D01*
X64213Y267278D01*
X64175Y267209D01*
X64129Y267147D01*
X64090Y267093D01*
X64052Y267047D01*
X64021Y267017D01*
X64006Y266993D01*
X63998Y266986D01*
X63868Y266886D01*
X63798Y266855D01*
X63745Y266817D01*
X63691Y266794D01*
X63653Y266778D01*
X63622Y266763D01*
X63614D01*
X63445Y266717D01*
X63368Y266702D01*
X63292Y266694D01*
X63230D01*
X63184Y266686D01*
X63138D01*
X63007Y266694D01*
X62885Y266717D01*
X62769Y266748D01*
X62670Y266786D01*
X62593Y266817D01*
X62531Y266847D01*
X62493Y266871D01*
X62477Y266878D01*
X62378Y266955D01*
X62293Y267047D01*
X62224Y267132D01*
X62170Y267224D01*
X62132Y267301D01*
X62101Y267362D01*
X62094Y267408D01*
X62086Y267424D01*
X61210Y270104D01*
X61187Y270165D01*
X61164Y270211D01*
X61149Y270250D01*
X61134Y270281D01*
X61118Y270304D01*
X61111Y270319D01*
X61103Y270327D01*
X61072Y270365D01*
X61034Y270380D01*
X61003Y270388D01*
X60988D01*
X60896Y270373D01*
X60834Y270342D01*
X60788Y270288D01*
X60750Y270234D01*
X60734Y270173D01*
X60726Y270119D01*
X60719Y270089D01*
Y270073D01*
Y266732D01*
X59759D01*
Y270150D01*
X59767Y270242D01*
X59774Y270327D01*
X59790Y270411D01*
X59805Y270480D01*
X59828Y270534D01*
X59843Y270580D01*
X59851Y270611D01*
X59859Y270618D01*
X59897Y270695D01*
X59935Y270764D01*
X59982Y270826D01*
X60020Y270880D01*
X60058Y270926D01*
X60089Y270956D01*
X60112Y270972D01*
X60120Y270979D01*
X60250Y271079D01*
X60373Y271156D01*
X60427Y271179D01*
X60465Y271194D01*
X60496Y271210D01*
X60504D01*
X60588Y271240D01*
X60673Y271256D01*
X60750Y271271D01*
X60819Y271287D01*
X60880D01*
X60934Y271294D01*
X60972D01*
X61103Y271287D01*
X61233Y271264D01*
X61341Y271233D01*
X61441Y271202D01*
X61518Y271164D01*
X61579Y271133D01*
X61617Y271110D01*
X61633Y271102D01*
X61733Y271025D01*
X61817Y270941D01*
X61879Y270856D01*
X61932Y270780D01*
X61978Y270711D01*
X62001Y270657D01*
X62017Y270618D01*
X62024Y270603D01*
X62908Y267861D01*
X62931Y267808D01*
X62946Y267761D01*
X62961Y267723D01*
X62977Y267692D01*
X63000Y267654D01*
X63007Y267646D01*
X63046Y267623D01*
X63084Y267608D01*
X63107Y267600D01*
X63123D01*
X63207Y267616D01*
X63276Y267654D01*
X63322Y267700D01*
X63353Y267761D01*
X63368Y267823D01*
X63376Y267869D01*
X63384Y267907D01*
Y267923D01*
Y270150D01*
X63392Y270242D01*
X63399Y270327D01*
X63415Y270411D01*
X63430Y270480D01*
X63453Y270534D01*
X63468Y270580D01*
X63476Y270611D01*
X63484Y270618D01*
X63522Y270695D01*
X63560Y270764D01*
X63607Y270826D01*
X63645Y270880D01*
X63683Y270926D01*
X63706Y270956D01*
X63729Y270972D01*
X63737Y270979D01*
X63868Y271079D01*
X63990Y271156D01*
X64044Y271179D01*
X64083Y271194D01*
X64113Y271210D01*
X64121D01*
X64206Y271240D01*
X64290Y271256D01*
X64367Y271271D01*
X64444Y271287D01*
X64505D01*
X64551Y271294D01*
X64597D01*
X64728Y271287D01*
D02*
G37*
G36*
X54498Y266732D02*
X53576D01*
Y271287D01*
X54498D01*
Y266732D01*
D02*
G37*
G36*
X32226D02*
X31304D01*
Y268376D01*
X28447Y266648D01*
Y267662D01*
X30237Y268568D01*
X29945D01*
X29807Y268576D01*
X29676Y268583D01*
X29561Y268606D01*
X29461Y268629D01*
X29384Y268645D01*
X29323Y268668D01*
X29292Y268675D01*
X29277Y268683D01*
X29177Y268729D01*
X29085Y268783D01*
X29008Y268829D01*
X28939Y268883D01*
X28885Y268921D01*
X28847Y268959D01*
X28824Y268983D01*
X28816Y268990D01*
X28755Y269067D01*
X28701Y269144D01*
X28655Y269221D01*
X28624Y269290D01*
X28593Y269351D01*
X28578Y269397D01*
X28563Y269428D01*
Y269436D01*
X28517Y269612D01*
X28501Y269697D01*
X28493Y269774D01*
X28486Y269835D01*
Y269881D01*
Y269912D01*
Y269919D01*
Y270019D01*
X28501Y270119D01*
X28509Y270204D01*
X28524Y270288D01*
X28540Y270350D01*
X28555Y270396D01*
X28563Y270434D01*
X28570Y270442D01*
X28601Y270534D01*
X28640Y270611D01*
X28686Y270688D01*
X28732Y270749D01*
X28770Y270803D01*
X28801Y270841D01*
X28824Y270864D01*
X28831Y270872D01*
X28901Y270941D01*
X28977Y271002D01*
X29054Y271048D01*
X29131Y271095D01*
X29192Y271125D01*
X29246Y271148D01*
X29277Y271164D01*
X29292Y271171D01*
X29400Y271210D01*
X29507Y271240D01*
X29623Y271256D01*
X29722Y271271D01*
X29814Y271279D01*
X29884Y271287D01*
X32226D01*
Y266732D01*
D02*
G37*
G36*
X28048D02*
X26151D01*
X25967Y266740D01*
X25790Y266755D01*
X25621Y266794D01*
X25468Y266832D01*
X25329Y266886D01*
X25191Y266947D01*
X25068Y267017D01*
X24961Y267101D01*
X24853Y267185D01*
X24753Y267278D01*
X24669Y267370D01*
X24584Y267470D01*
X24446Y267685D01*
X24339Y267900D01*
X24254Y268115D01*
X24185Y268330D01*
X24139Y268529D01*
X24108Y268706D01*
X24093Y268783D01*
X24085Y268852D01*
X24078Y268914D01*
Y268967D01*
X24070Y269013D01*
Y269021D01*
X24078Y269228D01*
X24093Y269420D01*
X24124Y269597D01*
X24162Y269766D01*
X24208Y269927D01*
X24262Y270073D01*
X24323Y270204D01*
X24392Y270334D01*
X24469Y270442D01*
X24554Y270549D01*
X24638Y270649D01*
X24723Y270734D01*
X24815Y270810D01*
X24915Y270887D01*
X25107Y271002D01*
X25299Y271095D01*
X25491Y271164D01*
X25660Y271217D01*
X25821Y271248D01*
X25951Y271271D01*
X26005Y271279D01*
X26051D01*
X26090Y271287D01*
X28048D01*
Y266732D01*
D02*
G37*
G36*
X69485Y280584D02*
X69541Y280579D01*
X69587Y280569D01*
X69628Y280559D01*
X69659Y280549D01*
X69679Y280543D01*
X69684Y280538D01*
X69735Y280518D01*
X69787Y280492D01*
X69833Y280467D01*
X69868Y280441D01*
X69899Y280421D01*
X69920Y280400D01*
X69935Y280390D01*
X69940Y280385D01*
X70012Y280308D01*
X70063Y280226D01*
X70083Y280196D01*
X70098Y280170D01*
X70103Y280150D01*
X70108Y280145D01*
X70129Y280088D01*
X70144Y280037D01*
X70155Y279981D01*
X70160Y279935D01*
X70165Y279894D01*
X70170Y279864D01*
Y279843D01*
Y279833D01*
Y277559D01*
X69526D01*
Y279782D01*
X69521Y279854D01*
X69500Y279905D01*
X69470Y279940D01*
X69439Y279966D01*
X69409Y279981D01*
X69378Y279986D01*
X69357Y279992D01*
X69352D01*
X69317Y279986D01*
X69296Y279971D01*
X69281Y279956D01*
X69276Y279951D01*
X69255Y279915D01*
X69235Y279879D01*
X69219Y279848D01*
X69214Y279838D01*
Y279833D01*
X68611Y278009D01*
X68581Y277937D01*
X68545Y277876D01*
X68504Y277820D01*
X68463Y277769D01*
X68422Y277733D01*
X68392Y277707D01*
X68371Y277687D01*
X68361Y277682D01*
X68289Y277641D01*
X68213Y277610D01*
X68141Y277585D01*
X68075Y277569D01*
X68013Y277559D01*
X67967Y277554D01*
X67865D01*
X67804Y277564D01*
X67748Y277569D01*
X67702Y277579D01*
X67666Y277590D01*
X67635Y277595D01*
X67615Y277605D01*
X67610D01*
X67554Y277625D01*
X67508Y277651D01*
X67462Y277677D01*
X67426Y277697D01*
X67395Y277717D01*
X67375Y277738D01*
X67359Y277748D01*
X67354Y277753D01*
X67278Y277835D01*
X67252Y277876D01*
X67226Y277917D01*
X67206Y277947D01*
X67191Y277973D01*
X67186Y277993D01*
X67181Y277999D01*
X67160Y278055D01*
X67145Y278111D01*
X67134Y278162D01*
X67124Y278213D01*
Y278254D01*
X67119Y278285D01*
Y278310D01*
Y278315D01*
Y279782D01*
X67109Y279854D01*
X67089Y279905D01*
X67063Y279940D01*
X67027Y279966D01*
X66997Y279981D01*
X66966Y279986D01*
X66945Y279992D01*
X66940D01*
X66910Y279986D01*
X66889Y279971D01*
X66874Y279956D01*
X66869Y279951D01*
X66848Y279920D01*
X66828Y279879D01*
X66813Y279848D01*
X66808Y279843D01*
Y279838D01*
X66021Y277559D01*
X65356D01*
X66250Y280109D01*
X66286Y280191D01*
X66327Y280262D01*
X66373Y280324D01*
X66419Y280375D01*
X66460Y280416D01*
X66496Y280441D01*
X66516Y280462D01*
X66526Y280467D01*
X66598Y280508D01*
X66675Y280538D01*
X66746Y280564D01*
X66813Y280579D01*
X66869Y280589D01*
X66915Y280594D01*
X67017D01*
X67078Y280584D01*
X67129Y280579D01*
X67175Y280569D01*
X67216Y280559D01*
X67247Y280549D01*
X67267Y280543D01*
X67273Y280538D01*
X67324Y280518D01*
X67375Y280492D01*
X67421Y280467D01*
X67456Y280441D01*
X67487Y280421D01*
X67513Y280400D01*
X67528Y280390D01*
X67533Y280385D01*
X67605Y280308D01*
X67656Y280226D01*
X67676Y280196D01*
X67691Y280170D01*
X67697Y280150D01*
X67702Y280145D01*
X67722Y280088D01*
X67738Y280037D01*
X67748Y279981D01*
X67753Y279935D01*
X67758Y279894D01*
X67763Y279864D01*
Y279843D01*
Y279833D01*
Y278372D01*
X67768Y278300D01*
X67789Y278249D01*
X67814Y278208D01*
X67845Y278183D01*
X67881Y278167D01*
X67906Y278162D01*
X67927Y278157D01*
X67932D01*
X67967Y278162D01*
X67993Y278177D01*
X68008Y278188D01*
X68013Y278193D01*
X68024Y278208D01*
X68034Y278228D01*
X68054Y278274D01*
X68059Y278295D01*
X68070Y278310D01*
X68075Y278321D01*
Y278326D01*
X68673Y280145D01*
X68703Y280216D01*
X68739Y280278D01*
X68780Y280334D01*
X68821Y280380D01*
X68862Y280416D01*
X68897Y280446D01*
X68918Y280462D01*
X68928Y280467D01*
X69000Y280508D01*
X69076Y280538D01*
X69148Y280564D01*
X69214Y280579D01*
X69276Y280589D01*
X69322Y280594D01*
X69424D01*
X69485Y280584D01*
D02*
G37*
G36*
X46058Y270373D02*
X43654D01*
X43592Y270365D01*
X43539Y270357D01*
X43508Y270342D01*
X43493Y270334D01*
X43439Y270304D01*
X43393Y270281D01*
X43362Y270250D01*
X43354Y270242D01*
X43316Y270196D01*
X43285Y270150D01*
X43270Y270111D01*
X43262Y270104D01*
Y270096D01*
X43239Y270035D01*
X43231Y269981D01*
X43224Y269943D01*
Y269935D01*
Y269927D01*
X43231Y269858D01*
X43239Y269797D01*
X43262Y269743D01*
X43285Y269697D01*
X43308Y269658D01*
X43324Y269628D01*
X43339Y269612D01*
X43347Y269605D01*
X43393Y269559D01*
X43446Y269528D01*
X43500Y269505D01*
X43546Y269489D01*
X43592Y269482D01*
X43631Y269474D01*
X46058D01*
Y268568D01*
X43654D01*
X43592Y268560D01*
X43539Y268552D01*
X43508Y268537D01*
X43493Y268529D01*
X43439Y268499D01*
X43393Y268468D01*
X43362Y268437D01*
X43354Y268430D01*
X43316Y268384D01*
X43285Y268337D01*
X43270Y268299D01*
X43262Y268291D01*
Y268284D01*
X43239Y268230D01*
X43231Y268176D01*
X43224Y268138D01*
Y268130D01*
Y268122D01*
X43231Y268046D01*
X43239Y267969D01*
X43262Y267907D01*
X43285Y267861D01*
X43308Y267815D01*
X43324Y267785D01*
X43339Y267769D01*
X43347Y267761D01*
X43393Y267715D01*
X43446Y267685D01*
X43500Y267662D01*
X43546Y267646D01*
X43592Y267639D01*
X43631Y267631D01*
X46058D01*
Y266732D01*
X43777D01*
X43631Y266740D01*
X43500Y266748D01*
X43385Y266771D01*
X43285Y266794D01*
X43208Y266809D01*
X43147Y266832D01*
X43116Y266840D01*
X43101Y266847D01*
X43001Y266894D01*
X42917Y266947D01*
X42832Y266993D01*
X42771Y267047D01*
X42717Y267086D01*
X42678Y267124D01*
X42656Y267147D01*
X42648Y267155D01*
X42586Y267231D01*
X42533Y267308D01*
X42487Y267385D01*
X42456Y267454D01*
X42425Y267516D01*
X42410Y267562D01*
X42394Y267593D01*
Y267600D01*
X42348Y267785D01*
X42333Y267869D01*
X42325Y267946D01*
X42318Y268015D01*
Y268061D01*
Y268099D01*
Y268107D01*
X42325Y268207D01*
X42333Y268307D01*
X42356Y268399D01*
X42379Y268483D01*
X42402Y268545D01*
X42417Y268599D01*
X42433Y268637D01*
X42440Y268645D01*
X42487Y268737D01*
X42548Y268814D01*
X42602Y268883D01*
X42663Y268936D01*
X42717Y268975D01*
X42763Y268998D01*
X42794Y269013D01*
X42801Y269021D01*
X42717Y269067D01*
X42648Y269128D01*
X42579Y269190D01*
X42533Y269251D01*
X42494Y269305D01*
X42463Y269351D01*
X42448Y269390D01*
X42440Y269397D01*
X42402Y269497D01*
X42371Y269589D01*
X42348Y269681D01*
X42333Y269758D01*
X42325Y269827D01*
X42318Y269873D01*
Y269912D01*
Y269919D01*
Y270027D01*
X42333Y270119D01*
X42341Y270211D01*
X42356Y270288D01*
X42371Y270357D01*
X42379Y270403D01*
X42394Y270442D01*
Y270449D01*
X42425Y270542D01*
X42463Y270618D01*
X42510Y270695D01*
X42548Y270757D01*
X42586Y270810D01*
X42617Y270849D01*
X42640Y270872D01*
X42648Y270880D01*
X42717Y270949D01*
X42794Y271010D01*
X42871Y271056D01*
X42947Y271102D01*
X43009Y271133D01*
X43062Y271156D01*
X43093Y271171D01*
X43109Y271179D01*
X43216Y271217D01*
X43331Y271240D01*
X43439Y271264D01*
X43546Y271271D01*
X43639Y271279D01*
X43708Y271287D01*
X46058D01*
Y270373D01*
D02*
G37*
G36*
X40044Y271279D02*
X40221Y271264D01*
X40382Y271233D01*
X40536Y271187D01*
X40682Y271141D01*
X40812Y271079D01*
X40935Y271010D01*
X41050Y270933D01*
X41158Y270849D01*
X41250Y270764D01*
X41342Y270672D01*
X41419Y270572D01*
X41557Y270365D01*
X41672Y270158D01*
X41757Y269950D01*
X41818Y269743D01*
X41864Y269551D01*
X41903Y269382D01*
X41910Y269305D01*
X41918Y269236D01*
X41926Y269175D01*
Y269128D01*
X41934Y269082D01*
Y269052D01*
Y269036D01*
Y269029D01*
Y269006D01*
X41926Y268798D01*
X41910Y268606D01*
X41880Y268422D01*
X41841Y268253D01*
X41795Y268099D01*
X41742Y267953D01*
X41680Y267815D01*
X41611Y267692D01*
X41534Y267577D01*
X41450Y267470D01*
X41365Y267377D01*
X41273Y267285D01*
X41181Y267209D01*
X41089Y267139D01*
X40889Y267017D01*
X40697Y266924D01*
X40513Y266855D01*
X40336Y266802D01*
X40175Y266771D01*
X40044Y266748D01*
X39990Y266740D01*
X39944D01*
X39906Y266732D01*
X39507D01*
X39315Y266740D01*
X39138Y266755D01*
X38977Y266786D01*
X38823Y266832D01*
X38677Y266878D01*
X38547Y266940D01*
X38424Y267009D01*
X38309Y267086D01*
X38201Y267170D01*
X38109Y267262D01*
X38017Y267354D01*
X37940Y267454D01*
X37802Y267654D01*
X37694Y267869D01*
X37610Y268084D01*
X37541Y268284D01*
X37495Y268476D01*
X37464Y268652D01*
X37456Y268729D01*
X37448Y268798D01*
X37441Y268860D01*
X37433Y268906D01*
Y268952D01*
Y268983D01*
Y268998D01*
Y269006D01*
Y269029D01*
X37441Y269236D01*
X37456Y269428D01*
X37487Y269605D01*
X37525Y269774D01*
X37571Y269927D01*
X37633Y270073D01*
X37694Y270211D01*
X37763Y270334D01*
X37840Y270449D01*
X37925Y270549D01*
X38009Y270649D01*
X38101Y270734D01*
X38193Y270810D01*
X38286Y270887D01*
X38478Y271002D01*
X38669Y271095D01*
X38862Y271171D01*
X39038Y271217D01*
X39192Y271248D01*
X39322Y271271D01*
X39376Y271279D01*
X39422D01*
X39461Y271287D01*
X39852D01*
X40044Y271279D01*
D02*
G37*
G36*
X34975D02*
X35083Y271264D01*
X35183Y271240D01*
X35267Y271210D01*
X35336Y271179D01*
X35383Y271156D01*
X35421Y271141D01*
X35429Y271133D01*
X35513Y271072D01*
X35590Y271002D01*
X35651Y270926D01*
X35697Y270849D01*
X35736Y270787D01*
X35759Y270734D01*
X35774Y270695D01*
X35782Y270680D01*
X37157Y266732D01*
X36220D01*
X35997Y267362D01*
X33724D01*
X33493Y266732D01*
X32549D01*
X33931Y270680D01*
X33977Y270787D01*
X34031Y270880D01*
X34092Y270956D01*
X34146Y271025D01*
X34200Y271072D01*
X34246Y271102D01*
X34277Y271125D01*
X34284Y271133D01*
X34376Y271187D01*
X34476Y271225D01*
X34568Y271248D01*
X34661Y271271D01*
X34737Y271279D01*
X34799Y271287D01*
X34853D01*
X34975Y271279D01*
D02*
G37*
G36*
X68283Y282480D02*
X65436D01*
X65159Y282492D01*
X64894Y282515D01*
X64640Y282573D01*
X64409Y282630D01*
X64202Y282711D01*
X63994Y282803D01*
X63810Y282907D01*
X63648Y283034D01*
X63487Y283161D01*
X63337Y283299D01*
X63210Y283437D01*
X63083Y283587D01*
X62876Y283910D01*
X62714Y284233D01*
X62588Y284556D01*
X62484Y284879D01*
X62415Y285178D01*
X62369Y285444D01*
X62346Y285559D01*
X62334Y285663D01*
X62322Y285755D01*
Y285836D01*
X62311Y285905D01*
Y285916D01*
X62322Y286228D01*
X62346Y286516D01*
X62392Y286781D01*
X62449Y287035D01*
X62519Y287277D01*
X62599Y287496D01*
X62691Y287692D01*
X62795Y287888D01*
X62910Y288049D01*
X63037Y288211D01*
X63164Y288361D01*
X63291Y288488D01*
X63429Y288603D01*
X63579Y288718D01*
X63867Y288891D01*
X64156Y289029D01*
X64444Y289133D01*
X64698Y289214D01*
X64940Y289260D01*
X65136Y289295D01*
X65216Y289306D01*
X65286D01*
X65343Y289318D01*
X68283D01*
Y282480D01*
D02*
G37*
G36*
X-43260Y51138D02*
Y50560D01*
X-45605Y51158D01*
Y51904D01*
X-43260Y51138D01*
D02*
G37*
G36*
X72411Y289306D02*
X72573Y289283D01*
X72723Y289248D01*
X72849Y289202D01*
X72953Y289156D01*
X73022Y289122D01*
X73080Y289099D01*
X73092Y289087D01*
X73218Y288995D01*
X73334Y288879D01*
X73426Y288764D01*
X73495Y288660D01*
X73553Y288557D01*
X73587Y288476D01*
X73610Y288418D01*
X73622Y288395D01*
X75686Y282480D01*
X74279D01*
X72400Y287784D01*
X72377Y287842D01*
X72354Y287876D01*
X72296Y287923D01*
X72250Y287946D01*
X72192D01*
X72158Y287923D01*
X72111Y287888D01*
X72088Y287842D01*
X72077Y287830D01*
Y287819D01*
X70186Y282480D01*
X68768D01*
X70843Y288395D01*
X70912Y288557D01*
X70993Y288695D01*
X71085Y288822D01*
X71166Y288914D01*
X71247Y288995D01*
X71316Y289041D01*
X71362Y289075D01*
X71374Y289087D01*
X71512Y289168D01*
X71662Y289225D01*
X71800Y289260D01*
X71939Y289295D01*
X72054Y289306D01*
X72146Y289318D01*
X72227D01*
X72411Y289306D01*
D02*
G37*
G36*
X81704Y287946D02*
X78096D01*
X78003Y287934D01*
X77923Y287923D01*
X77877Y287899D01*
X77853Y287888D01*
X77773Y287842D01*
X77715Y287807D01*
X77669Y287761D01*
X77657Y287750D01*
X77600Y287680D01*
X77542Y287611D01*
X77519Y287554D01*
X77508Y287542D01*
Y287530D01*
X77473Y287438D01*
X77461Y287357D01*
X77450Y287300D01*
Y287288D01*
Y287277D01*
X77461Y287173D01*
X77485Y287081D01*
X77508Y287000D01*
X77542Y286931D01*
X77588Y286873D01*
X77611Y286827D01*
X77634Y286804D01*
X77646Y286793D01*
X77715Y286723D01*
X77796Y286677D01*
X77877Y286643D01*
X77946Y286620D01*
X78015Y286608D01*
X78061Y286597D01*
X79687D01*
X79860Y286574D01*
X80171Y286516D01*
X80448Y286435D01*
X80575Y286389D01*
X80678Y286343D01*
X80782Y286285D01*
X80863Y286239D01*
X80932Y286193D01*
X80990Y286158D01*
X81047Y286124D01*
X81082Y286101D01*
X81093Y286089D01*
X81105Y286078D01*
X81209Y285974D01*
X81301Y285870D01*
X81382Y285755D01*
X81451Y285628D01*
X81555Y285374D01*
X81624Y285132D01*
X81670Y284913D01*
X81681Y284821D01*
X81693Y284729D01*
X81704Y284660D01*
Y284613D01*
Y284579D01*
Y284567D01*
Y282480D01*
X80332D01*
Y284544D01*
X80321Y284648D01*
X80298Y284740D01*
X80275Y284821D01*
X80240Y284890D01*
X80206Y284948D01*
X80171Y284994D01*
X80159Y285017D01*
X80148Y285029D01*
X80079Y285098D01*
X79998Y285144D01*
X79929Y285190D01*
X79860Y285213D01*
X79802Y285225D01*
X79756Y285236D01*
X78280D01*
X78073Y285248D01*
X77877Y285259D01*
X77703Y285294D01*
X77554Y285328D01*
X77438Y285351D01*
X77346Y285386D01*
X77300Y285397D01*
X77277Y285409D01*
X77127Y285478D01*
X76989Y285559D01*
X76873Y285628D01*
X76770Y285709D01*
X76689Y285766D01*
X76631Y285824D01*
X76597Y285859D01*
X76585Y285870D01*
X76493Y285985D01*
X76412Y286101D01*
X76343Y286216D01*
X76297Y286320D01*
X76251Y286412D01*
X76228Y286481D01*
X76205Y286527D01*
Y286539D01*
X76135Y286804D01*
X76112Y286931D01*
X76101Y287046D01*
X76089Y287139D01*
Y287208D01*
Y287254D01*
Y287265D01*
Y287415D01*
X76112Y287565D01*
X76124Y287692D01*
X76147Y287819D01*
X76170Y287911D01*
X76193Y287980D01*
X76205Y288038D01*
X76216Y288049D01*
X76274Y288188D01*
X76332Y288303D01*
X76401Y288418D01*
X76470Y288511D01*
X76528Y288591D01*
X76574Y288649D01*
X76608Y288684D01*
X76620Y288695D01*
X76723Y288799D01*
X76839Y288891D01*
X76954Y288960D01*
X77058Y289029D01*
X77150Y289075D01*
X77231Y289110D01*
X77277Y289133D01*
X77300Y289145D01*
X77461Y289202D01*
X77623Y289248D01*
X77796Y289271D01*
X77946Y289295D01*
X78084Y289306D01*
X78188Y289318D01*
X81704D01*
Y287946D01*
D02*
G37*
G36*
X-44161Y50533D02*
X-44067Y50520D01*
X-43979Y50500D01*
X-43905Y50473D01*
X-43845Y50446D01*
X-43804Y50426D01*
X-43771Y50412D01*
X-43764Y50406D01*
X-43690Y50352D01*
X-43623Y50292D01*
X-43569Y50224D01*
X-43529Y50157D01*
X-43495Y50103D01*
X-43475Y50056D01*
X-43462Y50023D01*
X-43455Y50009D01*
X-42252Y46555D01*
X-43072D01*
X-43267Y47106D01*
X-45256D01*
X-45458Y46555D01*
X-46284D01*
X-45074Y50009D01*
X-45034Y50103D01*
X-44987Y50184D01*
X-44933Y50251D01*
X-44886Y50312D01*
X-44839Y50352D01*
X-44799Y50379D01*
X-44772Y50399D01*
X-44765Y50406D01*
X-44685Y50453D01*
X-44597Y50486D01*
X-44517Y50507D01*
X-44436Y50527D01*
X-44369Y50533D01*
X-44315Y50540D01*
X-44268D01*
X-44161Y50533D01*
D02*
G37*
G36*
X-53179Y47059D02*
X-53219Y46965D01*
X-53266Y46884D01*
X-53320Y46817D01*
X-53367Y46764D01*
X-53414Y46716D01*
X-53454Y46690D01*
X-53481Y46669D01*
X-53488Y46663D01*
X-53569Y46622D01*
X-53656Y46589D01*
X-53743Y46569D01*
X-53824Y46549D01*
X-53891Y46542D01*
X-53945Y46535D01*
X-53992D01*
X-54093Y46542D01*
X-54187Y46555D01*
X-54274Y46575D01*
X-54348Y46595D01*
X-54409Y46616D01*
X-54449Y46636D01*
X-54483Y46649D01*
X-54489Y46656D01*
X-54563Y46710D01*
X-54630Y46770D01*
X-54684Y46837D01*
X-54724Y46905D01*
X-54758Y46965D01*
X-54778Y47012D01*
X-54792Y47046D01*
X-54798Y47059D01*
X-56008Y50540D01*
X-55181D01*
X-54079Y47409D01*
X-54066Y47375D01*
X-54052Y47355D01*
X-54046Y47341D01*
X-54039D01*
X-54012Y47328D01*
X-53972D01*
X-53938Y47335D01*
X-53931Y47341D01*
X-53925D01*
X-53918Y47355D01*
X-53905Y47375D01*
X-53898Y47395D01*
Y47402D01*
X-52796Y50540D01*
X-51976D01*
X-53179Y47059D01*
D02*
G37*
G36*
X-36701Y50533D02*
X-36628Y50527D01*
X-36567Y50513D01*
X-36513Y50500D01*
X-36473Y50486D01*
X-36446Y50480D01*
X-36439Y50473D01*
X-36372Y50446D01*
X-36305Y50412D01*
X-36244Y50379D01*
X-36197Y50345D01*
X-36157Y50318D01*
X-36130Y50292D01*
X-36110Y50278D01*
X-36103Y50271D01*
X-36009Y50170D01*
X-35942Y50063D01*
X-35915Y50023D01*
X-35895Y49989D01*
X-35888Y49962D01*
X-35882Y49955D01*
X-35855Y49882D01*
X-35835Y49814D01*
X-35821Y49740D01*
X-35814Y49680D01*
X-35808Y49626D01*
X-35801Y49586D01*
Y49559D01*
Y49546D01*
Y46555D01*
X-36648D01*
Y49478D01*
X-36654Y49572D01*
X-36681Y49640D01*
X-36722Y49687D01*
X-36762Y49720D01*
X-36802Y49740D01*
X-36843Y49747D01*
X-36869Y49754D01*
X-36876D01*
X-36923Y49747D01*
X-36950Y49727D01*
X-36970Y49707D01*
X-36977Y49700D01*
X-37004Y49653D01*
X-37031Y49606D01*
X-37051Y49566D01*
X-37058Y49552D01*
Y49546D01*
X-37850Y47146D01*
X-37891Y47052D01*
X-37938Y46972D01*
X-37992Y46898D01*
X-38045Y46831D01*
X-38099Y46784D01*
X-38140Y46750D01*
X-38166Y46723D01*
X-38180Y46716D01*
X-38274Y46663D01*
X-38375Y46622D01*
X-38469Y46589D01*
X-38556Y46569D01*
X-38637Y46555D01*
X-38697Y46549D01*
X-38832D01*
X-38912Y46562D01*
X-38986Y46569D01*
X-39047Y46582D01*
X-39094Y46595D01*
X-39134Y46602D01*
X-39161Y46616D01*
X-39168D01*
X-39241Y46643D01*
X-39302Y46676D01*
X-39362Y46710D01*
X-39410Y46737D01*
X-39450Y46764D01*
X-39477Y46790D01*
X-39497Y46804D01*
X-39504Y46810D01*
X-39604Y46918D01*
X-39638Y46972D01*
X-39672Y47026D01*
X-39698Y47066D01*
X-39719Y47100D01*
X-39725Y47126D01*
X-39732Y47133D01*
X-39759Y47207D01*
X-39779Y47281D01*
X-39793Y47348D01*
X-39806Y47415D01*
Y47469D01*
X-39813Y47509D01*
Y47543D01*
Y47550D01*
Y49478D01*
X-39826Y49572D01*
X-39853Y49640D01*
X-39887Y49687D01*
X-39934Y49720D01*
X-39974Y49740D01*
X-40014Y49747D01*
X-40041Y49754D01*
X-40048D01*
X-40088Y49747D01*
X-40115Y49727D01*
X-40135Y49707D01*
X-40142Y49700D01*
X-40169Y49660D01*
X-40196Y49606D01*
X-40216Y49566D01*
X-40223Y49559D01*
Y49552D01*
X-41258Y46555D01*
X-42131D01*
X-40955Y49908D01*
X-40908Y50016D01*
X-40854Y50110D01*
X-40794Y50191D01*
X-40733Y50258D01*
X-40680Y50312D01*
X-40633Y50345D01*
X-40606Y50372D01*
X-40592Y50379D01*
X-40498Y50433D01*
X-40397Y50473D01*
X-40303Y50507D01*
X-40216Y50527D01*
X-40142Y50540D01*
X-40082Y50547D01*
X-39947D01*
X-39867Y50533D01*
X-39799Y50527D01*
X-39739Y50513D01*
X-39685Y50500D01*
X-39645Y50486D01*
X-39618Y50480D01*
X-39611Y50473D01*
X-39544Y50446D01*
X-39477Y50412D01*
X-39416Y50379D01*
X-39369Y50345D01*
X-39329Y50318D01*
X-39295Y50292D01*
X-39275Y50278D01*
X-39268Y50271D01*
X-39174Y50170D01*
X-39107Y50063D01*
X-39080Y50023D01*
X-39060Y49989D01*
X-39053Y49962D01*
X-39047Y49955D01*
X-39020Y49882D01*
X-39000Y49814D01*
X-38986Y49740D01*
X-38980Y49680D01*
X-38973Y49626D01*
X-38966Y49586D01*
Y49559D01*
Y49546D01*
Y47624D01*
X-38959Y47530D01*
X-38932Y47462D01*
X-38899Y47409D01*
X-38859Y47375D01*
X-38811Y47355D01*
X-38778Y47348D01*
X-38751Y47341D01*
X-38744D01*
X-38697Y47348D01*
X-38664Y47368D01*
X-38644Y47382D01*
X-38637Y47388D01*
X-38623Y47409D01*
X-38610Y47436D01*
X-38583Y47496D01*
X-38576Y47523D01*
X-38563Y47543D01*
X-38556Y47556D01*
Y47563D01*
X-37770Y49955D01*
X-37729Y50050D01*
X-37683Y50130D01*
X-37629Y50204D01*
X-37575Y50265D01*
X-37521Y50312D01*
X-37474Y50352D01*
X-37447Y50372D01*
X-37434Y50379D01*
X-37340Y50433D01*
X-37239Y50473D01*
X-37145Y50507D01*
X-37058Y50527D01*
X-36977Y50540D01*
X-36916Y50547D01*
X-36782D01*
X-36701Y50533D01*
D02*
G37*
G36*
X-68386D02*
X-68319Y50527D01*
X-68259Y50513D01*
X-68205Y50500D01*
X-68164Y50486D01*
X-68138Y50480D01*
X-68131Y50473D01*
X-68064Y50446D01*
X-67996Y50412D01*
X-67936Y50379D01*
X-67889Y50345D01*
X-67849Y50318D01*
X-67815Y50292D01*
X-67795Y50278D01*
X-67788Y50271D01*
X-67694Y50170D01*
X-67627Y50063D01*
X-67600Y50023D01*
X-67580Y49989D01*
X-67573Y49962D01*
X-67566Y49955D01*
X-67540Y49882D01*
X-67519Y49814D01*
X-67506Y49740D01*
X-67499Y49680D01*
X-67492Y49626D01*
X-67486Y49586D01*
Y49559D01*
Y49546D01*
Y46555D01*
X-68332D01*
Y49478D01*
X-68339Y49572D01*
X-68366Y49640D01*
X-68406Y49687D01*
X-68447Y49720D01*
X-68487Y49740D01*
X-68527Y49747D01*
X-68554Y49754D01*
X-68561D01*
X-68608Y49747D01*
X-68642Y49727D01*
X-68662Y49707D01*
X-68668Y49700D01*
X-68695Y49660D01*
X-68716Y49613D01*
X-68729Y49572D01*
X-68736Y49566D01*
Y49559D01*
X-69529Y47126D01*
X-69569Y47032D01*
X-69616Y46945D01*
X-69676Y46871D01*
X-69730Y46810D01*
X-69784Y46757D01*
X-69824Y46723D01*
X-69851Y46696D01*
X-69865Y46690D01*
X-69965Y46636D01*
X-70066Y46595D01*
X-70160Y46562D01*
X-70248Y46542D01*
X-70328Y46528D01*
X-70389Y46522D01*
X-70523D01*
X-70597Y46535D01*
X-70671Y46542D01*
X-70732Y46555D01*
X-70779Y46569D01*
X-70819Y46575D01*
X-70846Y46589D01*
X-70852D01*
X-70926Y46616D01*
X-70987Y46649D01*
X-71047Y46683D01*
X-71094Y46716D01*
X-71135Y46743D01*
X-71162Y46770D01*
X-71182Y46784D01*
X-71188Y46790D01*
X-71289Y46898D01*
X-71323Y46952D01*
X-71356Y47005D01*
X-71383Y47046D01*
X-71403Y47079D01*
X-71410Y47106D01*
X-71417Y47113D01*
X-71444Y47187D01*
X-71471Y47261D01*
X-71484Y47328D01*
X-71491Y47395D01*
X-71497Y47449D01*
X-71504Y47496D01*
Y47523D01*
Y47536D01*
Y50540D01*
X-70657D01*
Y47603D01*
X-70651Y47509D01*
X-70624Y47442D01*
X-70584Y47388D01*
X-70543Y47355D01*
X-70503Y47335D01*
X-70463Y47328D01*
X-70436Y47321D01*
X-70429D01*
X-70382Y47328D01*
X-70348Y47341D01*
X-70328Y47355D01*
X-70322Y47362D01*
X-70295Y47409D01*
X-70275Y47462D01*
X-70261Y47503D01*
X-70254Y47516D01*
Y47523D01*
X-69455Y49955D01*
X-69414Y50050D01*
X-69367Y50130D01*
X-69307Y50204D01*
X-69253Y50265D01*
X-69199Y50312D01*
X-69152Y50352D01*
X-69125Y50372D01*
X-69112Y50379D01*
X-69018Y50433D01*
X-68917Y50473D01*
X-68823Y50507D01*
X-68736Y50527D01*
X-68662Y50540D01*
X-68601Y50547D01*
X-68467D01*
X-68386Y50533D01*
D02*
G37*
G36*
X-33106D02*
X-32952Y50520D01*
X-32811Y50493D01*
X-32676Y50453D01*
X-32548Y50412D01*
X-32434Y50359D01*
X-32327Y50298D01*
X-32226Y50231D01*
X-32132Y50157D01*
X-32051Y50083D01*
X-31971Y50002D01*
X-31903Y49915D01*
X-31782Y49734D01*
X-31681Y49552D01*
X-31608Y49371D01*
X-31554Y49189D01*
X-31514Y49021D01*
X-31480Y48874D01*
X-31473Y48806D01*
X-31466Y48746D01*
X-31460Y48692D01*
Y48652D01*
X-31453Y48612D01*
Y48585D01*
Y48571D01*
Y48564D01*
Y48544D01*
X-31460Y48363D01*
X-31473Y48195D01*
X-31500Y48034D01*
X-31534Y47886D01*
X-31574Y47751D01*
X-31621Y47624D01*
X-31675Y47503D01*
X-31735Y47395D01*
X-31802Y47294D01*
X-31876Y47200D01*
X-31950Y47120D01*
X-32031Y47039D01*
X-32112Y46972D01*
X-32192Y46911D01*
X-32367Y46804D01*
X-32535Y46723D01*
X-32696Y46663D01*
X-32851Y46616D01*
X-32992Y46589D01*
X-33106Y46569D01*
X-33153Y46562D01*
X-33193D01*
X-33227Y46555D01*
X-33577D01*
X-33745Y46562D01*
X-33899Y46575D01*
X-34040Y46602D01*
X-34175Y46643D01*
X-34302Y46683D01*
X-34417Y46737D01*
X-34524Y46797D01*
X-34625Y46864D01*
X-34719Y46938D01*
X-34800Y47019D01*
X-34880Y47100D01*
X-34947Y47187D01*
X-35068Y47362D01*
X-35162Y47550D01*
X-35236Y47738D01*
X-35297Y47913D01*
X-35337Y48081D01*
X-35364Y48235D01*
X-35371Y48302D01*
X-35377Y48363D01*
X-35384Y48417D01*
X-35391Y48457D01*
Y48497D01*
Y48524D01*
Y48538D01*
Y48544D01*
Y48564D01*
X-35384Y48746D01*
X-35371Y48914D01*
X-35344Y49068D01*
X-35310Y49216D01*
X-35270Y49351D01*
X-35216Y49478D01*
X-35162Y49599D01*
X-35102Y49707D01*
X-35035Y49808D01*
X-34961Y49895D01*
X-34887Y49982D01*
X-34806Y50056D01*
X-34726Y50124D01*
X-34645Y50191D01*
X-34477Y50292D01*
X-34309Y50372D01*
X-34141Y50439D01*
X-33986Y50480D01*
X-33852Y50507D01*
X-33738Y50527D01*
X-33691Y50533D01*
X-33650D01*
X-33617Y50540D01*
X-33274D01*
X-33106Y50533D01*
D02*
G37*
G36*
X-28537Y49740D02*
X-29491D01*
Y46555D01*
X-30284D01*
Y49740D01*
X-31184D01*
Y50540D01*
X-28537D01*
Y49740D01*
D02*
G37*
G36*
X36955Y280584D02*
X37042Y280579D01*
X37118Y280564D01*
X37185Y280554D01*
X37236Y280538D01*
X37277Y280523D01*
X37297Y280518D01*
X37308Y280513D01*
X37374Y280482D01*
X37435Y280451D01*
X37486Y280421D01*
X37527Y280385D01*
X37563Y280359D01*
X37594Y280334D01*
X37609Y280318D01*
X37614Y280313D01*
X37655Y280267D01*
X37691Y280216D01*
X37721Y280170D01*
X37747Y280124D01*
X37762Y280083D01*
X37778Y280053D01*
X37783Y280032D01*
X37788Y280027D01*
X37819Y279905D01*
X37829Y279843D01*
X37834Y279792D01*
Y279746D01*
X37839Y279710D01*
Y279690D01*
Y279680D01*
X37829Y279562D01*
X37824Y279506D01*
X37813Y279460D01*
X37803Y279419D01*
X37798Y279388D01*
X37788Y279363D01*
Y279358D01*
X37767Y279302D01*
X37742Y279245D01*
X37711Y279194D01*
X37686Y279153D01*
X37660Y279118D01*
X37645Y279092D01*
X37629Y279072D01*
X37624Y279067D01*
X37578Y279021D01*
X37527Y278980D01*
X37476Y278944D01*
X37430Y278913D01*
X37389Y278888D01*
X37353Y278872D01*
X37333Y278862D01*
X37323Y278857D01*
X37246Y278832D01*
X37170Y278811D01*
X37093Y278801D01*
X37021Y278791D01*
X36960Y278785D01*
X36909Y278780D01*
X36035D01*
X35994Y278775D01*
X35958Y278765D01*
X35928Y278750D01*
X35897Y278734D01*
X35877Y278719D01*
X35861Y278704D01*
X35851Y278694D01*
X35846Y278688D01*
X35820Y278653D01*
X35800Y278617D01*
X35785Y278581D01*
X35774Y278545D01*
X35769Y278520D01*
X35764Y278494D01*
Y278479D01*
Y278474D01*
X35769Y278423D01*
X35774Y278382D01*
X35790Y278341D01*
X35805Y278305D01*
X35820Y278280D01*
X35831Y278259D01*
X35841Y278249D01*
X35846Y278244D01*
X35877Y278213D01*
X35907Y278193D01*
X35938Y278177D01*
X35969Y278167D01*
X35994Y278162D01*
X36015Y278157D01*
X37691D01*
Y277559D01*
X36137D01*
X36055Y277564D01*
X35974Y277569D01*
X35831Y277595D01*
X35764Y277610D01*
X35708Y277631D01*
X35652Y277651D01*
X35606Y277672D01*
X35560Y277692D01*
X35524Y277712D01*
X35493Y277733D01*
X35463Y277748D01*
X35442Y277764D01*
X35427Y277774D01*
X35422Y277784D01*
X35417D01*
X35371Y277830D01*
X35330Y277881D01*
X35294Y277932D01*
X35263Y277988D01*
X35217Y278101D01*
X35187Y278208D01*
X35171Y278310D01*
X35166Y278351D01*
X35161Y278392D01*
X35156Y278423D01*
Y278443D01*
Y278458D01*
Y278464D01*
Y278484D01*
X35161Y278566D01*
X35166Y278642D01*
X35182Y278709D01*
X35197Y278775D01*
X35217Y278837D01*
X35238Y278893D01*
X35263Y278939D01*
X35289Y278985D01*
X35315Y279026D01*
X35340Y279061D01*
X35361Y279087D01*
X35381Y279113D01*
X35396Y279128D01*
X35412Y279143D01*
X35417Y279153D01*
X35422D01*
X35473Y279194D01*
X35529Y279230D01*
X35642Y279286D01*
X35759Y279327D01*
X35871Y279353D01*
X35974Y279373D01*
X36015Y279378D01*
X36055D01*
X36086Y279383D01*
X36945D01*
X36985Y279388D01*
X37026Y279399D01*
X37062Y279409D01*
X37093Y279429D01*
X37113Y279445D01*
X37134Y279455D01*
X37144Y279465D01*
X37149Y279470D01*
X37180Y279506D01*
X37200Y279542D01*
X37216Y279578D01*
X37226Y279608D01*
X37231Y279639D01*
X37236Y279664D01*
Y279680D01*
Y279685D01*
X37231Y279731D01*
X37221Y279767D01*
X37216Y279787D01*
X37210Y279797D01*
X37190Y279838D01*
X37170Y279869D01*
X37154Y279889D01*
X37149Y279894D01*
X37118Y279920D01*
X37088Y279940D01*
X37067Y279951D01*
X37057Y279956D01*
X37016Y279971D01*
X36980Y279976D01*
X36955Y279981D01*
X35350D01*
Y280589D01*
X36863D01*
X36955Y280584D01*
D02*
G37*
G36*
X39883D02*
X39970Y280579D01*
X40046Y280564D01*
X40113Y280554D01*
X40164Y280538D01*
X40205Y280523D01*
X40225Y280518D01*
X40235Y280513D01*
X40302Y280482D01*
X40363Y280451D01*
X40414Y280421D01*
X40455Y280385D01*
X40491Y280359D01*
X40522Y280334D01*
X40537Y280318D01*
X40542Y280313D01*
X40583Y280267D01*
X40619Y280216D01*
X40649Y280170D01*
X40675Y280124D01*
X40690Y280083D01*
X40706Y280053D01*
X40711Y280032D01*
X40716Y280027D01*
X40747Y279905D01*
X40757Y279843D01*
X40762Y279792D01*
Y279746D01*
X40767Y279710D01*
Y279690D01*
Y279680D01*
X40757Y279562D01*
X40752Y279506D01*
X40741Y279460D01*
X40731Y279419D01*
X40726Y279388D01*
X40716Y279363D01*
Y279358D01*
X40695Y279302D01*
X40670Y279245D01*
X40639Y279194D01*
X40614Y279153D01*
X40588Y279118D01*
X40573Y279092D01*
X40557Y279072D01*
X40552Y279067D01*
X40506Y279021D01*
X40455Y278980D01*
X40404Y278944D01*
X40358Y278913D01*
X40317Y278888D01*
X40282Y278872D01*
X40261Y278862D01*
X40251Y278857D01*
X40174Y278832D01*
X40097Y278811D01*
X40021Y278801D01*
X39949Y278791D01*
X39888Y278785D01*
X39837Y278780D01*
X38963D01*
X38922Y278775D01*
X38886Y278765D01*
X38856Y278750D01*
X38825Y278734D01*
X38805Y278719D01*
X38789Y278704D01*
X38779Y278694D01*
X38774Y278688D01*
X38748Y278653D01*
X38728Y278617D01*
X38713Y278581D01*
X38702Y278545D01*
X38697Y278520D01*
X38692Y278494D01*
Y278479D01*
Y278474D01*
X38697Y278423D01*
X38702Y278382D01*
X38718Y278341D01*
X38733Y278305D01*
X38748Y278280D01*
X38759Y278259D01*
X38769Y278249D01*
X38774Y278244D01*
X38805Y278213D01*
X38835Y278193D01*
X38866Y278177D01*
X38897Y278167D01*
X38922Y278162D01*
X38943Y278157D01*
X40619D01*
Y277559D01*
X39065D01*
X38984Y277564D01*
X38902Y277569D01*
X38759Y277595D01*
X38692Y277610D01*
X38636Y277631D01*
X38580Y277651D01*
X38534Y277672D01*
X38488Y277692D01*
X38452Y277712D01*
X38421Y277733D01*
X38391Y277748D01*
X38370Y277764D01*
X38355Y277774D01*
X38350Y277784D01*
X38345D01*
X38299Y277830D01*
X38258Y277881D01*
X38222Y277932D01*
X38192Y277988D01*
X38146Y278101D01*
X38115Y278208D01*
X38100Y278310D01*
X38094Y278351D01*
X38089Y278392D01*
X38084Y278423D01*
Y278443D01*
Y278458D01*
Y278464D01*
Y278484D01*
X38089Y278566D01*
X38094Y278642D01*
X38110Y278709D01*
X38125Y278775D01*
X38146Y278837D01*
X38166Y278893D01*
X38192Y278939D01*
X38217Y278985D01*
X38243Y279026D01*
X38268Y279061D01*
X38289Y279087D01*
X38309Y279113D01*
X38324Y279128D01*
X38340Y279143D01*
X38345Y279153D01*
X38350D01*
X38401Y279194D01*
X38457Y279230D01*
X38570Y279286D01*
X38687Y279327D01*
X38800Y279353D01*
X38902Y279373D01*
X38943Y279378D01*
X38984D01*
X39014Y279383D01*
X39873D01*
X39913Y279388D01*
X39954Y279399D01*
X39990Y279409D01*
X40021Y279429D01*
X40041Y279445D01*
X40062Y279455D01*
X40072Y279465D01*
X40077Y279470D01*
X40108Y279506D01*
X40128Y279542D01*
X40143Y279578D01*
X40154Y279608D01*
X40159Y279639D01*
X40164Y279664D01*
Y279680D01*
Y279685D01*
X40159Y279731D01*
X40149Y279767D01*
X40143Y279787D01*
X40138Y279797D01*
X40118Y279838D01*
X40097Y279869D01*
X40082Y279889D01*
X40077Y279894D01*
X40046Y279920D01*
X40016Y279940D01*
X39995Y279951D01*
X39985Y279956D01*
X39944Y279971D01*
X39908Y279976D01*
X39883Y279981D01*
X38278D01*
Y280589D01*
X39791D01*
X39883Y280584D01*
D02*
G37*
G36*
X33577Y277559D02*
X32315D01*
X32192Y277564D01*
X32075Y277574D01*
X31962Y277600D01*
X31860Y277625D01*
X31768Y277661D01*
X31676Y277702D01*
X31594Y277748D01*
X31523Y277804D01*
X31451Y277861D01*
X31385Y277922D01*
X31329Y277983D01*
X31273Y278050D01*
X31181Y278193D01*
X31109Y278336D01*
X31053Y278479D01*
X31007Y278622D01*
X30976Y278755D01*
X30956Y278872D01*
X30946Y278924D01*
X30940Y278970D01*
X30935Y279010D01*
Y279046D01*
X30930Y279077D01*
Y279082D01*
X30935Y279220D01*
X30946Y279348D01*
X30966Y279465D01*
X30992Y279578D01*
X31022Y279685D01*
X31058Y279782D01*
X31099Y279869D01*
X31145Y279956D01*
X31196Y280027D01*
X31252Y280099D01*
X31308Y280165D01*
X31365Y280221D01*
X31426Y280273D01*
X31492Y280324D01*
X31620Y280400D01*
X31748Y280462D01*
X31876Y280508D01*
X31988Y280543D01*
X32095Y280564D01*
X32182Y280579D01*
X32218Y280584D01*
X32249D01*
X32274Y280589D01*
X33577D01*
Y277559D01*
D02*
G37*
G36*
X29801Y280584D02*
X29883Y280579D01*
X29954Y280569D01*
X30021Y280554D01*
X30072Y280538D01*
X30113Y280528D01*
X30133Y280523D01*
X30143Y280518D01*
X30210Y280492D01*
X30271Y280462D01*
X30322Y280431D01*
X30363Y280400D01*
X30399Y280370D01*
X30429Y280349D01*
X30445Y280334D01*
X30450Y280329D01*
X30491Y280283D01*
X30527Y280232D01*
X30557Y280181D01*
X30583Y280140D01*
X30603Y280099D01*
X30619Y280068D01*
X30624Y280043D01*
X30629Y280037D01*
X30649Y279976D01*
X30659Y279915D01*
X30670Y279854D01*
X30680Y279797D01*
Y279751D01*
X30685Y279710D01*
Y279690D01*
Y279680D01*
X30680Y279618D01*
X30675Y279552D01*
X30659Y279496D01*
X30644Y279445D01*
X30634Y279399D01*
X30619Y279363D01*
X30613Y279343D01*
X30608Y279332D01*
X30578Y279271D01*
X30537Y279220D01*
X30501Y279174D01*
X30460Y279138D01*
X30424Y279113D01*
X30394Y279097D01*
X30373Y279087D01*
X30368Y279082D01*
X30424Y279051D01*
X30475Y279015D01*
X30516Y278975D01*
X30547Y278934D01*
X30578Y278898D01*
X30593Y278867D01*
X30603Y278847D01*
X30608Y278837D01*
X30634Y278770D01*
X30654Y278709D01*
X30664Y278647D01*
X30675Y278591D01*
X30680Y278545D01*
X30685Y278504D01*
Y278484D01*
Y278474D01*
X30675Y278346D01*
X30670Y278290D01*
X30659Y278239D01*
X30649Y278198D01*
X30644Y278167D01*
X30634Y278142D01*
Y278136D01*
X30613Y278080D01*
X30588Y278024D01*
X30557Y277973D01*
X30532Y277932D01*
X30506Y277896D01*
X30491Y277871D01*
X30475Y277850D01*
X30470Y277845D01*
X30424Y277799D01*
X30373Y277758D01*
X30322Y277723D01*
X30271Y277692D01*
X30230Y277666D01*
X30194Y277651D01*
X30174Y277641D01*
X30164Y277636D01*
X30092Y277610D01*
X30010Y277590D01*
X29939Y277579D01*
X29867Y277569D01*
X29801Y277564D01*
X29755Y277559D01*
X28196D01*
Y278157D01*
X29791D01*
X29837Y278162D01*
X29877Y278172D01*
X29913Y278183D01*
X29944Y278203D01*
X29969Y278218D01*
X29985Y278228D01*
X29995Y278239D01*
X30000Y278244D01*
X30026Y278280D01*
X30046Y278321D01*
X30062Y278361D01*
X30072Y278397D01*
X30077Y278433D01*
X30082Y278458D01*
Y278479D01*
Y278484D01*
X30077Y278525D01*
X30067Y278561D01*
X30062Y278581D01*
X30056Y278591D01*
X30036Y278632D01*
X30016Y278663D01*
X30000Y278683D01*
X29995Y278688D01*
X29964Y278714D01*
X29934Y278740D01*
X29913Y278750D01*
X29903Y278755D01*
X29862Y278770D01*
X29826Y278775D01*
X29801Y278780D01*
X28196D01*
Y279383D01*
X29791D01*
X29837Y279388D01*
X29877Y279399D01*
X29913Y279409D01*
X29944Y279429D01*
X29969Y279445D01*
X29985Y279455D01*
X29995Y279465D01*
X30000Y279470D01*
X30026Y279506D01*
X30046Y279542D01*
X30062Y279578D01*
X30072Y279608D01*
X30077Y279639D01*
X30082Y279664D01*
Y279680D01*
Y279685D01*
X30077Y279731D01*
X30067Y279767D01*
X30062Y279787D01*
X30056Y279797D01*
X30036Y279838D01*
X30016Y279869D01*
X30000Y279889D01*
X29995Y279894D01*
X29964Y279920D01*
X29934Y279940D01*
X29913Y279951D01*
X29903Y279956D01*
X29862Y279971D01*
X29826Y279976D01*
X29801Y279981D01*
X28196D01*
Y280589D01*
X29709D01*
X29801Y280584D01*
D02*
G37*
G36*
X24691Y277559D02*
X24078D01*
Y280589D01*
X24691D01*
Y277559D01*
D02*
G37*
G36*
X22529Y280584D02*
X22647Y280574D01*
X22754Y280554D01*
X22856Y280523D01*
X22953Y280492D01*
X23040Y280451D01*
X23122Y280405D01*
X23199Y280354D01*
X23270Y280298D01*
X23332Y280242D01*
X23393Y280181D01*
X23444Y280114D01*
X23536Y279976D01*
X23613Y279838D01*
X23669Y279700D01*
X23710Y279562D01*
X23740Y279434D01*
X23766Y279322D01*
X23771Y279271D01*
X23776Y279225D01*
X23781Y279184D01*
Y279153D01*
X23786Y279123D01*
Y279102D01*
Y279092D01*
Y279087D01*
Y279072D01*
X23781Y278934D01*
X23771Y278806D01*
X23751Y278683D01*
X23725Y278571D01*
X23694Y278469D01*
X23659Y278372D01*
X23618Y278280D01*
X23572Y278198D01*
X23521Y278121D01*
X23464Y278050D01*
X23408Y277988D01*
X23347Y277927D01*
X23286Y277876D01*
X23224Y277830D01*
X23091Y277748D01*
X22964Y277687D01*
X22841Y277641D01*
X22724Y277605D01*
X22616Y277585D01*
X22529Y277569D01*
X22494Y277564D01*
X22463D01*
X22437Y277559D01*
X21288D01*
Y278157D01*
X22534D01*
X22596Y278162D01*
X22647Y278167D01*
X22749Y278198D01*
X22836Y278239D01*
X22907Y278300D01*
X22974Y278366D01*
X23025Y278443D01*
X23066Y278525D01*
X23102Y278612D01*
X23127Y278699D01*
X23148Y278780D01*
X23163Y278857D01*
X23173Y278924D01*
X23178Y278985D01*
X23183Y279026D01*
Y279056D01*
Y279067D01*
Y279153D01*
X23178Y279235D01*
X23168Y279312D01*
X23158Y279383D01*
X23148Y279445D01*
X23132Y279501D01*
X23117Y279552D01*
X23102Y279598D01*
X23086Y279639D01*
X23071Y279675D01*
X23056Y279700D01*
X23045Y279726D01*
X23035Y279746D01*
X23025Y279756D01*
X23020Y279767D01*
X22953Y279838D01*
X22872Y279889D01*
X22795Y279930D01*
X22713Y279956D01*
X22642Y279971D01*
X22580Y279976D01*
X22560Y279981D01*
X21288D01*
Y280589D01*
X22402D01*
X22529Y280584D01*
D02*
G37*
G36*
X20128D02*
X20209Y280579D01*
X20281Y280569D01*
X20347Y280554D01*
X20399Y280538D01*
X20439Y280528D01*
X20460Y280523D01*
X20470Y280518D01*
X20536Y280492D01*
X20598Y280462D01*
X20649Y280431D01*
X20690Y280400D01*
X20726Y280370D01*
X20756Y280349D01*
X20772Y280334D01*
X20777Y280329D01*
X20818Y280283D01*
X20853Y280232D01*
X20884Y280181D01*
X20910Y280140D01*
X20930Y280099D01*
X20945Y280068D01*
X20950Y280043D01*
X20955Y280037D01*
X20976Y279976D01*
X20986Y279915D01*
X20996Y279854D01*
X21007Y279797D01*
Y279751D01*
X21012Y279710D01*
Y279690D01*
Y279680D01*
X21007Y279618D01*
X21001Y279552D01*
X20986Y279496D01*
X20971Y279445D01*
X20961Y279399D01*
X20945Y279363D01*
X20940Y279343D01*
X20935Y279332D01*
X20904Y279271D01*
X20864Y279220D01*
X20828Y279174D01*
X20787Y279138D01*
X20751Y279113D01*
X20720Y279097D01*
X20700Y279087D01*
X20695Y279082D01*
X20751Y279051D01*
X20802Y279015D01*
X20843Y278975D01*
X20874Y278934D01*
X20904Y278898D01*
X20920Y278867D01*
X20930Y278847D01*
X20935Y278837D01*
X20961Y278770D01*
X20981Y278709D01*
X20991Y278647D01*
X21001Y278591D01*
X21007Y278545D01*
X21012Y278504D01*
Y278484D01*
Y278474D01*
X21001Y278346D01*
X20996Y278290D01*
X20986Y278239D01*
X20976Y278198D01*
X20971Y278167D01*
X20961Y278142D01*
Y278136D01*
X20940Y278080D01*
X20915Y278024D01*
X20884Y277973D01*
X20858Y277932D01*
X20833Y277896D01*
X20818Y277871D01*
X20802Y277850D01*
X20797Y277845D01*
X20751Y277799D01*
X20700Y277758D01*
X20649Y277723D01*
X20598Y277692D01*
X20557Y277666D01*
X20521Y277651D01*
X20501Y277641D01*
X20490Y277636D01*
X20419Y277610D01*
X20337Y277590D01*
X20266Y277579D01*
X20194Y277569D01*
X20128Y277564D01*
X20082Y277559D01*
X18523D01*
Y278157D01*
X20117D01*
X20163Y278162D01*
X20204Y278172D01*
X20240Y278183D01*
X20271Y278203D01*
X20296Y278218D01*
X20312Y278228D01*
X20322Y278239D01*
X20327Y278244D01*
X20353Y278280D01*
X20373Y278321D01*
X20388Y278361D01*
X20399Y278397D01*
X20404Y278433D01*
X20409Y278458D01*
Y278479D01*
Y278484D01*
X20404Y278525D01*
X20393Y278561D01*
X20388Y278581D01*
X20383Y278591D01*
X20363Y278632D01*
X20342Y278663D01*
X20327Y278683D01*
X20322Y278688D01*
X20291Y278714D01*
X20260Y278740D01*
X20240Y278750D01*
X20230Y278755D01*
X20189Y278770D01*
X20153Y278775D01*
X20128Y278780D01*
X18523D01*
Y279383D01*
X20117D01*
X20163Y279388D01*
X20204Y279399D01*
X20240Y279409D01*
X20271Y279429D01*
X20296Y279445D01*
X20312Y279455D01*
X20322Y279465D01*
X20327Y279470D01*
X20353Y279506D01*
X20373Y279542D01*
X20388Y279578D01*
X20399Y279608D01*
X20404Y279639D01*
X20409Y279664D01*
Y279680D01*
Y279685D01*
X20404Y279731D01*
X20393Y279767D01*
X20388Y279787D01*
X20383Y279797D01*
X20363Y279838D01*
X20342Y279869D01*
X20327Y279889D01*
X20322Y279894D01*
X20291Y279920D01*
X20260Y279940D01*
X20240Y279951D01*
X20230Y279956D01*
X20189Y279971D01*
X20153Y279976D01*
X20128Y279981D01*
X18523D01*
Y280589D01*
X20036D01*
X20128Y280584D01*
D02*
G37*
%LPC*%
G36*
X-70476Y57603D02*
X-71773D01*
X-71827Y57596D01*
X-71874Y57589D01*
X-71901Y57576D01*
X-71914Y57569D01*
X-71961Y57542D01*
X-72001Y57522D01*
X-72028Y57495D01*
X-72035Y57488D01*
X-72069Y57448D01*
X-72096Y57408D01*
X-72109Y57374D01*
X-72116Y57367D01*
Y57361D01*
X-72136Y57307D01*
X-72143Y57260D01*
X-72149Y57226D01*
Y57220D01*
Y57213D01*
X-72143Y57152D01*
X-72129Y57099D01*
X-72116Y57052D01*
X-72096Y57011D01*
X-72069Y56978D01*
X-72055Y56951D01*
X-72042Y56937D01*
X-72035Y56931D01*
X-71995Y56890D01*
X-71948Y56863D01*
X-71901Y56843D01*
X-71860Y56830D01*
X-71820Y56823D01*
X-71793Y56816D01*
X-70476D01*
Y57603D01*
D02*
G37*
G36*
X-33066Y49740D02*
X-33745D01*
X-33892Y49727D01*
X-34020Y49693D01*
X-34134Y49653D01*
X-34222Y49599D01*
X-34296Y49546D01*
X-34343Y49505D01*
X-34376Y49472D01*
X-34383Y49458D01*
X-34423Y49404D01*
X-34457Y49337D01*
X-34511Y49196D01*
X-34544Y49042D01*
X-34571Y48894D01*
X-34585Y48753D01*
X-34591Y48692D01*
X-34598Y48645D01*
Y48598D01*
Y48564D01*
Y48544D01*
Y48538D01*
Y48430D01*
X-34591Y48329D01*
X-34564Y48141D01*
X-34517Y47987D01*
X-34464Y47845D01*
X-34403Y47731D01*
X-34329Y47630D01*
X-34255Y47556D01*
X-34175Y47489D01*
X-34094Y47442D01*
X-34020Y47402D01*
X-33946Y47375D01*
X-33886Y47362D01*
X-33832Y47348D01*
X-33785Y47341D01*
X-33099D01*
X-33019Y47348D01*
X-32952Y47355D01*
X-32817Y47395D01*
X-32703Y47449D01*
X-32609Y47530D01*
X-32522Y47617D01*
X-32454Y47718D01*
X-32401Y47825D01*
X-32353Y47940D01*
X-32320Y48054D01*
X-32293Y48161D01*
X-32273Y48262D01*
X-32260Y48349D01*
X-32253Y48430D01*
X-32246Y48484D01*
Y48524D01*
Y48538D01*
Y48652D01*
X-32253Y48759D01*
X-32266Y48860D01*
X-32280Y48954D01*
X-32293Y49035D01*
X-32313Y49109D01*
X-32333Y49176D01*
X-32353Y49237D01*
X-32374Y49290D01*
X-32394Y49337D01*
X-32414Y49371D01*
X-32427Y49404D01*
X-32441Y49431D01*
X-32454Y49445D01*
X-32461Y49458D01*
X-32548Y49552D01*
X-32656Y49619D01*
X-32757Y49673D01*
X-32864Y49707D01*
X-32958Y49727D01*
X-33039Y49734D01*
X-33066Y49740D01*
D02*
G37*
G36*
X98405Y108841D02*
X98389D01*
X98320Y108834D01*
X98251Y108818D01*
X98198Y108803D01*
X98144Y108780D01*
X98105Y108749D01*
X98075Y108734D01*
X98059Y108719D01*
X98052Y108711D01*
X98005Y108665D01*
X97975Y108611D01*
X97944Y108557D01*
X97929Y108511D01*
X97921Y108465D01*
X97913Y108434D01*
Y108411D01*
Y108404D01*
Y106929D01*
X98843D01*
Y108411D01*
X98835Y108473D01*
X98827Y108527D01*
X98812Y108557D01*
X98804Y108573D01*
X98773Y108626D01*
X98743Y108672D01*
X98712Y108703D01*
X98704Y108711D01*
X98658Y108749D01*
X98612Y108780D01*
X98574Y108795D01*
X98566Y108803D01*
X98558D01*
X98497Y108826D01*
X98443Y108834D01*
X98405Y108841D01*
D02*
G37*
G36*
X31304Y270373D02*
X29822D01*
X29761Y270365D01*
X29707Y270357D01*
X29676Y270342D01*
X29661Y270334D01*
X29607Y270304D01*
X29561Y270273D01*
X29530Y270242D01*
X29523Y270234D01*
X29484Y270188D01*
X29454Y270142D01*
X29438Y270104D01*
X29430Y270096D01*
Y270089D01*
X29408Y270027D01*
X29400Y269973D01*
X29392Y269935D01*
Y269927D01*
Y269919D01*
X29400Y269850D01*
X29415Y269781D01*
X29430Y269727D01*
X29454Y269674D01*
X29484Y269635D01*
X29500Y269605D01*
X29515Y269589D01*
X29523Y269582D01*
X29569Y269535D01*
X29623Y269505D01*
X29676Y269474D01*
X29722Y269459D01*
X29768Y269451D01*
X29799Y269443D01*
X31304D01*
Y270373D01*
D02*
G37*
G36*
X57155D02*
X57117D01*
X57086Y270365D01*
X57071Y270357D01*
X57055Y270342D01*
X57040Y270311D01*
X57025Y270288D01*
Y270281D01*
X56287Y268268D01*
X57985D01*
X57224Y270296D01*
X57201Y270342D01*
X57171Y270365D01*
X57155Y270373D01*
D02*
G37*
G36*
X34883D02*
X34845D01*
X34814Y270365D01*
X34799Y270357D01*
X34784Y270342D01*
X34768Y270311D01*
X34753Y270288D01*
Y270281D01*
X34016Y268268D01*
X35713D01*
X34952Y270296D01*
X34929Y270342D01*
X34899Y270365D01*
X34883Y270373D01*
D02*
G37*
G36*
X96738Y83720D02*
Y82023D01*
X98766Y82783D01*
X98812Y82806D01*
X98835Y82837D01*
X98843Y82852D01*
Y82860D01*
Y82891D01*
X98835Y82921D01*
X98827Y82937D01*
X98812Y82952D01*
X98781Y82967D01*
X98758Y82983D01*
X98750D01*
X96738Y83720D01*
D02*
G37*
G36*
X27127Y270373D02*
X25867D01*
X25782Y270357D01*
X25637Y270319D01*
X25506Y270250D01*
X25398Y270165D01*
X25306Y270058D01*
X25222Y269950D01*
X25160Y269827D01*
X25114Y269705D01*
X25068Y269574D01*
X25045Y269451D01*
X25022Y269343D01*
X25007Y269236D01*
X24999Y269151D01*
X24992Y269090D01*
Y269044D01*
Y269036D01*
Y269029D01*
Y268890D01*
X24999Y268767D01*
X25014Y268652D01*
X25030Y268545D01*
X25045Y268453D01*
X25068Y268360D01*
X25091Y268284D01*
X25107Y268215D01*
X25130Y268153D01*
X25153Y268099D01*
X25176Y268053D01*
X25191Y268015D01*
X25207Y267992D01*
X25222Y267969D01*
X25230Y267961D01*
Y267953D01*
X25329Y267846D01*
X25445Y267769D01*
X25567Y267708D01*
X25683Y267669D01*
X25790Y267646D01*
X25875Y267639D01*
X25913Y267631D01*
X27127D01*
Y270373D01*
D02*
G37*
G36*
X40090D02*
X39315D01*
X39146Y270357D01*
X39000Y270319D01*
X38869Y270273D01*
X38769Y270211D01*
X38685Y270150D01*
X38631Y270104D01*
X38593Y270065D01*
X38585Y270050D01*
X38539Y269989D01*
X38501Y269912D01*
X38439Y269751D01*
X38401Y269574D01*
X38370Y269405D01*
X38355Y269244D01*
X38347Y269175D01*
X38339Y269121D01*
Y269067D01*
Y269029D01*
Y269006D01*
Y268998D01*
Y268875D01*
X38347Y268760D01*
X38378Y268545D01*
X38432Y268368D01*
X38493Y268207D01*
X38562Y268076D01*
X38647Y267961D01*
X38731Y267877D01*
X38823Y267800D01*
X38915Y267746D01*
X39000Y267700D01*
X39084Y267669D01*
X39153Y267654D01*
X39215Y267639D01*
X39269Y267631D01*
X40052D01*
X40144Y267639D01*
X40221Y267646D01*
X40374Y267692D01*
X40505Y267754D01*
X40613Y267846D01*
X40712Y267946D01*
X40789Y268061D01*
X40851Y268184D01*
X40904Y268314D01*
X40943Y268445D01*
X40974Y268568D01*
X40997Y268683D01*
X41012Y268783D01*
X41020Y268875D01*
X41027Y268936D01*
Y268983D01*
Y268998D01*
Y269128D01*
X41020Y269251D01*
X41004Y269367D01*
X40989Y269474D01*
X40974Y269566D01*
X40951Y269651D01*
X40927Y269727D01*
X40904Y269797D01*
X40881Y269858D01*
X40858Y269912D01*
X40835Y269950D01*
X40820Y269989D01*
X40805Y270019D01*
X40789Y270035D01*
X40782Y270050D01*
X40682Y270158D01*
X40559Y270234D01*
X40444Y270296D01*
X40321Y270334D01*
X40213Y270357D01*
X40121Y270365D01*
X40090Y270373D01*
D02*
G37*
G36*
X96738Y165197D02*
Y163500D01*
X98766Y164260D01*
X98812Y164283D01*
X98835Y164314D01*
X98843Y164329D01*
Y164337D01*
Y164368D01*
X98835Y164399D01*
X98827Y164414D01*
X98812Y164429D01*
X98781Y164445D01*
X98758Y164460D01*
X98750D01*
X96738Y165197D01*
D02*
G37*
G36*
X32964Y279981D02*
X32126D01*
X32070Y279971D01*
X31973Y279945D01*
X31886Y279900D01*
X31814Y279843D01*
X31753Y279772D01*
X31697Y279700D01*
X31656Y279618D01*
X31625Y279537D01*
X31594Y279450D01*
X31579Y279368D01*
X31564Y279296D01*
X31554Y279225D01*
X31549Y279169D01*
X31543Y279128D01*
Y279097D01*
Y279092D01*
Y279087D01*
Y278995D01*
X31549Y278913D01*
X31559Y278837D01*
X31569Y278765D01*
X31579Y278704D01*
X31594Y278642D01*
X31610Y278591D01*
X31620Y278545D01*
X31635Y278504D01*
X31651Y278469D01*
X31666Y278438D01*
X31676Y278413D01*
X31686Y278397D01*
X31697Y278382D01*
X31702Y278377D01*
Y278372D01*
X31768Y278300D01*
X31845Y278249D01*
X31927Y278208D01*
X32003Y278183D01*
X32075Y278167D01*
X32131Y278162D01*
X32157Y278157D01*
X32964D01*
Y279981D01*
D02*
G37*
G36*
X-44241Y49740D02*
X-44275D01*
X-44302Y49734D01*
X-44315Y49727D01*
X-44329Y49714D01*
X-44342Y49687D01*
X-44355Y49667D01*
Y49660D01*
X-45001Y47899D01*
X-43516D01*
X-44181Y49673D01*
X-44201Y49714D01*
X-44228Y49734D01*
X-44241Y49740D01*
D02*
G37*
G36*
X97591Y175197D02*
X97345D01*
X97230Y175189D01*
X97015Y175158D01*
X96838Y175104D01*
X96677Y175043D01*
X96546Y174974D01*
X96431Y174889D01*
X96347Y174805D01*
X96270Y174713D01*
X96216Y174621D01*
X96170Y174536D01*
X96139Y174452D01*
X96124Y174382D01*
X96109Y174321D01*
X96101Y174267D01*
Y174237D01*
Y174229D01*
Y173484D01*
X96109Y173392D01*
X96116Y173315D01*
X96162Y173161D01*
X96224Y173031D01*
X96316Y172923D01*
X96416Y172824D01*
X96531Y172747D01*
X96654Y172685D01*
X96784Y172631D01*
X96915Y172593D01*
X97038Y172562D01*
X97153Y172539D01*
X97253Y172524D01*
X97345Y172516D01*
X97406Y172509D01*
X97598D01*
X97721Y172516D01*
X97837Y172532D01*
X97944Y172547D01*
X98036Y172562D01*
X98121Y172585D01*
X98198Y172608D01*
X98267Y172631D01*
X98328Y172654D01*
X98382Y172678D01*
X98420Y172701D01*
X98459Y172716D01*
X98489Y172731D01*
X98505Y172747D01*
X98520Y172754D01*
X98628Y172854D01*
X98704Y172977D01*
X98766Y173092D01*
X98804Y173215D01*
X98827Y173323D01*
X98835Y173415D01*
X98843Y173445D01*
Y173469D01*
Y173484D01*
Y173492D01*
Y174221D01*
X98827Y174390D01*
X98789Y174536D01*
X98743Y174667D01*
X98681Y174767D01*
X98620Y174851D01*
X98574Y174905D01*
X98535Y174943D01*
X98520Y174951D01*
X98459Y174997D01*
X98382Y175035D01*
X98220Y175097D01*
X98044Y175135D01*
X97875Y175166D01*
X97714Y175181D01*
X97645Y175189D01*
X97591Y175197D01*
D02*
G37*
G36*
Y232489D02*
X97291D01*
X97184Y232482D01*
X96984Y232451D01*
X96807Y232397D01*
X96654Y232336D01*
X96531Y232267D01*
X96423Y232182D01*
X96331Y232098D01*
X96262Y232006D01*
X96208Y231913D01*
X96170Y231829D01*
X96139Y231744D01*
X96124Y231675D01*
X96109Y231614D01*
X96101Y231560D01*
Y231529D01*
Y231522D01*
Y231084D01*
X96109Y230992D01*
X96116Y230915D01*
X96155Y230761D01*
X96224Y230631D01*
X96308Y230523D01*
X96408Y230423D01*
X96516Y230347D01*
X96638Y230285D01*
X96761Y230231D01*
X96877Y230193D01*
X96999Y230162D01*
X97107Y230139D01*
X97207Y230124D01*
X97291Y230116D01*
X97360Y230109D01*
X97598D01*
X97721Y230116D01*
X97837Y230132D01*
X97944Y230147D01*
X98036Y230162D01*
X98121Y230185D01*
X98198Y230208D01*
X98267Y230231D01*
X98328Y230255D01*
X98382Y230277D01*
X98420Y230301D01*
X98459Y230316D01*
X98489Y230331D01*
X98505Y230347D01*
X98520Y230354D01*
X98628Y230454D01*
X98704Y230577D01*
X98766Y230692D01*
X98804Y230815D01*
X98827Y230923D01*
X98835Y231015D01*
X98843Y231046D01*
Y231069D01*
Y231084D01*
Y231092D01*
Y231514D01*
X98827Y231683D01*
X98789Y231837D01*
X98743Y231960D01*
X98681Y232067D01*
X98620Y232144D01*
X98574Y232197D01*
X98535Y232236D01*
X98520Y232244D01*
X98459Y232290D01*
X98382Y232328D01*
X98220Y232389D01*
X98044Y232428D01*
X97875Y232459D01*
X97714Y232474D01*
X97645Y232482D01*
X97591Y232489D01*
D02*
G37*
G36*
X96738Y194973D02*
Y193275D01*
X98766Y194036D01*
X98812Y194059D01*
X98835Y194089D01*
X98843Y194105D01*
Y194112D01*
Y194143D01*
X98835Y194174D01*
X98827Y194189D01*
X98812Y194205D01*
X98781Y194220D01*
X98758Y194235D01*
X98750D01*
X96738Y194973D01*
D02*
G37*
G36*
X66900Y287946D02*
X65009D01*
X64882Y287923D01*
X64663Y287865D01*
X64467Y287761D01*
X64306Y287634D01*
X64167Y287473D01*
X64040Y287311D01*
X63948Y287127D01*
X63879Y286943D01*
X63810Y286747D01*
X63775Y286562D01*
X63741Y286401D01*
X63718Y286239D01*
X63706Y286112D01*
X63695Y286020D01*
Y285951D01*
Y285939D01*
Y285928D01*
Y285720D01*
X63706Y285536D01*
X63729Y285363D01*
X63752Y285201D01*
X63775Y285063D01*
X63810Y284925D01*
X63845Y284809D01*
X63867Y284706D01*
X63902Y284613D01*
X63937Y284533D01*
X63971Y284464D01*
X63994Y284406D01*
X64017Y284371D01*
X64040Y284337D01*
X64052Y284325D01*
Y284314D01*
X64202Y284152D01*
X64375Y284037D01*
X64559Y283945D01*
X64732Y283887D01*
X64894Y283852D01*
X65021Y283841D01*
X65078Y283829D01*
X66900D01*
Y287946D01*
D02*
G37*
G36*
X97591Y156104D02*
X97345D01*
X97230Y156096D01*
X97015Y156066D01*
X96838Y156012D01*
X96677Y155950D01*
X96546Y155881D01*
X96431Y155797D01*
X96347Y155712D01*
X96270Y155620D01*
X96216Y155528D01*
X96170Y155444D01*
X96139Y155359D01*
X96124Y155290D01*
X96109Y155229D01*
X96101Y155175D01*
Y155144D01*
Y155136D01*
Y154392D01*
X96109Y154299D01*
X96116Y154223D01*
X96162Y154069D01*
X96224Y153938D01*
X96316Y153831D01*
X96416Y153731D01*
X96531Y153654D01*
X96654Y153593D01*
X96784Y153539D01*
X96915Y153501D01*
X97038Y153470D01*
X97153Y153447D01*
X97253Y153431D01*
X97345Y153424D01*
X97406Y153416D01*
X97598D01*
X97721Y153424D01*
X97837Y153439D01*
X97944Y153454D01*
X98036Y153470D01*
X98121Y153493D01*
X98198Y153516D01*
X98267Y153539D01*
X98328Y153562D01*
X98382Y153585D01*
X98420Y153608D01*
X98459Y153623D01*
X98489Y153639D01*
X98505Y153654D01*
X98520Y153662D01*
X98628Y153762D01*
X98704Y153885D01*
X98766Y154000D01*
X98804Y154123D01*
X98827Y154230D01*
X98835Y154322D01*
X98843Y154353D01*
Y154376D01*
Y154392D01*
Y154399D01*
Y155129D01*
X98827Y155298D01*
X98789Y155444D01*
X98743Y155574D01*
X98681Y155674D01*
X98620Y155759D01*
X98574Y155812D01*
X98535Y155851D01*
X98520Y155858D01*
X98459Y155904D01*
X98382Y155943D01*
X98220Y156004D01*
X98044Y156043D01*
X97875Y156073D01*
X97714Y156089D01*
X97645Y156096D01*
X97591Y156104D01*
D02*
G37*
G36*
X-58138Y49740D02*
X-58172D01*
X-58199Y49734D01*
X-58212Y49727D01*
X-58226Y49714D01*
X-58239Y49687D01*
X-58252Y49667D01*
Y49660D01*
X-58898Y47899D01*
X-57412D01*
X-58078Y49673D01*
X-58098Y49714D01*
X-58125Y49734D01*
X-58138Y49740D01*
D02*
G37*
G36*
X-78675D02*
X-78708D01*
X-78735Y49734D01*
X-78748Y49727D01*
X-78762Y49714D01*
X-78775Y49687D01*
X-78789Y49667D01*
Y49660D01*
X-79434Y47899D01*
X-77949D01*
X-78614Y49673D01*
X-78634Y49714D01*
X-78661Y49734D01*
X-78675Y49740D01*
D02*
G37*
G36*
X-40538Y57603D02*
X-40572D01*
X-40599Y57596D01*
X-40612Y57589D01*
X-40626Y57576D01*
X-40639Y57549D01*
X-40653Y57529D01*
Y57522D01*
X-41298Y55761D01*
X-39813D01*
X-40478Y57535D01*
X-40498Y57576D01*
X-40525Y57596D01*
X-40538Y57603D01*
D02*
G37*
G36*
X-66961D02*
X-67640D01*
X-67788Y57589D01*
X-67916Y57556D01*
X-68030Y57515D01*
X-68117Y57462D01*
X-68191Y57408D01*
X-68238Y57367D01*
X-68272Y57334D01*
X-68279Y57320D01*
X-68319Y57267D01*
X-68353Y57200D01*
X-68406Y57058D01*
X-68440Y56904D01*
X-68467Y56756D01*
X-68480Y56615D01*
X-68487Y56554D01*
X-68494Y56507D01*
Y56460D01*
Y56427D01*
Y56406D01*
Y56400D01*
Y56292D01*
X-68487Y56191D01*
X-68460Y56003D01*
X-68413Y55849D01*
X-68359Y55708D01*
X-68299Y55593D01*
X-68225Y55493D01*
X-68151Y55419D01*
X-68070Y55351D01*
X-67990Y55304D01*
X-67916Y55264D01*
X-67842Y55237D01*
X-67781Y55224D01*
X-67728Y55210D01*
X-67681Y55204D01*
X-66995D01*
X-66914Y55210D01*
X-66847Y55217D01*
X-66713Y55257D01*
X-66599Y55311D01*
X-66505Y55392D01*
X-66417Y55479D01*
X-66350Y55580D01*
X-66296Y55687D01*
X-66249Y55802D01*
X-66216Y55916D01*
X-66189Y56024D01*
X-66169Y56124D01*
X-66155Y56212D01*
X-66148Y56292D01*
X-66142Y56346D01*
Y56386D01*
Y56400D01*
Y56514D01*
X-66148Y56621D01*
X-66162Y56722D01*
X-66175Y56816D01*
X-66189Y56897D01*
X-66209Y56971D01*
X-66229Y57038D01*
X-66249Y57099D01*
X-66269Y57152D01*
X-66290Y57200D01*
X-66310Y57233D01*
X-66323Y57267D01*
X-66337Y57293D01*
X-66350Y57307D01*
X-66357Y57320D01*
X-66444Y57415D01*
X-66552Y57482D01*
X-66652Y57535D01*
X-66760Y57569D01*
X-66854Y57589D01*
X-66935Y57596D01*
X-66961Y57603D01*
D02*
G37*
G36*
X63752Y279981D02*
X63726D01*
X63706Y279976D01*
X63696Y279971D01*
X63685Y279961D01*
X63675Y279940D01*
X63665Y279925D01*
Y279920D01*
X63174Y278581D01*
X64304D01*
X63798Y279930D01*
X63782Y279961D01*
X63762Y279976D01*
X63752Y279981D01*
D02*
G37*
G36*
X77518D02*
X77492D01*
X77472Y279976D01*
X77462Y279971D01*
X77452Y279961D01*
X77441Y279940D01*
X77431Y279925D01*
Y279920D01*
X76941Y278581D01*
X78070D01*
X77564Y279930D01*
X77549Y279961D01*
X77528Y279976D01*
X77518Y279981D01*
D02*
G37*
G36*
X55698D02*
X54712D01*
X54671Y279976D01*
X54636Y279971D01*
X54615Y279961D01*
X54605Y279956D01*
X54569Y279935D01*
X54538Y279915D01*
X54518Y279894D01*
X54513Y279889D01*
X54487Y279859D01*
X54467Y279828D01*
X54457Y279802D01*
X54452Y279797D01*
Y279792D01*
X54436Y279751D01*
X54431Y279715D01*
X54426Y279690D01*
Y279685D01*
Y279680D01*
X54431Y279634D01*
X54441Y279588D01*
X54452Y279552D01*
X54467Y279516D01*
X54487Y279491D01*
X54497Y279470D01*
X54508Y279460D01*
X54513Y279455D01*
X54544Y279424D01*
X54579Y279404D01*
X54615Y279383D01*
X54646Y279373D01*
X54676Y279368D01*
X54697Y279363D01*
X55698D01*
Y279981D01*
D02*
G37*
%LPD*%
D36*
X9843Y275591D02*
X86614D01*
X6890Y278543D02*
X9843Y275591D01*
X-7874D02*
X-4921Y290354D01*
X-8858Y270669D02*
X-7874Y275591D01*
X-16732Y278543D02*
X-13780Y275591D01*
X-19685D02*
X-16732Y278543D01*
X-27559Y275591D02*
X-19685D01*
X3937D02*
X6890Y278543D01*
X-4921Y290354D02*
X-1363Y272562D01*
X-13780Y275591D02*
X-10827D01*
X-8858Y270669D01*
X984Y275591D02*
X3937D01*
X-984Y272638D02*
X984Y275591D01*
X-86614Y275591D02*
X-51181D01*
M02*
