%FSLAX25Y25*%
%MOIN*%
G70*
G01*
G75*
G04 Layer_Physical_Order=2*
G04 Layer_Color=16711680*
%ADD10C,0.00492*%
%ADD11R,0.03937X0.01811*%
%ADD12R,0.01811X0.01811*%
%ADD13R,0.13386X0.13386*%
%ADD14O,0.00787X0.02559*%
%ADD15O,0.02559X0.00787*%
%ADD16R,0.02835X0.03937*%
%ADD17R,0.03937X0.02835*%
%ADD18R,0.04134X0.04528*%
%ADD19O,0.01772X0.05512*%
%ADD20R,0.03740X0.02559*%
%ADD21R,0.03150X0.02165*%
%ADD22R,0.02559X0.03740*%
%ADD23R,0.03937X0.02362*%
G04:AMPARAMS|DCode=24|XSize=118.11mil|YSize=118.11mil|CornerRadius=0mil|HoleSize=0mil|Usage=FLASHONLY|Rotation=270.000|XOffset=0mil|YOffset=0mil|HoleType=Round|Shape=Octagon|*
%AMOCTAGOND24*
4,1,8,-0.02953,-0.05906,0.02953,-0.05906,0.05906,-0.02953,0.05906,0.02953,0.02953,0.05906,-0.02953,0.05906,-0.05906,0.02953,-0.05906,-0.02953,-0.02953,-0.05906,0.0*
%
%ADD24OCTAGOND24*%

%ADD25R,0.02362X0.03937*%
%ADD26R,0.05512X0.03543*%
%ADD27O,0.01181X0.05512*%
%ADD28O,0.05512X0.01181*%
%ADD29O,0.05709X0.01181*%
%ADD30O,0.01181X0.05709*%
%ADD31R,0.06496X0.04724*%
%ADD32C,0.01142*%
%ADD33R,0.01378X0.03740*%
%ADD34R,0.02953X0.06496*%
%ADD35R,0.03347X0.01575*%
%ADD36C,0.00984*%
%ADD37C,0.01969*%
%ADD38C,0.00500*%
%ADD39C,0.01575*%
%ADD40C,0.00787*%
%ADD41C,0.01000*%
%ADD42O,0.09843X0.05906*%
%ADD43R,0.07874X0.07874*%
%ADD44C,0.07874*%
%ADD45R,0.05906X0.05906*%
%ADD46C,0.05906*%
%ADD47O,0.05906X0.09843*%
%ADD48C,0.11811*%
%ADD49O,0.07874X0.11811*%
%ADD50C,0.19685*%
%ADD51O,0.01969X0.03937*%
%ADD52C,0.01969*%
%ADD53R,0.01969X0.04921*%
G36*
X-97441Y315008D02*
X-3937Y314961D01*
Y285433D01*
X92916D01*
X93013Y284943D01*
X92735Y284827D01*
X91348Y283977D01*
X90111Y282921D01*
X89054Y281684D01*
X88204Y280297D01*
X87582Y278794D01*
X87202Y277212D01*
X87074Y275591D01*
X87202Y273969D01*
X87582Y272387D01*
X88204Y270884D01*
X89054Y269497D01*
X90111Y268260D01*
X91348Y267204D01*
X92735Y266354D01*
X94238Y265731D01*
X95819Y265352D01*
X97441Y265224D01*
X99063Y265352D01*
X100644Y265731D01*
X102147Y266354D01*
X103534Y267204D01*
X104771Y268260D01*
X105828Y269497D01*
X106678Y270884D01*
X106793Y271163D01*
X107283Y271065D01*
Y57675D01*
X106793Y57577D01*
X106678Y57856D01*
X105828Y59243D01*
X104771Y60480D01*
X103534Y61536D01*
X102147Y62386D01*
X100644Y63009D01*
X99063Y63389D01*
X97441Y63516D01*
X95819Y63389D01*
X94238Y63009D01*
X92735Y62386D01*
X91348Y61536D01*
X90111Y60480D01*
X89054Y59243D01*
X88204Y57856D01*
X87582Y56353D01*
X87202Y54771D01*
X87074Y53150D01*
X87202Y51528D01*
X87582Y49946D01*
X88204Y48443D01*
X89054Y47056D01*
X90111Y45819D01*
X91348Y44763D01*
X92735Y43913D01*
X94238Y43290D01*
X95819Y42911D01*
X97441Y42783D01*
X99063Y42911D01*
X100644Y43290D01*
X102147Y43913D01*
X103534Y44763D01*
X104771Y45819D01*
X105828Y47056D01*
X106678Y48443D01*
X106793Y48722D01*
X107283Y48624D01*
Y9843D01*
X107283D01*
X107282Y9343D01*
X107141Y7913D01*
X106578Y6058D01*
X105664Y4348D01*
X104434Y2849D01*
X102936Y1619D01*
X101226Y705D01*
X99370Y143D01*
X97441Y-48D01*
X-97441Y0D01*
X-97441Y0D01*
Y0D01*
X-97941Y2D01*
X-99370Y143D01*
X-101226Y705D01*
X-102936Y1619D01*
X-104434Y2849D01*
X-105664Y4348D01*
X-106578Y6058D01*
X-107141Y7913D01*
X-107331Y9842D01*
X-107331Y9843D01*
X-107325Y48699D01*
X-106825Y48799D01*
X-106678Y48443D01*
X-105828Y47056D01*
X-104771Y45819D01*
X-103534Y44763D01*
X-102147Y43913D01*
X-100644Y43290D01*
X-99063Y42911D01*
X-97441Y42783D01*
X-95819Y42911D01*
X-94238Y43290D01*
X-92735Y43913D01*
X-91348Y44763D01*
X-90111Y45819D01*
X-89054Y47056D01*
X-88204Y48443D01*
X-87582Y49946D01*
X-87202Y51528D01*
X-87074Y53150D01*
X-87202Y54771D01*
X-87582Y56353D01*
X-88204Y57856D01*
X-89054Y59243D01*
X-90111Y60480D01*
X-91348Y61536D01*
X-92735Y62386D01*
X-94238Y63009D01*
X-95819Y63389D01*
X-97441Y63516D01*
X-99063Y63389D01*
X-100644Y63009D01*
X-102147Y62386D01*
X-103534Y61536D01*
X-104771Y60480D01*
X-105828Y59243D01*
X-106678Y57856D01*
X-106823Y57504D01*
X-107323Y57604D01*
X-107289Y271079D01*
X-106799Y271176D01*
X-106678Y270884D01*
X-105828Y269497D01*
X-104771Y268260D01*
X-103534Y267204D01*
X-102147Y266354D01*
X-100644Y265731D01*
X-99063Y265352D01*
X-97441Y265224D01*
X-95819Y265352D01*
X-94238Y265731D01*
X-92735Y266354D01*
X-91348Y267204D01*
X-90111Y268260D01*
X-89054Y269497D01*
X-88204Y270884D01*
X-87582Y272387D01*
X-87202Y273969D01*
X-87074Y275591D01*
X-87202Y277212D01*
X-87582Y278794D01*
X-88204Y280297D01*
X-89054Y281684D01*
X-90111Y282921D01*
X-91348Y283977D01*
X-92735Y284827D01*
X-94238Y285450D01*
X-95819Y285830D01*
X-97441Y285957D01*
X-99063Y285830D01*
X-100644Y285450D01*
X-102147Y284827D01*
X-103534Y283977D01*
X-104771Y282921D01*
X-105828Y281684D01*
X-106678Y280297D01*
X-106797Y280008D01*
X-107288Y280106D01*
X-107283Y305118D01*
X-107283D01*
X-107282Y305617D01*
X-107141Y307048D01*
X-106578Y308903D01*
X-105664Y310613D01*
X-104435Y312112D01*
X-102936Y313341D01*
X-101226Y314255D01*
X-99371Y314818D01*
X-97441Y315008D01*
X-97441Y315008D01*
D02*
G37*
%LPC*%
G36*
X35856Y204232D02*
X34941D01*
Y203317D01*
X35025Y203334D01*
X35513Y203660D01*
X35840Y204148D01*
X35856Y204232D01*
D02*
G37*
G36*
X33957D02*
X33041D01*
X33058Y204148D01*
X33384Y203660D01*
X33873Y203334D01*
X33957Y203317D01*
Y204232D01*
D02*
G37*
G36*
Y206132D02*
X33873Y206115D01*
X33384Y205789D01*
X33058Y205300D01*
X33041Y205217D01*
X33957D01*
Y206132D01*
D02*
G37*
G36*
X7707Y206594D02*
X6791D01*
Y205679D01*
X6875Y205696D01*
X7364Y206022D01*
X7690Y206511D01*
X7707Y206594D01*
D02*
G37*
G36*
X5807D02*
X4892D01*
X4908Y206511D01*
X5235Y206022D01*
X5723Y205696D01*
X5807Y205679D01*
Y206594D01*
D02*
G37*
G36*
X34941Y206132D02*
Y205217D01*
X35856D01*
X35840Y205300D01*
X35513Y205789D01*
X35025Y206115D01*
X34941Y206132D01*
D02*
G37*
G36*
X8366Y57510D02*
X8282Y57493D01*
X7794Y57167D01*
X7468Y56678D01*
X7451Y56595D01*
X8366D01*
Y57510D01*
D02*
G37*
G36*
X82677Y228868D02*
X82101Y228753D01*
X81613Y228427D01*
X81287Y227938D01*
X81172Y227362D01*
X81186Y227290D01*
X80983Y227088D01*
X80766Y226762D01*
X80689Y226378D01*
Y199924D01*
X80629Y199883D01*
X80302Y199395D01*
X80188Y198819D01*
X80302Y198243D01*
X80629Y197755D01*
X81117Y197428D01*
X81693Y197314D01*
X82269Y197428D01*
X82757Y197755D01*
X83084Y198243D01*
X83198Y198819D01*
X83084Y199395D01*
X82757Y199883D01*
X82696Y199924D01*
Y225861D01*
X83253Y225972D01*
X83742Y226298D01*
X84068Y226786D01*
X84183Y227362D01*
X84068Y227938D01*
X83742Y228427D01*
X83253Y228753D01*
X82677Y228868D01*
D02*
G37*
G36*
X9350Y57510D02*
Y56595D01*
X10266D01*
X10249Y56678D01*
X9923Y57167D01*
X9434Y57493D01*
X9350Y57510D01*
D02*
G37*
G36*
X40354Y225915D02*
X39778Y225800D01*
X39290Y225474D01*
X38964Y224986D01*
X38849Y224410D01*
X38964Y223833D01*
X39290Y223345D01*
X39602Y223137D01*
Y218816D01*
X36869Y216083D01*
X36706Y215839D01*
X36649Y215551D01*
Y209958D01*
X36106Y209414D01*
X32480D01*
X32192Y209357D01*
X31948Y209194D01*
X30964Y208209D01*
X30801Y207965D01*
X30743Y207677D01*
Y203068D01*
X30200Y202524D01*
X14068D01*
X13860Y202836D01*
X13371Y203162D01*
X12795Y203277D01*
X12219Y203162D01*
X11731Y202836D01*
X11405Y202348D01*
X11290Y201772D01*
X11405Y201196D01*
X11731Y200707D01*
X12219Y200381D01*
X12795Y200266D01*
X13371Y200381D01*
X13860Y200707D01*
X14068Y201019D01*
X30512D01*
X30800Y201076D01*
X31044Y201239D01*
X32028Y202224D01*
X32191Y202468D01*
X32249Y202756D01*
Y207365D01*
X32792Y207909D01*
X36417D01*
X36705Y207966D01*
X36950Y208129D01*
X37934Y209114D01*
X38097Y209358D01*
X38154Y209646D01*
Y215240D01*
X40887Y217972D01*
X41050Y218216D01*
X41107Y218504D01*
Y223137D01*
X41419Y223345D01*
X41745Y223833D01*
X41860Y224410D01*
X41745Y224986D01*
X41419Y225474D01*
X40930Y225800D01*
X40354Y225915D01*
D02*
G37*
G36*
X-20669Y287402D02*
X-58071D01*
X-59055Y286417D01*
X-61024Y284449D01*
Y277559D01*
Y272638D01*
X-68898Y264764D01*
X-74803Y258858D01*
Y162636D01*
X-74862Y162630D01*
Y162173D01*
X-74803Y162167D01*
Y158465D01*
X-71850Y155512D01*
X-54134D01*
X-51181Y158465D01*
Y159449D01*
Y160879D01*
X-51181Y161379D01*
X-50413Y161532D01*
X-49762Y161967D01*
X-49327Y162618D01*
X-49174Y163386D01*
X-49315Y164096D01*
X-49145Y164303D01*
X-48939Y164473D01*
X-48228Y164332D01*
X-47460Y164484D01*
X-46809Y164919D01*
X-46374Y165571D01*
X-46221Y166339D01*
X-46363Y167049D01*
X-46193Y167256D01*
X-45986Y167426D01*
X-45276Y167284D01*
X-44508Y167437D01*
X-43856Y167872D01*
X-43421Y168523D01*
X-43268Y169291D01*
X-43410Y170002D01*
X-43240Y170208D01*
X-43033Y170378D01*
X-42323Y170237D01*
X-41555Y170390D01*
X-40904Y170825D01*
X-40468Y171476D01*
X-40316Y172244D01*
X-40457Y172954D01*
X-40287Y173161D01*
X-40080Y173331D01*
X-39370Y173190D01*
X-38602Y173343D01*
X-37951Y173778D01*
X-37516Y174429D01*
X-37363Y175197D01*
X-37504Y175907D01*
X-37334Y176114D01*
X-37128Y176284D01*
X-36417Y176143D01*
X-35649Y176295D01*
X-34998Y176730D01*
X-34563Y177382D01*
X-34410Y178150D01*
X-34552Y178860D01*
X-34382Y179067D01*
X-34175Y179237D01*
X-33465Y179095D01*
X-32697Y179248D01*
X-32045Y179683D01*
X-31610Y180334D01*
X-31457Y181102D01*
X-31599Y181813D01*
X-31429Y182019D01*
X-31222Y182189D01*
X-30512Y182048D01*
X-29744Y182201D01*
X-29093Y182636D01*
X-28657Y183287D01*
X-28505Y184055D01*
X-28657Y184823D01*
X-29093Y185474D01*
X-29744Y185909D01*
X-30512Y186062D01*
X-31280Y185909D01*
X-31931Y185474D01*
X-32209Y185059D01*
X-33049D01*
X-36398Y188408D01*
Y202756D01*
X-35008D01*
X-34981Y202716D01*
X-34737Y202553D01*
X-34449Y202495D01*
X-34161Y202553D01*
X-33917Y202716D01*
X-33890Y202756D01*
X-33206D01*
X-32915Y202321D01*
X-32264Y201886D01*
X-31496Y201733D01*
X-30728Y201886D01*
X-30077Y202321D01*
X-29786Y202756D01*
X-29102D01*
X-29076Y202716D01*
X-28831Y202553D01*
X-28543Y202495D01*
X-28255Y202553D01*
X-28011Y202716D01*
X-27984Y202756D01*
X-6890D01*
X-3937Y205709D01*
Y258858D01*
X-17717Y272638D01*
Y284449D01*
X-20669Y287402D01*
D02*
G37*
G36*
X10266Y55610D02*
X9350D01*
Y54695D01*
X9434Y54712D01*
X9923Y55038D01*
X10249Y55526D01*
X10266Y55610D01*
D02*
G37*
G36*
X17618Y206594D02*
X16703D01*
X16720Y206511D01*
X17046Y206022D01*
X17534Y205696D01*
X17618Y205679D01*
Y206594D01*
D02*
G37*
G36*
X67352Y208169D02*
X66437D01*
Y207254D01*
X66521Y207271D01*
X67009Y207597D01*
X67336Y208085D01*
X67352Y208169D01*
D02*
G37*
G36*
X65453D02*
X64538D01*
X64554Y208085D01*
X64881Y207597D01*
X65369Y207271D01*
X65453Y207254D01*
Y208169D01*
D02*
G37*
G36*
X102195Y206594D02*
X101279D01*
Y205679D01*
X101363Y205696D01*
X101852Y206022D01*
X102178Y206511D01*
X102195Y206594D01*
D02*
G37*
G36*
X20177Y44715D02*
X20093Y44698D01*
X19605Y44372D01*
X19279Y43883D01*
X19262Y43799D01*
X20177D01*
Y44715D01*
D02*
G37*
G36*
X21161D02*
Y43799D01*
X22077D01*
X22060Y43883D01*
X21734Y44372D01*
X21245Y44698D01*
X21161Y44715D01*
D02*
G37*
G36*
X8366Y55610D02*
X7451D01*
X7468Y55526D01*
X7794Y55038D01*
X8282Y54712D01*
X8366Y54695D01*
Y55610D01*
D02*
G37*
G36*
X78573Y206594D02*
X77658D01*
Y205679D01*
X77741Y205696D01*
X78230Y206022D01*
X78556Y206511D01*
X78573Y206594D01*
D02*
G37*
G36*
X76673D02*
X75758D01*
X75775Y206511D01*
X76101Y206022D01*
X76589Y205696D01*
X76673Y205679D01*
Y206594D01*
D02*
G37*
G36*
X19518D02*
X18602D01*
Y205679D01*
X18686Y205696D01*
X19175Y206022D01*
X19501Y206511D01*
X19518Y206594D01*
D02*
G37*
G36*
X100295D02*
X99380D01*
X99397Y206511D01*
X99723Y206022D01*
X100211Y205696D01*
X100295Y205679D01*
Y206594D01*
D02*
G37*
G36*
X90384D02*
X89468D01*
Y205679D01*
X89552Y205696D01*
X90041Y206022D01*
X90367Y206511D01*
X90384Y206594D01*
D02*
G37*
G36*
X88484D02*
X87569D01*
X87586Y206511D01*
X87912Y206022D01*
X88400Y205696D01*
X88484Y205679D01*
Y206594D01*
D02*
G37*
G36*
X-32480Y66968D02*
X-33248Y66815D01*
X-33900Y66380D01*
X-34335Y65729D01*
X-34487Y64961D01*
X-34390Y64470D01*
X-35849Y63011D01*
X-36689D01*
X-36967Y63427D01*
X-37618Y63862D01*
X-38386Y64015D01*
X-39154Y63862D01*
X-39805Y63427D01*
X-40240Y62776D01*
X-40393Y62008D01*
X-40240Y61240D01*
X-39805Y60589D01*
X-39154Y60154D01*
X-38386Y60001D01*
X-37618Y60154D01*
X-36967Y60589D01*
X-36689Y61004D01*
X-35433D01*
X-35049Y61081D01*
X-34723Y61298D01*
X-32971Y63051D01*
X-32480Y62954D01*
X-31712Y63106D01*
X-31061Y63542D01*
X-30626Y64193D01*
X-30473Y64961D01*
X-30626Y65729D01*
X-31061Y66380D01*
X-31712Y66815D01*
X-32480Y66968D01*
D02*
G37*
G36*
X49705Y186447D02*
X49621Y186430D01*
X49132Y186104D01*
X48806Y185616D01*
X48789Y185531D01*
X49705D01*
Y186447D01*
D02*
G37*
G36*
X51604Y184547D02*
X50689D01*
Y183632D01*
X50773Y183649D01*
X51261Y183975D01*
X51588Y184463D01*
X51604Y184547D01*
D02*
G37*
G36*
X49705D02*
X48789D01*
X48806Y184463D01*
X49132Y183975D01*
X49621Y183649D01*
X49705Y183632D01*
Y184547D01*
D02*
G37*
G36*
X-23130Y193406D02*
X-24045D01*
X-24028Y193322D01*
X-23702Y192833D01*
X-23214Y192507D01*
X-23130Y192490D01*
Y193406D01*
D02*
G37*
G36*
X79724Y194901D02*
X72362D01*
X71978Y194825D01*
X71653Y194607D01*
X68955Y191910D01*
X61516D01*
Y183051D01*
X70374D01*
Y190490D01*
X72778Y192894D01*
X79309D01*
X80689Y191514D01*
Y188907D01*
X80189Y188807D01*
X79814Y189714D01*
X79104Y190639D01*
X78179Y191349D01*
X77101Y191796D01*
X75945Y191948D01*
X74789Y191796D01*
X73711Y191349D01*
X72786Y190639D01*
X72076Y189714D01*
X71630Y188637D01*
X71478Y187480D01*
X71630Y186324D01*
X72076Y185247D01*
X72786Y184321D01*
X73711Y183612D01*
X74789Y183165D01*
X75945Y183013D01*
X77101Y183165D01*
X78179Y183612D01*
X79104Y184321D01*
X79814Y185247D01*
X80189Y186154D01*
X80689Y186054D01*
Y178907D01*
X80189Y178807D01*
X79814Y179714D01*
X79104Y180639D01*
X78179Y181349D01*
X77101Y181796D01*
X75945Y181948D01*
X74789Y181796D01*
X73711Y181349D01*
X72786Y180639D01*
X72076Y179714D01*
X71630Y178637D01*
X71478Y177480D01*
X71630Y176324D01*
X72076Y175247D01*
X72786Y174321D01*
X73711Y173611D01*
X74789Y173165D01*
X75945Y173013D01*
X77101Y173165D01*
X78179Y173611D01*
X79104Y174321D01*
X79814Y175247D01*
X80189Y176154D01*
X80689Y176054D01*
Y168907D01*
X80189Y168807D01*
X79814Y169714D01*
X79104Y170639D01*
X78179Y171349D01*
X77101Y171795D01*
X75945Y171948D01*
X74789Y171795D01*
X73711Y171349D01*
X72786Y170639D01*
X72076Y169714D01*
X71630Y168637D01*
X71478Y167480D01*
X71630Y166324D01*
X72076Y165247D01*
X72786Y164321D01*
X73711Y163611D01*
X74789Y163165D01*
X75945Y163013D01*
X77101Y163165D01*
X78179Y163611D01*
X79104Y164321D01*
X79814Y165247D01*
X80189Y166154D01*
X80689Y166054D01*
Y158907D01*
X80189Y158807D01*
X79814Y159714D01*
X79104Y160639D01*
X78179Y161349D01*
X77101Y161795D01*
X75945Y161948D01*
X74789Y161795D01*
X73711Y161349D01*
X72786Y160639D01*
X72076Y159714D01*
X71630Y158637D01*
X71478Y157480D01*
X71630Y156324D01*
X72076Y155247D01*
X72786Y154322D01*
X73711Y153612D01*
X74789Y153165D01*
X75945Y153013D01*
X77101Y153165D01*
X78179Y153612D01*
X78769Y154064D01*
X80689Y152143D01*
Y148907D01*
X80189Y148807D01*
X79814Y149714D01*
X79104Y150639D01*
X78179Y151349D01*
X77101Y151795D01*
X75945Y151948D01*
X74789Y151795D01*
X73711Y151349D01*
X72786Y150639D01*
X72076Y149714D01*
X71630Y148637D01*
X71478Y147480D01*
X71630Y146324D01*
X72076Y145247D01*
X72786Y144322D01*
X73711Y143612D01*
X74789Y143165D01*
X75945Y143013D01*
X77101Y143165D01*
X78179Y143612D01*
X79104Y144322D01*
X79814Y145247D01*
X80189Y146154D01*
X80689Y146054D01*
Y138907D01*
X80189Y138807D01*
X79814Y139714D01*
X79104Y140639D01*
X78179Y141349D01*
X77101Y141796D01*
X75945Y141948D01*
X74789Y141796D01*
X73711Y141349D01*
X72786Y140639D01*
X72076Y139714D01*
X71630Y138637D01*
X71478Y137480D01*
X71630Y136324D01*
X72076Y135247D01*
X72786Y134321D01*
X73711Y133612D01*
X74789Y133165D01*
X75945Y133013D01*
X77101Y133165D01*
X78179Y133612D01*
X78947Y134201D01*
X82658Y130490D01*
Y122894D01*
X82158Y122687D01*
X79720Y125125D01*
X79814Y125247D01*
X80260Y126324D01*
X80412Y127480D01*
X80260Y128637D01*
X79814Y129714D01*
X79104Y130639D01*
X78179Y131349D01*
X77101Y131796D01*
X75945Y131948D01*
X74789Y131796D01*
X73711Y131349D01*
X72786Y130639D01*
X72076Y129714D01*
X71630Y128637D01*
X71478Y127480D01*
X71630Y126324D01*
X72076Y125247D01*
X72786Y124321D01*
X73711Y123611D01*
X74789Y123165D01*
X75945Y123013D01*
X77101Y123165D01*
X78179Y123611D01*
X78301Y123705D01*
X80689Y121317D01*
Y118287D01*
X80189Y118080D01*
X76497Y121773D01*
X76171Y121990D01*
X75787Y122067D01*
X62424D01*
X59074Y125416D01*
Y130490D01*
X62854Y134269D01*
X63711Y133612D01*
X64789Y133165D01*
X65945Y133013D01*
X67101Y133165D01*
X68179Y133612D01*
X69104Y134321D01*
X69814Y135247D01*
X70260Y136324D01*
X70412Y137480D01*
X70260Y138637D01*
X69814Y139714D01*
X69104Y140639D01*
X68179Y141349D01*
X67101Y141796D01*
X65945Y141948D01*
X64789Y141796D01*
X63711Y141349D01*
X62786Y140639D01*
X62076Y139714D01*
X61630Y138637D01*
X61543Y137977D01*
X61043Y138010D01*
Y146951D01*
X61543Y146984D01*
X61630Y146324D01*
X62076Y145247D01*
X62786Y144322D01*
X63711Y143612D01*
X64789Y143165D01*
X65453Y143078D01*
Y147480D01*
Y151883D01*
X64789Y151795D01*
X63711Y151349D01*
X62786Y150639D01*
X62076Y149714D01*
X61630Y148637D01*
X61543Y147977D01*
X61043Y148010D01*
Y152143D01*
X63032Y154133D01*
X63711Y153612D01*
X64789Y153165D01*
X65945Y153013D01*
X67101Y153165D01*
X68179Y153612D01*
X69104Y154322D01*
X69814Y155247D01*
X70260Y156324D01*
X70412Y157480D01*
X70260Y158637D01*
X69814Y159714D01*
X69104Y160639D01*
X68179Y161349D01*
X67101Y161795D01*
X65945Y161948D01*
X64789Y161795D01*
X63711Y161349D01*
X62786Y160639D01*
X62076Y159714D01*
X61630Y158637D01*
X61622Y158575D01*
X61122Y158608D01*
Y162065D01*
X63121Y164064D01*
X63711Y163611D01*
X64789Y163165D01*
X65945Y163013D01*
X67101Y163165D01*
X68179Y163611D01*
X69104Y164321D01*
X69814Y165247D01*
X70260Y166324D01*
X70412Y167480D01*
X70260Y168637D01*
X69814Y169714D01*
X69104Y170639D01*
X68179Y171349D01*
X67101Y171795D01*
X65945Y171948D01*
X64789Y171795D01*
X63711Y171349D01*
X62786Y170639D01*
X62076Y169714D01*
X61630Y168637D01*
X61543Y167977D01*
X61043Y168010D01*
Y171828D01*
X63210Y173996D01*
X63711Y173611D01*
X64789Y173165D01*
X65945Y173013D01*
X67101Y173165D01*
X68179Y173611D01*
X69104Y174321D01*
X69814Y175247D01*
X70260Y176324D01*
X70412Y177480D01*
X70260Y178637D01*
X69814Y179714D01*
X69104Y180639D01*
X68179Y181349D01*
X67101Y181796D01*
X65945Y181948D01*
X64789Y181796D01*
X63711Y181349D01*
X62786Y180639D01*
X62076Y179714D01*
X61630Y178637D01*
X61478Y177480D01*
X61630Y176324D01*
X61943Y175567D01*
X59330Y172954D01*
X59112Y172628D01*
X59036Y172244D01*
Y165770D01*
X57361Y164095D01*
X57144Y163770D01*
X57067Y163386D01*
Y156912D01*
X55393Y155237D01*
X55175Y154912D01*
X55099Y154528D01*
Y138211D01*
X51456Y134568D01*
X51238Y134242D01*
X51162Y133858D01*
Y122047D01*
X51238Y121663D01*
X51456Y121338D01*
X58346Y114448D01*
X58671Y114230D01*
X59055Y114154D01*
X72419D01*
X72815Y113758D01*
Y69313D01*
X72419Y68917D01*
X66929D01*
X66545Y68841D01*
X66437Y68768D01*
X66220Y68623D01*
X65460Y67864D01*
X64967Y68077D01*
X64846Y68682D01*
X64411Y69333D01*
X63760Y69768D01*
X63273Y69865D01*
Y69865D01*
X63235Y70133D01*
X63273Y70401D01*
D01*
X63568Y70460D01*
X63710Y70554D01*
X64056Y70786D01*
X64383Y71274D01*
X64399Y71358D01*
X62992D01*
Y71850D01*
X62500D01*
Y73258D01*
X62416Y73241D01*
X61928Y72915D01*
X61601Y72426D01*
X61543Y72132D01*
X61043Y72182D01*
Y77509D01*
X63702Y80168D01*
X63847Y80386D01*
X63919Y80494D01*
X63996Y80878D01*
Y87870D01*
X64411Y88148D01*
X64846Y88799D01*
X64999Y89567D01*
X64846Y90335D01*
X64411Y90986D01*
X63760Y91421D01*
X62992Y91574D01*
X62224Y91421D01*
X61573Y90986D01*
X61138Y90335D01*
X60985Y89567D01*
X61138Y88799D01*
X61573Y88148D01*
X61989Y87870D01*
Y81293D01*
X60559Y79863D01*
X60059Y80070D01*
Y92520D01*
X59982Y92904D01*
X59910Y93012D01*
X59765Y93229D01*
X58012Y94982D01*
X58109Y95473D01*
X57957Y96241D01*
X57522Y96892D01*
X56870Y97327D01*
X56102Y97480D01*
X55334Y97327D01*
X54683Y96892D01*
X54248Y96241D01*
X54095Y95473D01*
X54248Y94704D01*
X54683Y94053D01*
X55334Y93618D01*
X56102Y93465D01*
X56593Y93563D01*
X58052Y92104D01*
Y88140D01*
X57552Y87989D01*
X57522Y88033D01*
X56870Y88468D01*
X56102Y88621D01*
X55334Y88468D01*
X54683Y88033D01*
X54248Y87382D01*
X54095Y86614D01*
X54193Y86124D01*
X52471Y84402D01*
X52409Y84371D01*
X51922Y84371D01*
X51859Y84402D01*
X50906Y85355D01*
X50581Y85573D01*
X50197Y85649D01*
X46043D01*
X45961Y85757D01*
X45711Y86179D01*
X46146Y86830D01*
X46298Y87599D01*
X46146Y88367D01*
X45711Y89018D01*
X45059Y89453D01*
X44291Y89606D01*
X43523Y89453D01*
X42872Y89018D01*
X42842Y88973D01*
X42342Y89124D01*
Y92189D01*
X42382Y92193D01*
Y92847D01*
X42342Y92851D01*
Y96126D01*
X42382Y96130D01*
Y96784D01*
X42342Y96788D01*
Y98425D01*
X42266Y98809D01*
X42048Y99135D01*
X39389Y101794D01*
Y118763D01*
X39429Y118767D01*
Y119422D01*
X39389Y119426D01*
Y143666D01*
X40138Y143815D01*
X40789Y144250D01*
X41224Y144901D01*
X41377Y145669D01*
X41224Y146437D01*
X40789Y147089D01*
X40417Y147337D01*
Y147939D01*
X40789Y148187D01*
X41224Y148838D01*
X41377Y149606D01*
X41224Y150374D01*
X40789Y151026D01*
X40138Y151461D01*
X39370Y151613D01*
X38602Y151461D01*
X37951Y151026D01*
X37516Y150374D01*
X37363Y149606D01*
X37461Y149116D01*
X35952Y147608D01*
X35452Y147815D01*
Y161417D01*
X35376Y161801D01*
X35158Y162127D01*
X20639Y176646D01*
X20846Y177146D01*
X24486D01*
X24526Y177085D01*
X25014Y176759D01*
X25591Y176644D01*
X26167Y176759D01*
X26655Y177085D01*
X26981Y177574D01*
X27096Y178150D01*
X26981Y178726D01*
X26655Y179214D01*
X26167Y179540D01*
X25591Y179655D01*
X25014Y179540D01*
X24526Y179214D01*
X24486Y179153D01*
X11158D01*
X11154Y179193D01*
X10499D01*
X10496Y179153D01*
X6321D01*
X-2243Y187717D01*
X-2569Y187935D01*
X-2953Y188011D01*
X-4800D01*
X-4841Y188072D01*
X-5330Y188399D01*
X-5906Y188513D01*
X-6482Y188399D01*
X-6970Y188072D01*
X-7296Y187584D01*
X-7411Y187008D01*
X-7296Y186432D01*
X-6970Y185943D01*
X-6482Y185617D01*
X-5906Y185503D01*
X-5643Y185045D01*
X-5791Y184823D01*
X-5944Y184055D01*
X-5852Y183591D01*
X-5892Y183230D01*
X-6215Y183048D01*
X-6674Y182957D01*
X-7325Y182522D01*
X-7760Y181870D01*
X-7913Y181102D01*
X-7820Y180638D01*
X-7861Y180277D01*
X-8183Y180095D01*
X-8642Y180004D01*
X-9293Y179569D01*
X-9728Y178918D01*
X-9881Y178150D01*
X-9728Y177382D01*
X-9293Y176730D01*
X-8642Y176295D01*
X-8183Y176204D01*
X-7861Y176022D01*
X-7820Y175661D01*
X-7913Y175197D01*
X-7820Y174733D01*
X-7861Y174372D01*
X-8183Y174190D01*
X-8642Y174098D01*
X-9293Y173663D01*
X-9728Y173012D01*
X-9881Y172244D01*
X-9728Y171476D01*
X-9293Y170825D01*
X-8642Y170390D01*
X-8183Y170299D01*
X-7861Y170116D01*
X-7820Y169755D01*
X-7913Y169291D01*
X-7820Y168827D01*
X-7861Y168466D01*
X-8183Y168284D01*
X-8642Y168193D01*
X-9293Y167758D01*
X-9728Y167107D01*
X-9881Y166339D01*
X-9789Y165875D01*
X-9829Y165514D01*
X-10152Y165331D01*
X-10611Y165240D01*
X-11262Y164805D01*
X-11697Y164154D01*
X-11850Y163386D01*
X-11757Y162922D01*
X-11798Y162561D01*
X-12120Y162379D01*
X-12579Y162287D01*
X-13230Y161852D01*
X-13665Y161201D01*
X-13818Y160433D01*
X-13665Y159665D01*
X-13230Y159014D01*
X-12579Y158579D01*
X-11811Y158426D01*
X-11043Y158579D01*
X-10392Y159014D01*
X-10114Y159430D01*
X11395D01*
X13829Y156996D01*
X13616Y156502D01*
X13012Y156382D01*
X12360Y155947D01*
X11925Y155296D01*
X11772Y154528D01*
X11925Y153760D01*
X12360Y153108D01*
X12732Y152860D01*
Y152258D01*
X12360Y152010D01*
X12012Y151488D01*
X11849Y151424D01*
X11590Y151394D01*
X11426Y151411D01*
X8799Y154037D01*
X8897Y154528D01*
X8744Y155296D01*
X8309Y155947D01*
X7658Y156382D01*
X6890Y156535D01*
X6122Y156382D01*
X5471Y155947D01*
X5035Y155296D01*
X4883Y154528D01*
X5035Y153760D01*
X5471Y153108D01*
X5843Y152860D01*
Y152258D01*
X5471Y152010D01*
X5035Y151359D01*
X4883Y150591D01*
X5035Y149822D01*
X5471Y149171D01*
X5886Y148894D01*
Y148622D01*
X5963Y148238D01*
X6180Y147913D01*
X9823Y144269D01*
Y121394D01*
X9783Y121390D01*
Y120736D01*
X9823Y120732D01*
Y115573D01*
X2537Y108287D01*
X-1969D01*
X-2353Y108211D01*
X-2678Y107993D01*
X-4431Y106240D01*
X-4921Y106338D01*
X-5689Y106185D01*
X-6340Y105750D01*
X-6775Y105099D01*
X-6928Y104331D01*
X-6775Y103563D01*
X-6340Y102912D01*
X-5689Y102477D01*
X-4921Y102324D01*
X-4153Y102477D01*
X-3502Y102912D01*
X-3067Y103563D01*
X-2914Y104331D01*
X-3012Y104821D01*
X-1895Y105938D01*
X-1507Y105619D01*
X-1854Y105099D01*
X-2007Y104331D01*
X-1854Y103563D01*
X-1419Y102912D01*
X-1047Y102663D01*
Y102062D01*
X-1419Y101813D01*
X-1854Y101162D01*
X-2007Y100394D01*
X-1854Y99626D01*
X-1419Y98975D01*
X-768Y98540D01*
X0Y98387D01*
X768Y98540D01*
X1419Y98975D01*
X1854Y99626D01*
X2003Y100374D01*
X2953D01*
X3337Y100451D01*
X3662Y100668D01*
X8358Y105364D01*
X8366Y105363D01*
X8839Y105138D01*
Y103075D01*
X8423Y102797D01*
X7988Y102146D01*
X7835Y101378D01*
X7988Y100610D01*
X8423Y99959D01*
X9075Y99524D01*
X9843Y99371D01*
X10611Y99524D01*
X11262Y99959D01*
X11697Y100610D01*
X11850Y101378D01*
X11697Y102146D01*
X11262Y102797D01*
X10846Y103075D01*
Y104899D01*
X13858Y107911D01*
X14111Y107776D01*
X15748D01*
Y107283D01*
X16240D01*
Y105876D01*
X16324Y105893D01*
X16812Y106219D01*
X17139Y106708D01*
X17197Y107002D01*
X17697Y106952D01*
Y94904D01*
X17223Y94429D01*
X16732Y94527D01*
X15964Y94374D01*
X15313Y93939D01*
X14878Y93288D01*
X14725Y92520D01*
X14878Y91752D01*
X15313Y91101D01*
X15964Y90665D01*
X16732Y90513D01*
X17196Y90605D01*
X17557Y90565D01*
X17740Y90242D01*
X17831Y89783D01*
X18266Y89132D01*
X18917Y88697D01*
X19685Y88544D01*
X20453Y88697D01*
X21006Y88465D01*
X21219Y88148D01*
X21870Y87713D01*
X22638Y87560D01*
X23406Y87713D01*
X24057Y88148D01*
X24284Y88488D01*
X24823Y88697D01*
X25591Y88544D01*
X26359Y88697D01*
X26740Y88952D01*
Y88952D01*
X26791Y88986D01*
X26978Y88815D01*
X27137Y88615D01*
X27132Y88594D01*
X27130Y88589D01*
X19960Y81418D01*
X19742Y81093D01*
X19666Y80709D01*
Y74532D01*
X19250Y74254D01*
X18815Y73603D01*
X18662Y72835D01*
X18815Y72067D01*
X19250Y71416D01*
X19622Y71167D01*
Y70565D01*
X19250Y70317D01*
X18815Y69666D01*
X18724Y69207D01*
X18541Y68884D01*
X18180Y68844D01*
X17717Y68936D01*
X16949Y68783D01*
X16297Y68348D01*
X15862Y67697D01*
X15710Y66929D01*
X15862Y66161D01*
X16297Y65510D01*
X16949Y65075D01*
X17717Y64922D01*
X18207Y65020D01*
X18750Y64476D01*
X18537Y63982D01*
X17933Y63862D01*
X17282Y63427D01*
X17033Y63055D01*
X16432D01*
X16183Y63427D01*
X15532Y63862D01*
X14764Y64015D01*
X13996Y63862D01*
X13345Y63427D01*
X12910Y62776D01*
X12757Y62008D01*
X12910Y61240D01*
X13345Y60589D01*
X13996Y60154D01*
X14764Y60001D01*
X15254Y60098D01*
X17697Y57655D01*
Y56102D01*
X17774Y55718D01*
X17991Y55393D01*
X19666Y53718D01*
Y48228D01*
X19742Y47844D01*
X19960Y47519D01*
X26849Y40629D01*
X27175Y40411D01*
X27559Y40335D01*
X32065D01*
X33523Y38876D01*
X33426Y38386D01*
X33579Y37618D01*
X33926Y37098D01*
X33538Y36779D01*
X32206Y38111D01*
X31880Y38329D01*
X31496Y38405D01*
X29256D01*
X28978Y38821D01*
X28327Y39256D01*
X27559Y39409D01*
X26791Y39256D01*
X26140Y38821D01*
X25705Y38170D01*
X25552Y37402D01*
X25705Y36634D01*
X26140Y35982D01*
X26185Y35952D01*
X26033Y35452D01*
X18735D01*
X18587Y36201D01*
X18151Y36852D01*
X17500Y37287D01*
X16732Y37440D01*
X15964Y37287D01*
X15313Y36852D01*
X14878Y36201D01*
X14755Y35582D01*
X14384Y35359D01*
X14236Y35327D01*
X14164Y35376D01*
X13780Y35452D01*
X9877D01*
X9728Y36201D01*
X9293Y36852D01*
X8642Y37287D01*
X7874Y37440D01*
X7106Y37287D01*
X6455Y36852D01*
X6020Y36201D01*
X5867Y35433D01*
X6020Y34665D01*
X6367Y34145D01*
X5979Y33826D01*
X4862Y34943D01*
X4960Y35433D01*
X4807Y36201D01*
X4372Y36852D01*
X3721Y37287D01*
X2953Y37440D01*
X2185Y37287D01*
X1534Y36852D01*
X1099Y36201D01*
X946Y35433D01*
X1099Y34665D01*
X1534Y34014D01*
X1578Y33984D01*
X1427Y33484D01*
X-569D01*
X-965Y33880D01*
Y55083D01*
X-216Y55232D01*
X435Y55667D01*
X870Y56319D01*
X1023Y57087D01*
X870Y57855D01*
X435Y58506D01*
X-216Y58941D01*
X-984Y59094D01*
X-1752Y58941D01*
X-2403Y58506D01*
X-2434Y58461D01*
X-2933Y58613D01*
Y63942D01*
X-2185Y64091D01*
X-1534Y64526D01*
X-1099Y65177D01*
X-946Y65945D01*
X-1099Y66713D01*
X-1309Y67027D01*
X-1505Y67421D01*
X-1309Y67815D01*
X-1099Y68130D01*
X-946Y68898D01*
X-1099Y69666D01*
X-1534Y70317D01*
X-1851Y70529D01*
X-2083Y71082D01*
X-1930Y71851D01*
X-2083Y72619D01*
X-1851Y73172D01*
X-1534Y73384D01*
X-1099Y74035D01*
X-946Y74803D01*
X-1099Y75571D01*
X-1309Y75886D01*
X-1505Y76280D01*
X-1309Y76673D01*
X-1099Y76988D01*
X-946Y77756D01*
X-1099Y78524D01*
X-1534Y79175D01*
X-2185Y79610D01*
X-2953Y79763D01*
X-3721Y79610D01*
X-4372Y79175D01*
X-4650Y78759D01*
X-9843D01*
X-10227Y78683D01*
X-10335Y78611D01*
X-10552Y78466D01*
X-12276Y76742D01*
X-12776Y76949D01*
Y79309D01*
X-11395Y80689D01*
X4506D01*
X8917Y76278D01*
X8820Y75788D01*
X8973Y75019D01*
X9408Y74368D01*
X10059Y73933D01*
X10827Y73780D01*
X11595Y73933D01*
X12246Y74368D01*
X12681Y75019D01*
X12772Y75478D01*
X12955Y75801D01*
X13316Y75841D01*
X13780Y75749D01*
X14548Y75902D01*
X15199Y76337D01*
X15634Y76988D01*
X15787Y77756D01*
X15634Y78524D01*
X15199Y79175D01*
X14783Y79453D01*
Y84646D01*
X14707Y85030D01*
X14635Y85138D01*
X14489Y85355D01*
X11536Y88308D01*
X11211Y88526D01*
X10827Y88602D01*
X-12380D01*
X-12776Y88998D01*
Y96457D01*
X-12840Y96777D01*
X-12852Y96841D01*
X-13070Y97166D01*
X-18681Y102778D01*
Y107283D01*
X-18745Y107604D01*
X-18758Y107668D01*
X-18975Y107993D01*
X-23897Y112914D01*
X-24222Y113132D01*
X-24606Y113208D01*
X-27831D01*
X-28108Y113624D01*
X-28760Y114059D01*
X-29528Y114212D01*
X-30296Y114059D01*
X-30947Y113624D01*
X-31382Y112973D01*
X-31535Y112205D01*
X-31382Y111437D01*
X-30947Y110786D01*
X-30296Y110351D01*
X-29837Y110259D01*
X-29514Y110077D01*
X-29474Y109716D01*
X-29566Y109252D01*
X-29413Y108484D01*
X-28978Y107833D01*
X-28327Y107398D01*
X-27868Y107307D01*
X-27546Y107124D01*
X-27505Y106763D01*
X-27598Y106299D01*
X-27505Y105835D01*
X-27546Y105474D01*
X-27868Y105292D01*
X-28327Y105201D01*
X-28978Y104766D01*
X-29413Y104115D01*
X-29566Y103347D01*
X-29474Y102883D01*
X-29514Y102522D01*
X-29837Y102339D01*
X-30296Y102248D01*
X-30947Y101813D01*
X-31382Y101162D01*
X-31535Y100394D01*
X-31382Y99626D01*
X-30947Y98975D01*
X-30296Y98540D01*
X-29528Y98387D01*
X-29037Y98484D01*
X-24626Y94073D01*
Y84680D01*
X-25374Y84531D01*
X-26026Y84096D01*
X-26461Y83445D01*
X-26613Y82677D01*
X-26461Y81909D01*
X-26026Y81258D01*
X-25374Y80823D01*
X-24606Y80670D01*
X-23838Y80823D01*
X-23187Y81258D01*
X-23157Y81303D01*
X-22657Y81151D01*
Y64392D01*
X-25100Y61949D01*
X-25591Y62046D01*
X-26359Y61894D01*
X-27010Y61459D01*
X-27445Y60808D01*
X-27598Y60039D01*
X-27445Y59271D01*
X-27010Y58620D01*
X-26359Y58185D01*
X-25591Y58032D01*
X-24823Y58185D01*
X-24171Y58620D01*
X-23923Y58992D01*
X-23321D01*
X-23073Y58620D01*
X-22422Y58185D01*
X-21654Y58032D01*
X-20886Y58185D01*
X-20234Y58620D01*
X-19799Y59271D01*
X-19647Y60039D01*
X-19744Y60530D01*
X-19220Y61054D01*
X-18720Y60847D01*
Y27975D01*
X-21085Y25610D01*
X-25591D01*
X-25911Y25546D01*
X-25975Y25534D01*
X-26300Y25316D01*
X-27059Y24557D01*
X-27553Y24770D01*
X-27673Y25374D01*
X-28108Y26026D01*
X-28760Y26461D01*
X-29528Y26613D01*
X-30296Y26461D01*
X-30947Y26026D01*
X-31225Y25610D01*
X-36417D01*
X-36738Y25546D01*
X-36801Y25534D01*
X-37127Y25316D01*
X-41064Y21379D01*
X-41282Y21053D01*
X-41358Y20669D01*
Y19390D01*
X-41858Y19290D01*
X-41991Y19611D01*
X-42543Y20331D01*
X-43263Y20883D01*
X-44101Y21230D01*
X-45000Y21349D01*
X-45899Y21230D01*
X-46737Y20883D01*
X-47457Y20331D01*
X-48009Y19611D01*
X-48356Y18773D01*
X-48475Y17874D01*
X-48356Y16975D01*
X-48009Y16137D01*
X-47457Y15417D01*
X-46737Y14865D01*
X-45899Y14518D01*
X-45000Y14400D01*
X-44101Y14518D01*
X-43263Y14865D01*
X-42543Y15417D01*
X-41991Y16137D01*
X-41858Y16458D01*
X-41358Y16359D01*
Y13228D01*
X-41282Y12844D01*
X-41064Y12519D01*
X-38052Y9507D01*
X-38356Y8773D01*
X-38475Y7874D01*
X-38356Y6975D01*
X-38009Y6137D01*
X-37457Y5417D01*
X-36737Y4865D01*
X-35899Y4518D01*
X-35432Y4456D01*
X-35465Y3956D01*
X-44535D01*
X-44568Y4456D01*
X-44101Y4518D01*
X-43263Y4865D01*
X-42543Y5417D01*
X-41991Y6137D01*
X-41644Y6975D01*
X-41525Y7874D01*
X-41644Y8773D01*
X-41991Y9611D01*
X-42543Y10331D01*
X-43263Y10883D01*
X-44101Y11230D01*
X-45000Y11349D01*
X-45899Y11230D01*
X-46737Y10883D01*
X-47457Y10331D01*
X-48009Y9611D01*
X-48356Y8773D01*
X-48475Y7874D01*
X-48356Y6975D01*
X-48009Y6137D01*
X-47457Y5417D01*
X-46737Y4865D01*
X-45899Y4518D01*
X-45432Y4456D01*
X-45465Y3956D01*
X-49663D01*
X-51948Y6241D01*
X-51644Y6975D01*
X-51525Y7874D01*
X-51644Y8773D01*
X-51991Y9611D01*
X-52543Y10331D01*
X-53263Y10883D01*
X-54101Y11230D01*
X-55000Y11349D01*
X-55899Y11230D01*
X-56737Y10883D01*
X-57457Y10331D01*
X-58009Y9611D01*
X-58356Y8773D01*
X-58475Y7874D01*
X-58356Y6975D01*
X-58009Y6137D01*
X-57457Y5417D01*
X-56737Y4865D01*
X-55899Y4518D01*
X-55000Y4400D01*
X-54101Y4518D01*
X-53367Y4822D01*
X-50788Y2243D01*
X-50463Y2026D01*
X-50399Y2013D01*
X-50079Y1949D01*
X58342D01*
X58620Y1534D01*
X59271Y1099D01*
X60039Y946D01*
X60807Y1099D01*
X61459Y1534D01*
X61894Y2185D01*
X62046Y2953D01*
X61894Y3721D01*
X61459Y4372D01*
X60807Y4807D01*
X60039Y4960D01*
X59271Y4807D01*
X58620Y4372D01*
X58342Y3956D01*
X55465D01*
X55432Y4456D01*
X55899Y4518D01*
X56737Y4865D01*
X57457Y5417D01*
X58009Y6137D01*
X58356Y6975D01*
X58475Y7874D01*
X58356Y8773D01*
X58009Y9611D01*
X57457Y10331D01*
X56737Y10883D01*
X55899Y11230D01*
X55432Y11292D01*
X55465Y11792D01*
X58071D01*
X58455Y11868D01*
X58780Y12086D01*
X60749Y14054D01*
X60966Y14380D01*
X61043Y14764D01*
Y17539D01*
X61062Y17563D01*
X61337Y17545D01*
X61583Y17434D01*
X61644Y16975D01*
X61991Y16137D01*
X62543Y15417D01*
X63263Y14865D01*
X64101Y14518D01*
X65000Y14400D01*
X65899Y14518D01*
X66737Y14865D01*
X67457Y15417D01*
X68009Y16137D01*
X68356Y16975D01*
X68378Y17143D01*
X68878Y17110D01*
Y13211D01*
X66605Y10938D01*
X65899Y11230D01*
X65000Y11349D01*
X64101Y11230D01*
X63263Y10883D01*
X62543Y10331D01*
X61991Y9611D01*
X61644Y8773D01*
X61525Y7874D01*
X61644Y6975D01*
X61991Y6137D01*
X62543Y5417D01*
X63263Y4865D01*
X64101Y4518D01*
X65000Y4400D01*
X65899Y4518D01*
X66737Y4865D01*
X67457Y5417D01*
X68009Y6137D01*
X68356Y6975D01*
X68475Y7874D01*
X68356Y8773D01*
X68041Y9535D01*
X70591Y12086D01*
X70809Y12411D01*
X70885Y12795D01*
Y20669D01*
X70809Y21053D01*
X70745Y21148D01*
X70782Y21296D01*
X71022Y21634D01*
X73770D01*
X73869Y21134D01*
X73263Y20883D01*
X72543Y20331D01*
X71991Y19611D01*
X71644Y18773D01*
X71525Y17874D01*
X71644Y16975D01*
X71991Y16137D01*
X72543Y15417D01*
X73263Y14865D01*
X74101Y14518D01*
X75000Y14400D01*
X75899Y14518D01*
X76737Y14865D01*
X77457Y15417D01*
X78009Y16137D01*
X78221Y16648D01*
X78721Y16549D01*
Y12795D01*
X78797Y12411D01*
X79015Y12086D01*
X81844Y9257D01*
X81644Y8773D01*
X81525Y7874D01*
X81644Y6975D01*
X81991Y6137D01*
X82543Y5417D01*
X83263Y4865D01*
X84101Y4518D01*
X85000Y4400D01*
X85899Y4518D01*
X86737Y4865D01*
X87457Y5417D01*
X88009Y6137D01*
X88356Y6975D01*
X88475Y7874D01*
X88356Y8773D01*
X88009Y9611D01*
X87457Y10331D01*
X86737Y10883D01*
X85899Y11230D01*
X85000Y11349D01*
X84101Y11230D01*
X83263Y10883D01*
X83146Y10793D01*
X80728Y13211D01*
Y20669D01*
X80651Y21053D01*
X80434Y21379D01*
X78465Y23347D01*
X78140Y23565D01*
X77756Y23641D01*
X77313D01*
X77162Y24141D01*
X77207Y24171D01*
X77455Y24543D01*
X78057D01*
X78305Y24171D01*
X78956Y23736D01*
X79724Y23584D01*
X80493Y23736D01*
X81144Y24171D01*
X81579Y24823D01*
X81731Y25591D01*
X81579Y26359D01*
X81144Y27010D01*
X80728Y27288D01*
Y33465D01*
X80651Y33849D01*
X80579Y33957D01*
X80434Y34174D01*
X78759Y35849D01*
Y49781D01*
X88308Y59330D01*
X88526Y59655D01*
X88602Y60039D01*
Y132705D01*
X88538Y133026D01*
X88526Y133089D01*
X88308Y133415D01*
X84665Y137058D01*
Y153543D01*
X84589Y153927D01*
X84516Y154035D01*
X84371Y154253D01*
X82696Y155928D01*
Y191929D01*
X82620Y192313D01*
X82548Y192421D01*
X82402Y192639D01*
X80434Y194607D01*
X80108Y194825D01*
X79724Y194901D01*
D02*
G37*
G36*
X50689Y186447D02*
Y185531D01*
X51604D01*
X51588Y185616D01*
X51261Y186104D01*
X50773Y186430D01*
X50689Y186447D01*
D02*
G37*
G36*
X11319Y182510D02*
Y181595D01*
X12234D01*
X12218Y181678D01*
X11891Y182167D01*
X11403Y182493D01*
X11319Y182510D01*
D02*
G37*
G36*
X-28051Y73258D02*
X-28135Y73241D01*
X-28624Y72915D01*
X-28950Y72426D01*
X-28967Y72343D01*
X-28051D01*
Y73258D01*
D02*
G37*
G36*
X12234Y180610D02*
X11319D01*
Y179695D01*
X11403Y179712D01*
X11891Y180038D01*
X12218Y180526D01*
X12234Y180610D01*
D02*
G37*
G36*
X10335D02*
X9419D01*
X9436Y180526D01*
X9762Y180038D01*
X10251Y179712D01*
X10335Y179695D01*
Y180610D01*
D02*
G37*
G36*
Y182510D02*
X10251Y182493D01*
X9762Y182167D01*
X9436Y181678D01*
X9419Y181595D01*
X10335D01*
Y182510D01*
D02*
G37*
G36*
X-28051Y71358D02*
X-28967D01*
X-28950Y71274D01*
X-28624Y70786D01*
X-28135Y70460D01*
X-28051Y70443D01*
Y71358D01*
D02*
G37*
G36*
X-26152D02*
X-27067D01*
Y70443D01*
X-26983Y70460D01*
X-26495Y70786D01*
X-26168Y71274D01*
X-26152Y71358D01*
D02*
G37*
G36*
X33957Y195305D02*
X33873Y195288D01*
X33384Y194962D01*
X33058Y194474D01*
X33041Y194390D01*
X33957D01*
Y195305D01*
D02*
G37*
G36*
X-22146D02*
Y194390D01*
X-21230D01*
X-21247Y194474D01*
X-21573Y194962D01*
X-22062Y195288D01*
X-22146Y195305D01*
D02*
G37*
G36*
X-23130D02*
X-23214Y195288D01*
X-23702Y194962D01*
X-24028Y194474D01*
X-24045Y194390D01*
X-23130D01*
Y195305D01*
D02*
G37*
G36*
X52658D02*
Y194390D01*
X53573D01*
X53556Y194474D01*
X53230Y194962D01*
X52741Y195288D01*
X52658Y195305D01*
D02*
G37*
G36*
X51673D02*
X51589Y195288D01*
X51101Y194962D01*
X50775Y194474D01*
X50758Y194390D01*
X51673D01*
Y195305D01*
D02*
G37*
G36*
X34941D02*
Y194390D01*
X35856D01*
X35840Y194474D01*
X35513Y194962D01*
X35025Y195288D01*
X34941Y195305D01*
D02*
G37*
G36*
X-87598Y207223D02*
X-88754Y207071D01*
X-89832Y206625D01*
X-90757Y205915D01*
X-91467Y204989D01*
X-91913Y203912D01*
X-92066Y202756D01*
Y198819D01*
X-91913Y197662D01*
X-91467Y196585D01*
X-90757Y195660D01*
X-89832Y194950D01*
X-88754Y194504D01*
X-87598Y194351D01*
X-86442Y194504D01*
X-85364Y194950D01*
X-84439Y195660D01*
X-83729Y196585D01*
X-83283Y197662D01*
X-83131Y198819D01*
Y202756D01*
X-83283Y203912D01*
X-83729Y204989D01*
X-84439Y205915D01*
X-85364Y206625D01*
X-86442Y207071D01*
X-87598Y207223D01*
D02*
G37*
G36*
X35856Y193406D02*
X34941D01*
Y192490D01*
X35025Y192507D01*
X35513Y192833D01*
X35840Y193322D01*
X35856Y193406D01*
D02*
G37*
G36*
X33957D02*
X33041D01*
X33058Y193322D01*
X33384Y192833D01*
X33873Y192507D01*
X33957Y192490D01*
Y193406D01*
D02*
G37*
G36*
X-21230D02*
X-22146D01*
Y192490D01*
X-22062Y192507D01*
X-21573Y192833D01*
X-21247Y193322D01*
X-21230Y193406D01*
D02*
G37*
G36*
X-97441Y207223D02*
X-98597Y207071D01*
X-99674Y206625D01*
X-100600Y205915D01*
X-101310Y204989D01*
X-101756Y203912D01*
X-101908Y202756D01*
Y198819D01*
X-101756Y197662D01*
X-101310Y196585D01*
X-100600Y195660D01*
X-99674Y194950D01*
X-98597Y194504D01*
X-97441Y194351D01*
X-96284Y194504D01*
X-95207Y194950D01*
X-94282Y195660D01*
X-93572Y196585D01*
X-93125Y197662D01*
X-92973Y198819D01*
Y202756D01*
X-93125Y203912D01*
X-93572Y204989D01*
X-94282Y205915D01*
X-95207Y206625D01*
X-96284Y207071D01*
X-97441Y207223D01*
D02*
G37*
G36*
X53573Y193406D02*
X52658D01*
Y192490D01*
X52741Y192507D01*
X53230Y192833D01*
X53556Y193322D01*
X53573Y193406D01*
D02*
G37*
G36*
X51673D02*
X50758D01*
X50775Y193322D01*
X51101Y192833D01*
X51589Y192507D01*
X51673Y192490D01*
Y193406D01*
D02*
G37*
G36*
X14203Y218012D02*
X13287D01*
Y217097D01*
X13371Y217113D01*
X13860Y217440D01*
X14186Y217928D01*
X14203Y218012D01*
D02*
G37*
G36*
X12303D02*
X11388D01*
X11405Y217928D01*
X11731Y217440D01*
X12219Y217113D01*
X12303Y217097D01*
Y218012D01*
D02*
G37*
G36*
X-32972Y33957D02*
X-33888D01*
X-33871Y33873D01*
X-33545Y33384D01*
X-33056Y33058D01*
X-32972Y33041D01*
Y33957D01*
D02*
G37*
G36*
X94390Y218406D02*
X93475D01*
X93491Y218322D01*
X93818Y217833D01*
X94306Y217507D01*
X94390Y217490D01*
Y218406D01*
D02*
G37*
G36*
X1801D02*
X886D01*
Y217490D01*
X970Y217507D01*
X1458Y217833D01*
X1784Y218322D01*
X1801Y218406D01*
D02*
G37*
G36*
X-98D02*
X-1014D01*
X-997Y218322D01*
X-671Y217833D01*
X-182Y217507D01*
X-98Y217490D01*
Y218406D01*
D02*
G37*
G36*
X-31073Y33957D02*
X-31988D01*
Y33041D01*
X-31904Y33058D01*
X-31416Y33384D01*
X-31090Y33873D01*
X-31073Y33957D01*
D02*
G37*
G36*
X50689Y217028D02*
X49774D01*
X49790Y216944D01*
X50117Y216455D01*
X50605Y216129D01*
X50689Y216112D01*
Y217028D01*
D02*
G37*
G36*
X74311Y216959D02*
Y216043D01*
X75226D01*
X75210Y216127D01*
X74883Y216616D01*
X74395Y216942D01*
X74311Y216959D01*
D02*
G37*
G36*
X73327D02*
X73243Y216942D01*
X72755Y216616D01*
X72428Y216127D01*
X72412Y216043D01*
X73327D01*
Y216959D01*
D02*
G37*
G36*
X-32972Y35856D02*
X-33056Y35840D01*
X-33545Y35513D01*
X-33871Y35025D01*
X-33888Y34941D01*
X-32972D01*
Y35856D01*
D02*
G37*
G36*
X-31988D02*
Y34941D01*
X-31073D01*
X-31090Y35025D01*
X-31416Y35513D01*
X-31904Y35840D01*
X-31988Y35856D01*
D02*
G37*
G36*
X52588Y217028D02*
X51673D01*
Y216112D01*
X51757Y216129D01*
X52245Y216455D01*
X52572Y216944D01*
X52588Y217028D01*
D02*
G37*
G36*
X12303Y219911D02*
X12219Y219895D01*
X11731Y219568D01*
X11405Y219080D01*
X11388Y218996D01*
X12303D01*
Y219911D01*
D02*
G37*
G36*
X37283Y219833D02*
X36073D01*
Y218622D01*
X36403Y218688D01*
X36891Y219014D01*
X37218Y219503D01*
X37283Y219833D01*
D02*
G37*
G36*
X35581D02*
X34370D01*
X34436Y219503D01*
X34762Y219014D01*
X35251Y218688D01*
X35581Y218622D01*
Y219833D01*
D02*
G37*
G36*
X886Y220305D02*
Y219390D01*
X1801D01*
X1784Y219474D01*
X1458Y219962D01*
X970Y220288D01*
X886Y220305D01*
D02*
G37*
G36*
X-98D02*
X-182Y220288D01*
X-671Y219962D01*
X-997Y219474D01*
X-1014Y219390D01*
X-98D01*
Y220305D01*
D02*
G37*
G36*
X13287Y219911D02*
Y218996D01*
X14203D01*
X14186Y219080D01*
X13860Y219568D01*
X13371Y219895D01*
X13287Y219911D01*
D02*
G37*
G36*
X32952Y219833D02*
X31742D01*
Y218622D01*
X32072Y218688D01*
X32561Y219014D01*
X32887Y219503D01*
X32952Y219833D01*
D02*
G37*
G36*
X51673Y218927D02*
Y218012D01*
X52588D01*
X52572Y218096D01*
X52245Y218584D01*
X51757Y218911D01*
X51673Y218927D01*
D02*
G37*
G36*
X50689D02*
X50605Y218911D01*
X50117Y218584D01*
X49790Y218096D01*
X49774Y218012D01*
X50689D01*
Y218927D01*
D02*
G37*
G36*
X96289Y218406D02*
X95374D01*
Y217490D01*
X95458Y217507D01*
X95946Y217833D01*
X96273Y218322D01*
X96289Y218406D01*
D02*
G37*
G36*
X31250Y219833D02*
X30040D01*
X30105Y219503D01*
X30432Y219014D01*
X30920Y218688D01*
X31250Y218622D01*
Y219833D01*
D02*
G37*
G36*
X28622D02*
X27411D01*
Y218622D01*
X27741Y218688D01*
X28230Y219014D01*
X28556Y219503D01*
X28622Y219833D01*
D02*
G37*
G36*
X26919D02*
X25709D01*
X25775Y219503D01*
X26101Y219014D01*
X26589Y218688D01*
X26919Y218622D01*
Y219833D01*
D02*
G37*
G36*
X4429Y42815D02*
X3514D01*
X3531Y42731D01*
X3857Y42243D01*
X4345Y41916D01*
X4429Y41900D01*
Y42815D01*
D02*
G37*
G36*
X101279Y208494D02*
Y207579D01*
X102195D01*
X102178Y207663D01*
X101852Y208151D01*
X101363Y208477D01*
X101279Y208494D01*
D02*
G37*
G36*
X100295D02*
X100211Y208477D01*
X99723Y208151D01*
X99397Y207663D01*
X99380Y207579D01*
X100295D01*
Y208494D01*
D02*
G37*
G36*
X89468D02*
Y207579D01*
X90384D01*
X90367Y207663D01*
X90041Y208151D01*
X89552Y208477D01*
X89468Y208494D01*
D02*
G37*
G36*
X-52165Y64015D02*
X-52933Y63862D01*
X-53585Y63427D01*
X-54020Y62776D01*
X-54172Y62008D01*
X-54020Y61240D01*
X-53585Y60589D01*
X-53169Y60311D01*
Y48644D01*
X-58565Y43248D01*
X-59055Y43346D01*
X-59823Y43193D01*
X-60474Y42758D01*
X-60909Y42107D01*
X-61062Y41339D01*
X-60909Y40571D01*
X-60474Y39919D01*
X-59823Y39484D01*
X-59055Y39332D01*
X-58287Y39484D01*
X-57636Y39919D01*
X-57201Y40571D01*
X-57048Y41339D01*
X-57146Y41829D01*
X-51456Y47519D01*
X-51456Y47519D01*
X-51238Y47844D01*
X-51162Y48228D01*
Y60311D01*
X-50746Y60589D01*
X-50311Y61240D01*
X-50158Y62008D01*
X-50311Y62776D01*
X-50746Y63427D01*
X-51397Y63862D01*
X-52165Y64015D01*
D02*
G37*
G36*
X4429Y44715D02*
X4345Y44698D01*
X3857Y44372D01*
X3531Y43883D01*
X3514Y43799D01*
X4429D01*
Y44715D01*
D02*
G37*
G36*
X5413D02*
Y43799D01*
X6329D01*
X6312Y43883D01*
X5986Y44372D01*
X5497Y44698D01*
X5413Y44715D01*
D02*
G37*
G36*
X88484Y208494D02*
X88400Y208477D01*
X87912Y208151D01*
X87586Y207663D01*
X87569Y207579D01*
X88484D01*
Y208494D01*
D02*
G37*
G36*
X17618D02*
X17534Y208477D01*
X17046Y208151D01*
X16720Y207663D01*
X16703Y207579D01*
X17618D01*
Y208494D01*
D02*
G37*
G36*
X6791D02*
Y207579D01*
X7707D01*
X7690Y207663D01*
X7364Y208151D01*
X6875Y208477D01*
X6791Y208494D01*
D02*
G37*
G36*
X5807D02*
X5723Y208477D01*
X5235Y208151D01*
X4908Y207663D01*
X4892Y207579D01*
X5807D01*
Y208494D01*
D02*
G37*
G36*
X77658D02*
Y207579D01*
X78573D01*
X78556Y207663D01*
X78230Y208151D01*
X77741Y208477D01*
X77658Y208494D01*
D02*
G37*
G36*
X76673D02*
X76589Y208477D01*
X76101Y208151D01*
X75775Y207663D01*
X75758Y207579D01*
X76673D01*
Y208494D01*
D02*
G37*
G36*
X18602D02*
Y207579D01*
X19518D01*
X19501Y207663D01*
X19175Y208151D01*
X18686Y208477D01*
X18602Y208494D01*
D02*
G37*
G36*
X73327Y215059D02*
X72412D01*
X72428Y214975D01*
X72755Y214487D01*
X73243Y214160D01*
X73327Y214144D01*
Y215059D01*
D02*
G37*
G36*
X68405Y214006D02*
Y213091D01*
X69321D01*
X69304Y213175D01*
X68978Y213663D01*
X68489Y213989D01*
X68405Y214006D01*
D02*
G37*
G36*
X67421D02*
X67337Y213989D01*
X66849Y213663D01*
X66523Y213175D01*
X66506Y213091D01*
X67421D01*
Y214006D01*
D02*
G37*
G36*
X6329Y42815D02*
X5413D01*
Y41900D01*
X5497Y41916D01*
X5986Y42243D01*
X6312Y42731D01*
X6329Y42815D01*
D02*
G37*
G36*
X20177D02*
X19262D01*
X19279Y42731D01*
X19605Y42243D01*
X20093Y41916D01*
X20177Y41900D01*
Y42815D01*
D02*
G37*
G36*
X75226Y215059D02*
X74311D01*
Y214144D01*
X74395Y214160D01*
X74883Y214487D01*
X75210Y214975D01*
X75226Y215059D01*
D02*
G37*
G36*
X69321Y212106D02*
X68405D01*
Y211191D01*
X68489Y211208D01*
X68978Y211534D01*
X69304Y212022D01*
X69321Y212106D01*
D02*
G37*
G36*
X66437Y210069D02*
Y209154D01*
X67352D01*
X67336Y209238D01*
X67009Y209726D01*
X66521Y210052D01*
X66437Y210069D01*
D02*
G37*
G36*
X65453D02*
X65369Y210052D01*
X64881Y209726D01*
X64554Y209238D01*
X64538Y209154D01*
X65453D01*
Y210069D01*
D02*
G37*
G36*
X22077Y42815D02*
X21161D01*
Y41900D01*
X21245Y41916D01*
X21734Y42243D01*
X22060Y42731D01*
X22077Y42815D01*
D02*
G37*
G36*
X67421Y212106D02*
X66506D01*
X66523Y212022D01*
X66849Y211534D01*
X67337Y211208D01*
X67421Y211191D01*
Y212106D01*
D02*
G37*
G36*
X-87598Y222971D02*
X-88754Y222819D01*
X-89832Y222373D01*
X-90757Y221663D01*
X-91467Y220738D01*
X-91913Y219660D01*
X-92066Y218504D01*
Y214567D01*
X-91913Y213411D01*
X-91467Y212333D01*
X-90757Y211408D01*
X-89832Y210698D01*
X-88754Y210252D01*
X-87598Y210099D01*
X-86442Y210252D01*
X-85364Y210698D01*
X-84439Y211408D01*
X-83729Y212333D01*
X-83283Y213411D01*
X-83131Y214567D01*
Y218504D01*
X-83283Y219660D01*
X-83729Y220738D01*
X-84439Y221663D01*
X-85364Y222373D01*
X-86442Y222819D01*
X-87598Y222971D01*
D02*
G37*
G36*
X-97441D02*
X-98597Y222819D01*
X-99674Y222373D01*
X-100600Y221663D01*
X-101310Y220738D01*
X-101756Y219660D01*
X-101908Y218504D01*
Y214567D01*
X-101756Y213411D01*
X-101310Y212333D01*
X-100600Y211408D01*
X-99674Y210698D01*
X-98597Y210252D01*
X-97441Y210099D01*
X-96284Y210252D01*
X-95207Y210698D01*
X-94282Y211408D01*
X-93572Y212333D01*
X-93125Y213411D01*
X-92973Y214567D01*
Y218504D01*
X-93125Y219660D01*
X-93572Y220738D01*
X-94282Y221663D01*
X-95207Y222373D01*
X-96284Y222819D01*
X-97441Y222971D01*
D02*
G37*
G36*
X59478Y108760D02*
X58563D01*
Y107845D01*
X58647Y107861D01*
X59135Y108188D01*
X59462Y108676D01*
X59478Y108760D01*
D02*
G37*
G36*
X57579D02*
X56664D01*
X56680Y108676D01*
X57007Y108188D01*
X57495Y107861D01*
X57579Y107845D01*
Y108760D01*
D02*
G37*
G36*
X15256Y106791D02*
X14341D01*
X14357Y106708D01*
X14684Y106219D01*
X15172Y105893D01*
X15256Y105876D01*
Y106791D01*
D02*
G37*
G36*
X-85138Y116634D02*
X-86053D01*
X-86036Y116550D01*
X-85710Y116062D01*
X-85222Y115735D01*
X-85138Y115719D01*
Y116634D01*
D02*
G37*
G36*
X58563Y110659D02*
Y109744D01*
X59478D01*
X59462Y109828D01*
X59135Y110316D01*
X58647Y110643D01*
X58563Y110659D01*
D02*
G37*
G36*
X57579D02*
X57495Y110643D01*
X57007Y110316D01*
X56680Y109828D01*
X56664Y109744D01*
X57579D01*
Y110659D01*
D02*
G37*
G36*
X-90551Y109774D02*
X-94488D01*
X-95388Y109655D01*
X-96226Y109308D01*
X-96945Y108756D01*
X-97497Y108037D01*
X-97844Y107199D01*
X-97963Y106299D01*
X-97844Y105400D01*
X-97497Y104562D01*
X-96945Y103842D01*
X-96226Y103290D01*
X-95388Y102943D01*
X-94488Y102825D01*
X-90551D01*
X-89652Y102943D01*
X-88814Y103290D01*
X-88094Y103842D01*
X-87542Y104562D01*
X-87195Y105400D01*
X-87077Y106299D01*
X-87195Y107199D01*
X-87542Y108037D01*
X-88094Y108756D01*
X-88814Y109308D01*
X-89652Y109655D01*
X-90551Y109774D01*
D02*
G37*
G36*
X-81693Y108306D02*
X-82461Y108153D01*
X-83112Y107719D01*
X-83547Y107067D01*
X-83700Y106299D01*
X-83547Y105531D01*
X-83112Y104880D01*
X-82696Y104602D01*
Y100809D01*
X-84077Y99429D01*
X-87238D01*
X-87542Y100162D01*
X-88094Y100882D01*
X-88814Y101434D01*
X-89652Y101781D01*
X-90551Y101900D01*
X-94488D01*
X-95388Y101781D01*
X-96226Y101434D01*
X-96945Y100882D01*
X-97497Y100162D01*
X-97844Y99325D01*
X-97963Y98425D01*
X-97844Y97526D01*
X-97497Y96688D01*
X-96945Y95968D01*
X-96226Y95416D01*
X-95388Y95069D01*
X-94488Y94951D01*
X-90551D01*
X-89652Y95069D01*
X-88814Y95416D01*
X-88094Y95968D01*
X-87542Y96688D01*
X-87238Y97422D01*
X-83661D01*
X-83277Y97498D01*
X-82952Y97716D01*
X-80983Y99684D01*
X-80766Y100010D01*
X-80689Y100394D01*
Y104602D01*
X-80274Y104880D01*
X-79839Y105531D01*
X-79686Y106299D01*
X-79839Y107067D01*
X-80274Y107719D01*
X-80925Y108153D01*
X-81693Y108306D01*
D02*
G37*
G36*
X-71427Y99902D02*
X-72342D01*
Y98986D01*
X-72259Y99003D01*
X-71770Y99329D01*
X-71444Y99818D01*
X-71427Y99902D01*
D02*
G37*
G36*
X-73327D02*
X-74242D01*
X-74225Y99818D01*
X-73899Y99329D01*
X-73411Y99003D01*
X-73327Y98986D01*
Y99902D01*
D02*
G37*
G36*
X-69390Y101801D02*
X-69474Y101785D01*
X-69962Y101458D01*
X-70288Y100970D01*
X-70305Y100886D01*
X-69390D01*
Y101801D01*
D02*
G37*
G36*
X-72342D02*
Y100886D01*
X-71427D01*
X-71444Y100970D01*
X-71770Y101458D01*
X-72259Y101785D01*
X-72342Y101801D01*
D02*
G37*
G36*
X-73327D02*
X-73411Y101785D01*
X-73899Y101458D01*
X-74225Y100970D01*
X-74242Y100886D01*
X-73327D01*
Y101801D01*
D02*
G37*
G36*
X7382Y122470D02*
X7298Y122454D01*
X6810Y122127D01*
X6483Y121639D01*
X6467Y121555D01*
X7382D01*
Y122470D01*
D02*
G37*
G36*
X9281Y120571D02*
X8366D01*
Y119656D01*
X8450Y119672D01*
X8938Y119999D01*
X9265Y120487D01*
X9281Y120571D01*
D02*
G37*
G36*
X7382D02*
X6467D01*
X6483Y120487D01*
X6810Y119999D01*
X7298Y119672D01*
X7382Y119656D01*
Y120571D01*
D02*
G37*
G36*
X-56595Y124508D02*
X-57510D01*
X-57493Y124424D01*
X-57167Y123936D01*
X-56678Y123609D01*
X-56595Y123593D01*
Y124508D01*
D02*
G37*
G36*
X65945Y131948D02*
X64789Y131796D01*
X63711Y131349D01*
X62786Y130639D01*
X62076Y129714D01*
X61630Y128637D01*
X61478Y127480D01*
X61630Y126324D01*
X62076Y125247D01*
X62786Y124321D01*
X63711Y123611D01*
X64789Y123165D01*
X65945Y123013D01*
X67101Y123165D01*
X68179Y123611D01*
X69104Y124321D01*
X69814Y125247D01*
X70260Y126324D01*
X70412Y127480D01*
X70260Y128637D01*
X69814Y129714D01*
X69104Y130639D01*
X68179Y131349D01*
X67101Y131796D01*
X65945Y131948D01*
D02*
G37*
G36*
X8366Y122470D02*
Y121555D01*
X9281D01*
X9265Y121639D01*
X8938Y122127D01*
X8450Y122454D01*
X8366Y122470D01*
D02*
G37*
G36*
X41831Y120502D02*
Y119587D01*
X42746D01*
X42729Y119671D01*
X42403Y120159D01*
X41915Y120485D01*
X41831Y120502D01*
D02*
G37*
G36*
X-84153Y118533D02*
Y117618D01*
X-83238D01*
X-83255Y117702D01*
X-83581Y118190D01*
X-84070Y118517D01*
X-84153Y118533D01*
D02*
G37*
G36*
X-85138D02*
X-85222Y118517D01*
X-85710Y118190D01*
X-86036Y117702D01*
X-86053Y117618D01*
X-85138D01*
Y118533D01*
D02*
G37*
G36*
X-83238Y116634D02*
X-84153D01*
Y115719D01*
X-84070Y115735D01*
X-83581Y116062D01*
X-83255Y116550D01*
X-83238Y116634D01*
D02*
G37*
G36*
X40846Y120502D02*
X40762Y120485D01*
X40274Y120159D01*
X39948Y119671D01*
X39931Y119587D01*
X40846D01*
Y120502D01*
D02*
G37*
G36*
X42746Y118602D02*
X41831D01*
Y117687D01*
X41915Y117704D01*
X42403Y118030D01*
X42729Y118518D01*
X42746Y118602D01*
D02*
G37*
G36*
X40846D02*
X39931D01*
X39948Y118518D01*
X40274Y118030D01*
X40762Y117704D01*
X40846Y117687D01*
Y118602D01*
D02*
G37*
G36*
X-90551Y94026D02*
X-92028D01*
Y91043D01*
X-87141D01*
X-87195Y91451D01*
X-87542Y92289D01*
X-88094Y93008D01*
X-88814Y93560D01*
X-89652Y93907D01*
X-90551Y94026D01*
D02*
G37*
G36*
X-93012D02*
X-94488D01*
X-95388Y93907D01*
X-96226Y93560D01*
X-96945Y93008D01*
X-97497Y92289D01*
X-97844Y91451D01*
X-97898Y91043D01*
X-93012D01*
Y94026D01*
D02*
G37*
G36*
X-87141Y90059D02*
X-92028D01*
Y87077D01*
X-90551D01*
X-89652Y87195D01*
X-88814Y87542D01*
X-88094Y88094D01*
X-87542Y88814D01*
X-87195Y89652D01*
X-87141Y90059D01*
D02*
G37*
G36*
X43799Y93927D02*
X43715Y93910D01*
X43227Y93584D01*
X42901Y93096D01*
X42884Y93012D01*
X43799D01*
Y93927D01*
D02*
G37*
G36*
X45699Y92028D02*
X44783D01*
Y91112D01*
X44867Y91129D01*
X45356Y91455D01*
X45682Y91944D01*
X45699Y92028D01*
D02*
G37*
G36*
X43799D02*
X42884D01*
X42901Y91944D01*
X43227Y91455D01*
X43715Y91129D01*
X43799Y91112D01*
Y92028D01*
D02*
G37*
G36*
X-93012Y90059D02*
X-97898D01*
X-97844Y89652D01*
X-97497Y88814D01*
X-96945Y88094D01*
X-96226Y87542D01*
X-95388Y87195D01*
X-94488Y87077D01*
X-93012D01*
Y90059D01*
D02*
G37*
G36*
X-73327Y84154D02*
X-74242D01*
X-74225Y84070D01*
X-73899Y83581D01*
X-73411Y83255D01*
X-73327Y83238D01*
Y84154D01*
D02*
G37*
G36*
X-30020Y84085D02*
Y83169D01*
X-29104D01*
X-29121Y83253D01*
X-29447Y83742D01*
X-29936Y84068D01*
X-30020Y84085D01*
D02*
G37*
G36*
X-31004D02*
X-31088Y84068D01*
X-31576Y83742D01*
X-31903Y83253D01*
X-31919Y83169D01*
X-31004D01*
Y84085D01*
D02*
G37*
G36*
X-72342Y86053D02*
Y85138D01*
X-71427D01*
X-71444Y85222D01*
X-71770Y85710D01*
X-72259Y86036D01*
X-72342Y86053D01*
D02*
G37*
G36*
X-73327D02*
X-73411Y86036D01*
X-73899Y85710D01*
X-74225Y85222D01*
X-74242Y85138D01*
X-73327D01*
Y86053D01*
D02*
G37*
G36*
X-71427Y84154D02*
X-72342D01*
Y83238D01*
X-72259Y83255D01*
X-71770Y83581D01*
X-71444Y84070D01*
X-71427Y84154D01*
D02*
G37*
G36*
X66437Y96880D02*
X66353Y96863D01*
X65865Y96537D01*
X65538Y96048D01*
X65522Y95965D01*
X66437D01*
Y96880D01*
D02*
G37*
G36*
X63484D02*
Y95965D01*
X64399D01*
X64383Y96048D01*
X64056Y96537D01*
X63568Y96863D01*
X63484Y96880D01*
D02*
G37*
G36*
X62500D02*
X62416Y96863D01*
X61928Y96537D01*
X61601Y96048D01*
X61585Y95965D01*
X62500D01*
Y96880D01*
D02*
G37*
G36*
X44783Y97864D02*
Y96949D01*
X45699D01*
X45682Y97033D01*
X45356Y97521D01*
X44867Y97847D01*
X44783Y97864D01*
D02*
G37*
G36*
X43799D02*
X43715Y97847D01*
X43227Y97521D01*
X42901Y97033D01*
X42884Y96949D01*
X43799D01*
Y97864D01*
D02*
G37*
G36*
X67421Y96880D02*
Y95965D01*
X68336D01*
X68320Y96048D01*
X67993Y96537D01*
X67505Y96863D01*
X67421Y96880D01*
D02*
G37*
G36*
X45699Y95965D02*
X44783D01*
Y95049D01*
X44867Y95066D01*
X45356Y95392D01*
X45682Y95881D01*
X45699Y95965D01*
D02*
G37*
G36*
X64399Y94980D02*
X63484D01*
Y94065D01*
X63568Y94082D01*
X64056Y94408D01*
X64383Y94896D01*
X64399Y94980D01*
D02*
G37*
G36*
X62500D02*
X61585D01*
X61601Y94896D01*
X61928Y94408D01*
X62416Y94082D01*
X62500Y94065D01*
Y94980D01*
D02*
G37*
G36*
X44783Y93927D02*
Y93012D01*
X45699D01*
X45682Y93096D01*
X45356Y93584D01*
X44867Y93910D01*
X44783Y93927D01*
D02*
G37*
G36*
X43799Y95965D02*
X42884D01*
X42901Y95881D01*
X43227Y95392D01*
X43715Y95066D01*
X43799Y95049D01*
Y95965D01*
D02*
G37*
G36*
X68336Y94980D02*
X67421D01*
Y94065D01*
X67505Y94082D01*
X67993Y94408D01*
X68320Y94896D01*
X68336Y94980D01*
D02*
G37*
G36*
X66437D02*
X65522D01*
X65538Y94896D01*
X65865Y94408D01*
X66353Y94082D01*
X66437Y94065D01*
Y94980D01*
D02*
G37*
G36*
X-54695Y124508D02*
X-55610D01*
Y123593D01*
X-55526Y123609D01*
X-55038Y123936D01*
X-54712Y124424D01*
X-54695Y124508D01*
D02*
G37*
G36*
X-29104Y82185D02*
X-30020D01*
Y81270D01*
X-29936Y81287D01*
X-29447Y81613D01*
X-29121Y82101D01*
X-29104Y82185D01*
D02*
G37*
G36*
X-88583Y158001D02*
X-89159Y157887D01*
X-89647Y157561D01*
X-89688Y157500D01*
X-99410D01*
X-99793Y157423D01*
X-100119Y157206D01*
X-103072Y154253D01*
X-103289Y153927D01*
X-103366Y153543D01*
Y149924D01*
X-103371Y149912D01*
X-103838Y149550D01*
X-103848Y149549D01*
X-104331Y149645D01*
X-105099Y149492D01*
X-105750Y149057D01*
X-106185Y148406D01*
X-106338Y147638D01*
X-106185Y146870D01*
X-105750Y146219D01*
X-105334Y145941D01*
Y113902D01*
X-105750Y113624D01*
X-106185Y112973D01*
X-106338Y112205D01*
X-106185Y111437D01*
X-105750Y110786D01*
X-105099Y110351D01*
X-104495Y110230D01*
X-104281Y109737D01*
X-105040Y108977D01*
X-105258Y108652D01*
X-105334Y108268D01*
Y77877D01*
X-105395Y77836D01*
X-105721Y77348D01*
X-105836Y76772D01*
X-105721Y76196D01*
X-105395Y75707D01*
X-104907Y75381D01*
X-104331Y75266D01*
X-103755Y75381D01*
X-103266Y75707D01*
X-102940Y76196D01*
X-102825Y76772D01*
X-102940Y77348D01*
X-103266Y77836D01*
X-103327Y77877D01*
Y107852D01*
X-100668Y110511D01*
X-100523Y110729D01*
X-100451Y110837D01*
X-100374Y111221D01*
Y113189D01*
X-100451Y113573D01*
X-100668Y113899D01*
X-101359Y114589D01*
Y135411D01*
X-99978Y136792D01*
X-93625D01*
X-93584Y136731D01*
X-93096Y136405D01*
X-92520Y136290D01*
X-91944Y136405D01*
X-91455Y136731D01*
X-91129Y137219D01*
X-91014Y137795D01*
X-91129Y138371D01*
X-91455Y138860D01*
X-91944Y139186D01*
X-92520Y139301D01*
X-93096Y139186D01*
X-93584Y138860D01*
X-93625Y138799D01*
X-100394D01*
X-100778Y138723D01*
X-100859Y138668D01*
X-100946Y138687D01*
X-101359Y138936D01*
Y145254D01*
X-100668Y145944D01*
X-100451Y146270D01*
X-100374Y146654D01*
Y148622D01*
X-100451Y149006D01*
X-100668Y149332D01*
X-101359Y150022D01*
Y153128D01*
X-98994Y155493D01*
X-89688D01*
X-89647Y155432D01*
X-89159Y155105D01*
X-88583Y154991D01*
X-88007Y155105D01*
X-87518Y155432D01*
X-87192Y155920D01*
X-87077Y156496D01*
X-87192Y157072D01*
X-87518Y157561D01*
X-88007Y157887D01*
X-88583Y158001D01*
D02*
G37*
G36*
X66437Y151883D02*
Y147973D01*
X70347D01*
X70260Y148637D01*
X69814Y149714D01*
X69104Y150639D01*
X68179Y151349D01*
X67101Y151795D01*
X66437Y151883D01*
D02*
G37*
G36*
X-27067Y73258D02*
Y72343D01*
X-26152D01*
X-26168Y72426D01*
X-26495Y72915D01*
X-26983Y73241D01*
X-27067Y73258D01*
D02*
G37*
G36*
X63484D02*
Y72343D01*
X64399D01*
X64383Y72426D01*
X64056Y72915D01*
X63568Y73241D01*
X63484Y73258D01*
D02*
G37*
G36*
X-31004Y82185D02*
X-31919D01*
X-31903Y82101D01*
X-31576Y81613D01*
X-31088Y81287D01*
X-31004Y81270D01*
Y82185D01*
D02*
G37*
G36*
X-66437Y147077D02*
Y146161D01*
X-65522D01*
X-65538Y146245D01*
X-65865Y146734D01*
X-66353Y147060D01*
X-66437Y147077D01*
D02*
G37*
G36*
X-34941Y145108D02*
Y144193D01*
X-34026D01*
X-34042Y144277D01*
X-34369Y144765D01*
X-34857Y145092D01*
X-34941Y145108D01*
D02*
G37*
G36*
X-35925D02*
X-36009Y145092D01*
X-36498Y144765D01*
X-36824Y144277D01*
X-36841Y144193D01*
X-35925D01*
Y145108D01*
D02*
G37*
G36*
X70347Y146988D02*
X66437D01*
Y143078D01*
X67101Y143165D01*
X68179Y143612D01*
X69104Y144322D01*
X69814Y145247D01*
X70260Y146324D01*
X70347Y146988D01*
D02*
G37*
G36*
X-67421Y147077D02*
X-67505Y147060D01*
X-67993Y146734D01*
X-68320Y146245D01*
X-68336Y146161D01*
X-67421D01*
Y147077D01*
D02*
G37*
G36*
X-65522Y145177D02*
X-66437D01*
Y144262D01*
X-66353Y144279D01*
X-65865Y144605D01*
X-65538Y145093D01*
X-65522Y145177D01*
D02*
G37*
G36*
X-67421D02*
X-68336D01*
X-68320Y145093D01*
X-67993Y144605D01*
X-67505Y144279D01*
X-67421Y144262D01*
Y145177D01*
D02*
G37*
G36*
X-98986Y178642D02*
X-99902D01*
Y177726D01*
X-99818Y177743D01*
X-99329Y178069D01*
X-99003Y178558D01*
X-98986Y178642D01*
D02*
G37*
G36*
X-100886D02*
X-101801D01*
X-101784Y178558D01*
X-101458Y178069D01*
X-100970Y177743D01*
X-100886Y177726D01*
Y178642D01*
D02*
G37*
G36*
X50689Y178573D02*
Y177657D01*
X51604D01*
X51588Y177742D01*
X51261Y178230D01*
X50773Y178556D01*
X50689Y178573D01*
D02*
G37*
G36*
X-99902Y180541D02*
Y179626D01*
X-98986D01*
X-99003Y179710D01*
X-99329Y180198D01*
X-99818Y180525D01*
X-99902Y180541D01*
D02*
G37*
G36*
X-100886D02*
X-100970Y180525D01*
X-101458Y180198D01*
X-101784Y179710D01*
X-101801Y179626D01*
X-100886D01*
Y180541D01*
D02*
G37*
G36*
X-92519Y191074D02*
X-93774Y190951D01*
X-94980Y190585D01*
X-96091Y189991D01*
X-97065Y189191D01*
X-97865Y188217D01*
X-98459Y187106D01*
X-98825Y185900D01*
X-98948Y184645D01*
X-98825Y183391D01*
X-98459Y182185D01*
X-97865Y181074D01*
X-97065Y180100D01*
X-96091Y179300D01*
X-94980Y178706D01*
X-93774Y178340D01*
X-92519Y178217D01*
X-91265Y178340D01*
X-90059Y178706D01*
X-88948Y179300D01*
X-87974Y180100D01*
X-87174Y181074D01*
X-86580Y182185D01*
X-86214Y183391D01*
X-86091Y184645D01*
X-86214Y185900D01*
X-86580Y187106D01*
X-87174Y188217D01*
X-87974Y189191D01*
X-88948Y189991D01*
X-90059Y190585D01*
X-91265Y190951D01*
X-92519Y191074D01*
D02*
G37*
G36*
X49705Y178573D02*
X49621Y178556D01*
X49132Y178230D01*
X48806Y177742D01*
X48789Y177657D01*
X49705D01*
Y178573D01*
D02*
G37*
G36*
X-77264Y163809D02*
X-77348Y163792D01*
X-77836Y163466D01*
X-78162Y162978D01*
X-78179Y162894D01*
X-77264D01*
Y163809D01*
D02*
G37*
G36*
X-75364Y161909D02*
X-76279D01*
Y160994D01*
X-76196Y161011D01*
X-75707Y161337D01*
X-75482Y161674D01*
X-75381Y161826D01*
X-75364Y161909D01*
D02*
G37*
G36*
X-77264D02*
X-78179D01*
X-78162Y161826D01*
X-77836Y161337D01*
X-77348Y161011D01*
X-77264Y160994D01*
Y161909D01*
D02*
G37*
G36*
X51604Y176673D02*
X50689D01*
Y175758D01*
X50773Y175775D01*
X51261Y176101D01*
X51588Y176589D01*
X51604Y176673D01*
D02*
G37*
G36*
X49705D02*
X48789D01*
X48806Y176589D01*
X49132Y176101D01*
X49621Y175775D01*
X49705Y175758D01*
Y176673D01*
D02*
G37*
G36*
X-76279Y163809D02*
Y162894D01*
X-75364D01*
X-75381Y162978D01*
X-75482Y163129D01*
X-75707Y163466D01*
X-76196Y163792D01*
X-76279Y163809D01*
D02*
G37*
G36*
X-35925Y129360D02*
X-36009Y129343D01*
X-36498Y129017D01*
X-36824Y128529D01*
X-36841Y128445D01*
X-35925D01*
Y129360D01*
D02*
G37*
G36*
X45007Y128474D02*
X44431Y128359D01*
X43943Y128033D01*
X43616Y127545D01*
X43562Y127271D01*
X43052D01*
X42998Y127545D01*
X42671Y128033D01*
X42183Y128359D01*
X41607Y128474D01*
X41031Y128359D01*
X40543Y128033D01*
X40216Y127545D01*
X40102Y126969D01*
Y125000D01*
X40216Y124424D01*
X40543Y123936D01*
X41031Y123609D01*
X41607Y123495D01*
X42183Y123609D01*
X42671Y123936D01*
X42998Y124424D01*
X43052Y124697D01*
X43562D01*
X43616Y124424D01*
X43943Y123936D01*
X44431Y123609D01*
X45007Y123495D01*
X45583Y123609D01*
X46071Y123936D01*
X46398Y124424D01*
X46512Y125000D01*
Y126969D01*
X46398Y127545D01*
X46071Y128033D01*
X45583Y128359D01*
X45007Y128474D01*
D02*
G37*
G36*
X-34026Y127461D02*
X-34941D01*
Y126545D01*
X-34857Y126562D01*
X-34369Y126888D01*
X-34042Y127377D01*
X-34026Y127461D01*
D02*
G37*
G36*
X51673Y138287D02*
X50758D01*
X50775Y138204D01*
X51101Y137715D01*
X51589Y137389D01*
X51673Y137372D01*
Y138287D01*
D02*
G37*
G36*
X-74803Y136850D02*
X-75571Y136697D01*
X-76222Y136262D01*
X-76657Y135611D01*
X-76749Y135152D01*
X-76931Y134829D01*
X-77292Y134789D01*
X-77756Y134881D01*
X-78524Y134728D01*
X-79175Y134293D01*
X-79610Y133642D01*
X-79763Y132874D01*
X-79610Y132106D01*
X-79175Y131455D01*
X-78759Y131177D01*
Y129921D01*
X-78683Y129537D01*
X-78465Y129212D01*
X-77775Y128521D01*
Y119095D01*
X-77699Y118710D01*
X-77481Y118385D01*
X-74773Y115677D01*
X-74980Y115177D01*
X-84315D01*
X-84318Y115217D01*
X-84973D01*
X-84977Y115177D01*
X-89151D01*
X-90610Y116636D01*
X-90513Y117126D01*
X-90665Y117894D01*
X-91101Y118545D01*
X-91752Y118980D01*
X-92520Y119133D01*
X-93288Y118980D01*
X-93939Y118545D01*
X-94374Y117894D01*
X-94527Y117126D01*
X-94434Y116662D01*
X-94475Y116301D01*
X-94797Y116119D01*
X-95256Y116027D01*
X-95907Y115592D01*
X-96342Y114941D01*
X-96495Y114173D01*
X-96342Y113405D01*
X-95907Y112754D01*
X-95256Y112319D01*
X-94488Y112166D01*
X-93998Y112264D01*
X-93229Y111495D01*
X-92904Y111278D01*
X-92520Y111201D01*
X-74235D01*
X-73838Y110805D01*
Y107996D01*
X-74254Y107719D01*
X-74689Y107067D01*
X-74842Y106299D01*
X-74689Y105531D01*
X-74254Y104880D01*
X-73603Y104445D01*
X-72835Y104292D01*
X-72067Y104445D01*
X-71415Y104880D01*
X-70980Y105531D01*
X-70828Y106299D01*
X-70980Y107067D01*
X-71415Y107719D01*
X-71831Y107996D01*
Y111221D01*
X-71908Y111605D01*
X-72125Y111930D01*
X-72770Y112575D01*
X-72584Y113054D01*
X-72196Y113099D01*
X-69901Y110805D01*
Y106299D01*
X-69825Y105915D01*
X-69607Y105590D01*
X-66948Y102931D01*
Y100725D01*
X-67448Y100676D01*
X-67507Y100970D01*
X-67833Y101458D01*
X-68322Y101785D01*
X-68405Y101801D01*
Y100394D01*
X-68898D01*
Y99902D01*
X-70305D01*
X-70288Y99818D01*
X-69962Y99329D01*
X-69474Y99003D01*
X-69112Y98931D01*
Y98421D01*
X-69666Y98311D01*
X-70317Y97876D01*
X-70752Y97225D01*
X-70872Y96621D01*
X-71366Y96407D01*
X-72125Y97166D01*
X-72451Y97384D01*
X-72835Y97460D01*
X-75075D01*
X-75352Y97876D01*
X-76004Y98311D01*
X-76772Y98464D01*
X-77540Y98311D01*
X-78191Y97876D01*
X-78626Y97225D01*
X-78779Y96457D01*
X-78626Y95689D01*
X-78191Y95038D01*
X-77540Y94602D01*
X-76772Y94450D01*
X-76004Y94602D01*
X-75352Y95038D01*
X-75075Y95453D01*
X-73250D01*
X-70591Y92794D01*
X-70266Y92577D01*
X-69882Y92501D01*
X-57087D01*
X-56703Y92577D01*
X-56377Y92794D01*
X-49781Y99390D01*
X-47957D01*
X-47679Y98975D01*
X-47028Y98540D01*
X-46260Y98387D01*
X-45492Y98540D01*
X-44841Y98975D01*
X-44405Y99626D01*
X-44253Y100394D01*
X-44345Y100858D01*
X-44305Y101219D01*
X-43982Y101401D01*
X-43523Y101492D01*
X-42872Y101927D01*
X-42437Y102578D01*
X-42284Y103347D01*
X-42437Y104115D01*
X-42872Y104766D01*
X-43523Y105201D01*
X-43982Y105292D01*
X-44305Y105474D01*
X-44345Y105835D01*
X-44253Y106299D01*
X-44345Y106763D01*
X-44305Y107124D01*
X-43982Y107307D01*
X-43523Y107398D01*
X-42872Y107833D01*
X-42437Y108484D01*
X-42284Y109252D01*
X-42437Y110020D01*
X-42872Y110671D01*
X-43523Y111106D01*
X-44291Y111259D01*
X-45059Y111106D01*
X-45711Y110671D01*
X-45988Y110256D01*
X-50197D01*
X-50517Y110192D01*
X-50581Y110179D01*
X-50906Y109962D01*
X-54549Y106318D01*
X-58639D01*
X-61989Y109668D01*
Y114173D01*
X-62065Y114557D01*
X-62283Y114883D01*
X-68188Y120788D01*
X-68514Y121006D01*
X-68898Y121082D01*
X-71435D01*
X-71831Y121479D01*
Y128521D01*
X-71141Y129212D01*
X-71141Y129212D01*
X-70923Y129537D01*
X-70847Y129921D01*
Y131890D01*
X-70923Y132274D01*
X-70995Y132382D01*
X-71141Y132599D01*
X-72894Y134352D01*
X-72796Y134843D01*
X-72949Y135611D01*
X-73384Y136262D01*
X-74035Y136697D01*
X-74803Y136850D01*
D02*
G37*
G36*
X-34941Y129360D02*
Y128445D01*
X-34026D01*
X-34042Y128529D01*
X-34369Y129017D01*
X-34857Y129343D01*
X-34941Y129360D01*
D02*
G37*
G36*
X-35925Y127461D02*
X-36841D01*
X-36824Y127377D01*
X-36498Y126888D01*
X-36009Y126562D01*
X-35925Y126545D01*
Y127461D01*
D02*
G37*
G36*
X-56595Y126407D02*
X-56678Y126391D01*
X-57167Y126065D01*
X-57493Y125576D01*
X-57510Y125492D01*
X-56595D01*
Y126407D01*
D02*
G37*
G36*
X-23199Y124508D02*
X-24114D01*
Y123593D01*
X-24030Y123609D01*
X-23542Y123936D01*
X-23216Y124424D01*
X-23199Y124508D01*
D02*
G37*
G36*
X-25098D02*
X-26014D01*
X-25997Y124424D01*
X-25671Y123936D01*
X-25182Y123609D01*
X-25098Y123593D01*
Y124508D01*
D02*
G37*
G36*
X-24114Y126407D02*
Y125492D01*
X-23199D01*
X-23216Y125576D01*
X-23542Y126065D01*
X-24030Y126391D01*
X-24114Y126407D01*
D02*
G37*
G36*
X-25098D02*
X-25182Y126391D01*
X-25671Y126065D01*
X-25997Y125576D01*
X-26014Y125492D01*
X-25098D01*
Y126407D01*
D02*
G37*
G36*
X-55610D02*
Y125492D01*
X-54695D01*
X-54712Y125576D01*
X-55038Y126065D01*
X-55526Y126391D01*
X-55610Y126407D01*
D02*
G37*
G36*
X-25098Y142156D02*
X-25182Y142139D01*
X-25671Y141813D01*
X-25997Y141324D01*
X-26014Y141240D01*
X-25098D01*
Y142156D01*
D02*
G37*
G36*
X-55610D02*
Y141240D01*
X-54695D01*
X-54712Y141324D01*
X-55038Y141813D01*
X-55526Y142139D01*
X-55610Y142156D01*
D02*
G37*
G36*
X-56595D02*
X-56678Y142139D01*
X-57167Y141813D01*
X-57493Y141324D01*
X-57510Y141240D01*
X-56595D01*
Y142156D01*
D02*
G37*
G36*
X-34026Y143209D02*
X-34941D01*
Y142293D01*
X-34857Y142310D01*
X-34369Y142636D01*
X-34042Y143125D01*
X-34026Y143209D01*
D02*
G37*
G36*
X-35925D02*
X-36841D01*
X-36824Y143125D01*
X-36498Y142636D01*
X-36009Y142310D01*
X-35925Y142293D01*
Y143209D01*
D02*
G37*
G36*
X-24114Y142156D02*
Y141240D01*
X-23199D01*
X-23216Y141324D01*
X-23542Y141813D01*
X-24030Y142139D01*
X-24114Y142156D01*
D02*
G37*
G36*
X-23199Y140256D02*
X-24114D01*
Y139341D01*
X-24030Y139357D01*
X-23542Y139684D01*
X-23216Y140172D01*
X-23199Y140256D01*
D02*
G37*
G36*
X52658Y140187D02*
Y139272D01*
X53573D01*
X53556Y139356D01*
X53230Y139844D01*
X52741Y140170D01*
X52658Y140187D01*
D02*
G37*
G36*
X51673D02*
X51589Y140170D01*
X51101Y139844D01*
X50775Y139356D01*
X50758Y139272D01*
X51673D01*
Y140187D01*
D02*
G37*
G36*
X53573Y138287D02*
X52658D01*
Y137372D01*
X52741Y137389D01*
X53230Y137715D01*
X53556Y138204D01*
X53573Y138287D01*
D02*
G37*
G36*
X-25098Y140256D02*
X-26014D01*
X-25997Y140172D01*
X-25671Y139684D01*
X-25182Y139357D01*
X-25098Y139341D01*
Y140256D01*
D02*
G37*
G36*
X-54695D02*
X-55610D01*
Y139341D01*
X-55526Y139357D01*
X-55038Y139684D01*
X-54712Y140172D01*
X-54695Y140256D01*
D02*
G37*
G36*
X-56595D02*
X-57510D01*
X-57493Y140172D01*
X-57167Y139684D01*
X-56678Y139357D01*
X-56595Y139341D01*
Y140256D01*
D02*
G37*
G36*
X101279Y255738D02*
Y254823D01*
X102195D01*
X102178Y254907D01*
X101852Y255395D01*
X101363Y255721D01*
X101279Y255738D01*
D02*
G37*
G36*
X100295D02*
X100211Y255721D01*
X99723Y255395D01*
X99397Y254907D01*
X99380Y254823D01*
X100295D01*
Y255738D01*
D02*
G37*
G36*
X89468D02*
Y254823D01*
X90384D01*
X90367Y254907D01*
X90041Y255395D01*
X89552Y255721D01*
X89468Y255738D01*
D02*
G37*
G36*
X-98Y265650D02*
X-1014D01*
X-997Y265566D01*
X-671Y265077D01*
X-182Y264751D01*
X-98Y264734D01*
Y265650D01*
D02*
G37*
G36*
X12303Y257313D02*
Y256398D01*
X13218D01*
X13202Y256482D01*
X12875Y256970D01*
X12387Y257296D01*
X12303Y257313D01*
D02*
G37*
G36*
X11319D02*
X11235Y257296D01*
X10747Y256970D01*
X10420Y256482D01*
X10404Y256398D01*
X11319D01*
Y257313D01*
D02*
G37*
G36*
X88484Y255738D02*
X88400Y255721D01*
X87912Y255395D01*
X87586Y254907D01*
X87569Y254823D01*
X88484D01*
Y255738D01*
D02*
G37*
G36*
X64862D02*
X64778Y255721D01*
X64290Y255395D01*
X63964Y254907D01*
X63947Y254823D01*
X64862D01*
Y255738D01*
D02*
G37*
G36*
X54035D02*
Y254823D01*
X54951D01*
X54934Y254907D01*
X54608Y255395D01*
X54119Y255721D01*
X54035Y255738D01*
D02*
G37*
G36*
X53051D02*
X52967Y255721D01*
X52479Y255395D01*
X52153Y254907D01*
X52136Y254823D01*
X53051D01*
Y255738D01*
D02*
G37*
G36*
X77658D02*
Y254823D01*
X78573D01*
X78556Y254907D01*
X78230Y255395D01*
X77741Y255721D01*
X77658Y255738D01*
D02*
G37*
G36*
X76673D02*
X76589Y255721D01*
X76101Y255395D01*
X75775Y254907D01*
X75758Y254823D01*
X76673D01*
Y255738D01*
D02*
G37*
G36*
X65846D02*
Y254823D01*
X66762D01*
X66745Y254907D01*
X66419Y255395D01*
X65930Y255721D01*
X65846Y255738D01*
D02*
G37*
G36*
X70768Y265650D02*
X69852D01*
X69869Y265566D01*
X70195Y265077D01*
X70684Y264751D01*
X70768Y264734D01*
Y265650D01*
D02*
G37*
G36*
X60856D02*
X59941D01*
Y264734D01*
X60025Y264751D01*
X60513Y265077D01*
X60839Y265566D01*
X60856Y265650D01*
D02*
G37*
G36*
X58957D02*
X58041D01*
X58058Y265566D01*
X58384Y265077D01*
X58873Y264751D01*
X58957Y264734D01*
Y265650D01*
D02*
G37*
G36*
X84478D02*
X83563D01*
Y264734D01*
X83647Y264751D01*
X84135Y265077D01*
X84462Y265566D01*
X84478Y265650D01*
D02*
G37*
G36*
X82579D02*
X81663D01*
X81680Y265566D01*
X82006Y265077D01*
X82495Y264751D01*
X82579Y264734D01*
Y265650D01*
D02*
G37*
G36*
X72667D02*
X71752D01*
Y264734D01*
X71836Y264751D01*
X72324Y265077D01*
X72650Y265566D01*
X72667Y265650D01*
D02*
G37*
G36*
X37234D02*
X36319D01*
Y264734D01*
X36403Y264751D01*
X36891Y265077D01*
X37218Y265566D01*
X37234Y265650D01*
D02*
G37*
G36*
X13612D02*
X12697D01*
Y264734D01*
X12781Y264751D01*
X13269Y265077D01*
X13595Y265566D01*
X13612Y265650D01*
D02*
G37*
G36*
X11713D02*
X10797D01*
X10814Y265566D01*
X11140Y265077D01*
X11629Y264751D01*
X11713Y264734D01*
Y265650D01*
D02*
G37*
G36*
X1801D02*
X886D01*
Y264734D01*
X970Y264751D01*
X1458Y265077D01*
X1784Y265566D01*
X1801Y265650D01*
D02*
G37*
G36*
X35335D02*
X34419D01*
X34436Y265566D01*
X34762Y265077D01*
X35251Y264751D01*
X35335Y264734D01*
Y265650D01*
D02*
G37*
G36*
X25423D02*
X24508D01*
Y264734D01*
X24592Y264751D01*
X25080Y265077D01*
X25407Y265566D01*
X25423Y265650D01*
D02*
G37*
G36*
X23524D02*
X22608D01*
X22625Y265566D01*
X22951Y265077D01*
X23440Y264751D01*
X23524Y264734D01*
Y265650D01*
D02*
G37*
G36*
X54951Y253839D02*
X54035D01*
Y252923D01*
X54119Y252940D01*
X54608Y253266D01*
X54934Y253755D01*
X54951Y253839D01*
D02*
G37*
G36*
X53051D02*
X52136D01*
X52153Y253755D01*
X52479Y253266D01*
X52967Y252940D01*
X53051Y252923D01*
Y253839D01*
D02*
G37*
G36*
X43140D02*
X42224D01*
Y252923D01*
X42308Y252940D01*
X42797Y253266D01*
X43123Y253755D01*
X43140Y253839D01*
D02*
G37*
G36*
X76673D02*
X75758D01*
X75775Y253755D01*
X76101Y253266D01*
X76589Y252940D01*
X76673Y252923D01*
Y253839D01*
D02*
G37*
G36*
X66762D02*
X65846D01*
Y252923D01*
X65930Y252940D01*
X66419Y253266D01*
X66745Y253755D01*
X66762Y253839D01*
D02*
G37*
G36*
X64862D02*
X63947D01*
X63964Y253755D01*
X64290Y253266D01*
X64778Y252940D01*
X64862Y252923D01*
Y253839D01*
D02*
G37*
G36*
X41240D02*
X40325D01*
X40342Y253755D01*
X40668Y253266D01*
X41156Y252940D01*
X41240Y252923D01*
Y253839D01*
D02*
G37*
G36*
X5807D02*
X4892D01*
X4908Y253755D01*
X5235Y253266D01*
X5723Y252940D01*
X5807Y252923D01*
Y253839D01*
D02*
G37*
G36*
X12303Y249439D02*
Y248524D01*
X13218D01*
X13202Y248608D01*
X12875Y249096D01*
X12387Y249422D01*
X12303Y249439D01*
D02*
G37*
G36*
X11319D02*
X11235Y249422D01*
X10747Y249096D01*
X10420Y248608D01*
X10404Y248524D01*
X11319D01*
Y249439D01*
D02*
G37*
G36*
X31329Y253839D02*
X30413D01*
Y252923D01*
X30497Y252940D01*
X30986Y253266D01*
X31312Y253755D01*
X31329Y253839D01*
D02*
G37*
G36*
X29429D02*
X28514D01*
X28530Y253755D01*
X28857Y253266D01*
X29345Y252940D01*
X29429Y252923D01*
Y253839D01*
D02*
G37*
G36*
X7707D02*
X6791D01*
Y252923D01*
X6875Y252940D01*
X7364Y253266D01*
X7690Y253755D01*
X7707Y253839D01*
D02*
G37*
G36*
X29429Y255738D02*
X29345Y255721D01*
X28857Y255395D01*
X28530Y254907D01*
X28514Y254823D01*
X29429D01*
Y255738D01*
D02*
G37*
G36*
X6791D02*
Y254823D01*
X7707D01*
X7690Y254907D01*
X7364Y255395D01*
X6875Y255721D01*
X6791Y255738D01*
D02*
G37*
G36*
X5807D02*
X5723Y255721D01*
X5235Y255395D01*
X4908Y254907D01*
X4892Y254823D01*
X5807D01*
Y255738D01*
D02*
G37*
G36*
X42224D02*
Y254823D01*
X43140D01*
X43123Y254907D01*
X42797Y255395D01*
X42308Y255721D01*
X42224Y255738D01*
D02*
G37*
G36*
X41240D02*
X41156Y255721D01*
X40668Y255395D01*
X40342Y254907D01*
X40325Y254823D01*
X41240D01*
Y255738D01*
D02*
G37*
G36*
X30413D02*
Y254823D01*
X31329D01*
X31312Y254907D01*
X30986Y255395D01*
X30497Y255721D01*
X30413Y255738D01*
D02*
G37*
G36*
X13218Y255413D02*
X12303D01*
Y254498D01*
X12387Y254515D01*
X12875Y254841D01*
X13202Y255329D01*
X13218Y255413D01*
D02*
G37*
G36*
X90384Y253839D02*
X89468D01*
Y252923D01*
X89552Y252940D01*
X90041Y253266D01*
X90367Y253755D01*
X90384Y253839D01*
D02*
G37*
G36*
X88484D02*
X87569D01*
X87586Y253755D01*
X87912Y253266D01*
X88400Y252940D01*
X88484Y252923D01*
Y253839D01*
D02*
G37*
G36*
X78573D02*
X77658D01*
Y252923D01*
X77741Y252940D01*
X78230Y253266D01*
X78556Y253755D01*
X78573Y253839D01*
D02*
G37*
G36*
X11319Y255413D02*
X10404D01*
X10420Y255329D01*
X10747Y254841D01*
X11235Y254515D01*
X11319Y254498D01*
Y255413D01*
D02*
G37*
G36*
X102195Y253839D02*
X101279D01*
Y252923D01*
X101363Y252940D01*
X101852Y253266D01*
X102178Y253755D01*
X102195Y253839D01*
D02*
G37*
G36*
X100295D02*
X99380D01*
X99397Y253755D01*
X99723Y253266D01*
X100211Y252940D01*
X100295Y252923D01*
Y253839D01*
D02*
G37*
G36*
X17618Y279360D02*
X17534Y279344D01*
X17046Y279017D01*
X16720Y278529D01*
X16703Y278445D01*
X17618D01*
Y279360D01*
D02*
G37*
G36*
X6791D02*
Y278445D01*
X7707D01*
X7690Y278529D01*
X7364Y279017D01*
X6875Y279344D01*
X6791Y279360D01*
D02*
G37*
G36*
X5807D02*
X5723Y279344D01*
X5235Y279017D01*
X4908Y278529D01*
X4892Y278445D01*
X5807D01*
Y279360D01*
D02*
G37*
G36*
X30413D02*
Y278445D01*
X31329D01*
X31312Y278529D01*
X30986Y279017D01*
X30497Y279344D01*
X30413Y279360D01*
D02*
G37*
G36*
X29429D02*
X29345Y279344D01*
X28857Y279017D01*
X28530Y278529D01*
X28514Y278445D01*
X29429D01*
Y279360D01*
D02*
G37*
G36*
X18602D02*
Y278445D01*
X19518D01*
X19501Y278529D01*
X19175Y279017D01*
X18686Y279344D01*
X18602Y279360D01*
D02*
G37*
G36*
X-5020D02*
Y278445D01*
X-4104D01*
X-4121Y278529D01*
X-4447Y279017D01*
X-4936Y279344D01*
X-5020Y279360D01*
D02*
G37*
G36*
X66762Y277461D02*
X65846D01*
Y276545D01*
X65930Y276562D01*
X66419Y276888D01*
X66745Y277377D01*
X66762Y277461D01*
D02*
G37*
G36*
X64862D02*
X63947D01*
X63964Y277377D01*
X64290Y276888D01*
X64778Y276562D01*
X64862Y276545D01*
Y277461D01*
D02*
G37*
G36*
X54951D02*
X54035D01*
Y276545D01*
X54119Y276562D01*
X54608Y276888D01*
X54934Y277377D01*
X54951Y277461D01*
D02*
G37*
G36*
X-6004Y279360D02*
X-6088Y279344D01*
X-6576Y279017D01*
X-6903Y278529D01*
X-6919Y278445D01*
X-6004D01*
Y279360D01*
D02*
G37*
G36*
X78573Y277461D02*
X77658D01*
Y276545D01*
X77741Y276562D01*
X78230Y276888D01*
X78556Y277377D01*
X78573Y277461D01*
D02*
G37*
G36*
X76673D02*
X75758D01*
X75775Y277377D01*
X76101Y276888D01*
X76589Y276562D01*
X76673Y276545D01*
Y277461D01*
D02*
G37*
G36*
X-75295Y298721D02*
X-80181D01*
X-80128Y298313D01*
X-79781Y297475D01*
X-79229Y296756D01*
X-78509Y296203D01*
X-77671Y295856D01*
X-76772Y295738D01*
X-75295D01*
Y298721D01*
D02*
G37*
G36*
X-72835Y294813D02*
X-76772D01*
X-77671Y294695D01*
X-78509Y294348D01*
X-79229Y293796D01*
X-79781Y293076D01*
X-80128Y292238D01*
X-80246Y291339D01*
X-80128Y290439D01*
X-79781Y289601D01*
X-79229Y288882D01*
X-78509Y288330D01*
X-77671Y287982D01*
X-76772Y287864D01*
X-72835D01*
X-71935Y287982D01*
X-71097Y288330D01*
X-70378Y288882D01*
X-69826Y289601D01*
X-69478Y290439D01*
X-69360Y291339D01*
X-69478Y292238D01*
X-69826Y293076D01*
X-70378Y293796D01*
X-71097Y294348D01*
X-71935Y294695D01*
X-72835Y294813D01*
D02*
G37*
G36*
X77658Y279360D02*
Y278445D01*
X78573D01*
X78556Y278529D01*
X78230Y279017D01*
X77741Y279344D01*
X77658Y279360D01*
D02*
G37*
G36*
X-72835Y302687D02*
X-74311D01*
Y299705D01*
X-69425D01*
X-69478Y300112D01*
X-69826Y300950D01*
X-70378Y301670D01*
X-71097Y302222D01*
X-71935Y302569D01*
X-72835Y302687D01*
D02*
G37*
G36*
X-75295D02*
X-76772D01*
X-77671Y302569D01*
X-78509Y302222D01*
X-79229Y301670D01*
X-79781Y300950D01*
X-80128Y300112D01*
X-80181Y299705D01*
X-75295D01*
Y302687D01*
D02*
G37*
G36*
X-69425Y298721D02*
X-74311D01*
Y295738D01*
X-72835D01*
X-71935Y295856D01*
X-71097Y296203D01*
X-70378Y296756D01*
X-69826Y297475D01*
X-69478Y298313D01*
X-69425Y298721D01*
D02*
G37*
G36*
X76673Y279360D02*
X76589Y279344D01*
X76101Y279017D01*
X75775Y278529D01*
X75758Y278445D01*
X76673D01*
Y279360D01*
D02*
G37*
G36*
X53051D02*
X52967Y279344D01*
X52479Y279017D01*
X52153Y278529D01*
X52136Y278445D01*
X53051D01*
Y279360D01*
D02*
G37*
G36*
X42224D02*
Y278445D01*
X43140D01*
X43123Y278529D01*
X42797Y279017D01*
X42308Y279344D01*
X42224Y279360D01*
D02*
G37*
G36*
X41240D02*
X41156Y279344D01*
X40668Y279017D01*
X40342Y278529D01*
X40325Y278445D01*
X41240D01*
Y279360D01*
D02*
G37*
G36*
X65846D02*
Y278445D01*
X66762D01*
X66745Y278529D01*
X66419Y279017D01*
X65930Y279344D01*
X65846Y279360D01*
D02*
G37*
G36*
X64862D02*
X64778Y279344D01*
X64290Y279017D01*
X63964Y278529D01*
X63947Y278445D01*
X64862D01*
Y279360D01*
D02*
G37*
G36*
X54035D02*
Y278445D01*
X54951D01*
X54934Y278529D01*
X54608Y279017D01*
X54119Y279344D01*
X54035Y279360D01*
D02*
G37*
G36*
X59941Y267549D02*
Y266634D01*
X60856D01*
X60839Y266718D01*
X60513Y267206D01*
X60025Y267532D01*
X59941Y267549D01*
D02*
G37*
G36*
X58957D02*
X58873Y267532D01*
X58384Y267206D01*
X58058Y266718D01*
X58041Y266634D01*
X58957D01*
Y267549D01*
D02*
G37*
G36*
X36319D02*
Y266634D01*
X37234D01*
X37218Y266718D01*
X36891Y267206D01*
X36403Y267532D01*
X36319Y267549D01*
D02*
G37*
G36*
X82579D02*
X82495Y267532D01*
X82006Y267206D01*
X81680Y266718D01*
X81663Y266634D01*
X82579D01*
Y267549D01*
D02*
G37*
G36*
X71752D02*
Y266634D01*
X72667D01*
X72650Y266718D01*
X72324Y267206D01*
X71836Y267532D01*
X71752Y267549D01*
D02*
G37*
G36*
X70768D02*
X70684Y267532D01*
X70195Y267206D01*
X69869Y266718D01*
X69852Y266634D01*
X70768D01*
Y267549D01*
D02*
G37*
G36*
X35335D02*
X35251Y267532D01*
X34762Y267206D01*
X34436Y266718D01*
X34419Y266634D01*
X35335D01*
Y267549D01*
D02*
G37*
G36*
X11713D02*
X11629Y267532D01*
X11140Y267206D01*
X10814Y266718D01*
X10797Y266634D01*
X11713D01*
Y267549D01*
D02*
G37*
G36*
X886D02*
Y266634D01*
X1801D01*
X1784Y266718D01*
X1458Y267206D01*
X970Y267532D01*
X886Y267549D01*
D02*
G37*
G36*
X-98D02*
X-182Y267532D01*
X-671Y267206D01*
X-997Y266718D01*
X-1014Y266634D01*
X-98D01*
Y267549D01*
D02*
G37*
G36*
X24508D02*
Y266634D01*
X25423D01*
X25407Y266718D01*
X25080Y267206D01*
X24592Y267532D01*
X24508Y267549D01*
D02*
G37*
G36*
X23524D02*
X23440Y267532D01*
X22951Y267206D01*
X22625Y266718D01*
X22608Y266634D01*
X23524D01*
Y267549D01*
D02*
G37*
G36*
X12697D02*
Y266634D01*
X13612D01*
X13595Y266718D01*
X13269Y267206D01*
X12781Y267532D01*
X12697Y267549D01*
D02*
G37*
G36*
X31329Y277461D02*
X30413D01*
Y276545D01*
X30497Y276562D01*
X30986Y276888D01*
X31312Y277377D01*
X31329Y277461D01*
D02*
G37*
G36*
X29429D02*
X28514D01*
X28530Y277377D01*
X28857Y276888D01*
X29345Y276562D01*
X29429Y276545D01*
Y277461D01*
D02*
G37*
G36*
X19518D02*
X18602D01*
Y276545D01*
X18686Y276562D01*
X19175Y276888D01*
X19501Y277377D01*
X19518Y277461D01*
D02*
G37*
G36*
X53051D02*
X52136D01*
X52153Y277377D01*
X52479Y276888D01*
X52967Y276562D01*
X53051Y276545D01*
Y277461D01*
D02*
G37*
G36*
X43140D02*
X42224D01*
Y276545D01*
X42308Y276562D01*
X42797Y276888D01*
X43123Y277377D01*
X43140Y277461D01*
D02*
G37*
G36*
X41240D02*
X40325D01*
X40342Y277377D01*
X40668Y276888D01*
X41156Y276562D01*
X41240Y276545D01*
Y277461D01*
D02*
G37*
G36*
X17618D02*
X16703D01*
X16720Y277377D01*
X17046Y276888D01*
X17534Y276562D01*
X17618Y276545D01*
Y277461D01*
D02*
G37*
G36*
X-6004D02*
X-6919D01*
X-6903Y277377D01*
X-6576Y276888D01*
X-6088Y276562D01*
X-6004Y276545D01*
Y277461D01*
D02*
G37*
G36*
X-85000Y11349D02*
X-85899Y11230D01*
X-86737Y10883D01*
X-87457Y10331D01*
X-88009Y9611D01*
X-88356Y8773D01*
X-88475Y7874D01*
X-88356Y6975D01*
X-88009Y6137D01*
X-87457Y5417D01*
X-86737Y4865D01*
X-85899Y4518D01*
X-85000Y4400D01*
X-84101Y4518D01*
X-83263Y4865D01*
X-82543Y5417D01*
X-81991Y6137D01*
X-81644Y6975D01*
X-81525Y7874D01*
X-81644Y8773D01*
X-81991Y9611D01*
X-82543Y10331D01*
X-83263Y10883D01*
X-84101Y11230D01*
X-85000Y11349D01*
D02*
G37*
G36*
X83563Y267549D02*
Y266634D01*
X84478D01*
X84462Y266718D01*
X84135Y267206D01*
X83647Y267532D01*
X83563Y267549D01*
D02*
G37*
G36*
X7707Y277461D02*
X6791D01*
Y276545D01*
X6875Y276562D01*
X7364Y276888D01*
X7690Y277377D01*
X7707Y277461D01*
D02*
G37*
G36*
X5807D02*
X4892D01*
X4908Y277377D01*
X5235Y276888D01*
X5723Y276562D01*
X5807Y276545D01*
Y277461D01*
D02*
G37*
G36*
X-4104D02*
X-5020D01*
Y276545D01*
X-4936Y276562D01*
X-4447Y276888D01*
X-4121Y277377D01*
X-4104Y277461D01*
D02*
G37*
G36*
X13218Y247539D02*
X12303D01*
Y246624D01*
X12387Y246641D01*
X12875Y246967D01*
X13202Y247456D01*
X13218Y247539D01*
D02*
G37*
G36*
X31250Y228494D02*
X30040D01*
X30105Y228164D01*
X30432Y227676D01*
X30920Y227349D01*
X31250Y227284D01*
Y228494D01*
D02*
G37*
G36*
X28622D02*
X27411D01*
Y227284D01*
X27741Y227349D01*
X28230Y227676D01*
X28556Y228164D01*
X28622Y228494D01*
D02*
G37*
G36*
X26919D02*
X25709D01*
X25775Y228164D01*
X26101Y227676D01*
X26589Y227349D01*
X26919Y227284D01*
Y228494D01*
D02*
G37*
G36*
X37283D02*
X36073D01*
Y227284D01*
X36403Y227349D01*
X36891Y227676D01*
X37218Y228164D01*
X37283Y228494D01*
D02*
G37*
G36*
X35581D02*
X34370D01*
X34436Y228164D01*
X34762Y227676D01*
X35251Y227349D01*
X35581Y227284D01*
Y228494D01*
D02*
G37*
G36*
X32952D02*
X31742D01*
Y227284D01*
X32072Y227349D01*
X32561Y227676D01*
X32887Y228164D01*
X32952Y228494D01*
D02*
G37*
G36*
X51181Y225886D02*
X50266D01*
X50283Y225802D01*
X50609Y225314D01*
X51097Y224987D01*
X51181Y224971D01*
Y225886D01*
D02*
G37*
G36*
X85000Y21349D02*
X84101Y21230D01*
X83263Y20883D01*
X82543Y20331D01*
X81991Y19611D01*
X81644Y18773D01*
X81525Y17874D01*
X81644Y16975D01*
X81991Y16137D01*
X82543Y15417D01*
X83263Y14865D01*
X84101Y14518D01*
X85000Y14400D01*
X85899Y14518D01*
X86737Y14865D01*
X87457Y15417D01*
X88009Y16137D01*
X88356Y16975D01*
X88475Y17874D01*
X88356Y18773D01*
X88009Y19611D01*
X87457Y20331D01*
X86737Y20883D01*
X85899Y21230D01*
X85000Y21349D01*
D02*
G37*
G36*
X36073Y225866D02*
Y224656D01*
X37283D01*
X37218Y224986D01*
X36891Y225474D01*
X36403Y225800D01*
X36073Y225866D01*
D02*
G37*
G36*
X-87598Y238719D02*
X-88754Y238567D01*
X-89832Y238121D01*
X-90757Y237411D01*
X-91467Y236486D01*
X-91913Y235408D01*
X-92066Y234252D01*
Y230315D01*
X-91913Y229159D01*
X-91467Y228081D01*
X-90757Y227156D01*
X-89832Y226446D01*
X-88754Y226000D01*
X-87598Y225848D01*
X-86442Y226000D01*
X-85364Y226446D01*
X-84439Y227156D01*
X-83729Y228081D01*
X-83283Y229159D01*
X-83131Y230315D01*
Y234252D01*
X-83283Y235408D01*
X-83729Y236486D01*
X-84439Y237411D01*
X-85364Y238121D01*
X-86442Y238567D01*
X-87598Y238719D01*
D02*
G37*
G36*
X-97441D02*
X-98597Y238567D01*
X-99674Y238121D01*
X-100600Y237411D01*
X-101310Y236486D01*
X-101756Y235408D01*
X-101908Y234252D01*
Y230315D01*
X-101756Y229159D01*
X-101310Y228081D01*
X-100600Y227156D01*
X-99674Y226446D01*
X-98597Y226000D01*
X-97441Y225848D01*
X-96284Y226000D01*
X-95207Y226446D01*
X-94282Y227156D01*
X-93572Y228081D01*
X-93125Y229159D01*
X-92973Y230315D01*
Y234252D01*
X-93125Y235408D01*
X-93572Y236486D01*
X-94282Y237411D01*
X-95207Y238121D01*
X-96284Y238567D01*
X-97441Y238719D01*
D02*
G37*
G36*
X53081Y225886D02*
X52165D01*
Y224971D01*
X52249Y224987D01*
X52738Y225314D01*
X53064Y225802D01*
X53081Y225886D01*
D02*
G37*
G36*
X52165Y241663D02*
X51589Y241548D01*
X51101Y241222D01*
X50775Y240734D01*
X50660Y240158D01*
X50775Y239581D01*
X51101Y239093D01*
X51413Y238885D01*
Y230627D01*
X49885Y229099D01*
X41627D01*
X41419Y229411D01*
X40930Y229737D01*
X40354Y229852D01*
X39778Y229737D01*
X39290Y229411D01*
X38964Y228923D01*
X38849Y228346D01*
X38964Y227770D01*
X39290Y227282D01*
X39778Y226956D01*
X40354Y226841D01*
X40930Y226956D01*
X41419Y227282D01*
X41627Y227594D01*
X44964D01*
X50230Y222328D01*
X50283Y222062D01*
X50609Y221573D01*
X51097Y221247D01*
X51673Y221132D01*
X52249Y221247D01*
X52738Y221573D01*
X53064Y222062D01*
X53179Y222638D01*
X53064Y223214D01*
X52738Y223702D01*
X52249Y224029D01*
X51673Y224143D01*
X51097Y224029D01*
X50834Y223853D01*
X47555Y227132D01*
X47746Y227594D01*
X50109D01*
X50285Y227385D01*
X50396Y227124D01*
X50283Y226954D01*
X50266Y226870D01*
X53081D01*
X53064Y226954D01*
X52738Y227442D01*
X52249Y227769D01*
X51673Y227883D01*
X51463Y227842D01*
X51217Y228302D01*
X52698Y229783D01*
X52861Y230027D01*
X52918Y230315D01*
Y238885D01*
X53230Y239093D01*
X53556Y239581D01*
X53671Y240158D01*
X53556Y240734D01*
X53230Y241222D01*
X52741Y241548D01*
X52165Y241663D01*
D02*
G37*
G36*
X36073Y230197D02*
Y228986D01*
X37283D01*
X37218Y229316D01*
X36891Y229805D01*
X36403Y230131D01*
X36073Y230197D01*
D02*
G37*
G36*
X35581D02*
X35251Y230131D01*
X34762Y229805D01*
X34436Y229316D01*
X34370Y228986D01*
X35581D01*
Y230197D01*
D02*
G37*
G36*
X88484Y230217D02*
X87569D01*
X87586Y230133D01*
X87912Y229644D01*
X88400Y229318D01*
X88484Y229301D01*
Y230217D01*
D02*
G37*
G36*
X78573D02*
X77658D01*
Y229301D01*
X77741Y229318D01*
X78230Y229644D01*
X78556Y230133D01*
X78573Y230217D01*
D02*
G37*
G36*
X76673D02*
X75758D01*
X75775Y230133D01*
X76101Y229644D01*
X76589Y229318D01*
X76673Y229301D01*
Y230217D01*
D02*
G37*
G36*
X26919Y230197D02*
X26589Y230131D01*
X26101Y229805D01*
X25775Y229316D01*
X25709Y228986D01*
X26919D01*
Y230197D01*
D02*
G37*
G36*
X-65000Y21349D02*
X-65899Y21230D01*
X-66737Y20883D01*
X-67457Y20331D01*
X-68009Y19611D01*
X-68356Y18773D01*
X-68475Y17874D01*
X-68356Y16975D01*
X-68009Y16137D01*
X-67457Y15417D01*
X-66737Y14865D01*
X-65899Y14518D01*
X-65000Y14400D01*
X-64101Y14518D01*
X-63263Y14865D01*
X-62543Y15417D01*
X-61991Y16137D01*
X-61644Y16975D01*
X-61525Y17874D01*
X-61644Y18773D01*
X-61991Y19611D01*
X-62543Y20331D01*
X-63263Y20883D01*
X-64101Y21230D01*
X-65000Y21349D01*
D02*
G37*
G36*
X-55000D02*
X-55899Y21230D01*
X-56737Y20883D01*
X-57457Y20331D01*
X-58009Y19611D01*
X-58356Y18773D01*
X-58475Y17874D01*
X-58356Y16975D01*
X-58009Y16137D01*
X-57457Y15417D01*
X-56737Y14865D01*
X-55899Y14518D01*
X-55000Y14400D01*
X-54101Y14518D01*
X-53263Y14865D01*
X-52543Y15417D01*
X-51991Y16137D01*
X-51644Y16975D01*
X-51525Y17874D01*
X-51644Y18773D01*
X-51991Y19611D01*
X-52543Y20331D01*
X-53263Y20883D01*
X-54101Y21230D01*
X-55000Y21349D01*
D02*
G37*
G36*
X31742Y230197D02*
Y228986D01*
X32952D01*
X32887Y229316D01*
X32561Y229805D01*
X32072Y230131D01*
X31742Y230197D01*
D02*
G37*
G36*
X31250D02*
X30920Y230131D01*
X30432Y229805D01*
X30105Y229316D01*
X30040Y228986D01*
X31250D01*
Y230197D01*
D02*
G37*
G36*
X27411D02*
Y228986D01*
X28622D01*
X28556Y229316D01*
X28230Y229805D01*
X27741Y230131D01*
X27411Y230197D01*
D02*
G37*
G36*
X26919Y224163D02*
X25709D01*
X25775Y223833D01*
X26101Y223345D01*
X26589Y223019D01*
X26919Y222953D01*
Y224163D01*
D02*
G37*
G36*
X36073Y221535D02*
Y220325D01*
X37283D01*
X37218Y220655D01*
X36891Y221143D01*
X36403Y221469D01*
X36073Y221535D01*
D02*
G37*
G36*
X35581D02*
X35251Y221469D01*
X34762Y221143D01*
X34436Y220655D01*
X34370Y220325D01*
X35581D01*
Y221535D01*
D02*
G37*
G36*
X32952Y224163D02*
X31742D01*
Y222953D01*
X32072Y223019D01*
X32561Y223345D01*
X32887Y223833D01*
X32952Y224163D01*
D02*
G37*
G36*
X31250D02*
X30040D01*
X30105Y223833D01*
X30432Y223345D01*
X30920Y223019D01*
X31250Y222953D01*
Y224163D01*
D02*
G37*
G36*
X28622D02*
X27411D01*
Y222953D01*
X27741Y223019D01*
X28230Y223345D01*
X28556Y223833D01*
X28622Y224163D01*
D02*
G37*
G36*
X26919Y221535D02*
X26589Y221469D01*
X26101Y221143D01*
X25775Y220655D01*
X25709Y220325D01*
X26919D01*
Y221535D01*
D02*
G37*
G36*
X95374Y220305D02*
Y219390D01*
X96289D01*
X96273Y219474D01*
X95946Y219962D01*
X95458Y220288D01*
X95374Y220305D01*
D02*
G37*
G36*
X94390D02*
X94306Y220288D01*
X93818Y219962D01*
X93491Y219474D01*
X93475Y219390D01*
X94390D01*
Y220305D01*
D02*
G37*
G36*
X31742Y221535D02*
Y220325D01*
X32952D01*
X32887Y220655D01*
X32561Y221143D01*
X32072Y221469D01*
X31742Y221535D01*
D02*
G37*
G36*
X31250D02*
X30920Y221469D01*
X30432Y221143D01*
X30105Y220655D01*
X30040Y220325D01*
X31250D01*
Y221535D01*
D02*
G37*
G36*
X27411D02*
Y220325D01*
X28622D01*
X28556Y220655D01*
X28230Y221143D01*
X27741Y221469D01*
X27411Y221535D01*
D02*
G37*
G36*
Y225866D02*
Y224656D01*
X28622D01*
X28556Y224986D01*
X28230Y225474D01*
X27741Y225800D01*
X27411Y225866D01*
D02*
G37*
G36*
X26919D02*
X26589Y225800D01*
X26101Y225474D01*
X25775Y224986D01*
X25709Y224656D01*
X26919D01*
Y225866D01*
D02*
G37*
G36*
X95000Y21349D02*
X94101Y21230D01*
X93263Y20883D01*
X92543Y20331D01*
X91991Y19611D01*
X91644Y18773D01*
X91525Y17874D01*
X91644Y16975D01*
X91991Y16137D01*
X92543Y15417D01*
X93263Y14865D01*
X94101Y14518D01*
X95000Y14400D01*
X95899Y14518D01*
X96737Y14865D01*
X97457Y15417D01*
X98009Y16137D01*
X98356Y16975D01*
X98475Y17874D01*
X98356Y18773D01*
X98009Y19611D01*
X97457Y20331D01*
X96737Y20883D01*
X95899Y21230D01*
X95000Y21349D01*
D02*
G37*
G36*
X35581Y225866D02*
X35251Y225800D01*
X34762Y225474D01*
X34436Y224986D01*
X34370Y224656D01*
X35581D01*
Y225866D01*
D02*
G37*
G36*
X31742D02*
Y224656D01*
X32952D01*
X32887Y224986D01*
X32561Y225474D01*
X32072Y225800D01*
X31742Y225866D01*
D02*
G37*
G36*
X31250D02*
X30920Y225800D01*
X30432Y225474D01*
X30105Y224986D01*
X30040Y224656D01*
X31250D01*
Y225866D01*
D02*
G37*
G36*
X-55610Y26014D02*
Y25098D01*
X-54695D01*
X-54712Y25182D01*
X-55038Y25671D01*
X-55526Y25997D01*
X-55610Y26014D01*
D02*
G37*
G36*
X37283Y224163D02*
X36073D01*
Y222953D01*
X36403Y223019D01*
X36891Y223345D01*
X37218Y223833D01*
X37283Y224163D01*
D02*
G37*
G36*
X35581D02*
X34370D01*
X34436Y223833D01*
X34762Y223345D01*
X35251Y223019D01*
X35581Y222953D01*
Y224163D01*
D02*
G37*
G36*
X-56595Y24114D02*
X-57510D01*
X-57493Y24030D01*
X-57167Y23542D01*
X-56678Y23216D01*
X-56595Y23199D01*
Y24114D01*
D02*
G37*
G36*
X-54695D02*
X-55610D01*
Y23199D01*
X-55526Y23216D01*
X-55038Y23542D01*
X-54712Y24030D01*
X-54695Y24114D01*
D02*
G37*
G36*
X-56595Y26014D02*
X-56678Y25997D01*
X-57167Y25671D01*
X-57493Y25182D01*
X-57510Y25098D01*
X-56595D01*
Y26014D01*
D02*
G37*
G36*
X886Y243927D02*
Y243012D01*
X1801D01*
X1784Y243096D01*
X1458Y243584D01*
X970Y243910D01*
X886Y243927D01*
D02*
G37*
G36*
X82579D02*
X82495Y243910D01*
X82006Y243584D01*
X81680Y243096D01*
X81663Y243012D01*
X82579D01*
Y243927D01*
D02*
G37*
G36*
X79163Y239665D02*
X78248D01*
Y238750D01*
X78332Y238767D01*
X78820Y239093D01*
X79147Y239581D01*
X79163Y239665D01*
D02*
G37*
G36*
X-92519Y254854D02*
X-93774Y254730D01*
X-94980Y254364D01*
X-96091Y253770D01*
X-97065Y252971D01*
X-97865Y251997D01*
X-98459Y250885D01*
X-98825Y249679D01*
X-98948Y248425D01*
X-98825Y247171D01*
X-98459Y245965D01*
X-97865Y244853D01*
X-97065Y243879D01*
X-96091Y243080D01*
X-94980Y242486D01*
X-93774Y242120D01*
X-92519Y241997D01*
X-91265Y242120D01*
X-90059Y242486D01*
X-88948Y243080D01*
X-87974Y243879D01*
X-87174Y244853D01*
X-86580Y245965D01*
X-86214Y247171D01*
X-86091Y248425D01*
X-86214Y249679D01*
X-86580Y250885D01*
X-87174Y251997D01*
X-87974Y252971D01*
X-88948Y253770D01*
X-90059Y254364D01*
X-91265Y254730D01*
X-92519Y254854D01*
D02*
G37*
G36*
X-98Y243927D02*
X-182Y243910D01*
X-671Y243584D01*
X-997Y243096D01*
X-1014Y243012D01*
X-98D01*
Y243927D01*
D02*
G37*
G36*
X83563D02*
Y243012D01*
X84478D01*
X84462Y243096D01*
X84135Y243584D01*
X83647Y243910D01*
X83563Y243927D01*
D02*
G37*
G36*
X3445Y233691D02*
X3361Y233674D01*
X2873Y233348D01*
X2546Y232860D01*
X2530Y232776D01*
X3445D01*
Y233691D01*
D02*
G37*
G36*
X94390Y243927D02*
X94306Y243910D01*
X93818Y243584D01*
X93491Y243096D01*
X93475Y243012D01*
X94390D01*
Y243927D01*
D02*
G37*
G36*
X4429Y233691D02*
Y232776D01*
X5344D01*
X5328Y232860D01*
X5001Y233348D01*
X4513Y233674D01*
X4429Y233691D01*
D02*
G37*
G36*
X77264Y239665D02*
X76349D01*
X76365Y239581D01*
X76692Y239093D01*
X77180Y238767D01*
X77264Y238750D01*
Y239665D01*
D02*
G37*
G36*
X-95492Y7382D02*
X-98410D01*
X-98356Y6975D01*
X-98009Y6137D01*
X-97457Y5417D01*
X-96737Y4865D01*
X-95899Y4518D01*
X-95492Y4464D01*
Y7382D01*
D02*
G37*
G36*
X98445Y11319D02*
X91555D01*
Y4429D01*
X98445D01*
Y11319D01*
D02*
G37*
G36*
X82579Y242028D02*
X81663D01*
X81680Y241944D01*
X82006Y241455D01*
X82495Y241129D01*
X82579Y241112D01*
Y242028D01*
D02*
G37*
G36*
X1801D02*
X886D01*
Y241112D01*
X970Y241129D01*
X1458Y241455D01*
X1784Y241944D01*
X1801Y242028D01*
D02*
G37*
G36*
X84478D02*
X83563D01*
Y241112D01*
X83647Y241129D01*
X84135Y241455D01*
X84462Y241944D01*
X84478Y242028D01*
D02*
G37*
G36*
X96289D02*
X95374D01*
Y241112D01*
X95458Y241129D01*
X95946Y241455D01*
X96273Y241944D01*
X96289Y242028D01*
D02*
G37*
G36*
X94390D02*
X93475D01*
X93491Y241944D01*
X93818Y241455D01*
X94306Y241129D01*
X94390Y241112D01*
Y242028D01*
D02*
G37*
G36*
X-98D02*
X-1014D01*
X-997Y241944D01*
X-671Y241455D01*
X-182Y241129D01*
X-98Y241112D01*
Y242028D01*
D02*
G37*
G36*
X-65000Y11349D02*
X-65899Y11230D01*
X-66737Y10883D01*
X-67457Y10331D01*
X-68009Y9611D01*
X-68356Y8773D01*
X-68475Y7874D01*
X-68356Y6975D01*
X-68009Y6137D01*
X-67457Y5417D01*
X-66737Y4865D01*
X-65899Y4518D01*
X-65000Y4400D01*
X-64101Y4518D01*
X-63263Y4865D01*
X-62543Y5417D01*
X-61991Y6137D01*
X-61644Y6975D01*
X-61525Y7874D01*
X-61644Y8773D01*
X-61991Y9611D01*
X-62543Y10331D01*
X-63263Y10883D01*
X-64101Y11230D01*
X-65000Y11349D01*
D02*
G37*
G36*
X75000D02*
X74101Y11230D01*
X73263Y10883D01*
X72543Y10331D01*
X71991Y9611D01*
X71644Y8773D01*
X71525Y7874D01*
X71644Y6975D01*
X71991Y6137D01*
X72543Y5417D01*
X73263Y4865D01*
X74101Y4518D01*
X75000Y4400D01*
X75899Y4518D01*
X76737Y4865D01*
X77457Y5417D01*
X78009Y6137D01*
X78356Y6975D01*
X78475Y7874D01*
X78356Y8773D01*
X78009Y9611D01*
X77457Y10331D01*
X76737Y10883D01*
X75899Y11230D01*
X75000Y11349D01*
D02*
G37*
G36*
X-75000D02*
X-75899Y11230D01*
X-76737Y10883D01*
X-77457Y10331D01*
X-78009Y9611D01*
X-78356Y8773D01*
X-78475Y7874D01*
X-78356Y6975D01*
X-78009Y6137D01*
X-77457Y5417D01*
X-76737Y4865D01*
X-75899Y4518D01*
X-75000Y4400D01*
X-74101Y4518D01*
X-73263Y4865D01*
X-72543Y5417D01*
X-71991Y6137D01*
X-71644Y6975D01*
X-71525Y7874D01*
X-71644Y8773D01*
X-71991Y9611D01*
X-72543Y10331D01*
X-73263Y10883D01*
X-74101Y11230D01*
X-75000Y11349D01*
D02*
G37*
G36*
X78248Y241565D02*
Y240650D01*
X79163D01*
X79147Y240734D01*
X78820Y241222D01*
X78332Y241548D01*
X78248Y241565D01*
D02*
G37*
G36*
X77264D02*
X77180Y241548D01*
X76692Y241222D01*
X76365Y240734D01*
X76349Y240650D01*
X77264D01*
Y241565D01*
D02*
G37*
G36*
X95374Y243927D02*
Y243012D01*
X96289D01*
X96273Y243096D01*
X95946Y243584D01*
X95458Y243910D01*
X95374Y243927D01*
D02*
G37*
G36*
X-95000Y21349D02*
X-95899Y21230D01*
X-96737Y20883D01*
X-97457Y20331D01*
X-98009Y19611D01*
X-98356Y18773D01*
X-98475Y17874D01*
X-98356Y16975D01*
X-98009Y16137D01*
X-97457Y15417D01*
X-96737Y14865D01*
X-95899Y14518D01*
X-95000Y14400D01*
X-94101Y14518D01*
X-93263Y14865D01*
X-92543Y15417D01*
X-91991Y16137D01*
X-91644Y16975D01*
X-91525Y17874D01*
X-91644Y18773D01*
X-91991Y19611D01*
X-92543Y20331D01*
X-93263Y20883D01*
X-94101Y21230D01*
X-95000Y21349D01*
D02*
G37*
G36*
X5344Y231791D02*
X4429D01*
Y230876D01*
X4513Y230893D01*
X5001Y231219D01*
X5328Y231708D01*
X5344Y231791D01*
D02*
G37*
G36*
X-94508Y11284D02*
Y8366D01*
X-91590D01*
X-91644Y8773D01*
X-91991Y9611D01*
X-92543Y10331D01*
X-93263Y10883D01*
X-94101Y11230D01*
X-94508Y11284D01*
D02*
G37*
G36*
X77658Y232116D02*
Y231201D01*
X78573D01*
X78556Y231285D01*
X78230Y231773D01*
X77741Y232099D01*
X77658Y232116D01*
D02*
G37*
G36*
X76673D02*
X76589Y232099D01*
X76101Y231773D01*
X75775Y231285D01*
X75758Y231201D01*
X76673D01*
Y232116D01*
D02*
G37*
G36*
X3445Y231791D02*
X2530D01*
X2546Y231708D01*
X2873Y231219D01*
X3361Y230893D01*
X3445Y230876D01*
Y231791D01*
D02*
G37*
G36*
X100295Y230217D02*
X99380D01*
X99397Y230133D01*
X99723Y229644D01*
X100211Y229318D01*
X100295Y229301D01*
Y230217D01*
D02*
G37*
G36*
X90384D02*
X89468D01*
Y229301D01*
X89552Y229318D01*
X90041Y229644D01*
X90367Y230133D01*
X90384Y230217D01*
D02*
G37*
G36*
X102195D02*
X101279D01*
Y229301D01*
X101363Y229318D01*
X101852Y229644D01*
X102178Y230133D01*
X102195Y230217D01*
D02*
G37*
G36*
X-85000Y21349D02*
X-85899Y21230D01*
X-86737Y20883D01*
X-87457Y20331D01*
X-88009Y19611D01*
X-88356Y18773D01*
X-88475Y17874D01*
X-88356Y16975D01*
X-88009Y16137D01*
X-87457Y15417D01*
X-86737Y14865D01*
X-85899Y14518D01*
X-85000Y14400D01*
X-84101Y14518D01*
X-83263Y14865D01*
X-82543Y15417D01*
X-81991Y16137D01*
X-81644Y16975D01*
X-81525Y17874D01*
X-81644Y18773D01*
X-81991Y19611D01*
X-82543Y20331D01*
X-83263Y20883D01*
X-84101Y21230D01*
X-85000Y21349D01*
D02*
G37*
G36*
X-75000D02*
X-75899Y21230D01*
X-76737Y20883D01*
X-77457Y20331D01*
X-78009Y19611D01*
X-78356Y18773D01*
X-78475Y17874D01*
X-78356Y16975D01*
X-78009Y16137D01*
X-77457Y15417D01*
X-76737Y14865D01*
X-75899Y14518D01*
X-75000Y14400D01*
X-74101Y14518D01*
X-73263Y14865D01*
X-72543Y15417D01*
X-71991Y16137D01*
X-71644Y16975D01*
X-71525Y17874D01*
X-71644Y18773D01*
X-71991Y19611D01*
X-72543Y20331D01*
X-73263Y20883D01*
X-74101Y21230D01*
X-75000Y21349D01*
D02*
G37*
G36*
X62500Y246486D02*
Y245571D01*
X63415D01*
X63399Y245655D01*
X63072Y246143D01*
X62584Y246469D01*
X62500Y246486D01*
D02*
G37*
G36*
X11319Y247539D02*
X10404D01*
X10420Y247456D01*
X10747Y246967D01*
X11235Y246641D01*
X11319Y246624D01*
Y247539D01*
D02*
G37*
G36*
X61516Y246486D02*
X61432Y246469D01*
X60944Y246143D01*
X60617Y245655D01*
X60601Y245571D01*
X61516D01*
Y246486D01*
D02*
G37*
G36*
Y244587D02*
X60601D01*
X60617Y244503D01*
X60944Y244014D01*
X61432Y243688D01*
X61516Y243671D01*
Y244587D01*
D02*
G37*
G36*
X63415D02*
X62500D01*
Y243671D01*
X62584Y243688D01*
X63072Y244014D01*
X63399Y244503D01*
X63415Y244587D01*
D02*
G37*
G36*
X-91590Y7382D02*
X-94508D01*
Y4464D01*
X-94101Y4518D01*
X-93263Y4865D01*
X-92543Y5417D01*
X-91991Y6137D01*
X-91644Y6975D01*
X-91590Y7382D01*
D02*
G37*
G36*
X89468Y232116D02*
Y231201D01*
X90384D01*
X90367Y231285D01*
X90041Y231773D01*
X89552Y232099D01*
X89468Y232116D01*
D02*
G37*
G36*
X88484D02*
X88400Y232099D01*
X87912Y231773D01*
X87586Y231285D01*
X87569Y231201D01*
X88484D01*
Y232116D01*
D02*
G37*
G36*
X100295D02*
X100211Y232099D01*
X99723Y231773D01*
X99397Y231285D01*
X99380Y231201D01*
X100295D01*
Y232116D01*
D02*
G37*
G36*
X-95492Y11284D02*
X-95899Y11230D01*
X-96737Y10883D01*
X-97457Y10331D01*
X-98009Y9611D01*
X-98356Y8773D01*
X-98410Y8366D01*
X-95492D01*
Y11284D01*
D02*
G37*
G36*
X101279Y232116D02*
Y231201D01*
X102195D01*
X102178Y231285D01*
X101852Y231773D01*
X101363Y232099D01*
X101279Y232116D01*
D02*
G37*
%LPD*%
G36*
X42872Y86179D02*
X43288Y85901D01*
Y85630D01*
X43364Y85246D01*
X43582Y84920D01*
X44566Y83936D01*
X44892Y83719D01*
X45276Y83642D01*
X49781D01*
X50178Y83246D01*
Y78740D01*
X50254Y78356D01*
X50472Y78031D01*
X51162Y77340D01*
Y70059D01*
X50662Y69852D01*
X49922Y70591D01*
X49597Y70809D01*
X49213Y70885D01*
X42739D01*
X37127Y76497D01*
X36801Y76715D01*
X36417Y76791D01*
X34177D01*
X33900Y77207D01*
X33855Y77237D01*
X34006Y77737D01*
X39370D01*
X39754Y77813D01*
X40080Y78031D01*
X42048Y79999D01*
X42266Y80325D01*
X42342Y80709D01*
Y86072D01*
X42842Y86224D01*
X42872Y86179D01*
D02*
G37*
G36*
X13869Y21134D02*
X13263Y20883D01*
X12543Y20331D01*
X11991Y19611D01*
X11644Y18773D01*
X11525Y17874D01*
X11644Y16975D01*
X11991Y16137D01*
X12543Y15417D01*
X13263Y14865D01*
X14101Y14518D01*
X15000Y14400D01*
X15899Y14518D01*
X16737Y14865D01*
X17457Y15417D01*
X18009Y16137D01*
X18181Y16553D01*
X18681Y16454D01*
Y13189D01*
X18758Y12805D01*
X18975Y12479D01*
X21948Y9507D01*
X21644Y8773D01*
X21525Y7874D01*
X21644Y6975D01*
X21991Y6137D01*
X22543Y5417D01*
X23263Y4865D01*
X24101Y4518D01*
X24568Y4456D01*
X24535Y3956D01*
X15465D01*
X15432Y4456D01*
X15899Y4518D01*
X16737Y4865D01*
X17457Y5417D01*
X18009Y6137D01*
X18356Y6975D01*
X18475Y7874D01*
X18356Y8773D01*
X18009Y9611D01*
X17457Y10331D01*
X16737Y10883D01*
X15899Y11230D01*
X15000Y11349D01*
X14101Y11230D01*
X13367Y10926D01*
X10846Y13447D01*
Y20669D01*
X10770Y21053D01*
X10706Y21148D01*
X10743Y21296D01*
X10983Y21634D01*
X13769D01*
X13869Y21134D01*
D02*
G37*
G36*
X3869D02*
X3263Y20883D01*
X2543Y20331D01*
X1991Y19611D01*
X1644Y18773D01*
X1525Y17874D01*
X1644Y16975D01*
X1991Y16137D01*
X2543Y15417D01*
X3263Y14865D01*
X4101Y14518D01*
X5000Y14400D01*
X5899Y14518D01*
X6737Y14865D01*
X7457Y15417D01*
X8009Y16137D01*
X8356Y16975D01*
X8839Y16887D01*
Y13032D01*
X8915Y12648D01*
X9133Y12322D01*
X11948Y9507D01*
X11644Y8773D01*
X11525Y7874D01*
X11644Y6975D01*
X11991Y6137D01*
X12543Y5417D01*
X13263Y4865D01*
X14101Y4518D01*
X14568Y4456D01*
X14535Y3956D01*
X5465D01*
X5432Y4456D01*
X5899Y4518D01*
X6737Y4865D01*
X7457Y5417D01*
X8009Y6137D01*
X8356Y6975D01*
X8475Y7874D01*
X8356Y8773D01*
X8009Y9611D01*
X7457Y10331D01*
X6737Y10883D01*
X5899Y11230D01*
X5000Y11349D01*
X4101Y11230D01*
X3367Y10926D01*
X1003Y13290D01*
Y20669D01*
X927Y21053D01*
X864Y21148D01*
X900Y21296D01*
X1140Y21634D01*
X3770D01*
X3869Y21134D01*
D02*
G37*
G36*
X-30947Y23187D02*
X-30296Y22752D01*
X-29691Y22632D01*
X-29478Y22138D01*
X-30237Y21379D01*
X-30455Y21053D01*
X-30531Y20669D01*
Y12402D01*
X-30455Y12018D01*
X-30237Y11692D01*
X-28052Y9507D01*
X-28356Y8773D01*
X-28475Y7874D01*
X-28356Y6975D01*
X-28009Y6137D01*
X-27457Y5417D01*
X-26737Y4865D01*
X-25899Y4518D01*
X-25432Y4456D01*
X-25465Y3956D01*
X-34535D01*
X-34568Y4456D01*
X-34101Y4518D01*
X-33263Y4865D01*
X-32543Y5417D01*
X-31991Y6137D01*
X-31644Y6975D01*
X-31525Y7874D01*
X-31644Y8773D01*
X-31991Y9611D01*
X-32543Y10331D01*
X-33263Y10883D01*
X-34101Y11230D01*
X-35000Y11349D01*
X-35899Y11230D01*
X-36633Y10926D01*
X-39351Y13644D01*
Y20254D01*
X-36002Y23603D01*
X-31225D01*
X-30947Y23187D01*
D02*
G37*
G36*
X65267Y49456D02*
X68878Y45844D01*
Y44833D01*
X68378Y44681D01*
X68348Y44726D01*
X67697Y45161D01*
X66929Y45314D01*
X66161Y45161D01*
X65510Y44726D01*
X65232Y44311D01*
X62992D01*
X62608Y44234D01*
X62500Y44162D01*
X62283Y44017D01*
X61543Y43277D01*
X61043Y43484D01*
Y45844D01*
X64655Y49456D01*
X64717Y49487D01*
X65204D01*
X65267Y49456D01*
D02*
G37*
G36*
X54568Y11292D02*
X54101Y11230D01*
X53263Y10883D01*
X52543Y10331D01*
X51991Y9611D01*
X51644Y8773D01*
X51525Y7874D01*
X51644Y6975D01*
X51991Y6137D01*
X52543Y5417D01*
X53263Y4865D01*
X54101Y4518D01*
X54568Y4456D01*
X54535Y3956D01*
X45465D01*
X45432Y4456D01*
X45899Y4518D01*
X46737Y4865D01*
X47457Y5417D01*
X48009Y6137D01*
X48356Y6975D01*
X48475Y7874D01*
X48356Y8773D01*
X48009Y9611D01*
X47765Y9929D01*
X49628Y11792D01*
X54535D01*
X54568Y11292D01*
D02*
G37*
G36*
X23869Y21134D02*
X23263Y20883D01*
X22543Y20331D01*
X21991Y19611D01*
X21644Y18773D01*
X21525Y17874D01*
X21644Y16975D01*
X21991Y16137D01*
X22543Y15417D01*
X23263Y14865D01*
X24101Y14518D01*
X25000Y14400D01*
X25899Y14518D01*
X26737Y14865D01*
X27457Y15417D01*
X28009Y16137D01*
X28024Y16173D01*
X28524Y16073D01*
Y13347D01*
X28600Y12962D01*
X28818Y12637D01*
X31948Y9507D01*
X31644Y8773D01*
X31525Y7874D01*
X31644Y6975D01*
X31991Y6137D01*
X32543Y5417D01*
X33263Y4865D01*
X34101Y4518D01*
X34568Y4456D01*
X34535Y3956D01*
X25465D01*
X25432Y4456D01*
X25899Y4518D01*
X26737Y4865D01*
X27457Y5417D01*
X28009Y6137D01*
X28356Y6975D01*
X28475Y7874D01*
X28356Y8773D01*
X28009Y9611D01*
X27457Y10331D01*
X26737Y10883D01*
X25899Y11230D01*
X25000Y11349D01*
X24101Y11230D01*
X23367Y10926D01*
X20689Y13605D01*
Y20669D01*
X20612Y21053D01*
X20549Y21148D01*
X20585Y21296D01*
X20825Y21634D01*
X23769D01*
X23869Y21134D01*
D02*
G37*
G36*
X-20585Y23265D02*
X-20549Y23117D01*
X-20612Y23022D01*
X-20689Y22638D01*
Y12559D01*
X-20612Y12175D01*
X-20395Y11850D01*
X-18052Y9507D01*
X-18356Y8773D01*
X-18475Y7874D01*
X-18356Y6975D01*
X-18009Y6137D01*
X-17457Y5417D01*
X-16737Y4865D01*
X-15899Y4518D01*
X-15432Y4456D01*
X-15465Y3956D01*
X-24535D01*
X-24568Y4456D01*
X-24101Y4518D01*
X-23263Y4865D01*
X-22543Y5417D01*
X-21991Y6137D01*
X-21644Y6975D01*
X-21525Y7874D01*
X-21644Y8773D01*
X-21991Y9611D01*
X-22543Y10331D01*
X-23263Y10883D01*
X-24101Y11230D01*
X-25000Y11349D01*
X-25899Y11230D01*
X-26633Y10926D01*
X-28524Y12817D01*
Y16073D01*
X-28024Y16173D01*
X-28009Y16137D01*
X-27457Y15417D01*
X-26737Y14865D01*
X-25899Y14518D01*
X-25000Y14400D01*
X-24101Y14518D01*
X-23263Y14865D01*
X-22543Y15417D01*
X-21991Y16137D01*
X-21644Y16975D01*
X-21525Y17874D01*
X-21644Y18773D01*
X-21991Y19611D01*
X-22543Y20331D01*
X-23263Y20883D01*
X-24101Y21230D01*
X-25000Y21349D01*
X-25899Y21230D01*
X-26737Y20883D01*
X-27457Y20331D01*
X-28009Y19611D01*
X-28024Y19575D01*
X-28524Y19675D01*
Y20254D01*
X-25175Y23603D01*
X-20825D01*
X-20585Y23265D01*
D02*
G37*
G36*
X65510Y41888D02*
X66161Y41453D01*
X66929Y41300D01*
X67697Y41453D01*
X68348Y41888D01*
X68378Y41933D01*
X68878Y41781D01*
Y38802D01*
X65451Y35374D01*
X64961Y35472D01*
X64193Y35319D01*
X63541Y34884D01*
X63511Y34839D01*
X63011Y34991D01*
Y41907D01*
X63408Y42304D01*
X65232D01*
X65510Y41888D01*
D02*
G37*
G36*
X-19685Y283465D02*
Y271654D01*
X-5906Y257874D01*
X-5906Y206693D01*
X-7874Y204724D01*
X-27067Y204724D01*
Y204725D01*
X-27992D01*
X-28019Y204757D01*
X-28131Y204849D01*
X-28259Y204918D01*
X-28399Y204960D01*
X-28543Y204974D01*
X-28688Y204960D01*
X-28827Y204918D01*
X-28955Y204849D01*
X-29068Y204757D01*
X-29094Y204725D01*
X-30020D01*
Y204725D01*
X-30020D01*
X-30482Y204815D01*
X-30595Y204914D01*
X-30756Y205022D01*
X-30930Y205107D01*
X-31004Y205132D01*
Y203740D01*
X-31988D01*
Y205132D01*
X-32062Y205107D01*
X-32236Y205022D01*
X-32397Y204914D01*
X-32510Y204815D01*
X-32972Y204725D01*
X-32972Y204725D01*
X-32972Y204725D01*
X-33898D01*
X-33924Y204757D01*
X-34037Y204849D01*
X-34165Y204918D01*
X-34304Y204960D01*
X-34449Y204974D01*
X-34593Y204960D01*
X-34733Y204918D01*
X-34861Y204849D01*
X-34973Y204757D01*
X-35000Y204725D01*
X-35925D01*
X-35925Y204725D01*
Y204725D01*
X-36414Y204751D01*
Y214158D01*
X-34955Y215617D01*
X-34887Y215598D01*
X-34670Y215561D01*
X-34449Y215548D01*
X-34228Y215561D01*
X-34010Y215598D01*
X-33798Y215659D01*
X-33593Y215743D01*
X-33400Y215850D01*
X-33220Y215978D01*
X-33055Y216126D01*
X-32907Y216290D01*
X-32779Y216471D01*
X-32673Y216664D01*
X-32588Y216869D01*
X-32527Y217081D01*
X-32490Y217299D01*
X-32477Y217520D01*
X-32490Y217741D01*
X-32527Y217958D01*
X-32588Y218171D01*
X-32673Y218375D01*
X-32779Y218569D01*
X-32907Y218749D01*
X-33055Y218914D01*
X-33220Y219061D01*
X-33400Y219189D01*
X-33593Y219296D01*
X-33798Y219381D01*
X-34010Y219442D01*
X-34228Y219479D01*
X-34449Y219491D01*
X-34670Y219479D01*
X-34887Y219442D01*
X-35100Y219381D01*
X-35304Y219296D01*
X-35498Y219189D01*
X-35678Y219061D01*
X-35843Y218914D01*
X-35990Y218749D01*
X-36118Y218569D01*
X-36225Y218375D01*
X-36310Y218171D01*
X-36371Y217958D01*
X-36408Y217741D01*
X-36420Y217520D01*
X-36408Y217299D01*
X-36371Y217081D01*
X-36351Y217013D01*
X-37883Y215482D01*
X-38383Y215689D01*
Y217785D01*
X-38321Y217819D01*
X-38141Y217947D01*
X-37976Y218094D01*
X-37829Y218259D01*
X-37701Y218439D01*
X-37594Y218633D01*
X-37509Y218837D01*
X-37448Y219050D01*
X-37411Y219268D01*
X-37398Y219488D01*
X-37411Y219709D01*
X-37448Y219927D01*
X-37509Y220139D01*
X-37594Y220344D01*
X-37701Y220537D01*
X-37829Y220718D01*
X-37976Y220882D01*
X-38141Y221030D01*
X-38321Y221158D01*
X-38515Y221265D01*
X-38719Y221349D01*
X-38931Y221410D01*
X-39149Y221447D01*
X-39370Y221460D01*
X-39591Y221447D01*
X-39809Y221410D01*
X-40021Y221349D01*
X-40225Y221265D01*
X-40419Y221158D01*
X-40599Y221030D01*
X-40764Y220882D01*
X-40911Y220718D01*
X-41039Y220537D01*
X-41146Y220344D01*
X-41231Y220139D01*
X-41292Y219927D01*
X-41329Y219709D01*
X-41342Y219488D01*
X-41329Y219268D01*
X-41292Y219050D01*
X-41231Y218837D01*
X-41146Y218633D01*
X-41039Y218439D01*
X-40911Y218259D01*
X-40764Y218094D01*
X-40599Y217947D01*
X-40419Y217819D01*
X-40357Y217785D01*
Y213721D01*
X-40857Y213513D01*
X-44357Y217013D01*
X-44338Y217081D01*
X-44301Y217299D01*
X-44288Y217520D01*
X-44301Y217741D01*
X-44338Y217958D01*
X-44399Y218171D01*
X-44484Y218375D01*
X-44590Y218569D01*
X-44718Y218749D01*
X-44866Y218914D01*
X-45031Y219061D01*
X-45211Y219189D01*
X-45404Y219296D01*
X-45609Y219381D01*
X-45821Y219442D01*
X-46039Y219479D01*
X-46260Y219491D01*
X-46481Y219479D01*
X-46699Y219442D01*
X-46911Y219381D01*
X-47115Y219296D01*
X-47309Y219189D01*
X-47489Y219061D01*
X-47654Y218914D01*
X-47801Y218749D01*
X-47929Y218569D01*
X-48036Y218375D01*
X-48121Y218171D01*
X-48182Y217958D01*
X-48219Y217741D01*
X-48231Y217520D01*
X-48219Y217299D01*
X-48182Y217081D01*
X-48121Y216869D01*
X-48036Y216664D01*
X-47929Y216471D01*
X-47801Y216290D01*
X-47654Y216126D01*
X-47489Y215978D01*
X-47309Y215850D01*
X-47115Y215743D01*
X-46911Y215659D01*
X-46699Y215598D01*
X-46481Y215561D01*
X-46260Y215548D01*
X-46039Y215561D01*
X-45821Y215598D01*
X-45753Y215617D01*
X-42326Y212190D01*
Y205078D01*
X-42679Y204724D01*
X-44864D01*
X-48225Y208086D01*
Y209911D01*
X-48164Y209945D01*
X-47983Y210073D01*
X-47818Y210220D01*
X-47671Y210385D01*
X-47543Y210565D01*
X-47436Y210759D01*
X-47352Y210963D01*
X-47290Y211175D01*
X-47253Y211393D01*
X-47241Y211614D01*
X-47253Y211835D01*
X-47290Y212053D01*
X-47352Y212265D01*
X-47436Y212470D01*
X-47543Y212663D01*
X-47671Y212843D01*
X-47818Y213008D01*
X-47983Y213156D01*
X-48164Y213284D01*
X-48357Y213391D01*
X-48561Y213475D01*
X-48774Y213536D01*
X-48992Y213573D01*
X-49213Y213586D01*
X-49433Y213573D01*
X-49651Y213536D01*
X-49864Y213475D01*
X-50068Y213391D01*
X-50261Y213284D01*
X-50442Y213156D01*
X-50607Y213008D01*
X-50771D01*
X-50936Y213156D01*
X-51116Y213284D01*
X-51310Y213391D01*
X-51514Y213475D01*
X-51727Y213536D01*
X-51945Y213573D01*
X-52165Y213586D01*
X-52386Y213573D01*
X-52604Y213536D01*
X-52816Y213475D01*
X-53021Y213391D01*
X-53214Y213284D01*
X-53395Y213156D01*
X-53559Y213008D01*
X-53707Y212843D01*
X-53835Y212663D01*
X-53942Y212470D01*
X-54026Y212265D01*
X-54088Y212053D01*
X-54124Y211835D01*
X-54137Y211614D01*
X-54124Y211393D01*
X-54088Y211175D01*
X-54026Y210963D01*
X-53942Y210759D01*
X-53835Y210565D01*
X-53707Y210385D01*
X-53559Y210220D01*
X-53395Y210073D01*
X-53214Y209945D01*
X-53153Y209911D01*
Y207677D01*
X-53140Y207523D01*
X-53104Y207372D01*
X-53045Y207229D01*
X-52964Y207097D01*
X-52864Y206979D01*
X-50403Y204519D01*
X-51178Y203743D01*
X-52430D01*
X-52464Y203805D01*
X-52592Y203985D01*
X-52740Y204150D01*
X-52905Y204297D01*
X-53085Y204425D01*
X-53278Y204532D01*
X-53483Y204617D01*
X-53695Y204678D01*
X-53913Y204715D01*
X-54134Y204728D01*
X-54355Y204715D01*
X-54573Y204678D01*
X-54785Y204617D01*
X-54989Y204532D01*
X-55183Y204425D01*
X-55363Y204297D01*
X-55528Y204150D01*
X-55675Y203985D01*
X-55803Y203805D01*
X-55910Y203611D01*
X-55995Y203407D01*
X-56056Y203195D01*
X-56093Y202977D01*
X-56106Y202756D01*
X-56093Y202535D01*
X-56056Y202317D01*
X-55995Y202105D01*
X-55910Y201901D01*
X-55803Y201707D01*
X-55675Y201527D01*
X-55528Y201362D01*
X-55363Y201215D01*
X-55183Y201087D01*
X-55152Y201069D01*
X-55110Y200949D01*
Y200626D01*
X-55152Y200506D01*
X-55183Y200488D01*
X-55363Y200360D01*
X-55528Y200213D01*
X-55675Y200048D01*
X-55803Y199868D01*
X-55910Y199674D01*
X-55995Y199470D01*
X-56056Y199258D01*
X-56093Y199040D01*
X-56106Y198819D01*
X-56093Y198598D01*
X-56056Y198380D01*
X-55995Y198168D01*
X-55910Y197964D01*
X-55803Y197770D01*
X-55675Y197590D01*
X-55528Y197425D01*
X-55363Y197277D01*
X-55183Y197150D01*
X-55152Y197132D01*
X-55110Y197012D01*
Y196689D01*
X-55152Y196569D01*
X-55183Y196551D01*
X-55363Y196423D01*
X-55528Y196276D01*
X-55675Y196111D01*
X-55803Y195931D01*
X-55910Y195737D01*
X-55995Y195533D01*
X-56056Y195321D01*
X-56093Y195103D01*
X-56106Y194882D01*
X-56093Y194661D01*
X-56056Y194443D01*
X-55995Y194231D01*
X-55910Y194027D01*
X-55803Y193833D01*
X-55675Y193653D01*
X-55528Y193488D01*
X-55363Y193341D01*
X-55183Y193212D01*
X-54989Y193106D01*
X-54785Y193021D01*
X-54573Y192960D01*
X-54355Y192923D01*
X-54137Y192911D01*
Y179543D01*
X-54832Y178848D01*
X-54933Y178730D01*
X-55014Y178598D01*
X-55073Y178455D01*
X-55109Y178304D01*
X-55121Y178150D01*
Y162137D01*
X-55183Y162102D01*
X-55363Y161975D01*
X-55528Y161827D01*
X-55675Y161662D01*
X-55803Y161482D01*
X-55910Y161289D01*
X-55995Y161084D01*
X-56056Y160872D01*
X-56093Y160654D01*
X-56106Y160433D01*
X-56093Y160212D01*
X-56056Y159994D01*
X-55995Y159782D01*
X-55910Y159578D01*
X-55803Y159384D01*
X-55675Y159204D01*
X-55528Y159039D01*
X-55363Y158892D01*
X-55183Y158764D01*
X-54989Y158657D01*
X-54785Y158572D01*
X-54745Y158561D01*
X-54586Y158144D01*
X-54592Y158007D01*
X-55118Y157480D01*
X-70866D01*
X-72835Y159449D01*
Y257874D01*
X-59055Y271654D01*
Y283465D01*
X-57087Y285433D01*
X-21654Y285433D01*
X-19685Y283465D01*
D02*
G37*
G36*
X67478Y32045D02*
X68130Y31610D01*
X68898Y31457D01*
X69666Y31610D01*
X70317Y32045D01*
X70347Y32090D01*
X70847Y31939D01*
Y27288D01*
X70431Y27010D01*
X69996Y26359D01*
X69873Y25740D01*
X69502Y25517D01*
X69355Y25485D01*
X69282Y25534D01*
X68898Y25610D01*
X64392D01*
X63011Y26991D01*
Y31939D01*
X63511Y32090D01*
X63541Y32045D01*
X64193Y31610D01*
X64961Y31457D01*
X65729Y31610D01*
X66380Y32045D01*
X66628Y32418D01*
X67230D01*
X67478Y32045D01*
D02*
G37*
G36*
X-14458Y25834D02*
X-10846Y22222D01*
Y12717D01*
X-10770Y12333D01*
X-10552Y12007D01*
X-8052Y9507D01*
X-8356Y8773D01*
X-8475Y7874D01*
X-8356Y6975D01*
X-8009Y6137D01*
X-7457Y5417D01*
X-6737Y4865D01*
X-5899Y4518D01*
X-5432Y4456D01*
X-5465Y3956D01*
X-14535D01*
X-14568Y4456D01*
X-14101Y4518D01*
X-13263Y4865D01*
X-12543Y5417D01*
X-11991Y6137D01*
X-11644Y6975D01*
X-11525Y7874D01*
X-11644Y8773D01*
X-11991Y9611D01*
X-12543Y10331D01*
X-13263Y10883D01*
X-14101Y11230D01*
X-15000Y11349D01*
X-15899Y11230D01*
X-16633Y10926D01*
X-18681Y12975D01*
Y16454D01*
X-18181Y16553D01*
X-18009Y16137D01*
X-17457Y15417D01*
X-16737Y14865D01*
X-15899Y14518D01*
X-15000Y14400D01*
X-14101Y14518D01*
X-13263Y14865D01*
X-12543Y15417D01*
X-11991Y16137D01*
X-11644Y16975D01*
X-11525Y17874D01*
X-11644Y18773D01*
X-11991Y19611D01*
X-12543Y20331D01*
X-13263Y20883D01*
X-14101Y21230D01*
X-15000Y21349D01*
X-15899Y21230D01*
X-16737Y20883D01*
X-17457Y20331D01*
X-18009Y19611D01*
X-18181Y19195D01*
X-18681Y19295D01*
Y22222D01*
X-15070Y25834D01*
X-15007Y25865D01*
X-14520D01*
X-14458Y25834D01*
D02*
G37*
G36*
X-1003Y20254D02*
Y12874D01*
X-927Y12490D01*
X-710Y12165D01*
X1948Y9507D01*
X1644Y8773D01*
X1525Y7874D01*
X1644Y6975D01*
X1991Y6137D01*
X2543Y5417D01*
X3263Y4865D01*
X4101Y4518D01*
X4568Y4456D01*
X4535Y3956D01*
X-4535D01*
X-4568Y4456D01*
X-4101Y4518D01*
X-3263Y4865D01*
X-2543Y5417D01*
X-1991Y6137D01*
X-1644Y6975D01*
X-1525Y7874D01*
X-1644Y8773D01*
X-1991Y9611D01*
X-2543Y10331D01*
X-3263Y10883D01*
X-4101Y11230D01*
X-5000Y11349D01*
X-5899Y11230D01*
X-6633Y10926D01*
X-8839Y13132D01*
Y16887D01*
X-8356Y16975D01*
X-8009Y16137D01*
X-7457Y15417D01*
X-6737Y14865D01*
X-5899Y14518D01*
X-5000Y14400D01*
X-4101Y14518D01*
X-3263Y14865D01*
X-2543Y15417D01*
X-1991Y16137D01*
X-1644Y16975D01*
X-1525Y17874D01*
X-1644Y18773D01*
X-1991Y19611D01*
X-2543Y20331D01*
X-3263Y20883D01*
X-3869Y21134D01*
X-3770Y21634D01*
X-2384D01*
X-1003Y20254D01*
D02*
G37*
G36*
X57393Y23866D02*
X59036Y22222D01*
Y15179D01*
X57655Y13799D01*
X49213D01*
X48829Y13723D01*
X48503Y13505D01*
X46132Y11134D01*
X45899Y11230D01*
X45000Y11349D01*
X44101Y11230D01*
X43263Y10883D01*
X42543Y10331D01*
X41991Y9611D01*
X41644Y8773D01*
X41525Y7874D01*
X41644Y6975D01*
X41991Y6137D01*
X42543Y5417D01*
X43263Y4865D01*
X44101Y4518D01*
X44568Y4456D01*
X44535Y3956D01*
X35465D01*
X35432Y4456D01*
X35899Y4518D01*
X36737Y4865D01*
X37457Y5417D01*
X38009Y6137D01*
X38356Y6975D01*
X38475Y7874D01*
X38356Y8773D01*
X38009Y9611D01*
X37457Y10331D01*
X36737Y10883D01*
X35899Y11230D01*
X35000Y11349D01*
X34101Y11230D01*
X33367Y10926D01*
X30531Y13762D01*
Y20669D01*
X30455Y21053D01*
X30237Y21379D01*
X28513Y23103D01*
X28720Y23603D01*
X36240D01*
X36447Y23103D01*
X34647Y21302D01*
X34101Y21230D01*
X33263Y20883D01*
X32543Y20331D01*
X31991Y19611D01*
X31644Y18773D01*
X31525Y17874D01*
X31644Y16975D01*
X31991Y16137D01*
X32543Y15417D01*
X33263Y14865D01*
X34101Y14518D01*
X35000Y14400D01*
X35899Y14518D01*
X36737Y14865D01*
X37457Y15417D01*
X38009Y16137D01*
X38356Y16975D01*
X38475Y17874D01*
X38356Y18773D01*
X38009Y19611D01*
X37457Y20331D01*
X37224Y20510D01*
X37192Y21009D01*
X37817Y21634D01*
X43769D01*
X43869Y21134D01*
X43263Y20883D01*
X42543Y20331D01*
X41991Y19611D01*
X41644Y18773D01*
X41525Y17874D01*
X41644Y16975D01*
X41991Y16137D01*
X42543Y15417D01*
X43263Y14865D01*
X44101Y14518D01*
X45000Y14400D01*
X45899Y14518D01*
X46737Y14865D01*
X47457Y15417D01*
X48009Y16137D01*
X48356Y16975D01*
X48475Y17874D01*
X48356Y18773D01*
X48009Y19611D01*
X47457Y20331D01*
X46737Y20883D01*
X46131Y21134D01*
X46231Y21634D01*
X53770D01*
X53869Y21134D01*
X53263Y20883D01*
X52543Y20331D01*
X51991Y19611D01*
X51644Y18773D01*
X51525Y17874D01*
X51644Y16975D01*
X51991Y16137D01*
X52543Y15417D01*
X53263Y14865D01*
X54101Y14518D01*
X55000Y14400D01*
X55899Y14518D01*
X56737Y14865D01*
X57457Y15417D01*
X58009Y16137D01*
X58356Y16975D01*
X58475Y17874D01*
X58356Y18773D01*
X58009Y19611D01*
X57457Y20331D01*
X56737Y20883D01*
X55899Y21230D01*
X55000Y21349D01*
X54846Y21328D01*
X54665Y21809D01*
X54843Y21928D01*
X56781Y23866D01*
X56843Y23897D01*
X57330D01*
X57393Y23866D01*
D02*
G37*
%LPC*%
G36*
X-35000Y21349D02*
X-35899Y21230D01*
X-36737Y20883D01*
X-37457Y20331D01*
X-38009Y19611D01*
X-38356Y18773D01*
X-38475Y17874D01*
X-38356Y16975D01*
X-38009Y16137D01*
X-37457Y15417D01*
X-36737Y14865D01*
X-35899Y14518D01*
X-35000Y14400D01*
X-34101Y14518D01*
X-33263Y14865D01*
X-32543Y15417D01*
X-31991Y16137D01*
X-31644Y16975D01*
X-31525Y17874D01*
X-31644Y18773D01*
X-31991Y19611D01*
X-32543Y20331D01*
X-33263Y20883D01*
X-34101Y21230D01*
X-35000Y21349D01*
D02*
G37*
G36*
X-36909Y226786D02*
Y225886D01*
X-36009D01*
X-36035Y225960D01*
X-36120Y226133D01*
X-36228Y226294D01*
X-36355Y226440D01*
X-36501Y226568D01*
X-36662Y226675D01*
X-36835Y226761D01*
X-36909Y226786D01*
D02*
G37*
G36*
X-37894D02*
X-37968Y226761D01*
X-38141Y226675D01*
X-38302Y226568D01*
X-38448Y226440D01*
X-38575Y226294D01*
X-38683Y226133D01*
X-38769Y225960D01*
X-38794Y225886D01*
X-37894D01*
Y226786D01*
D02*
G37*
G36*
X-8366Y225802D02*
Y224902D01*
X-7466D01*
X-7491Y224976D01*
X-7577Y225149D01*
X-7684Y225310D01*
X-7812Y225456D01*
X-7958Y225583D01*
X-8118Y225691D01*
X-8292Y225776D01*
X-8366Y225802D01*
D02*
G37*
G36*
X-43799Y228839D02*
X-44699D01*
X-44674Y228765D01*
X-44588Y228591D01*
X-44481Y228430D01*
X-44353Y228285D01*
X-44208Y228157D01*
X-44047Y228049D01*
X-43873Y227964D01*
X-43799Y227939D01*
Y228839D01*
D02*
G37*
G36*
X-42815Y230723D02*
Y229823D01*
X-41915D01*
X-41940Y229897D01*
X-42026Y230070D01*
X-42133Y230231D01*
X-42261Y230377D01*
X-42406Y230505D01*
X-42567Y230612D01*
X-42741Y230698D01*
X-42815Y230723D01*
D02*
G37*
G36*
X-43799D02*
X-43873Y230698D01*
X-44047Y230612D01*
X-44208Y230505D01*
X-44353Y230377D01*
X-44481Y230231D01*
X-44588Y230070D01*
X-44674Y229897D01*
X-44699Y229823D01*
X-43799D01*
Y230723D01*
D02*
G37*
G36*
X-41915Y228839D02*
X-42815D01*
Y227939D01*
X-42741Y227964D01*
X-42567Y228049D01*
X-42406Y228157D01*
X-42261Y228285D01*
X-42133Y228430D01*
X-42026Y228591D01*
X-41940Y228765D01*
X-41915Y228839D01*
D02*
G37*
G36*
X-37894Y224902D02*
X-38794D01*
X-38769Y224828D01*
X-38683Y224654D01*
X-38575Y224493D01*
X-38448Y224348D01*
X-38302Y224220D01*
X-38141Y224112D01*
X-37968Y224027D01*
X-37894Y224002D01*
Y224902D01*
D02*
G37*
G36*
X-7466Y223917D02*
X-8366D01*
Y223017D01*
X-8292Y223043D01*
X-8118Y223128D01*
X-7958Y223236D01*
X-7812Y223363D01*
X-7684Y223509D01*
X-7577Y223670D01*
X-7491Y223843D01*
X-7466Y223917D01*
D02*
G37*
G36*
X-9350D02*
X-10250D01*
X-10225Y223843D01*
X-10140Y223670D01*
X-10032Y223509D01*
X-9905Y223363D01*
X-9759Y223236D01*
X-9598Y223128D01*
X-9425Y223043D01*
X-9350Y223017D01*
Y223917D01*
D02*
G37*
G36*
X-36009Y224902D02*
X-36909D01*
Y224002D01*
X-36835Y224027D01*
X-36662Y224112D01*
X-36501Y224220D01*
X-36355Y224348D01*
X-36228Y224493D01*
X-36120Y224654D01*
X-36035Y224828D01*
X-36009Y224902D01*
D02*
G37*
G36*
X-9350Y225802D02*
X-9425Y225776D01*
X-9598Y225691D01*
X-9759Y225583D01*
X-9905Y225456D01*
X-10032Y225310D01*
X-10140Y225149D01*
X-10225Y224976D01*
X-10250Y224902D01*
X-9350D01*
Y225802D01*
D02*
G37*
G36*
X-69390D02*
Y224902D01*
X-68490D01*
X-68515Y224976D01*
X-68601Y225149D01*
X-68708Y225310D01*
X-68836Y225456D01*
X-68981Y225583D01*
X-69142Y225691D01*
X-69316Y225776D01*
X-69390Y225802D01*
D02*
G37*
G36*
X-70374D02*
X-70448Y225776D01*
X-70622Y225691D01*
X-70783Y225583D01*
X-70928Y225456D01*
X-71056Y225310D01*
X-71163Y225149D01*
X-71249Y224976D01*
X-71274Y224902D01*
X-70374D01*
Y225802D01*
D02*
G37*
G36*
Y231791D02*
X-71274D01*
X-71249Y231717D01*
X-71163Y231544D01*
X-71056Y231383D01*
X-70928Y231237D01*
X-70783Y231110D01*
X-70622Y231002D01*
X-70448Y230917D01*
X-70374Y230891D01*
Y231791D01*
D02*
G37*
G36*
X-31496Y281007D02*
X-31797Y280994D01*
X-32095Y280955D01*
X-32388Y280890D01*
X-32675Y280799D01*
X-32953Y280684D01*
X-33220Y280545D01*
X-33474Y280384D01*
X-33713Y280201D01*
X-33934Y279997D01*
X-34137Y279776D01*
X-34321Y279537D01*
X-34482Y279283D01*
X-34621Y279016D01*
X-34736Y278738D01*
X-34827Y278452D01*
X-34892Y278158D01*
X-34931Y277860D01*
X-34944Y277559D01*
Y273622D01*
X-34931Y273322D01*
X-34892Y273023D01*
X-34827Y272730D01*
X-34736Y272443D01*
X-34621Y272165D01*
X-34482Y271898D01*
X-34321Y271644D01*
X-34137Y271406D01*
X-33934Y271184D01*
X-33713Y270981D01*
X-33474Y270797D01*
X-33220Y270636D01*
X-32953Y270497D01*
X-32675Y270382D01*
X-32388Y270291D01*
X-32095Y270226D01*
X-31797Y270187D01*
X-31496Y270174D01*
X-31196Y270187D01*
X-30897Y270226D01*
X-30604Y270291D01*
X-30317Y270382D01*
X-30039Y270497D01*
X-29772Y270636D01*
X-29518Y270797D01*
X-29280Y270981D01*
X-29058Y271184D01*
X-28855Y271406D01*
X-28672Y271644D01*
X-28510Y271898D01*
X-28371Y272165D01*
X-28256Y272443D01*
X-28165Y272730D01*
X-28100Y273023D01*
X-28061Y273322D01*
X-28048Y273622D01*
Y277559D01*
X-28061Y277860D01*
X-28100Y278158D01*
X-28165Y278452D01*
X-28256Y278738D01*
X-28371Y279016D01*
X-28510Y279283D01*
X-28672Y279537D01*
X-28855Y279776D01*
X-29058Y279997D01*
X-29280Y280201D01*
X-29518Y280384D01*
X-29772Y280545D01*
X-30039Y280684D01*
X-30317Y280799D01*
X-30604Y280890D01*
X-30897Y280955D01*
X-31196Y280994D01*
X-31496Y281007D01*
D02*
G37*
G36*
X-47244D02*
X-47545Y280994D01*
X-47843Y280955D01*
X-48136Y280890D01*
X-48423Y280799D01*
X-48701Y280684D01*
X-48968Y280545D01*
X-49222Y280384D01*
X-49461Y280201D01*
X-49682Y279997D01*
X-49885Y279776D01*
X-50069Y279537D01*
X-50230Y279283D01*
X-50369Y279016D01*
X-50484Y278738D01*
X-50575Y278452D01*
X-50640Y278158D01*
X-50679Y277860D01*
X-50692Y277559D01*
Y273622D01*
X-50679Y273322D01*
X-50640Y273023D01*
X-50575Y272730D01*
X-50484Y272443D01*
X-50369Y272165D01*
X-50230Y271898D01*
X-50069Y271644D01*
X-49885Y271406D01*
X-49682Y271184D01*
X-49461Y270981D01*
X-49222Y270797D01*
X-48968Y270636D01*
X-48701Y270497D01*
X-48423Y270382D01*
X-48136Y270291D01*
X-47843Y270226D01*
X-47545Y270187D01*
X-47244Y270174D01*
X-46944Y270187D01*
X-46645Y270226D01*
X-46352Y270291D01*
X-46065Y270382D01*
X-45787Y270497D01*
X-45520Y270636D01*
X-45266Y270797D01*
X-45028Y270981D01*
X-44806Y271184D01*
X-44603Y271406D01*
X-44420Y271644D01*
X-44258Y271898D01*
X-44119Y272165D01*
X-44004Y272443D01*
X-43913Y272730D01*
X-43848Y273023D01*
X-43809Y273322D01*
X-43796Y273622D01*
Y277559D01*
X-43809Y277860D01*
X-43848Y278158D01*
X-43913Y278452D01*
X-44004Y278738D01*
X-44119Y279016D01*
X-44258Y279283D01*
X-44420Y279537D01*
X-44603Y279776D01*
X-44806Y279997D01*
X-45028Y280201D01*
X-45266Y280384D01*
X-45520Y280545D01*
X-45787Y280684D01*
X-46065Y280799D01*
X-46352Y280890D01*
X-46645Y280955D01*
X-46944Y280994D01*
X-47244Y281007D01*
D02*
G37*
G36*
X-69390Y241550D02*
Y240650D01*
X-68490D01*
X-68515Y240724D01*
X-68601Y240897D01*
X-68708Y241058D01*
X-68836Y241204D01*
X-68981Y241331D01*
X-69142Y241439D01*
X-69316Y241525D01*
X-69390Y241550D01*
D02*
G37*
G36*
X-39862Y275098D02*
X-42818D01*
Y273622D01*
X-42805Y273322D01*
X-42766Y273023D01*
X-42701Y272730D01*
X-42610Y272443D01*
X-42495Y272165D01*
X-42356Y271898D01*
X-42195Y271644D01*
X-42011Y271406D01*
X-41808Y271184D01*
X-41587Y270981D01*
X-41348Y270797D01*
X-41094Y270636D01*
X-40827Y270497D01*
X-40549Y270382D01*
X-40262Y270291D01*
X-39969Y270226D01*
X-39862Y270212D01*
Y275098D01*
D02*
G37*
G36*
X-38878Y280969D02*
Y276083D01*
X-35922D01*
Y277559D01*
X-35935Y277860D01*
X-35974Y278158D01*
X-36039Y278452D01*
X-36130Y278738D01*
X-36245Y279016D01*
X-36384Y279283D01*
X-36546Y279537D01*
X-36729Y279776D01*
X-36932Y279997D01*
X-37154Y280201D01*
X-37392Y280384D01*
X-37646Y280545D01*
X-37913Y280684D01*
X-38191Y280799D01*
X-38478Y280890D01*
X-38771Y280955D01*
X-38878Y280969D01*
D02*
G37*
G36*
X-39862D02*
X-39969Y280955D01*
X-40262Y280890D01*
X-40549Y280799D01*
X-40827Y280684D01*
X-41094Y280545D01*
X-41348Y280384D01*
X-41587Y280201D01*
X-41808Y279997D01*
X-42011Y279776D01*
X-42195Y279537D01*
X-42356Y279283D01*
X-42495Y279016D01*
X-42610Y278738D01*
X-42701Y278452D01*
X-42766Y278158D01*
X-42805Y277860D01*
X-42818Y277559D01*
Y276083D01*
X-39862D01*
Y280969D01*
D02*
G37*
G36*
X-35922Y275098D02*
X-38878D01*
Y270212D01*
X-38771Y270226D01*
X-38478Y270291D01*
X-38191Y270382D01*
X-37913Y270497D01*
X-37646Y270636D01*
X-37392Y270797D01*
X-37154Y270981D01*
X-36932Y271184D01*
X-36729Y271406D01*
X-36546Y271644D01*
X-36384Y271898D01*
X-36245Y272165D01*
X-36130Y272443D01*
X-36039Y272730D01*
X-35974Y273023D01*
X-35935Y273322D01*
X-35922Y273622D01*
Y275098D01*
D02*
G37*
G36*
X-69390Y233676D02*
Y232776D01*
X-68490D01*
X-68515Y232850D01*
X-68601Y233023D01*
X-68708Y233184D01*
X-68836Y233330D01*
X-68981Y233457D01*
X-69142Y233565D01*
X-69316Y233650D01*
X-69390Y233676D01*
D02*
G37*
G36*
X-70374D02*
X-70448Y233650D01*
X-70622Y233565D01*
X-70783Y233457D01*
X-70928Y233330D01*
X-71056Y233184D01*
X-71163Y233023D01*
X-71249Y232850D01*
X-71274Y232776D01*
X-70374D01*
Y233676D01*
D02*
G37*
G36*
X-68490Y231791D02*
X-69390D01*
Y230891D01*
X-69316Y230917D01*
X-69142Y231002D01*
X-68981Y231110D01*
X-68836Y231237D01*
X-68708Y231383D01*
X-68601Y231544D01*
X-68515Y231717D01*
X-68490Y231791D01*
D02*
G37*
G36*
X-24606Y246063D02*
X-54134D01*
Y234252D01*
X-47047D01*
X-44291Y237008D01*
X-34449D01*
X-31693Y234252D01*
X-24606D01*
Y246063D01*
D02*
G37*
G36*
X-70374Y241550D02*
X-70448Y241525D01*
X-70622Y241439D01*
X-70783Y241331D01*
X-70928Y241204D01*
X-71056Y241058D01*
X-71163Y240897D01*
X-71249Y240724D01*
X-71274Y240650D01*
X-70374D01*
Y241550D01*
D02*
G37*
G36*
X-68490Y239665D02*
X-69390D01*
Y238766D01*
X-69316Y238791D01*
X-69142Y238876D01*
X-68981Y238984D01*
X-68836Y239111D01*
X-68708Y239257D01*
X-68601Y239418D01*
X-68515Y239591D01*
X-68490Y239665D01*
D02*
G37*
G36*
X-70374D02*
X-71274D01*
X-71249Y239591D01*
X-71163Y239418D01*
X-71056Y239257D01*
X-70928Y239111D01*
X-70783Y238984D01*
X-70622Y238876D01*
X-70448Y238791D01*
X-70374Y238766D01*
Y239665D01*
D02*
G37*
G36*
X-68490Y223917D02*
X-69390D01*
Y223017D01*
X-69316Y223043D01*
X-69142Y223128D01*
X-68981Y223236D01*
X-68836Y223363D01*
X-68708Y223509D01*
X-68601Y223670D01*
X-68515Y223843D01*
X-68490Y223917D01*
D02*
G37*
G36*
Y196358D02*
X-69390D01*
Y195458D01*
X-69316Y195484D01*
X-69142Y195569D01*
X-68981Y195677D01*
X-68836Y195804D01*
X-68708Y195950D01*
X-68601Y196111D01*
X-68515Y196284D01*
X-68490Y196358D01*
D02*
G37*
G36*
X-70374D02*
X-71274D01*
X-71249Y196284D01*
X-71163Y196111D01*
X-71056Y195950D01*
X-70928Y195804D01*
X-70783Y195677D01*
X-70622Y195569D01*
X-70448Y195484D01*
X-70374Y195458D01*
Y196358D01*
D02*
G37*
G36*
X-62500Y182494D02*
Y181595D01*
X-61600D01*
X-61625Y181669D01*
X-61711Y181842D01*
X-61818Y182003D01*
X-61946Y182149D01*
X-62091Y182276D01*
X-62252Y182384D01*
X-62426Y182469D01*
X-62500Y182494D01*
D02*
G37*
G36*
X-70374Y198242D02*
X-70448Y198217D01*
X-70622Y198132D01*
X-70783Y198024D01*
X-70928Y197897D01*
X-71056Y197751D01*
X-71163Y197590D01*
X-71249Y197417D01*
X-71274Y197343D01*
X-70374D01*
Y198242D01*
D02*
G37*
G36*
X-68490Y208169D02*
X-69390D01*
Y207269D01*
X-69316Y207295D01*
X-69142Y207380D01*
X-68981Y207488D01*
X-68836Y207615D01*
X-68708Y207761D01*
X-68601Y207922D01*
X-68515Y208095D01*
X-68490Y208169D01*
D02*
G37*
G36*
X-70374D02*
X-71274D01*
X-71249Y208095D01*
X-71163Y207922D01*
X-71056Y207761D01*
X-70928Y207615D01*
X-70783Y207488D01*
X-70622Y207380D01*
X-70448Y207295D01*
X-70374Y207269D01*
Y208169D01*
D02*
G37*
G36*
X-69390Y198242D02*
Y197343D01*
X-68490D01*
X-68515Y197417D01*
X-68601Y197590D01*
X-68708Y197751D01*
X-68836Y197897D01*
X-68981Y198024D01*
X-69142Y198132D01*
X-69316Y198217D01*
X-69390Y198242D01*
D02*
G37*
G36*
X-60532Y161825D02*
X-60606Y161800D01*
X-60779Y161714D01*
X-60940Y161607D01*
X-61086Y161479D01*
X-61213Y161334D01*
X-61321Y161173D01*
X-61406Y160999D01*
X-61431Y160925D01*
X-60532D01*
Y161825D01*
D02*
G37*
G36*
X-58647Y159941D02*
X-59547D01*
Y159041D01*
X-59473Y159066D01*
X-59300Y159152D01*
X-59139Y159259D01*
X-58993Y159387D01*
X-58866Y159532D01*
X-58758Y159693D01*
X-58672Y159867D01*
X-58647Y159941D01*
D02*
G37*
G36*
X-60532D02*
X-61431D01*
X-61406Y159867D01*
X-61321Y159693D01*
X-61213Y159532D01*
X-61086Y159387D01*
X-60940Y159259D01*
X-60779Y159152D01*
X-60606Y159066D01*
X-60532Y159041D01*
Y159941D01*
D02*
G37*
G36*
X-59547Y161825D02*
Y160925D01*
X-58647D01*
X-58672Y160999D01*
X-58758Y161173D01*
X-58866Y161334D01*
X-58993Y161479D01*
X-59139Y161607D01*
X-59300Y161714D01*
X-59473Y161800D01*
X-59547Y161825D01*
D02*
G37*
G36*
X-63484Y182494D02*
X-63558Y182469D01*
X-63732Y182384D01*
X-63893Y182276D01*
X-64038Y182149D01*
X-64166Y182003D01*
X-64274Y181842D01*
X-64359Y181669D01*
X-64384Y181595D01*
X-63484D01*
Y182494D01*
D02*
G37*
G36*
X-61600Y180610D02*
X-62500D01*
Y179710D01*
X-62426Y179736D01*
X-62252Y179821D01*
X-62091Y179929D01*
X-61946Y180056D01*
X-61818Y180202D01*
X-61711Y180363D01*
X-61625Y180536D01*
X-61600Y180610D01*
D02*
G37*
G36*
X-63484D02*
X-64384D01*
X-64359Y180536D01*
X-64274Y180363D01*
X-64166Y180202D01*
X-64038Y180056D01*
X-63893Y179929D01*
X-63732Y179821D01*
X-63558Y179736D01*
X-63484Y179710D01*
Y180610D01*
D02*
G37*
G36*
X-9350Y208169D02*
X-10250D01*
X-10225Y208095D01*
X-10140Y207922D01*
X-10032Y207761D01*
X-9905Y207615D01*
X-9759Y207488D01*
X-9598Y207380D01*
X-9425Y207295D01*
X-9350Y207269D01*
Y208169D01*
D02*
G37*
G36*
X-70374Y217928D02*
X-70448Y217902D01*
X-70622Y217817D01*
X-70783Y217709D01*
X-70928Y217582D01*
X-71056Y217436D01*
X-71163Y217275D01*
X-71249Y217102D01*
X-71274Y217028D01*
X-70374D01*
Y217928D01*
D02*
G37*
G36*
X-7466Y216043D02*
X-8366D01*
Y215143D01*
X-8292Y215169D01*
X-8118Y215254D01*
X-7958Y215362D01*
X-7812Y215489D01*
X-7684Y215635D01*
X-7577Y215796D01*
X-7491Y215969D01*
X-7466Y216043D01*
D02*
G37*
G36*
X-9350D02*
X-10250D01*
X-10225Y215969D01*
X-10140Y215796D01*
X-10032Y215635D01*
X-9905Y215489D01*
X-9759Y215362D01*
X-9598Y215254D01*
X-9425Y215169D01*
X-9350Y215143D01*
Y216043D01*
D02*
G37*
G36*
X-69390Y217928D02*
Y217028D01*
X-68490D01*
X-68515Y217102D01*
X-68601Y217275D01*
X-68708Y217436D01*
X-68836Y217582D01*
X-68981Y217709D01*
X-69142Y217817D01*
X-69316Y217902D01*
X-69390Y217928D01*
D02*
G37*
G36*
X-70374Y223917D02*
X-71274D01*
X-71249Y223843D01*
X-71163Y223670D01*
X-71056Y223509D01*
X-70928Y223363D01*
X-70783Y223236D01*
X-70622Y223128D01*
X-70448Y223043D01*
X-70374Y223017D01*
Y223917D01*
D02*
G37*
G36*
X-8366Y217928D02*
Y217028D01*
X-7466D01*
X-7491Y217102D01*
X-7577Y217275D01*
X-7684Y217436D01*
X-7812Y217582D01*
X-7958Y217709D01*
X-8118Y217817D01*
X-8292Y217902D01*
X-8366Y217928D01*
D02*
G37*
G36*
X-9350D02*
X-9425Y217902D01*
X-9598Y217817D01*
X-9759Y217709D01*
X-9905Y217582D01*
X-10032Y217436D01*
X-10140Y217275D01*
X-10225Y217102D01*
X-10250Y217028D01*
X-9350D01*
Y217928D01*
D02*
G37*
G36*
X-69390Y210053D02*
Y209154D01*
X-68490D01*
X-68515Y209228D01*
X-68601Y209401D01*
X-68708Y209562D01*
X-68836Y209708D01*
X-68981Y209835D01*
X-69142Y209943D01*
X-69316Y210028D01*
X-69390Y210053D01*
D02*
G37*
G36*
X-70374D02*
X-70448Y210028D01*
X-70622Y209943D01*
X-70783Y209835D01*
X-70928Y209708D01*
X-71056Y209562D01*
X-71163Y209401D01*
X-71249Y209228D01*
X-71274Y209154D01*
X-70374D01*
Y210053D01*
D02*
G37*
G36*
X-7466Y208169D02*
X-8366D01*
Y207269D01*
X-8292Y207295D01*
X-8118Y207380D01*
X-7958Y207488D01*
X-7812Y207615D01*
X-7684Y207761D01*
X-7577Y207922D01*
X-7491Y208095D01*
X-7466Y208169D01*
D02*
G37*
G36*
X-9350Y210053D02*
X-9425Y210028D01*
X-9598Y209943D01*
X-9759Y209835D01*
X-9905Y209708D01*
X-10032Y209562D01*
X-10140Y209401D01*
X-10225Y209228D01*
X-10250Y209154D01*
X-9350D01*
Y210053D01*
D02*
G37*
G36*
X-68490Y216043D02*
X-69390D01*
Y215143D01*
X-69316Y215169D01*
X-69142Y215254D01*
X-68981Y215362D01*
X-68836Y215489D01*
X-68708Y215635D01*
X-68601Y215796D01*
X-68515Y215969D01*
X-68490Y216043D01*
D02*
G37*
G36*
X-70374D02*
X-71274D01*
X-71249Y215969D01*
X-71163Y215796D01*
X-71056Y215635D01*
X-70928Y215489D01*
X-70783Y215362D01*
X-70622Y215254D01*
X-70448Y215169D01*
X-70374Y215143D01*
Y216043D01*
D02*
G37*
G36*
X-8366Y210053D02*
Y209154D01*
X-7466D01*
X-7491Y209228D01*
X-7577Y209401D01*
X-7684Y209562D01*
X-7812Y209708D01*
X-7958Y209835D01*
X-8118Y209943D01*
X-8292Y210028D01*
X-8366Y210053D01*
D02*
G37*
%LPD*%
D10*
X36417Y208662D02*
X37402Y209646D01*
X45276Y228346D02*
X50197D01*
X40354D02*
X45276D01*
X37402Y209646D02*
Y215551D01*
X40354Y218504D01*
Y224410D01*
X12795Y201772D02*
X30512D01*
X31496Y202756D01*
Y207677D01*
X32480Y208662D01*
X36417D01*
X50197Y228346D02*
X52165Y230315D01*
Y240158D01*
X45276Y228346D02*
X50984Y222638D01*
X51673D01*
X-28543Y203248D02*
Y204232D01*
X-34449Y203248D02*
Y204232D01*
D36*
Y201772D02*
X-34449D01*
X-39370Y187008D02*
Y219488D01*
X81693Y198819D02*
Y226378D01*
X72362Y193898D02*
X79724D01*
X65945Y187480D02*
X72362Y193898D01*
X79724D02*
X81693Y191929D01*
X-5906Y187008D02*
X-2953D01*
X5906Y178150D01*
X-12795Y87599D02*
X10827D01*
X-13780Y88583D02*
X-12795Y87599D01*
X-13780Y88583D02*
Y96457D01*
X-54134Y105315D02*
X-50197Y109252D01*
X-59055Y105315D02*
X-54134D01*
X-62992Y109252D02*
X-59055Y105315D01*
X-53319Y103347D02*
X-50366Y106299D01*
X-55118Y103347D02*
X-53319D01*
X-59055Y99410D02*
X-55118Y103347D01*
X-50197D02*
X-44291D01*
X-57087Y96457D02*
X-50197Y103347D01*
X-63976Y96457D02*
X-57087D01*
X-57087Y93504D02*
X-50197Y100394D01*
X-69882Y93504D02*
X-57087D01*
X-50197Y100394D02*
X-46260D01*
X-50197Y109252D02*
X-44291D01*
X-50366Y106299D02*
X-46260D01*
X-62008Y102362D02*
Y105315D01*
X-64961Y108268D02*
X-62008Y105315D01*
X-64961Y108268D02*
Y113189D01*
X-62008Y102362D02*
X-59055Y99410D01*
X-63976Y96457D02*
Y104331D01*
X-66929Y107283D02*
X-63976Y104331D01*
X-65945Y99410D02*
Y103347D01*
X-68898Y96457D02*
X-65945Y99410D01*
X-68898Y106299D02*
X-65945Y103347D01*
X-68898Y106299D02*
Y111221D01*
X-71850Y114173D02*
X-68898Y111221D01*
X-66929Y107283D02*
Y112036D01*
X-24606Y112205D02*
X-19685Y107283D01*
Y102362D02*
Y107283D01*
Y102362D02*
X-13780Y96457D01*
X-29528Y112205D02*
X-24606D01*
X-27559Y109252D02*
X-24606D01*
X-21654Y106299D01*
Y101378D02*
Y106299D01*
Y101378D02*
X-15748Y95473D01*
X-27559Y103347D02*
X-25591Y101378D01*
Y99410D02*
Y101378D01*
X-23622Y100394D02*
X-18701Y95473D01*
X-23622Y100394D02*
Y104331D01*
X-25098Y105807D02*
X-23622Y104331D01*
X-18701Y87599D02*
Y95473D01*
X-15748Y86614D02*
Y95473D01*
X-62992Y109252D02*
Y114173D01*
X-72835Y96457D02*
X-69882Y93504D01*
X-29528Y100394D02*
X-23622Y94488D01*
X-1969Y56102D02*
X-984Y57087D01*
X-1969Y33465D02*
Y56102D01*
X-4921Y68898D02*
X-2953D01*
X-5906Y71851D02*
X-3937D01*
X-3937Y64961D02*
X-2953Y65945D01*
X-5906Y30512D02*
Y67913D01*
X-7874Y29528D02*
Y69882D01*
X-9843Y28543D02*
Y72835D01*
X-11811Y27559D02*
Y75788D01*
X-21654Y60039D02*
X-19685Y62008D01*
X-25591Y60039D02*
X-21654Y63976D01*
X-5906Y67913D02*
X-4921Y68898D01*
X-7874Y69882D02*
X-5906Y71851D01*
X-3937Y31496D02*
Y64961D01*
X-29528Y100394D02*
Y100394D01*
X-77756Y129921D02*
Y132874D01*
X-74803Y120079D02*
Y130906D01*
X-72835Y121063D02*
X-71850Y120079D01*
X-72835Y121063D02*
Y128937D01*
X-71850Y129921D01*
X-71850D02*
Y131890D01*
X-74803Y134843D02*
X-71850Y131890D01*
X-76772Y96457D02*
X-72835D01*
X-68898Y120079D02*
X-62992Y114173D01*
X-76772Y119095D02*
X-73819Y116142D01*
X-76772Y119095D02*
Y128937D01*
X-77756Y129921D02*
X-76772Y128937D01*
X-71850Y120079D02*
X-68898D01*
X-73819Y116142D02*
X-71035D01*
X-72835Y118110D02*
X-69882D01*
X-74803Y120079D02*
X-72835Y118110D01*
X-69882D02*
X-64961Y113189D01*
X-71035Y116142D02*
X-66929Y112036D01*
X-12795Y83662D02*
X6890D01*
X-11811Y81693D02*
X4921D01*
X-4921Y104331D02*
X-1969Y107283D01*
X28543Y53150D02*
X31496Y50197D01*
X28543Y53150D02*
Y58071D01*
X56102Y137795D02*
Y154528D01*
X58071Y136811D02*
Y153543D01*
X60039Y152559D02*
X64961Y157480D01*
X58071Y153543D02*
X60118Y155591D01*
X2953Y107283D02*
X10827Y115157D01*
X68898Y62008D02*
X70866Y63976D01*
X68898Y57087D02*
Y62008D01*
X70866Y63976D02*
X75787D01*
X65945D02*
X67913Y65945D01*
X73819D01*
X63976Y64961D02*
X66929Y67913D01*
X72835D01*
X-49213Y207677D02*
Y211614D01*
X-52165Y207677D02*
Y211614D01*
X-54134Y202756D02*
X-50197D01*
X-1969Y107283D02*
X2953D01*
X0Y104331D02*
X2953D01*
X12795Y114173D01*
X9843Y105315D02*
X16732Y112205D01*
X9843Y101378D02*
Y105315D01*
X10827Y87599D02*
X13780Y84646D01*
Y77756D02*
Y84646D01*
X27559Y41339D02*
X32480D01*
X22638Y49213D02*
X28543Y43307D01*
X24606Y50197D02*
X29528Y45276D01*
X27559Y37402D02*
X31496D01*
X17717Y34449D02*
X26575D01*
X25591Y32480D02*
X29528Y28543D01*
X15748Y32480D02*
X25591D01*
X24606Y30512D02*
X28543Y26575D01*
X14764Y30512D02*
X24606D01*
X23622Y28543D02*
X27559Y24606D01*
X17717Y28543D02*
X23622D01*
X27559Y24606D02*
X40354D01*
X16732Y35433D02*
X17717Y34449D01*
X13780D02*
X15748Y32480D01*
X8858Y34449D02*
X13780D01*
X7874Y35433D02*
X8858Y34449D01*
X5906Y32480D02*
X12795D01*
X4752Y30512D02*
X11642D01*
X10827Y28543D02*
X12795Y26575D01*
X3937Y28543D02*
X10827D01*
X9843Y26575D02*
X11811Y24606D01*
X2953Y26575D02*
X9843D01*
X8858Y24606D02*
X10827Y22638D01*
X1969Y24606D02*
X8858D01*
X7874Y22638D02*
X9843Y20669D01*
X984Y22638D02*
X7874D01*
X2953Y35433D02*
X5906Y32480D01*
X2784D02*
X4752Y30512D01*
X1969D02*
X3937Y28543D01*
X984D02*
X2953Y26575D01*
X-0Y26575D02*
X1969Y24606D01*
X-984Y24606D02*
X984Y22638D01*
X-1969Y33465D02*
X-984Y32480D01*
X2784D01*
X11642Y30512D02*
X13611Y28543D01*
X17717D01*
X12795Y32480D02*
X14764Y30512D01*
X12795Y26575D02*
X19685D01*
X17717Y28543D02*
X17717Y28543D01*
X19685Y26575D02*
X20669Y25591D01*
X18701Y24606D02*
X20669Y22638D01*
X11811Y24606D02*
X18701D01*
X17717Y22638D02*
X19685Y20669D01*
X10827Y22638D02*
X17717D01*
X20669Y25591D02*
X22638D01*
X20669Y22638D02*
X27559D01*
X19685Y13189D02*
Y20669D01*
X9843Y13032D02*
Y20669D01*
X27559Y22638D02*
X29528Y20669D01*
X73819Y68898D02*
Y114173D01*
X72835Y67913D02*
X73819Y68898D01*
X65945Y50197D02*
Y53150D01*
Y50197D02*
X69882Y46260D01*
X73819Y35602D02*
Y48228D01*
X69882Y52165D02*
X73819Y48228D01*
X69882Y52165D02*
Y54134D01*
X71850Y60039D02*
X73819Y62008D01*
X77756D01*
X79724Y63976D01*
X78740Y60039D02*
X81693Y62992D01*
X74803Y60039D02*
X78740D01*
X54134Y22638D02*
X56102Y24606D01*
X53150Y25591D02*
X54134Y26575D01*
X53150Y79725D02*
X54134Y78740D01*
X49213Y25591D02*
X52165Y28543D01*
X45276Y25591D02*
X50197Y30512D01*
X40354Y24606D02*
X48228Y32480D01*
X69882Y38386D02*
Y46260D01*
X64961Y33465D02*
X69882Y38386D01*
X6890Y83662D02*
X10827Y79725D01*
X4921Y81693D02*
X10827Y75788D01*
X79724Y25591D02*
Y33465D01*
X77756Y35433D02*
X79724Y33465D01*
X71850Y33634D02*
X73819Y35602D01*
X71850Y25591D02*
Y33634D01*
X87598Y60039D02*
Y132705D01*
X85630Y61024D02*
Y131890D01*
X83661Y62008D02*
Y130906D01*
X78740Y57087D02*
X83661Y62008D01*
X76772Y57087D02*
X78740D01*
X75787Y63976D02*
X76772Y64961D01*
X81693Y62992D02*
Y121732D01*
X79724Y63976D02*
Y117126D01*
X76772Y64961D02*
X77756Y65945D01*
X76772Y64961D02*
Y64961D01*
X75787Y121063D02*
X79724Y117126D01*
X75945Y127480D02*
X81693Y121732D01*
X77087Y137480D02*
X83661Y130906D01*
X81693Y135827D02*
X85630Y131890D01*
X83661Y136642D02*
X87598Y132705D01*
X77756Y65945D02*
Y116142D01*
X83661Y136642D02*
Y136811D01*
X59055Y115157D02*
X72835D01*
X73819Y114173D01*
X58071Y24606D02*
X60039Y22638D01*
Y25591D02*
X62992Y22638D01*
X62008Y26575D02*
X63976Y24606D01*
X37402Y22638D02*
X54134D01*
X29528Y13347D02*
Y20669D01*
Y13347D02*
X35000Y7874D01*
Y20236D02*
X37402Y22638D01*
X60039Y14764D02*
Y22638D01*
X58071Y12795D02*
X60039Y14764D01*
X49213Y12795D02*
X58071D01*
X83661Y136811D02*
X83661Y136811D01*
X70866Y22638D02*
X77756D01*
X68898Y24606D02*
X70866Y22638D01*
X63976Y24606D02*
X68898D01*
X62992Y22638D02*
X67913D01*
X69882Y20669D01*
Y12795D02*
Y20669D01*
X77756Y22638D02*
X79724Y20669D01*
Y12795D02*
X84646Y7874D01*
X79724Y12795D02*
Y20669D01*
X84646Y7874D02*
X85000D01*
X-19685Y12559D02*
X-15000Y7874D01*
X-9843Y12717D02*
X-5000Y7874D01*
X0Y12874D02*
X5000Y7874D01*
X-25591Y24606D02*
X-20669D01*
X-17717Y27559D01*
X-19685Y12559D02*
Y22638D01*
X-15748Y26575D01*
X9843Y13032D02*
X15000Y7874D01*
X35000Y17874D02*
Y20236D01*
X19685Y13189D02*
X25000Y7874D01*
X8858Y85630D02*
X10827Y83662D01*
X-29528Y20669D02*
X-25591Y24606D01*
X-29528Y12402D02*
X-25000Y7874D01*
X-29528Y12402D02*
Y20669D01*
X0Y12874D02*
Y20669D01*
X-7874Y29528D02*
X-4921Y26575D01*
X-9843Y28543D02*
X-5906Y24606D01*
X-11811Y27559D02*
X-6890Y22638D01*
X-9843Y12717D02*
Y22638D01*
X-13780Y26575D02*
X-9843Y22638D01*
X-6890Y22638D02*
X-1969D01*
X0Y20669D01*
X-5906Y24606D02*
X-984D01*
X-4921Y26575D02*
X-0D01*
X65000Y7874D02*
Y8898D01*
X65984D02*
X69882Y12795D01*
X45000Y7874D02*
Y8583D01*
X49213Y12795D01*
X-3937Y28543D02*
X984D01*
X-5906Y30512D02*
X-3937Y28543D01*
X-2953Y30512D02*
X1969D01*
X-3937Y31496D02*
X-2953Y30512D01*
X-13780Y85630D02*
X8858D01*
X-55000Y7874D02*
X-50079Y2953D01*
X60039D01*
X-40354Y13228D02*
X-35000Y7874D01*
X-40354Y13228D02*
Y20669D01*
X-36417Y24606D01*
X-29528D01*
X-52165Y48228D02*
X-52165D01*
X-59055Y41339D02*
X-52165Y48228D01*
X53150Y79725D02*
Y83662D01*
X65276Y177480D02*
X65945D01*
X75945Y157480D02*
X76772D01*
X81693Y155512D02*
Y191929D01*
Y135827D02*
Y152559D01*
X76772Y157480D02*
X81693Y152559D01*
X83661Y136811D02*
Y153543D01*
X81693Y155512D02*
X83661Y153543D01*
X62008Y121063D02*
X75787D01*
X61024Y119095D02*
X74803D01*
X77756Y116142D01*
X56102Y124016D02*
X61024Y119095D01*
X52165Y122047D02*
X59055Y115157D01*
X64961Y157480D02*
X65945D01*
X64646Y137480D02*
X65945D01*
X75945D02*
X77087D01*
X58071Y125000D02*
X62008Y121063D01*
X56102Y154528D02*
X58071Y156496D01*
Y163386D01*
X60039Y165354D01*
Y172244D01*
X52165Y122047D02*
Y133858D01*
X60039Y172244D02*
X65276Y177480D01*
X20669Y48228D02*
X27559Y41339D01*
X26575Y34449D02*
X30512Y30512D01*
X31496Y33465D02*
X32480Y32480D01*
X31496Y37402D02*
X33465Y35433D01*
X26575Y51181D02*
Y53150D01*
X26575Y53150D01*
X30512Y47244D02*
X32480D01*
X35433Y50197D01*
X26575Y51181D02*
X30512Y47244D01*
X67913Y51181D02*
Y54134D01*
X68898Y33465D02*
X71850Y36417D01*
X67913Y51181D02*
X71850Y47244D01*
Y36417D02*
Y47244D01*
X54134Y123031D02*
X60039Y117126D01*
X54134Y123031D02*
Y132874D01*
X60118Y155591D02*
Y162480D01*
X60039Y117126D02*
X73819D01*
X73819Y65945D02*
X75787Y67913D01*
Y115157D01*
X60118Y162480D02*
X65118Y167480D01*
X73819Y117126D02*
X75787Y115157D01*
X65118Y167480D02*
X65945D01*
X23622Y66929D02*
X26575Y63976D01*
X36417Y72835D02*
X39370Y69882D01*
X28543Y70866D02*
X30512D01*
X20669Y68898D02*
X23622Y71851D01*
X20669Y66929D02*
Y68898D01*
X23622Y66929D02*
Y68898D01*
X16732Y92520D02*
X18701Y94488D01*
X26575D02*
X28543Y92520D01*
X23622Y71851D02*
Y73819D01*
X28543Y96457D02*
X31496Y93504D01*
X30512Y97441D02*
X33465Y94488D01*
X60039Y77925D02*
X62992Y80878D01*
Y89567D01*
X53150Y83662D02*
X56102Y86614D01*
Y86614D01*
X58071Y78740D02*
X59055Y79725D01*
Y92520D01*
X56102Y95473D02*
X59055Y92520D01*
X51181Y78740D02*
X52165Y77756D01*
X44291Y85630D02*
X45276Y84646D01*
X50197D01*
X51181Y83662D01*
Y78740D02*
Y83662D01*
X32480Y98425D02*
X35433Y95473D01*
X39370Y78740D02*
X41339Y80709D01*
X38386D02*
X39370Y81693D01*
X35433Y89567D02*
Y95473D01*
X37402Y87599D02*
Y96457D01*
X34449Y99410D02*
X37402Y96457D01*
X36417Y100394D02*
X39370Y97441D01*
X38386Y101378D02*
X41339Y98425D01*
X31496Y85630D02*
X35433Y89567D01*
X24606Y91536D02*
X25591Y90551D01*
X19685D02*
X20669Y91536D01*
X-11811Y75788D02*
X-9843Y77756D01*
X-2953D01*
X-9843Y72835D02*
X-7874Y74803D01*
X-2953D01*
X20669Y66929D02*
X24606Y62992D01*
X39370Y62008D02*
X40354Y61024D01*
X39370Y62008D02*
Y69882D01*
X29528Y62008D02*
X30512Y61024D01*
Y58071D02*
Y61024D01*
Y58071D02*
X35433Y53150D01*
X32480Y59055D02*
X36417Y55118D01*
X34449Y60039D02*
X37402Y57087D01*
X37402Y60039D02*
X38386Y59055D01*
X37402Y60039D02*
Y68898D01*
X35433Y53150D02*
X37402D01*
X38386Y52165D01*
X39370Y55118D02*
X40354Y54134D01*
X36417Y55118D02*
X39370D01*
X40980Y57087D02*
X42323Y55744D01*
X37402Y57087D02*
X40980D01*
X41796Y59055D02*
X44291Y56560D01*
X38386Y59055D02*
X41796D01*
X73819Y54134D02*
Y59055D01*
X74803Y60039D01*
X77756Y35433D02*
Y50197D01*
X87598Y60039D01*
X75787Y25591D02*
Y51181D01*
X85630Y61024D01*
X72835Y53150D02*
X73819Y54134D01*
X69882D02*
X71850Y56102D01*
Y60039D01*
X62008Y66929D02*
X62992Y67913D01*
X40354Y61024D02*
X43307D01*
Y63976D02*
X45276D01*
X46260Y62992D01*
X49213Y69882D02*
X50197Y68898D01*
X47244Y66929D02*
X48228Y65945D01*
X36417Y75788D02*
X42323Y69882D01*
X49213D01*
X42323Y66929D02*
X47244D01*
X18701Y62008D02*
X20669Y60039D01*
X14764Y62008D02*
X18701Y58071D01*
Y56102D02*
Y58071D01*
Y56102D02*
X20669Y54134D01*
Y48228D02*
Y54134D01*
Y57087D02*
Y60039D01*
Y57087D02*
X22638Y55118D01*
Y49213D02*
Y55118D01*
Y58071D02*
Y62008D01*
Y58071D02*
X24606Y56102D01*
Y50197D02*
Y56102D01*
X24606Y59055D02*
Y62992D01*
Y59055D02*
X26575Y57087D01*
Y53150D02*
Y57087D01*
Y60039D02*
Y63976D01*
Y60039D02*
X28543Y58071D01*
X26575Y67913D02*
X29528Y64961D01*
X32480Y59055D02*
Y62992D01*
X29528Y64961D02*
X30512D01*
X32480Y62992D01*
X23622Y68898D02*
X25591Y70866D01*
Y72835D01*
X31496Y91536D02*
Y93504D01*
X20669Y80709D02*
X31496Y91536D01*
X41339Y80709D02*
Y98425D01*
X39370Y81693D02*
Y97441D01*
X35433Y85630D02*
X37402Y87599D01*
X34449Y60039D02*
Y67913D01*
X30512D02*
X33465Y70866D01*
X35433D01*
X37402Y68898D01*
X30512Y70866D02*
X32480Y72835D01*
X36417D01*
X32480Y75788D02*
X36417D01*
X33465Y90382D02*
Y94488D01*
X28543Y85461D02*
X33465Y90382D01*
X28543Y83662D02*
Y85461D01*
X31496Y83662D02*
Y85630D01*
X30512Y80709D02*
X38386D01*
X25591Y72835D02*
X31496Y78740D01*
X39370D01*
X23622Y73819D02*
X30512Y80709D01*
X25591D02*
X28543Y83662D01*
X20669Y72835D02*
Y80709D01*
X2953Y101378D02*
X14764Y113189D01*
X984Y101378D02*
X2953D01*
X0Y100394D02*
X984Y101378D01*
X65000Y8898D02*
X65984D01*
X-51181Y163386D02*
Y195866D01*
X-50197Y202756D02*
X-47244Y199803D01*
X-50197Y198819D02*
X-49213Y197835D01*
X-54134Y198819D02*
X-51181Y195866D01*
X-52165Y207677D02*
X-45276Y200787D01*
X-49213Y207677D02*
X-43307Y201772D01*
X-39370Y219488D02*
X-39370Y219488D01*
X-37402Y214567D02*
X-34449Y217520D01*
X6890Y148622D02*
X10827Y144685D01*
Y115157D02*
Y144685D01*
Y147638D02*
X12795Y145669D01*
Y114173D02*
Y145669D01*
X6890Y148622D02*
Y150591D01*
X11811Y160433D02*
X18701Y153543D01*
X38386Y101378D02*
Y144685D01*
X39370Y145669D01*
X36417Y100394D02*
Y146654D01*
X39370Y149606D01*
X18701Y94488D02*
Y153543D01*
X14764Y113189D02*
Y149606D01*
X13780Y150591D02*
X14764Y149606D01*
X13780Y154528D02*
X16732Y151575D01*
Y112205D02*
Y151575D01*
X6890Y154528D02*
X10827Y150591D01*
Y147638D02*
Y150591D01*
X20669Y91536D02*
Y154528D01*
X22638Y89567D02*
Y155512D01*
X24606Y91536D02*
Y156496D01*
X26575Y94488D02*
Y157480D01*
X28543Y96457D02*
Y158465D01*
X30512Y97441D02*
Y159449D01*
X32480Y98425D02*
Y160433D01*
X34449Y99410D02*
Y161417D01*
X-11811Y160433D02*
X11811D01*
X-7874Y172244D02*
X-3937D01*
X-5906Y175197D02*
X-3937D01*
X-8858Y162402D02*
X12795D01*
X20669Y154528D01*
X-5906Y164370D02*
X13780D01*
X22638Y155512D01*
X14764Y166339D02*
X24606Y156496D01*
X15748Y168307D02*
X26575Y157480D01*
X-0Y168307D02*
X15748D01*
X-3937Y172244D02*
X-3937Y172244D01*
X-0Y168307D01*
X-3937Y175197D02*
X984Y170276D01*
X16732D01*
X28543Y158465D01*
X1969Y172244D02*
X17717D01*
X30512Y159449D01*
X-5906Y169291D02*
X-2953Y166339D01*
X14764D01*
X-7874Y178150D02*
X-3937D01*
X1969Y172244D01*
X-5906Y181102D02*
X-3937D01*
X2953Y174213D01*
X18701D01*
X32480Y160433D01*
X-3937Y184055D02*
X3937Y176181D01*
X19685D01*
X34449Y161417D01*
X-46260Y217520D02*
X-41339Y212598D01*
X-37402Y187992D02*
Y214567D01*
Y187992D02*
X-33465Y184055D01*
X-30512D01*
X-39370Y187008D02*
X-33465Y181102D01*
X-41339Y186024D02*
Y212598D01*
Y186024D02*
X-36417Y181102D01*
Y178150D02*
Y181102D01*
X-43307Y185039D02*
Y201772D01*
Y185039D02*
X-39370Y181102D01*
Y175197D02*
Y181102D01*
X-45276Y184055D02*
Y200787D01*
Y184055D02*
X-42323Y181102D01*
Y172244D02*
Y181102D01*
X-47244Y183071D02*
Y199803D01*
Y183071D02*
X-45276Y181102D01*
Y169291D02*
Y181102D01*
X-49213Y182087D02*
Y197835D01*
Y182087D02*
X-48228Y181102D01*
Y166339D02*
Y181102D01*
X-54134Y160433D02*
Y178150D01*
Y194882D02*
X-53150Y193898D01*
X-54134Y178150D02*
X-53150Y179134D01*
Y193898D01*
X5906Y178150D02*
X25591D01*
X-9843Y163386D02*
X-8858Y162402D01*
X-7874Y166339D02*
X-5906Y164370D01*
X-104331Y112205D02*
Y147638D01*
X-92520Y117126D02*
X-89567Y114173D01*
X-94488Y114173D02*
X-92520Y112205D01*
X-92520Y98425D02*
X-83661D01*
X-81693Y100394D01*
Y106299D01*
X58071Y125000D02*
Y130906D01*
X64646Y137480D01*
X56102Y124016D02*
Y131890D01*
X60039Y135827D01*
Y152559D01*
X54134Y132874D02*
X58071Y136811D01*
X52165Y133858D02*
X56102Y137795D01*
X-102362Y114173D02*
X-101378Y113189D01*
Y111221D02*
Y113189D01*
X-104331Y108268D02*
X-101378Y111221D01*
X-104331Y76772D02*
Y108268D01*
X-102362Y145669D02*
X-101378Y146654D01*
Y148622D01*
X-102362Y149606D02*
X-101378Y148622D01*
X-102362Y149606D02*
Y153543D01*
X-99410Y156496D01*
X-88583D01*
X-100394Y137795D02*
X-92520D01*
X-102362Y135827D02*
X-100394Y137795D01*
X-102362Y114173D02*
Y135827D01*
Y145669D01*
X-92520Y112205D02*
X-73819D01*
X-72835Y111221D01*
Y106299D02*
Y111221D01*
X-89567Y114173D02*
X-71850D01*
X-52165Y48228D02*
Y62008D01*
X-35433D02*
X-32480Y64961D01*
X-38386Y62008D02*
X-35433D01*
X17717Y66929D02*
X22638Y62008D01*
X44291Y85630D02*
Y87599D01*
X-25591Y99410D02*
X-21654Y95473D01*
X-13780Y26575D02*
Y79725D01*
X-11811Y81693D01*
X-15748Y26575D02*
Y80709D01*
X-12795Y83662D01*
X-17717Y27559D02*
Y81693D01*
X-13780Y85630D01*
X-19685Y62008D02*
Y82677D01*
X-15748Y86614D01*
X-21654Y63976D02*
Y95473D01*
X-23622Y83662D02*
Y94488D01*
X-24606Y82677D02*
X-23622Y83662D01*
X81693Y226378D02*
X82677Y227362D01*
X82677D01*
X28543Y26575D02*
X39201D01*
X29528Y28543D02*
X38386D01*
X30512Y30512D02*
X37402D01*
X32480Y32480D02*
X36417D01*
X39201Y26575D02*
X46260Y33634D01*
X38386Y28543D02*
X44291Y34449D01*
X37402Y30512D02*
X42323Y35433D01*
X36417Y32480D02*
X40354Y36417D01*
X33465Y35433D02*
X36417D01*
X38386Y37402D01*
X32480Y41339D02*
X35433Y38386D01*
X62992Y43307D02*
X66929D01*
X28543D02*
X34941D01*
X35925Y42323D01*
X63976Y50197D02*
Y52165D01*
X65945Y56102D02*
X67913Y54134D01*
X65945Y56102D02*
Y63976D01*
X63976Y55118D02*
X65945Y53150D01*
X63976Y55118D02*
Y64961D01*
X62008Y54134D02*
X63976Y52165D01*
X62008Y54134D02*
Y66929D01*
X60039Y52165D02*
X61024Y51181D01*
X60039Y52165D02*
Y77925D01*
X62008Y26575D02*
Y42323D01*
X62992Y43307D01*
X60039Y25591D02*
Y46260D01*
X63976Y50197D01*
X58071Y24606D02*
Y78740D01*
X56102Y24606D02*
Y81693D01*
X54134Y26575D02*
Y78740D01*
X52165Y28543D02*
Y77756D01*
X50197Y30512D02*
Y68898D01*
X48228Y32480D02*
Y65945D01*
X46260Y33634D02*
Y62992D01*
X44291Y34449D02*
Y56560D01*
X42323Y35433D02*
Y55744D01*
X40354Y36417D02*
Y54134D01*
X38386Y37402D02*
Y52165D01*
X29528Y45276D02*
X34941D01*
X35925Y46260D01*
D40*
X-71850Y129921D02*
X-71850D01*
D42*
X-92520Y90551D02*
D03*
Y106299D02*
D03*
Y98425D02*
D03*
X-74803Y299213D02*
D03*
Y291339D02*
D03*
D43*
X65945Y187480D02*
D03*
D44*
X75945D02*
D03*
X65945Y177480D02*
D03*
X75945D02*
D03*
X65945Y167480D02*
D03*
X75945D02*
D03*
X65945Y157480D02*
D03*
X75945D02*
D03*
X65945Y147480D02*
D03*
X75945D02*
D03*
X65945Y137480D02*
D03*
X75945D02*
D03*
X65945Y127480D02*
D03*
X75945D02*
D03*
D45*
X95000Y7874D02*
D03*
D46*
X85000D02*
D03*
X75000D02*
D03*
X65000D02*
D03*
X55000D02*
D03*
X45000D02*
D03*
X35000D02*
D03*
X25000D02*
D03*
X15000D02*
D03*
X5000D02*
D03*
X-5000D02*
D03*
X-15000D02*
D03*
X-25000D02*
D03*
X-35000D02*
D03*
X-45000D02*
D03*
X-55000D02*
D03*
X-65000D02*
D03*
X-75000D02*
D03*
X-85000D02*
D03*
X-95000D02*
D03*
Y17874D02*
D03*
X-85000D02*
D03*
X-75000D02*
D03*
X-65000D02*
D03*
X-55000D02*
D03*
X-45000D02*
D03*
X-35000D02*
D03*
X-25000D02*
D03*
X-15000D02*
D03*
X-5000D02*
D03*
X5000D02*
D03*
X15000D02*
D03*
X25000D02*
D03*
X35000D02*
D03*
X45000D02*
D03*
X55000D02*
D03*
X65000D02*
D03*
X75000D02*
D03*
X85000D02*
D03*
X95000D02*
D03*
D47*
X-47244Y275591D02*
D03*
X-31496D02*
D03*
X-39370D02*
D03*
D48*
X-92519Y184645D02*
D03*
Y248425D02*
D03*
D49*
X-87598Y216535D02*
D03*
X-97441D02*
D03*
Y200787D02*
D03*
X-87598D02*
D03*
Y232283D02*
D03*
X-97441D02*
D03*
D50*
X-97441Y53150D02*
D03*
X97441D02*
D03*
X-97441Y275591D02*
D03*
X97441D02*
D03*
D51*
X41607Y125984D02*
D03*
X45007D02*
D03*
D52*
X100787Y254331D02*
D03*
Y230709D02*
D03*
Y207087D02*
D03*
X88976Y254331D02*
D03*
X94882Y242520D02*
D03*
X88976Y230709D02*
D03*
X94882Y218898D02*
D03*
X88976Y207087D02*
D03*
X77165Y277953D02*
D03*
X83071Y266142D02*
D03*
X77165Y254331D02*
D03*
X83071Y242520D02*
D03*
X77165Y230709D02*
D03*
Y207087D02*
D03*
X65354Y277953D02*
D03*
X71260Y266142D02*
D03*
X65354Y254331D02*
D03*
X53543Y277953D02*
D03*
X59449Y266142D02*
D03*
X53543Y254331D02*
D03*
X41732Y277953D02*
D03*
Y254331D02*
D03*
X29921Y277953D02*
D03*
X35827Y266142D02*
D03*
X29921Y254331D02*
D03*
X18110Y277953D02*
D03*
X24016Y266142D02*
D03*
X18110Y207087D02*
D03*
X6299Y277953D02*
D03*
X12205Y266142D02*
D03*
X6299Y254331D02*
D03*
Y207087D02*
D03*
X-5512Y277953D02*
D03*
X394Y266142D02*
D03*
Y242520D02*
D03*
Y218898D02*
D03*
X-31496Y203740D02*
D03*
X27165Y224410D02*
D03*
Y228740D02*
D03*
X31496D02*
D03*
Y224410D02*
D03*
X27165Y220079D02*
D03*
X35827Y224410D02*
D03*
X31496Y220079D02*
D03*
X35827Y228740D02*
D03*
Y220079D02*
D03*
X73819Y215551D02*
D03*
X34449Y204725D02*
D03*
X81693Y198819D02*
D03*
X51181Y217520D02*
D03*
X-22638Y193898D02*
D03*
X-5906Y187008D02*
D03*
X-68898Y100394D02*
D03*
X-63976Y96457D02*
D03*
X-18701Y87599D02*
D03*
X-29528Y112205D02*
D03*
X-59055Y99410D02*
D03*
X-25591Y106299D02*
D03*
X-27559Y103347D02*
D03*
X-32480Y64961D02*
D03*
X-984Y57087D02*
D03*
X-2953Y68898D02*
D03*
X-3937Y71851D02*
D03*
X-2953Y65945D02*
D03*
X-25591Y60039D02*
D03*
X-21654D02*
D03*
X-27559Y109252D02*
D03*
X-44291Y103347D02*
D03*
Y109252D02*
D03*
X-46260Y106299D02*
D03*
X-29528Y100394D02*
D03*
X-46260D02*
D03*
X-77756Y132874D02*
D03*
X-74803Y130906D02*
D03*
X-76772Y96457D02*
D03*
X-74803Y134843D02*
D03*
X-76772Y162402D02*
D03*
X-66929Y145669D02*
D03*
X-84646Y117126D02*
D03*
X-4921Y104331D02*
D03*
X7874Y121063D02*
D03*
X-54134Y194882D02*
D03*
Y202756D02*
D03*
X-52165Y211614D02*
D03*
X-49213D02*
D03*
X-46260Y217520D02*
D03*
X-34449D02*
D03*
X0Y104331D02*
D03*
X9843Y101378D02*
D03*
X15748Y107283D02*
D03*
X-27559Y71850D02*
D03*
X27559Y37402D02*
D03*
X7874Y35433D02*
D03*
X16732D02*
D03*
X2953Y35433D02*
D03*
X22638Y25591D02*
D03*
X31496Y33465D02*
D03*
X10827Y79725D02*
D03*
X76772Y57087D02*
D03*
Y64961D02*
D03*
X62992Y67913D02*
D03*
Y71850D02*
D03*
X20669Y43307D02*
D03*
X45276Y25591D02*
D03*
X49213D02*
D03*
X53150D02*
D03*
X64961Y33465D02*
D03*
X79724Y25591D02*
D03*
X75787D02*
D03*
X71850D02*
D03*
X61024Y51181D02*
D03*
X4921Y43307D02*
D03*
X62992Y95473D02*
D03*
X56102Y81693D02*
D03*
Y95473D02*
D03*
X10827Y83662D02*
D03*
X-32480Y34449D02*
D03*
X10827Y75788D02*
D03*
X8858Y56102D02*
D03*
X60039Y2953D02*
D03*
X-29528Y24606D02*
D03*
X-59055Y41339D02*
D03*
X-69882Y208662D02*
D03*
Y216535D02*
D03*
Y224410D02*
D03*
Y232283D02*
D03*
Y240158D02*
D03*
X-8858Y208662D02*
D03*
Y216535D02*
D03*
Y224410D02*
D03*
X-43307Y229331D02*
D03*
X77756Y240158D02*
D03*
X62008Y245079D02*
D03*
X65945Y208662D02*
D03*
X67913Y212598D02*
D03*
X34449Y193898D02*
D03*
X52165D02*
D03*
X50197Y185039D02*
D03*
Y177165D02*
D03*
X-60039Y160433D02*
D03*
X-62992Y181102D02*
D03*
X-56102Y140748D02*
D03*
X-24606D02*
D03*
X-35433Y127953D02*
D03*
X-56102Y125000D02*
D03*
X-24606D02*
D03*
X66929Y95473D02*
D03*
X58071Y109252D02*
D03*
X52165Y240158D02*
D03*
X40354Y224410D02*
D03*
Y228346D02*
D03*
X11811Y248032D02*
D03*
Y255906D02*
D03*
X12795Y201772D02*
D03*
X-35433Y143701D02*
D03*
X35433Y50197D02*
D03*
X68898Y33465D02*
D03*
X31496Y50197D02*
D03*
X14764Y62008D02*
D03*
X18701D02*
D03*
X30512Y67913D02*
D03*
X26575D02*
D03*
X28543Y70866D02*
D03*
X20669Y68898D02*
D03*
X28543Y92520D02*
D03*
X16732D02*
D03*
X20669Y72835D02*
D03*
X22638Y89567D02*
D03*
X62992D02*
D03*
X56102Y86614D02*
D03*
X12795Y218504D02*
D03*
X25591Y90551D02*
D03*
X19685D02*
D03*
X-2953Y74803D02*
D03*
Y77756D02*
D03*
X29528Y62008D02*
D03*
X43307Y63976D02*
D03*
X72835Y53150D02*
D03*
X68898Y57087D02*
D03*
X43307Y61024D02*
D03*
X42323Y66929D02*
D03*
X35433Y85630D02*
D03*
X34449Y67913D02*
D03*
X32480Y75788D02*
D03*
X31496Y83662D02*
D03*
X25591Y80709D02*
D03*
X13780Y77756D02*
D03*
X0Y100394D02*
D03*
X-37402Y225394D02*
D03*
X-69882Y196850D02*
D03*
X-54134Y160433D02*
D03*
X-51181Y163386D02*
D03*
X-42323Y172244D02*
D03*
X-48228Y166339D02*
D03*
X-50197Y198819D02*
D03*
X-54134D02*
D03*
X-45276Y169291D02*
D03*
X-39370Y175197D02*
D03*
X-36417Y178150D02*
D03*
X-33465Y181102D02*
D03*
X-39370Y219488D02*
D03*
X13780Y154528D02*
D03*
X39370Y149606D02*
D03*
Y145669D02*
D03*
X6890Y150591D02*
D03*
X13780D02*
D03*
X6890Y154528D02*
D03*
X-11811Y160433D02*
D03*
X-7874Y172244D02*
D03*
X-5906Y175197D02*
D03*
X-7874Y178150D02*
D03*
X-5906Y169291D02*
D03*
Y181102D02*
D03*
X-3937Y184055D02*
D03*
X-30512D02*
D03*
X10827Y181102D02*
D03*
X25591Y178150D02*
D03*
X3937Y232283D02*
D03*
X-9843Y163386D02*
D03*
X-7874Y166339D02*
D03*
X-72835Y84646D02*
D03*
X-68898Y96457D02*
D03*
X-72835Y100394D02*
D03*
X-100394Y179134D02*
D03*
X-104331Y147638D02*
D03*
X-72835Y106299D02*
D03*
X-104331Y112205D02*
D03*
X-92520Y117126D02*
D03*
X-94488Y114173D02*
D03*
X-81693Y106299D02*
D03*
X52165Y138780D02*
D03*
X-56102Y24606D02*
D03*
X-88583Y156496D02*
D03*
X-104331Y76772D02*
D03*
X-92520Y137795D02*
D03*
X-52165Y62008D02*
D03*
X-38386D02*
D03*
X17717Y66929D02*
D03*
X44291Y87599D02*
D03*
Y92520D02*
D03*
Y96457D02*
D03*
X66929Y43307D02*
D03*
X-24606Y82677D02*
D03*
X-30512D02*
D03*
X41339Y119095D02*
D03*
X51673Y222638D02*
D03*
Y226378D02*
D03*
X35433Y38386D02*
D03*
X35925Y42323D02*
D03*
Y46260D02*
D03*
X82677Y227362D02*
D03*
D53*
X-28543Y205709D02*
D03*
X-34449D02*
D03*
X-28543Y201772D02*
D03*
X-34449D02*
D03*
M02*
