M48
;Layer_Color=9474304
;FILE_FORMAT=2:4
INCH,TZ
;TYPE=PLATED
T1F00S00C0.0118
T2F00S00C0.0138
T3F00S00C0.0354
T4F00S00C0.0394
T5F00S00C0.0472
T6F00S00C0.0551
T7F00S00C0.0709
T8F00S00C0.1181
%
T01
X-5610Y2461
X-5906Y4134
X-3248Y3445
X-2953Y2461
X295Y3543
X787Y3543
X1673
X2067Y4331
X2756Y3740
X3150Y3346
X3543Y3839
X3593Y4232
Y4626
X3543Y5020
X3150
X886Y5610
X492Y4331
X2264Y2559
X4528
X4921
X5315
X7185
X7579
X7972
X6890Y3346
X6496
X6693Y4331
X6102Y5118
X7283Y5315
X6004Y295
X10079Y20709
X8898
X7717
X8169Y19882
X6594Y20866
X5217Y19390
X5020Y18504
Y17717
X2559Y17815
X1083Y18110
X-591
X-787Y17815
X-591Y17520
X-787Y17224
X-591Y16929
X-787Y16634
X-984Y16339
X-1181Y16043
X689Y15453
Y15059
X1378
Y15453
X3937Y14961
Y14567
X5217Y13878
X4134Y11909
X4429Y9646
Y9252
Y8760
X3543Y8563
X3150Y8366
X3248Y7579
X2854Y7087
X2657Y6791
X3051
X3445
X4232Y6693
X4331Y6398
Y6102
X2953Y6201
X1870
X1476
X1772Y6693
X2067Y6890
Y7283
X1378Y7776
X1083Y7972
Y8366
Y7579
X-295Y7480
Y7776
X-394Y7185
X-295Y6890
Y6594
X-98Y5709
X-2165Y6004
X-2559
X-3248Y6496
X-3839Y6201
X-5217
X-2756Y7185
X-3051Y8268
X-2461
X-1870Y8760
X-2953Y10039
X-2756Y10335
X-2559Y10630
X-2756Y10925
X-2953Y11220
X-2461Y12500
X-3543Y12795
Y14370
X-2461Y14075
X-5610
Y12500
X-4429Y10925
X-4626Y10630
X-4429Y10335
X-4626Y10039
X-5906Y9941
X-492Y10433
X0
Y10039
X984Y10138
X1575Y10728
X1673Y9252
X1969Y9055
X2264Y8957
X2559Y9055
X2854Y9252
X2559Y8071
X5610Y8169
Y8661
Y9547
X6299
X6693
X6299Y8957
Y7185
Y6791
X7677Y6496
Y5709
X6890
X5807Y10925
X787Y12106
X-394Y18406
X-591Y18701
X-2264Y19390
X-3051Y18406
X-3346Y18110
X-3642Y17815
X-3937Y17520
X-4232Y17224
X-4528Y16929
X-4823Y16634
X-5118Y16339
X-5413Y16043
X-6004
X-5413Y19488
Y19882
Y20276
X-5020Y19882
X-4921Y21161
X-5217
X-3150Y20374
X-886Y20866
X630Y20709
X1280Y20177
X1811Y20709
X3445Y20472
Y19390
X-6988Y19685
Y20866
X-6299Y18110
X-7677Y16240
X-8858Y15650
X-9252Y13780
X-7776Y13287
X-7480Y13484
Y13091
X-6693Y14567
X-10433Y14764
X-10039Y17913
X-9252Y11713
X-9449Y11417
X-10433Y11220
X-8465Y11713
X-8169Y10630
X-7283
Y10039
X-6890
Y9646
X-6398
X-7677
X-7283Y8465
X-10433Y7677
X-6988Y21654
Y22441
Y23228
Y24016
X-4331Y22933
X-3740Y22539
X-3937Y21949
X-3445Y21752
X-4626
X-886Y21654
Y22441
X39Y21890
X1280Y21850
X2717Y22008
Y22441
Y22874
X3150
Y22441
X3583
Y22874
X4035Y22835
Y22441
X3583Y22008
X3150
X5118Y21752
X5167Y22264
Y22638
X5217Y24016
X6201Y24508
X6535Y25433
X7717
X8898
X8307Y26614
X7126
X5945
X6535Y27795
X7717
X5354
X4173
X2992
X1811
X630
X-551
X39Y26614
X1220
X1181Y25591
X630Y25433
X1181Y24803
X39Y24252
X394Y23228
X2992Y25433
X4173
X5354
X3583Y26614
X2402
X7776Y24016
X8307Y24252
X8268Y22736
X7717Y23071
X8898
X7382Y21555
X6791Y21260
X9488Y21890
X10079Y23071
X9488Y24252
X10079Y25433
T02
X4161Y12598
X4501
T03
X-9500Y787
X-8500
X-7500
X-6500
Y1787
X-7500
X-8500
X-9500
X-5500
Y787
X-4500
X-3500
X-2500
X-1500
X-500
X500
X1500
X2500
X3500
X4500
X5500
X6500
X7500
X8500
Y1787
X7500
X6500
X5500
X4500
X3500
X2500
X1500
X500
X-500
X-1500
X-2500
X-3500
X-4500
X9500
Y787
T04
X-9252Y9055
Y9843
Y10630
X-7480Y29134
Y29921
X-4724Y27559
X-3937
X-3150
T05
X6594Y12748
Y13748
Y14748
Y15748
Y16748
Y17748
Y18748
X7594
Y17748
Y16748
Y15748
Y14748
Y13748
Y12748
T06
X-9744Y20079
X-8760
Y21654
X-9744
Y23228
X-8760
T07
X-9252Y18465
Y24843
T08
X-9744Y5315
X9744
X-9744Y27559
X9744
M30
