G04 Layer_Color=8388736*
%FSLAX25Y25*%
%MOIN*%
G70*
G01*
G75*
%ADD80R,0.03543X0.01969*%
G04:AMPARAMS|DCode=81|XSize=118.24mil|YSize=74.93mil|CornerRadius=20.73mil|HoleSize=0mil|Usage=FLASHONLY|Rotation=90.000|XOffset=0mil|YOffset=0mil|HoleType=Round|Shape=RoundedRectangle|*
%AMROUNDEDRECTD81*
21,1,0.11824,0.03347,0,0,90.0*
21,1,0.07677,0.07493,0,0,90.0*
1,1,0.04146,0.01673,0.03839*
1,1,0.04146,0.01673,-0.03839*
1,1,0.04146,-0.01673,-0.03839*
1,1,0.04146,-0.01673,0.03839*
%
%ADD81ROUNDEDRECTD81*%
G04:AMPARAMS|DCode=82|XSize=118.24mil|YSize=110.36mil|CornerRadius=29.59mil|HoleSize=0mil|Usage=FLASHONLY|Rotation=90.000|XOffset=0mil|YOffset=0mil|HoleType=Round|Shape=RoundedRectangle|*
%AMROUNDEDRECTD82*
21,1,0.11824,0.05118,0,0,90.0*
21,1,0.05906,0.11036,0,0,90.0*
1,1,0.05918,0.02559,0.02953*
1,1,0.05918,0.02559,-0.02953*
1,1,0.05918,-0.02559,-0.02953*
1,1,0.05918,-0.02559,0.02953*
%
%ADD82ROUNDEDRECTD82*%
%ADD83R,0.14186X0.07296*%
%ADD84R,0.17335X0.06706*%
%ADD85R,0.03162X0.04343*%
%ADD86C,0.07874*%
%ADD87R,0.07887X0.05524*%
%ADD88O,0.04095X0.01535*%
%ADD89O,0.01535X0.04095*%
%ADD90R,0.08622X0.08622*%
%ADD91R,0.04737X0.03635*%
%ADD92R,0.03635X0.04737*%
%ADD93O,0.03110X0.01339*%
%ADD94O,0.01339X0.03110*%
%ADD95R,0.13937X0.13937*%
%ADD96R,0.06575X0.07795*%
%ADD97O,0.05709X0.01575*%
%ADD98R,0.10039X0.08071*%
%ADD99O,0.03740X0.01181*%
%ADD100R,0.02913X0.02913*%
%ADD101R,0.03937X0.03543*%
%ADD102R,0.02913X0.02913*%
%ADD103R,0.02756X0.07284*%
%ADD104R,0.01969X0.02756*%
%ADD105R,0.04540X0.03359*%
G04:AMPARAMS|DCode=106|XSize=55.24mil|YSize=47.37mil|CornerRadius=13.84mil|HoleSize=0mil|Usage=FLASHONLY|Rotation=180.000|XOffset=0mil|YOffset=0mil|HoleType=Round|Shape=RoundedRectangle|*
%AMROUNDEDRECTD106*
21,1,0.05524,0.01969,0,0,180.0*
21,1,0.02756,0.04737,0,0,180.0*
1,1,0.02769,-0.01378,0.00984*
1,1,0.02769,0.01378,0.00984*
1,1,0.02769,0.01378,-0.00984*
1,1,0.02769,-0.01378,-0.00984*
%
%ADD106ROUNDEDRECTD106*%
G04:AMPARAMS|DCode=107|XSize=106.42mil|YSize=106.42mil|CornerRadius=28.61mil|HoleSize=0mil|Usage=FLASHONLY|Rotation=90.000|XOffset=0mil|YOffset=0mil|HoleType=Round|Shape=RoundedRectangle|*
%AMROUNDEDRECTD107*
21,1,0.10642,0.04921,0,0,90.0*
21,1,0.04921,0.10642,0,0,90.0*
1,1,0.05721,0.02461,0.02461*
1,1,0.05721,0.02461,-0.02461*
1,1,0.05721,-0.02461,-0.02461*
1,1,0.05721,-0.02461,0.02461*
%
%ADD107ROUNDEDRECTD107*%
%ADD108R,0.07887X0.04737*%
%ADD109R,0.06299X0.07284*%
%ADD110R,0.04737X0.03162*%
%ADD111O,0.01575X0.05906*%
%ADD112O,0.05906X0.01575*%
G04:AMPARAMS|DCode=113|XSize=86.74mil|YSize=47.37mil|CornerRadius=13.84mil|HoleSize=0mil|Usage=FLASHONLY|Rotation=180.000|XOffset=0mil|YOffset=0mil|HoleType=Round|Shape=RoundedRectangle|*
%AMROUNDEDRECTD113*
21,1,0.08674,0.01969,0,0,180.0*
21,1,0.05906,0.04737,0,0,180.0*
1,1,0.02769,-0.02953,0.00984*
1,1,0.02769,0.02953,0.00984*
1,1,0.02769,0.02953,-0.00984*
1,1,0.02769,-0.02953,-0.00984*
%
%ADD113ROUNDEDRECTD113*%
%ADD114R,0.07887X0.05721*%
%ADD115R,0.04343X0.03162*%
%ADD116R,0.04540X0.03359*%
G04:AMPARAMS|DCode=117|XSize=86.74mil|YSize=106.42mil|CornerRadius=23.69mil|HoleSize=0mil|Usage=FLASHONLY|Rotation=270.000|XOffset=0mil|YOffset=0mil|HoleType=Round|Shape=RoundedRectangle|*
%AMROUNDEDRECTD117*
21,1,0.08674,0.05906,0,0,270.0*
21,1,0.03937,0.10642,0,0,270.0*
1,1,0.04737,-0.02953,-0.01969*
1,1,0.04737,-0.02953,0.01969*
1,1,0.04737,0.02953,0.01969*
1,1,0.04737,0.02953,-0.01969*
%
%ADD117ROUNDEDRECTD117*%
G04:AMPARAMS|DCode=118|XSize=31.62mil|YSize=86.74mil|CornerRadius=9.91mil|HoleSize=0mil|Usage=FLASHONLY|Rotation=270.000|XOffset=0mil|YOffset=0mil|HoleType=Round|Shape=RoundedRectangle|*
%AMROUNDEDRECTD118*
21,1,0.03162,0.06693,0,0,270.0*
21,1,0.01181,0.08674,0,0,270.0*
1,1,0.01981,-0.03347,-0.00591*
1,1,0.01981,-0.03347,0.00591*
1,1,0.01981,0.03347,0.00591*
1,1,0.01981,0.03347,-0.00591*
%
%ADD118ROUNDEDRECTD118*%
%ADD119R,0.02559X0.03150*%
%ADD120R,0.04528X0.03740*%
%ADD121R,0.03359X0.04540*%
%ADD122R,0.03162X0.04737*%
%ADD123O,0.07480X0.01575*%
%ADD124O,0.01575X0.07480*%
%ADD125R,0.03162X0.04540*%
%ADD126C,0.12611*%
%ADD127O,0.10642X0.06706*%
%ADD128C,0.04331*%
%ADD129C,0.18517*%
%ADD130C,0.04737*%
%ADD131C,0.03162*%
%ADD132C,0.03753*%
G36*
X-45335Y-85042D02*
X-45298Y-85053D01*
X-45264Y-85072D01*
X-45234Y-85096D01*
X-45210Y-85126D01*
X-45191Y-85160D01*
X-45180Y-85198D01*
X-45176Y-85236D01*
Y-98228D01*
X-45180Y-98267D01*
X-45191Y-98304D01*
X-45210Y-98338D01*
X-45234Y-98368D01*
X-45264Y-98393D01*
X-45298Y-98411D01*
X-45335Y-98422D01*
X-45374Y-98426D01*
X-46358D01*
X-46397Y-98422D01*
X-46434Y-98411D01*
X-46468Y-98393D01*
X-46498Y-98368D01*
X-46523Y-98338D01*
X-46541Y-98304D01*
X-46552Y-98267D01*
X-46556Y-98228D01*
Y-95769D01*
X-53838D01*
Y-98228D01*
X-53841Y-98267D01*
X-53853Y-98304D01*
X-53871Y-98338D01*
X-53895Y-98368D01*
X-53926Y-98393D01*
X-53960Y-98411D01*
X-53997Y-98422D01*
X-54035Y-98426D01*
X-55020D01*
X-55058Y-98422D01*
X-55095Y-98411D01*
X-55129Y-98393D01*
X-55159Y-98368D01*
X-55184Y-98338D01*
X-55202Y-98304D01*
X-55214Y-98267D01*
X-55217Y-98228D01*
Y-85236D01*
X-55214Y-85198D01*
X-55202Y-85161D01*
X-55184Y-85126D01*
X-55159Y-85096D01*
X-55129Y-85072D01*
X-55095Y-85053D01*
X-55058Y-85042D01*
X-55020Y-85039D01*
X-54035D01*
X-53997Y-85042D01*
X-53960Y-85053D01*
X-53926Y-85072D01*
X-53895Y-85096D01*
X-53871Y-85126D01*
X-53853Y-85161D01*
X-53841Y-85198D01*
X-53838Y-85236D01*
Y-87696D01*
X-46556D01*
Y-85236D01*
X-46552Y-85198D01*
X-46541Y-85161D01*
X-46523Y-85126D01*
X-46498Y-85096D01*
X-46468Y-85072D01*
X-46434Y-85053D01*
X-46397Y-85042D01*
X-46358Y-85039D01*
X-45374Y-85038D01*
X-45335Y-85042D01*
D02*
G37*
D80*
X-155709Y-5512D02*
D03*
Y-2953D02*
D03*
Y-394D02*
D03*
X-163189D02*
D03*
Y-2953D02*
D03*
Y-5512D02*
D03*
X57520Y-32579D02*
D03*
Y-35138D02*
D03*
Y-37697D02*
D03*
Y-40256D02*
D03*
X68465Y-32579D02*
D03*
Y-35138D02*
D03*
Y-37697D02*
D03*
Y-40256D02*
D03*
X-119882Y-2953D02*
D03*
Y-394D02*
D03*
Y-5512D02*
D03*
X-112402D02*
D03*
Y-394D02*
D03*
Y-2953D02*
D03*
D81*
X-143898Y-135827D02*
D03*
Y-118110D02*
D03*
D82*
X-109842Y-135827D02*
D03*
Y-118110D02*
D03*
D83*
X-137795Y128642D02*
D03*
Y150886D02*
D03*
X-108268Y128642D02*
D03*
Y150886D02*
D03*
X-167323Y128642D02*
D03*
Y150886D02*
D03*
X-108268Y53838D02*
D03*
Y76083D02*
D03*
X-137795Y53838D02*
D03*
Y76083D02*
D03*
X-167323Y53838D02*
D03*
Y76083D02*
D03*
D84*
X-108268Y106299D02*
D03*
Y88583D02*
D03*
X-137795Y106299D02*
D03*
Y88583D02*
D03*
X-167323Y106299D02*
D03*
Y88583D02*
D03*
D85*
X-163189Y41929D02*
D03*
X-155709D02*
D03*
X-159449Y32874D02*
D03*
X-119882Y41929D02*
D03*
X-112402D02*
D03*
X-116142Y32874D02*
D03*
X-141535Y41929D02*
D03*
X-134055D02*
D03*
X-137795Y32874D02*
D03*
D86*
X-186614Y-113779D02*
D03*
X163386Y113779D02*
D03*
Y-113779D02*
D03*
D87*
X26575Y-46063D02*
D03*
X10827D02*
D03*
Y-36614D02*
D03*
X26575D02*
D03*
D88*
X103445Y-84646D02*
D03*
Y-90551D02*
D03*
X117028D02*
D03*
Y-84646D02*
D03*
X136713Y-90551D02*
D03*
Y-84646D02*
D03*
X123130D02*
D03*
Y-90551D02*
D03*
D89*
X106299Y-94390D02*
D03*
X108268D02*
D03*
X110236D02*
D03*
X112205D02*
D03*
X114173D02*
D03*
Y-80807D02*
D03*
X112205D02*
D03*
X110236D02*
D03*
X108268D02*
D03*
X106299D02*
D03*
X133858D02*
D03*
X131890D02*
D03*
X129921D02*
D03*
X127953D02*
D03*
X125984D02*
D03*
Y-94390D02*
D03*
X127953D02*
D03*
X129921D02*
D03*
X131890D02*
D03*
X133858D02*
D03*
D90*
X110236Y-87598D02*
D03*
X129921D02*
D03*
D91*
X-101378Y-89803D02*
D03*
Y-95236D02*
D03*
X-11811Y-83898D02*
D03*
Y-89331D02*
D03*
Y-69134D02*
D03*
Y-74567D02*
D03*
X97441Y-84882D02*
D03*
Y-90315D02*
D03*
X142717Y-90315D02*
D03*
Y-84882D02*
D03*
X-113189Y-43543D02*
D03*
Y-48976D02*
D03*
X-119095Y-43543D02*
D03*
Y-48976D02*
D03*
X-75787Y-85866D02*
D03*
Y-91299D02*
D03*
X-150591Y-95236D02*
D03*
Y-89803D02*
D03*
X-144685Y-95236D02*
D03*
Y-89803D02*
D03*
X-107283Y-95236D02*
D03*
Y-89803D02*
D03*
X23622Y-22401D02*
D03*
Y-16969D02*
D03*
X60040Y46496D02*
D03*
Y51929D02*
D03*
X65945Y46496D02*
D03*
Y51929D02*
D03*
X-20669Y3701D02*
D03*
Y-1732D02*
D03*
X60040Y236D02*
D03*
Y5669D02*
D03*
X11811Y-16969D02*
D03*
Y-22402D02*
D03*
X175197Y126732D02*
D03*
Y121299D02*
D03*
X11811Y-89331D02*
D03*
Y-83898D02*
D03*
Y-74567D02*
D03*
Y-69134D02*
D03*
X52165Y-45039D02*
D03*
Y-39606D02*
D03*
X73819Y-27795D02*
D03*
Y-33228D02*
D03*
Y-45039D02*
D03*
Y-39606D02*
D03*
X-42323Y-44055D02*
D03*
Y-38622D02*
D03*
X-18701Y-44055D02*
D03*
Y-38622D02*
D03*
X-165354Y-37165D02*
D03*
Y-31732D02*
D03*
X-150591Y-16496D02*
D03*
Y-11063D02*
D03*
X-125000Y-16496D02*
D03*
Y-11063D02*
D03*
X-159449Y-37165D02*
D03*
Y-31732D02*
D03*
D92*
X-156732Y-13780D02*
D03*
X-162165D02*
D03*
X-156732Y-19685D02*
D03*
X-162165D02*
D03*
X-156732Y-25591D02*
D03*
X-162165D02*
D03*
X-135591Y8858D02*
D03*
X-130158D02*
D03*
X-1220Y63976D02*
D03*
X-6654D02*
D03*
X-70630Y-83662D02*
D03*
X-65197D02*
D03*
X-47992Y-102362D02*
D03*
X-42559D02*
D03*
X-65197Y-93504D02*
D03*
X-70630D02*
D03*
X-52913Y-80709D02*
D03*
X-47480D02*
D03*
X26339Y-29528D02*
D03*
X20906D02*
D03*
X11063Y-29528D02*
D03*
X16496D02*
D03*
X-14527Y-19685D02*
D03*
X-9094D02*
D03*
X-14527Y-25591D02*
D03*
X-9094D02*
D03*
X31732Y-22638D02*
D03*
X37165D02*
D03*
X-145433Y8858D02*
D03*
X-140000D02*
D03*
X-135079Y-984D02*
D03*
X-140512D02*
D03*
X-130669Y-984D02*
D03*
X-125236D02*
D03*
X-144921Y-984D02*
D03*
X-150355D02*
D03*
X-80945Y3937D02*
D03*
X-86378D02*
D03*
X-80945Y-19685D02*
D03*
X-86378D02*
D03*
X-80945Y-49213D02*
D03*
X-86378D02*
D03*
X-118858Y-19685D02*
D03*
X-113425D02*
D03*
X-80945Y-25591D02*
D03*
X-86378D02*
D03*
X-118858Y-31496D02*
D03*
X-113425D02*
D03*
X-37638Y-55118D02*
D03*
X-43071D02*
D03*
X31732Y-16732D02*
D03*
X37165D02*
D03*
D93*
X78839Y-69095D02*
D03*
Y-71457D02*
D03*
Y-73819D02*
D03*
Y-76181D02*
D03*
Y-78543D02*
D03*
Y-80905D02*
D03*
Y-83268D02*
D03*
Y-85630D02*
D03*
Y-87992D02*
D03*
Y-90354D02*
D03*
X47146D02*
D03*
Y-87992D02*
D03*
Y-85630D02*
D03*
Y-83268D02*
D03*
Y-80905D02*
D03*
Y-78543D02*
D03*
Y-76181D02*
D03*
Y-73819D02*
D03*
Y-71457D02*
D03*
Y-69095D02*
D03*
X75295Y-70276D02*
D03*
Y-72638D02*
D03*
Y-75000D02*
D03*
Y-77362D02*
D03*
Y-79724D02*
D03*
Y-82087D02*
D03*
Y-84449D02*
D03*
Y-86811D02*
D03*
Y-89173D02*
D03*
X50689D02*
D03*
Y-86811D02*
D03*
Y-84449D02*
D03*
Y-82087D02*
D03*
Y-79724D02*
D03*
Y-77362D02*
D03*
Y-75000D02*
D03*
Y-72638D02*
D03*
Y-70276D02*
D03*
D94*
X73622Y-95571D02*
D03*
X71260D02*
D03*
X68898D02*
D03*
X66535D02*
D03*
X64173D02*
D03*
X61811D02*
D03*
X59449D02*
D03*
X57087D02*
D03*
X54724D02*
D03*
X52362D02*
D03*
Y-63878D02*
D03*
X54724D02*
D03*
X57087D02*
D03*
X59449D02*
D03*
X61811D02*
D03*
X64173D02*
D03*
X66535D02*
D03*
X68898D02*
D03*
X71260D02*
D03*
X73622D02*
D03*
X72441Y-92027D02*
D03*
X70079D02*
D03*
X67716D02*
D03*
X65354D02*
D03*
X62992D02*
D03*
X60630D02*
D03*
X58268D02*
D03*
X55905D02*
D03*
X53543D02*
D03*
Y-67421D02*
D03*
X55905D02*
D03*
X58268D02*
D03*
X60630D02*
D03*
X62992D02*
D03*
X65354D02*
D03*
X67716D02*
D03*
X70079D02*
D03*
X72441D02*
D03*
D95*
X62992Y-79724D02*
D03*
D96*
X-125984Y-92520D02*
D03*
D97*
X-117224Y-96457D02*
D03*
Y-94488D02*
D03*
Y-92520D02*
D03*
Y-90551D02*
D03*
Y-88583D02*
D03*
X-134744Y-96457D02*
D03*
Y-94488D02*
D03*
Y-92520D02*
D03*
Y-90551D02*
D03*
Y-88583D02*
D03*
D98*
X-50197Y-91732D02*
D03*
D99*
X-57972Y-95669D02*
D03*
Y-94095D02*
D03*
Y-92520D02*
D03*
Y-90945D02*
D03*
Y-89370D02*
D03*
Y-87795D02*
D03*
X-42421D02*
D03*
Y-89370D02*
D03*
Y-90945D02*
D03*
Y-92520D02*
D03*
Y-94095D02*
D03*
Y-95669D02*
D03*
D100*
X38386Y-65748D02*
D03*
Y-62205D02*
D03*
X32480D02*
D03*
Y-65748D02*
D03*
X47244Y-103149D02*
D03*
Y-99606D02*
D03*
X55118Y-105118D02*
D03*
Y-101575D02*
D03*
X62992Y-105118D02*
D03*
Y-101575D02*
D03*
X66929Y-105118D02*
D03*
Y-101575D02*
D03*
X86614Y-75591D02*
D03*
Y-72047D02*
D03*
X66929Y-57874D02*
D03*
Y-54331D02*
D03*
X59055Y-57874D02*
D03*
Y-54331D02*
D03*
X55118Y-57874D02*
D03*
Y-54331D02*
D03*
X51181Y-57874D02*
D03*
Y-54331D02*
D03*
D101*
X32776Y-70768D02*
D03*
X38091D02*
D03*
X32776Y-74902D02*
D03*
X38091D02*
D03*
D102*
X33661Y-83661D02*
D03*
X37205D02*
D03*
X33661Y-87598D02*
D03*
X37205D02*
D03*
X33661Y-91535D02*
D03*
X37205D02*
D03*
X33661Y-95472D02*
D03*
X37205D02*
D03*
X84842Y-65945D02*
D03*
X88386D02*
D03*
X84842Y-87598D02*
D03*
X88386D02*
D03*
D103*
X44488Y-112205D02*
D03*
X50000D02*
D03*
D104*
X47244Y-116142D02*
D03*
Y-108268D02*
D03*
D105*
X52165Y-33169D02*
D03*
Y-27854D02*
D03*
X-27559Y25886D02*
D03*
Y31201D02*
D03*
X-33465Y25886D02*
D03*
Y31201D02*
D03*
X-33465Y35728D02*
D03*
Y41043D02*
D03*
X-27559Y35728D02*
D03*
Y41043D02*
D03*
X-33465Y3642D02*
D03*
Y-1673D02*
D03*
X141732Y131201D02*
D03*
Y136516D02*
D03*
X135827D02*
D03*
Y131201D02*
D03*
X-27559Y16043D02*
D03*
Y21358D02*
D03*
X-33465D02*
D03*
Y16043D02*
D03*
X187008Y121358D02*
D03*
Y126673D02*
D03*
X181102Y126673D02*
D03*
Y121358D02*
D03*
X147638Y131201D02*
D03*
Y136516D02*
D03*
X-20669Y106004D02*
D03*
Y100689D02*
D03*
X-137795Y18012D02*
D03*
Y23327D02*
D03*
X-159449Y-48917D02*
D03*
Y-43602D02*
D03*
X-72835Y-40059D02*
D03*
Y-34744D02*
D03*
Y-10531D02*
D03*
Y-5217D02*
D03*
X-42323Y-28248D02*
D03*
Y-22933D02*
D03*
X47244Y83366D02*
D03*
Y78051D02*
D03*
Y99114D02*
D03*
Y93799D02*
D03*
Y114862D02*
D03*
Y109547D02*
D03*
X-20669Y96161D02*
D03*
Y90846D02*
D03*
D106*
X170079Y137402D02*
D03*
Y144095D02*
D03*
X192126Y137402D02*
D03*
Y144095D02*
D03*
D107*
X-29528Y81693D02*
D03*
X-57087D02*
D03*
X-29528Y54134D02*
D03*
X-57087D02*
D03*
D108*
X-1968Y-27559D02*
D03*
Y-17717D02*
D03*
D109*
X62992Y-36417D02*
D03*
D110*
X-25098Y-37598D02*
D03*
Y-45079D02*
D03*
X-35925D02*
D03*
Y-41339D02*
D03*
Y-37598D02*
D03*
X5413Y-82874D02*
D03*
Y-90354D02*
D03*
X-5413D02*
D03*
Y-86614D02*
D03*
Y-82874D02*
D03*
X5413Y-68110D02*
D03*
Y-75590D02*
D03*
X-5413D02*
D03*
Y-71850D02*
D03*
Y-68110D02*
D03*
D111*
X-144685Y-43110D02*
D03*
Y-17913D02*
D03*
X-140748D02*
D03*
X-142717D02*
D03*
X-130906Y-43110D02*
D03*
X-132874D02*
D03*
X-138780Y-17913D02*
D03*
X-136811D02*
D03*
X-134843D02*
D03*
X-130906D02*
D03*
X-132874D02*
D03*
X-140748Y-43110D02*
D03*
X-142717D02*
D03*
X-138780D02*
D03*
X-136811D02*
D03*
X-134843D02*
D03*
D112*
X-150394Y-29528D02*
D03*
Y-33465D02*
D03*
Y-31496D02*
D03*
Y-23622D02*
D03*
Y-27559D02*
D03*
Y-25591D02*
D03*
X-125197Y-33465D02*
D03*
Y-37402D02*
D03*
Y-35433D02*
D03*
Y-27559D02*
D03*
Y-31496D02*
D03*
Y-29528D02*
D03*
Y-25591D02*
D03*
Y-23622D02*
D03*
X-150394Y-37402D02*
D03*
Y-35433D02*
D03*
D113*
X31988Y83662D02*
D03*
X7383D02*
D03*
X7383Y99410D02*
D03*
X31988D02*
D03*
D114*
X-93504Y-82972D02*
D03*
Y-94193D02*
D03*
D115*
X-37008Y102362D02*
D03*
X-27953Y106102D02*
D03*
Y98622D02*
D03*
X62599Y96457D02*
D03*
X53544Y92717D02*
D03*
Y100197D02*
D03*
X62598Y112205D02*
D03*
X53543Y108464D02*
D03*
Y115945D02*
D03*
X62598Y80709D02*
D03*
X53543Y76968D02*
D03*
Y84449D02*
D03*
X-25984Y-25591D02*
D03*
X-35039Y-29331D02*
D03*
Y-21850D02*
D03*
D116*
X-157539Y-96260D02*
D03*
Y-88779D02*
D03*
X-167264Y-92520D02*
D03*
D117*
X109646Y111417D02*
D03*
Y-64173D02*
D03*
D118*
X101181Y-53150D02*
D03*
Y-49213D02*
D03*
Y-45276D02*
D03*
Y-41339D02*
D03*
Y-37402D02*
D03*
Y-33465D02*
D03*
Y-29528D02*
D03*
Y-25591D02*
D03*
Y-21654D02*
D03*
Y-17717D02*
D03*
Y-13780D02*
D03*
Y-9843D02*
D03*
Y-5906D02*
D03*
Y-1969D02*
D03*
Y1969D02*
D03*
Y5906D02*
D03*
Y9843D02*
D03*
Y13780D02*
D03*
Y17717D02*
D03*
Y21654D02*
D03*
Y25591D02*
D03*
Y29528D02*
D03*
Y33465D02*
D03*
Y37402D02*
D03*
Y41339D02*
D03*
Y45276D02*
D03*
Y49213D02*
D03*
Y53150D02*
D03*
Y57087D02*
D03*
Y61024D02*
D03*
Y64961D02*
D03*
Y68898D02*
D03*
Y72835D02*
D03*
Y76772D02*
D03*
Y80709D02*
D03*
Y84646D02*
D03*
Y88583D02*
D03*
Y92520D02*
D03*
Y96457D02*
D03*
Y100394D02*
D03*
D119*
X143307Y143012D02*
D03*
X140158D02*
D03*
D120*
X135433Y144291D02*
D03*
X148032D02*
D03*
D121*
X2658Y-97441D02*
D03*
X-2657D02*
D03*
X2658Y-61024D02*
D03*
X-2657D02*
D03*
X65650Y17717D02*
D03*
X60335D02*
D03*
X-52461Y-102362D02*
D03*
X-57775D02*
D03*
X-128248Y-80709D02*
D03*
X-133563D02*
D03*
X-123720Y-104331D02*
D03*
X-118405D02*
D03*
X-128248D02*
D03*
X-133563D02*
D03*
X-123720Y-80709D02*
D03*
X-118405D02*
D03*
X-86319Y-83662D02*
D03*
X-81004D02*
D03*
X-86319Y-93504D02*
D03*
X-81004D02*
D03*
X65650Y11811D02*
D03*
X60335D02*
D03*
X80413Y110236D02*
D03*
X75098D02*
D03*
X-29823Y91536D02*
D03*
X-35138D02*
D03*
X90256Y110236D02*
D03*
X84941D02*
D03*
X-27854Y-15748D02*
D03*
X-33169D02*
D03*
X-33169Y-9843D02*
D03*
X-27854D02*
D03*
X-144980Y18701D02*
D03*
X-150295D02*
D03*
X-130610Y18701D02*
D03*
X-125295D02*
D03*
X-113484Y-13780D02*
D03*
X-118799D02*
D03*
X-118799Y-37402D02*
D03*
X-113484D02*
D03*
X-33169Y-61024D02*
D03*
X-27854D02*
D03*
X-43012Y-61024D02*
D03*
X-37697D02*
D03*
X-106988Y18701D02*
D03*
X-101673D02*
D03*
X-118799Y-25591D02*
D03*
X-113484D02*
D03*
D122*
X-83661Y-31988D02*
D03*
X-79921D02*
D03*
X-87401D02*
D03*
X-79921Y-42815D02*
D03*
X-87401D02*
D03*
X-83661Y-2461D02*
D03*
X-79921D02*
D03*
X-87402D02*
D03*
X-79921Y-13287D02*
D03*
X-87402D02*
D03*
D123*
X-10039Y0D02*
D03*
Y5906D02*
D03*
Y1969D02*
D03*
Y3937D02*
D03*
Y11811D02*
D03*
Y9843D02*
D03*
Y13780D02*
D03*
Y7874D02*
D03*
Y23622D02*
D03*
Y27559D02*
D03*
Y25591D02*
D03*
Y17717D02*
D03*
Y15748D02*
D03*
Y21654D02*
D03*
Y19685D02*
D03*
Y39370D02*
D03*
Y37402D02*
D03*
Y43307D02*
D03*
Y41339D02*
D03*
Y31496D02*
D03*
Y29528D02*
D03*
Y35433D02*
D03*
Y33465D02*
D03*
Y45276D02*
D03*
Y47244D02*
D03*
X49409Y7874D02*
D03*
Y11811D02*
D03*
Y9843D02*
D03*
Y1969D02*
D03*
Y0D02*
D03*
Y5906D02*
D03*
Y3937D02*
D03*
Y13780D02*
D03*
Y17717D02*
D03*
Y15748D02*
D03*
Y21654D02*
D03*
Y19685D02*
D03*
Y31496D02*
D03*
Y35433D02*
D03*
Y33465D02*
D03*
Y25591D02*
D03*
Y23622D02*
D03*
Y29528D02*
D03*
Y27559D02*
D03*
Y41339D02*
D03*
Y39370D02*
D03*
Y43307D02*
D03*
Y37402D02*
D03*
Y47244D02*
D03*
Y45276D02*
D03*
D124*
X-3937Y-6102D02*
D03*
X-1968D02*
D03*
X5906D02*
D03*
X7874D02*
D03*
X0D02*
D03*
X3937D02*
D03*
X1969D02*
D03*
X13780D02*
D03*
X15748D02*
D03*
X9843D02*
D03*
X11811D02*
D03*
X-3937Y53347D02*
D03*
X0D02*
D03*
X1969D02*
D03*
X3937D02*
D03*
X5906D02*
D03*
X-1968D02*
D03*
X11811D02*
D03*
X13780D02*
D03*
X7874D02*
D03*
X9843D02*
D03*
X35433Y-6102D02*
D03*
X31496D02*
D03*
X33465D02*
D03*
X41339D02*
D03*
X43307D02*
D03*
X37402D02*
D03*
X39370D02*
D03*
X21654D02*
D03*
X17717D02*
D03*
X19685D02*
D03*
X27559D02*
D03*
X29528D02*
D03*
X23622D02*
D03*
X25591D02*
D03*
X15748Y53347D02*
D03*
X17717D02*
D03*
X19685D02*
D03*
X21654D02*
D03*
X23622D02*
D03*
X29528D02*
D03*
X31496D02*
D03*
X25591D02*
D03*
X27559D02*
D03*
X37402D02*
D03*
X39370D02*
D03*
X33465D02*
D03*
X35433D02*
D03*
X41339D02*
D03*
X43307D02*
D03*
D125*
X-53150Y101083D02*
D03*
X-49409Y91831D02*
D03*
X-56890D02*
D03*
D126*
X-11968Y197244D02*
D03*
X8032D02*
D03*
Y177244D02*
D03*
X-11968D02*
D03*
X-177323Y197244D02*
D03*
X-157323D02*
D03*
Y177244D02*
D03*
X-177323D02*
D03*
X-122205Y197244D02*
D03*
X-102205D02*
D03*
Y177244D02*
D03*
X-122205D02*
D03*
X-67086Y197244D02*
D03*
X-47087D02*
D03*
Y177244D02*
D03*
X-67086D02*
D03*
D127*
X-93504Y-130905D02*
D03*
Y-123031D02*
D03*
D128*
X72677Y119685D02*
D03*
Y124685D02*
D03*
X77677Y119685D02*
D03*
Y124685D02*
D03*
X82677Y119685D02*
D03*
Y124685D02*
D03*
X87677Y119685D02*
D03*
Y124685D02*
D03*
X92677Y119685D02*
D03*
Y124685D02*
D03*
D129*
X-186614Y-138976D02*
D03*
X186614Y-138976D02*
D03*
X-186614Y23622D02*
D03*
D130*
X-125984Y-123622D02*
D03*
Y-143307D02*
D03*
X-120079Y127953D02*
D03*
X-149606D02*
D03*
X-179134D02*
D03*
X-120079Y75787D02*
D03*
X-179134D02*
D03*
X-149606D02*
D03*
D131*
X-39370Y-51181D02*
D03*
X-139764Y-73819D02*
D03*
X-125000Y-20669D02*
D03*
X123032Y122047D02*
D03*
X84400Y-50197D02*
D03*
X93504Y-19685D02*
D03*
X87599Y-9843D02*
D03*
X93504Y96457D02*
D03*
Y-13780D02*
D03*
Y-33465D02*
D03*
Y-37402D02*
D03*
Y-41339D02*
D03*
Y-45276D02*
D03*
Y84646D02*
D03*
Y80709D02*
D03*
Y76772D02*
D03*
Y72835D02*
D03*
X89567Y68898D02*
D03*
X93504D02*
D03*
X-170276Y-54134D02*
D03*
X-179134D02*
D03*
X-72835Y7874D02*
D03*
X-93504Y-73819D02*
D03*
X-52165Y28543D02*
D03*
X19685Y-86614D02*
D03*
Y-71850D02*
D03*
X-158465Y-123031D02*
D03*
Y-109252D02*
D03*
X-93504D02*
D03*
X0Y-54134D02*
D03*
Y-104331D02*
D03*
X57087Y-20669D02*
D03*
X-131890Y-73819D02*
D03*
X-8858Y94488D02*
D03*
Y88583D02*
D03*
X-5905Y91535D02*
D03*
X9843Y73819D02*
D03*
Y69882D02*
D03*
X13780Y62008D02*
D03*
X9843Y65945D02*
D03*
X-31496Y-88583D02*
D03*
X-35433Y-84646D02*
D03*
X-72835Y-22638D02*
D03*
X99410Y-102362D02*
D03*
X112205Y-105315D02*
D03*
X102362Y-99410D02*
D03*
X94488Y-62008D02*
D03*
X93504Y-74803D02*
D03*
X41339Y-95472D02*
D03*
X-38386Y-97441D02*
D03*
X136811Y-76772D02*
D03*
X116142Y-75787D02*
D03*
X106299D02*
D03*
X98425Y-67913D02*
D03*
X125984Y-75787D02*
D03*
X84646Y-78740D02*
D03*
X116142Y-99410D02*
D03*
X148622Y-73819D02*
D03*
X144685D02*
D03*
X-65945Y3937D02*
D03*
X-62008D02*
D03*
X-58071D02*
D03*
Y0D02*
D03*
X-54134D02*
D03*
Y-3937D02*
D03*
X-50197D02*
D03*
X-91535Y-2953D02*
D03*
X87599Y30512D02*
D03*
X93504Y33465D02*
D03*
X90551Y36417D02*
D03*
X-107283Y-109252D02*
D03*
X-139764Y-96457D02*
D03*
X93504Y92520D02*
D03*
Y88583D02*
D03*
X46260Y-2953D02*
D03*
X46260Y-6890D02*
D03*
X56102Y13287D02*
D03*
X-38386Y-92520D02*
D03*
X-154528Y-43307D02*
D03*
X-148622Y-49213D02*
D03*
X43799Y-79724D02*
D03*
X13780Y65945D02*
D03*
X17717Y62008D02*
D03*
X-35433Y-80709D02*
D03*
X94488Y-102362D02*
D03*
X-10827Y116142D02*
D03*
X-179134Y-79725D02*
D03*
X-162402Y-88583D02*
D03*
X-112205Y-92520D02*
D03*
X-135827Y-73819D02*
D03*
X-33465Y-69882D02*
D03*
X-23622Y-9843D02*
D03*
X-23622Y-15748D02*
D03*
X-116142Y2953D02*
D03*
X-159449D02*
D03*
Y-8858D02*
D03*
X-144685Y-5906D02*
D03*
X-130906D02*
D03*
X-140748D02*
D03*
X-132874Y-8858D02*
D03*
X-30512Y-29528D02*
D03*
X-127953Y35433D02*
D03*
X-149606D02*
D03*
X31496Y110236D02*
D03*
Y88583D02*
D03*
X-16732Y35433D02*
D03*
D132*
X181102Y146161D02*
D03*
Y135335D02*
D03*
X-106299Y35433D02*
D03*
M02*
