G04 Layer_Physical_Order=3*
G04 Layer_Color=16440176*
%FSLAX25Y25*%
%MOIN*%
G70*
G01*
G75*
%ADD68C,0.02362*%
%ADD69C,0.02953*%
G36*
X91594Y-36417D02*
X91894Y-36917D01*
X91798Y-37402D01*
X91928Y-38054D01*
X92298Y-38608D01*
X92851Y-38978D01*
X93504Y-39108D01*
X94157Y-38978D01*
X94710Y-38608D01*
X95080Y-38054D01*
X95210Y-37402D01*
X95114Y-36917D01*
X95414Y-36417D01*
X117618D01*
X119587Y-38386D01*
X119587Y-56241D01*
X119233Y-56595D01*
X116766D01*
X116734Y-56434D01*
X116364Y-55880D01*
X115810Y-55510D01*
X115158Y-55381D01*
X114505Y-55510D01*
X113951Y-55880D01*
X113581Y-56434D01*
X113549Y-56595D01*
X106923D01*
X106891Y-56434D01*
X106521Y-55880D01*
X105968Y-55510D01*
X105315Y-55381D01*
X104662Y-55510D01*
X104109Y-55880D01*
X103739Y-56434D01*
X103707Y-56595D01*
X93504Y-56595D01*
X77264D01*
X73819Y-53150D01*
X70374Y-49705D01*
X63484Y-49705D01*
X63484Y-36771D01*
X63838Y-36417D01*
X91594Y-36417D01*
D02*
G37*
G36*
X41339Y-64469D02*
X43307Y-66437D01*
X43307Y-67192D01*
X42654Y-67321D01*
X42101Y-67691D01*
X41731Y-68245D01*
X41601Y-68898D01*
X41731Y-69551D01*
X42101Y-70104D01*
X42654Y-70474D01*
X43307Y-70604D01*
X43307Y-78116D01*
X43146Y-78148D01*
X42593Y-78518D01*
X42361Y-78866D01*
X41793D01*
X41561Y-78518D01*
X41007Y-78148D01*
X40354Y-78018D01*
X39702Y-78148D01*
X39148Y-78518D01*
X38778Y-79072D01*
X38648Y-79724D01*
X38778Y-80377D01*
X39148Y-80931D01*
X39702Y-81301D01*
X40354Y-81430D01*
X41007Y-81301D01*
X41561Y-80931D01*
X41793Y-80583D01*
X42361D01*
X42593Y-80931D01*
X43146Y-81301D01*
X43307Y-81332D01*
X43307Y-84646D01*
X41339Y-86614D01*
X25328D01*
X25328Y-86614D01*
X25198Y-85961D01*
X24828Y-85408D01*
X24275Y-85038D01*
X23622Y-84908D01*
X22969Y-85038D01*
X22711Y-85211D01*
X22146Y-84646D01*
X22146Y-81201D01*
X19685Y-78740D01*
X14076D01*
X13722Y-78240D01*
X13818Y-77756D01*
X13665Y-76988D01*
X13230Y-76337D01*
X12579Y-75902D01*
X11811Y-75749D01*
X11043Y-75902D01*
X10392Y-76337D01*
X9957Y-76988D01*
X9804Y-77756D01*
X9900Y-78240D01*
X9546Y-78740D01*
X492D01*
X492Y-76772D01*
X492Y-71850D01*
Y-66437D01*
X2461Y-64468D01*
X6890D01*
X41339Y-64469D01*
D02*
G37*
G36*
X196851Y148859D02*
Y115748D01*
X196851Y115748D01*
X196851D01*
X196876Y115720D01*
X196765Y114590D01*
X196427Y113477D01*
X195879Y112451D01*
X195141Y111552D01*
X194242Y110814D01*
X193216Y110266D01*
X192103Y109928D01*
X190945Y109814D01*
X173228Y109843D01*
X173228Y109871D01*
X173228Y109871D01*
X172736Y109822D01*
X172071Y109757D01*
X170958Y109419D01*
X169932Y108871D01*
X169032Y108133D01*
X168294Y107234D01*
X167746Y106208D01*
X167408Y105095D01*
X167294Y103937D01*
X167323Y-103937D01*
X167295Y-103937D01*
X167407Y-105078D01*
X167740Y-106176D01*
X168281Y-107187D01*
X169008Y-108074D01*
X169850Y-108765D01*
X169840Y-109021D01*
X169779Y-109265D01*
X122539Y-109252D01*
X120571Y-107283D01*
Y-67913D01*
X120571Y-37894D01*
X118110Y-35433D01*
X94470D01*
X94318Y-34933D01*
X94710Y-34671D01*
X95080Y-34117D01*
X95210Y-33465D01*
X95080Y-32812D01*
X94710Y-32258D01*
X94157Y-31888D01*
X93504Y-31759D01*
X92851Y-31888D01*
X92298Y-32258D01*
X91928Y-32812D01*
X91798Y-33465D01*
X91928Y-34117D01*
X92298Y-34671D01*
X92690Y-34933D01*
X92538Y-35433D01*
X36909D01*
X34449Y-37894D01*
Y-40373D01*
X33949Y-40525D01*
X33687Y-40132D01*
X33133Y-39762D01*
X32480Y-39633D01*
X31828Y-39762D01*
X31274Y-40132D01*
X30904Y-40686D01*
X30774Y-41339D01*
X30904Y-41991D01*
X31274Y-42545D01*
X31828Y-42915D01*
X32480Y-43045D01*
X33133Y-42915D01*
X33687Y-42545D01*
X33949Y-42153D01*
X34449Y-42304D01*
X34449Y-45294D01*
X33949Y-45446D01*
X33687Y-45053D01*
X33133Y-44684D01*
X32480Y-44554D01*
X31828Y-44684D01*
X31274Y-45053D01*
X30904Y-45607D01*
X30774Y-46260D01*
X30904Y-46913D01*
X31274Y-47466D01*
X31828Y-47836D01*
X32480Y-47966D01*
X33133Y-47836D01*
X33183Y-47802D01*
X33502Y-48191D01*
X30474Y-51219D01*
X30086Y-50900D01*
X30119Y-50850D01*
X30249Y-50197D01*
X30119Y-49544D01*
X29750Y-48990D01*
X29196Y-48621D01*
X28543Y-48491D01*
X27891Y-48621D01*
X27337Y-48990D01*
X26967Y-49544D01*
X26837Y-50197D01*
X26967Y-50850D01*
X27337Y-51403D01*
X27729Y-51665D01*
X27578Y-52165D01*
X24588D01*
X24436Y-51665D01*
X24828Y-51403D01*
X25198Y-50850D01*
X25328Y-50197D01*
X25198Y-49544D01*
X24828Y-48990D01*
X24275Y-48621D01*
X23622Y-48491D01*
X22969Y-48621D01*
X22416Y-48990D01*
X22046Y-49544D01*
X21916Y-50197D01*
X22046Y-50850D01*
X22416Y-51403D01*
X22808Y-51665D01*
X22657Y-52165D01*
X19667D01*
X19515Y-51665D01*
X19907Y-51403D01*
X20277Y-50850D01*
X20407Y-50197D01*
X20277Y-49544D01*
X19907Y-48990D01*
X19354Y-48621D01*
X18701Y-48491D01*
X18048Y-48621D01*
X17494Y-48990D01*
X17125Y-49544D01*
X16995Y-50197D01*
X17125Y-50850D01*
X17494Y-51403D01*
X17887Y-51665D01*
X17735Y-52165D01*
X14745D01*
X14594Y-51665D01*
X14986Y-51403D01*
X15356Y-50850D01*
X15486Y-50197D01*
X15356Y-49544D01*
X14986Y-48990D01*
X14433Y-48621D01*
X13780Y-48491D01*
X13127Y-48621D01*
X12573Y-48990D01*
X12203Y-49544D01*
X12074Y-50197D01*
X12203Y-50850D01*
X12573Y-51403D01*
X12966Y-51665D01*
X12814Y-52165D01*
X9824D01*
X9672Y-51665D01*
X10065Y-51403D01*
X10435Y-50850D01*
X10564Y-50197D01*
X10435Y-49544D01*
X10065Y-48990D01*
X9511Y-48621D01*
X8858Y-48491D01*
X8206Y-48621D01*
X7652Y-48990D01*
X7282Y-49544D01*
X7152Y-50197D01*
X7282Y-50850D01*
X7652Y-51403D01*
X8044Y-51665D01*
X7893Y-52165D01*
X6398D01*
X-28051Y-52165D01*
X-30020Y-50197D01*
X-30020Y-42323D01*
Y-32972D01*
X-32480Y-30512D01*
X-44291D01*
X-46260Y-28543D01*
X-46260Y19193D01*
X-48720Y21654D01*
X-66929Y21654D01*
X-66929Y40698D01*
X-66882Y40785D01*
X-66877Y40839D01*
X-66843Y40881D01*
X-66505Y41995D01*
X-66510Y42049D01*
X-66484Y42097D01*
X-66370Y43255D01*
X-66379Y43281D01*
X-66368Y43307D01*
X-66396Y97220D01*
X-26748Y136869D01*
X-2038D01*
X-1969Y136840D01*
X-1943Y136851D01*
X-1916Y136843D01*
X-759Y136957D01*
X-711Y136983D01*
X-656Y136977D01*
X457Y137315D01*
X499Y137349D01*
X553Y137355D01*
X1579Y137903D01*
X1614Y137945D01*
X1666Y137961D01*
X2565Y138699D01*
X2591Y138747D01*
X2639Y138773D01*
X3377Y139672D01*
X3393Y139725D01*
X3435Y139759D01*
X3984Y140785D01*
X3989Y140839D01*
X4024Y140882D01*
X4361Y141995D01*
X4356Y142049D01*
X4382Y142097D01*
X4496Y143255D01*
X4480Y143307D01*
X4496Y143359D01*
X4382Y144517D01*
X4356Y144565D01*
X4361Y144619D01*
X4024Y145732D01*
X3989Y145775D01*
X3984Y145829D01*
X3435Y146855D01*
X3393Y146890D01*
X3377Y146942D01*
X2639Y147841D01*
X2591Y147867D01*
X2565Y147915D01*
X1666Y148653D01*
X1614Y148669D01*
X1579Y148711D01*
X1548Y148728D01*
X1670Y149213D01*
X196497Y149213D01*
X196851Y148859D01*
D02*
G37*
G36*
X71316Y-52124D02*
X70998Y-52512D01*
X70650Y-52280D01*
X69882Y-52127D01*
X69114Y-52280D01*
X68463Y-52715D01*
X68028Y-53366D01*
X67875Y-54134D01*
X68028Y-54902D01*
X68463Y-55553D01*
X69114Y-55988D01*
X69882Y-56141D01*
X70650Y-55988D01*
X71301Y-55553D01*
X71736Y-54902D01*
X71889Y-54134D01*
X71736Y-53366D01*
X71504Y-53018D01*
X71892Y-52699D01*
X76772Y-57579D01*
X103707D01*
X103739Y-57740D01*
X104109Y-58293D01*
X104662Y-58663D01*
X105315Y-58793D01*
X105968Y-58663D01*
X106521Y-58293D01*
X106891Y-57740D01*
X106923Y-57579D01*
X113549D01*
X113581Y-57740D01*
X113951Y-58293D01*
X114505Y-58663D01*
X115158Y-58793D01*
X115810Y-58663D01*
X116364Y-58293D01*
X116734Y-57740D01*
X116766Y-57579D01*
X119233D01*
X119587Y-57932D01*
X119587Y-107283D01*
X117618Y-109252D01*
X69195D01*
X68840Y-108752D01*
X68936Y-108268D01*
X68783Y-107500D01*
X68348Y-106849D01*
X67697Y-106413D01*
X66929Y-106261D01*
X66445Y-106357D01*
X65945Y-106002D01*
Y-95472D01*
X63977Y-93504D01*
X60039D01*
X52165Y-85630D01*
X49705Y-85630D01*
X41831Y-93504D01*
X37402Y-93504D01*
X35433Y-95473D01*
Y-105334D01*
X34933Y-105485D01*
X34671Y-105093D01*
X34117Y-104723D01*
X33465Y-104593D01*
X32812Y-104723D01*
X32258Y-105093D01*
X31888Y-105646D01*
X31759Y-106299D01*
X31888Y-106952D01*
X32258Y-107506D01*
X32812Y-107875D01*
X33465Y-108005D01*
X34117Y-107875D01*
X34168Y-107842D01*
X34486Y-108230D01*
X33465Y-109252D01*
X2461Y-109252D01*
X492Y-107283D01*
Y-105939D01*
X653Y-105907D01*
X1206Y-105537D01*
X1576Y-104984D01*
X1706Y-104331D01*
X1576Y-103678D01*
X1206Y-103124D01*
X653Y-102755D01*
X492Y-102723D01*
Y-79724D01*
X11617Y-79724D01*
X11811Y-79763D01*
X12005Y-79724D01*
X15256D01*
X19193D01*
X21161Y-81693D01*
Y-85138D01*
X22036Y-86012D01*
X21916Y-86614D01*
X22046Y-87267D01*
X22416Y-87821D01*
X22969Y-88190D01*
X23622Y-88320D01*
X24275Y-88190D01*
X24828Y-87821D01*
X24977Y-87598D01*
X41831D01*
X44291Y-85138D01*
Y-81332D01*
X44452Y-81301D01*
X45006Y-80931D01*
X45375Y-80377D01*
X45505Y-79724D01*
X45375Y-79072D01*
X45006Y-78518D01*
X44452Y-78148D01*
X44291Y-78116D01*
Y-70252D01*
X44513Y-70104D01*
X44883Y-69551D01*
X45013Y-68898D01*
X44883Y-68245D01*
X44513Y-67691D01*
X44291Y-67543D01*
Y-65945D01*
X42323Y-63976D01*
X42323Y-55118D01*
X45768Y-51673D01*
X46752Y-50689D01*
X53209D01*
X53264Y-50965D01*
X53699Y-51616D01*
X54350Y-52051D01*
X55118Y-52204D01*
X55886Y-52051D01*
X56537Y-51616D01*
X56972Y-50965D01*
X57027Y-50689D01*
X69882D01*
X71316Y-52124D01*
D02*
G37*
G36*
X-47244Y18701D02*
X-47244Y-29035D01*
X-44783Y-31496D01*
X-32972Y-31496D01*
X-31004Y-33465D01*
X-31004Y-50689D01*
X-28543Y-53150D01*
X-11811Y-53150D01*
X-1910D01*
X-1610Y-53650D01*
X-1706Y-54134D01*
X-1576Y-54787D01*
X-1206Y-55340D01*
X-653Y-55710D01*
X0Y-55840D01*
X653Y-55710D01*
X1206Y-55340D01*
X1576Y-54787D01*
X1706Y-54134D01*
X1610Y-53650D01*
X1910Y-53150D01*
X30020D01*
X35433Y-47736D01*
Y-43307D01*
Y-38386D01*
X37402Y-36417D01*
X62500D01*
Y-46260D01*
X62500Y-49705D01*
X57027D01*
X56972Y-49429D01*
X56537Y-48778D01*
X55886Y-48342D01*
X55118Y-48190D01*
X54350Y-48342D01*
X53699Y-48778D01*
X53264Y-49429D01*
X53209Y-49705D01*
X46260D01*
X41339Y-54626D01*
Y-63484D01*
X1969D01*
X-492Y-65945D01*
X-492Y-102723D01*
X-653Y-102755D01*
X-1206Y-103124D01*
X-1576Y-103678D01*
X-1706Y-104331D01*
X-1576Y-104984D01*
X-1206Y-105537D01*
X-653Y-105907D01*
X-492Y-105939D01*
Y-107283D01*
X-2461Y-109252D01*
X-29528D01*
X-31496Y-107283D01*
X-31496Y-90289D01*
X-31496Y-90289D01*
X-30843Y-90159D01*
X-30290Y-89789D01*
X-29920Y-89236D01*
X-29790Y-88583D01*
X-29920Y-87930D01*
X-30290Y-87376D01*
X-30843Y-87006D01*
X-31496Y-86877D01*
X-32149Y-87006D01*
X-32407Y-87179D01*
X-33957Y-85630D01*
X-33872Y-85321D01*
X-33857Y-85299D01*
X-33727Y-84646D01*
X-33857Y-83993D01*
X-34227Y-83439D01*
X-34780Y-83069D01*
X-35433Y-82940D01*
X-36086Y-83069D01*
X-36639Y-83439D01*
X-36902Y-83832D01*
X-37402Y-83680D01*
Y-81674D01*
X-36902Y-81523D01*
X-36639Y-81915D01*
X-36086Y-82285D01*
X-35433Y-82415D01*
X-34780Y-82285D01*
X-34227Y-81915D01*
X-33857Y-81362D01*
X-33727Y-80709D01*
X-33857Y-80056D01*
X-34227Y-79502D01*
X-34780Y-79132D01*
X-35433Y-79003D01*
X-36086Y-79132D01*
X-36639Y-79502D01*
X-36902Y-79895D01*
X-37402Y-79743D01*
Y-78248D01*
X-39862Y-75787D01*
X-68405D01*
X-71850Y-79232D01*
X-86614D01*
X-89075Y-81693D01*
Y-85630D01*
X-96949D01*
X-98917Y-87598D01*
Y-92028D01*
X-110597D01*
X-110629Y-91867D01*
X-110728Y-91718D01*
Y-78740D01*
Y-58563D01*
X-69390D01*
X-66929Y-56102D01*
X-66929Y-39862D01*
X-69390Y-37402D01*
X-81693D01*
X-83661Y-35433D01*
X-83661Y-25098D01*
X-81693Y-23130D01*
X-74443Y-23130D01*
X-74411Y-23291D01*
X-74041Y-23844D01*
X-73488Y-24214D01*
X-72835Y-24344D01*
X-72182Y-24214D01*
X-71628Y-23844D01*
X-71259Y-23291D01*
X-71227Y-23130D01*
X-69390D01*
X-66929Y-20669D01*
X-66929Y-10335D01*
X-69390Y-7874D01*
X-81693Y-7874D01*
X-82020Y-7546D01*
X-82085Y-7221D01*
X-82455Y-6668D01*
X-83008Y-6298D01*
X-83334Y-6233D01*
X-83661Y-5906D01*
X-83661Y12303D01*
Y14393D01*
X-83439Y14542D01*
X-83069Y15095D01*
X-82940Y15748D01*
X-83069Y16401D01*
X-83439Y16954D01*
X-83661Y17103D01*
Y18701D01*
X-81693Y20669D01*
X-49213Y20670D01*
X-47244Y18701D01*
D02*
G37*
G36*
X-79273Y43376D02*
X-79301Y43307D01*
X-79291Y43281D01*
X-79299Y43255D01*
X-79185Y42097D01*
X-79159Y42049D01*
X-79164Y41995D01*
X-78827Y40881D01*
X-78792Y40839D01*
X-78787Y40785D01*
X-78238Y39759D01*
X-78196Y39724D01*
X-78180Y39672D01*
X-77443Y38773D01*
X-77394Y38747D01*
X-77369Y38699D01*
X-76469Y37961D01*
X-76417Y37945D01*
X-76383Y37903D01*
X-75357Y37355D01*
X-75302Y37350D01*
X-75260Y37315D01*
X-74147Y36977D01*
X-74093Y36983D01*
X-74045Y36957D01*
X-72887Y36843D01*
X-72835Y36859D01*
X-72782Y36843D01*
X-71625Y36957D01*
X-71577Y36983D01*
X-71522Y36977D01*
X-70409Y37315D01*
X-70367Y37350D01*
X-70313Y37355D01*
X-69287Y37903D01*
X-69252Y37945D01*
X-69200Y37961D01*
X-68413Y38607D01*
X-67975Y38464D01*
X-67913Y38420D01*
Y21654D01*
X-82185Y21654D01*
X-84646Y19193D01*
Y17454D01*
X-84646Y17454D01*
X-85299Y17324D01*
X-85852Y16954D01*
X-86222Y16401D01*
X-86352Y15748D01*
X-86222Y15095D01*
X-85852Y14542D01*
X-85299Y14172D01*
X-84646Y14042D01*
X-84646Y14042D01*
Y9371D01*
X-85146Y9219D01*
X-85195Y9293D01*
X-85846Y9728D01*
X-86614Y9881D01*
X-87382Y9728D01*
X-88033Y9293D01*
X-88468Y8642D01*
X-88621Y7874D01*
X-88468Y7106D01*
X-88033Y6455D01*
X-87382Y6020D01*
X-86614Y5867D01*
X-85846Y6020D01*
X-85195Y6455D01*
X-85146Y6528D01*
X-84646Y6377D01*
Y-6398D01*
X-84658Y-6528D01*
X-84868Y-6668D01*
X-85237Y-7221D01*
X-85367Y-7874D01*
X-85237Y-8527D01*
X-84868Y-9080D01*
X-84314Y-9450D01*
X-83661Y-9580D01*
X-83008Y-9450D01*
X-82455Y-9080D01*
X-82315Y-8871D01*
X-82185Y-8858D01*
X-69882D01*
X-67913Y-10827D01*
X-67913Y-20177D01*
X-69882Y-22146D01*
X-71227D01*
X-71259Y-21985D01*
X-71628Y-21431D01*
X-72182Y-21062D01*
X-72835Y-20932D01*
X-73488Y-21062D01*
X-74041Y-21431D01*
X-74411Y-21985D01*
X-74443Y-22146D01*
X-75295D01*
X-82185D01*
X-84646Y-24606D01*
X-84646Y-28190D01*
X-84999Y-28543D01*
X-92027D01*
X-94488Y-31004D01*
Y-37894D01*
X-96457Y-39862D01*
X-109619D01*
X-109985Y-39540D01*
X-109985Y-39539D01*
X-109985D01*
X-110003Y-39362D01*
X-109988Y-39359D01*
X-109468Y-39256D01*
X-108817Y-38821D01*
X-108382Y-38170D01*
X-108229Y-37402D01*
X-108382Y-36634D01*
X-108817Y-35982D01*
X-109468Y-35547D01*
X-110236Y-35394D01*
X-111004Y-35547D01*
X-111655Y-35982D01*
X-112091Y-36634D01*
X-112243Y-37402D01*
X-112091Y-38170D01*
X-111655Y-38821D01*
X-111004Y-39256D01*
X-110484Y-39359D01*
X-110470Y-39362D01*
X-110487Y-39539D01*
X-110487D01*
X-110487Y-39540D01*
X-110854Y-39862D01*
X-126969Y-39862D01*
X-128937Y-37894D01*
X-146653D01*
X-148622Y-39862D01*
X-168674Y-39862D01*
X-169040Y-39540D01*
X-169040Y-39540D01*
X-169040D01*
X-169058Y-39362D01*
X-169043Y-39359D01*
X-168523Y-39256D01*
X-167872Y-38821D01*
X-167437Y-38170D01*
X-167284Y-37402D01*
X-167437Y-36634D01*
X-167872Y-35982D01*
X-168523Y-35547D01*
X-169291Y-35394D01*
X-170060Y-35547D01*
X-170711Y-35982D01*
X-171146Y-36634D01*
X-171299Y-37402D01*
X-171146Y-38170D01*
X-170711Y-38821D01*
X-170060Y-39256D01*
X-169540Y-39359D01*
X-169525Y-39362D01*
X-169543Y-39540D01*
X-169543D01*
X-169543Y-39540D01*
X-169909Y-39862D01*
X-172736D01*
X-175197Y-42323D01*
X-175197Y-57225D01*
X-175550Y-57579D01*
X-196850Y-57579D01*
Y64961D01*
X-79283D01*
X-79273Y43376D01*
D02*
G37*
G36*
X-84646Y-35433D02*
X-84646Y-35925D01*
X-82185Y-38386D01*
X-78740D01*
X-69882Y-38386D01*
X-67913Y-40354D01*
X-67913Y-55610D01*
X-69882Y-57579D01*
X-174213Y-57579D01*
X-174213Y-42815D01*
X-172244Y-40846D01*
X-148130D01*
X-146161Y-38878D01*
X-129429Y-38878D01*
X-127461Y-40846D01*
X-125620D01*
X-125251Y-41164D01*
X-125251Y-41164D01*
X-125251D01*
X-125233Y-41346D01*
X-125249Y-41350D01*
X-125768Y-41453D01*
X-126419Y-41888D01*
X-126854Y-42539D01*
X-127007Y-43307D01*
X-126854Y-44075D01*
X-126419Y-44726D01*
X-125768Y-45161D01*
X-125000Y-45314D01*
X-124232Y-45161D01*
X-123581Y-44726D01*
X-123146Y-44075D01*
X-122993Y-43307D01*
X-123146Y-42539D01*
X-123581Y-41888D01*
X-124232Y-41453D01*
X-124751Y-41350D01*
X-124767Y-41346D01*
X-124749Y-41164D01*
X-124749D01*
X-124749Y-41164D01*
X-124381Y-40846D01*
X-109871D01*
X-109503Y-41165D01*
X-109503Y-41165D01*
X-109503D01*
X-109485Y-41346D01*
X-109501Y-41350D01*
X-110020Y-41453D01*
X-110671Y-41888D01*
X-111106Y-42539D01*
X-111259Y-43307D01*
X-111106Y-44075D01*
X-110671Y-44726D01*
X-110020Y-45161D01*
X-109252Y-45314D01*
X-108484Y-45161D01*
X-107833Y-44726D01*
X-107398Y-44075D01*
X-107245Y-43307D01*
X-107398Y-42539D01*
X-107833Y-41888D01*
X-108484Y-41453D01*
X-109003Y-41350D01*
X-109019Y-41346D01*
X-109001Y-41165D01*
X-109001D01*
X-109001Y-41165D01*
X-108633Y-40846D01*
X-95964D01*
X-93504Y-38386D01*
X-93504Y-31496D01*
X-91535Y-29528D01*
X-84646D01*
Y-35433D01*
D02*
G37*
%LPC*%
G36*
X139764Y-35696D02*
X139111Y-35825D01*
X138558Y-36195D01*
X138188Y-36749D01*
X138058Y-37402D01*
X138188Y-38054D01*
X138558Y-38608D01*
X139111Y-38978D01*
X139764Y-39108D01*
X140417Y-38978D01*
X140970Y-38608D01*
X141340Y-38054D01*
X141470Y-37402D01*
X141340Y-36749D01*
X140970Y-36195D01*
X140417Y-35825D01*
X139764Y-35696D01*
D02*
G37*
G36*
X125000D02*
X124347Y-35825D01*
X123794Y-36195D01*
X123424Y-36749D01*
X123294Y-37402D01*
X123424Y-38054D01*
X123794Y-38608D01*
X124347Y-38978D01*
X125000Y-39108D01*
X125653Y-38978D01*
X126206Y-38608D01*
X126576Y-38054D01*
X126706Y-37402D01*
X126576Y-36749D01*
X126206Y-36195D01*
X125653Y-35825D01*
X125000Y-35696D01*
D02*
G37*
G36*
X164370D02*
X163717Y-35825D01*
X163164Y-36195D01*
X162794Y-36749D01*
X162664Y-37402D01*
X162794Y-38054D01*
X163164Y-38608D01*
X163717Y-38978D01*
X164370Y-39108D01*
X165023Y-38978D01*
X165577Y-38608D01*
X165946Y-38054D01*
X166076Y-37402D01*
X165946Y-36749D01*
X165577Y-36195D01*
X165023Y-35825D01*
X164370Y-35696D01*
D02*
G37*
G36*
X32480Y-34711D02*
X31828Y-34841D01*
X31274Y-35211D01*
X30904Y-35765D01*
X30774Y-36417D01*
X30904Y-37070D01*
X31274Y-37624D01*
X31828Y-37993D01*
X32480Y-38123D01*
X33133Y-37993D01*
X33687Y-37624D01*
X34056Y-37070D01*
X34186Y-36417D01*
X34056Y-35765D01*
X33687Y-35211D01*
X33133Y-34841D01*
X32480Y-34711D01*
D02*
G37*
G36*
X4921D02*
X4268Y-34841D01*
X3715Y-35211D01*
X3345Y-35765D01*
X3215Y-36417D01*
X3345Y-37070D01*
X3715Y-37624D01*
X4268Y-37993D01*
X4921Y-38123D01*
X5574Y-37993D01*
X6128Y-37624D01*
X6498Y-37070D01*
X6627Y-36417D01*
X6498Y-35765D01*
X6128Y-35211D01*
X5574Y-34841D01*
X4921Y-34711D01*
D02*
G37*
G36*
X-87598Y-35696D02*
X-88251Y-35825D01*
X-88805Y-36195D01*
X-89174Y-36749D01*
X-89304Y-37402D01*
X-89174Y-38054D01*
X-88805Y-38608D01*
X-88251Y-38978D01*
X-87598Y-39108D01*
X-86945Y-38978D01*
X-86392Y-38608D01*
X-86022Y-38054D01*
X-85892Y-37402D01*
X-86022Y-36749D01*
X-86392Y-36195D01*
X-86945Y-35825D01*
X-87598Y-35696D01*
D02*
G37*
G36*
X-183071Y-41601D02*
X-183724Y-41731D01*
X-184277Y-42101D01*
X-184647Y-42654D01*
X-184777Y-43307D01*
X-184647Y-43960D01*
X-184277Y-44513D01*
X-183724Y-44883D01*
X-183071Y-45013D01*
X-182418Y-44883D01*
X-181865Y-44513D01*
X-181495Y-43960D01*
X-181365Y-43307D01*
X-181495Y-42654D01*
X-181865Y-42101D01*
X-182418Y-41731D01*
X-183071Y-41601D01*
D02*
G37*
G36*
X-154528Y-41601D02*
X-155181Y-41731D01*
X-155734Y-42101D01*
X-156104Y-42654D01*
X-156234Y-43307D01*
X-156104Y-43960D01*
X-155734Y-44513D01*
X-155181Y-44883D01*
X-154528Y-45013D01*
X-153875Y-44883D01*
X-153321Y-44513D01*
X-152952Y-43960D01*
X-152822Y-43307D01*
X-152952Y-42654D01*
X-153321Y-42101D01*
X-153875Y-41731D01*
X-154528Y-41601D01*
D02*
G37*
G36*
X133858Y-40617D02*
X133205Y-40747D01*
X132652Y-41116D01*
X132282Y-41670D01*
X132152Y-42323D01*
X132282Y-42976D01*
X132652Y-43529D01*
X133205Y-43899D01*
X133858Y-44029D01*
X134511Y-43899D01*
X135065Y-43529D01*
X135434Y-42976D01*
X135564Y-42323D01*
X135434Y-41670D01*
X135065Y-41116D01*
X134511Y-40747D01*
X133858Y-40617D01*
D02*
G37*
G36*
X93504Y-39633D02*
X92851Y-39762D01*
X92298Y-40132D01*
X91928Y-40686D01*
X91798Y-41339D01*
X91928Y-41991D01*
X92298Y-42545D01*
X92851Y-42915D01*
X93504Y-43045D01*
X94157Y-42915D01*
X94710Y-42545D01*
X95080Y-41991D01*
X95210Y-41339D01*
X95080Y-40686D01*
X94710Y-40132D01*
X94157Y-39762D01*
X93504Y-39633D01*
D02*
G37*
G36*
X4921D02*
X4268Y-39762D01*
X3715Y-40132D01*
X3345Y-40686D01*
X3215Y-41339D01*
X3345Y-41991D01*
X3715Y-42545D01*
X4268Y-42915D01*
X4921Y-43045D01*
X5574Y-42915D01*
X6128Y-42545D01*
X6498Y-41991D01*
X6627Y-41339D01*
X6498Y-40686D01*
X6128Y-40132D01*
X5574Y-39762D01*
X4921Y-39633D01*
D02*
G37*
G36*
X-140748Y-33727D02*
X-141401Y-33857D01*
X-141954Y-34227D01*
X-142324Y-34780D01*
X-142454Y-35433D01*
X-142324Y-36086D01*
X-141954Y-36639D01*
X-141401Y-37009D01*
X-140748Y-37139D01*
X-140095Y-37009D01*
X-139542Y-36639D01*
X-139172Y-36086D01*
X-139042Y-35433D01*
X-139172Y-34780D01*
X-139542Y-34227D01*
X-140095Y-33857D01*
X-140748Y-33727D01*
D02*
G37*
G36*
X-130906Y-29790D02*
X-131558Y-29920D01*
X-132112Y-30290D01*
X-132482Y-30843D01*
X-132612Y-31496D01*
X-132482Y-32149D01*
X-132112Y-32702D01*
X-131558Y-33072D01*
X-130906Y-33202D01*
X-130253Y-33072D01*
X-129699Y-32702D01*
X-129329Y-32149D01*
X-129200Y-31496D01*
X-129329Y-30843D01*
X-129699Y-30290D01*
X-130253Y-29920D01*
X-130906Y-29790D01*
D02*
G37*
G36*
X-142717D02*
X-143369Y-29920D01*
X-143923Y-30290D01*
X-144293Y-30843D01*
X-144423Y-31496D01*
X-144293Y-32149D01*
X-143923Y-32702D01*
X-143369Y-33072D01*
X-142717Y-33202D01*
X-142064Y-33072D01*
X-141510Y-32702D01*
X-141140Y-32149D01*
X-141011Y-31496D01*
X-141140Y-30843D01*
X-141510Y-30290D01*
X-142064Y-29920D01*
X-142717Y-29790D01*
D02*
G37*
G36*
X-18701Y-26837D02*
X-19354Y-26967D01*
X-19907Y-27337D01*
X-20277Y-27890D01*
X-20407Y-28543D01*
X-20277Y-29196D01*
X-19907Y-29750D01*
X-19354Y-30119D01*
X-18701Y-30249D01*
X-18048Y-30119D01*
X-17861Y-29994D01*
X-17411Y-30295D01*
X-17454Y-30512D01*
X-17324Y-31165D01*
X-16954Y-31718D01*
X-16401Y-32088D01*
X-15748Y-32218D01*
X-15095Y-32088D01*
X-14542Y-31718D01*
X-14172Y-31165D01*
X-14042Y-30512D01*
X-14172Y-29859D01*
X-14542Y-29305D01*
X-15095Y-28936D01*
X-15748Y-28806D01*
X-16401Y-28936D01*
X-16588Y-29061D01*
X-17038Y-28760D01*
X-16995Y-28543D01*
X-17125Y-27890D01*
X-17494Y-27337D01*
X-18048Y-26967D01*
X-18701Y-26837D01*
D02*
G37*
G36*
X-7874Y-28806D02*
X-8527Y-28936D01*
X-9080Y-29305D01*
X-9450Y-29859D01*
X-9580Y-30512D01*
X-9450Y-31165D01*
X-9080Y-31718D01*
X-8527Y-32088D01*
X-7874Y-32218D01*
X-7221Y-32088D01*
X-6668Y-31718D01*
X-6298Y-31165D01*
X-6168Y-30512D01*
X-6298Y-29859D01*
X-6668Y-29305D01*
X-7221Y-28936D01*
X-7874Y-28806D01*
D02*
G37*
G36*
X-11811D02*
X-12464Y-28936D01*
X-13017Y-29305D01*
X-13387Y-29859D01*
X-13517Y-30512D01*
X-13387Y-31165D01*
X-13017Y-31718D01*
X-12464Y-32088D01*
X-11811Y-32218D01*
X-11158Y-32088D01*
X-10605Y-31718D01*
X-10235Y-31165D01*
X-10105Y-30512D01*
X-10235Y-29859D01*
X-10605Y-29305D01*
X-11158Y-28936D01*
X-11811Y-28806D01*
D02*
G37*
G36*
X-110236Y-29489D02*
X-111004Y-29642D01*
X-111655Y-30077D01*
X-112091Y-30728D01*
X-112243Y-31496D01*
X-112091Y-32264D01*
X-111655Y-32915D01*
X-111004Y-33350D01*
X-110236Y-33503D01*
X-109468Y-33350D01*
X-108817Y-32915D01*
X-108382Y-32264D01*
X-108229Y-31496D01*
X-108382Y-30728D01*
X-108817Y-30077D01*
X-109468Y-29642D01*
X-110236Y-29489D01*
D02*
G37*
G36*
X-3937Y-30774D02*
X-4590Y-30904D01*
X-5143Y-31274D01*
X-5513Y-31827D01*
X-5643Y-32480D01*
X-5513Y-33133D01*
X-5143Y-33687D01*
X-4590Y-34056D01*
X-3937Y-34186D01*
X-3284Y-34056D01*
X-2731Y-33687D01*
X-2361Y-33133D01*
X-2231Y-32480D01*
X-2361Y-31827D01*
X-2731Y-31274D01*
X-3284Y-30904D01*
X-3937Y-30774D01*
D02*
G37*
G36*
X-192913Y-31759D02*
X-193566Y-31888D01*
X-194120Y-32258D01*
X-194490Y-32812D01*
X-194619Y-33465D01*
X-194490Y-34117D01*
X-194120Y-34671D01*
X-193566Y-35041D01*
X-192913Y-35171D01*
X-192260Y-35041D01*
X-191707Y-34671D01*
X-191337Y-34117D01*
X-191207Y-33465D01*
X-191337Y-32812D01*
X-191707Y-32258D01*
X-192260Y-31888D01*
X-192913Y-31759D01*
D02*
G37*
G36*
X0Y-30774D02*
X-653Y-30904D01*
X-1206Y-31274D01*
X-1576Y-31827D01*
X-1706Y-32480D01*
X-1576Y-33133D01*
X-1206Y-33687D01*
X-653Y-34056D01*
X0Y-34186D01*
X653Y-34056D01*
X1206Y-33687D01*
X1576Y-33133D01*
X1706Y-32480D01*
X1576Y-31827D01*
X1206Y-31274D01*
X653Y-30904D01*
X0Y-30774D01*
D02*
G37*
G36*
X133858D02*
X133205Y-30904D01*
X132652Y-31274D01*
X132282Y-31827D01*
X132152Y-32480D01*
X132282Y-33133D01*
X132652Y-33687D01*
X133205Y-34056D01*
X133858Y-34186D01*
X134511Y-34056D01*
X135065Y-33687D01*
X135434Y-33133D01*
X135564Y-32480D01*
X135434Y-31827D01*
X135065Y-31274D01*
X134511Y-30904D01*
X133858Y-30774D01*
D02*
G37*
G36*
X32480D02*
X31828Y-30904D01*
X31274Y-31274D01*
X30904Y-31827D01*
X30774Y-32480D01*
X30904Y-33133D01*
X31274Y-33687D01*
X31828Y-34056D01*
X32480Y-34186D01*
X33133Y-34056D01*
X33687Y-33687D01*
X34056Y-33133D01*
X34186Y-32480D01*
X34056Y-31827D01*
X33687Y-31274D01*
X33133Y-30904D01*
X32480Y-30774D01*
D02*
G37*
G36*
X-5905Y-104593D02*
X-6558Y-104723D01*
X-7112Y-105093D01*
X-7482Y-105646D01*
X-7611Y-106299D01*
X-7482Y-106952D01*
X-7112Y-107506D01*
X-6558Y-107875D01*
X-5905Y-108005D01*
X-5253Y-107875D01*
X-4699Y-107506D01*
X-4329Y-106952D01*
X-4199Y-106299D01*
X-4329Y-105646D01*
X-4699Y-105093D01*
X-5253Y-104723D01*
X-5905Y-104593D01*
D02*
G37*
G36*
X-39370Y-49475D02*
X-40023Y-49605D01*
X-40576Y-49975D01*
X-40946Y-50528D01*
X-41076Y-51181D01*
X-40946Y-51834D01*
X-40576Y-52387D01*
X-40023Y-52757D01*
X-39370Y-52887D01*
X-38717Y-52757D01*
X-38164Y-52387D01*
X-37794Y-51834D01*
X-37664Y-51181D01*
X-37794Y-50528D01*
X-38164Y-49975D01*
X-38717Y-49605D01*
X-39370Y-49475D01*
D02*
G37*
G36*
X133858Y-50459D02*
X133205Y-50589D01*
X132652Y-50959D01*
X132282Y-51512D01*
X132152Y-52165D01*
X132282Y-52818D01*
X132652Y-53372D01*
X133205Y-53742D01*
X133858Y-53871D01*
X134511Y-53742D01*
X135065Y-53372D01*
X135434Y-52818D01*
X135564Y-52165D01*
X135434Y-51512D01*
X135065Y-50959D01*
X134511Y-50589D01*
X133858Y-50459D01*
D02*
G37*
G36*
X3937Y-104593D02*
X3284Y-104723D01*
X2731Y-105093D01*
X2361Y-105646D01*
X2231Y-106299D01*
X2361Y-106952D01*
X2731Y-107506D01*
X3284Y-107875D01*
X3937Y-108005D01*
X4590Y-107875D01*
X5143Y-107506D01*
X5513Y-106952D01*
X5643Y-106299D01*
X5513Y-105646D01*
X5143Y-105093D01*
X4590Y-104723D01*
X3937Y-104593D01*
D02*
G37*
G36*
X-148622Y-47507D02*
X-149275Y-47637D01*
X-149828Y-48006D01*
X-150198Y-48560D01*
X-150328Y-49213D01*
X-150198Y-49865D01*
X-149828Y-50419D01*
X-149275Y-50789D01*
X-148622Y-50919D01*
X-147969Y-50789D01*
X-147416Y-50419D01*
X-147046Y-49865D01*
X-146916Y-49213D01*
X-147046Y-48560D01*
X-147416Y-48006D01*
X-147969Y-47637D01*
X-148622Y-47507D01*
D02*
G37*
G36*
X-89567Y-47205D02*
X-90335Y-47358D01*
X-90986Y-47793D01*
X-91421Y-48445D01*
X-91574Y-49213D01*
X-91421Y-49981D01*
X-90986Y-50632D01*
X-90335Y-51067D01*
X-89567Y-51220D01*
X-88799Y-51067D01*
X-88148Y-50632D01*
X-87713Y-49981D01*
X-87560Y-49213D01*
X-87713Y-48445D01*
X-88148Y-47793D01*
X-88799Y-47358D01*
X-89567Y-47205D01*
D02*
G37*
G36*
X-74803Y-51444D02*
X-75456Y-51573D01*
X-76010Y-51943D01*
X-76379Y-52497D01*
X-76509Y-53150D01*
X-76379Y-53803D01*
X-76010Y-54356D01*
X-75456Y-54726D01*
X-74803Y-54856D01*
X-74150Y-54726D01*
X-73597Y-54356D01*
X-73227Y-53803D01*
X-73097Y-53150D01*
X-73227Y-52497D01*
X-73597Y-51943D01*
X-74150Y-51573D01*
X-74803Y-51444D01*
D02*
G37*
G36*
X107283Y-51143D02*
X106516Y-51295D01*
X105864Y-51730D01*
X105429Y-52381D01*
X105277Y-53150D01*
X105429Y-53918D01*
X105864Y-54569D01*
X106516Y-55004D01*
X107283Y-55157D01*
X108052Y-55004D01*
X108703Y-54569D01*
X109138Y-53918D01*
X109291Y-53150D01*
X109138Y-52381D01*
X108703Y-51730D01*
X108052Y-51295D01*
X107283Y-51143D01*
D02*
G37*
G36*
X93504D02*
X92736Y-51295D01*
X92085Y-51730D01*
X91650Y-52381D01*
X91497Y-53150D01*
X91650Y-53918D01*
X92085Y-54569D01*
X92736Y-55004D01*
X93504Y-55157D01*
X94272Y-55004D01*
X94923Y-54569D01*
X95358Y-53918D01*
X95511Y-53150D01*
X95358Y-52381D01*
X94923Y-51730D01*
X94272Y-51295D01*
X93504Y-51143D01*
D02*
G37*
G36*
X-152559Y-51444D02*
X-153212Y-51573D01*
X-153765Y-51943D01*
X-154135Y-52497D01*
X-154265Y-53150D01*
X-154135Y-53803D01*
X-153765Y-54356D01*
X-153212Y-54726D01*
X-152559Y-54856D01*
X-151906Y-54726D01*
X-151353Y-54356D01*
X-150983Y-53803D01*
X-150853Y-53150D01*
X-150983Y-52497D01*
X-151353Y-51943D01*
X-151906Y-51573D01*
X-152559Y-51444D01*
D02*
G37*
G36*
X-94488Y-51444D02*
X-95141Y-51573D01*
X-95695Y-51943D01*
X-96064Y-52497D01*
X-96194Y-53150D01*
X-96064Y-53803D01*
X-95695Y-54356D01*
X-95141Y-54726D01*
X-94488Y-54856D01*
X-93835Y-54726D01*
X-93282Y-54356D01*
X-92912Y-53803D01*
X-92782Y-53150D01*
X-92912Y-52497D01*
X-93282Y-51943D01*
X-93835Y-51573D01*
X-94488Y-51444D01*
D02*
G37*
G36*
X-192913D02*
X-193566Y-51573D01*
X-194120Y-51943D01*
X-194490Y-52497D01*
X-194619Y-53150D01*
X-194490Y-53803D01*
X-194120Y-54356D01*
X-193566Y-54726D01*
X-192913Y-54856D01*
X-192260Y-54726D01*
X-191707Y-54356D01*
X-191337Y-53803D01*
X-191207Y-53150D01*
X-191337Y-52497D01*
X-191707Y-51943D01*
X-192260Y-51573D01*
X-192913Y-51444D01*
D02*
G37*
G36*
X-42323Y-45237D02*
X-43091Y-45390D01*
X-43742Y-45825D01*
X-44177Y-46476D01*
X-44330Y-47244D01*
X-44177Y-48012D01*
X-43742Y-48663D01*
X-43091Y-49098D01*
X-42323Y-49251D01*
X-41555Y-49098D01*
X-40903Y-48663D01*
X-40468Y-48012D01*
X-40316Y-47244D01*
X-40468Y-46476D01*
X-40903Y-45825D01*
X-41555Y-45390D01*
X-42323Y-45237D01*
D02*
G37*
G36*
X69882Y-43268D02*
X69114Y-43421D01*
X68463Y-43856D01*
X68028Y-44508D01*
X67875Y-45276D01*
X68028Y-46044D01*
X68463Y-46695D01*
X69114Y-47130D01*
X69882Y-47283D01*
X70650Y-47130D01*
X71301Y-46695D01*
X71736Y-46044D01*
X71889Y-45276D01*
X71736Y-44508D01*
X71301Y-43856D01*
X70650Y-43421D01*
X69882Y-43268D01*
D02*
G37*
G36*
X56102D02*
X55334Y-43421D01*
X54683Y-43856D01*
X54248Y-44508D01*
X54095Y-45276D01*
X54248Y-46044D01*
X54683Y-46695D01*
X55334Y-47130D01*
X56102Y-47283D01*
X56871Y-47130D01*
X57522Y-46695D01*
X57957Y-46044D01*
X58109Y-45276D01*
X57957Y-44508D01*
X57522Y-43856D01*
X56871Y-43421D01*
X56102Y-43268D01*
D02*
G37*
G36*
X77756D02*
X76988Y-43421D01*
X76337Y-43856D01*
X75902Y-44508D01*
X75749Y-45276D01*
X75902Y-46044D01*
X76337Y-46695D01*
X76988Y-47130D01*
X77756Y-47283D01*
X78524Y-47130D01*
X79175Y-46695D01*
X79610Y-46044D01*
X79763Y-45276D01*
X79610Y-44508D01*
X79175Y-43856D01*
X78524Y-43421D01*
X77756Y-43268D01*
D02*
G37*
G36*
X-14764Y-42284D02*
X-15532Y-42437D01*
X-16183Y-42872D01*
X-16618Y-43523D01*
X-16771Y-44291D01*
X-16618Y-45059D01*
X-16183Y-45711D01*
X-15532Y-46146D01*
X-14764Y-46298D01*
X-13996Y-46146D01*
X-13344Y-45711D01*
X-12909Y-45059D01*
X-12757Y-44291D01*
X-12909Y-43523D01*
X-13344Y-42872D01*
X-13996Y-42437D01*
X-14764Y-42284D01*
D02*
G37*
G36*
X93504Y-43570D02*
X92851Y-43699D01*
X92298Y-44069D01*
X91928Y-44623D01*
X91798Y-45276D01*
X91928Y-45928D01*
X92298Y-46482D01*
X92851Y-46852D01*
X93504Y-46982D01*
X94157Y-46852D01*
X94710Y-46482D01*
X95080Y-45928D01*
X95210Y-45276D01*
X95080Y-44623D01*
X94710Y-44069D01*
X94157Y-43699D01*
X93504Y-43570D01*
D02*
G37*
G36*
X48228Y-43268D02*
X47460Y-43421D01*
X46809Y-43856D01*
X46374Y-44508D01*
X46221Y-45276D01*
X46374Y-46044D01*
X46809Y-46695D01*
X47460Y-47130D01*
X48228Y-47283D01*
X48996Y-47130D01*
X49648Y-46695D01*
X50083Y-46044D01*
X50235Y-45276D01*
X50083Y-44508D01*
X49648Y-43856D01*
X48996Y-43421D01*
X48228Y-43268D01*
D02*
G37*
G36*
X115158Y-45538D02*
X114505Y-45668D01*
X113951Y-46038D01*
X113581Y-46591D01*
X113452Y-47244D01*
X113581Y-47897D01*
X113951Y-48450D01*
X114505Y-48820D01*
X115158Y-48950D01*
X115810Y-48820D01*
X116364Y-48450D01*
X116734Y-47897D01*
X116864Y-47244D01*
X116734Y-46591D01*
X116364Y-46038D01*
X115810Y-45668D01*
X115158Y-45538D01*
D02*
G37*
G36*
X-18701Y-45237D02*
X-19469Y-45390D01*
X-20120Y-45825D01*
X-20555Y-46476D01*
X-20708Y-47244D01*
X-20555Y-48012D01*
X-20120Y-48663D01*
X-19469Y-49098D01*
X-18701Y-49251D01*
X-17933Y-49098D01*
X-17281Y-48663D01*
X-16846Y-48012D01*
X-16694Y-47244D01*
X-16846Y-46476D01*
X-17281Y-45825D01*
X-17933Y-45390D01*
X-18701Y-45237D01*
D02*
G37*
G36*
X139764Y-45538D02*
X139111Y-45668D01*
X138558Y-46038D01*
X138188Y-46591D01*
X138058Y-47244D01*
X138188Y-47897D01*
X138558Y-48450D01*
X139111Y-48820D01*
X139764Y-48950D01*
X140417Y-48820D01*
X140970Y-48450D01*
X141340Y-47897D01*
X141470Y-47244D01*
X141340Y-46591D01*
X140970Y-46038D01*
X140417Y-45668D01*
X139764Y-45538D01*
D02*
G37*
G36*
X4921Y-44554D02*
X4268Y-44684D01*
X3715Y-45053D01*
X3345Y-45607D01*
X3215Y-46260D01*
X3345Y-46913D01*
X3715Y-47466D01*
X4268Y-47836D01*
X4921Y-47966D01*
X5574Y-47836D01*
X6128Y-47466D01*
X6498Y-46913D01*
X6627Y-46260D01*
X6498Y-45607D01*
X6128Y-45053D01*
X5574Y-44684D01*
X4921Y-44554D01*
D02*
G37*
G36*
X159449Y-45538D02*
X158796Y-45668D01*
X158243Y-46038D01*
X157873Y-46591D01*
X157743Y-47244D01*
X157873Y-47897D01*
X158243Y-48450D01*
X158796Y-48820D01*
X159449Y-48950D01*
X160102Y-48820D01*
X160655Y-48450D01*
X161025Y-47897D01*
X161155Y-47244D01*
X161025Y-46591D01*
X160655Y-46038D01*
X160102Y-45668D01*
X159449Y-45538D01*
D02*
G37*
G36*
X3937Y-28806D02*
X3284Y-28936D01*
X2731Y-29305D01*
X2361Y-29859D01*
X2231Y-30512D01*
X2361Y-31165D01*
X2731Y-31718D01*
X3284Y-32088D01*
X3937Y-32218D01*
X4590Y-32088D01*
X5143Y-31718D01*
X5513Y-31165D01*
X5643Y-30512D01*
X5513Y-29859D01*
X5143Y-29305D01*
X4590Y-28936D01*
X3937Y-28806D01*
D02*
G37*
G36*
X-11811Y-13058D02*
X-12464Y-13188D01*
X-13017Y-13557D01*
X-13387Y-14111D01*
X-13517Y-14764D01*
X-13387Y-15417D01*
X-13017Y-15970D01*
X-12464Y-16340D01*
X-11811Y-16470D01*
X-11158Y-16340D01*
X-10605Y-15970D01*
X-10235Y-15417D01*
X-10105Y-14764D01*
X-10235Y-14111D01*
X-10605Y-13557D01*
X-11158Y-13188D01*
X-11811Y-13058D01*
D02*
G37*
G36*
X-23622Y-14042D02*
X-24275Y-14172D01*
X-24828Y-14542D01*
X-25198Y-15095D01*
X-25328Y-15748D01*
X-25198Y-16401D01*
X-24828Y-16954D01*
X-24275Y-17324D01*
X-23622Y-17454D01*
X-22969Y-17324D01*
X-22416Y-16954D01*
X-22046Y-16401D01*
X-21916Y-15748D01*
X-22046Y-15095D01*
X-22416Y-14542D01*
X-22969Y-14172D01*
X-23622Y-14042D01*
D02*
G37*
G36*
X-7874Y-13058D02*
X-8527Y-13188D01*
X-9080Y-13557D01*
X-9450Y-14111D01*
X-9580Y-14764D01*
X-9450Y-15417D01*
X-9080Y-15970D01*
X-8527Y-16340D01*
X-7874Y-16470D01*
X-7221Y-16340D01*
X-6668Y-15970D01*
X-6298Y-15417D01*
X-6168Y-14764D01*
X-6298Y-14111D01*
X-6668Y-13557D01*
X-7221Y-13188D01*
X-7874Y-13058D01*
D02*
G37*
G36*
X-192913Y-12073D02*
X-193566Y-12203D01*
X-194120Y-12573D01*
X-194490Y-13127D01*
X-194619Y-13780D01*
X-194490Y-14432D01*
X-194120Y-14986D01*
X-193566Y-15356D01*
X-192913Y-15485D01*
X-192260Y-15356D01*
X-191707Y-14986D01*
X-191337Y-14432D01*
X-191207Y-13780D01*
X-191337Y-13127D01*
X-191707Y-12573D01*
X-192260Y-12203D01*
X-192913Y-12073D01*
D02*
G37*
G36*
X-165354Y-11772D02*
X-166122Y-11925D01*
X-166774Y-12360D01*
X-167209Y-13012D01*
X-167361Y-13780D01*
X-167209Y-14548D01*
X-166774Y-15199D01*
X-166122Y-15634D01*
X-165354Y-15787D01*
X-164586Y-15634D01*
X-163935Y-15199D01*
X-163500Y-14548D01*
X-163347Y-13780D01*
X-163500Y-13012D01*
X-163935Y-12360D01*
X-164586Y-11925D01*
X-165354Y-11772D01*
D02*
G37*
G36*
X28543Y-14725D02*
X27775Y-14878D01*
X27124Y-15313D01*
X26689Y-15964D01*
X26536Y-16732D01*
X26689Y-17500D01*
X27124Y-18151D01*
X27775Y-18587D01*
X28543Y-18739D01*
X29311Y-18587D01*
X29963Y-18151D01*
X30398Y-17500D01*
X30551Y-16732D01*
X30398Y-15964D01*
X29963Y-15313D01*
X29311Y-14878D01*
X28543Y-14725D01*
D02*
G37*
G36*
X125000Y-16011D02*
X124347Y-16140D01*
X123794Y-16510D01*
X123424Y-17064D01*
X123294Y-17717D01*
X123424Y-18369D01*
X123794Y-18923D01*
X124347Y-19293D01*
X125000Y-19423D01*
X125653Y-19293D01*
X126206Y-18923D01*
X126576Y-18369D01*
X126706Y-17717D01*
X126576Y-17064D01*
X126206Y-16510D01*
X125653Y-16140D01*
X125000Y-16011D01*
D02*
G37*
G36*
X78740D02*
X78087Y-16140D01*
X77534Y-16510D01*
X77164Y-17064D01*
X77034Y-17717D01*
X77164Y-18369D01*
X77534Y-18923D01*
X78087Y-19293D01*
X78740Y-19423D01*
X79393Y-19293D01*
X79947Y-18923D01*
X80316Y-18369D01*
X80446Y-17717D01*
X80316Y-17064D01*
X79947Y-16510D01*
X79393Y-16140D01*
X78740Y-16011D01*
D02*
G37*
G36*
X139764D02*
X139111Y-16140D01*
X138558Y-16510D01*
X138188Y-17064D01*
X138058Y-17717D01*
X138188Y-18369D01*
X138558Y-18923D01*
X139111Y-19293D01*
X139764Y-19423D01*
X140417Y-19293D01*
X140970Y-18923D01*
X141340Y-18369D01*
X141470Y-17717D01*
X141340Y-17064D01*
X140970Y-16510D01*
X140417Y-16140D01*
X139764Y-16011D01*
D02*
G37*
G36*
X7382Y-14725D02*
X6614Y-14878D01*
X5963Y-15313D01*
X5528Y-15964D01*
X5375Y-16732D01*
X5528Y-17500D01*
X5963Y-18151D01*
X6614Y-18587D01*
X7382Y-18739D01*
X8150Y-18587D01*
X8801Y-18151D01*
X9236Y-17500D01*
X9389Y-16732D01*
X9236Y-15964D01*
X8801Y-15313D01*
X8150Y-14878D01*
X7382Y-14725D01*
D02*
G37*
G36*
X164370Y-16011D02*
X163717Y-16140D01*
X163164Y-16510D01*
X162794Y-17064D01*
X162664Y-17717D01*
X162794Y-18369D01*
X163164Y-18923D01*
X163717Y-19293D01*
X164370Y-19423D01*
X165023Y-19293D01*
X165577Y-18923D01*
X165946Y-18369D01*
X166076Y-17717D01*
X165946Y-17064D01*
X165577Y-16510D01*
X165023Y-16140D01*
X164370Y-16011D01*
D02*
G37*
G36*
X-173228Y-12073D02*
X-173881Y-12203D01*
X-174435Y-12573D01*
X-174804Y-13127D01*
X-174934Y-13780D01*
X-174804Y-14432D01*
X-174435Y-14986D01*
X-173881Y-15356D01*
X-173228Y-15485D01*
X-172575Y-15356D01*
X-172022Y-14986D01*
X-171652Y-14432D01*
X-171522Y-13780D01*
X-171652Y-13127D01*
X-172022Y-12573D01*
X-172575Y-12203D01*
X-173228Y-12073D01*
D02*
G37*
G36*
X87599Y-8136D02*
X86946Y-8266D01*
X86392Y-8636D01*
X86022Y-9190D01*
X85892Y-9843D01*
X86022Y-10495D01*
X86392Y-11049D01*
X86946Y-11419D01*
X87599Y-11548D01*
X88251Y-11419D01*
X88805Y-11049D01*
X89175Y-10495D01*
X89305Y-9843D01*
X89175Y-9190D01*
X88805Y-8636D01*
X88251Y-8266D01*
X87599Y-8136D01*
D02*
G37*
G36*
X-23622D02*
X-24275Y-8266D01*
X-24828Y-8636D01*
X-25198Y-9190D01*
X-25328Y-9843D01*
X-25198Y-10495D01*
X-24828Y-11049D01*
X-24275Y-11419D01*
X-23622Y-11548D01*
X-22969Y-11419D01*
X-22416Y-11049D01*
X-22046Y-10495D01*
X-21916Y-9843D01*
X-22046Y-9190D01*
X-22416Y-8636D01*
X-22969Y-8266D01*
X-23622Y-8136D01*
D02*
G37*
G36*
X-112205Y-6851D02*
X-112973Y-7004D01*
X-113624Y-7439D01*
X-114059Y-8090D01*
X-114212Y-8858D01*
X-114059Y-9626D01*
X-113624Y-10278D01*
X-112973Y-10713D01*
X-112205Y-10865D01*
X-111437Y-10713D01*
X-110785Y-10278D01*
X-110351Y-9626D01*
X-110198Y-8858D01*
X-110351Y-8090D01*
X-110785Y-7439D01*
X-111437Y-7004D01*
X-112205Y-6851D01*
D02*
G37*
G36*
X65945Y-6168D02*
X65292Y-6298D01*
X64739Y-6668D01*
X64369Y-7221D01*
X64239Y-7874D01*
X64369Y-8527D01*
X64739Y-9080D01*
X65292Y-9450D01*
X65945Y-9580D01*
X66598Y-9450D01*
X67151Y-9080D01*
X67521Y-8527D01*
X67651Y-7874D01*
X67521Y-7221D01*
X67151Y-6668D01*
X66598Y-6298D01*
X65945Y-6168D01*
D02*
G37*
G36*
X-159449Y-7152D02*
X-160102Y-7282D01*
X-160655Y-7652D01*
X-161025Y-8206D01*
X-161155Y-8858D01*
X-161025Y-9511D01*
X-160655Y-10065D01*
X-160102Y-10435D01*
X-159449Y-10564D01*
X-158796Y-10435D01*
X-158243Y-10065D01*
X-157873Y-9511D01*
X-157743Y-8858D01*
X-157873Y-8206D01*
X-158243Y-7652D01*
X-158796Y-7282D01*
X-159449Y-7152D01*
D02*
G37*
G36*
X133858Y-11089D02*
X133205Y-11219D01*
X132652Y-11589D01*
X132282Y-12142D01*
X132152Y-12795D01*
X132282Y-13448D01*
X132652Y-14002D01*
X133205Y-14371D01*
X133858Y-14501D01*
X134511Y-14371D01*
X135065Y-14002D01*
X135434Y-13448D01*
X135564Y-12795D01*
X135434Y-12142D01*
X135065Y-11589D01*
X134511Y-11219D01*
X133858Y-11089D01*
D02*
G37*
G36*
X93504Y-12073D02*
X92851Y-12203D01*
X92298Y-12573D01*
X91928Y-13127D01*
X91798Y-13780D01*
X91928Y-14432D01*
X92298Y-14986D01*
X92851Y-15356D01*
X93504Y-15485D01*
X94157Y-15356D01*
X94710Y-14986D01*
X95080Y-14432D01*
X95210Y-13780D01*
X95080Y-13127D01*
X94710Y-12573D01*
X94157Y-12203D01*
X93504Y-12073D01*
D02*
G37*
G36*
X-94488D02*
X-95141Y-12203D01*
X-95695Y-12573D01*
X-96064Y-13127D01*
X-96194Y-13780D01*
X-96064Y-14432D01*
X-95695Y-14986D01*
X-95141Y-15356D01*
X-94488Y-15485D01*
X-93835Y-15356D01*
X-93282Y-14986D01*
X-92912Y-14432D01*
X-92782Y-13780D01*
X-92912Y-13127D01*
X-93282Y-12573D01*
X-93835Y-12203D01*
X-94488Y-12073D01*
D02*
G37*
G36*
X-15748Y-13058D02*
X-16401Y-13188D01*
X-16954Y-13557D01*
X-17324Y-14111D01*
X-17454Y-14764D01*
X-17411Y-14980D01*
X-17861Y-15281D01*
X-18048Y-15156D01*
X-18701Y-15026D01*
X-19354Y-15156D01*
X-19907Y-15526D01*
X-20277Y-16079D01*
X-20407Y-16732D01*
X-20277Y-17385D01*
X-19907Y-17939D01*
X-19354Y-18308D01*
X-18701Y-18438D01*
X-18048Y-18308D01*
X-17494Y-17939D01*
X-17125Y-17385D01*
X-16995Y-16732D01*
X-17038Y-16516D01*
X-16588Y-16215D01*
X-16401Y-16340D01*
X-15748Y-16470D01*
X-15095Y-16340D01*
X-14542Y-15970D01*
X-14172Y-15417D01*
X-14042Y-14764D01*
X-14172Y-14111D01*
X-14542Y-13557D01*
X-15095Y-13188D01*
X-15748Y-13058D01*
D02*
G37*
G36*
X0Y-11089D02*
X-653Y-11219D01*
X-1206Y-11589D01*
X-1576Y-12142D01*
X-1706Y-12795D01*
X-1576Y-13448D01*
X-1206Y-14002D01*
X-653Y-14371D01*
X0Y-14501D01*
X653Y-14371D01*
X1206Y-14002D01*
X1576Y-13448D01*
X1706Y-12795D01*
X1576Y-12142D01*
X1206Y-11589D01*
X653Y-11219D01*
X0Y-11089D01*
D02*
G37*
G36*
X-3937D02*
X-4590Y-11219D01*
X-5143Y-11589D01*
X-5513Y-12142D01*
X-5643Y-12795D01*
X-5513Y-13448D01*
X-5143Y-14002D01*
X-4590Y-14371D01*
X-3937Y-14501D01*
X-3284Y-14371D01*
X-2731Y-14002D01*
X-2361Y-13448D01*
X-2231Y-12795D01*
X-2361Y-12142D01*
X-2731Y-11589D01*
X-3284Y-11219D01*
X-3937Y-11089D01*
D02*
G37*
G36*
X119095Y-17979D02*
X118442Y-18109D01*
X117888Y-18479D01*
X117518Y-19032D01*
X117389Y-19685D01*
X117518Y-20338D01*
X117888Y-20891D01*
X118442Y-21261D01*
X119095Y-21391D01*
X119747Y-21261D01*
X120301Y-20891D01*
X120671Y-20338D01*
X120801Y-19685D01*
X120671Y-19032D01*
X120301Y-18479D01*
X119747Y-18109D01*
X119095Y-17979D01*
D02*
G37*
G36*
X-144685Y-23584D02*
X-145453Y-23736D01*
X-146104Y-24171D01*
X-146539Y-24823D01*
X-146692Y-25591D01*
X-146539Y-26359D01*
X-146104Y-27010D01*
X-145453Y-27445D01*
X-144685Y-27598D01*
X-143917Y-27445D01*
X-143266Y-27010D01*
X-142831Y-26359D01*
X-142678Y-25591D01*
X-142831Y-24823D01*
X-143266Y-24171D01*
X-143917Y-23736D01*
X-144685Y-23584D01*
D02*
G37*
G36*
X-165354D02*
X-166122Y-23736D01*
X-166774Y-24171D01*
X-167209Y-24823D01*
X-167361Y-25591D01*
X-167209Y-26359D01*
X-166774Y-27010D01*
X-166122Y-27445D01*
X-165354Y-27598D01*
X-164586Y-27445D01*
X-163935Y-27010D01*
X-163500Y-26359D01*
X-163347Y-25591D01*
X-163500Y-24823D01*
X-163935Y-24171D01*
X-164586Y-23736D01*
X-165354Y-23584D01*
D02*
G37*
G36*
X-89567Y-23584D02*
X-90335Y-23736D01*
X-90986Y-24171D01*
X-91421Y-24823D01*
X-91574Y-25591D01*
X-91421Y-26359D01*
X-90986Y-27010D01*
X-90335Y-27445D01*
X-89567Y-27598D01*
X-88799Y-27445D01*
X-88148Y-27010D01*
X-87713Y-26359D01*
X-87560Y-25591D01*
X-87713Y-24823D01*
X-88148Y-24171D01*
X-88799Y-23736D01*
X-89567Y-23584D01*
D02*
G37*
G36*
X73819Y-22599D02*
X73051Y-22752D01*
X72400Y-23187D01*
X71965Y-23838D01*
X71812Y-24606D01*
X71965Y-25374D01*
X72400Y-26026D01*
X73051Y-26461D01*
X73819Y-26613D01*
X74587Y-26461D01*
X75238Y-26026D01*
X75673Y-25374D01*
X75826Y-24606D01*
X75673Y-23838D01*
X75238Y-23187D01*
X74587Y-22752D01*
X73819Y-22599D01*
D02*
G37*
G36*
X52165D02*
X51397Y-22752D01*
X50746Y-23187D01*
X50311Y-23838D01*
X50158Y-24606D01*
X50311Y-25374D01*
X50746Y-26026D01*
X51397Y-26461D01*
X52165Y-26613D01*
X52934Y-26461D01*
X53585Y-26026D01*
X54020Y-25374D01*
X54172Y-24606D01*
X54020Y-23838D01*
X53585Y-23187D01*
X52934Y-22752D01*
X52165Y-22599D01*
D02*
G37*
G36*
X-15748Y-104593D02*
X-16401Y-104723D01*
X-16954Y-105093D01*
X-17324Y-105646D01*
X-17454Y-106299D01*
X-17324Y-106952D01*
X-16954Y-107506D01*
X-16401Y-107875D01*
X-15748Y-108005D01*
X-15095Y-107875D01*
X-14542Y-107506D01*
X-14172Y-106952D01*
X-14042Y-106299D01*
X-14172Y-105646D01*
X-14542Y-105093D01*
X-15095Y-104723D01*
X-15748Y-104593D01*
D02*
G37*
G36*
X69882Y-25552D02*
X69114Y-25705D01*
X68463Y-26140D01*
X68028Y-26791D01*
X67875Y-27559D01*
X68028Y-28327D01*
X68463Y-28978D01*
X69114Y-29413D01*
X69882Y-29566D01*
X70650Y-29413D01*
X71301Y-28978D01*
X71736Y-28327D01*
X71889Y-27559D01*
X71736Y-26791D01*
X71301Y-26140D01*
X70650Y-25705D01*
X69882Y-25552D01*
D02*
G37*
G36*
X48228D02*
X47460Y-25705D01*
X46809Y-26140D01*
X46374Y-26791D01*
X46221Y-27559D01*
X46374Y-28327D01*
X46809Y-28978D01*
X47460Y-29413D01*
X48228Y-29566D01*
X48996Y-29413D01*
X49648Y-28978D01*
X50083Y-28327D01*
X50235Y-27559D01*
X50083Y-26791D01*
X49648Y-26140D01*
X48996Y-25705D01*
X48228Y-25552D01*
D02*
G37*
G36*
X115158Y-25853D02*
X114505Y-25983D01*
X113951Y-26353D01*
X113581Y-26906D01*
X113452Y-27559D01*
X113581Y-28212D01*
X113951Y-28765D01*
X114505Y-29135D01*
X115158Y-29265D01*
X115810Y-29135D01*
X116364Y-28765D01*
X116734Y-28212D01*
X116864Y-27559D01*
X116734Y-26906D01*
X116364Y-26353D01*
X115810Y-25983D01*
X115158Y-25853D01*
D02*
G37*
G36*
X154528D02*
X153875Y-25983D01*
X153321Y-26353D01*
X152952Y-26906D01*
X152822Y-27559D01*
X152952Y-28212D01*
X153321Y-28765D01*
X153875Y-29135D01*
X154528Y-29265D01*
X155181Y-29135D01*
X155734Y-28765D01*
X156104Y-28212D01*
X156234Y-27559D01*
X156104Y-26906D01*
X155734Y-26353D01*
X155181Y-25983D01*
X154528Y-25853D01*
D02*
G37*
G36*
X139764D02*
X139111Y-25983D01*
X138558Y-26353D01*
X138188Y-26906D01*
X138058Y-27559D01*
X138188Y-28212D01*
X138558Y-28765D01*
X139111Y-29135D01*
X139764Y-29265D01*
X140417Y-29135D01*
X140970Y-28765D01*
X141340Y-28212D01*
X141470Y-27559D01*
X141340Y-26906D01*
X140970Y-26353D01*
X140417Y-25983D01*
X139764Y-25853D01*
D02*
G37*
G36*
X-18701Y-22900D02*
X-19354Y-23030D01*
X-19907Y-23400D01*
X-20277Y-23953D01*
X-20407Y-24606D01*
X-20277Y-25259D01*
X-19907Y-25813D01*
X-19354Y-26182D01*
X-18701Y-26312D01*
X-18048Y-26182D01*
X-17494Y-25813D01*
X-17125Y-25259D01*
X-16995Y-24606D01*
X-17125Y-23953D01*
X-17494Y-23400D01*
X-18048Y-23030D01*
X-18701Y-22900D01*
D02*
G37*
G36*
X57087Y-18963D02*
X56434Y-19093D01*
X55880Y-19463D01*
X55510Y-20016D01*
X55381Y-20669D01*
X55510Y-21322D01*
X55880Y-21876D01*
X56434Y-22245D01*
X57087Y-22375D01*
X57740Y-22245D01*
X58293Y-21876D01*
X58663Y-21322D01*
X58793Y-20669D01*
X58663Y-20016D01*
X58293Y-19463D01*
X57740Y-19093D01*
X57087Y-18963D01*
D02*
G37*
G36*
X-18701D02*
X-19354Y-19093D01*
X-19907Y-19463D01*
X-20277Y-20016D01*
X-20407Y-20669D01*
X-20277Y-21322D01*
X-19907Y-21876D01*
X-19354Y-22245D01*
X-18701Y-22375D01*
X-18048Y-22245D01*
X-17494Y-21876D01*
X-17125Y-21322D01*
X-16995Y-20669D01*
X-17125Y-20016D01*
X-17494Y-19463D01*
X-18048Y-19093D01*
X-18701Y-18963D01*
D02*
G37*
G36*
X-165354Y-17678D02*
X-166122Y-17831D01*
X-166774Y-18266D01*
X-167209Y-18917D01*
X-167361Y-19685D01*
X-167209Y-20453D01*
X-166774Y-21104D01*
X-166122Y-21539D01*
X-165354Y-21692D01*
X-164586Y-21539D01*
X-163935Y-21104D01*
X-163500Y-20453D01*
X-163347Y-19685D01*
X-163500Y-18917D01*
X-163935Y-18266D01*
X-164586Y-17831D01*
X-165354Y-17678D01*
D02*
G37*
G36*
X93504Y-17979D02*
X92851Y-18109D01*
X92298Y-18479D01*
X91928Y-19032D01*
X91798Y-19685D01*
X91928Y-20338D01*
X92298Y-20891D01*
X92851Y-21261D01*
X93504Y-21391D01*
X94157Y-21261D01*
X94710Y-20891D01*
X95080Y-20338D01*
X95210Y-19685D01*
X95080Y-19032D01*
X94710Y-18479D01*
X94157Y-18109D01*
X93504Y-17979D01*
D02*
G37*
G36*
X-89567Y-17678D02*
X-90335Y-17831D01*
X-90986Y-18266D01*
X-91421Y-18917D01*
X-91574Y-19685D01*
X-91421Y-20453D01*
X-90986Y-21104D01*
X-90335Y-21539D01*
X-89567Y-21692D01*
X-88799Y-21539D01*
X-88148Y-21104D01*
X-87713Y-20453D01*
X-87560Y-19685D01*
X-87713Y-18917D01*
X-88148Y-18266D01*
X-88799Y-17831D01*
X-89567Y-17678D01*
D02*
G37*
G36*
X-25591Y-104593D02*
X-26243Y-104723D01*
X-26797Y-105093D01*
X-27167Y-105646D01*
X-27297Y-106299D01*
X-27167Y-106952D01*
X-26797Y-107506D01*
X-26243Y-107875D01*
X-25591Y-108005D01*
X-24938Y-107875D01*
X-24384Y-107506D01*
X-24014Y-106952D01*
X-23885Y-106299D01*
X-24014Y-105646D01*
X-24384Y-105093D01*
X-24938Y-104723D01*
X-25591Y-104593D01*
D02*
G37*
G36*
X-104331Y-21916D02*
X-104984Y-22046D01*
X-105537Y-22416D01*
X-105907Y-22969D01*
X-106037Y-23622D01*
X-105907Y-24275D01*
X-105537Y-24828D01*
X-104984Y-25198D01*
X-104331Y-25328D01*
X-103678Y-25198D01*
X-103124Y-24828D01*
X-102755Y-24275D01*
X-102625Y-23622D01*
X-102755Y-22969D01*
X-103124Y-22416D01*
X-103678Y-22046D01*
X-104331Y-21916D01*
D02*
G37*
G36*
X-183071D02*
X-183724Y-22046D01*
X-184277Y-22416D01*
X-184647Y-22969D01*
X-184777Y-23622D01*
X-184647Y-24275D01*
X-184277Y-24828D01*
X-183724Y-25198D01*
X-183071Y-25328D01*
X-182418Y-25198D01*
X-181865Y-24828D01*
X-181495Y-24275D01*
X-181365Y-23622D01*
X-181495Y-22969D01*
X-181865Y-22416D01*
X-182418Y-22046D01*
X-183071Y-21916D01*
D02*
G37*
G36*
X28543Y-20631D02*
X27775Y-20784D01*
X27124Y-21219D01*
X26689Y-21870D01*
X26536Y-22638D01*
X26689Y-23406D01*
X27124Y-24057D01*
X27775Y-24492D01*
X28543Y-24645D01*
X29311Y-24492D01*
X29963Y-24057D01*
X30398Y-23406D01*
X30551Y-22638D01*
X30398Y-21870D01*
X29963Y-21219D01*
X29311Y-20784D01*
X28543Y-20631D01*
D02*
G37*
G36*
X-30512Y-19948D02*
X-31165Y-20077D01*
X-31718Y-20447D01*
X-32088Y-21001D01*
X-32218Y-21654D01*
X-32088Y-22307D01*
X-31718Y-22860D01*
X-31165Y-23230D01*
X-30512Y-23360D01*
X-29859Y-23230D01*
X-29305Y-22860D01*
X-28936Y-22307D01*
X-28806Y-21654D01*
X-28936Y-21001D01*
X-29305Y-20447D01*
X-29859Y-20077D01*
X-30512Y-19948D01*
D02*
G37*
G36*
X133858Y-20932D02*
X133205Y-21062D01*
X132652Y-21431D01*
X132282Y-21985D01*
X132152Y-22638D01*
X132282Y-23291D01*
X132652Y-23844D01*
X133205Y-24214D01*
X133858Y-24344D01*
X134511Y-24214D01*
X135065Y-23844D01*
X135434Y-23291D01*
X135564Y-22638D01*
X135434Y-21985D01*
X135065Y-21431D01*
X134511Y-21062D01*
X133858Y-20932D01*
D02*
G37*
G36*
X132087Y-88058D02*
X131434Y-88188D01*
X130880Y-88557D01*
X130510Y-89111D01*
X130381Y-89764D01*
X130510Y-90417D01*
X130880Y-90970D01*
X131434Y-91340D01*
X132087Y-91470D01*
X132740Y-91340D01*
X133293Y-90970D01*
X133663Y-90417D01*
X133793Y-89764D01*
X133663Y-89111D01*
X133293Y-88557D01*
X132740Y-88188D01*
X132087Y-88058D01*
D02*
G37*
G36*
X127756D02*
X127103Y-88188D01*
X126550Y-88557D01*
X126180Y-89111D01*
X126050Y-89764D01*
X126180Y-90417D01*
X126550Y-90970D01*
X127103Y-91340D01*
X127756Y-91470D01*
X128409Y-91340D01*
X128962Y-90970D01*
X129332Y-90417D01*
X129462Y-89764D01*
X129332Y-89111D01*
X128962Y-88557D01*
X128409Y-88188D01*
X127756Y-88058D01*
D02*
G37*
G36*
X123032Y-85892D02*
X122379Y-86022D01*
X121825Y-86392D01*
X121455Y-86946D01*
X121326Y-87598D01*
X121455Y-88251D01*
X121825Y-88805D01*
X122379Y-89175D01*
X123032Y-89304D01*
X123684Y-89175D01*
X124238Y-88805D01*
X124608Y-88251D01*
X124738Y-87598D01*
X124608Y-86946D01*
X124238Y-86392D01*
X123684Y-86022D01*
X123032Y-85892D01*
D02*
G37*
G36*
X159449Y-84908D02*
X158796Y-85038D01*
X158243Y-85408D01*
X157873Y-85961D01*
X157743Y-86614D01*
X157873Y-87267D01*
X158243Y-87821D01*
X158796Y-88190D01*
X159449Y-88320D01*
X160102Y-88190D01*
X160655Y-87821D01*
X161025Y-87267D01*
X161155Y-86614D01*
X161025Y-85961D01*
X160655Y-85408D01*
X160102Y-85038D01*
X159449Y-84908D01*
D02*
G37*
G36*
X-25591D02*
X-26243Y-85038D01*
X-26797Y-85408D01*
X-27167Y-85961D01*
X-27297Y-86614D01*
X-27167Y-87267D01*
X-26797Y-87821D01*
X-26243Y-88190D01*
X-25591Y-88320D01*
X-24938Y-88190D01*
X-24384Y-87821D01*
X-24014Y-87267D01*
X-23885Y-86614D01*
X-24014Y-85961D01*
X-24384Y-85408D01*
X-24938Y-85038D01*
X-25591Y-84908D01*
D02*
G37*
G36*
X112402Y-88058D02*
X111749Y-88188D01*
X111195Y-88557D01*
X110826Y-89111D01*
X110696Y-89764D01*
X110826Y-90417D01*
X111195Y-90970D01*
X111749Y-91340D01*
X112402Y-91470D01*
X113055Y-91340D01*
X113608Y-90970D01*
X113978Y-90417D01*
X114108Y-89764D01*
X113978Y-89111D01*
X113608Y-88557D01*
X113055Y-88188D01*
X112402Y-88058D01*
D02*
G37*
G36*
X11811Y-90513D02*
X11043Y-90665D01*
X10392Y-91101D01*
X9957Y-91752D01*
X9804Y-92520D01*
X9957Y-93288D01*
X10392Y-93939D01*
X11043Y-94374D01*
X11811Y-94527D01*
X12579Y-94374D01*
X13230Y-93939D01*
X13665Y-93288D01*
X13818Y-92520D01*
X13665Y-91752D01*
X13230Y-91101D01*
X12579Y-90665D01*
X11811Y-90513D01*
D02*
G37*
G36*
X117126Y-91798D02*
X116473Y-91928D01*
X115920Y-92298D01*
X115550Y-92851D01*
X115420Y-93504D01*
X115550Y-94157D01*
X115920Y-94710D01*
X116473Y-95080D01*
X117126Y-95210D01*
X117779Y-95080D01*
X118332Y-94710D01*
X118702Y-94157D01*
X118832Y-93504D01*
X118702Y-92851D01*
X118332Y-92298D01*
X117779Y-91928D01*
X117126Y-91798D01*
D02*
G37*
G36*
X-15748Y-87560D02*
X-16516Y-87713D01*
X-17167Y-88148D01*
X-17602Y-88799D01*
X-17755Y-89567D01*
X-17602Y-90335D01*
X-17167Y-90986D01*
X-16516Y-91421D01*
X-15748Y-91574D01*
X-14980Y-91421D01*
X-14329Y-90986D01*
X-13894Y-90335D01*
X-13741Y-89567D01*
X-13894Y-88799D01*
X-14329Y-88148D01*
X-14980Y-87713D01*
X-15748Y-87560D01*
D02*
G37*
G36*
X108071Y-88058D02*
X107418Y-88188D01*
X106865Y-88557D01*
X106495Y-89111D01*
X106365Y-89764D01*
X106495Y-90417D01*
X106865Y-90970D01*
X107418Y-91340D01*
X108071Y-91470D01*
X108724Y-91340D01*
X109277Y-90970D01*
X109647Y-90417D01*
X109777Y-89764D01*
X109647Y-89111D01*
X109277Y-88557D01*
X108724Y-88188D01*
X108071Y-88058D01*
D02*
G37*
G36*
X15748Y-87560D02*
X14980Y-87713D01*
X14329Y-88148D01*
X13894Y-88799D01*
X13741Y-89567D01*
X13894Y-90335D01*
X14329Y-90986D01*
X14980Y-91421D01*
X15748Y-91574D01*
X16516Y-91421D01*
X17167Y-90986D01*
X17602Y-90335D01*
X17755Y-89567D01*
X17602Y-88799D01*
X17167Y-88148D01*
X16516Y-87713D01*
X15748Y-87560D01*
D02*
G37*
G36*
X108071Y-83727D02*
X107418Y-83857D01*
X106865Y-84227D01*
X106495Y-84780D01*
X106365Y-85433D01*
X106495Y-86086D01*
X106865Y-86639D01*
X107418Y-87009D01*
X108071Y-87139D01*
X108724Y-87009D01*
X109277Y-86639D01*
X109647Y-86086D01*
X109777Y-85433D01*
X109647Y-84780D01*
X109277Y-84227D01*
X108724Y-83857D01*
X108071Y-83727D01*
D02*
G37*
G36*
X54134Y-80971D02*
X53481Y-81101D01*
X52928Y-81471D01*
X52558Y-82024D01*
X52428Y-82677D01*
X52558Y-83330D01*
X52928Y-83884D01*
X53481Y-84253D01*
X54134Y-84383D01*
X54787Y-84253D01*
X55340Y-83884D01*
X55710Y-83330D01*
X55840Y-82677D01*
X55710Y-82024D01*
X55340Y-81471D01*
X54787Y-81101D01*
X54134Y-80971D01*
D02*
G37*
G36*
X67323Y-82349D02*
X66670Y-82479D01*
X66116Y-82849D01*
X65747Y-83402D01*
X65617Y-84055D01*
X65747Y-84708D01*
X66116Y-85261D01*
X66670Y-85631D01*
X67323Y-85761D01*
X67976Y-85631D01*
X68529Y-85261D01*
X68899Y-84708D01*
X69029Y-84055D01*
X68899Y-83402D01*
X68529Y-82849D01*
X67976Y-82479D01*
X67323Y-82349D01*
D02*
G37*
G36*
X142717Y-79686D02*
X141948Y-79839D01*
X141297Y-80274D01*
X140862Y-80925D01*
X140709Y-81693D01*
X140862Y-82461D01*
X141297Y-83112D01*
X141948Y-83547D01*
X142717Y-83700D01*
X143485Y-83547D01*
X144136Y-83112D01*
X144571Y-82461D01*
X144724Y-81693D01*
X144571Y-80925D01*
X144136Y-80274D01*
X143485Y-79839D01*
X142717Y-79686D01*
D02*
G37*
G36*
X35433Y-78018D02*
X34780Y-78148D01*
X34227Y-78518D01*
X33857Y-79072D01*
X33727Y-79724D01*
X33857Y-80377D01*
X34227Y-80931D01*
X34780Y-81301D01*
X35433Y-81430D01*
X36086Y-81301D01*
X36639Y-80931D01*
X37009Y-80377D01*
X37139Y-79724D01*
X37009Y-79072D01*
X36639Y-78518D01*
X36086Y-78148D01*
X35433Y-78018D01*
D02*
G37*
G36*
X30512D02*
X29859Y-78148D01*
X29306Y-78518D01*
X28936Y-79072D01*
X28806Y-79724D01*
X28936Y-80377D01*
X29306Y-80931D01*
X29859Y-81301D01*
X30512Y-81430D01*
X31165Y-81301D01*
X31718Y-80931D01*
X32088Y-80377D01*
X32218Y-79724D01*
X32088Y-79072D01*
X31718Y-78518D01*
X31165Y-78148D01*
X30512Y-78018D01*
D02*
G37*
G36*
X62992Y-82349D02*
X62339Y-82479D01*
X61786Y-82849D01*
X61416Y-83402D01*
X61286Y-84055D01*
X61416Y-84708D01*
X61786Y-85261D01*
X62339Y-85631D01*
X62992Y-85761D01*
X63645Y-85631D01*
X64198Y-85261D01*
X64568Y-84708D01*
X64698Y-84055D01*
X64568Y-83402D01*
X64198Y-82849D01*
X63645Y-82479D01*
X62992Y-82349D01*
D02*
G37*
G36*
X127756Y-83727D02*
X127103Y-83857D01*
X126550Y-84227D01*
X126180Y-84780D01*
X126050Y-85433D01*
X126180Y-86086D01*
X126550Y-86639D01*
X127103Y-87009D01*
X127756Y-87139D01*
X128409Y-87009D01*
X128962Y-86639D01*
X129332Y-86086D01*
X129462Y-85433D01*
X129332Y-84780D01*
X128962Y-84227D01*
X128409Y-83857D01*
X127756Y-83727D01*
D02*
G37*
G36*
X112402D02*
X111749Y-83857D01*
X111195Y-84227D01*
X110826Y-84780D01*
X110696Y-85433D01*
X110826Y-86086D01*
X111195Y-86639D01*
X111749Y-87009D01*
X112402Y-87139D01*
X113055Y-87009D01*
X113608Y-86639D01*
X113978Y-86086D01*
X114108Y-85433D01*
X113978Y-84780D01*
X113608Y-84227D01*
X113055Y-83857D01*
X112402Y-83727D01*
D02*
G37*
G36*
X132087D02*
X131434Y-83857D01*
X130880Y-84227D01*
X130510Y-84780D01*
X130381Y-85433D01*
X130510Y-86086D01*
X130880Y-86639D01*
X131434Y-87009D01*
X132087Y-87139D01*
X132740Y-87009D01*
X133293Y-86639D01*
X133663Y-86086D01*
X133793Y-85433D01*
X133663Y-84780D01*
X133293Y-84227D01*
X132740Y-83857D01*
X132087Y-83727D01*
D02*
G37*
G36*
X58661Y-82349D02*
X58008Y-82479D01*
X57455Y-82849D01*
X57085Y-83402D01*
X56955Y-84055D01*
X57085Y-84708D01*
X57455Y-85261D01*
X58008Y-85631D01*
X58661Y-85761D01*
X59314Y-85631D01*
X59868Y-85261D01*
X60237Y-84708D01*
X60367Y-84055D01*
X60237Y-83402D01*
X59868Y-82849D01*
X59314Y-82479D01*
X58661Y-82349D01*
D02*
G37*
G36*
X88583Y-82639D02*
X87815Y-82791D01*
X87164Y-83226D01*
X86729Y-83878D01*
X86576Y-84646D01*
X86729Y-85414D01*
X87164Y-86065D01*
X87815Y-86500D01*
X88583Y-86653D01*
X89351Y-86500D01*
X90002Y-86065D01*
X90437Y-85414D01*
X90590Y-84646D01*
X90437Y-83878D01*
X90002Y-83226D01*
X89351Y-82791D01*
X88583Y-82639D01*
D02*
G37*
G36*
X97441Y-91497D02*
X96673Y-91650D01*
X96022Y-92085D01*
X95587Y-92736D01*
X95434Y-93504D01*
X95587Y-94272D01*
X96022Y-94923D01*
X96673Y-95358D01*
X97441Y-95511D01*
X98209Y-95358D01*
X98860Y-94923D01*
X99295Y-94272D01*
X99448Y-93504D01*
X99295Y-92736D01*
X98860Y-92085D01*
X98209Y-91650D01*
X97441Y-91497D01*
D02*
G37*
G36*
X99410Y-100656D02*
X98757Y-100786D01*
X98203Y-101156D01*
X97833Y-101709D01*
X97703Y-102362D01*
X97833Y-103015D01*
X98203Y-103568D01*
X98757Y-103938D01*
X99410Y-104068D01*
X100062Y-103938D01*
X100616Y-103568D01*
X100986Y-103015D01*
X101116Y-102362D01*
X100986Y-101709D01*
X100616Y-101156D01*
X100062Y-100786D01*
X99410Y-100656D01*
D02*
G37*
G36*
X94488D02*
X93835Y-100786D01*
X93282Y-101156D01*
X92912Y-101709D01*
X92782Y-102362D01*
X92912Y-103015D01*
X93282Y-103568D01*
X93835Y-103938D01*
X94488Y-104068D01*
X95141Y-103938D01*
X95695Y-103568D01*
X96064Y-103015D01*
X96194Y-102362D01*
X96064Y-101709D01*
X95695Y-101156D01*
X95141Y-100786D01*
X94488Y-100656D01*
D02*
G37*
G36*
X107283D02*
X106631Y-100786D01*
X106077Y-101156D01*
X105707Y-101709D01*
X105578Y-102362D01*
X105707Y-103015D01*
X106077Y-103568D01*
X106631Y-103938D01*
X107283Y-104068D01*
X107936Y-103938D01*
X108490Y-103568D01*
X108860Y-103015D01*
X108990Y-102362D01*
X108860Y-101709D01*
X108490Y-101156D01*
X107936Y-100786D01*
X107283Y-100656D01*
D02*
G37*
G36*
X116142Y-97703D02*
X115489Y-97833D01*
X114936Y-98203D01*
X114566Y-98757D01*
X114436Y-99410D01*
X114566Y-100062D01*
X114936Y-100616D01*
X115489Y-100986D01*
X116142Y-101116D01*
X116795Y-100986D01*
X117348Y-100616D01*
X117718Y-100062D01*
X117848Y-99410D01*
X117718Y-98757D01*
X117348Y-98203D01*
X116795Y-97833D01*
X116142Y-97703D01*
D02*
G37*
G36*
X102362D02*
X101709Y-97833D01*
X101156Y-98203D01*
X100786Y-98757D01*
X100656Y-99410D01*
X100786Y-100062D01*
X101156Y-100616D01*
X101709Y-100986D01*
X102362Y-101116D01*
X103015Y-100986D01*
X103569Y-100616D01*
X103938Y-100062D01*
X104068Y-99410D01*
X103938Y-98757D01*
X103569Y-98203D01*
X103015Y-97833D01*
X102362Y-97703D01*
D02*
G37*
G36*
X112205Y-103609D02*
X111552Y-103739D01*
X110998Y-104109D01*
X110629Y-104662D01*
X110499Y-105315D01*
X110629Y-105968D01*
X110998Y-106521D01*
X111552Y-106891D01*
X112205Y-107021D01*
X112858Y-106891D01*
X113411Y-106521D01*
X113781Y-105968D01*
X113911Y-105315D01*
X113781Y-104662D01*
X113411Y-104109D01*
X112858Y-103739D01*
X112205Y-103609D01*
D02*
G37*
G36*
X70866Y-104593D02*
X70213Y-104723D01*
X69660Y-105093D01*
X69290Y-105646D01*
X69160Y-106299D01*
X69290Y-106952D01*
X69660Y-107506D01*
X70213Y-107875D01*
X70866Y-108005D01*
X71519Y-107875D01*
X72073Y-107506D01*
X72442Y-106952D01*
X72572Y-106299D01*
X72442Y-105646D01*
X72073Y-105093D01*
X71519Y-104723D01*
X70866Y-104593D01*
D02*
G37*
G36*
X80709D02*
X80056Y-104723D01*
X79502Y-105093D01*
X79133Y-105646D01*
X79003Y-106299D01*
X79133Y-106952D01*
X79502Y-107506D01*
X80056Y-107875D01*
X80709Y-108005D01*
X81362Y-107875D01*
X81915Y-107506D01*
X82285Y-106952D01*
X82415Y-106299D01*
X82285Y-105646D01*
X81915Y-105093D01*
X81362Y-104723D01*
X80709Y-104593D01*
D02*
G37*
G36*
X90551D02*
X89898Y-104723D01*
X89345Y-105093D01*
X88975Y-105646D01*
X88845Y-106299D01*
X88975Y-106952D01*
X89345Y-107506D01*
X89898Y-107875D01*
X90551Y-108005D01*
X91204Y-107875D01*
X91758Y-107506D01*
X92127Y-106952D01*
X92257Y-106299D01*
X92127Y-105646D01*
X91758Y-105093D01*
X91204Y-104723D01*
X90551Y-104593D01*
D02*
G37*
G36*
X159449D02*
X158796Y-104723D01*
X158243Y-105093D01*
X157873Y-105646D01*
X157743Y-106299D01*
X157873Y-106952D01*
X158243Y-107506D01*
X158796Y-107875D01*
X159449Y-108005D01*
X160102Y-107875D01*
X160655Y-107506D01*
X161025Y-106952D01*
X161155Y-106299D01*
X161025Y-105646D01*
X160655Y-105093D01*
X160102Y-104723D01*
X159449Y-104593D01*
D02*
G37*
G36*
X149606D02*
X148953Y-104723D01*
X148400Y-105093D01*
X148030Y-105646D01*
X147900Y-106299D01*
X148030Y-106952D01*
X148400Y-107506D01*
X148953Y-107875D01*
X149606Y-108005D01*
X150259Y-107875D01*
X150813Y-107506D01*
X151182Y-106952D01*
X151312Y-106299D01*
X151182Y-105646D01*
X150813Y-105093D01*
X150259Y-104723D01*
X149606Y-104593D01*
D02*
G37*
G36*
X124016Y-97703D02*
X123363Y-97833D01*
X122810Y-98203D01*
X122440Y-98757D01*
X122310Y-99410D01*
X122440Y-100062D01*
X122810Y-100616D01*
X123363Y-100986D01*
X124016Y-101116D01*
X124669Y-100986D01*
X125222Y-100616D01*
X125592Y-100062D01*
X125722Y-99410D01*
X125592Y-98757D01*
X125222Y-98203D01*
X124669Y-97833D01*
X124016Y-97703D01*
D02*
G37*
G36*
X85630Y-94751D02*
X84977Y-94880D01*
X84424Y-95250D01*
X84054Y-95804D01*
X83924Y-96457D01*
X84054Y-97110D01*
X84424Y-97663D01*
X84977Y-98033D01*
X85630Y-98163D01*
X86283Y-98033D01*
X86836Y-97663D01*
X87206Y-97110D01*
X87336Y-96457D01*
X87206Y-95804D01*
X86836Y-95250D01*
X86283Y-94880D01*
X85630Y-94751D01*
D02*
G37*
G36*
X75788D02*
X75135Y-94880D01*
X74581Y-95250D01*
X74211Y-95804D01*
X74081Y-96457D01*
X74211Y-97110D01*
X74581Y-97663D01*
X75135Y-98033D01*
X75788Y-98163D01*
X76440Y-98033D01*
X76994Y-97663D01*
X77364Y-97110D01*
X77494Y-96457D01*
X77364Y-95804D01*
X76994Y-95250D01*
X76440Y-94880D01*
X75788Y-94751D01*
D02*
G37*
G36*
X154528D02*
X153875Y-94880D01*
X153321Y-95250D01*
X152952Y-95804D01*
X152822Y-96457D01*
X152952Y-97110D01*
X153321Y-97663D01*
X153875Y-98033D01*
X154528Y-98163D01*
X155181Y-98033D01*
X155734Y-97663D01*
X156104Y-97110D01*
X156234Y-96457D01*
X156104Y-95804D01*
X155734Y-95250D01*
X155181Y-94880D01*
X154528Y-94751D01*
D02*
G37*
G36*
X30512Y-93465D02*
X29744Y-93618D01*
X29093Y-94053D01*
X28658Y-94704D01*
X28505Y-95472D01*
X28658Y-96241D01*
X29093Y-96892D01*
X29744Y-97327D01*
X30512Y-97479D01*
X31280Y-97327D01*
X31931Y-96892D01*
X32366Y-96241D01*
X32519Y-95472D01*
X32366Y-94704D01*
X31931Y-94053D01*
X31280Y-93618D01*
X30512Y-93465D01*
D02*
G37*
G36*
X164370Y-94751D02*
X163717Y-94880D01*
X163164Y-95250D01*
X162794Y-95804D01*
X162664Y-96457D01*
X162794Y-97110D01*
X163164Y-97663D01*
X163717Y-98033D01*
X164370Y-98163D01*
X165023Y-98033D01*
X165577Y-97663D01*
X165946Y-97110D01*
X166076Y-96457D01*
X165946Y-95804D01*
X165577Y-95250D01*
X165023Y-94880D01*
X164370Y-94751D01*
D02*
G37*
G36*
X18701D02*
X18048Y-94880D01*
X17494Y-95250D01*
X17125Y-95804D01*
X16995Y-96457D01*
X17125Y-97110D01*
X17494Y-97663D01*
X18048Y-98033D01*
X18701Y-98163D01*
X19354Y-98033D01*
X19907Y-97663D01*
X20277Y-97110D01*
X20407Y-96457D01*
X20277Y-95804D01*
X19907Y-95250D01*
X19354Y-94880D01*
X18701Y-94751D01*
D02*
G37*
G36*
X-5905Y-95434D02*
X-6673Y-95587D01*
X-7325Y-96022D01*
X-7760Y-96673D01*
X-7913Y-97441D01*
X-7760Y-98209D01*
X-7325Y-98860D01*
X-6673Y-99295D01*
X-5905Y-99448D01*
X-5137Y-99295D01*
X-4486Y-98860D01*
X-4051Y-98209D01*
X-3898Y-97441D01*
X-4051Y-96673D01*
X-4486Y-96022D01*
X-5137Y-95587D01*
X-5905Y-95434D01*
D02*
G37*
G36*
X131890Y-97703D02*
X131237Y-97833D01*
X130684Y-98203D01*
X130314Y-98757D01*
X130184Y-99410D01*
X130314Y-100062D01*
X130684Y-100616D01*
X131237Y-100986D01*
X131890Y-101116D01*
X132543Y-100986D01*
X133096Y-100616D01*
X133466Y-100062D01*
X133596Y-99410D01*
X133466Y-98757D01*
X133096Y-98203D01*
X132543Y-97833D01*
X131890Y-97703D01*
D02*
G37*
G36*
X-20669Y-94751D02*
X-21322Y-94880D01*
X-21876Y-95250D01*
X-22245Y-95804D01*
X-22375Y-96457D01*
X-22245Y-97110D01*
X-21876Y-97663D01*
X-21322Y-98033D01*
X-20669Y-98163D01*
X-20016Y-98033D01*
X-19463Y-97663D01*
X-19093Y-97110D01*
X-18963Y-96457D01*
X-19093Y-95804D01*
X-19463Y-95250D01*
X-20016Y-94880D01*
X-20669Y-94751D01*
D02*
G37*
G36*
X8858D02*
X8206Y-94880D01*
X7652Y-95250D01*
X7282Y-95804D01*
X7152Y-96457D01*
X7282Y-97110D01*
X7652Y-97663D01*
X8206Y-98033D01*
X8858Y-98163D01*
X9511Y-98033D01*
X10065Y-97663D01*
X10435Y-97110D01*
X10564Y-96457D01*
X10435Y-95804D01*
X10065Y-95250D01*
X9511Y-94880D01*
X8858Y-94751D01*
D02*
G37*
G36*
X-11811Y-90513D02*
X-12579Y-90665D01*
X-13230Y-91101D01*
X-13665Y-91752D01*
X-13818Y-92520D01*
X-13665Y-93288D01*
X-13230Y-93939D01*
X-12579Y-94374D01*
X-11841Y-94521D01*
X-11785Y-94618D01*
X-11672Y-95009D01*
X-12033Y-95250D01*
X-12403Y-95804D01*
X-12533Y-96457D01*
X-12403Y-97110D01*
X-12033Y-97663D01*
X-11480Y-98033D01*
X-10827Y-98163D01*
X-10174Y-98033D01*
X-9620Y-97663D01*
X-9251Y-97110D01*
X-9121Y-96457D01*
X-9251Y-95804D01*
X-9620Y-95250D01*
X-10174Y-94880D01*
X-10734Y-94769D01*
X-10860Y-94474D01*
X-10885Y-94268D01*
X-10392Y-93939D01*
X-9957Y-93288D01*
X-9804Y-92520D01*
X-9957Y-91752D01*
X-10392Y-91101D01*
X-11043Y-90665D01*
X-11811Y-90513D01*
D02*
G37*
G36*
X58661Y-78018D02*
X58008Y-78148D01*
X57455Y-78518D01*
X57085Y-79071D01*
X56955Y-79724D01*
X57085Y-80377D01*
X57455Y-80931D01*
X58008Y-81300D01*
X58661Y-81430D01*
X59314Y-81300D01*
X59868Y-80931D01*
X60237Y-80377D01*
X60367Y-79724D01*
X60237Y-79071D01*
X59868Y-78518D01*
X59314Y-78148D01*
X58661Y-78018D01*
D02*
G37*
G36*
X159449Y-65223D02*
X158796Y-65353D01*
X158243Y-65723D01*
X157873Y-66276D01*
X157743Y-66929D01*
X157873Y-67582D01*
X158243Y-68135D01*
X158796Y-68505D01*
X159449Y-68635D01*
X160102Y-68505D01*
X160655Y-68135D01*
X161025Y-67582D01*
X161155Y-66929D01*
X161025Y-66276D01*
X160655Y-65723D01*
X160102Y-65353D01*
X159449Y-65223D01*
D02*
G37*
G36*
X139764D02*
X139111Y-65353D01*
X138558Y-65723D01*
X138188Y-66276D01*
X138058Y-66929D01*
X138188Y-67582D01*
X138558Y-68135D01*
X139111Y-68505D01*
X139764Y-68635D01*
X140417Y-68505D01*
X140970Y-68135D01*
X141340Y-67582D01*
X141470Y-66929D01*
X141340Y-66276D01*
X140970Y-65723D01*
X140417Y-65353D01*
X139764Y-65223D01*
D02*
G37*
G36*
X91536Y-63938D02*
X90767Y-64091D01*
X90116Y-64526D01*
X89681Y-65177D01*
X89528Y-65945D01*
X89681Y-66713D01*
X90116Y-67364D01*
X90767Y-67799D01*
X91536Y-67952D01*
X92304Y-67799D01*
X92955Y-67364D01*
X93390Y-66713D01*
X93543Y-65945D01*
X93390Y-65177D01*
X92955Y-64526D01*
X92304Y-64091D01*
X91536Y-63938D01*
D02*
G37*
G36*
X133858Y-60302D02*
X133205Y-60432D01*
X132652Y-60802D01*
X132282Y-61355D01*
X132152Y-62008D01*
X132282Y-62661D01*
X132652Y-63214D01*
X133205Y-63584D01*
X133858Y-63714D01*
X134511Y-63584D01*
X135065Y-63214D01*
X135434Y-62661D01*
X135564Y-62008D01*
X135434Y-61355D01*
X135065Y-60802D01*
X134511Y-60432D01*
X133858Y-60302D01*
D02*
G37*
G36*
X94488D02*
X93835Y-60432D01*
X93282Y-60802D01*
X92912Y-61355D01*
X92782Y-62008D01*
X92912Y-62661D01*
X93282Y-63214D01*
X93835Y-63584D01*
X94488Y-63714D01*
X95141Y-63584D01*
X95695Y-63214D01*
X96064Y-62661D01*
X96194Y-62008D01*
X96064Y-61355D01*
X95695Y-60802D01*
X95141Y-60432D01*
X94488Y-60302D01*
D02*
G37*
G36*
X23622Y-65223D02*
X22969Y-65353D01*
X22416Y-65723D01*
X22046Y-66276D01*
X21916Y-66929D01*
X22046Y-67582D01*
X22416Y-68135D01*
X22969Y-68505D01*
X23622Y-68635D01*
X24275Y-68505D01*
X24828Y-68135D01*
X25198Y-67582D01*
X25328Y-66929D01*
X25198Y-66276D01*
X24828Y-65723D01*
X24275Y-65353D01*
X23622Y-65223D01*
D02*
G37*
G36*
X116142Y-70144D02*
X115489Y-70274D01*
X114936Y-70644D01*
X114566Y-71197D01*
X114436Y-71850D01*
X114566Y-72503D01*
X114936Y-73057D01*
X115489Y-73427D01*
X116142Y-73556D01*
X116795Y-73427D01*
X117348Y-73057D01*
X117718Y-72503D01*
X117848Y-71850D01*
X117718Y-71197D01*
X117348Y-70644D01*
X116795Y-70274D01*
X116142Y-70144D01*
D02*
G37*
G36*
X89567Y-69843D02*
X88799Y-69996D01*
X88148Y-70431D01*
X87713Y-71082D01*
X87560Y-71850D01*
X87713Y-72619D01*
X88148Y-73270D01*
X88799Y-73705D01*
X89567Y-73857D01*
X90335Y-73705D01*
X90986Y-73270D01*
X91421Y-72619D01*
X91574Y-71850D01*
X91421Y-71082D01*
X90986Y-70431D01*
X90335Y-69996D01*
X89567Y-69843D01*
D02*
G37*
G36*
X-33465Y-68176D02*
X-34117Y-68306D01*
X-34671Y-68676D01*
X-35041Y-69229D01*
X-35171Y-69882D01*
X-35041Y-70535D01*
X-34671Y-71088D01*
X-34117Y-71458D01*
X-33465Y-71588D01*
X-32812Y-71458D01*
X-32258Y-71088D01*
X-31888Y-70535D01*
X-31759Y-69882D01*
X-31888Y-69229D01*
X-32258Y-68676D01*
X-32812Y-68306D01*
X-33465Y-68176D01*
D02*
G37*
G36*
X98425Y-66207D02*
X97772Y-66337D01*
X97219Y-66707D01*
X96849Y-67260D01*
X96719Y-67913D01*
X96849Y-68566D01*
X97219Y-69120D01*
X97772Y-69490D01*
X98425Y-69619D01*
X99078Y-69490D01*
X99632Y-69120D01*
X100001Y-68566D01*
X100131Y-67913D01*
X100001Y-67260D01*
X99632Y-66707D01*
X99078Y-66337D01*
X98425Y-66207D01*
D02*
G37*
G36*
X27559Y-67192D02*
X26906Y-67321D01*
X26353Y-67691D01*
X25983Y-68245D01*
X25853Y-68898D01*
X25983Y-69551D01*
X26353Y-70104D01*
X26906Y-70474D01*
X27559Y-70604D01*
X28212Y-70474D01*
X28765Y-70104D01*
X29135Y-69551D01*
X29265Y-68898D01*
X29135Y-68245D01*
X28765Y-67691D01*
X28212Y-67321D01*
X27559Y-67192D01*
D02*
G37*
G36*
X-5905Y-59017D02*
X-6673Y-59169D01*
X-7325Y-59604D01*
X-7760Y-60255D01*
X-7913Y-61024D01*
X-7760Y-61792D01*
X-7325Y-62443D01*
X-6673Y-62878D01*
X-5905Y-63031D01*
X-5137Y-62878D01*
X-4486Y-62443D01*
X-4051Y-61792D01*
X-3898Y-61024D01*
X-4051Y-60255D01*
X-4486Y-59604D01*
X-5137Y-59169D01*
X-5905Y-59017D01*
D02*
G37*
G36*
X13780Y-104593D02*
X13127Y-104723D01*
X12573Y-105093D01*
X12203Y-105646D01*
X12074Y-106299D01*
X12203Y-106952D01*
X12573Y-107506D01*
X13127Y-107875D01*
X13780Y-108005D01*
X14433Y-107875D01*
X14986Y-107506D01*
X15356Y-106952D01*
X15486Y-106299D01*
X15356Y-105646D01*
X14986Y-105093D01*
X14433Y-104723D01*
X13780Y-104593D01*
D02*
G37*
G36*
X164370Y-55381D02*
X163717Y-55510D01*
X163164Y-55880D01*
X162794Y-56434D01*
X162664Y-57087D01*
X162794Y-57740D01*
X163164Y-58293D01*
X163717Y-58663D01*
X164370Y-58793D01*
X165023Y-58663D01*
X165577Y-58293D01*
X165946Y-57740D01*
X166076Y-57087D01*
X165946Y-56434D01*
X165577Y-55880D01*
X165023Y-55510D01*
X164370Y-55381D01*
D02*
G37*
G36*
X48228Y-52127D02*
X47460Y-52280D01*
X46809Y-52715D01*
X46374Y-53366D01*
X46221Y-54134D01*
X46374Y-54902D01*
X46809Y-55553D01*
X47460Y-55988D01*
X48228Y-56141D01*
X48996Y-55988D01*
X49648Y-55553D01*
X50083Y-54902D01*
X50235Y-54134D01*
X50083Y-53366D01*
X49648Y-52715D01*
X48996Y-52280D01*
X48228Y-52127D01*
D02*
G37*
G36*
X-86614Y-51143D02*
X-87382Y-51295D01*
X-88033Y-51730D01*
X-88468Y-52381D01*
X-88621Y-53150D01*
X-88468Y-53918D01*
X-88033Y-54569D01*
X-87382Y-55004D01*
X-86614Y-55157D01*
X-85846Y-55004D01*
X-85195Y-54569D01*
X-84760Y-53918D01*
X-84607Y-53150D01*
X-84760Y-52381D01*
X-85195Y-51730D01*
X-85846Y-51295D01*
X-86614Y-51143D01*
D02*
G37*
G36*
X62008Y-52127D02*
X61240Y-52280D01*
X60589Y-52715D01*
X60154Y-53366D01*
X60001Y-54134D01*
X60154Y-54902D01*
X60589Y-55553D01*
X61240Y-55988D01*
X62008Y-56141D01*
X62776Y-55988D01*
X63427Y-55553D01*
X63862Y-54902D01*
X64015Y-54134D01*
X63862Y-53366D01*
X63427Y-52715D01*
X62776Y-52280D01*
X62008Y-52127D01*
D02*
G37*
G36*
X154528Y-55381D02*
X153875Y-55510D01*
X153321Y-55880D01*
X152952Y-56434D01*
X152822Y-57087D01*
X152952Y-57740D01*
X153321Y-58293D01*
X153875Y-58663D01*
X154528Y-58793D01*
X155181Y-58663D01*
X155734Y-58293D01*
X156104Y-57740D01*
X156234Y-57087D01*
X156104Y-56434D01*
X155734Y-55880D01*
X155181Y-55510D01*
X154528Y-55381D01*
D02*
G37*
G36*
X38386Y-57349D02*
X37733Y-57479D01*
X37180Y-57849D01*
X36810Y-58402D01*
X36680Y-59055D01*
X36810Y-59708D01*
X37180Y-60261D01*
X37733Y-60631D01*
X38386Y-60761D01*
X39039Y-60631D01*
X39592Y-60261D01*
X39962Y-59708D01*
X40092Y-59055D01*
X39962Y-58402D01*
X39592Y-57849D01*
X39039Y-57479D01*
X38386Y-57349D01*
D02*
G37*
G36*
X32480D02*
X31828Y-57479D01*
X31274Y-57849D01*
X30904Y-58402D01*
X30774Y-59055D01*
X30904Y-59708D01*
X31274Y-60261D01*
X31828Y-60631D01*
X32480Y-60761D01*
X33133Y-60631D01*
X33687Y-60261D01*
X34056Y-59708D01*
X34186Y-59055D01*
X34056Y-58402D01*
X33687Y-57849D01*
X33133Y-57479D01*
X32480Y-57349D01*
D02*
G37*
G36*
X-20669Y-55381D02*
X-21322Y-55510D01*
X-21876Y-55880D01*
X-22245Y-56434D01*
X-22375Y-57087D01*
X-22245Y-57740D01*
X-21876Y-58293D01*
X-21322Y-58663D01*
X-20669Y-58793D01*
X-20016Y-58663D01*
X-19463Y-58293D01*
X-19093Y-57740D01*
X-18963Y-57087D01*
X-19093Y-56434D01*
X-19463Y-55880D01*
X-20016Y-55510D01*
X-20669Y-55381D01*
D02*
G37*
G36*
X139764D02*
X139111Y-55510D01*
X138558Y-55880D01*
X138188Y-56434D01*
X138058Y-57087D01*
X138188Y-57740D01*
X138558Y-58293D01*
X139111Y-58663D01*
X139764Y-58793D01*
X140417Y-58663D01*
X140970Y-58293D01*
X141340Y-57740D01*
X141470Y-57087D01*
X141340Y-56434D01*
X140970Y-55880D01*
X140417Y-55510D01*
X139764Y-55381D01*
D02*
G37*
G36*
X125000D02*
X124347Y-55510D01*
X123794Y-55880D01*
X123424Y-56434D01*
X123294Y-57087D01*
X123424Y-57740D01*
X123794Y-58293D01*
X124347Y-58663D01*
X125000Y-58793D01*
X125653Y-58663D01*
X126206Y-58293D01*
X126576Y-57740D01*
X126706Y-57087D01*
X126576Y-56434D01*
X126206Y-55880D01*
X125653Y-55510D01*
X125000Y-55381D01*
D02*
G37*
G36*
X27559Y-71129D02*
X26906Y-71258D01*
X26353Y-71628D01*
X25983Y-72182D01*
X25853Y-72835D01*
X25983Y-73488D01*
X26353Y-74041D01*
X26906Y-74411D01*
X27559Y-74541D01*
X28212Y-74411D01*
X28765Y-74041D01*
X29135Y-73488D01*
X29265Y-72835D01*
X29135Y-72182D01*
X28765Y-71628D01*
X28212Y-71258D01*
X27559Y-71129D01*
D02*
G37*
G36*
X136811Y-75066D02*
X136158Y-75195D01*
X135605Y-75565D01*
X135235Y-76119D01*
X135105Y-76772D01*
X135235Y-77425D01*
X135605Y-77978D01*
X136158Y-78348D01*
X136811Y-78478D01*
X137464Y-78348D01*
X138017Y-77978D01*
X138387Y-77425D01*
X138517Y-76772D01*
X138387Y-76119D01*
X138017Y-75565D01*
X137464Y-75195D01*
X136811Y-75066D01*
D02*
G37*
G36*
X27559D02*
X26906Y-75195D01*
X26353Y-75565D01*
X25983Y-76119D01*
X25853Y-76772D01*
X25983Y-77425D01*
X26353Y-77978D01*
X26906Y-78348D01*
X27559Y-78478D01*
X28212Y-78348D01*
X28765Y-77978D01*
X29135Y-77425D01*
X29265Y-76772D01*
X29135Y-76119D01*
X28765Y-75565D01*
X28212Y-75195D01*
X27559Y-75066D01*
D02*
G37*
G36*
X154528D02*
X153875Y-75195D01*
X153321Y-75565D01*
X152952Y-76119D01*
X152822Y-76772D01*
X152952Y-77425D01*
X153321Y-77978D01*
X153875Y-78348D01*
X154528Y-78478D01*
X155181Y-78348D01*
X155734Y-77978D01*
X156104Y-77425D01*
X156234Y-76772D01*
X156104Y-76119D01*
X155734Y-75565D01*
X155181Y-75195D01*
X154528Y-75066D01*
D02*
G37*
G36*
X102362Y-74081D02*
X101709Y-74211D01*
X101156Y-74581D01*
X100786Y-75134D01*
X100656Y-75787D01*
X100786Y-76440D01*
X101156Y-76994D01*
X101709Y-77364D01*
X102362Y-77493D01*
X103015Y-77364D01*
X103569Y-76994D01*
X103938Y-76440D01*
X104068Y-75787D01*
X103938Y-75134D01*
X103569Y-74581D01*
X103015Y-74211D01*
X102362Y-74081D01*
D02*
G37*
G36*
X164370Y-75066D02*
X163717Y-75195D01*
X163164Y-75565D01*
X162794Y-76119D01*
X162664Y-76772D01*
X162794Y-77425D01*
X163164Y-77978D01*
X163717Y-78348D01*
X164370Y-78478D01*
X165023Y-78348D01*
X165577Y-77978D01*
X165946Y-77425D01*
X166076Y-76772D01*
X165946Y-76119D01*
X165577Y-75565D01*
X165023Y-75195D01*
X164370Y-75066D01*
D02*
G37*
G36*
X-20669D02*
X-21322Y-75195D01*
X-21876Y-75565D01*
X-22245Y-76119D01*
X-22375Y-76772D01*
X-22245Y-77425D01*
X-21876Y-77978D01*
X-21322Y-78348D01*
X-20669Y-78478D01*
X-20016Y-78348D01*
X-19463Y-77978D01*
X-19093Y-77425D01*
X-18963Y-76772D01*
X-19093Y-76119D01*
X-19463Y-75565D01*
X-20016Y-75195D01*
X-20669Y-75066D01*
D02*
G37*
G36*
X67323Y-78018D02*
X66670Y-78148D01*
X66116Y-78518D01*
X65747Y-79071D01*
X65617Y-79724D01*
X65747Y-80377D01*
X66116Y-80931D01*
X66670Y-81300D01*
X67323Y-81430D01*
X67976Y-81300D01*
X68529Y-80931D01*
X68899Y-80377D01*
X69029Y-79724D01*
X68899Y-79071D01*
X68529Y-78518D01*
X67976Y-78148D01*
X67323Y-78018D01*
D02*
G37*
G36*
X62992D02*
X62339Y-78148D01*
X61786Y-78518D01*
X61416Y-79071D01*
X61286Y-79724D01*
X61416Y-80377D01*
X61786Y-80931D01*
X62339Y-81300D01*
X62992Y-81430D01*
X63645Y-81300D01*
X64198Y-80931D01*
X64568Y-80377D01*
X64698Y-79724D01*
X64568Y-79071D01*
X64198Y-78518D01*
X63645Y-78148D01*
X62992Y-78018D01*
D02*
G37*
G36*
X84646Y-77034D02*
X83993Y-77164D01*
X83439Y-77534D01*
X83070Y-78087D01*
X82940Y-78740D01*
X83070Y-79393D01*
X83439Y-79947D01*
X83993Y-80316D01*
X84646Y-80446D01*
X85299Y-80316D01*
X85852Y-79947D01*
X86222Y-79393D01*
X86352Y-78740D01*
X86222Y-78087D01*
X85852Y-77534D01*
X85299Y-77164D01*
X84646Y-77034D01*
D02*
G37*
G36*
X23622Y-104593D02*
X22969Y-104723D01*
X22416Y-105093D01*
X22046Y-105646D01*
X21916Y-106299D01*
X22046Y-106952D01*
X22416Y-107506D01*
X22969Y-107875D01*
X23622Y-108005D01*
X24275Y-107875D01*
X24828Y-107506D01*
X25198Y-106952D01*
X25328Y-106299D01*
X25198Y-105646D01*
X24828Y-105093D01*
X24275Y-104723D01*
X23622Y-104593D01*
D02*
G37*
G36*
X-11811Y-75749D02*
X-12579Y-75902D01*
X-13230Y-76337D01*
X-13665Y-76988D01*
X-13818Y-77756D01*
X-13665Y-78524D01*
X-13230Y-79175D01*
X-12579Y-79610D01*
X-11811Y-79763D01*
X-11043Y-79610D01*
X-10392Y-79175D01*
X-9957Y-78524D01*
X-9804Y-77756D01*
X-9957Y-76988D01*
X-10392Y-76337D01*
X-11043Y-75902D01*
X-11811Y-75749D01*
D02*
G37*
G36*
X106299Y-74081D02*
X105646Y-74211D01*
X105093Y-74581D01*
X104723Y-75134D01*
X104593Y-75787D01*
X104723Y-76440D01*
X105093Y-76994D01*
X105646Y-77364D01*
X106299Y-77493D01*
X106952Y-77364D01*
X107506Y-76994D01*
X107875Y-76440D01*
X108005Y-75787D01*
X107875Y-75134D01*
X107506Y-74581D01*
X106952Y-74211D01*
X106299Y-74081D01*
D02*
G37*
G36*
X15748Y-72796D02*
X14980Y-72949D01*
X14329Y-73384D01*
X13894Y-74035D01*
X13741Y-74803D01*
X13894Y-75571D01*
X14329Y-76222D01*
X14980Y-76657D01*
X15748Y-76810D01*
X16516Y-76657D01*
X17167Y-76222D01*
X17602Y-75571D01*
X17755Y-74803D01*
X17602Y-74035D01*
X17167Y-73384D01*
X16516Y-72949D01*
X15748Y-72796D01*
D02*
G37*
G36*
X-15748D02*
X-16516Y-72949D01*
X-17167Y-73384D01*
X-17602Y-74035D01*
X-17755Y-74803D01*
X-17602Y-75571D01*
X-17167Y-76222D01*
X-16516Y-76657D01*
X-15748Y-76810D01*
X-14980Y-76657D01*
X-14329Y-76222D01*
X-13894Y-75571D01*
X-13741Y-74803D01*
X-13894Y-74035D01*
X-14329Y-73384D01*
X-14980Y-72949D01*
X-15748Y-72796D01*
D02*
G37*
G36*
X93504Y-73097D02*
X92851Y-73227D01*
X92298Y-73597D01*
X91928Y-74150D01*
X91798Y-74803D01*
X91928Y-75456D01*
X92298Y-76010D01*
X92851Y-76379D01*
X93504Y-76509D01*
X94157Y-76379D01*
X94710Y-76010D01*
X95080Y-75456D01*
X95210Y-74803D01*
X95080Y-74150D01*
X94710Y-73597D01*
X94157Y-73227D01*
X93504Y-73097D01*
D02*
G37*
G36*
X148622Y-72113D02*
X147969Y-72243D01*
X147416Y-72613D01*
X147046Y-73166D01*
X146916Y-73819D01*
X147046Y-74472D01*
X147416Y-75025D01*
X147969Y-75395D01*
X148622Y-75525D01*
X149275Y-75395D01*
X149829Y-75025D01*
X150198Y-74472D01*
X150328Y-73819D01*
X150198Y-73166D01*
X149829Y-72613D01*
X149275Y-72243D01*
X148622Y-72113D01*
D02*
G37*
G36*
X144685D02*
X144032Y-72243D01*
X143479Y-72613D01*
X143109Y-73166D01*
X142979Y-73819D01*
X143109Y-74472D01*
X143479Y-75025D01*
X144032Y-75395D01*
X144685Y-75525D01*
X145338Y-75395D01*
X145891Y-75025D01*
X146261Y-74472D01*
X146391Y-73819D01*
X146261Y-73166D01*
X145891Y-72613D01*
X145338Y-72243D01*
X144685Y-72113D01*
D02*
G37*
G36*
X67323Y-73688D02*
X66670Y-73817D01*
X66116Y-74187D01*
X65747Y-74741D01*
X65617Y-75394D01*
X65747Y-76047D01*
X66116Y-76600D01*
X66670Y-76970D01*
X67323Y-77100D01*
X67976Y-76970D01*
X68529Y-76600D01*
X68899Y-76047D01*
X69029Y-75394D01*
X68899Y-74741D01*
X68529Y-74187D01*
X67976Y-73817D01*
X67323Y-73688D01*
D02*
G37*
G36*
X125984Y-74081D02*
X125331Y-74211D01*
X124778Y-74581D01*
X124408Y-75134D01*
X124278Y-75787D01*
X124408Y-76440D01*
X124778Y-76994D01*
X125331Y-77364D01*
X125984Y-77493D01*
X126637Y-77364D01*
X127191Y-76994D01*
X127560Y-76440D01*
X127690Y-75787D01*
X127560Y-75134D01*
X127191Y-74581D01*
X126637Y-74211D01*
X125984Y-74081D01*
D02*
G37*
G36*
X116142D02*
X115489Y-74211D01*
X114936Y-74581D01*
X114566Y-75134D01*
X114436Y-75787D01*
X114566Y-76440D01*
X114936Y-76994D01*
X115489Y-77364D01*
X116142Y-77493D01*
X116795Y-77364D01*
X117348Y-76994D01*
X117718Y-76440D01*
X117848Y-75787D01*
X117718Y-75134D01*
X117348Y-74581D01*
X116795Y-74211D01*
X116142Y-74081D01*
D02*
G37*
G36*
X129921D02*
X129269Y-74211D01*
X128715Y-74581D01*
X128345Y-75134D01*
X128215Y-75787D01*
X128345Y-76440D01*
X128715Y-76994D01*
X129269Y-77364D01*
X129921Y-77493D01*
X130574Y-77364D01*
X131128Y-76994D01*
X131498Y-76440D01*
X131627Y-75787D01*
X131498Y-75134D01*
X131128Y-74581D01*
X130574Y-74211D01*
X129921Y-74081D01*
D02*
G37*
G36*
X62992Y-73688D02*
X62339Y-73817D01*
X61786Y-74187D01*
X61416Y-74741D01*
X61286Y-75394D01*
X61416Y-76047D01*
X61786Y-76600D01*
X62339Y-76970D01*
X62992Y-77100D01*
X63645Y-76970D01*
X64198Y-76600D01*
X64568Y-76047D01*
X64698Y-75394D01*
X64568Y-74741D01*
X64198Y-74187D01*
X63645Y-73817D01*
X62992Y-73688D01*
D02*
G37*
G36*
X58661D02*
X58008Y-73817D01*
X57455Y-74187D01*
X57085Y-74741D01*
X56955Y-75394D01*
X57085Y-76047D01*
X57455Y-76600D01*
X58008Y-76970D01*
X58661Y-77100D01*
X59314Y-76970D01*
X59868Y-76600D01*
X60237Y-76047D01*
X60367Y-75394D01*
X60237Y-74741D01*
X59868Y-74187D01*
X59314Y-73817D01*
X58661Y-73688D01*
D02*
G37*
G36*
X93504Y74541D02*
X92851Y74411D01*
X92298Y74041D01*
X91928Y73488D01*
X91798Y72835D01*
X91928Y72182D01*
X92298Y71628D01*
X92851Y71258D01*
X93504Y71129D01*
X94157Y71258D01*
X94710Y71628D01*
X95080Y72182D01*
X95210Y72835D01*
X95080Y73488D01*
X94710Y74041D01*
X94157Y74411D01*
X93504Y74541D01*
D02*
G37*
G36*
X154528Y72572D02*
X153875Y72442D01*
X153321Y72072D01*
X152952Y71519D01*
X152822Y70866D01*
X152952Y70213D01*
X153321Y69660D01*
X153875Y69290D01*
X154528Y69160D01*
X155181Y69290D01*
X155734Y69660D01*
X156104Y70213D01*
X156234Y70866D01*
X156104Y71519D01*
X155734Y72072D01*
X155181Y72442D01*
X154528Y72572D01*
D02*
G37*
G36*
X134843D02*
X134190Y72442D01*
X133636Y72072D01*
X133266Y71519D01*
X133137Y70866D01*
X133266Y70213D01*
X133636Y69660D01*
X134190Y69290D01*
X134843Y69160D01*
X135495Y69290D01*
X136049Y69660D01*
X136419Y70213D01*
X136549Y70866D01*
X136419Y71519D01*
X136049Y72072D01*
X135495Y72442D01*
X134843Y72572D01*
D02*
G37*
G36*
X46260Y74541D02*
X45607Y74411D01*
X45053Y74041D01*
X44684Y73488D01*
X44554Y72835D01*
X44684Y72182D01*
X45053Y71628D01*
X45607Y71258D01*
X46260Y71129D01*
X46913Y71258D01*
X47466Y71628D01*
X47836Y72182D01*
X47966Y72835D01*
X47836Y73488D01*
X47466Y74041D01*
X46913Y74411D01*
X46260Y74541D01*
D02*
G37*
G36*
X36417D02*
X35765Y74411D01*
X35211Y74041D01*
X34841Y73488D01*
X34711Y72835D01*
X34841Y72182D01*
X35211Y71628D01*
X35765Y71258D01*
X36417Y71129D01*
X37070Y71258D01*
X37624Y71628D01*
X37993Y72182D01*
X38123Y72835D01*
X37993Y73488D01*
X37624Y74041D01*
X37070Y74411D01*
X36417Y74541D01*
D02*
G37*
G36*
X26575D02*
X25922Y74411D01*
X25368Y74041D01*
X24999Y73488D01*
X24869Y72835D01*
X24999Y72182D01*
X25368Y71628D01*
X25922Y71258D01*
X26575Y71129D01*
X27228Y71258D01*
X27781Y71628D01*
X28151Y72182D01*
X28281Y72835D01*
X28151Y73488D01*
X27781Y74041D01*
X27228Y74411D01*
X26575Y74541D01*
D02*
G37*
G36*
X107283Y70604D02*
X106631Y70474D01*
X106077Y70104D01*
X105707Y69551D01*
X105578Y68898D01*
X105707Y68245D01*
X106077Y67691D01*
X106631Y67321D01*
X107283Y67192D01*
X107936Y67321D01*
X108490Y67691D01*
X108860Y68245D01*
X108990Y68898D01*
X108860Y69551D01*
X108490Y70104D01*
X107936Y70474D01*
X107283Y70604D01*
D02*
G37*
G36*
X93504D02*
X92851Y70474D01*
X92298Y70104D01*
X91928Y69551D01*
X91798Y68898D01*
X91928Y68245D01*
X92298Y67691D01*
X92851Y67321D01*
X93504Y67192D01*
X94157Y67321D01*
X94710Y67691D01*
X95080Y68245D01*
X95210Y68898D01*
X95080Y69551D01*
X94710Y70104D01*
X94157Y70474D01*
X93504Y70604D01*
D02*
G37*
G36*
X89567D02*
X88914Y70474D01*
X88361Y70104D01*
X87991Y69551D01*
X87861Y68898D01*
X87991Y68245D01*
X88361Y67691D01*
X88914Y67321D01*
X89567Y67192D01*
X90220Y67321D01*
X90773Y67691D01*
X91143Y68245D01*
X91273Y68898D01*
X91143Y69551D01*
X90773Y70104D01*
X90220Y70474D01*
X89567Y70604D01*
D02*
G37*
G36*
X9843Y71588D02*
X9190Y71458D01*
X8636Y71088D01*
X8266Y70535D01*
X8137Y69882D01*
X8266Y69229D01*
X8636Y68676D01*
X9190Y68306D01*
X9843Y68176D01*
X10496Y68306D01*
X11049Y68676D01*
X11419Y69229D01*
X11549Y69882D01*
X11419Y70535D01*
X11049Y71088D01*
X10496Y71458D01*
X9843Y71588D01*
D02*
G37*
G36*
X115158Y70604D02*
X114505Y70474D01*
X113951Y70104D01*
X113581Y69551D01*
X113452Y68898D01*
X113581Y68245D01*
X113951Y67691D01*
X114505Y67321D01*
X115158Y67192D01*
X115810Y67321D01*
X116364Y67691D01*
X116734Y68245D01*
X116864Y68898D01*
X116734Y69551D01*
X116364Y70104D01*
X115810Y70474D01*
X115158Y70604D01*
D02*
G37*
G36*
X111221D02*
X110568Y70474D01*
X110014Y70104D01*
X109644Y69551D01*
X109514Y68898D01*
X109644Y68245D01*
X110014Y67691D01*
X110568Y67321D01*
X111221Y67192D01*
X111873Y67321D01*
X112427Y67691D01*
X112797Y68245D01*
X112927Y68898D01*
X112797Y69551D01*
X112427Y70104D01*
X111873Y70474D01*
X111221Y70604D01*
D02*
G37*
G36*
X80709Y84383D02*
X80056Y84253D01*
X79502Y83884D01*
X79133Y83330D01*
X79003Y82677D01*
X79133Y82024D01*
X79502Y81471D01*
X80056Y81101D01*
X80709Y80971D01*
X81362Y81101D01*
X81915Y81471D01*
X82285Y82024D01*
X82415Y82677D01*
X82285Y83330D01*
X81915Y83884D01*
X81362Y84253D01*
X80709Y84383D01*
D02*
G37*
G36*
X164370Y82415D02*
X163717Y82285D01*
X163164Y81915D01*
X162794Y81362D01*
X162664Y80709D01*
X162794Y80056D01*
X163164Y79502D01*
X163717Y79132D01*
X164370Y79003D01*
X165023Y79132D01*
X165577Y79502D01*
X165946Y80056D01*
X166076Y80709D01*
X165946Y81362D01*
X165577Y81915D01*
X165023Y82285D01*
X164370Y82415D01*
D02*
G37*
G36*
X144685D02*
X144032Y82285D01*
X143479Y81915D01*
X143109Y81362D01*
X142979Y80709D01*
X143109Y80056D01*
X143479Y79502D01*
X144032Y79132D01*
X144685Y79003D01*
X145338Y79132D01*
X145891Y79502D01*
X146261Y80056D01*
X146391Y80709D01*
X146261Y81362D01*
X145891Y81915D01*
X145338Y82285D01*
X144685Y82415D01*
D02*
G37*
G36*
X-8858Y90289D02*
X-9511Y90159D01*
X-10064Y89789D01*
X-10434Y89236D01*
X-10564Y88583D01*
X-10434Y87930D01*
X-10064Y87376D01*
X-9511Y87006D01*
X-8858Y86877D01*
X-8205Y87006D01*
X-7652Y87376D01*
X-7282Y87930D01*
X-7152Y88583D01*
X-7282Y89236D01*
X-7652Y89789D01*
X-8205Y90159D01*
X-8858Y90289D01*
D02*
G37*
G36*
X31496Y90289D02*
X30843Y90159D01*
X30290Y89789D01*
X29920Y89236D01*
X29790Y88583D01*
X29920Y87930D01*
X30290Y87376D01*
X30843Y87006D01*
X31496Y86877D01*
X32149Y87006D01*
X32702Y87376D01*
X33072Y87930D01*
X33202Y88583D01*
X33072Y89236D01*
X32702Y89789D01*
X32149Y90159D01*
X31496Y90289D01*
D02*
G37*
G36*
X93504Y86352D02*
X92851Y86222D01*
X92298Y85852D01*
X91928Y85299D01*
X91798Y84646D01*
X91928Y83993D01*
X92298Y83439D01*
X92851Y83069D01*
X93504Y82940D01*
X94157Y83069D01*
X94710Y83439D01*
X95080Y83993D01*
X95210Y84646D01*
X95080Y85299D01*
X94710Y85852D01*
X94157Y86222D01*
X93504Y86352D01*
D02*
G37*
G36*
X82677Y75525D02*
X82024Y75395D01*
X81471Y75025D01*
X81101Y74472D01*
X80971Y73819D01*
X81101Y73166D01*
X81471Y72613D01*
X82024Y72243D01*
X82677Y72113D01*
X83330Y72243D01*
X83884Y72613D01*
X84253Y73166D01*
X84383Y73819D01*
X84253Y74472D01*
X83884Y75025D01*
X83330Y75395D01*
X82677Y75525D01*
D02*
G37*
G36*
X9843D02*
X9190Y75395D01*
X8636Y75025D01*
X8266Y74472D01*
X8137Y73819D01*
X8266Y73166D01*
X8636Y72613D01*
X9190Y72243D01*
X9843Y72113D01*
X10496Y72243D01*
X11049Y72613D01*
X11419Y73166D01*
X11549Y73819D01*
X11419Y74472D01*
X11049Y75025D01*
X10496Y75395D01*
X9843Y75525D01*
D02*
G37*
G36*
X65945Y74541D02*
X65292Y74411D01*
X64739Y74041D01*
X64369Y73488D01*
X64239Y72835D01*
X64369Y72182D01*
X64739Y71628D01*
X65292Y71258D01*
X65945Y71129D01*
X66598Y71258D01*
X67151Y71628D01*
X67521Y72182D01*
X67651Y72835D01*
X67521Y73488D01*
X67151Y74041D01*
X66598Y74411D01*
X65945Y74541D01*
D02*
G37*
G36*
X125000Y82415D02*
X124347Y82285D01*
X123794Y81915D01*
X123424Y81362D01*
X123294Y80709D01*
X123424Y80056D01*
X123794Y79502D01*
X124347Y79132D01*
X125000Y79003D01*
X125653Y79132D01*
X126206Y79502D01*
X126576Y80056D01*
X126706Y80709D01*
X126576Y81362D01*
X126206Y81915D01*
X125653Y82285D01*
X125000Y82415D01*
D02*
G37*
G36*
X93504D02*
X92851Y82285D01*
X92298Y81915D01*
X91928Y81362D01*
X91798Y80709D01*
X91928Y80056D01*
X92298Y79502D01*
X92851Y79132D01*
X93504Y79003D01*
X94157Y79132D01*
X94710Y79502D01*
X95080Y80056D01*
X95210Y80709D01*
X95080Y81362D01*
X94710Y81915D01*
X94157Y82285D01*
X93504Y82415D01*
D02*
G37*
G36*
Y78478D02*
X92851Y78348D01*
X92298Y77978D01*
X91928Y77425D01*
X91798Y76772D01*
X91928Y76119D01*
X92298Y75565D01*
X92851Y75195D01*
X93504Y75066D01*
X94157Y75195D01*
X94710Y75565D01*
X95080Y76119D01*
X95210Y76772D01*
X95080Y77425D01*
X94710Y77978D01*
X94157Y78348D01*
X93504Y78478D01*
D02*
G37*
G36*
X125000Y50919D02*
X124347Y50789D01*
X123794Y50419D01*
X123424Y49865D01*
X123294Y49213D01*
X123424Y48560D01*
X123794Y48006D01*
X124347Y47637D01*
X125000Y47507D01*
X125653Y47637D01*
X126206Y48006D01*
X126576Y48560D01*
X126706Y49213D01*
X126576Y49865D01*
X126206Y50419D01*
X125653Y50789D01*
X125000Y50919D01*
D02*
G37*
G36*
X115158D02*
X114505Y50789D01*
X113951Y50419D01*
X113581Y49865D01*
X113452Y49213D01*
X113581Y48560D01*
X113951Y48006D01*
X114505Y47637D01*
X115158Y47507D01*
X115810Y47637D01*
X116364Y48006D01*
X116734Y48560D01*
X116864Y49213D01*
X116734Y49865D01*
X116364Y50419D01*
X115810Y50789D01*
X115158Y50919D01*
D02*
G37*
G36*
X111221D02*
X110568Y50789D01*
X110014Y50419D01*
X109644Y49865D01*
X109514Y49213D01*
X109644Y48560D01*
X110014Y48006D01*
X110568Y47637D01*
X111221Y47507D01*
X111873Y47637D01*
X112427Y48006D01*
X112797Y48560D01*
X112927Y49213D01*
X112797Y49865D01*
X112427Y50419D01*
X111873Y50789D01*
X111221Y50919D01*
D02*
G37*
G36*
X-183071Y56824D02*
X-183724Y56694D01*
X-184277Y56324D01*
X-184647Y55771D01*
X-184777Y55118D01*
X-184647Y54465D01*
X-184277Y53912D01*
X-183724Y53542D01*
X-183071Y53412D01*
X-182418Y53542D01*
X-181865Y53912D01*
X-181495Y54465D01*
X-181365Y55118D01*
X-181495Y55771D01*
X-181865Y56324D01*
X-182418Y56694D01*
X-183071Y56824D01*
D02*
G37*
G36*
X154528Y52887D02*
X153875Y52757D01*
X153321Y52387D01*
X152952Y51834D01*
X152822Y51181D01*
X152952Y50528D01*
X153321Y49975D01*
X153875Y49605D01*
X154528Y49475D01*
X155181Y49605D01*
X155734Y49975D01*
X156104Y50528D01*
X156234Y51181D01*
X156104Y51834D01*
X155734Y52387D01*
X155181Y52757D01*
X154528Y52887D01*
D02*
G37*
G36*
X137795Y51903D02*
X137143Y51773D01*
X136589Y51403D01*
X136219Y50850D01*
X136089Y50197D01*
X136219Y49544D01*
X136589Y48990D01*
X137143Y48621D01*
X137795Y48491D01*
X138448Y48621D01*
X139002Y48990D01*
X139372Y49544D01*
X139501Y50197D01*
X139372Y50850D01*
X139002Y51403D01*
X138448Y51773D01*
X137795Y51903D01*
D02*
G37*
G36*
X-44291Y49934D02*
X-44944Y49804D01*
X-45498Y49435D01*
X-45867Y48881D01*
X-45997Y48228D01*
X-45867Y47576D01*
X-45498Y47022D01*
X-44944Y46652D01*
X-44291Y46522D01*
X-43638Y46652D01*
X-43085Y47022D01*
X-42715Y47576D01*
X-42585Y48228D01*
X-42715Y48881D01*
X-43085Y49435D01*
X-43638Y49804D01*
X-44291Y49934D01*
D02*
G37*
G36*
X133858Y47966D02*
X133205Y47836D01*
X132652Y47466D01*
X132282Y46913D01*
X132152Y46260D01*
X132282Y45607D01*
X132652Y45053D01*
X133205Y44684D01*
X133858Y44554D01*
X134511Y44684D01*
X135065Y45053D01*
X135434Y45607D01*
X135564Y46260D01*
X135434Y46913D01*
X135065Y47466D01*
X134511Y47836D01*
X133858Y47966D01*
D02*
G37*
G36*
X69882Y48267D02*
X69114Y48114D01*
X68463Y47679D01*
X68028Y47028D01*
X67875Y46260D01*
X68028Y45492D01*
X68463Y44841D01*
X69114Y44405D01*
X69882Y44253D01*
X70650Y44405D01*
X71301Y44841D01*
X71736Y45492D01*
X71889Y46260D01*
X71736Y47028D01*
X71301Y47679D01*
X70650Y48114D01*
X69882Y48267D01*
D02*
G37*
G36*
X107283Y50919D02*
X106631Y50789D01*
X106077Y50419D01*
X105707Y49865D01*
X105578Y49213D01*
X105707Y48560D01*
X106077Y48006D01*
X106631Y47637D01*
X107283Y47507D01*
X107936Y47637D01*
X108490Y48006D01*
X108860Y48560D01*
X108990Y49213D01*
X108860Y49865D01*
X108490Y50419D01*
X107936Y50789D01*
X107283Y50919D01*
D02*
G37*
G36*
X88583D02*
X87930Y50789D01*
X87376Y50419D01*
X87007Y49865D01*
X86877Y49213D01*
X87007Y48560D01*
X87376Y48006D01*
X87930Y47637D01*
X88583Y47507D01*
X89236Y47637D01*
X89789Y48006D01*
X90159Y48560D01*
X90289Y49213D01*
X90159Y49865D01*
X89789Y50419D01*
X89236Y50789D01*
X88583Y50919D01*
D02*
G37*
G36*
X76772D02*
X76119Y50789D01*
X75565Y50419D01*
X75196Y49865D01*
X75066Y49213D01*
X75196Y48560D01*
X75565Y48006D01*
X76119Y47637D01*
X76772Y47507D01*
X77425Y47637D01*
X77978Y48006D01*
X78348Y48560D01*
X78478Y49213D01*
X78348Y49865D01*
X77978Y50419D01*
X77425Y50789D01*
X76772Y50919D01*
D02*
G37*
G36*
X9843Y67651D02*
X9190Y67521D01*
X8636Y67151D01*
X8266Y66598D01*
X8137Y65945D01*
X8266Y65292D01*
X8636Y64739D01*
X9190Y64369D01*
X9843Y64239D01*
X10496Y64369D01*
X11049Y64739D01*
X11419Y65292D01*
X11549Y65945D01*
X11419Y66598D01*
X11049Y67151D01*
X10496Y67521D01*
X9843Y67651D01*
D02*
G37*
G36*
X17717Y63714D02*
X17064Y63584D01*
X16510Y63214D01*
X16140Y62661D01*
X16011Y62008D01*
X16140Y61355D01*
X16510Y60802D01*
X17064Y60432D01*
X17717Y60302D01*
X18370Y60432D01*
X18923Y60802D01*
X19293Y61355D01*
X19423Y62008D01*
X19293Y62661D01*
X18923Y63214D01*
X18370Y63584D01*
X17717Y63714D01*
D02*
G37*
G36*
X13780D02*
X13127Y63584D01*
X12573Y63214D01*
X12203Y62661D01*
X12074Y62008D01*
X12203Y61355D01*
X12573Y60802D01*
X13127Y60432D01*
X13780Y60302D01*
X14433Y60432D01*
X14986Y60802D01*
X15356Y61355D01*
X15486Y62008D01*
X15356Y62661D01*
X14986Y63214D01*
X14433Y63584D01*
X13780Y63714D01*
D02*
G37*
G36*
X-63976Y69619D02*
X-64629Y69490D01*
X-65183Y69120D01*
X-65552Y68566D01*
X-65682Y67913D01*
X-65552Y67260D01*
X-65183Y66707D01*
X-64629Y66337D01*
X-63976Y66207D01*
X-63323Y66337D01*
X-62770Y66707D01*
X-62400Y67260D01*
X-62270Y67913D01*
X-62400Y68566D01*
X-62770Y69120D01*
X-63323Y69490D01*
X-63976Y69619D01*
D02*
G37*
G36*
X-984Y69920D02*
X-1752Y69768D01*
X-2403Y69333D01*
X-2839Y68682D01*
X-2991Y67913D01*
X-2839Y67145D01*
X-2403Y66494D01*
X-1752Y66059D01*
X-984Y65906D01*
X-216Y66059D01*
X435Y66494D01*
X870Y67145D01*
X1023Y67913D01*
X870Y68682D01*
X435Y69333D01*
X-216Y69768D01*
X-984Y69920D01*
D02*
G37*
G36*
X13780Y67651D02*
X13127Y67521D01*
X12573Y67151D01*
X12203Y66598D01*
X12074Y65945D01*
X12203Y65292D01*
X12573Y64739D01*
X13127Y64369D01*
X13780Y64239D01*
X14433Y64369D01*
X14986Y64739D01*
X15356Y65292D01*
X15486Y65945D01*
X15356Y66598D01*
X14986Y67151D01*
X14433Y67521D01*
X13780Y67651D01*
D02*
G37*
G36*
X115158Y56824D02*
X114505Y56694D01*
X113951Y56324D01*
X113581Y55771D01*
X113452Y55118D01*
X113581Y54465D01*
X113951Y53912D01*
X114505Y53542D01*
X115158Y53412D01*
X115810Y53542D01*
X116364Y53912D01*
X116734Y54465D01*
X116864Y55118D01*
X116734Y55771D01*
X116364Y56324D01*
X115810Y56694D01*
X115158Y56824D01*
D02*
G37*
G36*
X93504D02*
X92851Y56694D01*
X92298Y56324D01*
X91928Y55771D01*
X91798Y55118D01*
X91928Y54465D01*
X92298Y53912D01*
X92851Y53542D01*
X93504Y53412D01*
X94157Y53542D01*
X94710Y53912D01*
X95080Y54465D01*
X95210Y55118D01*
X95080Y55771D01*
X94710Y56324D01*
X94157Y56694D01*
X93504Y56824D01*
D02*
G37*
G36*
X76772D02*
X76119Y56694D01*
X75565Y56324D01*
X75196Y55771D01*
X75066Y55118D01*
X75196Y54465D01*
X75565Y53912D01*
X76119Y53542D01*
X76772Y53412D01*
X77425Y53542D01*
X77978Y53912D01*
X78348Y54465D01*
X78478Y55118D01*
X78348Y55771D01*
X77978Y56324D01*
X77425Y56694D01*
X76772Y56824D01*
D02*
G37*
G36*
X164370Y62730D02*
X163717Y62600D01*
X163164Y62230D01*
X162794Y61677D01*
X162664Y61024D01*
X162794Y60371D01*
X163164Y59817D01*
X163717Y59447D01*
X164370Y59318D01*
X165023Y59447D01*
X165577Y59817D01*
X165946Y60371D01*
X166076Y61024D01*
X165946Y61677D01*
X165577Y62230D01*
X165023Y62600D01*
X164370Y62730D01*
D02*
G37*
G36*
X132874Y56824D02*
X132221Y56694D01*
X131668Y56324D01*
X131298Y55771D01*
X131168Y55118D01*
X131298Y54465D01*
X131668Y53912D01*
X132221Y53542D01*
X132874Y53412D01*
X133527Y53542D01*
X134080Y53912D01*
X134450Y54465D01*
X134580Y55118D01*
X134450Y55771D01*
X134080Y56324D01*
X133527Y56694D01*
X132874Y56824D01*
D02*
G37*
G36*
X125000D02*
X124347Y56694D01*
X123794Y56324D01*
X123424Y55771D01*
X123294Y55118D01*
X123424Y54465D01*
X123794Y53912D01*
X124347Y53542D01*
X125000Y53412D01*
X125653Y53542D01*
X126206Y53912D01*
X126576Y54465D01*
X126706Y55118D01*
X126576Y55771D01*
X126206Y56324D01*
X125653Y56694D01*
X125000Y56824D01*
D02*
G37*
G36*
X7874Y90289D02*
X7221Y90159D01*
X6668Y89789D01*
X6298Y89236D01*
X6168Y88583D01*
X6298Y87930D01*
X6668Y87376D01*
X7221Y87006D01*
X7874Y86877D01*
X8527Y87006D01*
X9080Y87376D01*
X9450Y87930D01*
X9580Y88583D01*
X9450Y89236D01*
X9080Y89789D01*
X8527Y90159D01*
X7874Y90289D01*
D02*
G37*
G36*
X-22638Y133596D02*
X-23291Y133466D01*
X-23844Y133096D01*
X-24214Y132543D01*
X-24344Y131890D01*
X-24214Y131237D01*
X-23844Y130683D01*
X-23291Y130314D01*
X-22638Y130184D01*
X-21985Y130314D01*
X-21431Y130683D01*
X-21062Y131237D01*
X-20932Y131890D01*
X-21062Y132543D01*
X-21431Y133096D01*
X-21985Y133466D01*
X-22638Y133596D01*
D02*
G37*
G36*
X164370Y131627D02*
X163717Y131497D01*
X163164Y131128D01*
X162794Y130574D01*
X162664Y129921D01*
X162794Y129268D01*
X163164Y128715D01*
X163717Y128345D01*
X164370Y128215D01*
X165023Y128345D01*
X165577Y128715D01*
X165946Y129268D01*
X166076Y129921D01*
X165946Y130574D01*
X165577Y131128D01*
X165023Y131497D01*
X164370Y131627D01*
D02*
G37*
G36*
X92677Y127194D02*
X91717Y127003D01*
X90903Y126459D01*
X90455Y125788D01*
X90390Y125768D01*
X89964D01*
X89899Y125788D01*
X89451Y126459D01*
X88637Y127003D01*
X87677Y127194D01*
X86717Y127003D01*
X85903Y126459D01*
X85455Y125788D01*
X85390Y125768D01*
X84964D01*
X84899Y125788D01*
X84451Y126459D01*
X83637Y127003D01*
X82677Y127194D01*
X81717Y127003D01*
X80903Y126459D01*
X80455Y125788D01*
X80390Y125768D01*
X79964D01*
X79899Y125788D01*
X79451Y126459D01*
X78637Y127003D01*
X77677Y127194D01*
X76717Y127003D01*
X75903Y126459D01*
X75455Y125788D01*
X75390Y125768D01*
X74964D01*
X74899Y125788D01*
X74451Y126459D01*
X73637Y127003D01*
X72677Y127194D01*
X71717Y127003D01*
X70903Y126459D01*
X70359Y125645D01*
X70168Y124685D01*
X70359Y123725D01*
X70903Y122911D01*
X71574Y122463D01*
X71594Y122398D01*
Y121972D01*
X71574Y121907D01*
X70903Y121459D01*
X70359Y120645D01*
X70168Y119685D01*
X70359Y118725D01*
X70903Y117911D01*
X71717Y117367D01*
X72677Y117176D01*
X73637Y117367D01*
X74451Y117911D01*
X74899Y118582D01*
X74964Y118602D01*
X75390D01*
X75455Y118582D01*
X75903Y117911D01*
X76717Y117367D01*
X77677Y117176D01*
X78637Y117367D01*
X79451Y117911D01*
X79899Y118582D01*
X79964Y118602D01*
X80390D01*
X80455Y118582D01*
X80903Y117911D01*
X81717Y117367D01*
X82677Y117176D01*
X83637Y117367D01*
X84451Y117911D01*
X84899Y118582D01*
X84964Y118602D01*
X85390D01*
X85455Y118582D01*
X85903Y117911D01*
X86717Y117367D01*
X87677Y117176D01*
X88637Y117367D01*
X89451Y117911D01*
X89899Y118582D01*
X89964Y118602D01*
X90390D01*
X90455Y118582D01*
X90903Y117911D01*
X91717Y117367D01*
X92677Y117176D01*
X93637Y117367D01*
X94451Y117911D01*
X94995Y118725D01*
X95186Y119685D01*
X94995Y120645D01*
X94451Y121459D01*
X93780Y121907D01*
X93760Y121972D01*
Y122398D01*
X93780Y122463D01*
X94451Y122911D01*
X94995Y123725D01*
X95186Y124685D01*
X94995Y125645D01*
X94451Y126459D01*
X93637Y127003D01*
X92677Y127194D01*
D02*
G37*
G36*
X36417Y138517D02*
X35764Y138387D01*
X35211Y138017D01*
X34841Y137464D01*
X34711Y136811D01*
X34841Y136158D01*
X35211Y135605D01*
X35764Y135235D01*
X36417Y135105D01*
X37070Y135235D01*
X37624Y135605D01*
X37993Y136158D01*
X38123Y136811D01*
X37993Y137464D01*
X37624Y138017D01*
X37070Y138387D01*
X36417Y138517D01*
D02*
G37*
G36*
X16732D02*
X16079Y138387D01*
X15526Y138017D01*
X15156Y137464D01*
X15026Y136811D01*
X15156Y136158D01*
X15526Y135605D01*
X16079Y135235D01*
X16732Y135105D01*
X17385Y135235D01*
X17939Y135605D01*
X18308Y136158D01*
X18438Y136811D01*
X18308Y137464D01*
X17939Y138017D01*
X17385Y138387D01*
X16732Y138517D01*
D02*
G37*
G36*
X181102Y137342D02*
X180334Y137189D01*
X179683Y136754D01*
X179248Y136103D01*
X179095Y135335D01*
X179248Y134567D01*
X179683Y133915D01*
X180334Y133480D01*
X181102Y133328D01*
X181870Y133480D01*
X182522Y133915D01*
X182957Y134567D01*
X183109Y135335D01*
X182957Y136103D01*
X182522Y136754D01*
X181870Y137189D01*
X181102Y137342D01*
D02*
G37*
G36*
X16732Y123753D02*
X16079Y123623D01*
X15526Y123254D01*
X15156Y122700D01*
X15026Y122047D01*
X15156Y121394D01*
X15526Y120841D01*
X16079Y120471D01*
X16732Y120341D01*
X17385Y120471D01*
X17939Y120841D01*
X18308Y121394D01*
X18438Y122047D01*
X18308Y122700D01*
X17939Y123254D01*
X17385Y123623D01*
X16732Y123753D01*
D02*
G37*
G36*
X-32480D02*
X-33133Y123623D01*
X-33687Y123254D01*
X-34056Y122700D01*
X-34186Y122047D01*
X-34056Y121394D01*
X-33687Y120841D01*
X-33133Y120471D01*
X-32480Y120341D01*
X-31827Y120471D01*
X-31274Y120841D01*
X-30904Y121394D01*
X-30774Y122047D01*
X-30904Y122700D01*
X-31274Y123254D01*
X-31827Y123623D01*
X-32480Y123753D01*
D02*
G37*
G36*
X193898Y121785D02*
X193245Y121655D01*
X192691Y121285D01*
X192322Y120732D01*
X192192Y120079D01*
X192322Y119426D01*
X192691Y118872D01*
X193245Y118503D01*
X193898Y118373D01*
X194551Y118503D01*
X195104Y118872D01*
X195474Y119426D01*
X195604Y120079D01*
X195474Y120732D01*
X195104Y121285D01*
X194551Y121655D01*
X193898Y121785D01*
D02*
G37*
G36*
X123032Y123753D02*
X122379Y123623D01*
X121825Y123254D01*
X121455Y122700D01*
X121326Y122047D01*
X121455Y121394D01*
X121825Y120841D01*
X122379Y120471D01*
X123032Y120341D01*
X123684Y120471D01*
X124238Y120841D01*
X124608Y121394D01*
X124738Y122047D01*
X124608Y122700D01*
X124238Y123254D01*
X123684Y123623D01*
X123032Y123753D01*
D02*
G37*
G36*
X56102D02*
X55449Y123623D01*
X54896Y123254D01*
X54526Y122700D01*
X54396Y122047D01*
X54526Y121394D01*
X54896Y120841D01*
X55449Y120471D01*
X56102Y120341D01*
X56755Y120471D01*
X57309Y120841D01*
X57679Y121394D01*
X57808Y122047D01*
X57679Y122700D01*
X57309Y123254D01*
X56755Y123623D01*
X56102Y123753D01*
D02*
G37*
G36*
X36417D02*
X35765Y123623D01*
X35211Y123254D01*
X34841Y122700D01*
X34711Y122047D01*
X34841Y121394D01*
X35211Y120841D01*
X35765Y120471D01*
X36417Y120341D01*
X37070Y120471D01*
X37624Y120841D01*
X37993Y121394D01*
X38123Y122047D01*
X37993Y122700D01*
X37624Y123254D01*
X37070Y123623D01*
X36417Y123753D01*
D02*
G37*
G36*
X65945Y148360D02*
X65292Y148230D01*
X64739Y147860D01*
X64369Y147306D01*
X64239Y146653D01*
X64369Y146001D01*
X64739Y145447D01*
X65292Y145077D01*
X65945Y144948D01*
X66598Y145077D01*
X67151Y145447D01*
X67521Y146001D01*
X67651Y146653D01*
X67521Y147306D01*
X67151Y147860D01*
X66598Y148230D01*
X65945Y148360D01*
D02*
G37*
G36*
X46260D02*
X45607Y148230D01*
X45054Y147860D01*
X44684Y147306D01*
X44554Y146653D01*
X44684Y146001D01*
X45054Y145447D01*
X45607Y145077D01*
X46260Y144948D01*
X46913Y145077D01*
X47466Y145447D01*
X47836Y146001D01*
X47966Y146653D01*
X47836Y147306D01*
X47466Y147860D01*
X46913Y148230D01*
X46260Y148360D01*
D02*
G37*
G36*
X26575D02*
X25922Y148230D01*
X25368Y147860D01*
X24999Y147306D01*
X24869Y146653D01*
X24999Y146001D01*
X25368Y145447D01*
X25922Y145077D01*
X26575Y144948D01*
X27228Y145077D01*
X27781Y145447D01*
X28151Y146001D01*
X28281Y146653D01*
X28151Y147306D01*
X27781Y147860D01*
X27228Y148230D01*
X26575Y148360D01*
D02*
G37*
G36*
X125000D02*
X124347Y148230D01*
X123794Y147860D01*
X123424Y147306D01*
X123294Y146653D01*
X123424Y146001D01*
X123794Y145447D01*
X124347Y145077D01*
X125000Y144948D01*
X125653Y145077D01*
X126206Y145447D01*
X126576Y146001D01*
X126706Y146653D01*
X126576Y147306D01*
X126206Y147860D01*
X125653Y148230D01*
X125000Y148360D01*
D02*
G37*
G36*
X105315D02*
X104662Y148230D01*
X104109Y147860D01*
X103739Y147306D01*
X103609Y146653D01*
X103739Y146001D01*
X104109Y145447D01*
X104662Y145077D01*
X105315Y144948D01*
X105968Y145077D01*
X106521Y145447D01*
X106891Y146001D01*
X107021Y146653D01*
X106891Y147306D01*
X106521Y147860D01*
X105968Y148230D01*
X105315Y148360D01*
D02*
G37*
G36*
X85630D02*
X84977Y148230D01*
X84424Y147860D01*
X84054Y147306D01*
X83924Y146653D01*
X84054Y146001D01*
X84424Y145447D01*
X84977Y145077D01*
X85630Y144948D01*
X86283Y145077D01*
X86836Y145447D01*
X87206Y146001D01*
X87336Y146653D01*
X87206Y147306D01*
X86836Y147860D01*
X86283Y148230D01*
X85630Y148360D01*
D02*
G37*
G36*
X95472Y138517D02*
X94820Y138387D01*
X94266Y138017D01*
X93896Y137464D01*
X93766Y136811D01*
X93896Y136158D01*
X94266Y135605D01*
X94820Y135235D01*
X95472Y135105D01*
X96125Y135235D01*
X96679Y135605D01*
X97049Y136158D01*
X97178Y136811D01*
X97049Y137464D01*
X96679Y138017D01*
X96125Y138387D01*
X95472Y138517D01*
D02*
G37*
G36*
X75787D02*
X75134Y138387D01*
X74581Y138017D01*
X74211Y137464D01*
X74081Y136811D01*
X74211Y136158D01*
X74581Y135605D01*
X75134Y135235D01*
X75787Y135105D01*
X76440Y135235D01*
X76994Y135605D01*
X77364Y136158D01*
X77493Y136811D01*
X77364Y137464D01*
X76994Y138017D01*
X76440Y138387D01*
X75787Y138517D01*
D02*
G37*
G36*
X56102D02*
X55449Y138387D01*
X54896Y138017D01*
X54526Y137464D01*
X54396Y136811D01*
X54526Y136158D01*
X54896Y135605D01*
X55449Y135235D01*
X56102Y135105D01*
X56755Y135235D01*
X57309Y135605D01*
X57679Y136158D01*
X57808Y136811D01*
X57679Y137464D01*
X57309Y138017D01*
X56755Y138387D01*
X56102Y138517D01*
D02*
G37*
G36*
X6890Y148360D02*
X6237Y148230D01*
X5683Y147860D01*
X5314Y147306D01*
X5184Y146653D01*
X5314Y146001D01*
X5683Y145447D01*
X6237Y145077D01*
X6890Y144948D01*
X7543Y145077D01*
X8096Y145447D01*
X8466Y146001D01*
X8596Y146653D01*
X8466Y147306D01*
X8096Y147860D01*
X7543Y148230D01*
X6890Y148360D01*
D02*
G37*
G36*
X181102Y148169D02*
X180334Y148016D01*
X179683Y147581D01*
X179248Y146930D01*
X179095Y146161D01*
X179248Y145393D01*
X179683Y144742D01*
X180334Y144307D01*
X181102Y144154D01*
X181870Y144307D01*
X182522Y144742D01*
X182957Y145393D01*
X183109Y146161D01*
X182957Y146930D01*
X182522Y147581D01*
X181870Y148016D01*
X181102Y148169D01*
D02*
G37*
G36*
X115157Y138517D02*
X114505Y138387D01*
X113951Y138017D01*
X113581Y137464D01*
X113452Y136811D01*
X113581Y136158D01*
X113951Y135605D01*
X114505Y135235D01*
X115157Y135105D01*
X115810Y135235D01*
X116364Y135605D01*
X116734Y136158D01*
X116864Y136811D01*
X116734Y137464D01*
X116364Y138017D01*
X115810Y138387D01*
X115157Y138517D01*
D02*
G37*
G36*
X93504Y94226D02*
X92851Y94096D01*
X92298Y93726D01*
X91928Y93173D01*
X91798Y92520D01*
X91928Y91867D01*
X92298Y91313D01*
X92851Y90943D01*
X93504Y90814D01*
X94157Y90943D01*
X94710Y91313D01*
X95080Y91867D01*
X95210Y92520D01*
X95080Y93173D01*
X94710Y93726D01*
X94157Y94096D01*
X93504Y94226D01*
D02*
G37*
G36*
X65945D02*
X65292Y94096D01*
X64739Y93726D01*
X64369Y93173D01*
X64239Y92520D01*
X64369Y91867D01*
X64739Y91313D01*
X65292Y90943D01*
X65945Y90814D01*
X66598Y90943D01*
X67151Y91313D01*
X67521Y91867D01*
X67651Y92520D01*
X67521Y93173D01*
X67151Y93726D01*
X66598Y94096D01*
X65945Y94226D01*
D02*
G37*
G36*
X10827Y93241D02*
X10174Y93112D01*
X9621Y92742D01*
X9251Y92188D01*
X9121Y91535D01*
X9251Y90883D01*
X9621Y90329D01*
X10174Y89959D01*
X10827Y89829D01*
X11480Y89959D01*
X12033Y90329D01*
X12403Y90883D01*
X12533Y91535D01*
X12403Y92188D01*
X12033Y92742D01*
X11480Y93112D01*
X10827Y93241D01*
D02*
G37*
G36*
X13780Y101417D02*
X13012Y101264D01*
X12360Y100829D01*
X11925Y100178D01*
X11772Y99410D01*
X11925Y98641D01*
X12360Y97990D01*
X13012Y97555D01*
X13780Y97402D01*
X14548Y97555D01*
X15199Y97990D01*
X15634Y98641D01*
X15787Y99410D01*
X15634Y100178D01*
X15199Y100829D01*
X14548Y101264D01*
X13780Y101417D01*
D02*
G37*
G36*
X93504Y98163D02*
X92851Y98033D01*
X92298Y97663D01*
X91928Y97110D01*
X91798Y96457D01*
X91928Y95804D01*
X92298Y95250D01*
X92851Y94880D01*
X93504Y94751D01*
X94157Y94880D01*
X94710Y95250D01*
X95080Y95804D01*
X95210Y96457D01*
X95080Y97110D01*
X94710Y97663D01*
X94157Y98033D01*
X93504Y98163D01*
D02*
G37*
G36*
X-8858Y96194D02*
X-9511Y96064D01*
X-10064Y95695D01*
X-10434Y95141D01*
X-10564Y94488D01*
X-10434Y93835D01*
X-10064Y93282D01*
X-9511Y92912D01*
X-8858Y92782D01*
X-8205Y92912D01*
X-7652Y93282D01*
X-7282Y93835D01*
X-7152Y94488D01*
X-7282Y95141D01*
X-7652Y95695D01*
X-8205Y96064D01*
X-8858Y96194D01*
D02*
G37*
G36*
X115158Y92257D02*
X114505Y92127D01*
X113951Y91758D01*
X113581Y91204D01*
X113452Y90551D01*
X113581Y89898D01*
X113951Y89345D01*
X114505Y88975D01*
X115158Y88845D01*
X115810Y88975D01*
X116364Y89345D01*
X116734Y89898D01*
X116864Y90551D01*
X116734Y91204D01*
X116364Y91758D01*
X115810Y92127D01*
X115158Y92257D01*
D02*
G37*
G36*
X93504Y90289D02*
X92851Y90159D01*
X92298Y89789D01*
X91928Y89236D01*
X91798Y88583D01*
X91928Y87930D01*
X92298Y87376D01*
X92851Y87006D01*
X93504Y86877D01*
X94157Y87006D01*
X94710Y87376D01*
X95080Y87930D01*
X95210Y88583D01*
X95080Y89236D01*
X94710Y89789D01*
X94157Y90159D01*
X93504Y90289D01*
D02*
G37*
G36*
X19685D02*
X19032Y90159D01*
X18479Y89789D01*
X18109Y89236D01*
X17979Y88583D01*
X18109Y87930D01*
X18479Y87376D01*
X19032Y87006D01*
X19685Y86877D01*
X20338Y87006D01*
X20891Y87376D01*
X21261Y87930D01*
X21391Y88583D01*
X21261Y89236D01*
X20891Y89789D01*
X20338Y90159D01*
X19685Y90289D01*
D02*
G37*
G36*
X-5905Y93241D02*
X-6558Y93112D01*
X-7112Y92742D01*
X-7482Y92188D01*
X-7611Y91535D01*
X-7482Y90883D01*
X-7112Y90329D01*
X-6558Y89959D01*
X-5905Y89829D01*
X-5253Y89959D01*
X-4699Y90329D01*
X-4329Y90883D01*
X-4199Y91535D01*
X-4329Y92188D01*
X-4699Y92742D01*
X-5253Y93112D01*
X-5905Y93241D01*
D02*
G37*
G36*
X154528Y92257D02*
X153875Y92127D01*
X153321Y91758D01*
X152952Y91204D01*
X152822Y90551D01*
X152952Y89898D01*
X153321Y89345D01*
X153875Y88975D01*
X154528Y88845D01*
X155181Y88975D01*
X155734Y89345D01*
X156104Y89898D01*
X156234Y90551D01*
X156104Y91204D01*
X155734Y91758D01*
X155181Y92127D01*
X154528Y92257D01*
D02*
G37*
G36*
X134843D02*
X134190Y92127D01*
X133636Y91758D01*
X133266Y91204D01*
X133137Y90551D01*
X133266Y89898D01*
X133636Y89345D01*
X134190Y88975D01*
X134843Y88845D01*
X135495Y88975D01*
X136049Y89345D01*
X136419Y89898D01*
X136549Y90551D01*
X136419Y91204D01*
X136049Y91758D01*
X135495Y92127D01*
X134843Y92257D01*
D02*
G37*
G36*
X-42323Y113911D02*
X-42976Y113781D01*
X-43529Y113411D01*
X-43899Y112858D01*
X-44029Y112205D01*
X-43899Y111552D01*
X-43529Y110998D01*
X-42976Y110629D01*
X-42323Y110499D01*
X-41670Y110629D01*
X-41116Y110998D01*
X-40747Y111552D01*
X-40617Y112205D01*
X-40747Y112858D01*
X-41116Y113411D01*
X-41670Y113781D01*
X-42323Y113911D01*
D02*
G37*
G36*
X154528Y111942D02*
X153875Y111812D01*
X153321Y111443D01*
X152952Y110889D01*
X152822Y110236D01*
X152952Y109583D01*
X153321Y109030D01*
X153875Y108660D01*
X154528Y108530D01*
X155181Y108660D01*
X155734Y109030D01*
X156104Y109583D01*
X156234Y110236D01*
X156104Y110889D01*
X155734Y111443D01*
X155181Y111812D01*
X154528Y111942D01*
D02*
G37*
G36*
X134843D02*
X134190Y111812D01*
X133636Y111443D01*
X133266Y110889D01*
X133137Y110236D01*
X133266Y109583D01*
X133636Y109030D01*
X134190Y108660D01*
X134843Y108530D01*
X135495Y108660D01*
X136049Y109030D01*
X136419Y109583D01*
X136549Y110236D01*
X136419Y110889D01*
X136049Y111443D01*
X135495Y111812D01*
X134843Y111942D01*
D02*
G37*
G36*
X-10827Y117848D02*
X-11480Y117718D01*
X-12033Y117348D01*
X-12403Y116795D01*
X-12533Y116142D01*
X-12403Y115489D01*
X-12033Y114935D01*
X-11480Y114566D01*
X-10827Y114436D01*
X-10174Y114566D01*
X-9621Y114935D01*
X-9251Y115489D01*
X-9121Y116142D01*
X-9251Y116795D01*
X-9621Y117348D01*
X-10174Y117718D01*
X-10827Y117848D01*
D02*
G37*
G36*
X26575Y113911D02*
X25922Y113781D01*
X25368Y113411D01*
X24999Y112858D01*
X24869Y112205D01*
X24999Y111552D01*
X25368Y110998D01*
X25922Y110629D01*
X26575Y110499D01*
X27228Y110629D01*
X27781Y110998D01*
X28151Y111552D01*
X28281Y112205D01*
X28151Y112858D01*
X27781Y113411D01*
X27228Y113781D01*
X26575Y113911D01*
D02*
G37*
G36*
X6890D02*
X6237Y113781D01*
X5683Y113411D01*
X5314Y112858D01*
X5184Y112205D01*
X5314Y111552D01*
X5683Y110998D01*
X6237Y110629D01*
X6890Y110499D01*
X7543Y110629D01*
X8096Y110998D01*
X8466Y111552D01*
X8596Y112205D01*
X8466Y112858D01*
X8096Y113411D01*
X7543Y113781D01*
X6890Y113911D01*
D02*
G37*
G36*
X125000Y102100D02*
X124347Y101970D01*
X123794Y101600D01*
X123424Y101047D01*
X123294Y100394D01*
X123424Y99741D01*
X123794Y99187D01*
X124347Y98818D01*
X125000Y98688D01*
X125653Y98818D01*
X126206Y99187D01*
X126576Y99741D01*
X126706Y100394D01*
X126576Y101047D01*
X126206Y101600D01*
X125653Y101970D01*
X125000Y102100D01*
D02*
G37*
G36*
X107283Y102401D02*
X106516Y102248D01*
X105864Y101813D01*
X105429Y101162D01*
X105277Y100394D01*
X105429Y99626D01*
X105864Y98975D01*
X106516Y98539D01*
X107283Y98387D01*
X108052Y98539D01*
X108703Y98975D01*
X109138Y99626D01*
X109291Y100394D01*
X109138Y101162D01*
X108703Y101813D01*
X108052Y102248D01*
X107283Y102401D01*
D02*
G37*
G36*
X25591Y101417D02*
X24823Y101264D01*
X24171Y100829D01*
X23736Y100178D01*
X23584Y99410D01*
X23736Y98641D01*
X24171Y97990D01*
X24823Y97555D01*
X25591Y97402D01*
X26359Y97555D01*
X27010Y97990D01*
X27445Y98641D01*
X27598Y99410D01*
X27445Y100178D01*
X27010Y100829D01*
X26359Y101264D01*
X25591Y101417D01*
D02*
G37*
G36*
X31496Y111942D02*
X30843Y111812D01*
X30290Y111442D01*
X29920Y110889D01*
X29790Y110236D01*
X29920Y109583D01*
X30290Y109030D01*
X30843Y108660D01*
X31496Y108530D01*
X32149Y108660D01*
X32702Y109030D01*
X33072Y109583D01*
X33202Y110236D01*
X33072Y110889D01*
X32702Y111442D01*
X32149Y111812D01*
X31496Y111942D01*
D02*
G37*
G36*
X164370Y102100D02*
X163717Y101970D01*
X163164Y101600D01*
X162794Y101047D01*
X162664Y100394D01*
X162794Y99741D01*
X163164Y99187D01*
X163717Y98818D01*
X164370Y98688D01*
X165023Y98818D01*
X165577Y99187D01*
X165946Y99741D01*
X166076Y100394D01*
X165946Y101047D01*
X165577Y101600D01*
X165023Y101970D01*
X164370Y102100D01*
D02*
G37*
G36*
X144685D02*
X144032Y101970D01*
X143479Y101600D01*
X143109Y101047D01*
X142979Y100394D01*
X143109Y99741D01*
X143479Y99187D01*
X144032Y98818D01*
X144685Y98688D01*
X145338Y98818D01*
X145891Y99187D01*
X146261Y99741D01*
X146391Y100394D01*
X146261Y101047D01*
X145891Y101600D01*
X145338Y101970D01*
X144685Y102100D01*
D02*
G37*
G36*
X107283Y46982D02*
X106631Y46852D01*
X106077Y46482D01*
X105707Y45928D01*
X105578Y45276D01*
X105707Y44623D01*
X106077Y44069D01*
X106631Y43699D01*
X107283Y43570D01*
X107936Y43699D01*
X108490Y44069D01*
X108860Y44623D01*
X108990Y45276D01*
X108860Y45928D01*
X108490Y46482D01*
X107936Y46852D01*
X107283Y46982D01*
D02*
G37*
G36*
X-65945Y5643D02*
X-66598Y5513D01*
X-67151Y5143D01*
X-67521Y4590D01*
X-67651Y3937D01*
X-67521Y3284D01*
X-67151Y2731D01*
X-66598Y2361D01*
X-65945Y2231D01*
X-65292Y2361D01*
X-64739Y2731D01*
X-64369Y3284D01*
X-64239Y3937D01*
X-64369Y4590D01*
X-64739Y5143D01*
X-65292Y5513D01*
X-65945Y5643D01*
D02*
G37*
G36*
X-89567Y5944D02*
X-90335Y5791D01*
X-90986Y5356D01*
X-91421Y4705D01*
X-91574Y3937D01*
X-91421Y3169D01*
X-90986Y2518D01*
X-90335Y2083D01*
X-89567Y1930D01*
X-88799Y2083D01*
X-88148Y2518D01*
X-87713Y3169D01*
X-87560Y3937D01*
X-87713Y4705D01*
X-88148Y5356D01*
X-88799Y5791D01*
X-89567Y5944D01*
D02*
G37*
G36*
X-116142Y4659D02*
X-116795Y4529D01*
X-117348Y4159D01*
X-117718Y3605D01*
X-117848Y2953D01*
X-117718Y2300D01*
X-117348Y1746D01*
X-116795Y1376D01*
X-116142Y1247D01*
X-115489Y1376D01*
X-114936Y1746D01*
X-114566Y2300D01*
X-114436Y2953D01*
X-114566Y3605D01*
X-114936Y4159D01*
X-115489Y4529D01*
X-116142Y4659D01*
D02*
G37*
G36*
X32480Y6627D02*
X31828Y6497D01*
X31274Y6128D01*
X30904Y5574D01*
X30774Y4921D01*
X30904Y4268D01*
X31274Y3715D01*
X31828Y3345D01*
X32480Y3215D01*
X33133Y3345D01*
X33687Y3715D01*
X34056Y4268D01*
X34186Y4921D01*
X34056Y5574D01*
X33687Y6128D01*
X33133Y6497D01*
X32480Y6627D01*
D02*
G37*
G36*
X-58071Y5643D02*
X-58724Y5513D01*
X-59277Y5143D01*
X-59647Y4590D01*
X-59777Y3937D01*
X-59647Y3284D01*
X-59277Y2731D01*
X-58724Y2361D01*
X-58071Y2231D01*
X-57418Y2361D01*
X-56865Y2731D01*
X-56495Y3284D01*
X-56365Y3937D01*
X-56495Y4590D01*
X-56865Y5143D01*
X-57418Y5513D01*
X-58071Y5643D01*
D02*
G37*
G36*
X-62008D02*
X-62661Y5513D01*
X-63214Y5143D01*
X-63584Y4590D01*
X-63714Y3937D01*
X-63584Y3284D01*
X-63214Y2731D01*
X-62661Y2361D01*
X-62008Y2231D01*
X-61355Y2361D01*
X-60802Y2731D01*
X-60432Y3284D01*
X-60302Y3937D01*
X-60432Y4590D01*
X-60802Y5143D01*
X-61355Y5513D01*
X-62008Y5643D01*
D02*
G37*
G36*
X164370Y3675D02*
X163717Y3545D01*
X163164Y3175D01*
X162794Y2621D01*
X162664Y1969D01*
X162794Y1316D01*
X163164Y762D01*
X163717Y392D01*
X164370Y262D01*
X165023Y392D01*
X165577Y762D01*
X165946Y1316D01*
X166076Y1969D01*
X165946Y2621D01*
X165577Y3175D01*
X165023Y3545D01*
X164370Y3675D01*
D02*
G37*
G36*
X139764D02*
X139111Y3545D01*
X138558Y3175D01*
X138188Y2621D01*
X138058Y1969D01*
X138188Y1316D01*
X138558Y762D01*
X139111Y392D01*
X139764Y262D01*
X140417Y392D01*
X140970Y762D01*
X141340Y1316D01*
X141470Y1969D01*
X141340Y2621D01*
X140970Y3175D01*
X140417Y3545D01*
X139764Y3675D01*
D02*
G37*
G36*
X125000D02*
X124347Y3545D01*
X123794Y3175D01*
X123424Y2621D01*
X123294Y1969D01*
X123424Y1316D01*
X123794Y762D01*
X124347Y392D01*
X125000Y262D01*
X125653Y392D01*
X126206Y762D01*
X126576Y1316D01*
X126706Y1969D01*
X126576Y2621D01*
X126206Y3175D01*
X125653Y3545D01*
X125000Y3675D01*
D02*
G37*
G36*
X-163386Y4960D02*
X-164154Y4807D01*
X-164805Y4372D01*
X-165240Y3721D01*
X-165393Y2953D01*
X-165240Y2185D01*
X-164805Y1534D01*
X-164154Y1098D01*
X-163386Y946D01*
X-162618Y1098D01*
X-161967Y1534D01*
X-161532Y2185D01*
X-161522Y2234D01*
X-161133Y2285D01*
X-161005Y2269D01*
X-160655Y1746D01*
X-160102Y1376D01*
X-159449Y1247D01*
X-158796Y1376D01*
X-158243Y1746D01*
X-157873Y2300D01*
X-157743Y2953D01*
X-157873Y3605D01*
X-158243Y4159D01*
X-158796Y4529D01*
X-159449Y4659D01*
X-160102Y4529D01*
X-160655Y4159D01*
X-161005Y3636D01*
X-161133Y3620D01*
X-161522Y3672D01*
X-161532Y3721D01*
X-161967Y4372D01*
X-162618Y4807D01*
X-163386Y4960D01*
D02*
G37*
G36*
X-125000Y4960D02*
X-125768Y4807D01*
X-126419Y4372D01*
X-126854Y3721D01*
X-127007Y2953D01*
X-126854Y2185D01*
X-126419Y1534D01*
X-125768Y1099D01*
X-125000Y946D01*
X-124232Y1099D01*
X-123581Y1534D01*
X-123146Y2185D01*
X-122993Y2953D01*
X-123146Y3721D01*
X-123581Y4372D01*
X-124232Y4807D01*
X-125000Y4960D01*
D02*
G37*
G36*
X-150591D02*
X-151359Y4807D01*
X-152010Y4372D01*
X-152445Y3721D01*
X-152598Y2953D01*
X-152445Y2185D01*
X-152010Y1534D01*
X-151359Y1099D01*
X-150591Y946D01*
X-149822Y1099D01*
X-149171Y1534D01*
X-148736Y2185D01*
X-148583Y2953D01*
X-148736Y3721D01*
X-149171Y4372D01*
X-149822Y4807D01*
X-150591Y4960D01*
D02*
G37*
G36*
X38386Y13517D02*
X37733Y13387D01*
X37180Y13017D01*
X36810Y12464D01*
X36680Y11811D01*
X36810Y11158D01*
X37180Y10605D01*
X37733Y10235D01*
X38386Y10105D01*
X39039Y10235D01*
X39592Y10605D01*
X39962Y11158D01*
X40092Y11811D01*
X39962Y12464D01*
X39592Y13017D01*
X39039Y13387D01*
X38386Y13517D01*
D02*
G37*
G36*
X154528Y13517D02*
X153875Y13387D01*
X153321Y13017D01*
X152952Y12464D01*
X152822Y11811D01*
X152952Y11158D01*
X153321Y10605D01*
X153875Y10235D01*
X154528Y10105D01*
X155181Y10235D01*
X155734Y10605D01*
X156104Y11158D01*
X156234Y11811D01*
X156104Y12464D01*
X155734Y13017D01*
X155181Y13387D01*
X154528Y13517D01*
D02*
G37*
G36*
X139764D02*
X139111Y13387D01*
X138558Y13017D01*
X138188Y12464D01*
X138058Y11811D01*
X138188Y11158D01*
X138558Y10605D01*
X139111Y10235D01*
X139764Y10105D01*
X140417Y10235D01*
X140970Y10605D01*
X141340Y11158D01*
X141470Y11811D01*
X141340Y12464D01*
X140970Y13017D01*
X140417Y13387D01*
X139764Y13517D01*
D02*
G37*
G36*
X-186614Y33018D02*
X-188447Y32837D01*
X-190210Y32302D01*
X-191834Y31434D01*
X-193258Y30266D01*
X-194426Y28842D01*
X-195295Y27218D01*
X-195829Y25455D01*
X-196010Y23622D01*
X-195829Y21789D01*
X-195295Y20027D01*
X-194426Y18402D01*
X-193258Y16978D01*
X-191834Y15810D01*
X-190210Y14942D01*
X-188447Y14407D01*
X-186614Y14226D01*
X-184781Y14407D01*
X-183019Y14942D01*
X-181394Y15810D01*
X-179971Y16978D01*
X-178802Y18402D01*
X-177934Y20027D01*
X-177399Y21789D01*
X-177218Y23622D01*
X-177399Y25455D01*
X-177934Y27218D01*
X-178802Y28842D01*
X-179971Y30266D01*
X-181394Y31434D01*
X-183019Y32302D01*
X-184781Y32837D01*
X-186614Y33018D01*
D02*
G37*
G36*
X-163386Y17454D02*
X-164039Y17324D01*
X-164592Y16954D01*
X-164962Y16401D01*
X-165092Y15748D01*
X-164962Y15095D01*
X-164592Y14542D01*
X-164039Y14172D01*
X-163386Y14042D01*
X-162733Y14172D01*
X-162180Y14542D01*
X-161810Y15095D01*
X-161680Y15748D01*
X-161810Y16401D01*
X-162180Y16954D01*
X-162733Y17324D01*
X-163386Y17454D01*
D02*
G37*
G36*
X56102Y14993D02*
X55450Y14864D01*
X54896Y14494D01*
X54526Y13940D01*
X54396Y13287D01*
X54526Y12635D01*
X54896Y12081D01*
X55450Y11711D01*
X56102Y11581D01*
X56755Y11711D01*
X57309Y12081D01*
X57679Y12635D01*
X57809Y13287D01*
X57679Y13940D01*
X57309Y14494D01*
X56755Y14864D01*
X56102Y14993D01*
D02*
G37*
G36*
X133858Y8596D02*
X133205Y8466D01*
X132652Y8096D01*
X132282Y7543D01*
X132152Y6890D01*
X132282Y6237D01*
X132652Y5683D01*
X133205Y5314D01*
X133858Y5184D01*
X134511Y5314D01*
X135065Y5683D01*
X135434Y6237D01*
X135564Y6890D01*
X135434Y7543D01*
X135065Y8096D01*
X134511Y8466D01*
X133858Y8596D01*
D02*
G37*
G36*
X-173228Y7611D02*
X-173881Y7482D01*
X-174435Y7112D01*
X-174804Y6558D01*
X-174934Y5906D01*
X-174804Y5253D01*
X-174435Y4699D01*
X-173881Y4329D01*
X-173228Y4200D01*
X-172575Y4329D01*
X-172022Y4699D01*
X-171652Y5253D01*
X-171522Y5906D01*
X-171652Y6558D01*
X-172022Y7112D01*
X-172575Y7482D01*
X-173228Y7611D01*
D02*
G37*
G36*
X-192913D02*
X-193566Y7482D01*
X-194120Y7112D01*
X-194490Y6558D01*
X-194619Y5906D01*
X-194490Y5253D01*
X-194120Y4699D01*
X-193566Y4329D01*
X-192913Y4200D01*
X-192260Y4329D01*
X-191707Y4699D01*
X-191337Y5253D01*
X-191207Y5906D01*
X-191337Y6558D01*
X-191707Y7112D01*
X-192260Y7482D01*
X-192913Y7611D01*
D02*
G37*
G36*
X115158Y13517D02*
X114505Y13387D01*
X113951Y13017D01*
X113581Y12464D01*
X113452Y11811D01*
X113581Y11158D01*
X113951Y10605D01*
X114505Y10235D01*
X115158Y10105D01*
X115810Y10235D01*
X116364Y10605D01*
X116734Y11158D01*
X116864Y11811D01*
X116734Y12464D01*
X116364Y13017D01*
X115810Y13387D01*
X115158Y13517D01*
D02*
G37*
G36*
X35433Y9580D02*
X34780Y9450D01*
X34227Y9080D01*
X33857Y8527D01*
X33727Y7874D01*
X33857Y7221D01*
X34227Y6668D01*
X34780Y6298D01*
X35433Y6168D01*
X36086Y6298D01*
X36639Y6668D01*
X37009Y7221D01*
X37139Y7874D01*
X37009Y8527D01*
X36639Y9080D01*
X36086Y9450D01*
X35433Y9580D01*
D02*
G37*
G36*
X-72835D02*
X-73487Y9450D01*
X-74041Y9080D01*
X-74411Y8527D01*
X-74541Y7874D01*
X-74411Y7221D01*
X-74041Y6668D01*
X-73487Y6298D01*
X-72835Y6168D01*
X-72182Y6298D01*
X-71628Y6668D01*
X-71258Y7221D01*
X-71129Y7874D01*
X-71258Y8527D01*
X-71628Y9080D01*
X-72182Y9450D01*
X-72835Y9580D01*
D02*
G37*
G36*
X-54134Y-2231D02*
X-54787Y-2361D01*
X-55340Y-2731D01*
X-55710Y-3284D01*
X-55840Y-3937D01*
X-55710Y-4590D01*
X-55340Y-5143D01*
X-54787Y-5513D01*
X-54134Y-5643D01*
X-53481Y-5513D01*
X-52927Y-5143D01*
X-52558Y-4590D01*
X-52428Y-3937D01*
X-52558Y-3284D01*
X-52927Y-2731D01*
X-53481Y-2361D01*
X-54134Y-2231D01*
D02*
G37*
G36*
X-183071D02*
X-183724Y-2361D01*
X-184277Y-2731D01*
X-184647Y-3284D01*
X-184777Y-3937D01*
X-184647Y-4590D01*
X-184277Y-5143D01*
X-183724Y-5513D01*
X-183071Y-5643D01*
X-182418Y-5513D01*
X-181865Y-5143D01*
X-181495Y-4590D01*
X-181365Y-3937D01*
X-181495Y-3284D01*
X-181865Y-2731D01*
X-182418Y-2361D01*
X-183071Y-2231D01*
D02*
G37*
G36*
X-130906Y-4200D02*
X-131558Y-4329D01*
X-132112Y-4699D01*
X-132482Y-5253D01*
X-132612Y-5906D01*
X-132482Y-6558D01*
X-132357Y-6745D01*
X-132657Y-7195D01*
X-132874Y-7152D01*
X-133527Y-7282D01*
X-134080Y-7652D01*
X-134450Y-8206D01*
X-134580Y-8858D01*
X-134742Y-9055D01*
X-153150Y-9055D01*
Y-18504D01*
X-125741D01*
X-125251Y-18529D01*
X-125251Y-18529D01*
X-125251D01*
X-125205Y-19004D01*
X-125274Y-19018D01*
X-125653Y-19093D01*
X-126206Y-19463D01*
X-126576Y-20017D01*
X-126706Y-20669D01*
X-126576Y-21322D01*
X-126206Y-21876D01*
X-125653Y-22245D01*
X-125000Y-22375D01*
X-124347Y-22245D01*
X-123794Y-21876D01*
X-123424Y-21322D01*
X-123294Y-20669D01*
X-123424Y-20017D01*
X-123794Y-19463D01*
X-124347Y-19093D01*
X-124726Y-19018D01*
X-124796Y-19004D01*
X-124749Y-18529D01*
X-124749D01*
X-124749Y-18529D01*
X-124259Y-18504D01*
X-122441D01*
Y-9055D01*
X-131007D01*
X-131168Y-8858D01*
X-131298Y-8206D01*
X-131423Y-8019D01*
X-131122Y-7569D01*
X-130906Y-7612D01*
X-130253Y-7482D01*
X-129699Y-7112D01*
X-129329Y-6558D01*
X-129200Y-5906D01*
X-129329Y-5253D01*
X-129699Y-4699D01*
X-130253Y-4329D01*
X-130906Y-4200D01*
D02*
G37*
G36*
X-91535Y-1247D02*
X-92188Y-1377D01*
X-92742Y-1746D01*
X-93111Y-2300D01*
X-93241Y-2953D01*
X-93111Y-3606D01*
X-92742Y-4159D01*
X-92188Y-4529D01*
X-91535Y-4659D01*
X-90882Y-4529D01*
X-90329Y-4159D01*
X-89959Y-3606D01*
X-89829Y-2953D01*
X-89959Y-2300D01*
X-90329Y-1746D01*
X-90882Y-1377D01*
X-91535Y-1247D01*
D02*
G37*
G36*
X60040Y-946D02*
X59271Y-1098D01*
X58620Y-1534D01*
X58185Y-2185D01*
X58032Y-2953D01*
X58185Y-3721D01*
X58620Y-4372D01*
X59271Y-4807D01*
X60040Y-4960D01*
X60808Y-4807D01*
X61459Y-4372D01*
X61894Y-3721D01*
X62047Y-2953D01*
X61894Y-2185D01*
X61459Y-1534D01*
X60808Y-1098D01*
X60040Y-946D01*
D02*
G37*
G36*
X-50197Y-2231D02*
X-50850Y-2361D01*
X-51403Y-2731D01*
X-51773Y-3284D01*
X-51903Y-3937D01*
X-51773Y-4590D01*
X-51403Y-5143D01*
X-50850Y-5513D01*
X-50197Y-5643D01*
X-49544Y-5513D01*
X-48990Y-5143D01*
X-48621Y-4590D01*
X-48491Y-3937D01*
X-48621Y-3284D01*
X-48990Y-2731D01*
X-49544Y-2361D01*
X-50197Y-2231D01*
D02*
G37*
G36*
X154528Y-6168D02*
X153875Y-6298D01*
X153321Y-6668D01*
X152952Y-7221D01*
X152822Y-7874D01*
X152952Y-8527D01*
X153321Y-9080D01*
X153875Y-9450D01*
X154528Y-9580D01*
X155181Y-9450D01*
X155734Y-9080D01*
X156104Y-8527D01*
X156234Y-7874D01*
X156104Y-7221D01*
X155734Y-6668D01*
X155181Y-6298D01*
X154528Y-6168D01*
D02*
G37*
G36*
X139764D02*
X139111Y-6298D01*
X138558Y-6668D01*
X138188Y-7221D01*
X138058Y-7874D01*
X138188Y-8527D01*
X138558Y-9080D01*
X139111Y-9450D01*
X139764Y-9580D01*
X140417Y-9450D01*
X140970Y-9080D01*
X141340Y-8527D01*
X141470Y-7874D01*
X141340Y-7221D01*
X140970Y-6668D01*
X140417Y-6298D01*
X139764Y-6168D01*
D02*
G37*
G36*
X115158D02*
X114505Y-6298D01*
X113951Y-6668D01*
X113581Y-7221D01*
X113452Y-7874D01*
X113581Y-8527D01*
X113951Y-9080D01*
X114505Y-9450D01*
X115158Y-9580D01*
X115810Y-9450D01*
X116364Y-9080D01*
X116734Y-8527D01*
X116864Y-7874D01*
X116734Y-7221D01*
X116364Y-6668D01*
X115810Y-6298D01*
X115158Y-6168D01*
D02*
G37*
G36*
X-140748Y-4200D02*
X-141401Y-4329D01*
X-141954Y-4699D01*
X-142324Y-5253D01*
X-142454Y-5906D01*
X-142324Y-6558D01*
X-141954Y-7112D01*
X-141401Y-7482D01*
X-140748Y-7612D01*
X-140095Y-7482D01*
X-139542Y-7112D01*
X-139172Y-6558D01*
X-139042Y-5906D01*
X-139172Y-5253D01*
X-139542Y-4699D01*
X-140095Y-4329D01*
X-140748Y-4200D01*
D02*
G37*
G36*
X-144685D02*
X-145338Y-4329D01*
X-145891Y-4699D01*
X-146261Y-5253D01*
X-146391Y-5906D01*
X-146261Y-6558D01*
X-145891Y-7112D01*
X-145338Y-7482D01*
X-144685Y-7612D01*
X-144032Y-7482D01*
X-143479Y-7112D01*
X-143109Y-6558D01*
X-142979Y-5906D01*
X-143109Y-5253D01*
X-143479Y-4699D01*
X-144032Y-4329D01*
X-144685Y-4200D01*
D02*
G37*
G36*
X46260Y-5184D02*
X45607Y-5314D01*
X45054Y-5683D01*
X44684Y-6237D01*
X44554Y-6890D01*
X44684Y-7543D01*
X45054Y-8096D01*
X45607Y-8466D01*
X46260Y-8596D01*
X46913Y-8466D01*
X47466Y-8096D01*
X47836Y-7543D01*
X47966Y-6890D01*
X47836Y-6237D01*
X47466Y-5683D01*
X46913Y-5314D01*
X46260Y-5184D01*
D02*
G37*
G36*
X37402Y1706D02*
X36749Y1576D01*
X36195Y1206D01*
X35825Y653D01*
X35696Y0D01*
X35825Y-653D01*
X36195Y-1206D01*
X36749Y-1576D01*
X37402Y-1706D01*
X38054Y-1576D01*
X38608Y-1206D01*
X38978Y-653D01*
X39108Y0D01*
X38978Y653D01*
X38608Y1206D01*
X38054Y1576D01*
X37402Y1706D01*
D02*
G37*
G36*
X3937D02*
X3284Y1576D01*
X2731Y1206D01*
X2361Y653D01*
X2231Y0D01*
X2361Y-653D01*
X2731Y-1206D01*
X3284Y-1576D01*
X3937Y-1706D01*
X4590Y-1576D01*
X5143Y-1206D01*
X5513Y-653D01*
X5643Y0D01*
X5513Y653D01*
X5143Y1206D01*
X4590Y1576D01*
X3937Y1706D01*
D02*
G37*
G36*
X-54134D02*
X-54787Y1576D01*
X-55340Y1206D01*
X-55710Y653D01*
X-55840Y0D01*
X-55710Y-653D01*
X-55340Y-1206D01*
X-54787Y-1576D01*
X-54134Y-1706D01*
X-53481Y-1576D01*
X-52927Y-1206D01*
X-52558Y-653D01*
X-52428Y0D01*
X-52558Y653D01*
X-52927Y1206D01*
X-53481Y1576D01*
X-54134Y1706D01*
D02*
G37*
G36*
X75788Y3675D02*
X75135Y3545D01*
X74581Y3175D01*
X74211Y2621D01*
X74081Y1969D01*
X74211Y1316D01*
X74581Y762D01*
X75135Y392D01*
X75788Y262D01*
X76440Y392D01*
X76994Y762D01*
X77364Y1316D01*
X77494Y1969D01*
X77364Y2621D01*
X76994Y3175D01*
X76440Y3545D01*
X75788Y3675D01*
D02*
G37*
G36*
X-27559Y2991D02*
X-28327Y2839D01*
X-28978Y2403D01*
X-29413Y1752D01*
X-29566Y984D01*
X-29413Y216D01*
X-28978Y-435D01*
X-28327Y-870D01*
X-27559Y-1023D01*
X-26791Y-870D01*
X-26140Y-435D01*
X-25705Y216D01*
X-25552Y984D01*
X-25705Y1752D01*
X-26140Y2403D01*
X-26791Y2839D01*
X-27559Y2991D01*
D02*
G37*
G36*
X41339Y1706D02*
X40686Y1576D01*
X40132Y1206D01*
X39762Y653D01*
X39633Y0D01*
X39762Y-653D01*
X40132Y-1206D01*
X40686Y-1576D01*
X41339Y-1706D01*
X41991Y-1576D01*
X42545Y-1206D01*
X42915Y-653D01*
X43045Y0D01*
X42915Y653D01*
X42545Y1206D01*
X41991Y1576D01*
X41339Y1706D01*
D02*
G37*
G36*
X63977Y2007D02*
X63208Y1854D01*
X62557Y1419D01*
X62122Y768D01*
X61969Y0D01*
X62122Y-768D01*
X62557Y-1419D01*
X63208Y-1854D01*
X63977Y-2007D01*
X64745Y-1854D01*
X65396Y-1419D01*
X65831Y-768D01*
X65983Y0D01*
X65831Y768D01*
X65396Y1419D01*
X64745Y1854D01*
X63977Y2007D01*
D02*
G37*
G36*
X46260Y-1247D02*
X45607Y-1377D01*
X45053Y-1746D01*
X44684Y-2300D01*
X44554Y-2953D01*
X44684Y-3606D01*
X45053Y-4159D01*
X45607Y-4529D01*
X46260Y-4659D01*
X46913Y-4529D01*
X47466Y-4159D01*
X47836Y-3606D01*
X47966Y-2953D01*
X47836Y-2300D01*
X47466Y-1746D01*
X46913Y-1377D01*
X46260Y-1247D01*
D02*
G37*
G36*
X133858Y-1247D02*
X133205Y-1377D01*
X132652Y-1746D01*
X132282Y-2300D01*
X132152Y-2953D01*
X132282Y-3606D01*
X132652Y-4159D01*
X133205Y-4529D01*
X133858Y-4659D01*
X134511Y-4529D01*
X135065Y-4159D01*
X135434Y-3606D01*
X135564Y-2953D01*
X135434Y-2300D01*
X135065Y-1746D01*
X134511Y-1377D01*
X133858Y-1247D01*
D02*
G37*
G36*
X-58071Y1706D02*
X-58724Y1576D01*
X-59277Y1206D01*
X-59647Y653D01*
X-59777Y0D01*
X-59647Y-653D01*
X-59277Y-1206D01*
X-58724Y-1576D01*
X-58071Y-1706D01*
X-57418Y-1576D01*
X-56865Y-1206D01*
X-56495Y-653D01*
X-56365Y0D01*
X-56495Y653D01*
X-56865Y1206D01*
X-57418Y1576D01*
X-58071Y1706D01*
D02*
G37*
G36*
X-3937Y1706D02*
X-4590Y1576D01*
X-5143Y1206D01*
X-5513Y653D01*
X-5643Y-0D01*
X-5513Y-653D01*
X-5143Y-1206D01*
X-4590Y-1576D01*
X-3937Y-1706D01*
X-3284Y-1576D01*
X-2731Y-1206D01*
X-2361Y-653D01*
X-2231Y-0D01*
X-2361Y653D01*
X-2731Y1206D01*
X-3284Y1576D01*
X-3937Y1706D01*
D02*
G37*
G36*
X0Y1706D02*
X-653Y1576D01*
X-1206Y1206D01*
X-1576Y653D01*
X-1706Y-0D01*
X-1576Y-653D01*
X-1206Y-1206D01*
X-653Y-1576D01*
X0Y-1706D01*
X653Y-1576D01*
X1206Y-1206D01*
X1576Y-653D01*
X1706Y-0D01*
X1576Y653D01*
X1206Y1206D01*
X653Y1576D01*
X0Y1706D01*
D02*
G37*
G36*
X133858Y18438D02*
X133205Y18308D01*
X132652Y17939D01*
X132282Y17385D01*
X132152Y16732D01*
X132282Y16079D01*
X132652Y15526D01*
X133205Y15156D01*
X133858Y15026D01*
X134511Y15156D01*
X135065Y15526D01*
X135434Y16079D01*
X135564Y16732D01*
X135434Y17385D01*
X135065Y17939D01*
X134511Y18308D01*
X133858Y18438D01*
D02*
G37*
G36*
X90551Y38123D02*
X89898Y37993D01*
X89345Y37624D01*
X88975Y37070D01*
X88845Y36417D01*
X88975Y35765D01*
X89345Y35211D01*
X89898Y34841D01*
X90551Y34711D01*
X91204Y34841D01*
X91758Y35211D01*
X92127Y35765D01*
X92257Y36417D01*
X92127Y37070D01*
X91758Y37624D01*
X91204Y37993D01*
X90551Y38123D01*
D02*
G37*
G36*
X25591D02*
X24938Y37993D01*
X24384Y37624D01*
X24014Y37070D01*
X23885Y36417D01*
X24014Y35765D01*
X24384Y35211D01*
X24938Y34841D01*
X25591Y34711D01*
X26243Y34841D01*
X26797Y35211D01*
X27167Y35765D01*
X27297Y36417D01*
X27167Y37070D01*
X26797Y37624D01*
X26243Y37993D01*
X25591Y38123D01*
D02*
G37*
G36*
X-84646Y37139D02*
X-85299Y37009D01*
X-85852Y36639D01*
X-86222Y36086D01*
X-86352Y35433D01*
X-86222Y34780D01*
X-85852Y34227D01*
X-85299Y33857D01*
X-84646Y33727D01*
X-83993Y33857D01*
X-83439Y34227D01*
X-83069Y34780D01*
X-82940Y35433D01*
X-83069Y36086D01*
X-83439Y36639D01*
X-83993Y37009D01*
X-84646Y37139D01*
D02*
G37*
G36*
X25591Y42060D02*
X24938Y41930D01*
X24384Y41561D01*
X24014Y41007D01*
X23885Y40354D01*
X24014Y39702D01*
X24384Y39148D01*
X24938Y38778D01*
X25591Y38648D01*
X26243Y38778D01*
X26797Y39148D01*
X27167Y39702D01*
X27297Y40354D01*
X27167Y41007D01*
X26797Y41561D01*
X26243Y41930D01*
X25591Y42060D01*
D02*
G37*
G36*
X14764D02*
X14111Y41930D01*
X13557Y41561D01*
X13188Y41007D01*
X13058Y40354D01*
X13188Y39702D01*
X13557Y39148D01*
X14111Y38778D01*
X14764Y38648D01*
X15417Y38778D01*
X15970Y39148D01*
X16340Y39702D01*
X16470Y40354D01*
X16340Y41007D01*
X15970Y41561D01*
X15417Y41930D01*
X14764Y42060D01*
D02*
G37*
G36*
X133858Y38123D02*
X133205Y37993D01*
X132652Y37624D01*
X132282Y37070D01*
X132152Y36417D01*
X132282Y35765D01*
X132652Y35211D01*
X133205Y34841D01*
X133858Y34711D01*
X134511Y34841D01*
X135065Y35211D01*
X135434Y35765D01*
X135564Y36417D01*
X135434Y37070D01*
X135065Y37624D01*
X134511Y37993D01*
X133858Y38123D01*
D02*
G37*
G36*
X-149606Y37139D02*
X-150259Y37009D01*
X-150813Y36639D01*
X-151182Y36086D01*
X-151312Y35433D01*
X-151182Y34780D01*
X-150813Y34227D01*
X-150259Y33857D01*
X-149606Y33727D01*
X-148953Y33857D01*
X-148400Y34227D01*
X-148030Y34780D01*
X-147900Y35433D01*
X-148030Y36086D01*
X-148400Y36639D01*
X-148953Y37009D01*
X-149606Y37139D01*
D02*
G37*
G36*
X-106299Y37440D02*
X-107067Y37287D01*
X-107719Y36852D01*
X-108154Y36201D01*
X-108306Y35433D01*
X-108154Y34665D01*
X-107719Y34014D01*
X-107067Y33579D01*
X-106299Y33426D01*
X-105531Y33579D01*
X-104880Y34014D01*
X-104445Y34665D01*
X-104292Y35433D01*
X-104445Y36201D01*
X-104880Y36852D01*
X-105531Y37287D01*
X-106299Y37440D01*
D02*
G37*
G36*
X8858Y36155D02*
X8206Y36025D01*
X7652Y35655D01*
X7282Y35102D01*
X7152Y34449D01*
X7282Y33796D01*
X7652Y33242D01*
X8206Y32873D01*
X8858Y32743D01*
X9511Y32873D01*
X10065Y33242D01*
X10435Y33796D01*
X10564Y34449D01*
X10435Y35102D01*
X10065Y35655D01*
X9511Y36025D01*
X8858Y36155D01*
D02*
G37*
G36*
X-183071Y37139D02*
X-183724Y37009D01*
X-184277Y36639D01*
X-184647Y36086D01*
X-184777Y35433D01*
X-184647Y34780D01*
X-184277Y34227D01*
X-183724Y33857D01*
X-183071Y33727D01*
X-182418Y33857D01*
X-181865Y34227D01*
X-181495Y34780D01*
X-181365Y35433D01*
X-181495Y36086D01*
X-181865Y36639D01*
X-182418Y37009D01*
X-183071Y37139D01*
D02*
G37*
G36*
X-16732Y37139D02*
X-17385Y37009D01*
X-17939Y36639D01*
X-18308Y36086D01*
X-18438Y35433D01*
X-18308Y34780D01*
X-17939Y34227D01*
X-17385Y33857D01*
X-16732Y33727D01*
X-16079Y33857D01*
X-15526Y34227D01*
X-15156Y34780D01*
X-15026Y35433D01*
X-15156Y36086D01*
X-15526Y36639D01*
X-16079Y37009D01*
X-16732Y37139D01*
D02*
G37*
G36*
X-127953Y37139D02*
X-128606Y37009D01*
X-129159Y36639D01*
X-129529Y36086D01*
X-129659Y35433D01*
X-129529Y34780D01*
X-129159Y34227D01*
X-128606Y33857D01*
X-127953Y33727D01*
X-127300Y33857D01*
X-126746Y34227D01*
X-126377Y34780D01*
X-126247Y35433D01*
X-126377Y36086D01*
X-126746Y36639D01*
X-127300Y37009D01*
X-127953Y37139D01*
D02*
G37*
G36*
X-173228Y46982D02*
X-173881Y46852D01*
X-174435Y46482D01*
X-174804Y45928D01*
X-174934Y45276D01*
X-174804Y44623D01*
X-174435Y44069D01*
X-173881Y43699D01*
X-173228Y43570D01*
X-172575Y43699D01*
X-172022Y44069D01*
X-171652Y44623D01*
X-171522Y45276D01*
X-171652Y45928D01*
X-172022Y46482D01*
X-172575Y46852D01*
X-173228Y46982D01*
D02*
G37*
G36*
X-192913D02*
X-193566Y46852D01*
X-194120Y46482D01*
X-194490Y45928D01*
X-194619Y45276D01*
X-194490Y44623D01*
X-194120Y44069D01*
X-193566Y43699D01*
X-192913Y43570D01*
X-192261Y43699D01*
X-191707Y44069D01*
X-191337Y44623D01*
X-191207Y45276D01*
X-191337Y45928D01*
X-191707Y46482D01*
X-192261Y46852D01*
X-192913Y46982D01*
D02*
G37*
G36*
X5906Y45997D02*
X5253Y45867D01*
X4699Y45498D01*
X4329Y44944D01*
X4200Y44291D01*
X4329Y43639D01*
X4699Y43085D01*
X5253Y42715D01*
X5906Y42585D01*
X6559Y42715D01*
X7112Y43085D01*
X7482Y43639D01*
X7612Y44291D01*
X7482Y44944D01*
X7112Y45498D01*
X6559Y45867D01*
X5906Y45997D01*
D02*
G37*
G36*
X37402Y46982D02*
X36749Y46852D01*
X36195Y46482D01*
X35825Y45928D01*
X35696Y45276D01*
X35825Y44623D01*
X36195Y44069D01*
X36749Y43699D01*
X37402Y43570D01*
X38054Y43699D01*
X38608Y44069D01*
X38978Y44623D01*
X39108Y45276D01*
X38978Y45928D01*
X38608Y46482D01*
X38054Y46852D01*
X37402Y46982D01*
D02*
G37*
G36*
X33465D02*
X32812Y46852D01*
X32258Y46482D01*
X31888Y45928D01*
X31759Y45276D01*
X31888Y44623D01*
X32258Y44069D01*
X32812Y43699D01*
X33465Y43570D01*
X34117Y43699D01*
X34671Y44069D01*
X35041Y44623D01*
X35171Y45276D01*
X35041Y45928D01*
X34671Y46482D01*
X34117Y46852D01*
X33465Y46982D01*
D02*
G37*
G36*
X29528D02*
X28875Y46852D01*
X28321Y46482D01*
X27951Y45928D01*
X27822Y45276D01*
X27951Y44623D01*
X28321Y44069D01*
X28875Y43699D01*
X29528Y43570D01*
X30180Y43699D01*
X30734Y44069D01*
X31104Y44623D01*
X31234Y45276D01*
X31104Y45928D01*
X30734Y46482D01*
X30180Y46852D01*
X29528Y46982D01*
D02*
G37*
G36*
X125000Y43045D02*
X124347Y42915D01*
X123794Y42545D01*
X123424Y41991D01*
X123294Y41339D01*
X123424Y40686D01*
X123794Y40132D01*
X124347Y39762D01*
X125000Y39633D01*
X125653Y39762D01*
X126206Y40132D01*
X126576Y40686D01*
X126706Y41339D01*
X126576Y41991D01*
X126206Y42545D01*
X125653Y42915D01*
X125000Y43045D01*
D02*
G37*
G36*
X107283D02*
X106631Y42915D01*
X106077Y42545D01*
X105707Y41991D01*
X105578Y41339D01*
X105707Y40686D01*
X106077Y40132D01*
X106631Y39762D01*
X107283Y39633D01*
X107936Y39762D01*
X108490Y40132D01*
X108860Y40686D01*
X108990Y41339D01*
X108860Y41991D01*
X108490Y42545D01*
X107936Y42915D01*
X107283Y43045D01*
D02*
G37*
G36*
X29528Y42060D02*
X28875Y41930D01*
X28321Y41561D01*
X27951Y41007D01*
X27822Y40354D01*
X27951Y39702D01*
X28321Y39148D01*
X28875Y38778D01*
X29528Y38648D01*
X30180Y38778D01*
X30734Y39148D01*
X31104Y39702D01*
X31234Y40354D01*
X31104Y41007D01*
X30734Y41561D01*
X30180Y41930D01*
X29528Y42060D01*
D02*
G37*
G36*
X-33465Y46298D02*
X-34233Y46146D01*
X-34884Y45711D01*
X-35319Y45059D01*
X-35472Y44291D01*
X-35319Y43523D01*
X-34884Y42872D01*
X-34233Y42437D01*
X-33465Y42284D01*
X-32696Y42437D01*
X-32045Y42872D01*
X-31610Y43523D01*
X-31457Y44291D01*
X-31610Y45059D01*
X-32045Y45711D01*
X-32696Y46146D01*
X-33465Y46298D01*
D02*
G37*
G36*
X164370Y43045D02*
X163717Y42915D01*
X163164Y42545D01*
X162794Y41991D01*
X162664Y41339D01*
X162794Y40686D01*
X163164Y40132D01*
X163717Y39762D01*
X164370Y39633D01*
X165023Y39762D01*
X165577Y40132D01*
X165946Y40686D01*
X166076Y41339D01*
X165946Y41991D01*
X165577Y42545D01*
X165023Y42915D01*
X164370Y43045D01*
D02*
G37*
G36*
X139764D02*
X139111Y42915D01*
X138558Y42545D01*
X138188Y41991D01*
X138058Y41339D01*
X138188Y40686D01*
X138558Y40132D01*
X139111Y39762D01*
X139764Y39633D01*
X140417Y39762D01*
X140970Y40132D01*
X141340Y40686D01*
X141470Y41339D01*
X141340Y41991D01*
X140970Y42545D01*
X140417Y42915D01*
X139764Y43045D01*
D02*
G37*
G36*
X164370Y23359D02*
X163717Y23230D01*
X163164Y22860D01*
X162794Y22306D01*
X162664Y21654D01*
X162794Y21001D01*
X163164Y20447D01*
X163717Y20077D01*
X164370Y19948D01*
X165023Y20077D01*
X165577Y20447D01*
X165946Y21001D01*
X166076Y21654D01*
X165946Y22306D01*
X165577Y22860D01*
X165023Y23230D01*
X164370Y23359D01*
D02*
G37*
G36*
X139764D02*
X139111Y23230D01*
X138558Y22860D01*
X138188Y22306D01*
X138058Y21654D01*
X138188Y21001D01*
X138558Y20447D01*
X139111Y20077D01*
X139764Y19948D01*
X140417Y20077D01*
X140970Y20447D01*
X141340Y21001D01*
X141470Y21654D01*
X141340Y22306D01*
X140970Y22860D01*
X140417Y23230D01*
X139764Y23359D01*
D02*
G37*
G36*
X125000D02*
X124347Y23230D01*
X123794Y22860D01*
X123424Y22306D01*
X123294Y21654D01*
X123424Y21001D01*
X123794Y20447D01*
X124347Y20077D01*
X125000Y19948D01*
X125653Y20077D01*
X126206Y20447D01*
X126576Y21001D01*
X126706Y21654D01*
X126576Y22306D01*
X126206Y22860D01*
X125653Y23230D01*
X125000Y23359D01*
D02*
G37*
G36*
X-94488Y27297D02*
X-95141Y27167D01*
X-95695Y26797D01*
X-96064Y26243D01*
X-96194Y25591D01*
X-96064Y24938D01*
X-95695Y24384D01*
X-95141Y24014D01*
X-94488Y23885D01*
X-93835Y24014D01*
X-93282Y24384D01*
X-92912Y24938D01*
X-92782Y25591D01*
X-92912Y26243D01*
X-93282Y26797D01*
X-93835Y27167D01*
X-94488Y27297D01*
D02*
G37*
G36*
X-173228D02*
X-173881Y27167D01*
X-174435Y26797D01*
X-174804Y26243D01*
X-174934Y25591D01*
X-174804Y24938D01*
X-174435Y24384D01*
X-173881Y24014D01*
X-173228Y23885D01*
X-172575Y24014D01*
X-172022Y24384D01*
X-171652Y24938D01*
X-171522Y25591D01*
X-171652Y26243D01*
X-172022Y26797D01*
X-172575Y27167D01*
X-173228Y27297D01*
D02*
G37*
G36*
X-37402Y27598D02*
X-38170Y27445D01*
X-38821Y27010D01*
X-39256Y26359D01*
X-39409Y25591D01*
X-39256Y24823D01*
X-38821Y24171D01*
X-38170Y23736D01*
X-37402Y23584D01*
X-36633Y23736D01*
X-35982Y24171D01*
X-35547Y24823D01*
X-35394Y25591D01*
X-35547Y26359D01*
X-35982Y27010D01*
X-36633Y27445D01*
X-37402Y27598D01*
D02*
G37*
G36*
X33465Y19423D02*
X32812Y19293D01*
X32258Y18923D01*
X31888Y18369D01*
X31759Y17717D01*
X31888Y17064D01*
X32013Y16877D01*
X31713Y16427D01*
X31496Y16470D01*
X30843Y16340D01*
X30290Y15970D01*
X29920Y15417D01*
X29790Y14764D01*
X29920Y14111D01*
X30290Y13557D01*
X30843Y13188D01*
X31496Y13058D01*
X32149Y13188D01*
X32702Y13557D01*
X33072Y14111D01*
X33202Y14764D01*
X33072Y15417D01*
X32947Y15604D01*
X33248Y16054D01*
X33465Y16011D01*
X34117Y16140D01*
X34671Y16510D01*
X35041Y17064D01*
X35171Y17717D01*
X35041Y18369D01*
X34671Y18923D01*
X34117Y19293D01*
X33465Y19423D01*
D02*
G37*
G36*
X112205D02*
X111552Y19293D01*
X110998Y18923D01*
X110629Y18369D01*
X110499Y17717D01*
X110629Y17064D01*
X110998Y16510D01*
X111552Y16140D01*
X112205Y16011D01*
X112858Y16140D01*
X113411Y16510D01*
X113781Y17064D01*
X113911Y17717D01*
X113781Y18369D01*
X113411Y18923D01*
X112858Y19293D01*
X112205Y19423D01*
D02*
G37*
G36*
X108268D02*
X107615Y19293D01*
X107062Y18923D01*
X106692Y18369D01*
X106562Y17717D01*
X106692Y17064D01*
X107062Y16510D01*
X107615Y16140D01*
X108268Y16011D01*
X108921Y16140D01*
X109474Y16510D01*
X109844Y17064D01*
X109974Y17717D01*
X109844Y18369D01*
X109474Y18923D01*
X108921Y19293D01*
X108268Y19423D01*
D02*
G37*
G36*
X112205Y23359D02*
X111552Y23230D01*
X110998Y22860D01*
X110629Y22306D01*
X110499Y21654D01*
X110629Y21001D01*
X110998Y20447D01*
X111552Y20077D01*
X112205Y19948D01*
X112858Y20077D01*
X113411Y20447D01*
X113781Y21001D01*
X113911Y21654D01*
X113781Y22306D01*
X113411Y22860D01*
X112858Y23230D01*
X112205Y23359D01*
D02*
G37*
G36*
X42323Y22375D02*
X41670Y22245D01*
X41117Y21876D01*
X40747Y21322D01*
X40617Y20669D01*
X40747Y20016D01*
X41117Y19463D01*
X41670Y19093D01*
X42323Y18963D01*
X42976Y19093D01*
X43529Y19463D01*
X43899Y20016D01*
X44029Y20669D01*
X43899Y21322D01*
X43529Y21876D01*
X42976Y22245D01*
X42323Y22375D01*
D02*
G37*
G36*
X38386D02*
X37733Y22245D01*
X37180Y21876D01*
X36810Y21322D01*
X36680Y20669D01*
X36810Y20016D01*
X37180Y19463D01*
X37733Y19093D01*
X38386Y18963D01*
X39039Y19093D01*
X39592Y19463D01*
X39962Y20016D01*
X40092Y20669D01*
X39962Y21322D01*
X39592Y21876D01*
X39039Y22245D01*
X38386Y22375D01*
D02*
G37*
G36*
X115158Y33202D02*
X114505Y33072D01*
X113951Y32702D01*
X113581Y32149D01*
X113452Y31496D01*
X113581Y30843D01*
X113951Y30290D01*
X114505Y29920D01*
X115158Y29790D01*
X115810Y29920D01*
X116364Y30290D01*
X116734Y30843D01*
X116864Y31496D01*
X116734Y32149D01*
X116364Y32702D01*
X115810Y33072D01*
X115158Y33202D01*
D02*
G37*
G36*
X5906D02*
X5253Y33072D01*
X4699Y32702D01*
X4329Y32149D01*
X4200Y31496D01*
X4329Y30843D01*
X4699Y30290D01*
X5253Y29920D01*
X5906Y29790D01*
X6559Y29920D01*
X7112Y30290D01*
X7482Y30843D01*
X7612Y31496D01*
X7482Y32149D01*
X7112Y32702D01*
X6559Y33072D01*
X5906Y33202D01*
D02*
G37*
G36*
X-2953D02*
X-3605Y33072D01*
X-4159Y32702D01*
X-4529Y32149D01*
X-4659Y31496D01*
X-4529Y30843D01*
X-4159Y30290D01*
X-3605Y29920D01*
X-2953Y29790D01*
X-2300Y29920D01*
X-1746Y30290D01*
X-1376Y30843D01*
X-1247Y31496D01*
X-1376Y32149D01*
X-1746Y32702D01*
X-2300Y33072D01*
X-2953Y33202D01*
D02*
G37*
G36*
X93504Y35171D02*
X92851Y35041D01*
X92298Y34671D01*
X91928Y34117D01*
X91798Y33465D01*
X91928Y32812D01*
X92298Y32258D01*
X92851Y31888D01*
X93504Y31759D01*
X94157Y31888D01*
X94710Y32258D01*
X95080Y32812D01*
X95210Y33465D01*
X95080Y34117D01*
X94710Y34671D01*
X94157Y35041D01*
X93504Y35171D01*
D02*
G37*
G36*
X154528Y33202D02*
X153875Y33072D01*
X153321Y32702D01*
X152952Y32149D01*
X152822Y31496D01*
X152952Y30843D01*
X153321Y30290D01*
X153875Y29920D01*
X154528Y29790D01*
X155181Y29920D01*
X155734Y30290D01*
X156104Y30843D01*
X156234Y31496D01*
X156104Y32149D01*
X155734Y32702D01*
X155181Y33072D01*
X154528Y33202D01*
D02*
G37*
G36*
X139764D02*
X139111Y33072D01*
X138558Y32702D01*
X138188Y32149D01*
X138058Y31496D01*
X138188Y30843D01*
X138558Y30290D01*
X139111Y29920D01*
X139764Y29790D01*
X140417Y29920D01*
X140970Y30290D01*
X141340Y30843D01*
X141470Y31496D01*
X141340Y32149D01*
X140970Y32702D01*
X140417Y33072D01*
X139764Y33202D01*
D02*
G37*
G36*
X-2953Y29265D02*
X-3605Y29135D01*
X-4159Y28765D01*
X-4529Y28212D01*
X-4659Y27559D01*
X-4529Y26906D01*
X-4159Y26353D01*
X-3605Y25983D01*
X-2953Y25853D01*
X-2300Y25983D01*
X-1746Y26353D01*
X-1376Y26906D01*
X-1247Y27559D01*
X-1376Y28212D01*
X-1746Y28765D01*
X-2300Y29135D01*
X-2953Y29265D01*
D02*
G37*
G36*
X133858Y28281D02*
X133205Y28151D01*
X132652Y27781D01*
X132282Y27228D01*
X132152Y26575D01*
X132282Y25922D01*
X132652Y25368D01*
X133205Y24999D01*
X133858Y24869D01*
X134511Y24999D01*
X135065Y25368D01*
X135434Y25922D01*
X135564Y26575D01*
X135434Y27228D01*
X135065Y27781D01*
X134511Y28151D01*
X133858Y28281D01*
D02*
G37*
G36*
X-74803Y27297D02*
X-75456Y27167D01*
X-76010Y26797D01*
X-76379Y26243D01*
X-76509Y25591D01*
X-76379Y24938D01*
X-76010Y24384D01*
X-75456Y24014D01*
X-74803Y23885D01*
X-74150Y24014D01*
X-73597Y24384D01*
X-73227Y24938D01*
X-73097Y25591D01*
X-73227Y26243D01*
X-73597Y26797D01*
X-74150Y27167D01*
X-74803Y27297D01*
D02*
G37*
G36*
X87599Y32218D02*
X86946Y32088D01*
X86392Y31718D01*
X86022Y31165D01*
X85892Y30512D01*
X86022Y29859D01*
X86392Y29305D01*
X86946Y28936D01*
X87599Y28806D01*
X88251Y28936D01*
X88805Y29305D01*
X89175Y29859D01*
X89305Y30512D01*
X89175Y31165D01*
X88805Y31718D01*
X88251Y32088D01*
X87599Y32218D01*
D02*
G37*
G36*
X-63976Y30249D02*
X-64629Y30119D01*
X-65183Y29750D01*
X-65552Y29196D01*
X-65682Y28543D01*
X-65552Y27890D01*
X-65183Y27337D01*
X-64629Y26967D01*
X-63976Y26837D01*
X-63323Y26967D01*
X-62770Y27337D01*
X-62400Y27890D01*
X-62270Y28543D01*
X-62400Y29196D01*
X-62770Y29750D01*
X-63323Y30119D01*
X-63976Y30249D01*
D02*
G37*
G36*
X984Y29265D02*
X332Y29135D01*
X-222Y28765D01*
X-592Y28212D01*
X-722Y27559D01*
X-592Y26906D01*
X-222Y26353D01*
X332Y25983D01*
X984Y25853D01*
X1637Y25983D01*
X2191Y26353D01*
X2561Y26906D01*
X2690Y27559D01*
X2561Y28212D01*
X2191Y28765D01*
X1637Y29135D01*
X984Y29265D01*
D02*
G37*
%LPD*%
D68*
X7874Y0D02*
D03*
X-1969Y45276D02*
D03*
X84400Y-50197D02*
D03*
X-170276Y-54134D02*
D03*
X-179134D02*
D03*
X-93504Y-73819D02*
D03*
X-52165Y28543D02*
D03*
X19685Y-86614D02*
D03*
Y-71850D02*
D03*
X-99409Y-82677D02*
D03*
X-108268Y-76772D02*
D03*
Y-82677D02*
D03*
X-58071Y-72835D02*
D03*
X-69882D02*
D03*
X-75787Y-76772D02*
D03*
X-99409D02*
D03*
X-87598D02*
D03*
X127953Y-99410D02*
D03*
X135827D02*
D03*
X17717Y0D02*
D03*
X-24606Y-50197D02*
D03*
X-30512Y-29528D02*
D03*
D69*
X80709Y106299D02*
D03*
X-36417Y-9843D02*
D03*
X-155512Y-49213D02*
D03*
X93504Y-49213D02*
D03*
X107283D02*
D03*
X-80709Y-53150D02*
D03*
X41339Y-83661D02*
D03*
X-14764Y-38386D02*
D03*
X-80709Y7874D02*
D03*
X-77756Y3937D02*
D03*
Y-25591D02*
D03*
Y-19685D02*
D03*
X-37402Y984D02*
D03*
X-39370Y22638D02*
D03*
X-27559Y44291D02*
D03*
X-23622Y25591D02*
D03*
X-24606Y-1969D02*
D03*
X142717Y-93504D02*
D03*
X97441Y-81693D02*
D03*
X37402Y-26575D02*
D03*
X40354Y-16732D02*
D03*
Y-22638D02*
D03*
X69882Y14764D02*
D03*
X63977Y5906D02*
D03*
X69882Y52165D02*
D03*
X65945Y55118D02*
D03*
X60039D02*
D03*
X-6890Y67913D02*
D03*
X-169291Y-31496D02*
D03*
X-130906Y-23622D02*
D03*
Y-27559D02*
D03*
X-166339Y-2953D02*
D03*
X-109252D02*
D03*
Y-49213D02*
D03*
X-113189Y-52165D02*
D03*
X-119095D02*
D03*
X69882Y-58071D02*
D03*
X62008D02*
D03*
X-18701Y-35433D02*
D03*
X-42323D02*
D03*
X-15748Y-68898D02*
D03*
X-11811Y-65945D02*
D03*
X11811D02*
D03*
X-15748Y-83661D02*
D03*
X48228Y-39370D02*
D03*
X77756D02*
D03*
X69882Y-101378D02*
D03*
X89567Y-75787D02*
D03*
X84646Y-84646D02*
D03*
X-36417Y-48228D02*
D03*
X130906Y143701D02*
D03*
X165354D02*
D03*
X-57087Y62992D02*
D03*
X-29528D02*
D03*
X-49213Y101378D02*
D03*
M02*
