G04 Layer_Color=16711935*
%FSLAX25Y25*%
%MOIN*%
G70*
G01*
G75*
%ADD74C,0.00787*%
D74*
X-54134Y-115157D02*
G03*
X-60039Y-121063I0J-5906D01*
G01*
X-40354D02*
G03*
X-46260Y-115157I-5906J0D01*
G01*
X173228Y109843D02*
G03*
X167323Y103937I0J-5906D01*
G01*
X190945Y109843D02*
G03*
X196851Y115748I0J5906D01*
G01*
Y-115748D02*
G03*
X190945Y-109843I-5906J0D01*
G01*
X167323Y-103937D02*
G03*
X173228Y-109843I5906J0D01*
G01*
X27559Y155118D02*
G03*
X33465Y149213I5906J0D01*
G01*
X-1969Y137401D02*
G03*
X3937Y143307I0J5906D01*
G01*
X-72835Y37402D02*
G03*
X-66929Y43307I0J5906D01*
G01*
X-78740D02*
G03*
X-72835Y37402I5906J0D01*
G01*
X3937Y143307D02*
G03*
X-1969Y149213I-5906J0D01*
G01*
X-77011Y105554D02*
G03*
X-78740Y101378I4176J-4176D01*
G01*
X-30906Y149213D02*
G03*
X-35081Y147483I0J-5906D01*
G01*
X-54134Y-115157D02*
X-46260D01*
X-40354Y-149213D02*
X196851D01*
X-196850Y-149213D02*
X-60039D01*
X-196850D02*
Y214961D01*
X-40354Y-149213D02*
Y-121063D01*
X-60039Y-149213D02*
Y-121063D01*
X-196850Y214961D02*
X27559D01*
X167323Y-103937D02*
Y103937D01*
X173228Y109843D02*
X190945D01*
X196851Y115748D02*
Y149213D01*
Y-149213D02*
Y-115748D01*
X173228Y-109843D02*
X190945D01*
X27559Y155118D02*
Y214961D01*
X33465Y149213D02*
X196851D01*
X-26969Y137401D02*
X-1969D01*
X-78740Y43307D02*
Y101378D01*
X-66929Y97441D02*
X-26969Y137401D01*
X-66929Y43307D02*
Y97441D01*
X-77011Y105554D02*
X-35081Y147483D01*
X-30906Y149213D02*
X-1969D01*
M02*
