G04 Layer_Color=8421504*
%FSLAX25Y25*%
%MOIN*%
G70*
G01*
G75*
%ADD10R,0.07087X0.04921*%
%ADD11R,0.04921X0.07087*%
%ADD12R,0.09646X0.06102*%
%ADD13R,0.06299X0.09252*%
%ADD14O,0.05709X0.02362*%
%ADD15O,0.06890X0.03347*%
%ADD16R,0.02756X0.03150*%
%ADD17R,0.07874X0.07874*%
D10*
X165354Y-55413D02*
D03*
Y-66634D02*
D03*
X259842Y-52854D02*
D03*
Y-41634D02*
D03*
X269685Y3642D02*
D03*
Y-7579D02*
D03*
X141732Y37106D02*
D03*
Y25886D02*
D03*
X151575Y37106D02*
D03*
Y25886D02*
D03*
X129921Y-46949D02*
D03*
Y-35728D02*
D03*
X118110Y35728D02*
D03*
Y46949D02*
D03*
Y-46949D02*
D03*
Y-35728D02*
D03*
X185039D02*
D03*
Y-46949D02*
D03*
X175197Y-46949D02*
D03*
Y-35728D02*
D03*
Y-55413D02*
D03*
Y-66634D02*
D03*
D11*
X285138Y-41339D02*
D03*
X273917D02*
D03*
X285138Y-31496D02*
D03*
X273917D02*
D03*
X254232Y-21654D02*
D03*
X265453D02*
D03*
X273917D02*
D03*
X285138D02*
D03*
X176870Y45276D02*
D03*
X165650D02*
D03*
X196555Y-59055D02*
D03*
X185335D02*
D03*
D12*
X163386Y29528D02*
D03*
X179134D02*
D03*
D13*
X147638Y-52559D02*
D03*
Y-69488D02*
D03*
D14*
X164272Y-25965D02*
D03*
Y-35965D02*
D03*
Y-40965D02*
D03*
X142815Y-35965D02*
D03*
Y-25965D02*
D03*
Y-30965D02*
D03*
Y-40965D02*
D03*
D15*
X96161Y4921D02*
D03*
Y-4921D02*
D03*
X73130D02*
D03*
Y4921D02*
D03*
D16*
X196850Y-36417D02*
D03*
Y-50197D02*
D03*
D17*
X255906Y5906D02*
D03*
Y-9843D02*
D03*
M02*
