G04 Layer_Physical_Order=2*
G04 Layer_Color=16711680*
%FSLAX25Y25*%
%MOIN*%
G70*
G01*
G75*
%ADD18C,0.03937*%
%ADD19C,0.01969*%
%ADD22O,0.09843X0.05906*%
%ADD23O,0.09843X0.05906*%
%ADD24C,0.17716*%
%ADD25O,0.29528X0.17716*%
%ADD26O,0.05906X0.09843*%
%ADD27O,0.11811X0.06890*%
%ADD28C,0.06299*%
%ADD29C,0.05906*%
%ADD30C,0.03937*%
G36*
X295276Y49213D02*
X295276Y-53150D01*
X293307Y-55118D01*
X279528Y-55118D01*
X275590Y-59055D01*
X232283Y-59055D01*
X230315Y-57087D01*
Y-37402D01*
X232283Y-35433D01*
X267717Y-35433D01*
X269685Y-33465D01*
Y-17717D01*
X279527Y-7874D01*
X279528Y37402D01*
X277559D01*
Y-0D01*
X275590Y-1969D01*
X243329D01*
X243110Y-1641D01*
X243221Y-1373D01*
X243384Y-695D01*
X243439Y0D01*
X243384Y695D01*
X243221Y1373D01*
X242955Y2017D01*
X242590Y2611D01*
X242138Y3142D01*
X241607Y3594D01*
X241013Y3959D01*
X240369Y4225D01*
X239691Y4388D01*
X238996Y4443D01*
X234075D01*
X233380Y4388D01*
X232702Y4225D01*
X232058Y3959D01*
X231463Y3594D01*
X230933Y3142D01*
X230481Y2611D01*
X230116Y2017D01*
X229849Y1373D01*
X229687Y695D01*
X229632Y0D01*
X229687Y-695D01*
X229849Y-1373D01*
X229960Y-1641D01*
X229742Y-1969D01*
X228346D01*
X226378Y0D01*
X226378Y19685D01*
X228346Y21654D01*
X229604D01*
X229822Y21260D01*
X229687Y20695D01*
X229632Y20000D01*
X229687Y19305D01*
X229849Y18627D01*
X230116Y17983D01*
X230481Y17389D01*
X230933Y16858D01*
X231463Y16406D01*
X232058Y16041D01*
X232702Y15775D01*
X233380Y15612D01*
X234075Y15557D01*
X238996D01*
X239691Y15612D01*
X240369Y15775D01*
X241013Y16041D01*
X241607Y16406D01*
X242138Y16858D01*
X242590Y17389D01*
X242955Y17983D01*
X243221Y18627D01*
X243384Y19305D01*
X243439Y20000D01*
X243384Y20695D01*
X243249Y21260D01*
X243467Y21654D01*
X244094D01*
X246063Y23622D01*
X246063Y49213D01*
X248031Y51181D01*
X293307D01*
X295276Y49213D01*
D02*
G37*
%LPC*%
G36*
X235551Y9016D02*
X229756D01*
X229849Y8627D01*
X230116Y7983D01*
X230481Y7389D01*
X230933Y6858D01*
X231463Y6406D01*
X232058Y6041D01*
X232702Y5775D01*
X233380Y5612D01*
X234075Y5557D01*
X235551D01*
Y9016D01*
D02*
G37*
G36*
X243315D02*
X237520D01*
Y5557D01*
X238996D01*
X239691Y5612D01*
X240369Y5775D01*
X241013Y6041D01*
X241607Y6406D01*
X242138Y6858D01*
X242590Y7389D01*
X242955Y7983D01*
X243221Y8627D01*
X243315Y9016D01*
D02*
G37*
G36*
X246926Y-44291D02*
X235358D01*
X235518Y-44821D01*
X235884Y-45505D01*
X236376Y-46104D01*
X236975Y-46596D01*
X237659Y-46962D01*
X237911Y-47038D01*
Y-47450D01*
X237659Y-47526D01*
X236975Y-47892D01*
X236376Y-48384D01*
X235884Y-48983D01*
X235518Y-49667D01*
X235293Y-50409D01*
X235217Y-51181D01*
X235293Y-51953D01*
X235518Y-52695D01*
X235884Y-53379D01*
X236376Y-53978D01*
X236975Y-54470D01*
X237659Y-54836D01*
X238401Y-55061D01*
X239173Y-55137D01*
X243110D01*
X243882Y-55061D01*
X244624Y-54836D01*
X245308Y-54470D01*
X245908Y-53978D01*
X246400Y-53379D01*
X246765Y-52695D01*
X246990Y-51953D01*
X247066Y-51181D01*
X246990Y-50409D01*
X246765Y-49667D01*
X246400Y-48983D01*
X245908Y-48384D01*
X245308Y-47892D01*
X244624Y-47526D01*
X244372Y-47450D01*
Y-47038D01*
X244624Y-46962D01*
X245308Y-46596D01*
X245908Y-46104D01*
X246400Y-45505D01*
X246765Y-44821D01*
X246926Y-44291D01*
D02*
G37*
G36*
X240158Y-39351D02*
X239173D01*
X238401Y-39427D01*
X237659Y-39652D01*
X236975Y-40018D01*
X236376Y-40510D01*
X235884Y-41109D01*
X235518Y-41793D01*
X235358Y-42323D01*
X240158D01*
Y-39351D01*
D02*
G37*
G36*
X243110D02*
X242126D01*
Y-42323D01*
X246926D01*
X246765Y-41793D01*
X246400Y-41109D01*
X245908Y-40510D01*
X245308Y-40018D01*
X244624Y-39652D01*
X243882Y-39427D01*
X243110Y-39351D01*
D02*
G37*
G36*
X235551Y14443D02*
X234075D01*
X233380Y14388D01*
X232702Y14225D01*
X232058Y13959D01*
X231463Y13594D01*
X230933Y13142D01*
X230481Y12611D01*
X230116Y12017D01*
X229849Y11373D01*
X229756Y10984D01*
X235551D01*
Y14443D01*
D02*
G37*
G36*
X273501Y40354D02*
X268701D01*
Y37383D01*
X269685D01*
X270457Y37459D01*
X271199Y37684D01*
X271883Y38049D01*
X272482Y38541D01*
X272974Y39141D01*
X273340Y39825D01*
X273501Y40354D01*
D02*
G37*
G36*
X266732Y45295D02*
X265748D01*
X264976Y45219D01*
X264234Y44993D01*
X263550Y44628D01*
X262951Y44136D01*
X262459Y43536D01*
X262093Y42853D01*
X261932Y42323D01*
X266732D01*
Y45295D01*
D02*
G37*
G36*
X269685D02*
X268701D01*
Y42323D01*
X273501D01*
X273340Y42853D01*
X272974Y43536D01*
X272482Y44136D01*
X271883Y44628D01*
X271199Y44993D01*
X270457Y45219D01*
X269685Y45295D01*
D02*
G37*
G36*
X238996Y14443D02*
X237520D01*
Y10984D01*
X243315D01*
X243221Y11373D01*
X242955Y12017D01*
X242590Y12611D01*
X242138Y13142D01*
X241607Y13594D01*
X241013Y13959D01*
X240369Y14225D01*
X239691Y14388D01*
X238996Y14443D01*
D02*
G37*
G36*
X269685Y25610D02*
X265748D01*
X264976Y25534D01*
X264234Y25308D01*
X263550Y24943D01*
X262951Y24451D01*
X262459Y23851D01*
X262093Y23167D01*
X261868Y22425D01*
X261792Y21654D01*
X261868Y20882D01*
X262093Y20140D01*
X262459Y19456D01*
X262951Y18856D01*
X263550Y18364D01*
X264234Y17999D01*
X264976Y17774D01*
X265748Y17697D01*
X269685D01*
X270457Y17774D01*
X271199Y17999D01*
X271883Y18364D01*
X272482Y18856D01*
X272974Y19456D01*
X273340Y20140D01*
X273565Y20882D01*
X273641Y21654D01*
X273565Y22425D01*
X273340Y23167D01*
X272974Y23851D01*
X272482Y24451D01*
X271883Y24943D01*
X271199Y25308D01*
X270457Y25534D01*
X269685Y25610D01*
D02*
G37*
G36*
X266732Y40354D02*
X261932D01*
X262093Y39825D01*
X262459Y39141D01*
X262951Y38541D01*
X263550Y38049D01*
X264234Y37684D01*
X264976Y37459D01*
X265748Y37383D01*
X266732D01*
Y40354D01*
D02*
G37*
%LPD*%
D18*
X165354Y-9843D02*
X196378D01*
X100394Y47244D02*
X137795Y9843D01*
X165354D01*
X100394Y-47244D02*
X137795Y-9843D01*
X165354D01*
D19*
X183071Y0D02*
X196535D01*
X185039Y-68898D02*
Y-23622D01*
X179134D02*
X185039D01*
X165354Y-9843D02*
X179134Y-23622D01*
Y3937D02*
X183071Y0D01*
X179134Y3937D02*
Y19685D01*
D22*
X267717Y21654D02*
D03*
Y41339D02*
D03*
X165354Y-9843D02*
D03*
Y9843D02*
D03*
X122047Y-9843D02*
D03*
Y9843D02*
D03*
D23*
X241142Y-43307D02*
D03*
Y-51181D02*
D03*
D24*
X285039Y68504D02*
D03*
X10236D02*
D03*
Y-68504D02*
D03*
X285039Y-68504D02*
D03*
D25*
X49213Y21654D02*
D03*
Y-21654D02*
D03*
D26*
X100394Y47244D02*
D03*
X80709D02*
D03*
X100394Y-47244D02*
D03*
X80709D02*
D03*
D27*
X236535Y-20000D02*
D03*
Y-10000D02*
D03*
Y0D02*
D03*
Y10000D02*
D03*
Y20000D02*
D03*
X196535Y-20000D02*
D03*
Y-10000D02*
D03*
Y0D02*
D03*
Y10000D02*
D03*
Y20000D02*
D03*
D28*
X78740Y19685D02*
D03*
Y-19685D02*
D03*
D29*
X279528Y-13780D02*
D03*
D30*
X185039Y-68898D02*
D03*
Y-23622D02*
D03*
X179134Y19685D02*
D03*
M02*
